<?xml version="1.0" standalone="no" ?>
<!DOCTYPE svg PUBLIC "-//W3C//DTD SVG 1.1//EN" "http://www.w3.org/Graphics/SVG/1.1/DTD/svg11.dtd">
<svg width="879px" height="161px" xmlns="http://www.w3.org/2000/svg" version="1.1" viewBox="0 0 879 161" >
	<style type="text/css" > <![CDATA[
		@import url("https://www.ncbi.nlm.nih.gov/projects/sviewer/css/svg_fonts.css");
	]]>
	</style>
	<desc >Generated by NCBI Genome Workbench http://www.ncbi.nlm.nih.gov/tools/gbench/</desc>
	<defs >
		<clipPath id="clipping-rect1" >
			<rect x="0" y="14" width="879" height="18" />
		</clipPath>
		<linearGradient id="gradient1" gradientTransform="rotate(90)" >
			<stop offset="0%" stop-color="#6c6c6c" />
			<stop offset="50%" stop-color="#b5b5b5" />
			<stop offset="100%" stop-color="#6c6c6c" />
		</linearGradient>
		<clipPath id="clipping-rect2" >
			<rect x="0" y="32" width="879" height="129" />
		</clipPath>
		<linearGradient id="gradient2" gradientTransform="rotate(90)" >
			<stop offset="0%" stop-color="#b6dead" />
			<stop offset="100%" stop-color="#ffffff" stop-opacity="0.00" />
		</linearGradient>
		<linearGradient id="gradient3" gradientTransform="rotate(90)" >
			<stop offset="0%" stop-color="#e6e6e6" stop-opacity="0.71" />
			<stop offset="100%" stop-color="#ffffff" stop-opacity="0.00" />
		</linearGradient>
	</defs>
	<g >
		<polygon fill="#ffffff" shape-rendering="crispEdges" points="879.00,31.00 879.00,13.00 0.00,13.00 0.00,31.00 " />
		<line x1="0.00" y1="28.88" x2="879.00" y2="28.88" stroke="#7f7f7f" stroke-width="1.00" clip-path="url('#clipping-rect1')" />
		<line x1="10.50" y1="28.88" x2="10.50" y2="26.76" stroke="#7f7f7f" stroke-width="1.00" clip-path="url('#clipping-rect1')" />
		<line x1="21.00" y1="28.88" x2="21.00" y2="25.71" stroke="#7f7f7f" stroke-width="1.00" clip-path="url('#clipping-rect1')" />
		<line x1="31.50" y1="28.88" x2="31.50" y2="26.76" stroke="#7f7f7f" stroke-width="1.00" clip-path="url('#clipping-rect1')" />
		<line x1="42.00" y1="28.88" x2="42.00" y2="25.71" stroke="#7f7f7f" stroke-width="1.00" clip-path="url('#clipping-rect1')" />
		<line x1="52.50" y1="28.88" x2="52.50" y2="26.76" stroke="#7f7f7f" stroke-width="1.00" clip-path="url('#clipping-rect1')" />
		<line x1="63.00" y1="28.88" x2="63.00" y2="25.71" stroke="#7f7f7f" stroke-width="1.00" clip-path="url('#clipping-rect1')" />
		<line x1="73.50" y1="28.88" x2="73.50" y2="26.76" stroke="#7f7f7f" stroke-width="1.00" clip-path="url('#clipping-rect1')" />
		<line x1="84.00" y1="28.88" x2="84.00" y2="25.71" stroke="#7f7f7f" stroke-width="1.00" clip-path="url('#clipping-rect1')" />
		<line x1="94.50" y1="28.88" x2="94.50" y2="26.76" stroke="#7f7f7f" stroke-width="1.00" clip-path="url('#clipping-rect1')" />
		<line x1="105.00" y1="28.88" x2="105.00" y2="25.71" stroke="#7f7f7f" stroke-width="1.00" clip-path="url('#clipping-rect1')" />
		<line x1="115.50" y1="28.88" x2="115.50" y2="26.76" stroke="#7f7f7f" stroke-width="1.00" clip-path="url('#clipping-rect1')" />
		<line x1="126.00" y1="28.88" x2="126.00" y2="25.71" stroke="#7f7f7f" stroke-width="1.00" clip-path="url('#clipping-rect1')" />
		<line x1="136.50" y1="28.88" x2="136.50" y2="26.76" stroke="#7f7f7f" stroke-width="1.00" clip-path="url('#clipping-rect1')" />
		<line x1="146.99" y1="28.88" x2="146.99" y2="25.71" stroke="#7f7f7f" stroke-width="1.00" clip-path="url('#clipping-rect1')" />
		<line x1="157.49" y1="28.88" x2="157.49" y2="26.76" stroke="#7f7f7f" stroke-width="1.00" clip-path="url('#clipping-rect1')" />
		<line x1="167.99" y1="28.88" x2="167.99" y2="25.71" stroke="#7f7f7f" stroke-width="1.00" clip-path="url('#clipping-rect1')" />
		<line x1="178.49" y1="28.88" x2="178.49" y2="26.76" stroke="#7f7f7f" stroke-width="1.00" clip-path="url('#clipping-rect1')" />
		<line x1="188.99" y1="28.88" x2="188.99" y2="25.71" stroke="#7f7f7f" stroke-width="1.00" clip-path="url('#clipping-rect1')" />
		<line x1="199.49" y1="28.88" x2="199.49" y2="26.76" stroke="#7f7f7f" stroke-width="1.00" clip-path="url('#clipping-rect1')" />
		<line x1="209.99" y1="28.88" x2="209.99" y2="25.71" stroke="#7f7f7f" stroke-width="1.00" clip-path="url('#clipping-rect1')" />
		<line x1="220.49" y1="28.88" x2="220.49" y2="26.76" stroke="#7f7f7f" stroke-width="1.00" clip-path="url('#clipping-rect1')" />
		<line x1="230.99" y1="28.88" x2="230.99" y2="25.71" stroke="#7f7f7f" stroke-width="1.00" clip-path="url('#clipping-rect1')" />
		<line x1="241.49" y1="28.88" x2="241.49" y2="26.76" stroke="#7f7f7f" stroke-width="1.00" clip-path="url('#clipping-rect1')" />
		<line x1="251.99" y1="28.88" x2="251.99" y2="25.71" stroke="#7f7f7f" stroke-width="1.00" clip-path="url('#clipping-rect1')" />
		<line x1="262.49" y1="28.88" x2="262.49" y2="26.76" stroke="#7f7f7f" stroke-width="1.00" clip-path="url('#clipping-rect1')" />
		<line x1="272.99" y1="28.88" x2="272.99" y2="25.71" stroke="#7f7f7f" stroke-width="1.00" clip-path="url('#clipping-rect1')" />
		<line x1="283.49" y1="28.88" x2="283.49" y2="26.76" stroke="#7f7f7f" stroke-width="1.00" clip-path="url('#clipping-rect1')" />
		<line x1="293.99" y1="28.88" x2="293.99" y2="25.71" stroke="#7f7f7f" stroke-width="1.00" clip-path="url('#clipping-rect1')" />
		<line x1="304.49" y1="28.88" x2="304.49" y2="26.76" stroke="#7f7f7f" stroke-width="1.00" clip-path="url('#clipping-rect1')" />
		<line x1="314.99" y1="28.88" x2="314.99" y2="25.71" stroke="#7f7f7f" stroke-width="1.00" clip-path="url('#clipping-rect1')" />
		<line x1="325.49" y1="28.88" x2="325.49" y2="26.76" stroke="#7f7f7f" stroke-width="1.00" clip-path="url('#clipping-rect1')" />
		<line x1="335.99" y1="28.88" x2="335.99" y2="25.71" stroke="#7f7f7f" stroke-width="1.00" clip-path="url('#clipping-rect1')" />
		<line x1="346.49" y1="28.88" x2="346.49" y2="26.76" stroke="#7f7f7f" stroke-width="1.00" clip-path="url('#clipping-rect1')" />
		<line x1="356.99" y1="28.88" x2="356.99" y2="25.71" stroke="#7f7f7f" stroke-width="1.00" clip-path="url('#clipping-rect1')" />
		<line x1="367.49" y1="28.88" x2="367.49" y2="26.76" stroke="#7f7f7f" stroke-width="1.00" clip-path="url('#clipping-rect1')" />
		<line x1="377.99" y1="28.88" x2="377.99" y2="25.71" stroke="#7f7f7f" stroke-width="1.00" clip-path="url('#clipping-rect1')" />
		<line x1="388.49" y1="28.88" x2="388.49" y2="26.76" stroke="#7f7f7f" stroke-width="1.00" clip-path="url('#clipping-rect1')" />
		<line x1="398.99" y1="28.88" x2="398.99" y2="25.71" stroke="#7f7f7f" stroke-width="1.00" clip-path="url('#clipping-rect1')" />
		<line x1="409.49" y1="28.88" x2="409.49" y2="26.76" stroke="#7f7f7f" stroke-width="1.00" clip-path="url('#clipping-rect1')" />
		<line x1="419.99" y1="28.88" x2="419.99" y2="25.71" stroke="#7f7f7f" stroke-width="1.00" clip-path="url('#clipping-rect1')" />
		<line x1="430.49" y1="28.88" x2="430.49" y2="26.76" stroke="#7f7f7f" stroke-width="1.00" clip-path="url('#clipping-rect1')" />
		<line x1="440.99" y1="28.88" x2="440.99" y2="25.71" stroke="#7f7f7f" stroke-width="1.00" clip-path="url('#clipping-rect1')" />
		<line x1="451.49" y1="28.88" x2="451.49" y2="26.76" stroke="#7f7f7f" stroke-width="1.00" clip-path="url('#clipping-rect1')" />
		<line x1="461.99" y1="28.88" x2="461.99" y2="25.71" stroke="#7f7f7f" stroke-width="1.00" clip-path="url('#clipping-rect1')" />
		<line x1="472.49" y1="28.88" x2="472.49" y2="26.76" stroke="#7f7f7f" stroke-width="1.00" clip-path="url('#clipping-rect1')" />
		<line x1="482.99" y1="28.88" x2="482.99" y2="25.71" stroke="#7f7f7f" stroke-width="1.00" clip-path="url('#clipping-rect1')" />
		<line x1="493.49" y1="28.88" x2="493.49" y2="26.76" stroke="#7f7f7f" stroke-width="1.00" clip-path="url('#clipping-rect1')" />
		<line x1="503.99" y1="28.88" x2="503.99" y2="25.71" stroke="#7f7f7f" stroke-width="1.00" clip-path="url('#clipping-rect1')" />
		<line x1="514.48" y1="28.88" x2="514.48" y2="26.76" stroke="#7f7f7f" stroke-width="1.00" clip-path="url('#clipping-rect1')" />
		<line x1="524.98" y1="28.88" x2="524.98" y2="25.71" stroke="#7f7f7f" stroke-width="1.00" clip-path="url('#clipping-rect1')" />
		<line x1="535.48" y1="28.88" x2="535.48" y2="26.76" stroke="#7f7f7f" stroke-width="1.00" clip-path="url('#clipping-rect1')" />
		<line x1="545.98" y1="28.88" x2="545.98" y2="25.71" stroke="#7f7f7f" stroke-width="1.00" clip-path="url('#clipping-rect1')" />
		<line x1="556.48" y1="28.88" x2="556.48" y2="26.76" stroke="#7f7f7f" stroke-width="1.00" clip-path="url('#clipping-rect1')" />
		<line x1="566.98" y1="28.88" x2="566.98" y2="25.71" stroke="#7f7f7f" stroke-width="1.00" clip-path="url('#clipping-rect1')" />
		<line x1="577.48" y1="28.88" x2="577.48" y2="26.76" stroke="#7f7f7f" stroke-width="1.00" clip-path="url('#clipping-rect1')" />
		<line x1="587.98" y1="28.88" x2="587.98" y2="25.71" stroke="#7f7f7f" stroke-width="1.00" clip-path="url('#clipping-rect1')" />
		<line x1="598.48" y1="28.88" x2="598.48" y2="26.76" stroke="#7f7f7f" stroke-width="1.00" clip-path="url('#clipping-rect1')" />
		<line x1="608.98" y1="28.88" x2="608.98" y2="25.71" stroke="#7f7f7f" stroke-width="1.00" clip-path="url('#clipping-rect1')" />
		<line x1="619.48" y1="28.88" x2="619.48" y2="26.76" stroke="#7f7f7f" stroke-width="1.00" clip-path="url('#clipping-rect1')" />
		<line x1="629.98" y1="28.88" x2="629.98" y2="25.71" stroke="#7f7f7f" stroke-width="1.00" clip-path="url('#clipping-rect1')" />
		<line x1="640.48" y1="28.88" x2="640.48" y2="26.76" stroke="#7f7f7f" stroke-width="1.00" clip-path="url('#clipping-rect1')" />
		<line x1="650.98" y1="28.88" x2="650.98" y2="25.71" stroke="#7f7f7f" stroke-width="1.00" clip-path="url('#clipping-rect1')" />
		<line x1="661.48" y1="28.88" x2="661.48" y2="26.76" stroke="#7f7f7f" stroke-width="1.00" clip-path="url('#clipping-rect1')" />
		<line x1="671.98" y1="28.88" x2="671.98" y2="25.71" stroke="#7f7f7f" stroke-width="1.00" clip-path="url('#clipping-rect1')" />
		<line x1="682.48" y1="28.88" x2="682.48" y2="26.76" stroke="#7f7f7f" stroke-width="1.00" clip-path="url('#clipping-rect1')" />
		<line x1="692.98" y1="28.88" x2="692.98" y2="25.71" stroke="#7f7f7f" stroke-width="1.00" clip-path="url('#clipping-rect1')" />
		<line x1="703.48" y1="28.88" x2="703.48" y2="26.76" stroke="#7f7f7f" stroke-width="1.00" clip-path="url('#clipping-rect1')" />
		<line x1="713.98" y1="28.88" x2="713.98" y2="25.71" stroke="#7f7f7f" stroke-width="1.00" clip-path="url('#clipping-rect1')" />
		<line x1="724.48" y1="28.88" x2="724.48" y2="26.76" stroke="#7f7f7f" stroke-width="1.00" clip-path="url('#clipping-rect1')" />
		<line x1="734.98" y1="28.88" x2="734.98" y2="25.71" stroke="#7f7f7f" stroke-width="1.00" clip-path="url('#clipping-rect1')" />
		<line x1="745.48" y1="28.88" x2="745.48" y2="26.76" stroke="#7f7f7f" stroke-width="1.00" clip-path="url('#clipping-rect1')" />
		<line x1="755.98" y1="28.88" x2="755.98" y2="25.71" stroke="#7f7f7f" stroke-width="1.00" clip-path="url('#clipping-rect1')" />
		<line x1="766.48" y1="28.88" x2="766.48" y2="26.76" stroke="#7f7f7f" stroke-width="1.00" clip-path="url('#clipping-rect1')" />
		<line x1="776.98" y1="28.88" x2="776.98" y2="25.71" stroke="#7f7f7f" stroke-width="1.00" clip-path="url('#clipping-rect1')" />
		<line x1="787.48" y1="28.88" x2="787.48" y2="26.76" stroke="#7f7f7f" stroke-width="1.00" clip-path="url('#clipping-rect1')" />
		<line x1="797.98" y1="28.88" x2="797.98" y2="25.71" stroke="#7f7f7f" stroke-width="1.00" clip-path="url('#clipping-rect1')" />
		<line x1="808.48" y1="28.88" x2="808.48" y2="26.76" stroke="#7f7f7f" stroke-width="1.00" clip-path="url('#clipping-rect1')" />
		<line x1="818.98" y1="28.88" x2="818.98" y2="25.71" stroke="#7f7f7f" stroke-width="1.00" clip-path="url('#clipping-rect1')" />
		<line x1="829.48" y1="28.88" x2="829.48" y2="26.76" stroke="#7f7f7f" stroke-width="1.00" clip-path="url('#clipping-rect1')" />
		<line x1="839.98" y1="28.88" x2="839.98" y2="25.71" stroke="#7f7f7f" stroke-width="1.00" clip-path="url('#clipping-rect1')" />
		<line x1="850.48" y1="28.88" x2="850.48" y2="26.76" stroke="#7f7f7f" stroke-width="1.00" clip-path="url('#clipping-rect1')" />
		<line x1="860.98" y1="28.88" x2="860.98" y2="25.71" stroke="#7f7f7f" stroke-width="1.00" clip-path="url('#clipping-rect1')" />
		<line x1="871.47" y1="28.88" x2="871.47" y2="26.76" stroke="#7f7f7f" stroke-width="1.00" clip-path="url('#clipping-rect1')" />
		<text x="0.00" y="23.59" font-family="Helvetica" font-size="10" fill="#333333" clip-path="url('#clipping-rect1')" >1</text>
		<line x1="0.00" y1="31.00" x2="0.00" y2="15.12" stroke="#7f7f7f" stroke-width="1.00" clip-path="url('#clipping-rect1')" />
		<text x="843.62" y="23.59" font-family="Helvetica" font-size="10" fill="#333333" clip-path="url('#clipping-rect1')" >418,583</text>
		<line x1="879.00" y1="31.00" x2="879.00" y2="15.12" stroke="#7f7f7f" stroke-width="1.00" clip-path="url('#clipping-rect1')" />
		<text x="736.98" y="23.59" font-family="Helvetica" font-size="10" fill="#333333" clip-path="url('#clipping-rect1')" >350 K</text>
		<line x1="734.98" y1="31.00" x2="734.98" y2="15.12" stroke="#7f7f7f" stroke-width="1.00" clip-path="url('#clipping-rect1')" />
		<text x="631.98" y="23.59" font-family="Helvetica" font-size="10" fill="#333333" clip-path="url('#clipping-rect1')" >300 K</text>
		<line x1="629.98" y1="31.00" x2="629.98" y2="15.12" stroke="#7f7f7f" stroke-width="1.00" clip-path="url('#clipping-rect1')" />
		<text x="526.98" y="23.59" font-family="Helvetica" font-size="10" fill="#333333" clip-path="url('#clipping-rect1')" >250 K</text>
		<line x1="524.98" y1="31.00" x2="524.98" y2="15.12" stroke="#7f7f7f" stroke-width="1.00" clip-path="url('#clipping-rect1')" />
		<text x="421.99" y="23.59" font-family="Helvetica" font-size="10" fill="#333333" clip-path="url('#clipping-rect1')" >200 K</text>
		<line x1="419.99" y1="31.00" x2="419.99" y2="15.12" stroke="#7f7f7f" stroke-width="1.00" clip-path="url('#clipping-rect1')" />
		<text x="316.99" y="23.59" font-family="Helvetica" font-size="10" fill="#333333" clip-path="url('#clipping-rect1')" >150 K</text>
		<line x1="314.99" y1="31.00" x2="314.99" y2="15.12" stroke="#7f7f7f" stroke-width="1.00" clip-path="url('#clipping-rect1')" />
		<text x="211.99" y="23.59" font-family="Helvetica" font-size="10" fill="#333333" clip-path="url('#clipping-rect1')" >100 K</text>
		<line x1="209.99" y1="31.00" x2="209.99" y2="15.12" stroke="#7f7f7f" stroke-width="1.00" clip-path="url('#clipping-rect1')" />
		<text x="107.00" y="23.59" font-family="Helvetica" font-size="10" fill="#333333" clip-path="url('#clipping-rect1')" >50 K</text>
		<line x1="105.00" y1="31.00" x2="105.00" y2="15.12" stroke="#7f7f7f" stroke-width="1.00" clip-path="url('#clipping-rect1')" />
		<line x1="0.00" y1="160.00" x2="0.00" y2="31.00" stroke="#ebebeb" stroke-width="1.00" />
		<line x1="104.12" y1="160.00" x2="104.12" y2="31.00" stroke="#ebebeb" stroke-width="1.00" />
		<line x1="209.24" y1="160.00" x2="209.24" y2="31.00" stroke="#ebebeb" stroke-width="1.00" />
		<line x1="314.36" y1="160.00" x2="314.36" y2="31.00" stroke="#ebebeb" stroke-width="1.00" />
		<line x1="419.48" y1="160.00" x2="419.48" y2="31.00" stroke="#ebebeb" stroke-width="1.00" />
		<line x1="524.60" y1="160.00" x2="524.60" y2="31.00" stroke="#ebebeb" stroke-width="1.00" />
		<line x1="629.72" y1="160.00" x2="629.72" y2="31.00" stroke="#ebebeb" stroke-width="1.00" />
		<line x1="734.84" y1="160.00" x2="734.84" y2="31.00" stroke="#ebebeb" stroke-width="1.00" />
		<line x1="839.96" y1="160.00" x2="839.96" y2="31.00" stroke="#ebebeb" stroke-width="1.00" />
		<polygon fill="url('#gradient1')" shape-rendering="crispEdges" points="879.00,37.50 879.00,33.00 0.00,33.00 0.00,37.50 0.00,42.00 879.00,42.00 " />
		<line x1="0.00" y1="42.00" x2="0.00" y2="33.00" stroke="#6c6c6c" stroke-width="1.00" stroke-linejoin="round" />
		<line x1="0.00" y1="33.00" x2="879.00" y2="33.00" stroke="#6c6c6c" stroke-width="1.00" stroke-linejoin="round" />
		<line x1="879.00" y1="33.00" x2="879.00" y2="42.00" stroke="#6c6c6c" stroke-width="1.00" stroke-linejoin="round" />
		<line x1="0.00" y1="42.00" x2="879.00" y2="42.00" stroke="#6c6c6c" stroke-width="1.00" stroke-linejoin="round" />
		<polygon fill="url('#gradient2')" shape-rendering="crispEdges" points="0.00,58.00 879.00,58.00 879.00,44.00 0.00,44.00 " clip-path="url('#clipping-rect2')" />
		<text x="0.00" y="54.00" font-family="Helvetica" font-size="12" fill="#333333" >(U) Alignment for group templates, BLAST Results for: XM_011525269:PREDICTED: Homo sapiens ATPase...</text>
		<polygon fill="url('#gradient2')" shape-rendering="crispEdges" points="0.00,74.00 879.00,74.00 879.00,60.00 0.00,60.00 " clip-path="url('#clipping-rect2')" />
		<text x="0.00" y="70.00" font-family="Helvetica" font-size="12" fill="#333333" >(U) BLAST Results for: XM_011525269:PREDICTED: Homo sapiens ATPase...</text>
		<line x1="100.13" y1="95.00" x2="100.13" y2="123.00" stroke="#009900" stroke-opacity="0.10" stroke-width="1.00" stroke-linejoin="round" />
		<line x1="100.13" y1="123.00" x2="489.86" y2="123.00" stroke="#009900" stroke-opacity="0.10" stroke-width="1.00" stroke-linejoin="round" />
		<line x1="489.86" y1="123.00" x2="489.86" y2="95.00" stroke="#009900" stroke-opacity="0.10" stroke-width="1.00" stroke-linejoin="round" />
		<line x1="100.13" y1="95.00" x2="489.86" y2="95.00" stroke="#009900" stroke-opacity="0.10" stroke-width="1.00" stroke-linejoin="round" />
		<text x="240.63" y="104.00" font-family="Helvetica" font-size="10" fill="#124d94" >ENSSPUG00000000882</text>
		<polygon fill="#1e8c1e" shape-rendering="crispEdges" points="222.97,110.00 222.97,121.00 220.89,121.00 220.89,110.00 " />
		<line x1="222.97" y1="115.50" x2="361.02" y2="115.50" stroke="#4ba34b" stroke-width="2.00" />
		<polygon fill="#b2b2b2" shape-rendering="crispEdges" points="246.39,115.50 237.59,111.10 239.79,115.50 237.59,119.90 " />
		<polygon fill="#9d9d9d" shape-rendering="crispEdges" points="346.39,115.50 337.59,111.10 339.79,115.50 337.59,119.90 " />
		<polygon fill="#1e8c1e" shape-rendering="crispEdges" points="361.89,110.00 361.89,121.00 360.89,121.00 360.89,110.00 " />
		<line x1="361.75" y1="115.50" x2="368.08" y2="115.50" stroke="#4ba34b" stroke-width="2.00" />
		<polygon fill="#1e8c1e" shape-rendering="crispEdges" points="368.80,110.00 368.80,121.00 367.80,121.00 367.80,110.00 " />
		<polygon fill="#ffffff" shape-rendering="crispEdges" points="220.89,121.00 220.89,110.00 103.13,110.00 103.13,121.00 " />
		<text x="103.13" y="119.00" font-family="Helvetica" font-size="10" fill="#124d94" >ENSSPUT00000001189.1</text>
		<polygon fill="#ffffff" shape-rendering="crispEdges" points="487.86,121.00 487.86,110.00 372.53,110.00 372.53,121.00 " />
		<text x="372.53" y="119.00" font-family="Helvetica" font-size="10" fill="#124d94" >ENSSPUP00000001127.1</text>
		<line x1="351.16" y1="128.00" x2="351.16" y2="156.00" stroke="#009900" stroke-opacity="0.10" stroke-width="1.00" stroke-linejoin="round" />
		<line x1="351.16" y1="156.00" x2="732.33" y2="156.00" stroke="#009900" stroke-opacity="0.10" stroke-width="1.00" stroke-linejoin="round" />
		<line x1="732.33" y1="156.00" x2="732.33" y2="128.00" stroke="#009900" stroke-opacity="0.10" stroke-width="1.00" stroke-linejoin="round" />
		<line x1="351.16" y1="128.00" x2="732.33" y2="128.00" stroke="#009900" stroke-opacity="0.10" stroke-width="1.00" stroke-linejoin="round" />
		<text x="487.38" y="137.00" font-family="Helvetica" font-size="10" fill="#124d94" >ENSSPUG00000000899</text>
		<polygon fill="#a5d1a5" shape-rendering="crispEdges" points="472.45,143.00 472.45,154.00 471.45,154.00 471.45,143.00 " />
		<polygon fill="#1e8c1e" shape-rendering="crispEdges" points="472.80,143.00 472.80,154.00 471.80,154.00 471.80,143.00 " />
		<line x1="472.63" y1="148.50" x2="515.19" y2="148.50" stroke="#4ba34b" stroke-width="2.00" />
		<polygon fill="#b2b2b2" shape-rendering="crispEdges" points="498.31,148.50 489.51,144.10 491.71,148.50 489.51,152.90 " />
		<polygon fill="#1e8c1e" shape-rendering="crispEdges" points="515.76,143.00 515.76,154.00 514.76,154.00 514.76,143.00 " />
		<line x1="515.32" y1="148.50" x2="519.43" y2="148.50" stroke="#4ba34b" stroke-width="2.00" />
		<polygon fill="#1e8c1e" shape-rendering="crispEdges" points="520.05,143.00 520.05,154.00 519.05,154.00 519.05,143.00 " />
		<line x1="519.67" y1="148.50" x2="545.37" y2="148.50" stroke="#4ba34b" stroke-width="2.00" />
		<polygon fill="#b2b2b2" shape-rendering="crispEdges" points="536.92,148.50 528.12,144.10 530.32,148.50 528.12,152.90 " />
		<polygon fill="#1e8c1e" shape-rendering="crispEdges" points="545.91,143.00 545.91,154.00 544.91,154.00 544.91,143.00 " />
		<line x1="545.45" y1="148.50" x2="550.90" y2="148.50" stroke="#4ba34b" stroke-width="2.00" />
		<polygon fill="#1e8c1e" shape-rendering="crispEdges" points="551.56,143.00 551.56,154.00 550.56,154.00 550.56,143.00 " />
		<line x1="551.21" y1="148.50" x2="584.76" y2="148.50" stroke="#4ba34b" stroke-width="2.00" />
		<polygon fill="#b2b2b2" shape-rendering="crispEdges" points="572.39,148.50 563.59,144.10 565.79,148.50 563.59,152.90 " />
		<polygon fill="#1e8c1e" shape-rendering="crispEdges" points="585.32,143.00 585.32,154.00 584.32,154.00 584.32,143.00 " />
		<line x1="584.87" y1="148.50" x2="609.63" y2="148.50" stroke="#4ba34b" stroke-width="2.00" />
		<polygon fill="#b2b2b2" shape-rendering="crispEdges" points="601.65,148.50 592.85,144.10 595.05,148.50 592.85,152.90 " />
		<polygon fill="#1e8c1e" shape-rendering="crispEdges" points="610.27,143.00 610.27,154.00 609.27,154.00 609.27,143.00 " />
		<polygon fill="#a5d1a5" shape-rendering="crispEdges" points="611.00,143.00 611.00,154.00 609.91,154.00 609.91,143.00 " />
		<polygon fill="#ffffff" shape-rendering="crispEdges" points="471.92,154.00 471.92,143.00 354.16,143.00 354.16,154.00 " />
		<text x="354.16" y="152.00" font-family="Helvetica" font-size="10" fill="#124d94" >ENSSPUT00000001198.1</text>
		<polygon fill="#ffffff" shape-rendering="crispEdges" points="730.33,154.00 730.33,143.00 615.00,143.00 615.00,154.00 " />
		<text x="615.00" y="152.00" font-family="Helvetica" font-size="10" fill="#124d94" >ENSSPUP00000001136.1</text>
		<line x1="581.50" y1="95.00" x2="581.50" y2="123.00" stroke="#009900" stroke-opacity="0.10" stroke-width="1.00" stroke-linejoin="round" />
		<line x1="581.50" y1="123.00" x2="879.00" y2="123.00" stroke="#009900" stroke-opacity="0.10" stroke-width="1.00" stroke-linejoin="round" />
		<line x1="879.00" y1="123.00" x2="879.00" y2="95.00" stroke="#009900" stroke-opacity="0.10" stroke-width="1.00" stroke-linejoin="round" />
		<line x1="581.50" y1="95.00" x2="879.00" y2="95.00" stroke="#009900" stroke-opacity="0.10" stroke-width="1.00" stroke-linejoin="round" />
		<text x="677.40" y="104.00" font-family="Helvetica" font-size="10" fill="#124d94" >ENSSPUG00000000912</text>
		<polygon fill="#1e8c1e" shape-rendering="crispEdges" points="704.06,110.00 704.06,121.00 702.83,121.00 702.83,110.00 " />
		<line x1="704.06" y1="115.50" x2="704.13" y2="115.50" stroke="#4ba34b" stroke-width="2.00" />
		<polygon fill="#1e8c1e" shape-rendering="crispEdges" points="706.38,110.00 706.38,121.00 704.13,121.00 704.13,110.00 " />
		<line x1="706.38" y1="115.50" x2="759.76" y2="115.50" stroke="#4ba34b" stroke-width="2.00" />
		<polygon fill="#b2b2b2" shape-rendering="crispEdges" points="728.67,115.50 737.47,111.10 735.27,115.50 737.47,119.90 " />
		<polygon fill="#1e8c1e" shape-rendering="crispEdges" points="760.61,110.00 760.61,121.00 759.61,121.00 759.61,110.00 " />
		<line x1="760.46" y1="115.50" x2="760.88" y2="115.50" stroke="#4ba34b" stroke-width="2.00" />
		<polygon fill="#1e8c1e" shape-rendering="crispEdges" points="761.57,110.00 761.57,121.00 760.57,121.00 760.57,110.00 " />
		<polygon fill="#ffffff" shape-rendering="crispEdges" points="702.83,121.00 702.83,110.00 584.50,110.00 584.50,121.00 " />
		<text x="584.50" y="119.00" font-family="Helvetica" font-size="10" fill="#124d94" >ENSSPUP00000001202.1</text>
		<polygon fill="#ffffff" shape-rendering="crispEdges" points="879.00,121.00 879.00,110.00 764.24,110.00 764.24,121.00 " />
		<text x="764.24" y="119.00" font-family="Helvetica" font-size="10" fill="#124d94" >ENSSPUT00000001271.1</text>
		<polygon fill="url('#gradient3')" shape-rendering="crispEdges" points="0.00,90.00 879.00,90.00 879.00,76.00 0.00,76.00 " clip-path="url('#clipping-rect2')" />
		<text x="0.00" y="86.00" font-family="Helvetica" font-size="12" fill="#333333" >Genes, Ensembl release 114</text>
		<polygon fill="#0000ff" fill-opacity="0.20" shape-rendering="crispEdges" points="294.50,31.50 294.50,23.10 294.50,23.10 " />
		<polygon fill="#0000ff" fill-opacity="0.20" shape-rendering="crispEdges" points="294.50,31.50 294.50,31.50 294.50,23.10 " />
		<line x1="294.50" y1="30.50" x2="294.50" y2="23.10" stroke="#0000ff" stroke-opacity="0.40" stroke-width="1.00" />
		<line x1="294.50" y1="30.50" x2="294.50" y2="23.10" stroke="#0000ff" stroke-opacity="0.40" stroke-width="1.00" />
		<polygon fill="#0000ff" shape-rendering="crispEdges" points="288.79,22.35 288.50,20.50 288.79,18.65 289.65,16.97 290.97,15.65 292.65,14.79 294.50,14.50 294.50,26.50 292.65,26.21 290.97,25.35 289.65,24.03 " />
		<polygon fill="#0000ff" fill-opacity="0.60" shape-rendering="crispEdges" points="339.91,26.50 339.91,14.50 294.50,14.50 294.50,26.50 " />
		<text x="296.50" y="23.50" font-family="Helvetica" font-size="10" fill="#ffffff" >ADRA1B</text>
		<polygon fill="#0000ff" fill-opacity="0.20" shape-rendering="crispEdges" points="294.33,161.01 294.33,31.00 294.33,31.00 " />
		<polygon fill="#0000ff" fill-opacity="0.20" shape-rendering="crispEdges" points="294.33,161.01 294.33,161.01 294.33,31.00 " />
		<line x1="294.33" y1="160.00" x2="294.33" y2="31.00" stroke="#0000ff" stroke-opacity="0.40" stroke-width="1.00" />
		<line x1="294.33" y1="160.00" x2="294.33" y2="31.00" stroke="#0000ff" stroke-opacity="0.40" stroke-width="1.00" />
		<polygon fill="#0000ff" fill-opacity="0.20" shape-rendering="crispEdges" points="540.50,31.50 540.50,23.10 540.50,23.10 " />
		<polygon fill="#0000ff" fill-opacity="0.20" shape-rendering="crispEdges" points="540.50,31.50 540.50,31.50 540.50,23.10 " />
		<line x1="540.50" y1="30.50" x2="540.50" y2="23.10" stroke="#0000ff" stroke-opacity="0.40" stroke-width="1.00" />
		<line x1="540.50" y1="30.50" x2="540.50" y2="23.10" stroke="#0000ff" stroke-opacity="0.40" stroke-width="1.00" />
		<polygon fill="#0000ff" shape-rendering="crispEdges" points="534.79,22.35 534.50,20.50 534.79,18.65 535.65,16.97 536.97,15.65 538.65,14.79 540.50,14.50 540.50,26.50 538.65,26.21 536.97,25.35 535.65,24.03 " />
		<polygon fill="#0000ff" fill-opacity="0.60" shape-rendering="crispEdges" points="569.20,26.50 569.20,14.50 540.50,14.50 540.50,26.50 " />
		<text x="542.50" y="23.50" font-family="Helvetica" font-size="10" fill="#ffffff" >TTC1</text>
		<polygon fill="#0000ff" fill-opacity="0.20" shape-rendering="crispEdges" points="540.62,161.01 540.62,31.00 540.62,31.00 " />
		<polygon fill="#0000ff" fill-opacity="0.20" shape-rendering="crispEdges" points="540.62,161.01 540.62,161.01 540.62,31.00 " />
		<line x1="540.62" y1="160.00" x2="540.62" y2="31.00" stroke="#0000ff" stroke-opacity="0.40" stroke-width="1.00" />
		<line x1="540.62" y1="160.00" x2="540.62" y2="31.00" stroke="#0000ff" stroke-opacity="0.40" stroke-width="1.00" />
		<polygon fill="#0000ff" fill-opacity="0.20" shape-rendering="crispEdges" points="723.50,31.50 723.50,23.10 723.50,23.10 " />
		<polygon fill="#0000ff" fill-opacity="0.20" shape-rendering="crispEdges" points="723.50,31.50 723.50,31.50 723.50,23.10 " />
		<line x1="723.50" y1="30.50" x2="723.50" y2="23.10" stroke="#0000ff" stroke-opacity="0.40" stroke-width="1.00" />
		<line x1="723.50" y1="30.50" x2="723.50" y2="23.10" stroke="#0000ff" stroke-opacity="0.40" stroke-width="1.00" />
		<polygon fill="#0000ff" shape-rendering="crispEdges" points="717.79,22.35 717.50,20.50 717.79,18.65 718.65,16.97 719.97,15.65 721.65,14.79 723.50,14.50 723.50,26.50 721.65,26.21 719.97,25.35 718.65,24.03 " />
		<polygon fill="#0000ff" fill-opacity="0.60" shape-rendering="crispEdges" points="772.91,26.50 772.91,14.50 723.50,14.50 723.50,26.50 " />
		<text x="725.50" y="23.50" font-family="Helvetica" font-size="10" fill="#ffffff" >PWWP2A</text>
		<polygon fill="#0000ff" fill-opacity="0.20" shape-rendering="crispEdges" points="723.82,161.01 723.82,31.00 723.82,31.00 " />
		<polygon fill="#0000ff" fill-opacity="0.20" shape-rendering="crispEdges" points="723.82,161.01 723.82,161.01 723.82,31.00 " />
		<line x1="723.82" y1="160.00" x2="723.82" y2="31.00" stroke="#0000ff" stroke-opacity="0.40" stroke-width="1.00" />
		<line x1="723.82" y1="160.00" x2="723.82" y2="31.00" stroke="#0000ff" stroke-opacity="0.40" stroke-width="1.00" />
		<polygon fill="#e5e5e5" shape-rendering="crispEdges" points="879.00,13.00 879.00,-1.00 0.00,-1.00 0.00,13.00 " />
		<text x="0.00" y="10.00" font-family="Helvetica Bold" font-size="12" text-anchor="start" fill="#000000" >QEPC01010348.1:0..418583 Sphenodon punctatus isolate mauimua-1 ScrUdWx_36, whole genome shotgun sequence</text>
	</g>
</svg>
