<?xml version="1.0" standalone="no" ?>
<!DOCTYPE svg PUBLIC "-//W3C//DTD SVG 1.1//EN" "http://www.w3.org/Graphics/SVG/1.1/DTD/svg11.dtd">
<svg width="879px" height="214px" xmlns="http://www.w3.org/2000/svg" version="1.1" viewBox="0 0 879 214" >
	<style type="text/css" > <![CDATA[
		@import url("https://www.ncbi.nlm.nih.gov/projects/sviewer/css/svg_fonts.css");
	]]>
	</style>
	<desc >Generated by NCBI Genome Workbench http://www.ncbi.nlm.nih.gov/tools/gbench/</desc>
	<defs >
		<clipPath id="clipping-rect1" >
			<rect x="0" y="14" width="879" height="18" />
		</clipPath>
		<linearGradient id="gradient1" gradientTransform="rotate(90)" >
			<stop offset="0%" stop-color="#6c6c6c" />
			<stop offset="50%" stop-color="#b5b5b5" />
			<stop offset="100%" stop-color="#6c6c6c" />
		</linearGradient>
		<clipPath id="clipping-rect2" >
			<rect x="0" y="32" width="879" height="182" />
		</clipPath>
		<linearGradient id="gradient2" gradientTransform="rotate(90)" >
			<stop offset="0%" stop-color="#b6dead" />
			<stop offset="100%" stop-color="#ffffff" stop-opacity="0.00" />
		</linearGradient>
		<linearGradient id="gradient3" gradientTransform="rotate(90)" >
			<stop offset="0%" stop-color="#e6e6e6" stop-opacity="0.71" />
			<stop offset="100%" stop-color="#ffffff" stop-opacity="0.00" />
		</linearGradient>
	</defs>
	<g >
		<polygon fill="#ffffff" shape-rendering="crispEdges" points="879.00,31.00 879.00,13.00 0.00,13.00 0.00,31.00 " />
		<line x1="0.00" y1="28.88" x2="879.00" y2="28.88" stroke="#7f7f7f" stroke-width="1.00" clip-path="url('#clipping-rect1')" />
		<line x1="4.62" y1="28.88" x2="4.62" y2="26.76" stroke="#7f7f7f" stroke-width="1.00" clip-path="url('#clipping-rect1')" />
		<line x1="13.54" y1="28.88" x2="13.54" y2="26.76" stroke="#7f7f7f" stroke-width="1.00" clip-path="url('#clipping-rect1')" />
		<line x1="22.45" y1="28.88" x2="22.45" y2="26.76" stroke="#7f7f7f" stroke-width="1.00" clip-path="url('#clipping-rect1')" />
		<line x1="31.37" y1="28.88" x2="31.37" y2="26.76" stroke="#7f7f7f" stroke-width="1.00" clip-path="url('#clipping-rect1')" />
		<line x1="40.28" y1="28.88" x2="40.28" y2="26.76" stroke="#7f7f7f" stroke-width="1.00" clip-path="url('#clipping-rect1')" />
		<line x1="49.20" y1="28.88" x2="49.20" y2="25.71" stroke="#7f7f7f" stroke-width="1.00" clip-path="url('#clipping-rect1')" />
		<line x1="58.11" y1="28.88" x2="58.11" y2="26.76" stroke="#7f7f7f" stroke-width="1.00" clip-path="url('#clipping-rect1')" />
		<line x1="67.03" y1="28.88" x2="67.03" y2="26.76" stroke="#7f7f7f" stroke-width="1.00" clip-path="url('#clipping-rect1')" />
		<line x1="75.94" y1="28.88" x2="75.94" y2="26.76" stroke="#7f7f7f" stroke-width="1.00" clip-path="url('#clipping-rect1')" />
		<line x1="84.86" y1="28.88" x2="84.86" y2="26.76" stroke="#7f7f7f" stroke-width="1.00" clip-path="url('#clipping-rect1')" />
		<line x1="93.77" y1="28.88" x2="93.77" y2="26.76" stroke="#7f7f7f" stroke-width="1.00" clip-path="url('#clipping-rect1')" />
		<line x1="102.68" y1="28.88" x2="102.68" y2="26.76" stroke="#7f7f7f" stroke-width="1.00" clip-path="url('#clipping-rect1')" />
		<line x1="111.60" y1="28.88" x2="111.60" y2="26.76" stroke="#7f7f7f" stroke-width="1.00" clip-path="url('#clipping-rect1')" />
		<line x1="120.51" y1="28.88" x2="120.51" y2="26.76" stroke="#7f7f7f" stroke-width="1.00" clip-path="url('#clipping-rect1')" />
		<line x1="129.43" y1="28.88" x2="129.43" y2="26.76" stroke="#7f7f7f" stroke-width="1.00" clip-path="url('#clipping-rect1')" />
		<line x1="138.34" y1="28.88" x2="138.34" y2="25.71" stroke="#7f7f7f" stroke-width="1.00" clip-path="url('#clipping-rect1')" />
		<line x1="147.26" y1="28.88" x2="147.26" y2="26.76" stroke="#7f7f7f" stroke-width="1.00" clip-path="url('#clipping-rect1')" />
		<line x1="156.17" y1="28.88" x2="156.17" y2="26.76" stroke="#7f7f7f" stroke-width="1.00" clip-path="url('#clipping-rect1')" />
		<line x1="165.09" y1="28.88" x2="165.09" y2="26.76" stroke="#7f7f7f" stroke-width="1.00" clip-path="url('#clipping-rect1')" />
		<line x1="174.00" y1="28.88" x2="174.00" y2="26.76" stroke="#7f7f7f" stroke-width="1.00" clip-path="url('#clipping-rect1')" />
		<line x1="182.92" y1="28.88" x2="182.92" y2="26.76" stroke="#7f7f7f" stroke-width="1.00" clip-path="url('#clipping-rect1')" />
		<line x1="191.83" y1="28.88" x2="191.83" y2="26.76" stroke="#7f7f7f" stroke-width="1.00" clip-path="url('#clipping-rect1')" />
		<line x1="200.75" y1="28.88" x2="200.75" y2="26.76" stroke="#7f7f7f" stroke-width="1.00" clip-path="url('#clipping-rect1')" />
		<line x1="209.66" y1="28.88" x2="209.66" y2="26.76" stroke="#7f7f7f" stroke-width="1.00" clip-path="url('#clipping-rect1')" />
		<line x1="218.58" y1="28.88" x2="218.58" y2="26.76" stroke="#7f7f7f" stroke-width="1.00" clip-path="url('#clipping-rect1')" />
		<line x1="227.49" y1="28.88" x2="227.49" y2="25.71" stroke="#7f7f7f" stroke-width="1.00" clip-path="url('#clipping-rect1')" />
		<line x1="236.40" y1="28.88" x2="236.40" y2="26.76" stroke="#7f7f7f" stroke-width="1.00" clip-path="url('#clipping-rect1')" />
		<line x1="245.32" y1="28.88" x2="245.32" y2="26.76" stroke="#7f7f7f" stroke-width="1.00" clip-path="url('#clipping-rect1')" />
		<line x1="254.23" y1="28.88" x2="254.23" y2="26.76" stroke="#7f7f7f" stroke-width="1.00" clip-path="url('#clipping-rect1')" />
		<line x1="263.15" y1="28.88" x2="263.15" y2="26.76" stroke="#7f7f7f" stroke-width="1.00" clip-path="url('#clipping-rect1')" />
		<line x1="272.06" y1="28.88" x2="272.06" y2="26.76" stroke="#7f7f7f" stroke-width="1.00" clip-path="url('#clipping-rect1')" />
		<line x1="280.98" y1="28.88" x2="280.98" y2="26.76" stroke="#7f7f7f" stroke-width="1.00" clip-path="url('#clipping-rect1')" />
		<line x1="289.89" y1="28.88" x2="289.89" y2="26.76" stroke="#7f7f7f" stroke-width="1.00" clip-path="url('#clipping-rect1')" />
		<line x1="298.81" y1="28.88" x2="298.81" y2="26.76" stroke="#7f7f7f" stroke-width="1.00" clip-path="url('#clipping-rect1')" />
		<line x1="307.72" y1="28.88" x2="307.72" y2="26.76" stroke="#7f7f7f" stroke-width="1.00" clip-path="url('#clipping-rect1')" />
		<line x1="316.64" y1="28.88" x2="316.64" y2="25.71" stroke="#7f7f7f" stroke-width="1.00" clip-path="url('#clipping-rect1')" />
		<line x1="325.55" y1="28.88" x2="325.55" y2="26.76" stroke="#7f7f7f" stroke-width="1.00" clip-path="url('#clipping-rect1')" />
		<line x1="334.47" y1="28.88" x2="334.47" y2="26.76" stroke="#7f7f7f" stroke-width="1.00" clip-path="url('#clipping-rect1')" />
		<line x1="343.38" y1="28.88" x2="343.38" y2="26.76" stroke="#7f7f7f" stroke-width="1.00" clip-path="url('#clipping-rect1')" />
		<line x1="352.30" y1="28.88" x2="352.30" y2="26.76" stroke="#7f7f7f" stroke-width="1.00" clip-path="url('#clipping-rect1')" />
		<line x1="361.21" y1="28.88" x2="361.21" y2="26.76" stroke="#7f7f7f" stroke-width="1.00" clip-path="url('#clipping-rect1')" />
		<line x1="370.12" y1="28.88" x2="370.12" y2="26.76" stroke="#7f7f7f" stroke-width="1.00" clip-path="url('#clipping-rect1')" />
		<line x1="379.04" y1="28.88" x2="379.04" y2="26.76" stroke="#7f7f7f" stroke-width="1.00" clip-path="url('#clipping-rect1')" />
		<line x1="387.95" y1="28.88" x2="387.95" y2="26.76" stroke="#7f7f7f" stroke-width="1.00" clip-path="url('#clipping-rect1')" />
		<line x1="396.87" y1="28.88" x2="396.87" y2="26.76" stroke="#7f7f7f" stroke-width="1.00" clip-path="url('#clipping-rect1')" />
		<line x1="405.78" y1="28.88" x2="405.78" y2="25.71" stroke="#7f7f7f" stroke-width="1.00" clip-path="url('#clipping-rect1')" />
		<line x1="414.70" y1="28.88" x2="414.70" y2="26.76" stroke="#7f7f7f" stroke-width="1.00" clip-path="url('#clipping-rect1')" />
		<line x1="423.61" y1="28.88" x2="423.61" y2="26.76" stroke="#7f7f7f" stroke-width="1.00" clip-path="url('#clipping-rect1')" />
		<line x1="432.53" y1="28.88" x2="432.53" y2="26.76" stroke="#7f7f7f" stroke-width="1.00" clip-path="url('#clipping-rect1')" />
		<line x1="441.44" y1="28.88" x2="441.44" y2="26.76" stroke="#7f7f7f" stroke-width="1.00" clip-path="url('#clipping-rect1')" />
		<line x1="450.36" y1="28.88" x2="450.36" y2="26.76" stroke="#7f7f7f" stroke-width="1.00" clip-path="url('#clipping-rect1')" />
		<line x1="459.27" y1="28.88" x2="459.27" y2="26.76" stroke="#7f7f7f" stroke-width="1.00" clip-path="url('#clipping-rect1')" />
		<line x1="468.19" y1="28.88" x2="468.19" y2="26.76" stroke="#7f7f7f" stroke-width="1.00" clip-path="url('#clipping-rect1')" />
		<line x1="477.10" y1="28.88" x2="477.10" y2="26.76" stroke="#7f7f7f" stroke-width="1.00" clip-path="url('#clipping-rect1')" />
		<line x1="486.01" y1="28.88" x2="486.01" y2="26.76" stroke="#7f7f7f" stroke-width="1.00" clip-path="url('#clipping-rect1')" />
		<line x1="494.93" y1="28.88" x2="494.93" y2="25.71" stroke="#7f7f7f" stroke-width="1.00" clip-path="url('#clipping-rect1')" />
		<line x1="503.84" y1="28.88" x2="503.84" y2="26.76" stroke="#7f7f7f" stroke-width="1.00" clip-path="url('#clipping-rect1')" />
		<line x1="512.76" y1="28.88" x2="512.76" y2="26.76" stroke="#7f7f7f" stroke-width="1.00" clip-path="url('#clipping-rect1')" />
		<line x1="521.67" y1="28.88" x2="521.67" y2="26.76" stroke="#7f7f7f" stroke-width="1.00" clip-path="url('#clipping-rect1')" />
		<line x1="530.59" y1="28.88" x2="530.59" y2="26.76" stroke="#7f7f7f" stroke-width="1.00" clip-path="url('#clipping-rect1')" />
		<line x1="539.50" y1="28.88" x2="539.50" y2="26.76" stroke="#7f7f7f" stroke-width="1.00" clip-path="url('#clipping-rect1')" />
		<line x1="548.42" y1="28.88" x2="548.42" y2="26.76" stroke="#7f7f7f" stroke-width="1.00" clip-path="url('#clipping-rect1')" />
		<line x1="557.33" y1="28.88" x2="557.33" y2="26.76" stroke="#7f7f7f" stroke-width="1.00" clip-path="url('#clipping-rect1')" />
		<line x1="566.25" y1="28.88" x2="566.25" y2="26.76" stroke="#7f7f7f" stroke-width="1.00" clip-path="url('#clipping-rect1')" />
		<line x1="575.16" y1="28.88" x2="575.16" y2="26.76" stroke="#7f7f7f" stroke-width="1.00" clip-path="url('#clipping-rect1')" />
		<line x1="584.08" y1="28.88" x2="584.08" y2="25.71" stroke="#7f7f7f" stroke-width="1.00" clip-path="url('#clipping-rect1')" />
		<line x1="592.99" y1="28.88" x2="592.99" y2="26.76" stroke="#7f7f7f" stroke-width="1.00" clip-path="url('#clipping-rect1')" />
		<line x1="601.91" y1="28.88" x2="601.91" y2="26.76" stroke="#7f7f7f" stroke-width="1.00" clip-path="url('#clipping-rect1')" />
		<line x1="610.82" y1="28.88" x2="610.82" y2="26.76" stroke="#7f7f7f" stroke-width="1.00" clip-path="url('#clipping-rect1')" />
		<line x1="619.73" y1="28.88" x2="619.73" y2="26.76" stroke="#7f7f7f" stroke-width="1.00" clip-path="url('#clipping-rect1')" />
		<line x1="628.65" y1="28.88" x2="628.65" y2="26.76" stroke="#7f7f7f" stroke-width="1.00" clip-path="url('#clipping-rect1')" />
		<line x1="637.56" y1="28.88" x2="637.56" y2="26.76" stroke="#7f7f7f" stroke-width="1.00" clip-path="url('#clipping-rect1')" />
		<line x1="646.48" y1="28.88" x2="646.48" y2="26.76" stroke="#7f7f7f" stroke-width="1.00" clip-path="url('#clipping-rect1')" />
		<line x1="655.39" y1="28.88" x2="655.39" y2="26.76" stroke="#7f7f7f" stroke-width="1.00" clip-path="url('#clipping-rect1')" />
		<line x1="664.31" y1="28.88" x2="664.31" y2="26.76" stroke="#7f7f7f" stroke-width="1.00" clip-path="url('#clipping-rect1')" />
		<line x1="673.22" y1="28.88" x2="673.22" y2="25.71" stroke="#7f7f7f" stroke-width="1.00" clip-path="url('#clipping-rect1')" />
		<line x1="682.14" y1="28.88" x2="682.14" y2="26.76" stroke="#7f7f7f" stroke-width="1.00" clip-path="url('#clipping-rect1')" />
		<line x1="691.05" y1="28.88" x2="691.05" y2="26.76" stroke="#7f7f7f" stroke-width="1.00" clip-path="url('#clipping-rect1')" />
		<line x1="699.97" y1="28.88" x2="699.97" y2="26.76" stroke="#7f7f7f" stroke-width="1.00" clip-path="url('#clipping-rect1')" />
		<line x1="708.88" y1="28.88" x2="708.88" y2="26.76" stroke="#7f7f7f" stroke-width="1.00" clip-path="url('#clipping-rect1')" />
		<line x1="717.80" y1="28.88" x2="717.80" y2="26.76" stroke="#7f7f7f" stroke-width="1.00" clip-path="url('#clipping-rect1')" />
		<line x1="726.71" y1="28.88" x2="726.71" y2="26.76" stroke="#7f7f7f" stroke-width="1.00" clip-path="url('#clipping-rect1')" />
		<line x1="735.63" y1="28.88" x2="735.63" y2="26.76" stroke="#7f7f7f" stroke-width="1.00" clip-path="url('#clipping-rect1')" />
		<line x1="744.54" y1="28.88" x2="744.54" y2="26.76" stroke="#7f7f7f" stroke-width="1.00" clip-path="url('#clipping-rect1')" />
		<line x1="753.45" y1="28.88" x2="753.45" y2="26.76" stroke="#7f7f7f" stroke-width="1.00" clip-path="url('#clipping-rect1')" />
		<line x1="762.37" y1="28.88" x2="762.37" y2="25.71" stroke="#7f7f7f" stroke-width="1.00" clip-path="url('#clipping-rect1')" />
		<line x1="771.28" y1="28.88" x2="771.28" y2="26.76" stroke="#7f7f7f" stroke-width="1.00" clip-path="url('#clipping-rect1')" />
		<line x1="780.20" y1="28.88" x2="780.20" y2="26.76" stroke="#7f7f7f" stroke-width="1.00" clip-path="url('#clipping-rect1')" />
		<line x1="789.11" y1="28.88" x2="789.11" y2="26.76" stroke="#7f7f7f" stroke-width="1.00" clip-path="url('#clipping-rect1')" />
		<line x1="798.03" y1="28.88" x2="798.03" y2="26.76" stroke="#7f7f7f" stroke-width="1.00" clip-path="url('#clipping-rect1')" />
		<line x1="806.94" y1="28.88" x2="806.94" y2="26.76" stroke="#7f7f7f" stroke-width="1.00" clip-path="url('#clipping-rect1')" />
		<line x1="815.86" y1="28.88" x2="815.86" y2="26.76" stroke="#7f7f7f" stroke-width="1.00" clip-path="url('#clipping-rect1')" />
		<line x1="824.77" y1="28.88" x2="824.77" y2="26.76" stroke="#7f7f7f" stroke-width="1.00" clip-path="url('#clipping-rect1')" />
		<line x1="833.69" y1="28.88" x2="833.69" y2="26.76" stroke="#7f7f7f" stroke-width="1.00" clip-path="url('#clipping-rect1')" />
		<line x1="842.60" y1="28.88" x2="842.60" y2="26.76" stroke="#7f7f7f" stroke-width="1.00" clip-path="url('#clipping-rect1')" />
		<line x1="851.52" y1="28.88" x2="851.52" y2="25.71" stroke="#7f7f7f" stroke-width="1.00" clip-path="url('#clipping-rect1')" />
		<line x1="860.43" y1="28.88" x2="860.43" y2="26.76" stroke="#7f7f7f" stroke-width="1.00" clip-path="url('#clipping-rect1')" />
		<line x1="869.34" y1="28.88" x2="869.34" y2="26.76" stroke="#7f7f7f" stroke-width="1.00" clip-path="url('#clipping-rect1')" />
		<line x1="878.26" y1="28.88" x2="878.26" y2="26.76" stroke="#7f7f7f" stroke-width="1.00" clip-path="url('#clipping-rect1')" />
		<text x="835.34" y="23.59" font-family="Helvetica" font-size="10" fill="#333333" clip-path="url('#clipping-rect1')" >2,430,830</text>
		<line x1="879.00" y1="31.00" x2="879.00" y2="15.12" stroke="#7f7f7f" stroke-width="1.00" clip-path="url('#clipping-rect1')" />
		<text x="764.37" y="23.59" font-family="Helvetica" font-size="10" fill="#333333" clip-path="url('#clipping-rect1')" >2,300 K</text>
		<line x1="762.37" y1="31.00" x2="762.37" y2="15.12" stroke="#7f7f7f" stroke-width="1.00" clip-path="url('#clipping-rect1')" />
		<text x="675.22" y="23.59" font-family="Helvetica" font-size="10" fill="#333333" clip-path="url('#clipping-rect1')" >2,200 K</text>
		<line x1="673.22" y1="31.00" x2="673.22" y2="15.12" stroke="#7f7f7f" stroke-width="1.00" clip-path="url('#clipping-rect1')" />
		<text x="586.08" y="23.59" font-family="Helvetica" font-size="10" fill="#333333" clip-path="url('#clipping-rect1')" >2,100 K</text>
		<line x1="584.08" y1="31.00" x2="584.08" y2="15.12" stroke="#7f7f7f" stroke-width="1.00" clip-path="url('#clipping-rect1')" />
		<text x="496.93" y="23.59" font-family="Helvetica" font-size="10" fill="#333333" clip-path="url('#clipping-rect1')" >2 M</text>
		<line x1="494.93" y1="31.00" x2="494.93" y2="15.12" stroke="#7f7f7f" stroke-width="1.00" clip-path="url('#clipping-rect1')" />
		<text x="407.78" y="23.59" font-family="Helvetica" font-size="10" fill="#333333" clip-path="url('#clipping-rect1')" >1,900 K</text>
		<line x1="405.78" y1="31.00" x2="405.78" y2="15.12" stroke="#7f7f7f" stroke-width="1.00" clip-path="url('#clipping-rect1')" />
		<text x="318.64" y="23.59" font-family="Helvetica" font-size="10" fill="#333333" clip-path="url('#clipping-rect1')" >1,800 K</text>
		<line x1="316.64" y1="31.00" x2="316.64" y2="15.12" stroke="#7f7f7f" stroke-width="1.00" clip-path="url('#clipping-rect1')" />
		<text x="229.49" y="23.59" font-family="Helvetica" font-size="10" fill="#333333" clip-path="url('#clipping-rect1')" >1,700 K</text>
		<line x1="227.49" y1="31.00" x2="227.49" y2="15.12" stroke="#7f7f7f" stroke-width="1.00" clip-path="url('#clipping-rect1')" />
		<text x="140.34" y="23.59" font-family="Helvetica" font-size="10" fill="#333333" clip-path="url('#clipping-rect1')" >1,600 K</text>
		<line x1="138.34" y1="31.00" x2="138.34" y2="15.12" stroke="#7f7f7f" stroke-width="1.00" clip-path="url('#clipping-rect1')" />
		<text x="51.20" y="23.59" font-family="Helvetica" font-size="10" fill="#333333" clip-path="url('#clipping-rect1')" >1,500 K</text>
		<line x1="49.20" y1="31.00" x2="49.20" y2="15.12" stroke="#7f7f7f" stroke-width="1.00" clip-path="url('#clipping-rect1')" />
		<line x1="49.06" y1="213.00" x2="49.06" y2="31.00" stroke="#ebebeb" stroke-width="1.00" />
		<line x1="138.16" y1="213.00" x2="138.16" y2="31.00" stroke="#ebebeb" stroke-width="1.00" />
		<line x1="227.26" y1="213.00" x2="227.26" y2="31.00" stroke="#ebebeb" stroke-width="1.00" />
		<line x1="316.36" y1="213.00" x2="316.36" y2="31.00" stroke="#ebebeb" stroke-width="1.00" />
		<line x1="405.46" y1="213.00" x2="405.46" y2="31.00" stroke="#ebebeb" stroke-width="1.00" />
		<line x1="494.56" y1="213.00" x2="494.56" y2="31.00" stroke="#ebebeb" stroke-width="1.00" />
		<line x1="584.67" y1="213.00" x2="584.67" y2="31.00" stroke="#ebebeb" stroke-width="1.00" />
		<line x1="673.77" y1="213.00" x2="673.77" y2="31.00" stroke="#ebebeb" stroke-width="1.00" />
		<line x1="762.87" y1="213.00" x2="762.87" y2="31.00" stroke="#ebebeb" stroke-width="1.00" />
		<line x1="851.97" y1="213.00" x2="851.97" y2="31.00" stroke="#ebebeb" stroke-width="1.00" />
		<polygon fill="url('#gradient1')" shape-rendering="crispEdges" points="879.00,37.50 879.00,33.00 0.00,33.00 0.00,37.50 0.00,42.00 879.00,42.00 " />
		<line x1="0.00" y1="42.00" x2="0.00" y2="33.00" stroke="#6c6c6c" stroke-width="1.00" stroke-linejoin="round" />
		<line x1="0.00" y1="33.00" x2="879.00" y2="33.00" stroke="#6c6c6c" stroke-width="1.00" stroke-linejoin="round" />
		<line x1="879.00" y1="33.00" x2="879.00" y2="42.00" stroke="#6c6c6c" stroke-width="1.00" stroke-linejoin="round" />
		<line x1="0.00" y1="42.00" x2="879.00" y2="42.00" stroke="#6c6c6c" stroke-width="1.00" stroke-linejoin="round" />
		<polygon fill="url('#gradient2')" shape-rendering="crispEdges" points="0.00,58.00 879.00,58.00 879.00,44.00 0.00,44.00 " clip-path="url('#clipping-rect2')" />
		<text x="0.00" y="54.00" font-family="Helvetica" font-size="12" fill="#333333" >(U) Alignment for group templates, BLAST Results for: XM_011525269:PREDICTED: Homo sapiens ATPase...</text>
		<polygon fill="url('#gradient2')" shape-rendering="crispEdges" points="0.00,74.00 879.00,74.00 879.00,60.00 0.00,60.00 " clip-path="url('#clipping-rect2')" />
		<text x="0.00" y="70.00" font-family="Helvetica" font-size="12" fill="#333333" >(U) BLAST Results for: XM_011525269:PREDICTED: Homo sapiens ATPase...</text>
		<line x1="217.44" y1="95.00" x2="217.44" y2="110.00" stroke="#009900" stroke-opacity="0.10" stroke-width="1.00" stroke-linejoin="round" />
		<line x1="217.44" y1="110.00" x2="380.13" y2="110.00" stroke="#009900" stroke-opacity="0.10" stroke-width="1.00" stroke-linejoin="round" />
		<line x1="380.13" y1="110.00" x2="380.13" y2="95.00" stroke="#009900" stroke-opacity="0.10" stroke-width="1.00" stroke-linejoin="round" />
		<line x1="217.44" y1="95.00" x2="380.13" y2="95.00" stroke="#009900" stroke-opacity="0.10" stroke-width="1.00" stroke-linejoin="round" />
		<polygon fill="#1e8c1e" shape-rendering="crispEdges" points="220.02,97.00 220.02,108.00 219.02,108.00 219.02,97.00 " />
		<line x1="219.60" y1="102.50" x2="221.16" y2="102.50" stroke="#4ba34b" stroke-width="2.00" />
		<polygon fill="#1e8c1e" shape-rendering="crispEdges" points="221.71,97.00 221.71,108.00 220.71,108.00 220.71,97.00 " />
		<line x1="221.26" y1="102.50" x2="221.70" y2="102.50" stroke="#4ba34b" stroke-width="2.00" />
		<polygon fill="#1e8c1e" shape-rendering="crispEdges" points="222.24,97.00 222.24,108.00 221.24,108.00 221.24,97.00 " />
		<line x1="221.79" y1="102.50" x2="222.99" y2="102.50" stroke="#4ba34b" stroke-width="2.00" />
		<polygon fill="#1e8c1e" shape-rendering="crispEdges" points="223.55,97.00 223.55,108.00 222.55,108.00 222.55,97.00 " />
		<line x1="223.12" y1="102.50" x2="224.55" y2="102.50" stroke="#4ba34b" stroke-width="2.00" />
		<polygon fill="#1e8c1e" shape-rendering="crispEdges" points="225.13,97.00 225.13,108.00 224.13,108.00 224.13,97.00 " />
		<line x1="224.70" y1="102.50" x2="226.39" y2="102.50" stroke="#4ba34b" stroke-width="2.00" />
		<polygon fill="#1e8c1e" shape-rendering="crispEdges" points="226.93,97.00 226.93,108.00 225.93,108.00 225.93,97.00 " />
		<line x1="226.48" y1="102.50" x2="227.04" y2="102.50" stroke="#4ba34b" stroke-width="2.00" />
		<polygon fill="#1e8c1e" shape-rendering="crispEdges" points="227.59,97.00 227.59,108.00 226.59,108.00 226.59,97.00 " />
		<line x1="227.13" y1="102.50" x2="230.93" y2="102.50" stroke="#4ba34b" stroke-width="2.00" />
		<polygon fill="#77b977" shape-rendering="crispEdges" points="231.74,97.00 231.74,108.00 230.74,108.00 230.74,97.00 " />
		<line x1="231.55" y1="102.50" x2="232.83" y2="102.50" stroke="#4ba34b" stroke-width="2.00" />
		<polygon fill="#1e8c1e" shape-rendering="crispEdges" points="233.41,97.00 233.41,108.00 232.41,108.00 232.41,97.00 " />
		<line x1="233.00" y1="102.50" x2="234.29" y2="102.50" stroke="#4ba34b" stroke-width="2.00" />
		<polygon fill="#1e8c1e" shape-rendering="crispEdges" points="234.84,97.00 234.84,108.00 233.84,108.00 233.84,97.00 " />
		<line x1="234.40" y1="102.50" x2="235.57" y2="102.50" stroke="#4ba34b" stroke-width="2.00" />
		<polygon fill="#1e8c1e" shape-rendering="crispEdges" points="236.17,97.00 236.17,108.00 235.17,108.00 235.17,97.00 " />
		<line x1="235.77" y1="102.50" x2="236.71" y2="102.50" stroke="#4ba34b" stroke-width="2.00" />
		<polygon fill="#1e8c1e" shape-rendering="crispEdges" points="237.27,97.00 237.27,108.00 236.27,108.00 236.27,97.00 " />
		<line x1="236.83" y1="102.50" x2="238.44" y2="102.50" stroke="#4ba34b" stroke-width="2.00" />
		<polygon fill="#1e8c1e" shape-rendering="crispEdges" points="239.02,97.00 239.02,108.00 238.02,108.00 238.02,97.00 " />
		<line x1="238.59" y1="102.50" x2="239.08" y2="102.50" stroke="#4ba34b" stroke-width="2.00" />
		<polygon fill="#1e8c1e" shape-rendering="crispEdges" points="239.64,97.00 239.64,108.00 238.64,108.00 238.64,97.00 " />
		<line x1="239.20" y1="102.50" x2="239.72" y2="102.50" stroke="#4ba34b" stroke-width="2.00" />
		<polygon fill="#1e8c1e" shape-rendering="crispEdges" points="240.27,97.00 240.27,108.00 239.27,108.00 239.27,97.00 " />
		<line x1="239.81" y1="102.50" x2="240.48" y2="102.50" stroke="#4ba34b" stroke-width="2.00" />
		<polygon fill="#1e8c1e" shape-rendering="crispEdges" points="241.04,97.00 241.04,108.00 240.04,108.00 240.04,97.00 " />
		<line x1="240.60" y1="102.50" x2="242.76" y2="102.50" stroke="#4ba34b" stroke-width="2.00" />
		<polygon fill="#1e8c1e" shape-rendering="crispEdges" points="243.32,97.00 243.32,108.00 242.32,108.00 242.32,97.00 " />
		<line x1="242.88" y1="102.50" x2="243.19" y2="102.50" stroke="#4ba34b" stroke-width="2.00" />
		<polygon fill="#1e8c1e" shape-rendering="crispEdges" points="243.77,97.00 243.77,108.00 242.77,108.00 242.77,97.00 " />
		<line x1="243.34" y1="102.50" x2="244.27" y2="102.50" stroke="#4ba34b" stroke-width="2.00" />
		<polygon fill="#1e8c1e" shape-rendering="crispEdges" points="244.85,97.00 244.85,108.00 243.85,108.00 243.85,97.00 " />
		<line x1="244.42" y1="102.50" x2="244.76" y2="102.50" stroke="#4ba34b" stroke-width="2.00" />
		<polygon fill="#1e8c1e" shape-rendering="crispEdges" points="245.32,97.00 245.32,108.00 244.32,108.00 244.32,97.00 " />
		<polygon fill="#ffffff" shape-rendering="crispEdges" points="378.13,108.00 378.13,97.00 248.88,97.00 248.88,108.00 " />
		<text x="248.88" y="106.00" font-family="Helvetica" font-size="10" fill="#124d94" >ENSSPUG00000019275 [+4]</text>
		<line x1="135.27" y1="181.00" x2="135.27" y2="209.00" stroke="#009900" stroke-opacity="0.10" stroke-width="1.00" stroke-linejoin="round" />
		<line x1="135.27" y1="209.00" x2="381.58" y2="209.00" stroke="#009900" stroke-opacity="0.10" stroke-width="1.00" stroke-linejoin="round" />
		<line x1="381.58" y1="209.00" x2="381.58" y2="181.00" stroke="#009900" stroke-opacity="0.10" stroke-width="1.00" stroke-linejoin="round" />
		<line x1="135.27" y1="181.00" x2="381.58" y2="181.00" stroke="#009900" stroke-opacity="0.10" stroke-width="1.00" stroke-linejoin="round" />
		<text x="204.05" y="190.00" font-family="Helvetica" font-size="10" fill="#124d94" >ENSSPUG00000019276</text>
		<polygon fill="#1e8c1e" shape-rendering="crispEdges" points="257.12,196.00 257.12,207.00 256.12,207.00 256.12,196.00 " />
		<line x1="256.65" y1="201.50" x2="260.15" y2="201.50" stroke="#4ba34b" stroke-width="2.00" />
		<polygon fill="#1e8c1e" shape-rendering="crispEdges" points="260.69,196.00 260.69,207.00 259.69,207.00 259.69,196.00 " />
		<line x1="260.23" y1="201.50" x2="260.81" y2="201.50" stroke="#4ba34b" stroke-width="2.00" />
		<polygon fill="#1e8c1e" shape-rendering="crispEdges" points="261.31,196.00 261.31,207.00 260.31,207.00 260.31,196.00 " />
		<polygon fill="#ffffff" shape-rendering="crispEdges" points="256.60,207.00 256.60,196.00 138.27,196.00 138.27,207.00 " />
		<text x="138.27" y="205.00" font-family="Helvetica" font-size="10" fill="#124d94" >ENSSPUP00000025167.1</text>
		<polygon fill="#ffffff" shape-rendering="crispEdges" points="379.58,207.00 379.58,196.00 264.82,196.00 264.82,207.00 " />
		<text x="264.82" y="205.00" font-family="Helvetica" font-size="10" fill="#124d94" >ENSSPUT00000026861.1</text>
		<line x1="208.81" y1="148.00" x2="208.81" y2="176.00" stroke="#009900" stroke-opacity="0.10" stroke-width="1.00" stroke-linejoin="round" />
		<line x1="208.81" y1="176.00" x2="455.19" y2="176.00" stroke="#009900" stroke-opacity="0.10" stroke-width="1.00" stroke-linejoin="round" />
		<line x1="455.19" y1="176.00" x2="455.19" y2="148.00" stroke="#009900" stroke-opacity="0.10" stroke-width="1.00" stroke-linejoin="round" />
		<line x1="208.81" y1="148.00" x2="455.19" y2="148.00" stroke="#009900" stroke-opacity="0.10" stroke-width="1.00" stroke-linejoin="round" />
		<text x="277.59" y="157.00" font-family="Helvetica" font-size="10" fill="#124d94" >ENSSPUG00000019277</text>
		<polygon fill="#1e8c1e" shape-rendering="crispEdges" points="330.71,163.00 330.71,174.00 329.71,174.00 329.71,163.00 " />
		<line x1="330.29" y1="168.50" x2="331.38" y2="168.50" stroke="#4ba34b" stroke-width="2.00" />
		<polygon fill="#1e8c1e" shape-rendering="crispEdges" points="331.93,163.00 331.93,174.00 330.93,174.00 330.93,163.00 " />
		<line x1="331.48" y1="168.50" x2="334.41" y2="168.50" stroke="#4ba34b" stroke-width="2.00" />
		<polygon fill="#1e8c1e" shape-rendering="crispEdges" points="334.92,163.00 334.92,174.00 333.92,174.00 333.92,163.00 " />
		<polygon fill="#ffffff" shape-rendering="crispEdges" points="330.14,174.00 330.14,163.00 211.81,163.00 211.81,174.00 " />
		<text x="211.81" y="172.00" font-family="Helvetica" font-size="10" fill="#124d94" >ENSSPUP00000025168.1</text>
		<polygon fill="#ffffff" shape-rendering="crispEdges" points="453.19,174.00 453.19,163.00 338.42,163.00 338.42,174.00 " />
		<text x="338.42" y="172.00" font-family="Helvetica" font-size="10" fill="#124d94" >ENSSPUT00000026862.1</text>
		<line x1="358.43" y1="115.00" x2="358.43" y2="143.00" stroke="#009900" stroke-opacity="0.10" stroke-width="1.00" stroke-linejoin="round" />
		<line x1="358.43" y1="143.00" x2="613.18" y2="143.00" stroke="#009900" stroke-opacity="0.10" stroke-width="1.00" stroke-linejoin="round" />
		<line x1="613.18" y1="143.00" x2="613.18" y2="115.00" stroke="#009900" stroke-opacity="0.10" stroke-width="1.00" stroke-linejoin="round" />
		<line x1="358.43" y1="115.00" x2="613.18" y2="115.00" stroke="#009900" stroke-opacity="0.10" stroke-width="1.00" stroke-linejoin="round" />
		<text x="431.43" y="124.00" font-family="Helvetica" font-size="10" fill="#124d94" >ENSSPUG00000019278</text>
		<polygon fill="#1e8c1e" shape-rendering="crispEdges" points="480.32,130.00 480.32,141.00 479.32,141.00 479.32,130.00 " />
		<line x1="479.87" y1="135.50" x2="480.87" y2="135.50" stroke="#4ba34b" stroke-width="2.00" />
		<polygon fill="#1e8c1e" shape-rendering="crispEdges" points="481.44,130.00 481.44,141.00 480.44,141.00 480.44,130.00 " />
		<line x1="481.00" y1="135.50" x2="484.08" y2="135.50" stroke="#4ba34b" stroke-width="2.00" />
		<polygon fill="#1e8c1e" shape-rendering="crispEdges" points="484.66,130.00 484.66,141.00 483.66,141.00 483.66,130.00 " />
		<line x1="484.24" y1="135.50" x2="485.13" y2="135.50" stroke="#4ba34b" stroke-width="2.00" />
		<polygon fill="#1e8c1e" shape-rendering="crispEdges" points="485.68,130.00 485.68,141.00 484.68,141.00 484.68,130.00 " />
		<line x1="485.23" y1="135.50" x2="489.07" y2="135.50" stroke="#4ba34b" stroke-width="2.00" />
		<polygon fill="#1e8c1e" shape-rendering="crispEdges" points="489.69,130.00 489.69,141.00 488.69,141.00 488.69,130.00 " />
		<line x1="489.32" y1="135.50" x2="492.34" y2="135.50" stroke="#4ba34b" stroke-width="2.00" />
		<polygon fill="#1e8c1e" shape-rendering="crispEdges" points="492.88,130.00 492.88,141.00 491.88,141.00 491.88,130.00 " />
		<polygon fill="#ffffff" shape-rendering="crispEdges" points="479.76,141.00 479.76,130.00 361.43,130.00 361.43,141.00 " />
		<text x="361.43" y="139.00" font-family="Helvetica" font-size="10" fill="#124d94" >ENSSPUP00000025169.1</text>
		<polygon fill="#ffffff" shape-rendering="crispEdges" points="611.18,141.00 611.18,130.00 496.41,130.00 496.41,141.00 " />
		<text x="496.41" y="139.00" font-family="Helvetica" font-size="10" fill="#124d94" >ENSSPUT00000026863.1</text>
		<polygon fill="url('#gradient3')" shape-rendering="crispEdges" points="0.00,90.00 879.00,90.00 879.00,76.00 0.00,76.00 " clip-path="url('#clipping-rect2')" />
		<text x="0.00" y="86.00" font-family="Helvetica" font-size="12" fill="#333333" >Genes, Ensembl release 114</text>
		<polygon fill="#0000ff" fill-opacity="0.20" shape-rendering="crispEdges" points="485.50,31.50 485.50,23.10 485.50,23.10 " />
		<polygon fill="#0000ff" fill-opacity="0.20" shape-rendering="crispEdges" points="485.50,31.50 485.50,31.50 485.50,23.10 " />
		<line x1="485.50" y1="30.50" x2="485.50" y2="23.10" stroke="#0000ff" stroke-opacity="0.40" stroke-width="1.00" />
		<line x1="485.50" y1="30.50" x2="485.50" y2="23.10" stroke="#0000ff" stroke-opacity="0.40" stroke-width="1.00" />
		<polygon fill="#0000ff" shape-rendering="crispEdges" points="479.79,22.35 479.50,20.50 479.79,18.65 480.65,16.97 481.97,15.65 483.65,14.79 485.50,14.50 485.50,26.50 483.65,26.21 481.97,25.35 480.65,24.03 " />
		<polygon fill="#0000ff" fill-opacity="0.60" shape-rendering="crispEdges" points="516.20,26.50 516.20,14.50 485.50,14.50 485.50,26.50 " />
		<text x="487.50" y="23.50" font-family="Helvetica" font-size="10" fill="#ffffff" >IL12B</text>
		<polygon fill="#0000ff" fill-opacity="0.20" shape-rendering="crispEdges" points="485.55,214.01 485.55,31.00 485.55,31.00 " />
		<polygon fill="#0000ff" fill-opacity="0.20" shape-rendering="crispEdges" points="485.55,214.01 485.55,214.01 485.55,31.00 " />
		<line x1="485.55" y1="213.00" x2="485.55" y2="31.00" stroke="#0000ff" stroke-opacity="0.40" stroke-width="1.00" />
		<line x1="485.55" y1="213.00" x2="485.55" y2="31.00" stroke="#0000ff" stroke-opacity="0.40" stroke-width="1.00" />
		<polygon fill="#0000ff" fill-opacity="0.20" shape-rendering="crispEdges" points="233.50,23.10 233.50,31.50 232.50,31.50 232.50,23.10 " />
		<line x1="232.50" y1="30.50" x2="232.50" y2="23.10" stroke="#0000ff" stroke-opacity="0.40" stroke-width="1.00" />
		<line x1="233.50" y1="30.50" x2="233.50" y2="23.10" stroke="#0000ff" stroke-opacity="0.40" stroke-width="1.00" />
		<polygon fill="#0000ff" shape-rendering="crispEdges" points="226.79,22.35 226.50,20.50 226.79,18.65 227.65,16.97 228.97,15.65 230.65,14.79 232.50,14.50 232.50,26.50 230.65,26.21 228.97,25.35 227.65,24.03 " />
		<polygon fill="#0000ff" fill-opacity="0.60" shape-rendering="crispEdges" points="275.52,26.50 275.52,14.50 232.50,14.50 232.50,26.50 " />
		<text x="234.50" y="23.50" font-family="Helvetica" font-size="10" fill="#ffffff" >FBXO38</text>
		<polygon fill="#0000ff" fill-opacity="0.20" shape-rendering="crispEdges" points="233.27,31.00 233.27,214.01 232.26,214.01 232.26,31.00 " />
		<line x1="232.26" y1="213.00" x2="232.26" y2="31.00" stroke="#0000ff" stroke-opacity="0.40" stroke-width="1.00" />
		<line x1="233.27" y1="213.00" x2="233.27" y2="31.00" stroke="#0000ff" stroke-opacity="0.40" stroke-width="1.00" />
		<polygon fill="#e5e5e5" shape-rendering="crispEdges" points="879.00,13.00 879.00,-1.00 0.00,-1.00 0.00,13.00 " />
		<text x="0.00" y="10.00" font-family="Helvetica Bold" font-size="12" text-anchor="start" fill="#000000" >QEPC01015368.1:1444813..2430830 Sphenodon punctatus isolate mauimua-1 ScrUdWx_1114, whole genome shotgun sequence</text>
	</g>
</svg>
