<?xml version="1.0" standalone="no" ?>
<!DOCTYPE svg PUBLIC "-//W3C//DTD SVG 1.1//EN" "http://www.w3.org/Graphics/SVG/1.1/DTD/svg11.dtd">
<svg width="879px" height="179px" xmlns="http://www.w3.org/2000/svg" version="1.1" viewBox="0 0 879 179" >
	<style type="text/css" > <![CDATA[
		@import url("https://www.ncbi.nlm.nih.gov/projects/sviewer/css/svg_fonts.css");
	]]>
	</style>
	<desc >Generated by NCBI Genome Workbench http://www.ncbi.nlm.nih.gov/tools/gbench/</desc>
	<defs >
		<clipPath id="clipping-rect1" >
			<rect x="0" y="0" width="879" height="18" />
		</clipPath>
		<linearGradient id="gradient1" gradientTransform="rotate(90)" >
			<stop offset="0%" stop-color="#6c6c6c" />
			<stop offset="50%" stop-color="#b5b5b5" />
			<stop offset="100%" stop-color="#6c6c6c" />
		</linearGradient>
		<clipPath id="clipping-rect2" >
			<rect x="0" y="18" width="879" height="161" />
		</clipPath>
		<linearGradient id="gradient2" gradientTransform="rotate(90)" >
			<stop offset="0%" stop-color="#b6dead" />
			<stop offset="100%" stop-color="#ffffff" stop-opacity="0.00" />
		</linearGradient>
		<linearGradient id="gradient3" gradientTransform="rotate(90)" >
			<stop offset="0%" stop-color="#6321ff" />
			<stop offset="50%" stop-color="#b190ff" />
			<stop offset="100%" stop-color="#6321ff" />
		</linearGradient>
		<linearGradient id="gradient4" gradientTransform="rotate(90)" >
			<stop offset="0%" stop-color="#e6e6e6" stop-opacity="0.71" />
			<stop offset="100%" stop-color="#ffffff" stop-opacity="0.00" />
		</linearGradient>
	</defs>
	<g >
		<polygon fill="#ffffff" shape-rendering="crispEdges" points="879.00,17.00 879.00,-1.00 0.00,-1.00 0.00,17.00 " />
		<line x1="0.00" y1="14.88" x2="879.00" y2="14.88" stroke="#7f7f7f" stroke-width="1.00" clip-path="url('#clipping-rect1')" />
		<line x1="4.09" y1="14.88" x2="4.09" y2="11.71" stroke="#7f7f7f" stroke-width="1.00" clip-path="url('#clipping-rect1')" />
		<line x1="13.08" y1="14.88" x2="13.08" y2="12.76" stroke="#7f7f7f" stroke-width="1.00" clip-path="url('#clipping-rect1')" />
		<line x1="22.07" y1="14.88" x2="22.07" y2="11.71" stroke="#7f7f7f" stroke-width="1.00" clip-path="url('#clipping-rect1')" />
		<line x1="31.07" y1="14.88" x2="31.07" y2="12.76" stroke="#7f7f7f" stroke-width="1.00" clip-path="url('#clipping-rect1')" />
		<line x1="40.06" y1="14.88" x2="40.06" y2="11.71" stroke="#7f7f7f" stroke-width="1.00" clip-path="url('#clipping-rect1')" />
		<line x1="49.05" y1="14.88" x2="49.05" y2="12.76" stroke="#7f7f7f" stroke-width="1.00" clip-path="url('#clipping-rect1')" />
		<line x1="58.05" y1="14.88" x2="58.05" y2="11.71" stroke="#7f7f7f" stroke-width="1.00" clip-path="url('#clipping-rect1')" />
		<line x1="67.04" y1="14.88" x2="67.04" y2="12.76" stroke="#7f7f7f" stroke-width="1.00" clip-path="url('#clipping-rect1')" />
		<line x1="76.03" y1="14.88" x2="76.03" y2="11.71" stroke="#7f7f7f" stroke-width="1.00" clip-path="url('#clipping-rect1')" />
		<line x1="85.03" y1="14.88" x2="85.03" y2="12.76" stroke="#7f7f7f" stroke-width="1.00" clip-path="url('#clipping-rect1')" />
		<line x1="94.02" y1="14.88" x2="94.02" y2="11.71" stroke="#7f7f7f" stroke-width="1.00" clip-path="url('#clipping-rect1')" />
		<line x1="103.01" y1="14.88" x2="103.01" y2="12.76" stroke="#7f7f7f" stroke-width="1.00" clip-path="url('#clipping-rect1')" />
		<line x1="112.01" y1="14.88" x2="112.01" y2="11.71" stroke="#7f7f7f" stroke-width="1.00" clip-path="url('#clipping-rect1')" />
		<line x1="121.00" y1="14.88" x2="121.00" y2="12.76" stroke="#7f7f7f" stroke-width="1.00" clip-path="url('#clipping-rect1')" />
		<line x1="130.00" y1="14.88" x2="130.00" y2="11.71" stroke="#7f7f7f" stroke-width="1.00" clip-path="url('#clipping-rect1')" />
		<line x1="138.99" y1="14.88" x2="138.99" y2="12.76" stroke="#7f7f7f" stroke-width="1.00" clip-path="url('#clipping-rect1')" />
		<line x1="147.98" y1="14.88" x2="147.98" y2="11.71" stroke="#7f7f7f" stroke-width="1.00" clip-path="url('#clipping-rect1')" />
		<line x1="156.98" y1="14.88" x2="156.98" y2="12.76" stroke="#7f7f7f" stroke-width="1.00" clip-path="url('#clipping-rect1')" />
		<line x1="165.97" y1="14.88" x2="165.97" y2="11.71" stroke="#7f7f7f" stroke-width="1.00" clip-path="url('#clipping-rect1')" />
		<line x1="174.96" y1="14.88" x2="174.96" y2="12.76" stroke="#7f7f7f" stroke-width="1.00" clip-path="url('#clipping-rect1')" />
		<line x1="183.96" y1="14.88" x2="183.96" y2="11.71" stroke="#7f7f7f" stroke-width="1.00" clip-path="url('#clipping-rect1')" />
		<line x1="192.95" y1="14.88" x2="192.95" y2="12.76" stroke="#7f7f7f" stroke-width="1.00" clip-path="url('#clipping-rect1')" />
		<line x1="201.94" y1="14.88" x2="201.94" y2="11.71" stroke="#7f7f7f" stroke-width="1.00" clip-path="url('#clipping-rect1')" />
		<line x1="210.94" y1="14.88" x2="210.94" y2="12.76" stroke="#7f7f7f" stroke-width="1.00" clip-path="url('#clipping-rect1')" />
		<line x1="219.93" y1="14.88" x2="219.93" y2="11.71" stroke="#7f7f7f" stroke-width="1.00" clip-path="url('#clipping-rect1')" />
		<line x1="228.92" y1="14.88" x2="228.92" y2="12.76" stroke="#7f7f7f" stroke-width="1.00" clip-path="url('#clipping-rect1')" />
		<line x1="237.92" y1="14.88" x2="237.92" y2="11.71" stroke="#7f7f7f" stroke-width="1.00" clip-path="url('#clipping-rect1')" />
		<line x1="246.91" y1="14.88" x2="246.91" y2="12.76" stroke="#7f7f7f" stroke-width="1.00" clip-path="url('#clipping-rect1')" />
		<line x1="255.90" y1="14.88" x2="255.90" y2="11.71" stroke="#7f7f7f" stroke-width="1.00" clip-path="url('#clipping-rect1')" />
		<line x1="264.90" y1="14.88" x2="264.90" y2="12.76" stroke="#7f7f7f" stroke-width="1.00" clip-path="url('#clipping-rect1')" />
		<line x1="273.89" y1="14.88" x2="273.89" y2="11.71" stroke="#7f7f7f" stroke-width="1.00" clip-path="url('#clipping-rect1')" />
		<line x1="282.88" y1="14.88" x2="282.88" y2="12.76" stroke="#7f7f7f" stroke-width="1.00" clip-path="url('#clipping-rect1')" />
		<line x1="291.88" y1="14.88" x2="291.88" y2="11.71" stroke="#7f7f7f" stroke-width="1.00" clip-path="url('#clipping-rect1')" />
		<line x1="300.87" y1="14.88" x2="300.87" y2="12.76" stroke="#7f7f7f" stroke-width="1.00" clip-path="url('#clipping-rect1')" />
		<line x1="309.86" y1="14.88" x2="309.86" y2="11.71" stroke="#7f7f7f" stroke-width="1.00" clip-path="url('#clipping-rect1')" />
		<line x1="318.86" y1="14.88" x2="318.86" y2="12.76" stroke="#7f7f7f" stroke-width="1.00" clip-path="url('#clipping-rect1')" />
		<line x1="327.85" y1="14.88" x2="327.85" y2="11.71" stroke="#7f7f7f" stroke-width="1.00" clip-path="url('#clipping-rect1')" />
		<line x1="336.84" y1="14.88" x2="336.84" y2="12.76" stroke="#7f7f7f" stroke-width="1.00" clip-path="url('#clipping-rect1')" />
		<line x1="345.84" y1="14.88" x2="345.84" y2="11.71" stroke="#7f7f7f" stroke-width="1.00" clip-path="url('#clipping-rect1')" />
		<line x1="354.83" y1="14.88" x2="354.83" y2="12.76" stroke="#7f7f7f" stroke-width="1.00" clip-path="url('#clipping-rect1')" />
		<line x1="363.82" y1="14.88" x2="363.82" y2="11.71" stroke="#7f7f7f" stroke-width="1.00" clip-path="url('#clipping-rect1')" />
		<line x1="372.82" y1="14.88" x2="372.82" y2="12.76" stroke="#7f7f7f" stroke-width="1.00" clip-path="url('#clipping-rect1')" />
		<line x1="381.81" y1="14.88" x2="381.81" y2="11.71" stroke="#7f7f7f" stroke-width="1.00" clip-path="url('#clipping-rect1')" />
		<line x1="390.80" y1="14.88" x2="390.80" y2="12.76" stroke="#7f7f7f" stroke-width="1.00" clip-path="url('#clipping-rect1')" />
		<line x1="399.80" y1="14.88" x2="399.80" y2="11.71" stroke="#7f7f7f" stroke-width="1.00" clip-path="url('#clipping-rect1')" />
		<line x1="408.79" y1="14.88" x2="408.79" y2="12.76" stroke="#7f7f7f" stroke-width="1.00" clip-path="url('#clipping-rect1')" />
		<line x1="417.78" y1="14.88" x2="417.78" y2="11.71" stroke="#7f7f7f" stroke-width="1.00" clip-path="url('#clipping-rect1')" />
		<line x1="426.78" y1="14.88" x2="426.78" y2="12.76" stroke="#7f7f7f" stroke-width="1.00" clip-path="url('#clipping-rect1')" />
		<line x1="435.77" y1="14.88" x2="435.77" y2="11.71" stroke="#7f7f7f" stroke-width="1.00" clip-path="url('#clipping-rect1')" />
		<line x1="444.76" y1="14.88" x2="444.76" y2="12.76" stroke="#7f7f7f" stroke-width="1.00" clip-path="url('#clipping-rect1')" />
		<line x1="453.76" y1="14.88" x2="453.76" y2="11.71" stroke="#7f7f7f" stroke-width="1.00" clip-path="url('#clipping-rect1')" />
		<line x1="462.75" y1="14.88" x2="462.75" y2="12.76" stroke="#7f7f7f" stroke-width="1.00" clip-path="url('#clipping-rect1')" />
		<line x1="471.74" y1="14.88" x2="471.74" y2="11.71" stroke="#7f7f7f" stroke-width="1.00" clip-path="url('#clipping-rect1')" />
		<line x1="480.74" y1="14.88" x2="480.74" y2="12.76" stroke="#7f7f7f" stroke-width="1.00" clip-path="url('#clipping-rect1')" />
		<line x1="489.73" y1="14.88" x2="489.73" y2="11.71" stroke="#7f7f7f" stroke-width="1.00" clip-path="url('#clipping-rect1')" />
		<line x1="498.72" y1="14.88" x2="498.72" y2="12.76" stroke="#7f7f7f" stroke-width="1.00" clip-path="url('#clipping-rect1')" />
		<line x1="507.72" y1="14.88" x2="507.72" y2="11.71" stroke="#7f7f7f" stroke-width="1.00" clip-path="url('#clipping-rect1')" />
		<line x1="516.71" y1="14.88" x2="516.71" y2="12.76" stroke="#7f7f7f" stroke-width="1.00" clip-path="url('#clipping-rect1')" />
		<line x1="525.70" y1="14.88" x2="525.70" y2="11.71" stroke="#7f7f7f" stroke-width="1.00" clip-path="url('#clipping-rect1')" />
		<line x1="534.70" y1="14.88" x2="534.70" y2="12.76" stroke="#7f7f7f" stroke-width="1.00" clip-path="url('#clipping-rect1')" />
		<line x1="543.69" y1="14.88" x2="543.69" y2="11.71" stroke="#7f7f7f" stroke-width="1.00" clip-path="url('#clipping-rect1')" />
		<line x1="552.68" y1="14.88" x2="552.68" y2="12.76" stroke="#7f7f7f" stroke-width="1.00" clip-path="url('#clipping-rect1')" />
		<line x1="561.68" y1="14.88" x2="561.68" y2="11.71" stroke="#7f7f7f" stroke-width="1.00" clip-path="url('#clipping-rect1')" />
		<line x1="570.67" y1="14.88" x2="570.67" y2="12.76" stroke="#7f7f7f" stroke-width="1.00" clip-path="url('#clipping-rect1')" />
		<line x1="579.66" y1="14.88" x2="579.66" y2="11.71" stroke="#7f7f7f" stroke-width="1.00" clip-path="url('#clipping-rect1')" />
		<line x1="588.66" y1="14.88" x2="588.66" y2="12.76" stroke="#7f7f7f" stroke-width="1.00" clip-path="url('#clipping-rect1')" />
		<line x1="597.65" y1="14.88" x2="597.65" y2="11.71" stroke="#7f7f7f" stroke-width="1.00" clip-path="url('#clipping-rect1')" />
		<line x1="606.64" y1="14.88" x2="606.64" y2="12.76" stroke="#7f7f7f" stroke-width="1.00" clip-path="url('#clipping-rect1')" />
		<line x1="615.64" y1="14.88" x2="615.64" y2="11.71" stroke="#7f7f7f" stroke-width="1.00" clip-path="url('#clipping-rect1')" />
		<line x1="624.63" y1="14.88" x2="624.63" y2="12.76" stroke="#7f7f7f" stroke-width="1.00" clip-path="url('#clipping-rect1')" />
		<line x1="633.63" y1="14.88" x2="633.63" y2="11.71" stroke="#7f7f7f" stroke-width="1.00" clip-path="url('#clipping-rect1')" />
		<line x1="642.62" y1="14.88" x2="642.62" y2="12.76" stroke="#7f7f7f" stroke-width="1.00" clip-path="url('#clipping-rect1')" />
		<line x1="651.61" y1="14.88" x2="651.61" y2="11.71" stroke="#7f7f7f" stroke-width="1.00" clip-path="url('#clipping-rect1')" />
		<line x1="660.61" y1="14.88" x2="660.61" y2="12.76" stroke="#7f7f7f" stroke-width="1.00" clip-path="url('#clipping-rect1')" />
		<line x1="669.60" y1="14.88" x2="669.60" y2="11.71" stroke="#7f7f7f" stroke-width="1.00" clip-path="url('#clipping-rect1')" />
		<line x1="678.59" y1="14.88" x2="678.59" y2="12.76" stroke="#7f7f7f" stroke-width="1.00" clip-path="url('#clipping-rect1')" />
		<line x1="687.59" y1="14.88" x2="687.59" y2="11.71" stroke="#7f7f7f" stroke-width="1.00" clip-path="url('#clipping-rect1')" />
		<line x1="696.58" y1="14.88" x2="696.58" y2="12.76" stroke="#7f7f7f" stroke-width="1.00" clip-path="url('#clipping-rect1')" />
		<line x1="705.57" y1="14.88" x2="705.57" y2="11.71" stroke="#7f7f7f" stroke-width="1.00" clip-path="url('#clipping-rect1')" />
		<line x1="714.57" y1="14.88" x2="714.57" y2="12.76" stroke="#7f7f7f" stroke-width="1.00" clip-path="url('#clipping-rect1')" />
		<line x1="723.56" y1="14.88" x2="723.56" y2="11.71" stroke="#7f7f7f" stroke-width="1.00" clip-path="url('#clipping-rect1')" />
		<line x1="732.55" y1="14.88" x2="732.55" y2="12.76" stroke="#7f7f7f" stroke-width="1.00" clip-path="url('#clipping-rect1')" />
		<line x1="741.55" y1="14.88" x2="741.55" y2="11.71" stroke="#7f7f7f" stroke-width="1.00" clip-path="url('#clipping-rect1')" />
		<line x1="750.54" y1="14.88" x2="750.54" y2="12.76" stroke="#7f7f7f" stroke-width="1.00" clip-path="url('#clipping-rect1')" />
		<line x1="759.53" y1="14.88" x2="759.53" y2="11.71" stroke="#7f7f7f" stroke-width="1.00" clip-path="url('#clipping-rect1')" />
		<line x1="768.53" y1="14.88" x2="768.53" y2="12.76" stroke="#7f7f7f" stroke-width="1.00" clip-path="url('#clipping-rect1')" />
		<line x1="777.52" y1="14.88" x2="777.52" y2="11.71" stroke="#7f7f7f" stroke-width="1.00" clip-path="url('#clipping-rect1')" />
		<line x1="786.51" y1="14.88" x2="786.51" y2="12.76" stroke="#7f7f7f" stroke-width="1.00" clip-path="url('#clipping-rect1')" />
		<line x1="795.51" y1="14.88" x2="795.51" y2="11.71" stroke="#7f7f7f" stroke-width="1.00" clip-path="url('#clipping-rect1')" />
		<line x1="804.50" y1="14.88" x2="804.50" y2="12.76" stroke="#7f7f7f" stroke-width="1.00" clip-path="url('#clipping-rect1')" />
		<line x1="813.49" y1="14.88" x2="813.49" y2="11.71" stroke="#7f7f7f" stroke-width="1.00" clip-path="url('#clipping-rect1')" />
		<line x1="822.49" y1="14.88" x2="822.49" y2="12.76" stroke="#7f7f7f" stroke-width="1.00" clip-path="url('#clipping-rect1')" />
		<line x1="831.48" y1="14.88" x2="831.48" y2="11.71" stroke="#7f7f7f" stroke-width="1.00" clip-path="url('#clipping-rect1')" />
		<line x1="840.47" y1="14.88" x2="840.47" y2="12.76" stroke="#7f7f7f" stroke-width="1.00" clip-path="url('#clipping-rect1')" />
		<line x1="849.47" y1="14.88" x2="849.47" y2="11.71" stroke="#7f7f7f" stroke-width="1.00" clip-path="url('#clipping-rect1')" />
		<line x1="858.46" y1="14.88" x2="858.46" y2="12.76" stroke="#7f7f7f" stroke-width="1.00" clip-path="url('#clipping-rect1')" />
		<line x1="867.45" y1="14.88" x2="867.45" y2="11.71" stroke="#7f7f7f" stroke-width="1.00" clip-path="url('#clipping-rect1')" />
		<line x1="876.45" y1="14.88" x2="876.45" y2="12.76" stroke="#7f7f7f" stroke-width="1.00" clip-path="url('#clipping-rect1')" />
		<text x="797.51" y="9.59" font-family="Helvetica" font-size="10" fill="#333333" clip-path="url('#clipping-rect1')" >3,100 K</text>
		<line x1="795.51" y1="17.00" x2="795.51" y2="1.12" stroke="#7f7f7f" stroke-width="1.00" clip-path="url('#clipping-rect1')" />
		<text x="707.57" y="9.59" font-family="Helvetica" font-size="10" fill="#333333" clip-path="url('#clipping-rect1')" >3,050 K</text>
		<line x1="705.57" y1="17.00" x2="705.57" y2="1.12" stroke="#7f7f7f" stroke-width="1.00" clip-path="url('#clipping-rect1')" />
		<text x="617.64" y="9.59" font-family="Helvetica" font-size="10" fill="#333333" clip-path="url('#clipping-rect1')" >3 M</text>
		<line x1="615.64" y1="17.00" x2="615.64" y2="1.12" stroke="#7f7f7f" stroke-width="1.00" clip-path="url('#clipping-rect1')" />
		<text x="527.70" y="9.59" font-family="Helvetica" font-size="10" fill="#333333" clip-path="url('#clipping-rect1')" >2,950 K</text>
		<line x1="525.70" y1="17.00" x2="525.70" y2="1.12" stroke="#7f7f7f" stroke-width="1.00" clip-path="url('#clipping-rect1')" />
		<text x="437.77" y="9.59" font-family="Helvetica" font-size="10" fill="#333333" clip-path="url('#clipping-rect1')" >2,900 K</text>
		<line x1="435.77" y1="17.00" x2="435.77" y2="1.12" stroke="#7f7f7f" stroke-width="1.00" clip-path="url('#clipping-rect1')" />
		<text x="347.84" y="9.59" font-family="Helvetica" font-size="10" fill="#333333" clip-path="url('#clipping-rect1')" >2,850 K</text>
		<line x1="345.84" y1="17.00" x2="345.84" y2="1.12" stroke="#7f7f7f" stroke-width="1.00" clip-path="url('#clipping-rect1')" />
		<text x="257.90" y="9.59" font-family="Helvetica" font-size="10" fill="#333333" clip-path="url('#clipping-rect1')" >2,800 K</text>
		<line x1="255.90" y1="17.00" x2="255.90" y2="1.12" stroke="#7f7f7f" stroke-width="1.00" clip-path="url('#clipping-rect1')" />
		<text x="167.97" y="9.59" font-family="Helvetica" font-size="10" fill="#333333" clip-path="url('#clipping-rect1')" >2,750 K</text>
		<line x1="165.97" y1="17.00" x2="165.97" y2="1.12" stroke="#7f7f7f" stroke-width="1.00" clip-path="url('#clipping-rect1')" />
		<text x="78.03" y="9.59" font-family="Helvetica" font-size="10" fill="#333333" clip-path="url('#clipping-rect1')" >2,700 K</text>
		<line x1="76.03" y1="17.00" x2="76.03" y2="1.12" stroke="#7f7f7f" stroke-width="1.00" clip-path="url('#clipping-rect1')" />
		<line x1="76.09" y1="178.00" x2="76.09" y2="17.00" stroke="#ebebeb" stroke-width="1.00" />
		<line x1="165.19" y1="178.00" x2="165.19" y2="17.00" stroke="#ebebeb" stroke-width="1.00" />
		<line x1="255.29" y1="178.00" x2="255.29" y2="17.00" stroke="#ebebeb" stroke-width="1.00" />
		<line x1="345.39" y1="178.00" x2="345.39" y2="17.00" stroke="#ebebeb" stroke-width="1.00" />
		<line x1="435.50" y1="178.00" x2="435.50" y2="17.00" stroke="#ebebeb" stroke-width="1.00" />
		<line x1="525.60" y1="178.00" x2="525.60" y2="17.00" stroke="#ebebeb" stroke-width="1.00" />
		<line x1="615.70" y1="178.00" x2="615.70" y2="17.00" stroke="#ebebeb" stroke-width="1.00" />
		<line x1="705.80" y1="178.00" x2="705.80" y2="17.00" stroke="#ebebeb" stroke-width="1.00" />
		<line x1="795.91" y1="178.00" x2="795.91" y2="17.00" stroke="#ebebeb" stroke-width="1.00" />
		<polygon fill="url('#gradient1')" shape-rendering="crispEdges" points="879.00,23.50 879.00,19.00 0.00,19.00 0.00,23.50 0.00,28.00 879.00,28.00 " />
		<line x1="0.00" y1="28.00" x2="0.00" y2="19.00" stroke="#6c6c6c" stroke-width="1.00" stroke-linejoin="round" />
		<line x1="0.00" y1="19.00" x2="879.00" y2="19.00" stroke="#6c6c6c" stroke-width="1.00" stroke-linejoin="round" />
		<line x1="879.00" y1="19.00" x2="879.00" y2="28.00" stroke="#6c6c6c" stroke-width="1.00" stroke-linejoin="round" />
		<line x1="0.00" y1="28.00" x2="879.00" y2="28.00" stroke="#6c6c6c" stroke-width="1.00" stroke-linejoin="round" />
		<polygon fill="url('#gradient2')" shape-rendering="crispEdges" points="0.00,44.00 879.00,44.00 879.00,30.00 0.00,30.00 " clip-path="url('#clipping-rect2')" />
		<text x="0.00" y="40.00" font-family="Helvetica" font-size="12" fill="#333333" >(U) Alignment for group templates, BLAST Results for: XM_011525269:PREDICTED: Homo sapiens ATPase...</text>
		<polygon fill="url('#gradient2')" shape-rendering="crispEdges" points="0.00,60.00 879.00,60.00 879.00,46.00 0.00,46.00 " clip-path="url('#clipping-rect2')" />
		<text x="0.00" y="56.00" font-family="Helvetica" font-size="12" fill="#333333" >(U) BLAST Results for: XM_011525269:PREDICTED: Homo sapiens ATPase...</text>
		<line x1="0.00" y1="81.00" x2="0.00" y2="109.00" stroke="#009900" stroke-opacity="0.10" stroke-width="1.00" stroke-linejoin="round" />
		<line x1="0.00" y1="109.00" x2="206.38" y2="109.00" stroke="#009900" stroke-opacity="0.10" stroke-width="1.00" stroke-linejoin="round" />
		<line x1="206.38" y1="109.00" x2="206.38" y2="81.00" stroke="#009900" stroke-opacity="0.10" stroke-width="1.00" stroke-linejoin="round" />
		<line x1="0.00" y1="81.00" x2="206.38" y2="81.00" stroke="#009900" stroke-opacity="0.10" stroke-width="1.00" stroke-linejoin="round" />
		<text x="11.56" y="90.00" font-family="Helvetica" font-size="10" fill="#124d94" >ENSSPUG00000019081</text>
		<polygon fill="#a5d1a5" shape-rendering="crispEdges" points="46.99,96.00 46.99,107.00 45.16,107.00 45.16,96.00 " />
		<polygon fill="#1e8c1e" shape-rendering="crispEdges" points="48.57,96.00 48.57,107.00 46.99,107.00 46.99,96.00 " />
		<line x1="48.57" y1="101.50" x2="51.70" y2="101.50" stroke="#4ba34b" stroke-width="2.00" />
		<polygon fill="#1e8c1e" shape-rendering="crispEdges" points="52.27,96.00 52.27,107.00 51.27,107.00 51.27,96.00 " />
		<line x1="51.84" y1="101.50" x2="54.86" y2="101.50" stroke="#4ba34b" stroke-width="2.00" />
		<polygon fill="#1e8c1e" shape-rendering="crispEdges" points="55.43,96.00 55.43,107.00 54.43,107.00 54.43,96.00 " />
		<line x1="54.99" y1="101.50" x2="71.14" y2="101.50" stroke="#4ba34b" stroke-width="2.00" />
		<polygon fill="#b2b2b2" shape-rendering="crispEdges" points="58.67,101.50 67.47,97.10 65.27,101.50 67.47,105.90 " />
		<polygon fill="#1e8c1e" shape-rendering="crispEdges" points="71.78,96.00 71.78,107.00 70.78,107.00 70.78,96.00 " />
		<line x1="71.43" y1="101.50" x2="72.70" y2="101.50" stroke="#4ba34b" stroke-width="2.00" />
		<polygon fill="#1e8c1e" shape-rendering="crispEdges" points="73.34,96.00 73.34,107.00 72.34,107.00 72.34,96.00 " />
		<line x1="72.97" y1="101.50" x2="85.06" y2="101.50" stroke="#4ba34b" stroke-width="2.00" />
		<polygon fill="#1e8c1e" shape-rendering="crispEdges" points="85.83,96.00 85.83,107.00 84.83,107.00 84.83,96.00 " />
		<polygon fill="#a5d1a5" shape-rendering="crispEdges" points="86.10,96.00 86.10,107.00 85.10,107.00 85.10,96.00 " />
		<polygon fill="#ffffff" shape-rendering="crispEdges" points="204.38,107.00 204.38,96.00 89.61,96.00 89.61,107.00 " />
		<text x="89.61" y="105.00" font-family="Helvetica" font-size="10" fill="#124d94" >ENSSPUT00000026569.1</text>
		<line x1="92.69" y1="114.00" x2="92.69" y2="141.00" stroke="#009900" stroke-opacity="0.10" stroke-width="1.00" stroke-linejoin="round" />
		<line x1="92.69" y1="141.00" x2="221.02" y2="141.00" stroke="#009900" stroke-opacity="0.10" stroke-width="1.00" stroke-linejoin="round" />
		<line x1="221.02" y1="141.00" x2="221.02" y2="114.00" stroke="#009900" stroke-opacity="0.10" stroke-width="1.00" stroke-linejoin="round" />
		<line x1="92.69" y1="114.00" x2="221.02" y2="114.00" stroke="#009900" stroke-opacity="0.10" stroke-width="1.00" stroke-linejoin="round" />
		<text x="102.44" y="123.00" font-family="Helvetica" font-size="10" fill="#124d94" >ENSSPUG00000019084</text>
		<polygon fill="#8ab698" fill-opacity="0.10" shape-rendering="crispEdges" points="100.69,114.00 92.69,140.00 92.69,114.00 " />
		<polygon fill="#06210f" fill-opacity="0.10" shape-rendering="crispEdges" points="100.69,140.00 100.69,114.00 92.69,140.00 " />
		<polygon fill="#06210f" fill-opacity="0.10" shape-rendering="crispEdges" points="108.69,114.00 100.69,140.00 100.69,114.00 " />
		<polygon fill="#8ab698" fill-opacity="0.10" shape-rendering="crispEdges" points="108.69,140.00 108.69,114.00 100.69,140.00 " />
		<polygon fill="#8ab698" fill-opacity="0.10" shape-rendering="crispEdges" points="116.69,114.00 108.69,140.00 108.69,114.00 " />
		<polygon fill="#06210f" fill-opacity="0.10" shape-rendering="crispEdges" points="116.69,140.00 116.69,114.00 108.69,140.00 " />
		<polygon fill="#06210f" fill-opacity="0.10" shape-rendering="crispEdges" points="124.69,114.00 116.69,140.00 116.69,114.00 " />
		<polygon fill="#8ab698" fill-opacity="0.10" shape-rendering="crispEdges" points="124.69,140.00 124.69,114.00 116.69,140.00 " />
		<polygon fill="#8ab698" fill-opacity="0.10" shape-rendering="crispEdges" points="132.69,114.00 124.69,140.00 124.69,114.00 " />
		<polygon fill="#06210f" fill-opacity="0.10" shape-rendering="crispEdges" points="132.69,140.00 132.69,114.00 124.69,140.00 " />
		<polygon fill="#06210f" fill-opacity="0.10" shape-rendering="crispEdges" points="140.69,114.00 132.69,140.00 132.69,114.00 " />
		<polygon fill="#8ab698" fill-opacity="0.10" shape-rendering="crispEdges" points="140.69,140.00 140.69,114.00 132.69,140.00 " />
		<polygon fill="#8ab698" fill-opacity="0.10" shape-rendering="crispEdges" points="148.69,114.00 140.69,140.00 140.69,114.00 " />
		<polygon fill="#06210f" fill-opacity="0.10" shape-rendering="crispEdges" points="148.69,140.00 148.69,114.00 140.69,140.00 " />
		<polygon fill="#06210f" fill-opacity="0.10" shape-rendering="crispEdges" points="156.69,114.00 148.69,140.00 148.69,114.00 " />
		<polygon fill="#8ab698" fill-opacity="0.10" shape-rendering="crispEdges" points="156.69,140.00 156.69,114.00 148.69,140.00 " />
		<polygon fill="#8ab698" fill-opacity="0.10" shape-rendering="crispEdges" points="164.69,114.00 156.69,140.00 156.69,114.00 " />
		<polygon fill="#06210f" fill-opacity="0.10" shape-rendering="crispEdges" points="164.69,140.00 164.69,114.00 156.69,140.00 " />
		<polygon fill="#06210f" fill-opacity="0.10" shape-rendering="crispEdges" points="172.69,114.00 164.69,140.00 164.69,114.00 " />
		<polygon fill="#8ab698" fill-opacity="0.10" shape-rendering="crispEdges" points="172.69,140.00 172.69,114.00 164.69,140.00 " />
		<polygon fill="#8ab698" fill-opacity="0.10" shape-rendering="crispEdges" points="180.69,114.00 172.69,140.00 172.69,114.00 " />
		<polygon fill="#06210f" fill-opacity="0.10" shape-rendering="crispEdges" points="180.69,140.00 180.69,114.00 172.69,140.00 " />
		<polygon fill="#06210f" fill-opacity="0.10" shape-rendering="crispEdges" points="188.69,114.00 180.69,140.00 180.69,114.00 " />
		<polygon fill="#8ab698" fill-opacity="0.10" shape-rendering="crispEdges" points="188.69,140.00 188.69,114.00 180.69,140.00 " />
		<polygon fill="#8ab698" fill-opacity="0.10" shape-rendering="crispEdges" points="196.69,114.00 188.69,140.00 188.69,114.00 " />
		<polygon fill="#06210f" fill-opacity="0.10" shape-rendering="crispEdges" points="196.69,140.00 196.69,114.00 188.69,140.00 " />
		<polygon fill="#06210f" fill-opacity="0.10" shape-rendering="crispEdges" points="204.69,114.00 196.69,140.00 196.69,114.00 " />
		<polygon fill="#8ab698" fill-opacity="0.10" shape-rendering="crispEdges" points="204.69,140.00 204.69,114.00 196.69,140.00 " />
		<polygon fill="#8ab698" fill-opacity="0.10" shape-rendering="crispEdges" points="212.69,114.00 204.69,140.00 204.69,114.00 " />
		<polygon fill="#06210f" fill-opacity="0.10" shape-rendering="crispEdges" points="212.69,140.00 212.69,114.00 204.69,140.00 " />
		<polygon fill="#06210f" fill-opacity="0.10" shape-rendering="crispEdges" points="220.69,114.00 212.69,140.00 212.69,114.00 " />
		<polygon fill="#8ab698" fill-opacity="0.10" shape-rendering="crispEdges" points="220.69,140.00 220.69,114.00 212.69,140.00 " />
		<polygon fill="#8ab698" fill-opacity="0.10" shape-rendering="crispEdges" points="221.02,114.00 220.69,140.00 220.69,114.00 " />
		<polygon fill="#06210f" fill-opacity="0.10" shape-rendering="crispEdges" points="221.02,140.00 221.02,114.00 220.69,140.00 " />
		<polygon fill="#166e32" fill-opacity="0.18" shape-rendering="crispEdges" points="221.02,114.00 221.02,140.00 92.69,140.00 92.69,114.00 " />
		<line x1="213.46" y1="129.00" x2="213.46" y2="139.00" stroke="#6321ff" stroke-width="1.00" />
		<line x1="213.63" y1="134.00" x2="213.63" y2="134.00" stroke="#824dff" stroke-width="2.00" />
		<line x1="213.63" y1="129.00" x2="213.63" y2="139.00" stroke="#6321ff" stroke-width="1.00" />
		<line x1="213.65" y1="134.00" x2="213.68" y2="134.00" stroke="#824dff" stroke-width="2.00" />
		<line x1="213.68" y1="129.00" x2="213.68" y2="139.00" stroke="#6321ff" stroke-width="1.00" />
		<line x1="213.78" y1="134.00" x2="213.80" y2="134.00" stroke="#824dff" stroke-width="2.00" />
		<line x1="213.80" y1="129.00" x2="213.80" y2="139.00" stroke="#6321ff" stroke-width="1.00" />
		<line x1="213.83" y1="134.00" x2="213.88" y2="134.00" stroke="#824dff" stroke-width="2.00" />
		<line x1="213.88" y1="129.00" x2="213.88" y2="139.00" stroke="#6321ff" stroke-width="1.00" />
		<line x1="213.89" y1="134.00" x2="213.90" y2="134.00" stroke="#824dff" stroke-width="2.00" />
		<line x1="213.90" y1="129.00" x2="213.90" y2="139.00" stroke="#6321ff" stroke-width="1.00" />
		<line x1="214.70" y1="134.00" x2="214.70" y2="134.00" stroke="#824dff" stroke-width="2.00" />
		<line x1="214.70" y1="129.00" x2="214.70" y2="139.00" stroke="#6321ff" stroke-width="1.00" />
		<line x1="214.73" y1="134.00" x2="214.74" y2="134.00" stroke="#824dff" stroke-width="2.00" />
		<line x1="214.74" y1="129.00" x2="214.74" y2="139.00" stroke="#6321ff" stroke-width="1.00" />
		<line x1="214.74" y1="134.00" x2="214.74" y2="134.00" stroke="#824dff" stroke-width="2.00" />
		<polygon fill="url('#gradient3')" shape-rendering="crispEdges" points="216.02,134.00 216.02,139.00 214.74,139.00 214.74,134.00 214.74,129.00 216.02,129.00 " />
		<line x1="216.02" y1="134.00" x2="216.02" y2="134.00" stroke="#824dff" stroke-width="2.00" />
		<polygon fill="url('#gradient3')" shape-rendering="crispEdges" points="219.02,134.00 219.02,139.00 216.02,139.00 216.02,134.00 216.02,129.00 219.02,129.00 " />
		<text x="94.69" y="137.50" font-family="Helvetica" font-size="10" fill="#124d94" >ENSSPUT00000026573.1</text>
		<line x1="136.44" y1="146.00" x2="136.44" y2="174.00" stroke="#009900" stroke-opacity="0.10" stroke-width="1.00" stroke-linejoin="round" />
		<line x1="136.44" y1="174.00" x2="381.40" y2="174.00" stroke="#009900" stroke-opacity="0.10" stroke-width="1.00" stroke-linejoin="round" />
		<line x1="381.40" y1="174.00" x2="381.40" y2="146.00" stroke="#009900" stroke-opacity="0.10" stroke-width="1.00" stroke-linejoin="round" />
		<line x1="136.44" y1="146.00" x2="381.40" y2="146.00" stroke="#009900" stroke-opacity="0.10" stroke-width="1.00" stroke-linejoin="round" />
		<text x="204.51" y="155.00" font-family="Helvetica" font-size="10" fill="#124d94" >ENSSPUG00000019087</text>
		<polygon fill="#1e8c1e" shape-rendering="crispEdges" points="260.63,161.00 260.63,172.00 257.77,172.00 257.77,161.00 " />
		<polygon fill="#ffffff" shape-rendering="crispEdges" points="257.77,172.00 257.77,161.00 139.44,161.00 139.44,172.00 " />
		<text x="139.44" y="170.00" font-family="Helvetica" font-size="10" fill="#124d94" >ENSSPUP00000024893.1</text>
		<polygon fill="#ffffff" shape-rendering="crispEdges" points="379.40,172.00 379.40,161.00 264.63,161.00 264.63,172.00 " />
		<text x="264.63" y="170.00" font-family="Helvetica" font-size="10" fill="#124d94" >ENSSPUT00000026575.1</text>
		<line x1="220.32" y1="81.00" x2="220.32" y2="109.00" stroke="#009900" stroke-opacity="0.10" stroke-width="1.00" stroke-linejoin="round" />
		<line x1="220.32" y1="109.00" x2="605.17" y2="109.00" stroke="#009900" stroke-opacity="0.10" stroke-width="1.00" stroke-linejoin="round" />
		<line x1="605.17" y1="109.00" x2="605.17" y2="81.00" stroke="#009900" stroke-opacity="0.10" stroke-width="1.00" stroke-linejoin="round" />
		<line x1="220.32" y1="81.00" x2="605.17" y2="81.00" stroke="#009900" stroke-opacity="0.10" stroke-width="1.00" stroke-linejoin="round" />
		<text x="358.38" y="90.00" font-family="Helvetica" font-size="10" fill="#124d94" >ENSSPUG00000019089</text>
		<polygon fill="#1e8c1e" shape-rendering="crispEdges" points="341.61,96.00 341.61,107.00 340.61,107.00 340.61,96.00 " />
		<line x1="341.14" y1="101.50" x2="341.74" y2="101.50" stroke="#4ba34b" stroke-width="2.00" />
		<polygon fill="#1e8c1e" shape-rendering="crispEdges" points="342.32,96.00 342.32,107.00 341.32,107.00 341.32,96.00 " />
		<line x1="341.91" y1="101.50" x2="411.75" y2="101.50" stroke="#4ba34b" stroke-width="2.00" />
		<polygon fill="#b2b2b2" shape-rendering="crispEdges" points="381.23,101.50 372.43,97.10 374.63,101.50 372.43,105.90 " />
		<polygon fill="#1e8c1e" shape-rendering="crispEdges" points="412.39,96.00 412.39,107.00 411.39,107.00 411.39,96.00 " />
		<line x1="412.03" y1="101.50" x2="483.50" y2="101.50" stroke="#4ba34b" stroke-width="2.00" />
		<polygon fill="#b2b2b2" shape-rendering="crispEdges" points="452.16,101.50 443.36,97.10 445.56,101.50 443.36,105.90 " />
		<polygon fill="#1e8c1e" shape-rendering="crispEdges" points="484.17,96.00 484.17,107.00 483.17,107.00 483.17,96.00 " />
		<polygon fill="#ffffff" shape-rendering="crispEdges" points="341.08,107.00 341.08,96.00 223.32,96.00 223.32,107.00 " />
		<text x="223.32" y="105.00" font-family="Helvetica" font-size="10" fill="#124d94" >ENSSPUT00000026577.1</text>
		<polygon fill="#ffffff" shape-rendering="crispEdges" points="603.17,107.00 603.17,96.00 487.84,96.00 487.84,107.00 " />
		<text x="487.84" y="105.00" font-family="Helvetica" font-size="10" fill="#124d94" >ENSSPUP00000024895.1</text>
		<polygon fill="url('#gradient4')" shape-rendering="crispEdges" points="0.00,76.00 879.00,76.00 879.00,62.00 0.00,62.00 " clip-path="url('#clipping-rect2')" />
		<text x="0.00" y="72.00" font-family="Helvetica" font-size="12" fill="#333333" >Genes, Ensembl release 114</text>
		<polygon fill="#0000ff" fill-opacity="0.20" shape-rendering="crispEdges" points="259.50,17.50 259.50,9.10 259.50,9.10 " />
		<polygon fill="#0000ff" fill-opacity="0.20" shape-rendering="crispEdges" points="259.50,17.50 259.50,17.50 259.50,9.10 " />
		<line x1="259.50" y1="16.50" x2="259.50" y2="9.10" stroke="#0000ff" stroke-opacity="0.40" stroke-width="1.00" />
		<line x1="259.50" y1="16.50" x2="259.50" y2="9.10" stroke="#0000ff" stroke-opacity="0.40" stroke-width="1.00" />
		<polygon fill="#0000ff" shape-rendering="crispEdges" points="253.79,8.35 253.50,6.50 253.79,4.65 254.65,2.97 255.97,1.65 257.65,0.79 259.50,0.50 259.50,12.50 257.65,12.21 255.97,11.35 254.65,10.03 " />
		<polygon fill="#0000ff" fill-opacity="0.60" shape-rendering="crispEdges" points="291.36,12.50 291.36,0.50 259.50,0.50 259.50,12.50 " />
		<text x="261.50" y="9.50" font-family="Helvetica" font-size="10" fill="#ffffff" >RAG2</text>
		<polygon fill="#0000ff" fill-opacity="0.20" shape-rendering="crispEdges" points="259.29,179.01 259.29,17.00 259.29,17.00 " />
		<polygon fill="#0000ff" fill-opacity="0.20" shape-rendering="crispEdges" points="259.29,179.01 259.29,179.01 259.29,17.00 " />
		<line x1="259.29" y1="178.00" x2="259.29" y2="17.00" stroke="#0000ff" stroke-opacity="0.40" stroke-width="1.00" />
		<line x1="259.29" y1="178.00" x2="259.29" y2="17.00" stroke="#0000ff" stroke-opacity="0.40" stroke-width="1.00" />
		<polygon fill="#0000ff" fill-opacity="0.20" shape-rendering="crispEdges" points="373.50,17.50 373.50,9.10 373.50,9.10 " />
		<polygon fill="#0000ff" fill-opacity="0.20" shape-rendering="crispEdges" points="373.50,17.50 373.50,17.50 373.50,9.10 " />
		<line x1="373.50" y1="16.50" x2="373.50" y2="9.10" stroke="#0000ff" stroke-opacity="0.40" stroke-width="1.00" />
		<line x1="373.50" y1="16.50" x2="373.50" y2="9.10" stroke="#0000ff" stroke-opacity="0.40" stroke-width="1.00" />
		<polygon fill="#0000ff" shape-rendering="crispEdges" points="367.79,8.35 367.50,6.50 367.79,4.65 368.65,2.97 369.97,1.65 371.65,0.79 373.50,0.50 373.50,12.50 371.65,12.21 369.97,11.35 368.65,10.03 " />
		<polygon fill="#0000ff" fill-opacity="0.60" shape-rendering="crispEdges" points="441.31,12.50 441.31,0.50 373.50,0.50 373.50,12.50 " />
		<text x="375.50" y="9.50" font-family="Helvetica" font-size="10" fill="#ffffff" >iftap/C11orf74</text>
		<polygon fill="#0000ff" fill-opacity="0.20" shape-rendering="crispEdges" points="373.42,179.01 373.42,17.00 373.42,17.00 " />
		<polygon fill="#0000ff" fill-opacity="0.20" shape-rendering="crispEdges" points="373.42,179.01 373.42,179.01 373.42,17.00 " />
		<line x1="373.42" y1="178.00" x2="373.42" y2="17.00" stroke="#0000ff" stroke-opacity="0.40" stroke-width="1.00" />
		<line x1="373.42" y1="178.00" x2="373.42" y2="17.00" stroke="#0000ff" stroke-opacity="0.40" stroke-width="1.00" />
		<polygon fill="#0000ff" fill-opacity="0.20" shape-rendering="crispEdges" points="64.50,17.50 64.50,9.10 64.50,9.10 " />
		<polygon fill="#0000ff" fill-opacity="0.20" shape-rendering="crispEdges" points="64.50,17.50 64.50,17.50 64.50,9.10 " />
		<line x1="64.50" y1="16.50" x2="64.50" y2="9.10" stroke="#0000ff" stroke-opacity="0.40" stroke-width="1.00" />
		<line x1="64.50" y1="16.50" x2="64.50" y2="9.10" stroke="#0000ff" stroke-opacity="0.40" stroke-width="1.00" />
		<polygon fill="#0000ff" shape-rendering="crispEdges" points="58.79,8.35 58.50,6.50 58.79,4.65 59.65,2.97 60.97,1.65 62.65,0.79 64.50,0.50 64.50,12.50 62.65,12.21 60.97,11.35 59.65,10.03 " />
		<polygon fill="#0000ff" fill-opacity="0.60" shape-rendering="crispEdges" points="101.53,12.50 101.53,0.50 64.50,0.50 64.50,12.50 " />
		<text x="66.50" y="9.50" font-family="Helvetica" font-size="10" fill="#ffffff" >TRAF6</text>
		<polygon fill="#0000ff" fill-opacity="0.20" shape-rendering="crispEdges" points="64.07,179.01 64.07,17.00 64.07,17.00 " />
		<polygon fill="#0000ff" fill-opacity="0.20" shape-rendering="crispEdges" points="64.07,179.01 64.07,179.01 64.07,17.00 " />
		<line x1="64.07" y1="178.00" x2="64.07" y2="17.00" stroke="#0000ff" stroke-opacity="0.40" stroke-width="1.00" />
		<line x1="64.07" y1="178.00" x2="64.07" y2="17.00" stroke="#0000ff" stroke-opacity="0.40" stroke-width="1.00" />
		<polygon fill="#0000ff" fill-opacity="0.20" shape-rendering="crispEdges" points="-41.50,17.50 -41.50,9.10 -41.50,9.10 " />
		<polygon fill="#0000ff" fill-opacity="0.20" shape-rendering="crispEdges" points="-41.50,17.50 -41.50,17.50 -41.50,9.10 " />
		<line x1="-41.50" y1="16.50" x2="-41.50" y2="9.10" stroke="#0000ff" stroke-opacity="0.40" stroke-width="1.00" />
		<line x1="-41.50" y1="16.50" x2="-41.50" y2="9.10" stroke="#0000ff" stroke-opacity="0.40" stroke-width="1.00" />
		<polygon fill="#0000ff" shape-rendering="crispEdges" points="-47.21,8.35 -47.50,6.50 -47.21,4.65 -46.35,2.97 -45.03,1.65 -43.35,0.79 -41.50,0.50 -41.50,12.50 -43.35,12.21 -45.03,11.35 -46.35,10.03 " />
		<polygon fill="#0000ff" fill-opacity="0.60" shape-rendering="crispEdges" points="-4.41,12.50 -4.41,0.50 -41.50,0.50 -41.50,12.50 " />
		<text x="-39.50" y="9.50" font-family="Helvetica" font-size="10" fill="#ffffff" >PRR5L</text>
		<polygon fill="#0000ff" fill-opacity="0.20" shape-rendering="crispEdges" points="-42.05,179.01 -42.05,17.00 -42.05,17.00 " />
		<polygon fill="#0000ff" fill-opacity="0.20" shape-rendering="crispEdges" points="-42.05,179.01 -42.05,179.01 -42.05,17.00 " />
		<line x1="-42.05" y1="178.00" x2="-42.05" y2="17.00" stroke="#0000ff" stroke-opacity="0.40" stroke-width="1.00" />
		<line x1="-42.05" y1="178.00" x2="-42.05" y2="17.00" stroke="#0000ff" stroke-opacity="0.40" stroke-width="1.00" />
		<polygon fill="#0000ff" fill-opacity="0.20" shape-rendering="crispEdges" points="-317.50,17.50 -317.50,9.10 -317.50,9.10 " />
		<polygon fill="#0000ff" fill-opacity="0.20" shape-rendering="crispEdges" points="-317.50,17.50 -317.50,17.50 -317.50,9.10 " />
		<line x1="-317.50" y1="16.50" x2="-317.50" y2="9.10" stroke="#0000ff" stroke-opacity="0.40" stroke-width="1.00" />
		<line x1="-317.50" y1="16.50" x2="-317.50" y2="9.10" stroke="#0000ff" stroke-opacity="0.40" stroke-width="1.00" />
		<polygon fill="#0000ff" shape-rendering="crispEdges" points="-323.21,8.35 -323.50,6.50 -323.21,4.65 -322.35,2.97 -321.03,1.65 -319.35,0.79 -317.50,0.50 -317.50,12.50 -319.35,12.21 -321.03,11.35 -322.35,10.03 " />
		<polygon fill="#0000ff" fill-opacity="0.60" shape-rendering="crispEdges" points="-268.02,12.50 -268.02,0.50 -317.50,0.50 -317.50,12.50 " />
		<text x="-315.50" y="9.50" font-family="Helvetica" font-size="10" fill="#ffffff" >COMMD9</text>
		<polygon fill="#0000ff" fill-opacity="0.20" shape-rendering="crispEdges" points="-318.36,179.01 -318.36,17.00 -318.36,17.00 " />
		<polygon fill="#0000ff" fill-opacity="0.20" shape-rendering="crispEdges" points="-318.36,179.01 -318.36,179.01 -318.36,17.00 " />
		<line x1="-318.36" y1="178.00" x2="-318.36" y2="17.00" stroke="#0000ff" stroke-opacity="0.40" stroke-width="1.00" />
		<line x1="-318.36" y1="178.00" x2="-318.36" y2="17.00" stroke="#0000ff" stroke-opacity="0.40" stroke-width="1.00" />
	</g>
</svg>
