<?xml version="1.0" standalone="no" ?>
<!DOCTYPE svg PUBLIC "-//W3C//DTD SVG 1.1//EN" "http://www.w3.org/Graphics/SVG/1.1/DTD/svg11.dtd">
<svg width="879px" height="311px" xmlns="http://www.w3.org/2000/svg" version="1.1" viewBox="0 0 879 311" >
	<style type="text/css" > <![CDATA[
		@import url("https://www.ncbi.nlm.nih.gov/projects/sviewer/css/svg_fonts.css");
	]]>
	</style>
	<desc >Generated by NCBI Genome Workbench http://www.ncbi.nlm.nih.gov/tools/gbench/</desc>
	<defs >
		<clipPath id="clipping-rect1" >
			<rect x="0" y="14" width="879" height="18" />
		</clipPath>
		<linearGradient id="gradient1" gradientTransform="rotate(90)" >
			<stop offset="0%" stop-color="#6c6c6c" />
			<stop offset="50%" stop-color="#b5b5b5" />
			<stop offset="100%" stop-color="#6c6c6c" />
		</linearGradient>
		<clipPath id="clipping-rect2" >
			<rect x="0" y="32" width="879" height="279" />
		</clipPath>
		<linearGradient id="gradient2" gradientTransform="rotate(90)" >
			<stop offset="0%" stop-color="#b6dead" />
			<stop offset="100%" stop-color="#ffffff" stop-opacity="0.00" />
		</linearGradient>
		<linearGradient id="gradient3" gradientTransform="rotate(90)" >
			<stop offset="0%" stop-color="#e6e6e6" stop-opacity="0.71" />
			<stop offset="100%" stop-color="#ffffff" stop-opacity="0.00" />
		</linearGradient>
	</defs>
	<g >
		<polygon fill="#ffffff" shape-rendering="crispEdges" points="879.00,31.00 879.00,13.00 0.00,13.00 0.00,31.00 " />
		<line x1="0.00" y1="28.88" x2="879.00" y2="28.88" stroke="#7f7f7f" stroke-width="1.00" clip-path="url('#clipping-rect1')" />
		<line x1="9.17" y1="28.88" x2="9.17" y2="26.76" stroke="#7f7f7f" stroke-width="1.00" clip-path="url('#clipping-rect1')" />
		<line x1="18.70" y1="28.88" x2="18.70" y2="26.76" stroke="#7f7f7f" stroke-width="1.00" clip-path="url('#clipping-rect1')" />
		<line x1="28.22" y1="28.88" x2="28.22" y2="26.76" stroke="#7f7f7f" stroke-width="1.00" clip-path="url('#clipping-rect1')" />
		<line x1="37.75" y1="28.88" x2="37.75" y2="26.76" stroke="#7f7f7f" stroke-width="1.00" clip-path="url('#clipping-rect1')" />
		<line x1="47.28" y1="28.88" x2="47.28" y2="25.71" stroke="#7f7f7f" stroke-width="1.00" clip-path="url('#clipping-rect1')" />
		<line x1="56.81" y1="28.88" x2="56.81" y2="26.76" stroke="#7f7f7f" stroke-width="1.00" clip-path="url('#clipping-rect1')" />
		<line x1="66.34" y1="28.88" x2="66.34" y2="26.76" stroke="#7f7f7f" stroke-width="1.00" clip-path="url('#clipping-rect1')" />
		<line x1="75.87" y1="28.88" x2="75.87" y2="26.76" stroke="#7f7f7f" stroke-width="1.00" clip-path="url('#clipping-rect1')" />
		<line x1="85.39" y1="28.88" x2="85.39" y2="26.76" stroke="#7f7f7f" stroke-width="1.00" clip-path="url('#clipping-rect1')" />
		<line x1="94.92" y1="28.88" x2="94.92" y2="25.71" stroke="#7f7f7f" stroke-width="1.00" clip-path="url('#clipping-rect1')" />
		<line x1="104.45" y1="28.88" x2="104.45" y2="26.76" stroke="#7f7f7f" stroke-width="1.00" clip-path="url('#clipping-rect1')" />
		<line x1="113.98" y1="28.88" x2="113.98" y2="26.76" stroke="#7f7f7f" stroke-width="1.00" clip-path="url('#clipping-rect1')" />
		<line x1="123.51" y1="28.88" x2="123.51" y2="26.76" stroke="#7f7f7f" stroke-width="1.00" clip-path="url('#clipping-rect1')" />
		<line x1="133.03" y1="28.88" x2="133.03" y2="26.76" stroke="#7f7f7f" stroke-width="1.00" clip-path="url('#clipping-rect1')" />
		<line x1="142.56" y1="28.88" x2="142.56" y2="25.71" stroke="#7f7f7f" stroke-width="1.00" clip-path="url('#clipping-rect1')" />
		<line x1="152.09" y1="28.88" x2="152.09" y2="26.76" stroke="#7f7f7f" stroke-width="1.00" clip-path="url('#clipping-rect1')" />
		<line x1="161.62" y1="28.88" x2="161.62" y2="26.76" stroke="#7f7f7f" stroke-width="1.00" clip-path="url('#clipping-rect1')" />
		<line x1="171.15" y1="28.88" x2="171.15" y2="26.76" stroke="#7f7f7f" stroke-width="1.00" clip-path="url('#clipping-rect1')" />
		<line x1="180.68" y1="28.88" x2="180.68" y2="26.76" stroke="#7f7f7f" stroke-width="1.00" clip-path="url('#clipping-rect1')" />
		<line x1="190.20" y1="28.88" x2="190.20" y2="25.71" stroke="#7f7f7f" stroke-width="1.00" clip-path="url('#clipping-rect1')" />
		<line x1="199.73" y1="28.88" x2="199.73" y2="26.76" stroke="#7f7f7f" stroke-width="1.00" clip-path="url('#clipping-rect1')" />
		<line x1="209.26" y1="28.88" x2="209.26" y2="26.76" stroke="#7f7f7f" stroke-width="1.00" clip-path="url('#clipping-rect1')" />
		<line x1="218.79" y1="28.88" x2="218.79" y2="26.76" stroke="#7f7f7f" stroke-width="1.00" clip-path="url('#clipping-rect1')" />
		<line x1="228.32" y1="28.88" x2="228.32" y2="26.76" stroke="#7f7f7f" stroke-width="1.00" clip-path="url('#clipping-rect1')" />
		<line x1="237.84" y1="28.88" x2="237.84" y2="25.71" stroke="#7f7f7f" stroke-width="1.00" clip-path="url('#clipping-rect1')" />
		<line x1="247.37" y1="28.88" x2="247.37" y2="26.76" stroke="#7f7f7f" stroke-width="1.00" clip-path="url('#clipping-rect1')" />
		<line x1="256.90" y1="28.88" x2="256.90" y2="26.76" stroke="#7f7f7f" stroke-width="1.00" clip-path="url('#clipping-rect1')" />
		<line x1="266.43" y1="28.88" x2="266.43" y2="26.76" stroke="#7f7f7f" stroke-width="1.00" clip-path="url('#clipping-rect1')" />
		<line x1="275.96" y1="28.88" x2="275.96" y2="26.76" stroke="#7f7f7f" stroke-width="1.00" clip-path="url('#clipping-rect1')" />
		<line x1="285.48" y1="28.88" x2="285.48" y2="25.71" stroke="#7f7f7f" stroke-width="1.00" clip-path="url('#clipping-rect1')" />
		<line x1="295.01" y1="28.88" x2="295.01" y2="26.76" stroke="#7f7f7f" stroke-width="1.00" clip-path="url('#clipping-rect1')" />
		<line x1="304.54" y1="28.88" x2="304.54" y2="26.76" stroke="#7f7f7f" stroke-width="1.00" clip-path="url('#clipping-rect1')" />
		<line x1="314.07" y1="28.88" x2="314.07" y2="26.76" stroke="#7f7f7f" stroke-width="1.00" clip-path="url('#clipping-rect1')" />
		<line x1="323.60" y1="28.88" x2="323.60" y2="26.76" stroke="#7f7f7f" stroke-width="1.00" clip-path="url('#clipping-rect1')" />
		<line x1="333.13" y1="28.88" x2="333.13" y2="25.71" stroke="#7f7f7f" stroke-width="1.00" clip-path="url('#clipping-rect1')" />
		<line x1="342.65" y1="28.88" x2="342.65" y2="26.76" stroke="#7f7f7f" stroke-width="1.00" clip-path="url('#clipping-rect1')" />
		<line x1="352.18" y1="28.88" x2="352.18" y2="26.76" stroke="#7f7f7f" stroke-width="1.00" clip-path="url('#clipping-rect1')" />
		<line x1="361.71" y1="28.88" x2="361.71" y2="26.76" stroke="#7f7f7f" stroke-width="1.00" clip-path="url('#clipping-rect1')" />
		<line x1="371.24" y1="28.88" x2="371.24" y2="26.76" stroke="#7f7f7f" stroke-width="1.00" clip-path="url('#clipping-rect1')" />
		<line x1="380.77" y1="28.88" x2="380.77" y2="25.71" stroke="#7f7f7f" stroke-width="1.00" clip-path="url('#clipping-rect1')" />
		<line x1="390.29" y1="28.88" x2="390.29" y2="26.76" stroke="#7f7f7f" stroke-width="1.00" clip-path="url('#clipping-rect1')" />
		<line x1="399.82" y1="28.88" x2="399.82" y2="26.76" stroke="#7f7f7f" stroke-width="1.00" clip-path="url('#clipping-rect1')" />
		<line x1="409.35" y1="28.88" x2="409.35" y2="26.76" stroke="#7f7f7f" stroke-width="1.00" clip-path="url('#clipping-rect1')" />
		<line x1="418.88" y1="28.88" x2="418.88" y2="26.76" stroke="#7f7f7f" stroke-width="1.00" clip-path="url('#clipping-rect1')" />
		<line x1="428.41" y1="28.88" x2="428.41" y2="25.71" stroke="#7f7f7f" stroke-width="1.00" clip-path="url('#clipping-rect1')" />
		<line x1="437.94" y1="28.88" x2="437.94" y2="26.76" stroke="#7f7f7f" stroke-width="1.00" clip-path="url('#clipping-rect1')" />
		<line x1="447.46" y1="28.88" x2="447.46" y2="26.76" stroke="#7f7f7f" stroke-width="1.00" clip-path="url('#clipping-rect1')" />
		<line x1="456.99" y1="28.88" x2="456.99" y2="26.76" stroke="#7f7f7f" stroke-width="1.00" clip-path="url('#clipping-rect1')" />
		<line x1="466.52" y1="28.88" x2="466.52" y2="26.76" stroke="#7f7f7f" stroke-width="1.00" clip-path="url('#clipping-rect1')" />
		<line x1="476.05" y1="28.88" x2="476.05" y2="25.71" stroke="#7f7f7f" stroke-width="1.00" clip-path="url('#clipping-rect1')" />
		<line x1="485.58" y1="28.88" x2="485.58" y2="26.76" stroke="#7f7f7f" stroke-width="1.00" clip-path="url('#clipping-rect1')" />
		<line x1="495.10" y1="28.88" x2="495.10" y2="26.76" stroke="#7f7f7f" stroke-width="1.00" clip-path="url('#clipping-rect1')" />
		<line x1="504.63" y1="28.88" x2="504.63" y2="26.76" stroke="#7f7f7f" stroke-width="1.00" clip-path="url('#clipping-rect1')" />
		<line x1="514.16" y1="28.88" x2="514.16" y2="26.76" stroke="#7f7f7f" stroke-width="1.00" clip-path="url('#clipping-rect1')" />
		<line x1="523.69" y1="28.88" x2="523.69" y2="25.71" stroke="#7f7f7f" stroke-width="1.00" clip-path="url('#clipping-rect1')" />
		<line x1="533.22" y1="28.88" x2="533.22" y2="26.76" stroke="#7f7f7f" stroke-width="1.00" clip-path="url('#clipping-rect1')" />
		<line x1="542.75" y1="28.88" x2="542.75" y2="26.76" stroke="#7f7f7f" stroke-width="1.00" clip-path="url('#clipping-rect1')" />
		<line x1="552.27" y1="28.88" x2="552.27" y2="26.76" stroke="#7f7f7f" stroke-width="1.00" clip-path="url('#clipping-rect1')" />
		<line x1="561.80" y1="28.88" x2="561.80" y2="26.76" stroke="#7f7f7f" stroke-width="1.00" clip-path="url('#clipping-rect1')" />
		<line x1="571.33" y1="28.88" x2="571.33" y2="25.71" stroke="#7f7f7f" stroke-width="1.00" clip-path="url('#clipping-rect1')" />
		<line x1="580.86" y1="28.88" x2="580.86" y2="26.76" stroke="#7f7f7f" stroke-width="1.00" clip-path="url('#clipping-rect1')" />
		<line x1="590.39" y1="28.88" x2="590.39" y2="26.76" stroke="#7f7f7f" stroke-width="1.00" clip-path="url('#clipping-rect1')" />
		<line x1="599.91" y1="28.88" x2="599.91" y2="26.76" stroke="#7f7f7f" stroke-width="1.00" clip-path="url('#clipping-rect1')" />
		<line x1="609.44" y1="28.88" x2="609.44" y2="26.76" stroke="#7f7f7f" stroke-width="1.00" clip-path="url('#clipping-rect1')" />
		<line x1="618.97" y1="28.88" x2="618.97" y2="25.71" stroke="#7f7f7f" stroke-width="1.00" clip-path="url('#clipping-rect1')" />
		<line x1="628.50" y1="28.88" x2="628.50" y2="26.76" stroke="#7f7f7f" stroke-width="1.00" clip-path="url('#clipping-rect1')" />
		<line x1="638.03" y1="28.88" x2="638.03" y2="26.76" stroke="#7f7f7f" stroke-width="1.00" clip-path="url('#clipping-rect1')" />
		<line x1="647.55" y1="28.88" x2="647.55" y2="26.76" stroke="#7f7f7f" stroke-width="1.00" clip-path="url('#clipping-rect1')" />
		<line x1="657.08" y1="28.88" x2="657.08" y2="26.76" stroke="#7f7f7f" stroke-width="1.00" clip-path="url('#clipping-rect1')" />
		<line x1="666.61" y1="28.88" x2="666.61" y2="25.71" stroke="#7f7f7f" stroke-width="1.00" clip-path="url('#clipping-rect1')" />
		<line x1="676.14" y1="28.88" x2="676.14" y2="26.76" stroke="#7f7f7f" stroke-width="1.00" clip-path="url('#clipping-rect1')" />
		<line x1="685.67" y1="28.88" x2="685.67" y2="26.76" stroke="#7f7f7f" stroke-width="1.00" clip-path="url('#clipping-rect1')" />
		<line x1="695.20" y1="28.88" x2="695.20" y2="26.76" stroke="#7f7f7f" stroke-width="1.00" clip-path="url('#clipping-rect1')" />
		<line x1="704.72" y1="28.88" x2="704.72" y2="26.76" stroke="#7f7f7f" stroke-width="1.00" clip-path="url('#clipping-rect1')" />
		<line x1="714.25" y1="28.88" x2="714.25" y2="25.71" stroke="#7f7f7f" stroke-width="1.00" clip-path="url('#clipping-rect1')" />
		<line x1="723.78" y1="28.88" x2="723.78" y2="26.76" stroke="#7f7f7f" stroke-width="1.00" clip-path="url('#clipping-rect1')" />
		<line x1="733.31" y1="28.88" x2="733.31" y2="26.76" stroke="#7f7f7f" stroke-width="1.00" clip-path="url('#clipping-rect1')" />
		<line x1="742.84" y1="28.88" x2="742.84" y2="26.76" stroke="#7f7f7f" stroke-width="1.00" clip-path="url('#clipping-rect1')" />
		<line x1="752.36" y1="28.88" x2="752.36" y2="26.76" stroke="#7f7f7f" stroke-width="1.00" clip-path="url('#clipping-rect1')" />
		<line x1="761.89" y1="28.88" x2="761.89" y2="25.71" stroke="#7f7f7f" stroke-width="1.00" clip-path="url('#clipping-rect1')" />
		<line x1="771.42" y1="28.88" x2="771.42" y2="26.76" stroke="#7f7f7f" stroke-width="1.00" clip-path="url('#clipping-rect1')" />
		<line x1="780.95" y1="28.88" x2="780.95" y2="26.76" stroke="#7f7f7f" stroke-width="1.00" clip-path="url('#clipping-rect1')" />
		<line x1="790.48" y1="28.88" x2="790.48" y2="26.76" stroke="#7f7f7f" stroke-width="1.00" clip-path="url('#clipping-rect1')" />
		<line x1="800.01" y1="28.88" x2="800.01" y2="26.76" stroke="#7f7f7f" stroke-width="1.00" clip-path="url('#clipping-rect1')" />
		<line x1="809.53" y1="28.88" x2="809.53" y2="25.71" stroke="#7f7f7f" stroke-width="1.00" clip-path="url('#clipping-rect1')" />
		<line x1="819.06" y1="28.88" x2="819.06" y2="26.76" stroke="#7f7f7f" stroke-width="1.00" clip-path="url('#clipping-rect1')" />
		<line x1="828.59" y1="28.88" x2="828.59" y2="26.76" stroke="#7f7f7f" stroke-width="1.00" clip-path="url('#clipping-rect1')" />
		<line x1="838.12" y1="28.88" x2="838.12" y2="26.76" stroke="#7f7f7f" stroke-width="1.00" clip-path="url('#clipping-rect1')" />
		<line x1="847.65" y1="28.88" x2="847.65" y2="26.76" stroke="#7f7f7f" stroke-width="1.00" clip-path="url('#clipping-rect1')" />
		<line x1="857.17" y1="28.88" x2="857.17" y2="25.71" stroke="#7f7f7f" stroke-width="1.00" clip-path="url('#clipping-rect1')" />
		<line x1="866.70" y1="28.88" x2="866.70" y2="26.76" stroke="#7f7f7f" stroke-width="1.00" clip-path="url('#clipping-rect1')" />
		<line x1="876.23" y1="28.88" x2="876.23" y2="26.76" stroke="#7f7f7f" stroke-width="1.00" clip-path="url('#clipping-rect1')" />
		<text x="835.39" y="23.59" font-family="Helvetica" font-size="10" fill="#333333" clip-path="url('#clipping-rect1')" >6,445,812</text>
		<line x1="879.00" y1="31.00" x2="879.00" y2="15.12" stroke="#7f7f7f" stroke-width="1.00" clip-path="url('#clipping-rect1')" />
		<line x1="809.53" y1="31.00" x2="809.53" y2="15.12" stroke="#7f7f7f" stroke-width="1.00" clip-path="url('#clipping-rect1')" />
		<text x="763.89" y="23.59" font-family="Helvetica" font-size="10" fill="#333333" clip-path="url('#clipping-rect1')" >6,200 K</text>
		<line x1="761.89" y1="31.00" x2="761.89" y2="15.12" stroke="#7f7f7f" stroke-width="1.00" clip-path="url('#clipping-rect1')" />
		<text x="716.25" y="23.59" font-family="Helvetica" font-size="10" fill="#333333" clip-path="url('#clipping-rect1')" >6,100 K</text>
		<line x1="714.25" y1="31.00" x2="714.25" y2="15.12" stroke="#7f7f7f" stroke-width="1.00" clip-path="url('#clipping-rect1')" />
		<text x="668.61" y="23.59" font-family="Helvetica" font-size="10" fill="#333333" clip-path="url('#clipping-rect1')" >6 M</text>
		<line x1="666.61" y1="31.00" x2="666.61" y2="15.12" stroke="#7f7f7f" stroke-width="1.00" clip-path="url('#clipping-rect1')" />
		<text x="620.97" y="23.59" font-family="Helvetica" font-size="10" fill="#333333" clip-path="url('#clipping-rect1')" >5,900 K</text>
		<line x1="618.97" y1="31.00" x2="618.97" y2="15.12" stroke="#7f7f7f" stroke-width="1.00" clip-path="url('#clipping-rect1')" />
		<text x="573.33" y="23.59" font-family="Helvetica" font-size="10" fill="#333333" clip-path="url('#clipping-rect1')" >5,800 K</text>
		<line x1="571.33" y1="31.00" x2="571.33" y2="15.12" stroke="#7f7f7f" stroke-width="1.00" clip-path="url('#clipping-rect1')" />
		<text x="525.69" y="23.59" font-family="Helvetica" font-size="10" fill="#333333" clip-path="url('#clipping-rect1')" >5,700 K</text>
		<line x1="523.69" y1="31.00" x2="523.69" y2="15.12" stroke="#7f7f7f" stroke-width="1.00" clip-path="url('#clipping-rect1')" />
		<text x="478.05" y="23.59" font-family="Helvetica" font-size="10" fill="#333333" clip-path="url('#clipping-rect1')" >5,600 K</text>
		<line x1="476.05" y1="31.00" x2="476.05" y2="15.12" stroke="#7f7f7f" stroke-width="1.00" clip-path="url('#clipping-rect1')" />
		<text x="430.41" y="23.59" font-family="Helvetica" font-size="10" fill="#333333" clip-path="url('#clipping-rect1')" >5,500 K</text>
		<line x1="428.41" y1="31.00" x2="428.41" y2="15.12" stroke="#7f7f7f" stroke-width="1.00" clip-path="url('#clipping-rect1')" />
		<text x="382.77" y="23.59" font-family="Helvetica" font-size="10" fill="#333333" clip-path="url('#clipping-rect1')" >5,400 K</text>
		<line x1="380.77" y1="31.00" x2="380.77" y2="15.12" stroke="#7f7f7f" stroke-width="1.00" clip-path="url('#clipping-rect1')" />
		<text x="335.13" y="23.59" font-family="Helvetica" font-size="10" fill="#333333" clip-path="url('#clipping-rect1')" >5,300 K</text>
		<line x1="333.13" y1="31.00" x2="333.13" y2="15.12" stroke="#7f7f7f" stroke-width="1.00" clip-path="url('#clipping-rect1')" />
		<text x="287.48" y="23.59" font-family="Helvetica" font-size="10" fill="#333333" clip-path="url('#clipping-rect1')" >5,200 K</text>
		<line x1="285.48" y1="31.00" x2="285.48" y2="15.12" stroke="#7f7f7f" stroke-width="1.00" clip-path="url('#clipping-rect1')" />
		<text x="239.84" y="23.59" font-family="Helvetica" font-size="10" fill="#333333" clip-path="url('#clipping-rect1')" >5,100 K</text>
		<line x1="237.84" y1="31.00" x2="237.84" y2="15.12" stroke="#7f7f7f" stroke-width="1.00" clip-path="url('#clipping-rect1')" />
		<text x="192.20" y="23.59" font-family="Helvetica" font-size="10" fill="#333333" clip-path="url('#clipping-rect1')" >5 M</text>
		<line x1="190.20" y1="31.00" x2="190.20" y2="15.12" stroke="#7f7f7f" stroke-width="1.00" clip-path="url('#clipping-rect1')" />
		<text x="144.56" y="23.59" font-family="Helvetica" font-size="10" fill="#333333" clip-path="url('#clipping-rect1')" >4,900 K</text>
		<line x1="142.56" y1="31.00" x2="142.56" y2="15.12" stroke="#7f7f7f" stroke-width="1.00" clip-path="url('#clipping-rect1')" />
		<text x="96.92" y="23.59" font-family="Helvetica" font-size="10" fill="#333333" clip-path="url('#clipping-rect1')" >4,800 K</text>
		<line x1="94.92" y1="31.00" x2="94.92" y2="15.12" stroke="#7f7f7f" stroke-width="1.00" clip-path="url('#clipping-rect1')" />
		<text x="49.28" y="23.59" font-family="Helvetica" font-size="10" fill="#333333" clip-path="url('#clipping-rect1')" >4,700 K</text>
		<line x1="47.28" y1="31.00" x2="47.28" y2="15.12" stroke="#7f7f7f" stroke-width="1.00" clip-path="url('#clipping-rect1')" />
		<line x1="0.00" y1="310.00" x2="0.00" y2="31.00" stroke="#ebebeb" stroke-width="1.00" />
		<line x1="47.05" y1="310.00" x2="47.05" y2="31.00" stroke="#ebebeb" stroke-width="1.00" />
		<line x1="94.11" y1="310.00" x2="94.11" y2="31.00" stroke="#ebebeb" stroke-width="1.00" />
		<line x1="142.16" y1="310.00" x2="142.16" y2="31.00" stroke="#ebebeb" stroke-width="1.00" />
		<line x1="190.22" y1="310.00" x2="190.22" y2="31.00" stroke="#ebebeb" stroke-width="1.00" />
		<line x1="237.27" y1="310.00" x2="237.27" y2="31.00" stroke="#ebebeb" stroke-width="1.00" />
		<line x1="285.32" y1="310.00" x2="285.32" y2="31.00" stroke="#ebebeb" stroke-width="1.00" />
		<line x1="333.38" y1="310.00" x2="333.38" y2="31.00" stroke="#ebebeb" stroke-width="1.00" />
		<line x1="380.43" y1="310.00" x2="380.43" y2="31.00" stroke="#ebebeb" stroke-width="1.00" />
		<line x1="428.49" y1="310.00" x2="428.49" y2="31.00" stroke="#ebebeb" stroke-width="1.00" />
		<line x1="476.54" y1="310.00" x2="476.54" y2="31.00" stroke="#ebebeb" stroke-width="1.00" />
		<line x1="523.60" y1="310.00" x2="523.60" y2="31.00" stroke="#ebebeb" stroke-width="1.00" />
		<line x1="571.65" y1="310.00" x2="571.65" y2="31.00" stroke="#ebebeb" stroke-width="1.00" />
		<line x1="618.70" y1="310.00" x2="618.70" y2="31.00" stroke="#ebebeb" stroke-width="1.00" />
		<line x1="666.76" y1="310.00" x2="666.76" y2="31.00" stroke="#ebebeb" stroke-width="1.00" />
		<line x1="714.81" y1="310.00" x2="714.81" y2="31.00" stroke="#ebebeb" stroke-width="1.00" />
		<line x1="761.87" y1="310.00" x2="761.87" y2="31.00" stroke="#ebebeb" stroke-width="1.00" />
		<line x1="809.92" y1="310.00" x2="809.92" y2="31.00" stroke="#ebebeb" stroke-width="1.00" />
		<line x1="857.98" y1="310.00" x2="857.98" y2="31.00" stroke="#ebebeb" stroke-width="1.00" />
		<polygon fill="url('#gradient1')" shape-rendering="crispEdges" points="879.00,37.50 879.00,33.00 0.00,33.00 0.00,37.50 0.00,42.00 879.00,42.00 " />
		<line x1="0.00" y1="42.00" x2="0.00" y2="33.00" stroke="#6c6c6c" stroke-width="1.00" stroke-linejoin="round" />
		<line x1="0.00" y1="33.00" x2="879.00" y2="33.00" stroke="#6c6c6c" stroke-width="1.00" stroke-linejoin="round" />
		<line x1="879.00" y1="33.00" x2="879.00" y2="42.00" stroke="#6c6c6c" stroke-width="1.00" stroke-linejoin="round" />
		<line x1="0.00" y1="42.00" x2="879.00" y2="42.00" stroke="#6c6c6c" stroke-width="1.00" stroke-linejoin="round" />
		<line x1="592.97" y1="76.00" x2="632.02" y2="76.00" stroke="#124d94" stroke-width="1.00" />
		<line x1="592.97" y1="71.00" x2="592.97" y2="81.00" stroke="#6a5acd" stroke-width="1.00" />
		<line x1="595.76" y1="71.00" x2="595.76" y2="81.00" stroke="#6a5acd" stroke-width="1.00" />
		<line x1="600.27" y1="71.00" x2="600.27" y2="81.00" stroke="#6a5acd" stroke-width="1.00" />
		<line x1="625.03" y1="71.00" x2="625.03" y2="81.00" stroke="#6a5acd" stroke-width="1.00" />
		<line x1="632.00" y1="71.00" x2="632.00" y2="81.00" stroke="#6a5acd" stroke-width="1.00" />
		<line x1="610.50" y1="80.00" x2="614.50" y2="76.00" stroke="#000000" stroke-width="1.00" />
		<line x1="614.50" y1="76.00" x2="610.50" y2="72.00" stroke="#000000" stroke-width="1.00" />
		<text x="593.03" y="68.00" font-family="Helvetica" font-size="10" fill="#124d94" >NM_02...</text>
		<polygon fill="url('#gradient2')" shape-rendering="crispEdges" points="0.00,58.00 879.00,58.00 879.00,44.00 0.00,44.00 " clip-path="url('#clipping-rect2')" />
		<text x="0.00" y="54.00" font-family="Helvetica" font-size="12" fill="#333333" >(U) Alignment for group templates, BLAST Results for: NM_020165:Homo sapiens RAD18 E3 ubiquitin...</text>
		<line x1="592.97" y1="101.00" x2="592.97" y2="111.00" stroke="#6a5acd" stroke-width="1.00" />
		<line x1="595.76" y1="115.00" x2="595.76" y2="125.00" stroke="#6a5acd" stroke-width="1.00" />
		<line x1="600.27" y1="101.00" x2="600.27" y2="111.00" stroke="#6a5acd" stroke-width="1.00" />
		<line x1="625.03" y1="101.00" x2="625.03" y2="111.00" stroke="#6a5acd" stroke-width="1.00" />
		<line x1="632.00" y1="101.00" x2="632.00" y2="111.00" stroke="#6a5acd" stroke-width="1.00" />
		<polygon fill="url('#gradient2')" shape-rendering="crispEdges" points="0.00,98.00 879.00,98.00 879.00,84.00 0.00,84.00 " clip-path="url('#clipping-rect2')" />
		<text x="0.00" y="94.00" font-family="Helvetica" font-size="12" fill="#333333" >(U) BLAST Results for: NM_020165:Homo sapiens RAD18 E3 ubiquitin...</text>
		<polygon fill="url('#gradient2')" shape-rendering="crispEdges" points="0.00,142.00 879.00,142.00 879.00,128.00 0.00,128.00 " clip-path="url('#clipping-rect2')" />
		<text x="0.00" y="138.00" font-family="Helvetica" font-size="12" fill="#333333" >(U) Alignment for group templates, BLAST Results for: XM_011525269:PREDICTED: Homo sapiens ATPase...</text>
		<polygon fill="url('#gradient2')" shape-rendering="crispEdges" points="0.00,158.00 879.00,158.00 879.00,144.00 0.00,144.00 " clip-path="url('#clipping-rect2')" />
		<text x="0.00" y="154.00" font-family="Helvetica" font-size="12" fill="#333333" >(U) BLAST Results for: XM_011525269:PREDICTED: Homo sapiens ATPase...</text>
		<line x1="0.00" y1="212.00" x2="0.00" y2="240.00" stroke="#009900" stroke-opacity="0.10" stroke-width="1.00" stroke-linejoin="round" />
		<line x1="0.00" y1="240.00" x2="125.32" y2="240.00" stroke="#009900" stroke-opacity="0.10" stroke-width="1.00" stroke-linejoin="round" />
		<line x1="125.32" y1="240.00" x2="125.32" y2="212.00" stroke="#009900" stroke-opacity="0.10" stroke-width="1.00" stroke-linejoin="round" />
		<line x1="0.00" y1="212.00" x2="125.32" y2="212.00" stroke="#009900" stroke-opacity="0.10" stroke-width="1.00" stroke-linejoin="round" />
		<text x="-55.78" y="221.00" font-family="Helvetica" font-size="10" fill="#124d94" >ENSSPUG00000017440</text>
		<line x1="0.00" y1="232.50" x2="4.15" y2="232.50" stroke="#4ba34b" stroke-width="2.00" />
		<polygon fill="#1e8c1e" shape-rendering="crispEdges" points="4.75,227.00 4.75,238.00 3.75,238.00 3.75,227.00 " />
		<polygon fill="#a5d1a5" shape-rendering="crispEdges" points="4.95,227.00 4.95,238.00 3.95,238.00 3.95,227.00 " />
		<polygon fill="#ffffff" shape-rendering="crispEdges" points="123.32,238.00 123.32,227.00 8.55,227.00 8.55,238.00 " />
		<text x="8.55" y="236.00" font-family="Helvetica" font-size="10" fill="#124d94" >ENSSPUT00000024204.1</text>
		<line x1="0.00" y1="179.00" x2="0.00" y2="207.00" stroke="#009900" stroke-opacity="0.10" stroke-width="1.00" stroke-linejoin="round" />
		<line x1="0.00" y1="207.00" x2="172.14" y2="207.00" stroke="#009900" stroke-opacity="0.10" stroke-width="1.00" stroke-linejoin="round" />
		<line x1="172.14" y1="207.00" x2="172.14" y2="179.00" stroke="#009900" stroke-opacity="0.10" stroke-width="1.00" stroke-linejoin="round" />
		<line x1="0.00" y1="179.00" x2="172.14" y2="179.00" stroke="#009900" stroke-opacity="0.10" stroke-width="1.00" stroke-linejoin="round" />
		<text x="-18.38" y="188.00" font-family="Helvetica" font-size="10" fill="#124d94" >ENSSPUG00000017447</text>
		<polygon fill="#1e8c1e" shape-rendering="crispEdges" points="21.80,194.00 21.80,205.00 20.80,205.00 20.80,194.00 " />
		<line x1="21.32" y1="199.50" x2="21.34" y2="199.50" stroke="#4ba34b" stroke-width="2.00" />
		<polygon fill="#1e8c1e" shape-rendering="crispEdges" points="21.85,194.00 21.85,205.00 20.85,205.00 20.85,194.00 " />
		<line x1="21.35" y1="199.50" x2="21.47" y2="199.50" stroke="#4ba34b" stroke-width="2.00" />
		<polygon fill="#1e8c1e" shape-rendering="crispEdges" points="22.04,194.00 22.04,205.00 21.04,205.00 21.04,194.00 " />
		<line x1="21.62" y1="199.50" x2="21.64" y2="199.50" stroke="#4ba34b" stroke-width="2.00" />
		<polygon fill="#1e8c1e" shape-rendering="crispEdges" points="22.15,194.00 22.15,205.00 21.15,205.00 21.15,194.00 " />
		<line x1="21.66" y1="199.50" x2="21.86" y2="199.50" stroke="#4ba34b" stroke-width="2.00" />
		<polygon fill="#1e8c1e" shape-rendering="crispEdges" points="22.41,194.00 22.41,205.00 21.41,205.00 21.41,194.00 " />
		<line x1="21.96" y1="199.50" x2="22.10" y2="199.50" stroke="#4ba34b" stroke-width="2.00" />
		<polygon fill="#1e8c1e" shape-rendering="crispEdges" points="22.62,194.00 22.62,205.00 21.62,205.00 21.62,194.00 " />
		<line x1="22.13" y1="199.50" x2="22.93" y2="199.50" stroke="#4ba34b" stroke-width="2.00" />
		<polygon fill="#1e8c1e" shape-rendering="crispEdges" points="23.47,194.00 23.47,205.00 22.47,205.00 22.47,194.00 " />
		<line x1="23.02" y1="199.50" x2="24.09" y2="199.50" stroke="#4ba34b" stroke-width="2.00" />
		<polygon fill="#1e8c1e" shape-rendering="crispEdges" points="24.61,194.00 24.61,205.00 23.61,205.00 23.61,194.00 " />
		<line x1="24.14" y1="199.50" x2="25.15" y2="199.50" stroke="#4ba34b" stroke-width="2.00" />
		<polygon fill="#1e8c1e" shape-rendering="crispEdges" points="25.68,194.00 25.68,205.00 24.68,205.00 24.68,194.00 " />
		<line x1="25.21" y1="199.50" x2="26.46" y2="199.50" stroke="#4ba34b" stroke-width="2.00" />
		<polygon fill="#1e8c1e" shape-rendering="crispEdges" points="26.97,194.00 26.97,205.00 25.97,205.00 25.97,194.00 " />
		<line x1="26.49" y1="199.50" x2="32.39" y2="199.50" stroke="#4ba34b" stroke-width="2.00" />
		<polygon fill="#1e8c1e" shape-rendering="crispEdges" points="32.93,194.00 32.93,205.00 31.93,205.00 31.93,194.00 " />
		<line x1="32.48" y1="199.50" x2="34.64" y2="199.50" stroke="#4ba34b" stroke-width="2.00" />
		<polygon fill="#1e8c1e" shape-rendering="crispEdges" points="35.17,194.00 35.17,205.00 34.17,205.00 34.17,194.00 " />
		<line x1="34.71" y1="199.50" x2="45.15" y2="199.50" stroke="#4ba34b" stroke-width="2.00" />
		<polygon fill="#1e8c1e" shape-rendering="crispEdges" points="45.69,194.00 45.69,205.00 44.69,205.00 44.69,194.00 " />
		<line x1="45.24" y1="199.50" x2="50.83" y2="199.50" stroke="#4ba34b" stroke-width="2.00" />
		<polygon fill="#1e8c1e" shape-rendering="crispEdges" points="51.35,194.00 51.35,205.00 50.35,205.00 50.35,194.00 " />
		<line x1="50.88" y1="199.50" x2="51.36" y2="199.50" stroke="#4ba34b" stroke-width="2.00" />
		<polygon fill="#1e8c1e" shape-rendering="crispEdges" points="51.86,194.00 51.86,205.00 50.86,205.00 50.86,194.00 " />
		<polygon fill="#ffffff" shape-rendering="crispEdges" points="170.14,205.00 170.14,194.00 55.37,194.00 55.37,205.00 " />
		<text x="55.37" y="203.00" font-family="Helvetica" font-size="10" fill="#124d94" >ENSSPUT00000024221.1</text>
		<line x1="0.00" y1="278.00" x2="0.00" y2="306.00" stroke="#009900" stroke-opacity="0.10" stroke-width="1.00" stroke-linejoin="round" />
		<line x1="0.00" y1="306.00" x2="196.56" y2="306.00" stroke="#009900" stroke-opacity="0.10" stroke-width="1.00" stroke-linejoin="round" />
		<line x1="196.56" y1="306.00" x2="196.56" y2="278.00" stroke="#009900" stroke-opacity="0.10" stroke-width="1.00" stroke-linejoin="round" />
		<line x1="0.00" y1="278.00" x2="196.56" y2="278.00" stroke="#009900" stroke-opacity="0.10" stroke-width="1.00" stroke-linejoin="round" />
		<text x="19.03" y="287.00" font-family="Helvetica" font-size="10" fill="#124d94" >ENSSPUG00000017457</text>
		<polygon fill="#a5d1a5" shape-rendering="crispEdges" points="72.26,293.00 72.26,304.00 71.26,304.00 71.26,293.00 " />
		<polygon fill="#1e8c1e" shape-rendering="crispEdges" points="72.41,293.00 72.41,304.00 71.41,304.00 71.41,293.00 " />
		<line x1="71.95" y1="298.50" x2="72.49" y2="298.50" stroke="#4ba34b" stroke-width="2.00" />
		<polygon fill="#1e8c1e" shape-rendering="crispEdges" points="73.02,293.00 73.02,304.00 72.02,304.00 72.02,293.00 " />
		<line x1="72.55" y1="298.50" x2="75.67" y2="298.50" stroke="#4ba34b" stroke-width="2.00" />
		<polygon fill="#1e8c1e" shape-rendering="crispEdges" points="76.22,293.00 76.22,304.00 75.22,304.00 75.22,293.00 " />
		<polygon fill="#a5d1a5" shape-rendering="crispEdges" points="76.28,293.00 76.28,304.00 75.28,304.00 75.28,293.00 " />
		<polygon fill="#ffffff" shape-rendering="crispEdges" points="194.56,304.00 194.56,293.00 79.79,293.00 79.79,304.00 " />
		<text x="79.79" y="302.00" font-family="Helvetica" font-size="10" fill="#124d94" >ENSSPUT00000024227.1</text>
		<line x1="0.00" y1="245.00" x2="0.00" y2="273.00" stroke="#009900" stroke-opacity="0.10" stroke-width="1.00" stroke-linejoin="round" />
		<line x1="0.00" y1="273.00" x2="247.37" y2="273.00" stroke="#009900" stroke-opacity="0.10" stroke-width="1.00" stroke-linejoin="round" />
		<line x1="247.37" y1="273.00" x2="247.37" y2="245.00" stroke="#009900" stroke-opacity="0.10" stroke-width="1.00" stroke-linejoin="round" />
		<line x1="0.00" y1="245.00" x2="247.37" y2="245.00" stroke="#009900" stroke-opacity="0.10" stroke-width="1.00" stroke-linejoin="round" />
		<text x="67.44" y="254.00" font-family="Helvetica" font-size="10" fill="#124d94" >ENSSPUG00000017461</text>
		<polygon fill="#a5d1a5" shape-rendering="crispEdges" points="116.58,260.00 116.58,271.00 115.58,271.00 115.58,260.00 " />
		<polygon fill="#1e8c1e" shape-rendering="crispEdges" points="116.77,260.00 116.77,271.00 115.77,271.00 115.77,260.00 " />
		<line x1="116.30" y1="265.50" x2="117.53" y2="265.50" stroke="#4ba34b" stroke-width="2.00" />
		<polygon fill="#1e8c1e" shape-rendering="crispEdges" points="118.06,260.00 118.06,271.00 117.06,271.00 117.06,260.00 " />
		<line x1="117.59" y1="265.50" x2="117.96" y2="265.50" stroke="#4ba34b" stroke-width="2.00" />
		<polygon fill="#1e8c1e" shape-rendering="crispEdges" points="118.48,260.00 118.48,271.00 117.48,271.00 117.48,260.00 " />
		<line x1="118.01" y1="265.50" x2="118.09" y2="265.50" stroke="#4ba34b" stroke-width="2.00" />
		<polygon fill="#1e8c1e" shape-rendering="crispEdges" points="118.62,260.00 118.62,271.00 117.62,271.00 117.62,260.00 " />
		<line x1="118.15" y1="265.50" x2="118.52" y2="265.50" stroke="#4ba34b" stroke-width="2.00" />
		<polygon fill="#1e8c1e" shape-rendering="crispEdges" points="119.04,260.00 119.04,271.00 118.04,271.00 118.04,260.00 " />
		<line x1="118.56" y1="265.50" x2="119.42" y2="265.50" stroke="#4ba34b" stroke-width="2.00" />
		<polygon fill="#1e8c1e" shape-rendering="crispEdges" points="119.95,260.00 119.95,271.00 118.95,271.00 118.95,260.00 " />
		<line x1="119.48" y1="265.50" x2="123.68" y2="265.50" stroke="#4ba34b" stroke-width="2.00" />
		<polygon fill="#1e8c1e" shape-rendering="crispEdges" points="124.30,260.00 124.30,271.00 123.30,271.00 123.30,260.00 " />
		<line x1="123.92" y1="265.50" x2="124.59" y2="265.50" stroke="#4ba34b" stroke-width="2.00" />
		<polygon fill="#1e8c1e" shape-rendering="crispEdges" points="125.10,260.00 125.10,271.00 124.10,271.00 124.10,260.00 " />
		<line x1="124.62" y1="265.50" x2="125.39" y2="265.50" stroke="#4ba34b" stroke-width="2.00" />
		<polygon fill="#1e8c1e" shape-rendering="crispEdges" points="125.95,260.00 125.95,271.00 124.95,271.00 124.95,260.00 " />
		<polygon fill="#a5d1a5" shape-rendering="crispEdges" points="126.01,260.00 126.01,271.00 125.01,271.00 125.01,260.00 " />
		<line x1="125.52" y1="265.50" x2="126.58" y2="265.50" stroke="#4ba34b" stroke-width="2.00" />
		<polygon fill="#a5d1a5" shape-rendering="crispEdges" points="127.09,260.00 127.09,271.00 126.09,271.00 126.09,260.00 " />
		<polygon fill="#ffffff" shape-rendering="crispEdges" points="119.33,271.00 119.33,260.00 1.00,260.00 1.00,271.00 " />
		<text x="1.00" y="269.00" font-family="Helvetica" font-size="10" fill="#124d94" >ENSSPUP00000022728.1</text>
		<polygon fill="#ffffff" shape-rendering="crispEdges" points="245.37,271.00 245.37,260.00 130.60,260.00 130.60,271.00 " />
		<text x="130.60" y="269.00" font-family="Helvetica" font-size="10" fill="#124d94" >ENSSPUT00000024235.1</text>
		<line x1="183.86" y1="179.00" x2="183.86" y2="207.00" stroke="#009900" stroke-opacity="0.10" stroke-width="1.00" stroke-linejoin="round" />
		<line x1="183.86" y1="207.00" x2="527.36" y2="207.00" stroke="#009900" stroke-opacity="0.10" stroke-width="1.00" stroke-linejoin="round" />
		<line x1="527.36" y1="207.00" x2="527.36" y2="179.00" stroke="#009900" stroke-opacity="0.10" stroke-width="1.00" stroke-linejoin="round" />
		<line x1="183.86" y1="179.00" x2="527.36" y2="179.00" stroke="#009900" stroke-opacity="0.10" stroke-width="1.00" stroke-linejoin="round" />
		<text x="301.25" y="188.00" font-family="Helvetica" font-size="10" fill="#124d94" >ENSSPUG00000017469</text>
		<polygon fill="#1e8c1e" shape-rendering="crispEdges" points="305.14,194.00 305.14,205.00 304.14,205.00 304.14,194.00 " />
		<line x1="304.65" y1="199.50" x2="304.80" y2="199.50" stroke="#4ba34b" stroke-width="2.00" />
		<polygon fill="#1e8c1e" shape-rendering="crispEdges" points="305.35,194.00 305.35,205.00 304.35,205.00 304.35,194.00 " />
		<line x1="304.89" y1="199.50" x2="323.76" y2="199.50" stroke="#4ba34b" stroke-width="2.00" />
		<polygon fill="#b2b2b2" shape-rendering="crispEdges" points="318.73,199.50 309.93,195.10 312.13,199.50 309.93,203.90 " />
		<polygon fill="#1e8c1e" shape-rendering="crispEdges" points="324.30,194.00 324.30,205.00 323.30,205.00 323.30,194.00 " />
		<line x1="323.84" y1="199.50" x2="337.52" y2="199.50" stroke="#4ba34b" stroke-width="2.00" />
		<polygon fill="#1e8c1e" shape-rendering="crispEdges" points="338.04,194.00 338.04,205.00 337.04,205.00 337.04,194.00 " />
		<line x1="337.55" y1="199.50" x2="348.58" y2="199.50" stroke="#4ba34b" stroke-width="2.00" />
		<polygon fill="#1e8c1e" shape-rendering="crispEdges" points="349.12,194.00 349.12,205.00 348.12,205.00 348.12,194.00 " />
		<line x1="348.67" y1="199.50" x2="349.93" y2="199.50" stroke="#4ba34b" stroke-width="2.00" />
		<polygon fill="#1e8c1e" shape-rendering="crispEdges" points="350.46,194.00 350.46,205.00 349.46,205.00 349.46,194.00 " />
		<line x1="349.99" y1="199.50" x2="375.19" y2="199.50" stroke="#4ba34b" stroke-width="2.00" />
		<polygon fill="#b2b2b2" shape-rendering="crispEdges" points="366.99,199.50 358.19,195.10 360.39,199.50 358.19,203.90 " />
		<polygon fill="#1e8c1e" shape-rendering="crispEdges" points="375.75,194.00 375.75,205.00 374.75,205.00 374.75,194.00 " />
		<line x1="375.30" y1="199.50" x2="375.90" y2="199.50" stroke="#4ba34b" stroke-width="2.00" />
		<polygon fill="#1e8c1e" shape-rendering="crispEdges" points="376.42,194.00 376.42,205.00 375.42,205.00 375.42,194.00 " />
		<line x1="375.95" y1="199.50" x2="376.16" y2="199.50" stroke="#4ba34b" stroke-width="2.00" />
		<polygon fill="#1e8c1e" shape-rendering="crispEdges" points="376.70,194.00 376.70,205.00 375.70,205.00 375.70,194.00 " />
		<line x1="376.25" y1="199.50" x2="379.13" y2="199.50" stroke="#4ba34b" stroke-width="2.00" />
		<polygon fill="#1e8c1e" shape-rendering="crispEdges" points="379.65,194.00 379.65,205.00 378.65,205.00 378.65,194.00 " />
		<line x1="379.17" y1="199.50" x2="384.65" y2="199.50" stroke="#4ba34b" stroke-width="2.00" />
		<polygon fill="#1e8c1e" shape-rendering="crispEdges" points="385.16,194.00 385.16,205.00 384.16,205.00 384.16,194.00 " />
		<line x1="384.66" y1="199.50" x2="389.09" y2="199.50" stroke="#4ba34b" stroke-width="2.00" />
		<polygon fill="#1e8c1e" shape-rendering="crispEdges" points="389.61,194.00 389.61,205.00 388.61,205.00 388.61,194.00 " />
		<line x1="389.14" y1="199.50" x2="390.98" y2="199.50" stroke="#4ba34b" stroke-width="2.00" />
		<polygon fill="#1e8c1e" shape-rendering="crispEdges" points="391.49,194.00 391.49,205.00 390.49,205.00 390.49,194.00 " />
		<line x1="391.01" y1="199.50" x2="391.57" y2="199.50" stroke="#4ba34b" stroke-width="2.00" />
		<polygon fill="#1e8c1e" shape-rendering="crispEdges" points="392.09,194.00 392.09,205.00 391.09,205.00 391.09,194.00 " />
		<line x1="391.61" y1="199.50" x2="392.80" y2="199.50" stroke="#4ba34b" stroke-width="2.00" />
		<polygon fill="#1e8c1e" shape-rendering="crispEdges" points="393.33,194.00 393.33,205.00 392.33,205.00 392.33,194.00 " />
		<line x1="392.86" y1="199.50" x2="397.46" y2="199.50" stroke="#4ba34b" stroke-width="2.00" />
		<polygon fill="#1e8c1e" shape-rendering="crispEdges" points="397.99,194.00 397.99,205.00 396.99,205.00 396.99,194.00 " />
		<line x1="397.51" y1="199.50" x2="398.35" y2="199.50" stroke="#4ba34b" stroke-width="2.00" />
		<polygon fill="#1e8c1e" shape-rendering="crispEdges" points="398.91,194.00 398.91,205.00 397.91,205.00 397.91,194.00 " />
		<line x1="398.46" y1="199.50" x2="399.30" y2="199.50" stroke="#4ba34b" stroke-width="2.00" />
		<polygon fill="#1e8c1e" shape-rendering="crispEdges" points="399.82,194.00 399.82,205.00 398.82,205.00 398.82,194.00 " />
		<line x1="399.34" y1="199.50" x2="403.26" y2="199.50" stroke="#4ba34b" stroke-width="2.00" />
		<polygon fill="#1e8c1e" shape-rendering="crispEdges" points="403.80,194.00 403.80,205.00 402.80,205.00 402.80,194.00 " />
		<line x1="403.35" y1="199.50" x2="405.96" y2="199.50" stroke="#4ba34b" stroke-width="2.00" />
		<polygon fill="#1e8c1e" shape-rendering="crispEdges" points="406.49,194.00 406.49,205.00 405.49,205.00 405.49,194.00 " />
		<polygon fill="#ffffff" shape-rendering="crispEdges" points="304.63,205.00 304.63,194.00 186.86,194.00 186.86,205.00 " />
		<text x="186.86" y="203.00" font-family="Helvetica" font-size="10" fill="#124d94" >ENSSPUT00000024264.1</text>
		<polygon fill="#ffffff" shape-rendering="crispEdges" points="525.36,205.00 525.36,194.00 410.03,194.00 410.03,205.00 " />
		<text x="410.03" y="203.00" font-family="Helvetica" font-size="10" fill="#124d94" >ENSSPUP00000022757.1</text>
		<line x1="456.96" y1="212.00" x2="456.96" y2="227.00" stroke="#009900" stroke-opacity="0.10" stroke-width="1.00" stroke-linejoin="round" />
		<line x1="456.96" y1="227.00" x2="627.13" y2="227.00" stroke="#009900" stroke-opacity="0.10" stroke-width="1.00" stroke-linejoin="round" />
		<line x1="627.13" y1="227.00" x2="627.13" y2="212.00" stroke="#009900" stroke-opacity="0.10" stroke-width="1.00" stroke-linejoin="round" />
		<line x1="456.96" y1="212.00" x2="627.13" y2="212.00" stroke="#009900" stroke-opacity="0.10" stroke-width="1.00" stroke-linejoin="round" />
		<polygon fill="#1e8c1e" shape-rendering="crispEdges" points="592.73,214.00 592.73,225.00 591.73,225.00 591.73,214.00 " />
		<line x1="592.24" y1="219.50" x2="592.97" y2="219.50" stroke="#4ba34b" stroke-width="2.00" />
		<polygon fill="#1e8c1e" shape-rendering="crispEdges" points="593.49,214.00 593.49,225.00 592.49,225.00 592.49,214.00 " />
		<line x1="593.01" y1="219.50" x2="594.10" y2="219.50" stroke="#4ba34b" stroke-width="2.00" />
		<polygon fill="#77b977" shape-rendering="crispEdges" points="594.60,214.00 594.60,225.00 593.60,225.00 593.60,214.00 " />
		<line x1="594.11" y1="219.50" x2="595.76" y2="219.50" stroke="#4ba34b" stroke-width="2.00" />
		<polygon fill="#77b977" shape-rendering="crispEdges" points="596.27,214.00 596.27,225.00 595.27,225.00 595.27,214.00 " />
		<line x1="595.79" y1="219.50" x2="600.27" y2="219.50" stroke="#4ba34b" stroke-width="2.00" />
		<polygon fill="#77b977" shape-rendering="crispEdges" points="600.79,214.00 600.79,225.00 599.79,225.00 599.79,214.00 " />
		<line x1="600.31" y1="219.50" x2="615.76" y2="219.50" stroke="#4ba34b" stroke-width="2.00" />
		<polygon fill="#b2b2b2" shape-rendering="crispEdges" points="612.43,219.50 603.63,215.10 605.83,219.50 603.63,223.90 " />
		<polygon fill="#77b977" shape-rendering="crispEdges" points="616.33,214.00 616.33,225.00 615.33,225.00 615.33,214.00 " />
		<line x1="615.91" y1="219.50" x2="619.51" y2="219.50" stroke="#4ba34b" stroke-width="2.00" />
		<polygon fill="#77b977" shape-rendering="crispEdges" points="620.03,214.00 620.03,225.00 619.03,225.00 619.03,214.00 " />
		<line x1="619.55" y1="219.50" x2="625.03" y2="219.50" stroke="#4ba34b" stroke-width="2.00" />
		<polygon fill="#77b977" shape-rendering="crispEdges" points="625.58,214.00 625.58,225.00 624.58,225.00 624.58,214.00 " />
		<polygon fill="#ffffff" shape-rendering="crispEdges" points="592.21,225.00 592.21,214.00 459.96,214.00 459.96,225.00 " />
		<text x="459.96" y="223.00" font-family="Helvetica" font-size="10" fill="#124d94" >ENSSPUG00000017486 [+4]</text>
		<polygon fill="url('#gradient3')" shape-rendering="crispEdges" points="0.00,174.00 879.00,174.00 879.00,160.00 0.00,160.00 " clip-path="url('#clipping-rect2')" />
		<text x="0.00" y="170.00" font-family="Helvetica" font-size="12" fill="#333333" >Genes, Ensembl release 114</text>
		<polygon fill="#0000ff" fill-opacity="0.20" shape-rendering="crispEdges" points="346.50,31.50 346.50,23.10 346.50,23.10 " />
		<polygon fill="#0000ff" fill-opacity="0.20" shape-rendering="crispEdges" points="346.50,31.50 346.50,31.50 346.50,23.10 " />
		<line x1="346.50" y1="30.50" x2="346.50" y2="23.10" stroke="#0000ff" stroke-opacity="0.40" stroke-width="1.00" />
		<line x1="346.50" y1="30.50" x2="346.50" y2="23.10" stroke="#0000ff" stroke-opacity="0.40" stroke-width="1.00" />
		<polygon fill="#0000ff" shape-rendering="crispEdges" points="340.79,22.35 340.50,20.50 340.79,18.65 341.65,16.97 342.97,15.65 344.65,14.79 346.50,14.50 346.50,26.50 344.65,26.21 342.97,25.35 341.65,24.03 " />
		<polygon fill="#0000ff" fill-opacity="0.60" shape-rendering="crispEdges" points="392.09,26.50 392.09,14.50 346.50,14.50 346.50,26.50 " />
		<text x="348.50" y="23.50" font-family="Helvetica" font-size="10" fill="#ffffff" >SRGAP3</text>
		<polygon fill="#0000ff" fill-opacity="0.20" shape-rendering="crispEdges" points="346.39,311.00 346.39,31.00 346.39,31.00 " />
		<polygon fill="#0000ff" fill-opacity="0.20" shape-rendering="crispEdges" points="346.39,311.00 346.39,311.00 346.39,31.00 " />
		<line x1="346.39" y1="310.00" x2="346.39" y2="31.00" stroke="#0000ff" stroke-opacity="0.40" stroke-width="1.00" />
		<line x1="346.39" y1="310.00" x2="346.39" y2="31.00" stroke="#0000ff" stroke-opacity="0.40" stroke-width="1.00" />
		<polygon fill="#0000ff" fill-opacity="0.20" shape-rendering="crispEdges" points="612.50,31.50 612.50,23.10 612.50,23.10 " />
		<polygon fill="#0000ff" fill-opacity="0.20" shape-rendering="crispEdges" points="612.50,31.50 612.50,31.50 612.50,23.10 " />
		<line x1="612.50" y1="30.50" x2="612.50" y2="23.10" stroke="#0000ff" stroke-opacity="0.40" stroke-width="1.00" />
		<line x1="612.50" y1="30.50" x2="612.50" y2="23.10" stroke="#0000ff" stroke-opacity="0.40" stroke-width="1.00" />
		<polygon fill="#0000ff" shape-rendering="crispEdges" points="606.79,22.35 606.50,20.50 606.79,18.65 607.65,16.97 608.97,15.65 610.65,14.79 612.50,14.50 612.50,26.50 610.65,26.21 608.97,25.35 607.65,24.03 " />
		<polygon fill="#0000ff" fill-opacity="0.60" shape-rendering="crispEdges" points="649.38,26.50 649.38,14.50 612.50,14.50 612.50,26.50 " />
		<text x="614.50" y="23.50" font-family="Helvetica" font-size="10" fill="#ffffff" >RAD18</text>
		<polygon fill="#0000ff" fill-opacity="0.20" shape-rendering="crispEdges" points="612.70,311.00 612.70,31.00 612.70,31.00 " />
		<polygon fill="#0000ff" fill-opacity="0.20" shape-rendering="crispEdges" points="612.70,311.00 612.70,311.00 612.70,31.00 " />
		<line x1="612.70" y1="310.00" x2="612.70" y2="31.00" stroke="#0000ff" stroke-opacity="0.40" stroke-width="1.00" />
		<line x1="612.70" y1="310.00" x2="612.70" y2="31.00" stroke="#0000ff" stroke-opacity="0.40" stroke-width="1.00" />
		<polygon fill="#e5e5e5" shape-rendering="crispEdges" points="879.00,13.00 879.00,-1.00 0.00,-1.00 0.00,13.00 " />
		<text x="0.00" y="10.00" font-family="Helvetica Bold" font-size="12" text-anchor="start" fill="#000000" >QEPC01009797.1:4600755..6445812 Sphenodon punctatus isolate mauimua-1 ScrUdWx_1749, whole genome shotgun sequence</text>
	</g>
</svg>
