<?xml version="1.0" standalone="no" ?>
<!DOCTYPE svg PUBLIC "-//W3C//DTD SVG 1.1//EN" "http://www.w3.org/Graphics/SVG/1.1/DTD/svg11.dtd">
<svg width="879px" height="116px" xmlns="http://www.w3.org/2000/svg" version="1.1" viewBox="0 0 879 116" >
	<style type="text/css" > <![CDATA[
		@import url("https://www.ncbi.nlm.nih.gov/projects/sviewer/css/svg_fonts.css");
	]]>
	</style>
	<desc >Generated by NCBI Genome Workbench http://www.ncbi.nlm.nih.gov/tools/gbench/</desc>
	<defs >
		<clipPath id="clipping-rect1" >
			<rect x="0" y="14" width="879" height="18" />
		</clipPath>
		<linearGradient id="gradient1" gradientTransform="rotate(90)" >
			<stop offset="0%" stop-color="#6c6c6c" />
			<stop offset="50%" stop-color="#b5b5b5" />
			<stop offset="100%" stop-color="#6c6c6c" />
		</linearGradient>
		<clipPath id="clipping-rect2" >
			<rect x="0" y="32" width="879" height="84" />
		</clipPath>
		<linearGradient id="gradient2" gradientTransform="rotate(90)" >
			<stop offset="0%" stop-color="#e6e6e6" stop-opacity="0.71" />
			<stop offset="100%" stop-color="#ffffff" stop-opacity="0.00" />
		</linearGradient>
	</defs>
	<g >
		<polygon fill="#ffffff" shape-rendering="crispEdges" points="879.00,31.00 879.00,13.00 0.00,13.00 0.00,31.00 " />
		<line x1="0.00" y1="28.88" x2="879.00" y2="28.88" stroke="#7f7f7f" stroke-width="1.00" clip-path="url('#clipping-rect1')" />
		<line x1="0.10" y1="28.88" x2="0.10" y2="26.76" stroke="#7f7f7f" stroke-width="1.00" clip-path="url('#clipping-rect1')" />
		<line x1="11.03" y1="28.88" x2="11.03" y2="25.71" stroke="#7f7f7f" stroke-width="1.00" clip-path="url('#clipping-rect1')" />
		<line x1="21.95" y1="28.88" x2="21.95" y2="26.76" stroke="#7f7f7f" stroke-width="1.00" clip-path="url('#clipping-rect1')" />
		<line x1="32.88" y1="28.88" x2="32.88" y2="25.71" stroke="#7f7f7f" stroke-width="1.00" clip-path="url('#clipping-rect1')" />
		<line x1="43.80" y1="28.88" x2="43.80" y2="26.76" stroke="#7f7f7f" stroke-width="1.00" clip-path="url('#clipping-rect1')" />
		<line x1="54.73" y1="28.88" x2="54.73" y2="25.71" stroke="#7f7f7f" stroke-width="1.00" clip-path="url('#clipping-rect1')" />
		<line x1="65.65" y1="28.88" x2="65.65" y2="26.76" stroke="#7f7f7f" stroke-width="1.00" clip-path="url('#clipping-rect1')" />
		<line x1="76.58" y1="28.88" x2="76.58" y2="25.71" stroke="#7f7f7f" stroke-width="1.00" clip-path="url('#clipping-rect1')" />
		<line x1="87.51" y1="28.88" x2="87.51" y2="26.76" stroke="#7f7f7f" stroke-width="1.00" clip-path="url('#clipping-rect1')" />
		<line x1="98.43" y1="28.88" x2="98.43" y2="25.71" stroke="#7f7f7f" stroke-width="1.00" clip-path="url('#clipping-rect1')" />
		<line x1="109.36" y1="28.88" x2="109.36" y2="26.76" stroke="#7f7f7f" stroke-width="1.00" clip-path="url('#clipping-rect1')" />
		<line x1="120.28" y1="28.88" x2="120.28" y2="25.71" stroke="#7f7f7f" stroke-width="1.00" clip-path="url('#clipping-rect1')" />
		<line x1="131.21" y1="28.88" x2="131.21" y2="26.76" stroke="#7f7f7f" stroke-width="1.00" clip-path="url('#clipping-rect1')" />
		<line x1="142.13" y1="28.88" x2="142.13" y2="25.71" stroke="#7f7f7f" stroke-width="1.00" clip-path="url('#clipping-rect1')" />
		<line x1="153.06" y1="28.88" x2="153.06" y2="26.76" stroke="#7f7f7f" stroke-width="1.00" clip-path="url('#clipping-rect1')" />
		<line x1="163.98" y1="28.88" x2="163.98" y2="25.71" stroke="#7f7f7f" stroke-width="1.00" clip-path="url('#clipping-rect1')" />
		<line x1="174.91" y1="28.88" x2="174.91" y2="26.76" stroke="#7f7f7f" stroke-width="1.00" clip-path="url('#clipping-rect1')" />
		<line x1="185.83" y1="28.88" x2="185.83" y2="25.71" stroke="#7f7f7f" stroke-width="1.00" clip-path="url('#clipping-rect1')" />
		<line x1="196.76" y1="28.88" x2="196.76" y2="26.76" stroke="#7f7f7f" stroke-width="1.00" clip-path="url('#clipping-rect1')" />
		<line x1="207.68" y1="28.88" x2="207.68" y2="25.71" stroke="#7f7f7f" stroke-width="1.00" clip-path="url('#clipping-rect1')" />
		<line x1="218.61" y1="28.88" x2="218.61" y2="26.76" stroke="#7f7f7f" stroke-width="1.00" clip-path="url('#clipping-rect1')" />
		<line x1="229.53" y1="28.88" x2="229.53" y2="25.71" stroke="#7f7f7f" stroke-width="1.00" clip-path="url('#clipping-rect1')" />
		<line x1="240.46" y1="28.88" x2="240.46" y2="26.76" stroke="#7f7f7f" stroke-width="1.00" clip-path="url('#clipping-rect1')" />
		<line x1="251.38" y1="28.88" x2="251.38" y2="25.71" stroke="#7f7f7f" stroke-width="1.00" clip-path="url('#clipping-rect1')" />
		<line x1="262.31" y1="28.88" x2="262.31" y2="26.76" stroke="#7f7f7f" stroke-width="1.00" clip-path="url('#clipping-rect1')" />
		<line x1="273.23" y1="28.88" x2="273.23" y2="25.71" stroke="#7f7f7f" stroke-width="1.00" clip-path="url('#clipping-rect1')" />
		<line x1="284.16" y1="28.88" x2="284.16" y2="26.76" stroke="#7f7f7f" stroke-width="1.00" clip-path="url('#clipping-rect1')" />
		<line x1="295.08" y1="28.88" x2="295.08" y2="25.71" stroke="#7f7f7f" stroke-width="1.00" clip-path="url('#clipping-rect1')" />
		<line x1="306.01" y1="28.88" x2="306.01" y2="26.76" stroke="#7f7f7f" stroke-width="1.00" clip-path="url('#clipping-rect1')" />
		<line x1="316.93" y1="28.88" x2="316.93" y2="25.71" stroke="#7f7f7f" stroke-width="1.00" clip-path="url('#clipping-rect1')" />
		<line x1="327.86" y1="28.88" x2="327.86" y2="26.76" stroke="#7f7f7f" stroke-width="1.00" clip-path="url('#clipping-rect1')" />
		<line x1="338.78" y1="28.88" x2="338.78" y2="25.71" stroke="#7f7f7f" stroke-width="1.00" clip-path="url('#clipping-rect1')" />
		<line x1="349.71" y1="28.88" x2="349.71" y2="26.76" stroke="#7f7f7f" stroke-width="1.00" clip-path="url('#clipping-rect1')" />
		<line x1="360.63" y1="28.88" x2="360.63" y2="25.71" stroke="#7f7f7f" stroke-width="1.00" clip-path="url('#clipping-rect1')" />
		<line x1="371.56" y1="28.88" x2="371.56" y2="26.76" stroke="#7f7f7f" stroke-width="1.00" clip-path="url('#clipping-rect1')" />
		<line x1="382.48" y1="28.88" x2="382.48" y2="25.71" stroke="#7f7f7f" stroke-width="1.00" clip-path="url('#clipping-rect1')" />
		<line x1="393.41" y1="28.88" x2="393.41" y2="26.76" stroke="#7f7f7f" stroke-width="1.00" clip-path="url('#clipping-rect1')" />
		<line x1="404.34" y1="28.88" x2="404.34" y2="25.71" stroke="#7f7f7f" stroke-width="1.00" clip-path="url('#clipping-rect1')" />
		<line x1="415.26" y1="28.88" x2="415.26" y2="26.76" stroke="#7f7f7f" stroke-width="1.00" clip-path="url('#clipping-rect1')" />
		<line x1="426.19" y1="28.88" x2="426.19" y2="25.71" stroke="#7f7f7f" stroke-width="1.00" clip-path="url('#clipping-rect1')" />
		<line x1="437.11" y1="28.88" x2="437.11" y2="26.76" stroke="#7f7f7f" stroke-width="1.00" clip-path="url('#clipping-rect1')" />
		<line x1="448.04" y1="28.88" x2="448.04" y2="25.71" stroke="#7f7f7f" stroke-width="1.00" clip-path="url('#clipping-rect1')" />
		<line x1="458.96" y1="28.88" x2="458.96" y2="26.76" stroke="#7f7f7f" stroke-width="1.00" clip-path="url('#clipping-rect1')" />
		<line x1="469.89" y1="28.88" x2="469.89" y2="25.71" stroke="#7f7f7f" stroke-width="1.00" clip-path="url('#clipping-rect1')" />
		<line x1="480.81" y1="28.88" x2="480.81" y2="26.76" stroke="#7f7f7f" stroke-width="1.00" clip-path="url('#clipping-rect1')" />
		<line x1="491.74" y1="28.88" x2="491.74" y2="25.71" stroke="#7f7f7f" stroke-width="1.00" clip-path="url('#clipping-rect1')" />
		<line x1="502.66" y1="28.88" x2="502.66" y2="26.76" stroke="#7f7f7f" stroke-width="1.00" clip-path="url('#clipping-rect1')" />
		<line x1="513.59" y1="28.88" x2="513.59" y2="25.71" stroke="#7f7f7f" stroke-width="1.00" clip-path="url('#clipping-rect1')" />
		<line x1="524.51" y1="28.88" x2="524.51" y2="26.76" stroke="#7f7f7f" stroke-width="1.00" clip-path="url('#clipping-rect1')" />
		<line x1="535.44" y1="28.88" x2="535.44" y2="25.71" stroke="#7f7f7f" stroke-width="1.00" clip-path="url('#clipping-rect1')" />
		<line x1="546.36" y1="28.88" x2="546.36" y2="26.76" stroke="#7f7f7f" stroke-width="1.00" clip-path="url('#clipping-rect1')" />
		<line x1="557.29" y1="28.88" x2="557.29" y2="25.71" stroke="#7f7f7f" stroke-width="1.00" clip-path="url('#clipping-rect1')" />
		<line x1="568.21" y1="28.88" x2="568.21" y2="26.76" stroke="#7f7f7f" stroke-width="1.00" clip-path="url('#clipping-rect1')" />
		<line x1="579.14" y1="28.88" x2="579.14" y2="25.71" stroke="#7f7f7f" stroke-width="1.00" clip-path="url('#clipping-rect1')" />
		<line x1="590.06" y1="28.88" x2="590.06" y2="26.76" stroke="#7f7f7f" stroke-width="1.00" clip-path="url('#clipping-rect1')" />
		<line x1="600.99" y1="28.88" x2="600.99" y2="25.71" stroke="#7f7f7f" stroke-width="1.00" clip-path="url('#clipping-rect1')" />
		<line x1="611.91" y1="28.88" x2="611.91" y2="26.76" stroke="#7f7f7f" stroke-width="1.00" clip-path="url('#clipping-rect1')" />
		<line x1="622.84" y1="28.88" x2="622.84" y2="25.71" stroke="#7f7f7f" stroke-width="1.00" clip-path="url('#clipping-rect1')" />
		<line x1="633.76" y1="28.88" x2="633.76" y2="26.76" stroke="#7f7f7f" stroke-width="1.00" clip-path="url('#clipping-rect1')" />
		<line x1="644.69" y1="28.88" x2="644.69" y2="25.71" stroke="#7f7f7f" stroke-width="1.00" clip-path="url('#clipping-rect1')" />
		<line x1="655.61" y1="28.88" x2="655.61" y2="26.76" stroke="#7f7f7f" stroke-width="1.00" clip-path="url('#clipping-rect1')" />
		<line x1="666.54" y1="28.88" x2="666.54" y2="25.71" stroke="#7f7f7f" stroke-width="1.00" clip-path="url('#clipping-rect1')" />
		<line x1="677.46" y1="28.88" x2="677.46" y2="26.76" stroke="#7f7f7f" stroke-width="1.00" clip-path="url('#clipping-rect1')" />
		<line x1="688.39" y1="28.88" x2="688.39" y2="25.71" stroke="#7f7f7f" stroke-width="1.00" clip-path="url('#clipping-rect1')" />
		<line x1="699.31" y1="28.88" x2="699.31" y2="26.76" stroke="#7f7f7f" stroke-width="1.00" clip-path="url('#clipping-rect1')" />
		<line x1="710.24" y1="28.88" x2="710.24" y2="25.71" stroke="#7f7f7f" stroke-width="1.00" clip-path="url('#clipping-rect1')" />
		<line x1="721.17" y1="28.88" x2="721.17" y2="26.76" stroke="#7f7f7f" stroke-width="1.00" clip-path="url('#clipping-rect1')" />
		<line x1="732.09" y1="28.88" x2="732.09" y2="25.71" stroke="#7f7f7f" stroke-width="1.00" clip-path="url('#clipping-rect1')" />
		<line x1="743.02" y1="28.88" x2="743.02" y2="26.76" stroke="#7f7f7f" stroke-width="1.00" clip-path="url('#clipping-rect1')" />
		<line x1="753.94" y1="28.88" x2="753.94" y2="25.71" stroke="#7f7f7f" stroke-width="1.00" clip-path="url('#clipping-rect1')" />
		<line x1="764.87" y1="28.88" x2="764.87" y2="26.76" stroke="#7f7f7f" stroke-width="1.00" clip-path="url('#clipping-rect1')" />
		<line x1="775.79" y1="28.88" x2="775.79" y2="25.71" stroke="#7f7f7f" stroke-width="1.00" clip-path="url('#clipping-rect1')" />
		<line x1="786.72" y1="28.88" x2="786.72" y2="26.76" stroke="#7f7f7f" stroke-width="1.00" clip-path="url('#clipping-rect1')" />
		<line x1="797.64" y1="28.88" x2="797.64" y2="25.71" stroke="#7f7f7f" stroke-width="1.00" clip-path="url('#clipping-rect1')" />
		<line x1="808.57" y1="28.88" x2="808.57" y2="26.76" stroke="#7f7f7f" stroke-width="1.00" clip-path="url('#clipping-rect1')" />
		<line x1="819.49" y1="28.88" x2="819.49" y2="25.71" stroke="#7f7f7f" stroke-width="1.00" clip-path="url('#clipping-rect1')" />
		<line x1="830.42" y1="28.88" x2="830.42" y2="26.76" stroke="#7f7f7f" stroke-width="1.00" clip-path="url('#clipping-rect1')" />
		<line x1="841.34" y1="28.88" x2="841.34" y2="25.71" stroke="#7f7f7f" stroke-width="1.00" clip-path="url('#clipping-rect1')" />
		<line x1="852.27" y1="28.88" x2="852.27" y2="26.76" stroke="#7f7f7f" stroke-width="1.00" clip-path="url('#clipping-rect1')" />
		<line x1="863.19" y1="28.88" x2="863.19" y2="25.71" stroke="#7f7f7f" stroke-width="1.00" clip-path="url('#clipping-rect1')" />
		<line x1="874.12" y1="28.88" x2="874.12" y2="26.76" stroke="#7f7f7f" stroke-width="1.00" clip-path="url('#clipping-rect1')" />
		<text x="835.14" y="23.59" font-family="Helvetica" font-size="10" fill="#333333" clip-path="url('#clipping-rect1')" >4,487,234</text>
		<line x1="879.00" y1="31.00" x2="879.00" y2="15.12" stroke="#7f7f7f" stroke-width="1.00" clip-path="url('#clipping-rect1')" />
		<line x1="797.64" y1="31.00" x2="797.64" y2="15.12" stroke="#7f7f7f" stroke-width="1.00" clip-path="url('#clipping-rect1')" />
		<text x="690.39" y="23.59" font-family="Helvetica" font-size="10" fill="#333333" clip-path="url('#clipping-rect1')" >4,400 K</text>
		<line x1="688.39" y1="31.00" x2="688.39" y2="15.12" stroke="#7f7f7f" stroke-width="1.00" clip-path="url('#clipping-rect1')" />
		<text x="581.14" y="23.59" font-family="Helvetica" font-size="10" fill="#333333" clip-path="url('#clipping-rect1')" >4,350 K</text>
		<line x1="579.14" y1="31.00" x2="579.14" y2="15.12" stroke="#7f7f7f" stroke-width="1.00" clip-path="url('#clipping-rect1')" />
		<text x="471.89" y="23.59" font-family="Helvetica" font-size="10" fill="#333333" clip-path="url('#clipping-rect1')" >4,300 K</text>
		<line x1="469.89" y1="31.00" x2="469.89" y2="15.12" stroke="#7f7f7f" stroke-width="1.00" clip-path="url('#clipping-rect1')" />
		<text x="362.63" y="23.59" font-family="Helvetica" font-size="10" fill="#333333" clip-path="url('#clipping-rect1')" >4,250 K</text>
		<line x1="360.63" y1="31.00" x2="360.63" y2="15.12" stroke="#7f7f7f" stroke-width="1.00" clip-path="url('#clipping-rect1')" />
		<text x="253.38" y="23.59" font-family="Helvetica" font-size="10" fill="#333333" clip-path="url('#clipping-rect1')" >4,200 K</text>
		<line x1="251.38" y1="31.00" x2="251.38" y2="15.12" stroke="#7f7f7f" stroke-width="1.00" clip-path="url('#clipping-rect1')" />
		<text x="144.13" y="23.59" font-family="Helvetica" font-size="10" fill="#333333" clip-path="url('#clipping-rect1')" >4,150 K</text>
		<line x1="142.13" y1="31.00" x2="142.13" y2="15.12" stroke="#7f7f7f" stroke-width="1.00" clip-path="url('#clipping-rect1')" />
		<text x="34.88" y="23.59" font-family="Helvetica" font-size="10" fill="#333333" clip-path="url('#clipping-rect1')" >4,100 K</text>
		<line x1="32.88" y1="31.00" x2="32.88" y2="15.12" stroke="#7f7f7f" stroke-width="1.00" clip-path="url('#clipping-rect1')" />
		<line x1="32.04" y1="115.00" x2="32.04" y2="31.00" stroke="#ebebeb" stroke-width="1.00" />
		<line x1="142.16" y1="115.00" x2="142.16" y2="31.00" stroke="#ebebeb" stroke-width="1.00" />
		<line x1="251.29" y1="115.00" x2="251.29" y2="31.00" stroke="#ebebeb" stroke-width="1.00" />
		<line x1="360.41" y1="115.00" x2="360.41" y2="31.00" stroke="#ebebeb" stroke-width="1.00" />
		<line x1="469.53" y1="115.00" x2="469.53" y2="31.00" stroke="#ebebeb" stroke-width="1.00" />
		<line x1="579.66" y1="115.00" x2="579.66" y2="31.00" stroke="#ebebeb" stroke-width="1.00" />
		<line x1="688.78" y1="115.00" x2="688.78" y2="31.00" stroke="#ebebeb" stroke-width="1.00" />
		<line x1="797.91" y1="115.00" x2="797.91" y2="31.00" stroke="#ebebeb" stroke-width="1.00" />
		<polygon fill="url('#gradient1')" shape-rendering="crispEdges" points="879.00,37.50 879.00,33.00 0.00,33.00 0.00,37.50 0.00,42.00 879.00,42.00 " />
		<line x1="0.00" y1="42.00" x2="0.00" y2="33.00" stroke="#6c6c6c" stroke-width="1.00" stroke-linejoin="round" />
		<line x1="0.00" y1="33.00" x2="879.00" y2="33.00" stroke="#6c6c6c" stroke-width="1.00" stroke-linejoin="round" />
		<line x1="879.00" y1="33.00" x2="879.00" y2="42.00" stroke="#6c6c6c" stroke-width="1.00" stroke-linejoin="round" />
		<line x1="0.00" y1="42.00" x2="879.00" y2="42.00" stroke="#6c6c6c" stroke-width="1.00" stroke-linejoin="round" />
		<line x1="0.00" y1="63.00" x2="0.00" y2="91.00" stroke="#009900" stroke-opacity="0.10" stroke-width="1.00" stroke-linejoin="round" />
		<line x1="0.00" y1="91.00" x2="429.17" y2="91.00" stroke="#009900" stroke-opacity="0.10" stroke-width="1.00" stroke-linejoin="round" />
		<line x1="429.17" y1="91.00" x2="429.17" y2="63.00" stroke="#009900" stroke-opacity="0.10" stroke-width="1.00" stroke-linejoin="round" />
		<line x1="0.00" y1="63.00" x2="429.17" y2="63.00" stroke="#009900" stroke-opacity="0.10" stroke-width="1.00" stroke-linejoin="round" />
		<text x="29.31" y="72.00" font-family="Helvetica" font-size="10" fill="#124d94" >ENSSPUG00000017722</text>
		<line x1="0.00" y1="83.50" x2="7.30" y2="83.50" stroke="#4ba34b" stroke-width="2.00" />
		<polygon fill="#1e8c1e" shape-rendering="crispEdges" points="7.88,78.00 7.88,89.00 6.88,89.00 6.88,78.00 " />
		<line x1="7.46" y1="83.50" x2="8.35" y2="83.50" stroke="#4ba34b" stroke-width="2.00" />
		<polygon fill="#1e8c1e" shape-rendering="crispEdges" points="9.03,78.00 9.03,89.00 8.03,89.00 8.03,78.00 " />
		<line x1="8.72" y1="83.50" x2="17.90" y2="83.50" stroke="#4ba34b" stroke-width="2.00" />
		<polygon fill="#1e8c1e" shape-rendering="crispEdges" points="18.51,78.00 18.51,89.00 17.51,89.00 17.51,78.00 " />
		<line x1="18.12" y1="83.50" x2="35.71" y2="83.50" stroke="#4ba34b" stroke-width="2.00" />
		<polygon fill="#b2b2b2" shape-rendering="crispEdges" points="22.51,83.50 31.31,79.10 29.11,83.50 31.31,87.90 " />
		<polygon fill="#1e8c1e" shape-rendering="crispEdges" points="36.42,78.00 36.42,89.00 35.42,89.00 35.42,78.00 " />
		<line x1="36.13" y1="83.50" x2="52.46" y2="83.50" stroke="#4ba34b" stroke-width="2.00" />
		<polygon fill="#b2b2b2" shape-rendering="crispEdges" points="39.89,83.50 48.69,79.10 46.49,83.50 48.69,87.90 " />
		<polygon fill="#1e8c1e" shape-rendering="crispEdges" points="53.18,78.00 53.18,89.00 52.18,89.00 52.18,78.00 " />
		<line x1="52.89" y1="83.50" x2="61.97" y2="83.50" stroke="#4ba34b" stroke-width="2.00" />
		<polygon fill="#1e8c1e" shape-rendering="crispEdges" points="62.61,78.00 62.61,89.00 61.61,89.00 61.61,78.00 " />
		<line x1="62.26" y1="83.50" x2="65.47" y2="83.50" stroke="#4ba34b" stroke-width="2.00" />
		<polygon fill="#1e8c1e" shape-rendering="crispEdges" points="66.13,78.00 66.13,89.00 65.13,89.00 65.13,78.00 " />
		<line x1="65.78" y1="83.50" x2="72.76" y2="83.50" stroke="#4ba34b" stroke-width="2.00" />
		<polygon fill="#1e8c1e" shape-rendering="crispEdges" points="73.42,78.00 73.42,89.00 72.42,89.00 72.42,78.00 " />
		<line x1="73.08" y1="83.50" x2="115.95" y2="83.50" stroke="#4ba34b" stroke-width="2.00" />
		<polygon fill="#b2b2b2" shape-rendering="crispEdges" points="90.11,83.50 98.91,79.10 96.71,83.50 98.91,87.90 " />
		<polygon fill="#1e8c1e" shape-rendering="crispEdges" points="116.60,78.00 116.60,89.00 115.60,89.00 115.60,78.00 " />
		<line x1="116.25" y1="83.50" x2="307.40" y2="83.50" stroke="#4ba34b" stroke-width="2.00" />
		<polygon fill="#b2b2b2" shape-rendering="crispEdges" points="157.43,83.50 166.23,79.10 164.03,83.50 166.23,87.90 " />
		<polygon fill="#9d9d9d" shape-rendering="crispEdges" points="257.43,83.50 266.23,79.10 264.03,83.50 266.23,87.90 " />
		<polygon fill="#1e8c1e" shape-rendering="crispEdges" points="308.40,78.00 308.40,89.00 307.40,89.00 307.40,78.00 " />
		<polygon fill="#ffffff" shape-rendering="crispEdges" points="119.33,89.00 119.33,78.00 1.00,78.00 1.00,89.00 " />
		<text x="1.00" y="87.00" font-family="Helvetica" font-size="10" fill="#124d94" >ENSSPUP00000023091.1</text>
		<polygon fill="#ffffff" shape-rendering="crispEdges" points="427.17,89.00 427.17,78.00 312.40,78.00 312.40,89.00 " />
		<text x="312.40" y="87.00" font-family="Helvetica" font-size="10" fill="#124d94" >ENSSPUT00000024625.1</text>
		<line x1="324.22" y1="96.00" x2="324.22" y2="111.00" stroke="#009900" stroke-opacity="0.10" stroke-width="1.00" stroke-linejoin="round" />
		<line x1="324.22" y1="111.00" x2="568.33" y2="111.00" stroke="#009900" stroke-opacity="0.10" stroke-width="1.00" stroke-linejoin="round" />
		<line x1="568.33" y1="111.00" x2="568.33" y2="96.00" stroke="#009900" stroke-opacity="0.10" stroke-width="1.00" stroke-linejoin="round" />
		<line x1="324.22" y1="96.00" x2="568.33" y2="96.00" stroke="#009900" stroke-opacity="0.10" stroke-width="1.00" stroke-linejoin="round" />
		<polygon fill="#a5d1a5" shape-rendering="crispEdges" points="460.01,98.00 460.01,109.00 459.01,109.00 459.01,98.00 " />
		<polygon fill="#1e8c1e" shape-rendering="crispEdges" points="460.16,98.00 460.16,109.00 459.16,109.00 459.16,98.00 " />
		<polygon fill="#77b977" shape-rendering="crispEdges" points="460.39,98.00 460.39,109.00 459.39,109.00 459.39,98.00 " />
		<line x1="459.99" y1="103.50" x2="462.69" y2="103.50" stroke="#4ba34b" stroke-width="2.00" />
		<polygon fill="#77b977" shape-rendering="crispEdges" points="463.25,98.00 463.25,109.00 462.25,109.00 462.25,98.00 " />
		<line x1="462.81" y1="103.50" x2="468.13" y2="103.50" stroke="#4ba34b" stroke-width="2.00" />
		<polygon fill="#77b977" shape-rendering="crispEdges" points="468.78,98.00 468.78,109.00 467.78,109.00 467.78,98.00 " />
		<line x1="468.42" y1="103.50" x2="471.41" y2="103.50" stroke="#4ba34b" stroke-width="2.00" />
		<polygon fill="#77b977" shape-rendering="crispEdges" points="472.05,98.00 472.05,109.00 471.05,109.00 471.05,98.00 " />
		<line x1="471.69" y1="103.50" x2="504.34" y2="103.50" stroke="#4ba34b" stroke-width="2.00" />
		<polygon fill="#b2b2b2" shape-rendering="crispEdges" points="492.41,103.50 483.61,99.10 485.81,103.50 483.61,107.90 " />
		<polygon fill="#77b977" shape-rendering="crispEdges" points="505.02,98.00 505.02,109.00 504.02,109.00 504.02,98.00 " />
		<line x1="504.70" y1="103.50" x2="506.61" y2="103.50" stroke="#4ba34b" stroke-width="2.00" />
		<polygon fill="#77b977" shape-rendering="crispEdges" points="507.23,98.00 507.23,109.00 506.23,109.00 506.23,98.00 " />
		<line x1="506.86" y1="103.50" x2="543.12" y2="103.50" stroke="#4ba34b" stroke-width="2.00" />
		<polygon fill="#b2b2b2" shape-rendering="crispEdges" points="529.39,103.50 520.59,99.10 522.79,103.50 520.59,107.90 " />
		<polygon fill="#77b977" shape-rendering="crispEdges" points="543.78,98.00 543.78,109.00 542.78,109.00 542.78,98.00 " />
		<line x1="543.45" y1="103.50" x2="544.76" y2="103.50" stroke="#4ba34b" stroke-width="2.00" />
		<polygon fill="#77b977" shape-rendering="crispEdges" points="545.44,98.00 545.44,109.00 544.44,109.00 544.44,98.00 " />
		<line x1="545.13" y1="103.50" x2="546.16" y2="103.50" stroke="#4ba34b" stroke-width="2.00" />
		<polygon fill="#77b977" shape-rendering="crispEdges" points="546.76,98.00 546.76,109.00 545.76,109.00 545.76,98.00 " />
		<line x1="546.36" y1="103.50" x2="551.69" y2="103.50" stroke="#4ba34b" stroke-width="2.00" />
		<polygon fill="#77b977" shape-rendering="crispEdges" points="552.34,98.00 552.34,109.00 551.34,109.00 551.34,98.00 " />
		<line x1="551.99" y1="103.50" x2="555.35" y2="103.50" stroke="#4ba34b" stroke-width="2.00" />
		<polygon fill="#77b977" shape-rendering="crispEdges" points="555.93,98.00 555.93,109.00 554.93,109.00 554.93,98.00 " />
		<polygon fill="#1e8c1e" shape-rendering="crispEdges" points="556.71,98.00 556.71,109.00 555.50,109.00 555.50,98.00 " />
		<polygon fill="#77b977" shape-rendering="crispEdges" points="557.25,98.00 557.25,109.00 556.25,109.00 556.25,98.00 " />
		<line x1="556.78" y1="103.50" x2="559.23" y2="103.50" stroke="#4ba34b" stroke-width="2.00" />
		<polygon fill="#77b977" shape-rendering="crispEdges" points="559.85,98.00 559.85,109.00 558.85,109.00 558.85,98.00 " />
		<line x1="559.47" y1="103.50" x2="560.20" y2="103.50" stroke="#4ba34b" stroke-width="2.00" />
		<polygon fill="#1e8c1e" shape-rendering="crispEdges" points="560.79,98.00 560.79,109.00 559.79,109.00 559.79,98.00 " />
		<line x1="560.38" y1="103.50" x2="562.29" y2="103.50" stroke="#4ba34b" stroke-width="2.00" />
		<polygon fill="#1e8c1e" shape-rendering="crispEdges" points="562.96,98.00 562.96,109.00 561.96,109.00 561.96,98.00 " />
		<polygon fill="#a5d1a5" shape-rendering="crispEdges" points="566.33,98.00 566.33,109.00 562.64,109.00 562.64,98.00 " />
		<polygon fill="#ffffff" shape-rendering="crispEdges" points="459.47,109.00 459.47,98.00 327.22,98.00 327.22,109.00 " />
		<text x="327.22" y="107.00" font-family="Helvetica" font-size="10" fill="#124d94" >ENSSPUG00000017737 [+4]</text>
		<polygon fill="url('#gradient2')" shape-rendering="crispEdges" points="0.00,58.00 879.00,58.00 879.00,44.00 0.00,44.00 " clip-path="url('#clipping-rect2')" />
		<text x="0.00" y="54.00" font-family="Helvetica" font-size="12" fill="#333333" >Genes, Ensembl release 114</text>
		<polygon fill="#0000ff" fill-opacity="0.20" shape-rendering="crispEdges" points="564.50,23.10 564.50,31.50 459.50,31.50 459.50,23.10 " />
		<line x1="459.50" y1="30.50" x2="459.50" y2="23.10" stroke="#0000ff" stroke-opacity="0.40" stroke-width="1.00" />
		<line x1="564.50" y1="30.50" x2="564.50" y2="23.10" stroke="#0000ff" stroke-opacity="0.40" stroke-width="1.00" />
		<polygon fill="#0000ff" shape-rendering="crispEdges" points="453.79,22.35 453.50,20.50 453.79,18.65 454.65,16.97 455.97,15.65 457.65,14.79 459.50,14.50 459.50,26.50 457.65,26.21 455.97,25.35 454.65,24.03 " />
		<polygon fill="#0000ff" fill-opacity="0.60" shape-rendering="crispEdges" points="495.98,26.50 495.98,14.50 459.50,14.50 459.50,26.50 " />
		<text x="461.50" y="23.50" font-family="Helvetica" font-size="10" fill="#ffffff" >NOLC1</text>
		<polygon fill="#0000ff" fill-opacity="0.20" shape-rendering="crispEdges" points="564.64,31.00 564.64,116.01 459.52,116.01 459.52,31.00 " />
		<line x1="459.52" y1="115.00" x2="459.52" y2="31.00" stroke="#0000ff" stroke-opacity="0.40" stroke-width="1.00" />
		<line x1="564.64" y1="115.00" x2="564.64" y2="31.00" stroke="#0000ff" stroke-opacity="0.40" stroke-width="1.00" />
		<polygon fill="#0000ff" fill-opacity="0.20" shape-rendering="crispEdges" points="247.50,31.50 247.50,23.10 247.50,23.10 " />
		<polygon fill="#0000ff" fill-opacity="0.20" shape-rendering="crispEdges" points="247.50,31.50 247.50,31.50 247.50,23.10 " />
		<line x1="247.50" y1="30.50" x2="247.50" y2="23.10" stroke="#0000ff" stroke-opacity="0.40" stroke-width="1.00" />
		<line x1="247.50" y1="30.50" x2="247.50" y2="23.10" stroke="#0000ff" stroke-opacity="0.40" stroke-width="1.00" />
		<polygon fill="#0000ff" shape-rendering="crispEdges" points="241.79,22.35 241.50,20.50 241.79,18.65 242.65,16.97 243.97,15.65 245.65,14.79 247.50,14.50 247.50,26.50 245.65,26.21 243.97,25.35 242.65,24.03 " />
		<polygon fill="#0000ff" fill-opacity="0.60" shape-rendering="crispEdges" points="291.09,26.50 291.09,14.50 247.50,14.50 247.50,26.50 " />
		<text x="249.50" y="23.50" font-family="Helvetica" font-size="10" fill="#ffffff" >PIK3AP1</text>
		<polygon fill="#0000ff" fill-opacity="0.20" shape-rendering="crispEdges" points="247.28,116.01 247.28,31.00 247.28,31.00 " />
		<polygon fill="#0000ff" fill-opacity="0.20" shape-rendering="crispEdges" points="247.28,116.01 247.28,116.01 247.28,31.00 " />
		<line x1="247.28" y1="115.00" x2="247.28" y2="31.00" stroke="#0000ff" stroke-opacity="0.40" stroke-width="1.00" />
		<line x1="247.28" y1="115.00" x2="247.28" y2="31.00" stroke="#0000ff" stroke-opacity="0.40" stroke-width="1.00" />
		<polygon fill="#e5e5e5" shape-rendering="crispEdges" points="879.00,13.00 879.00,-1.00 0.00,-1.00 0.00,13.00 " />
		<text x="0.00" y="10.00" font-family="Helvetica Bold" font-size="12" text-anchor="start" fill="#000000" >QEPC01002445.1:4084952..4487234 Sphenodon punctatus isolate mauimua-1 ScrUdWx_517, whole genome shotgun sequence</text>
	</g>
</svg>
