<?xml version="1.0" standalone="no" ?>
<!DOCTYPE svg PUBLIC "-//W3C//DTD SVG 1.1//EN" "http://www.w3.org/Graphics/SVG/1.1/DTD/svg11.dtd">
<svg width="879px" height="128px" xmlns="http://www.w3.org/2000/svg" version="1.1" viewBox="0 0 879 128" >
	<style type="text/css" > <![CDATA[
		@import url("https://www.ncbi.nlm.nih.gov/projects/sviewer/css/svg_fonts.css");
	]]>
	</style>
	<desc >Generated by NCBI Genome Workbench http://www.ncbi.nlm.nih.gov/tools/gbench/</desc>
	<defs >
		<clipPath id="clipping-rect1" >
			<rect x="0" y="14" width="879" height="18" />
		</clipPath>
		<linearGradient id="gradient1" gradientTransform="rotate(90)" >
			<stop offset="0%" stop-color="#6c6c6c" />
			<stop offset="50%" stop-color="#b5b5b5" />
			<stop offset="100%" stop-color="#6c6c6c" />
		</linearGradient>
		<clipPath id="clipping-rect2" >
			<rect x="0" y="32" width="879" height="96" />
		</clipPath>
		<linearGradient id="gradient2" gradientTransform="rotate(90)" >
			<stop offset="0%" stop-color="#b6dead" />
			<stop offset="100%" stop-color="#ffffff" stop-opacity="0.00" />
		</linearGradient>
		<linearGradient id="gradient3" gradientTransform="rotate(90)" >
			<stop offset="0%" stop-color="#e6e6e6" stop-opacity="0.71" />
			<stop offset="100%" stop-color="#ffffff" stop-opacity="0.00" />
		</linearGradient>
	</defs>
	<g >
		<polygon fill="#ffffff" shape-rendering="crispEdges" points="879.00,31.00 879.00,13.00 0.00,13.00 0.00,31.00 " />
		<line x1="0.00" y1="28.88" x2="879.00" y2="28.88" stroke="#7f7f7f" stroke-width="1.00" clip-path="url('#clipping-rect1')" />
		<line x1="2.55" y1="28.88" x2="2.55" y2="25.71" stroke="#7f7f7f" stroke-width="1.00" clip-path="url('#clipping-rect1')" />
		<line x1="14.49" y1="28.88" x2="14.49" y2="26.76" stroke="#7f7f7f" stroke-width="1.00" clip-path="url('#clipping-rect1')" />
		<line x1="26.42" y1="28.88" x2="26.42" y2="25.71" stroke="#7f7f7f" stroke-width="1.00" clip-path="url('#clipping-rect1')" />
		<line x1="38.36" y1="28.88" x2="38.36" y2="26.76" stroke="#7f7f7f" stroke-width="1.00" clip-path="url('#clipping-rect1')" />
		<line x1="50.29" y1="28.88" x2="50.29" y2="25.71" stroke="#7f7f7f" stroke-width="1.00" clip-path="url('#clipping-rect1')" />
		<line x1="62.22" y1="28.88" x2="62.22" y2="26.76" stroke="#7f7f7f" stroke-width="1.00" clip-path="url('#clipping-rect1')" />
		<line x1="74.16" y1="28.88" x2="74.16" y2="25.71" stroke="#7f7f7f" stroke-width="1.00" clip-path="url('#clipping-rect1')" />
		<line x1="86.09" y1="28.88" x2="86.09" y2="26.76" stroke="#7f7f7f" stroke-width="1.00" clip-path="url('#clipping-rect1')" />
		<line x1="98.02" y1="28.88" x2="98.02" y2="25.71" stroke="#7f7f7f" stroke-width="1.00" clip-path="url('#clipping-rect1')" />
		<line x1="109.96" y1="28.88" x2="109.96" y2="26.76" stroke="#7f7f7f" stroke-width="1.00" clip-path="url('#clipping-rect1')" />
		<line x1="121.89" y1="28.88" x2="121.89" y2="25.71" stroke="#7f7f7f" stroke-width="1.00" clip-path="url('#clipping-rect1')" />
		<line x1="133.82" y1="28.88" x2="133.82" y2="26.76" stroke="#7f7f7f" stroke-width="1.00" clip-path="url('#clipping-rect1')" />
		<line x1="145.76" y1="28.88" x2="145.76" y2="25.71" stroke="#7f7f7f" stroke-width="1.00" clip-path="url('#clipping-rect1')" />
		<line x1="157.69" y1="28.88" x2="157.69" y2="26.76" stroke="#7f7f7f" stroke-width="1.00" clip-path="url('#clipping-rect1')" />
		<line x1="169.62" y1="28.88" x2="169.62" y2="25.71" stroke="#7f7f7f" stroke-width="1.00" clip-path="url('#clipping-rect1')" />
		<line x1="181.56" y1="28.88" x2="181.56" y2="26.76" stroke="#7f7f7f" stroke-width="1.00" clip-path="url('#clipping-rect1')" />
		<line x1="193.49" y1="28.88" x2="193.49" y2="25.71" stroke="#7f7f7f" stroke-width="1.00" clip-path="url('#clipping-rect1')" />
		<line x1="205.42" y1="28.88" x2="205.42" y2="26.76" stroke="#7f7f7f" stroke-width="1.00" clip-path="url('#clipping-rect1')" />
		<line x1="217.36" y1="28.88" x2="217.36" y2="25.71" stroke="#7f7f7f" stroke-width="1.00" clip-path="url('#clipping-rect1')" />
		<line x1="229.29" y1="28.88" x2="229.29" y2="26.76" stroke="#7f7f7f" stroke-width="1.00" clip-path="url('#clipping-rect1')" />
		<line x1="241.23" y1="28.88" x2="241.23" y2="25.71" stroke="#7f7f7f" stroke-width="1.00" clip-path="url('#clipping-rect1')" />
		<line x1="253.16" y1="28.88" x2="253.16" y2="26.76" stroke="#7f7f7f" stroke-width="1.00" clip-path="url('#clipping-rect1')" />
		<line x1="265.09" y1="28.88" x2="265.09" y2="25.71" stroke="#7f7f7f" stroke-width="1.00" clip-path="url('#clipping-rect1')" />
		<line x1="277.03" y1="28.88" x2="277.03" y2="26.76" stroke="#7f7f7f" stroke-width="1.00" clip-path="url('#clipping-rect1')" />
		<line x1="288.96" y1="28.88" x2="288.96" y2="25.71" stroke="#7f7f7f" stroke-width="1.00" clip-path="url('#clipping-rect1')" />
		<line x1="300.89" y1="28.88" x2="300.89" y2="26.76" stroke="#7f7f7f" stroke-width="1.00" clip-path="url('#clipping-rect1')" />
		<line x1="312.83" y1="28.88" x2="312.83" y2="25.71" stroke="#7f7f7f" stroke-width="1.00" clip-path="url('#clipping-rect1')" />
		<line x1="324.76" y1="28.88" x2="324.76" y2="26.76" stroke="#7f7f7f" stroke-width="1.00" clip-path="url('#clipping-rect1')" />
		<line x1="336.69" y1="28.88" x2="336.69" y2="25.71" stroke="#7f7f7f" stroke-width="1.00" clip-path="url('#clipping-rect1')" />
		<line x1="348.63" y1="28.88" x2="348.63" y2="26.76" stroke="#7f7f7f" stroke-width="1.00" clip-path="url('#clipping-rect1')" />
		<line x1="360.56" y1="28.88" x2="360.56" y2="25.71" stroke="#7f7f7f" stroke-width="1.00" clip-path="url('#clipping-rect1')" />
		<line x1="372.49" y1="28.88" x2="372.49" y2="26.76" stroke="#7f7f7f" stroke-width="1.00" clip-path="url('#clipping-rect1')" />
		<line x1="384.43" y1="28.88" x2="384.43" y2="25.71" stroke="#7f7f7f" stroke-width="1.00" clip-path="url('#clipping-rect1')" />
		<line x1="396.36" y1="28.88" x2="396.36" y2="26.76" stroke="#7f7f7f" stroke-width="1.00" clip-path="url('#clipping-rect1')" />
		<line x1="408.30" y1="28.88" x2="408.30" y2="25.71" stroke="#7f7f7f" stroke-width="1.00" clip-path="url('#clipping-rect1')" />
		<line x1="420.23" y1="28.88" x2="420.23" y2="26.76" stroke="#7f7f7f" stroke-width="1.00" clip-path="url('#clipping-rect1')" />
		<line x1="432.16" y1="28.88" x2="432.16" y2="25.71" stroke="#7f7f7f" stroke-width="1.00" clip-path="url('#clipping-rect1')" />
		<line x1="444.10" y1="28.88" x2="444.10" y2="26.76" stroke="#7f7f7f" stroke-width="1.00" clip-path="url('#clipping-rect1')" />
		<line x1="456.03" y1="28.88" x2="456.03" y2="25.71" stroke="#7f7f7f" stroke-width="1.00" clip-path="url('#clipping-rect1')" />
		<line x1="467.96" y1="28.88" x2="467.96" y2="26.76" stroke="#7f7f7f" stroke-width="1.00" clip-path="url('#clipping-rect1')" />
		<line x1="479.90" y1="28.88" x2="479.90" y2="25.71" stroke="#7f7f7f" stroke-width="1.00" clip-path="url('#clipping-rect1')" />
		<line x1="491.83" y1="28.88" x2="491.83" y2="26.76" stroke="#7f7f7f" stroke-width="1.00" clip-path="url('#clipping-rect1')" />
		<line x1="503.76" y1="28.88" x2="503.76" y2="25.71" stroke="#7f7f7f" stroke-width="1.00" clip-path="url('#clipping-rect1')" />
		<line x1="515.70" y1="28.88" x2="515.70" y2="26.76" stroke="#7f7f7f" stroke-width="1.00" clip-path="url('#clipping-rect1')" />
		<line x1="527.63" y1="28.88" x2="527.63" y2="25.71" stroke="#7f7f7f" stroke-width="1.00" clip-path="url('#clipping-rect1')" />
		<line x1="539.56" y1="28.88" x2="539.56" y2="26.76" stroke="#7f7f7f" stroke-width="1.00" clip-path="url('#clipping-rect1')" />
		<line x1="551.50" y1="28.88" x2="551.50" y2="25.71" stroke="#7f7f7f" stroke-width="1.00" clip-path="url('#clipping-rect1')" />
		<line x1="563.43" y1="28.88" x2="563.43" y2="26.76" stroke="#7f7f7f" stroke-width="1.00" clip-path="url('#clipping-rect1')" />
		<line x1="575.36" y1="28.88" x2="575.36" y2="25.71" stroke="#7f7f7f" stroke-width="1.00" clip-path="url('#clipping-rect1')" />
		<line x1="587.30" y1="28.88" x2="587.30" y2="26.76" stroke="#7f7f7f" stroke-width="1.00" clip-path="url('#clipping-rect1')" />
		<line x1="599.23" y1="28.88" x2="599.23" y2="25.71" stroke="#7f7f7f" stroke-width="1.00" clip-path="url('#clipping-rect1')" />
		<line x1="611.17" y1="28.88" x2="611.17" y2="26.76" stroke="#7f7f7f" stroke-width="1.00" clip-path="url('#clipping-rect1')" />
		<line x1="623.10" y1="28.88" x2="623.10" y2="25.71" stroke="#7f7f7f" stroke-width="1.00" clip-path="url('#clipping-rect1')" />
		<line x1="635.03" y1="28.88" x2="635.03" y2="26.76" stroke="#7f7f7f" stroke-width="1.00" clip-path="url('#clipping-rect1')" />
		<line x1="646.97" y1="28.88" x2="646.97" y2="25.71" stroke="#7f7f7f" stroke-width="1.00" clip-path="url('#clipping-rect1')" />
		<line x1="658.90" y1="28.88" x2="658.90" y2="26.76" stroke="#7f7f7f" stroke-width="1.00" clip-path="url('#clipping-rect1')" />
		<line x1="670.83" y1="28.88" x2="670.83" y2="25.71" stroke="#7f7f7f" stroke-width="1.00" clip-path="url('#clipping-rect1')" />
		<line x1="682.77" y1="28.88" x2="682.77" y2="26.76" stroke="#7f7f7f" stroke-width="1.00" clip-path="url('#clipping-rect1')" />
		<line x1="694.70" y1="28.88" x2="694.70" y2="25.71" stroke="#7f7f7f" stroke-width="1.00" clip-path="url('#clipping-rect1')" />
		<line x1="706.63" y1="28.88" x2="706.63" y2="26.76" stroke="#7f7f7f" stroke-width="1.00" clip-path="url('#clipping-rect1')" />
		<line x1="718.57" y1="28.88" x2="718.57" y2="25.71" stroke="#7f7f7f" stroke-width="1.00" clip-path="url('#clipping-rect1')" />
		<line x1="730.50" y1="28.88" x2="730.50" y2="26.76" stroke="#7f7f7f" stroke-width="1.00" clip-path="url('#clipping-rect1')" />
		<line x1="742.43" y1="28.88" x2="742.43" y2="25.71" stroke="#7f7f7f" stroke-width="1.00" clip-path="url('#clipping-rect1')" />
		<line x1="754.37" y1="28.88" x2="754.37" y2="26.76" stroke="#7f7f7f" stroke-width="1.00" clip-path="url('#clipping-rect1')" />
		<line x1="766.30" y1="28.88" x2="766.30" y2="25.71" stroke="#7f7f7f" stroke-width="1.00" clip-path="url('#clipping-rect1')" />
		<line x1="778.23" y1="28.88" x2="778.23" y2="26.76" stroke="#7f7f7f" stroke-width="1.00" clip-path="url('#clipping-rect1')" />
		<line x1="790.17" y1="28.88" x2="790.17" y2="25.71" stroke="#7f7f7f" stroke-width="1.00" clip-path="url('#clipping-rect1')" />
		<line x1="802.10" y1="28.88" x2="802.10" y2="26.76" stroke="#7f7f7f" stroke-width="1.00" clip-path="url('#clipping-rect1')" />
		<line x1="814.04" y1="28.88" x2="814.04" y2="25.71" stroke="#7f7f7f" stroke-width="1.00" clip-path="url('#clipping-rect1')" />
		<line x1="825.97" y1="28.88" x2="825.97" y2="26.76" stroke="#7f7f7f" stroke-width="1.00" clip-path="url('#clipping-rect1')" />
		<line x1="837.90" y1="28.88" x2="837.90" y2="25.71" stroke="#7f7f7f" stroke-width="1.00" clip-path="url('#clipping-rect1')" />
		<line x1="849.84" y1="28.88" x2="849.84" y2="26.76" stroke="#7f7f7f" stroke-width="1.00" clip-path="url('#clipping-rect1')" />
		<line x1="861.77" y1="28.88" x2="861.77" y2="25.71" stroke="#7f7f7f" stroke-width="1.00" clip-path="url('#clipping-rect1')" />
		<line x1="873.70" y1="28.88" x2="873.70" y2="26.76" stroke="#7f7f7f" stroke-width="1.00" clip-path="url('#clipping-rect1')" />
		<text x="768.30" y="23.59" font-family="Helvetica" font-size="10" fill="#333333" clip-path="url('#clipping-rect1')" >4,550 K</text>
		<line x1="766.30" y1="31.00" x2="766.30" y2="15.12" stroke="#7f7f7f" stroke-width="1.00" clip-path="url('#clipping-rect1')" />
		<text x="648.97" y="23.59" font-family="Helvetica" font-size="10" fill="#333333" clip-path="url('#clipping-rect1')" >4,500 K</text>
		<line x1="646.97" y1="31.00" x2="646.97" y2="15.12" stroke="#7f7f7f" stroke-width="1.00" clip-path="url('#clipping-rect1')" />
		<text x="529.63" y="23.59" font-family="Helvetica" font-size="10" fill="#333333" clip-path="url('#clipping-rect1')" >4,450 K</text>
		<line x1="527.63" y1="31.00" x2="527.63" y2="15.12" stroke="#7f7f7f" stroke-width="1.00" clip-path="url('#clipping-rect1')" />
		<text x="410.29" y="23.59" font-family="Helvetica" font-size="10" fill="#333333" clip-path="url('#clipping-rect1')" >4,400 K</text>
		<line x1="408.30" y1="31.00" x2="408.30" y2="15.12" stroke="#7f7f7f" stroke-width="1.00" clip-path="url('#clipping-rect1')" />
		<text x="290.96" y="23.59" font-family="Helvetica" font-size="10" fill="#333333" clip-path="url('#clipping-rect1')" >4,350 K</text>
		<line x1="288.96" y1="31.00" x2="288.96" y2="15.12" stroke="#7f7f7f" stroke-width="1.00" clip-path="url('#clipping-rect1')" />
		<text x="171.62" y="23.59" font-family="Helvetica" font-size="10" fill="#333333" clip-path="url('#clipping-rect1')" >4,300 K</text>
		<line x1="169.62" y1="31.00" x2="169.62" y2="15.12" stroke="#7f7f7f" stroke-width="1.00" clip-path="url('#clipping-rect1')" />
		<text x="52.29" y="23.59" font-family="Helvetica" font-size="10" fill="#333333" clip-path="url('#clipping-rect1')" >4,250 K</text>
		<line x1="50.29" y1="31.00" x2="50.29" y2="15.12" stroke="#7f7f7f" stroke-width="1.00" clip-path="url('#clipping-rect1')" />
		<line x1="50.06" y1="127.00" x2="50.06" y2="31.00" stroke="#ebebeb" stroke-width="1.00" />
		<line x1="169.19" y1="127.00" x2="169.19" y2="31.00" stroke="#ebebeb" stroke-width="1.00" />
		<line x1="288.33" y1="127.00" x2="288.33" y2="31.00" stroke="#ebebeb" stroke-width="1.00" />
		<line x1="408.46" y1="127.00" x2="408.46" y2="31.00" stroke="#ebebeb" stroke-width="1.00" />
		<line x1="527.60" y1="127.00" x2="527.60" y2="31.00" stroke="#ebebeb" stroke-width="1.00" />
		<line x1="646.74" y1="127.00" x2="646.74" y2="31.00" stroke="#ebebeb" stroke-width="1.00" />
		<line x1="766.87" y1="127.00" x2="766.87" y2="31.00" stroke="#ebebeb" stroke-width="1.00" />
		<polygon fill="url('#gradient1')" shape-rendering="crispEdges" points="879.00,37.50 879.00,33.00 0.00,33.00 0.00,37.50 0.00,42.00 879.00,42.00 " />
		<line x1="0.00" y1="42.00" x2="0.00" y2="33.00" stroke="#6c6c6c" stroke-width="1.00" stroke-linejoin="round" />
		<line x1="0.00" y1="33.00" x2="879.00" y2="33.00" stroke="#6c6c6c" stroke-width="1.00" stroke-linejoin="round" />
		<line x1="879.00" y1="33.00" x2="879.00" y2="42.00" stroke="#6c6c6c" stroke-width="1.00" stroke-linejoin="round" />
		<line x1="0.00" y1="42.00" x2="879.00" y2="42.00" stroke="#6c6c6c" stroke-width="1.00" stroke-linejoin="round" />
		<polygon fill="url('#gradient2')" shape-rendering="crispEdges" points="0.00,58.00 879.00,58.00 879.00,44.00 0.00,44.00 " clip-path="url('#clipping-rect2')" />
		<text x="0.00" y="54.00" font-family="Helvetica" font-size="12" fill="#333333" >(U) Alignment for group templates, BLAST Results for: XM_011543892:PREDICTED: Homo sapiens DEAD-box...</text>
		<polygon fill="url('#gradient2')" shape-rendering="crispEdges" points="0.00,74.00 879.00,74.00 879.00,60.00 0.00,60.00 " clip-path="url('#clipping-rect2')" />
		<text x="0.00" y="70.00" font-family="Helvetica" font-size="12" fill="#333333" >(U) BLAST Results for: XM_011543892:PREDICTED: Homo sapiens DEAD-box...</text>
		<line x1="0.00" y1="95.00" x2="0.00" y2="123.00" stroke="#009900" stroke-opacity="0.10" stroke-width="1.00" stroke-linejoin="round" />
		<line x1="0.00" y1="123.00" x2="355.26" y2="123.00" stroke="#009900" stroke-opacity="0.10" stroke-width="1.00" stroke-linejoin="round" />
		<line x1="355.26" y1="123.00" x2="355.26" y2="95.00" stroke="#009900" stroke-opacity="0.10" stroke-width="1.00" stroke-linejoin="round" />
		<line x1="0.00" y1="95.00" x2="355.26" y2="95.00" stroke="#009900" stroke-opacity="0.10" stroke-width="1.00" stroke-linejoin="round" />
		<text x="-2.37" y="104.00" font-family="Helvetica" font-size="10" fill="#124d94" >ENSSPUG00000016771</text>
		<line x1="0.00" y1="115.50" x2="137.66" y2="115.50" stroke="#4ba34b" stroke-width="2.00" />
		<polygon fill="#b2b2b2" shape-rendering="crispEdges" points="23.23,115.50 14.43,111.10 16.63,115.50 14.43,119.90 " />
		<polygon fill="#9d9d9d" shape-rendering="crispEdges" points="123.23,115.50 114.43,111.10 116.63,115.50 114.43,119.90 " />
		<polygon fill="#1e8c1e" shape-rendering="crispEdges" points="138.56,110.00 138.56,121.00 137.56,121.00 137.56,110.00 " />
		<line x1="138.46" y1="115.50" x2="233.50" y2="115.50" stroke="#4ba34b" stroke-width="2.00" />
		<polygon fill="#b2b2b2" shape-rendering="crispEdges" points="190.38,115.50 181.58,111.10 183.78,115.50 181.58,119.90 " />
		<polygon fill="#1e8c1e" shape-rendering="crispEdges" points="234.22,110.00 234.22,121.00 233.22,121.00 233.22,110.00 " />
		<polygon fill="#ffffff" shape-rendering="crispEdges" points="118.77,121.00 118.77,110.00 1.00,110.00 1.00,121.00 " />
		<text x="1.00" y="119.00" font-family="Helvetica" font-size="10" fill="#124d94" >ENSSPUT00000023290.1</text>
		<polygon fill="#ffffff" shape-rendering="crispEdges" points="353.26,121.00 353.26,110.00 237.93,110.00 237.93,121.00 " />
		<text x="237.93" y="119.00" font-family="Helvetica" font-size="10" fill="#124d94" >ENSSPUP00000021860.1</text>
		<line x1="469.73" y1="95.00" x2="469.73" y2="123.00" stroke="#009900" stroke-opacity="0.10" stroke-width="1.00" stroke-linejoin="round" />
		<line x1="469.73" y1="123.00" x2="879.00" y2="123.00" stroke="#009900" stroke-opacity="0.10" stroke-width="1.00" stroke-linejoin="round" />
		<line x1="879.00" y1="123.00" x2="879.00" y2="95.00" stroke="#009900" stroke-opacity="0.10" stroke-width="1.00" stroke-linejoin="round" />
		<line x1="469.73" y1="95.00" x2="879.00" y2="95.00" stroke="#009900" stroke-opacity="0.10" stroke-width="1.00" stroke-linejoin="round" />
		<text x="622.70" y="104.00" font-family="Helvetica" font-size="10" fill="#124d94" >ENSSPUG00000016779</text>
		<polygon fill="#1e8c1e" shape-rendering="crispEdges" points="591.14,110.00 591.14,121.00 590.14,121.00 590.14,110.00 " />
		<line x1="590.79" y1="115.50" x2="594.43" y2="115.50" stroke="#4ba34b" stroke-width="2.00" />
		<polygon fill="#1e8c1e" shape-rendering="crispEdges" points="595.05,110.00 595.05,121.00 594.05,121.00 594.05,110.00 " />
		<line x1="594.67" y1="115.50" x2="648.06" y2="115.50" stroke="#4ba34b" stroke-width="2.00" />
		<polygon fill="#b2b2b2" shape-rendering="crispEdges" points="625.76,115.50 616.96,111.10 619.16,115.50 616.96,119.90 " />
		<polygon fill="#1e8c1e" shape-rendering="crispEdges" points="648.64,110.00 648.64,121.00 647.64,121.00 647.64,110.00 " />
		<line x1="648.22" y1="115.50" x2="655.93" y2="115.50" stroke="#4ba34b" stroke-width="2.00" />
		<polygon fill="#1e8c1e" shape-rendering="crispEdges" points="656.62,110.00 656.62,121.00 655.62,121.00 655.62,110.00 " />
		<line x1="656.31" y1="115.50" x2="658.90" y2="115.50" stroke="#4ba34b" stroke-width="2.00" />
		<polygon fill="#1e8c1e" shape-rendering="crispEdges" points="659.60,110.00 659.60,121.00 658.60,121.00 658.60,110.00 " />
		<line x1="659.29" y1="115.50" x2="662.50" y2="115.50" stroke="#4ba34b" stroke-width="2.00" />
		<polygon fill="#1e8c1e" shape-rendering="crispEdges" points="663.18,110.00 663.18,121.00 662.18,121.00 662.18,110.00 " />
		<line x1="662.86" y1="115.50" x2="667.36" y2="115.50" stroke="#4ba34b" stroke-width="2.00" />
		<polygon fill="#1e8c1e" shape-rendering="crispEdges" points="668.03,110.00 668.03,121.00 667.03,121.00 667.03,110.00 " />
		<line x1="667.70" y1="115.50" x2="676.47" y2="115.50" stroke="#4ba34b" stroke-width="2.00" />
		<polygon fill="#1e8c1e" shape-rendering="crispEdges" points="677.22,110.00 677.22,121.00 676.22,121.00 676.22,110.00 " />
		<line x1="676.97" y1="115.50" x2="682.62" y2="115.50" stroke="#4ba34b" stroke-width="2.00" />
		<polygon fill="#1e8c1e" shape-rendering="crispEdges" points="683.28,110.00 683.28,121.00 682.28,121.00 682.28,110.00 " />
		<line x1="682.94" y1="115.50" x2="685.23" y2="115.50" stroke="#4ba34b" stroke-width="2.00" />
		<polygon fill="#1e8c1e" shape-rendering="crispEdges" points="685.91,110.00 685.91,121.00 684.91,121.00 684.91,110.00 " />
		<line x1="685.59" y1="115.50" x2="686.72" y2="115.50" stroke="#4ba34b" stroke-width="2.00" />
		<polygon fill="#1e8c1e" shape-rendering="crispEdges" points="687.38,110.00 687.38,121.00 686.38,121.00 686.38,110.00 " />
		<line x1="687.05" y1="115.50" x2="697.20" y2="115.50" stroke="#4ba34b" stroke-width="2.00" />
		<polygon fill="#1e8c1e" shape-rendering="crispEdges" points="697.86,110.00 697.86,121.00 696.86,121.00 696.86,110.00 " />
		<line x1="697.51" y1="115.50" x2="705.36" y2="115.50" stroke="#4ba34b" stroke-width="2.00" />
		<polygon fill="#1e8c1e" shape-rendering="crispEdges" points="706.02,110.00 706.02,121.00 705.02,121.00 705.02,110.00 " />
		<line x1="705.67" y1="115.50" x2="707.70" y2="115.50" stroke="#4ba34b" stroke-width="2.00" />
		<polygon fill="#1e8c1e" shape-rendering="crispEdges" points="708.32,110.00 708.32,121.00 707.32,121.00 707.32,110.00 " />
		<line x1="707.94" y1="115.50" x2="709.27" y2="115.50" stroke="#4ba34b" stroke-width="2.00" />
		<polygon fill="#1e8c1e" shape-rendering="crispEdges" points="709.85,110.00 709.85,121.00 708.85,121.00 708.85,110.00 " />
		<line x1="709.43" y1="115.50" x2="713.28" y2="115.50" stroke="#4ba34b" stroke-width="2.00" />
		<polygon fill="#1e8c1e" shape-rendering="crispEdges" points="713.83,110.00 713.83,121.00 712.83,121.00 712.83,110.00 " />
		<line x1="713.39" y1="115.50" x2="735.14" y2="115.50" stroke="#4ba34b" stroke-width="2.00" />
		<polygon fill="#b2b2b2" shape-rendering="crispEdges" points="728.66,115.50 719.86,111.10 722.06,115.50 719.86,119.90 " />
		<polygon fill="#1e8c1e" shape-rendering="crispEdges" points="735.75,110.00 735.75,121.00 734.75,121.00 734.75,110.00 " />
		<line x1="735.37" y1="115.50" x2="738.36" y2="115.50" stroke="#4ba34b" stroke-width="2.00" />
		<polygon fill="#1e8c1e" shape-rendering="crispEdges" points="738.97,110.00 738.97,121.00 737.97,121.00 737.97,110.00 " />
		<line x1="738.58" y1="115.50" x2="755.41" y2="115.50" stroke="#4ba34b" stroke-width="2.00" />
		<polygon fill="#b2b2b2" shape-rendering="crispEdges" points="751.39,115.50 742.59,111.10 744.79,115.50 742.59,119.90 " />
		<polygon fill="#1e8c1e" shape-rendering="crispEdges" points="756.07,110.00 756.07,121.00 755.07,121.00 755.07,110.00 " />
		<line x1="755.73" y1="115.50" x2="761.48" y2="115.50" stroke="#4ba34b" stroke-width="2.00" />
		<polygon fill="#1e8c1e" shape-rendering="crispEdges" points="762.08,110.00 762.08,121.00 761.08,121.00 761.08,110.00 " />
		<line x1="761.69" y1="115.50" x2="762.92" y2="115.50" stroke="#4ba34b" stroke-width="2.00" />
		<polygon fill="#1e8c1e" shape-rendering="crispEdges" points="763.49,110.00 763.49,121.00 762.49,121.00 762.49,110.00 " />
		<polygon fill="#ffffff" shape-rendering="crispEdges" points="590.49,121.00 590.49,110.00 472.73,110.00 472.73,121.00 " />
		<text x="472.73" y="119.00" font-family="Helvetica" font-size="10" fill="#124d94" >ENSSPUT00000023316.1</text>
		<polygon fill="#ffffff" shape-rendering="crispEdges" points="879.00,121.00 879.00,110.00 763.67,110.00 763.67,121.00 " />
		<text x="763.67" y="119.00" font-family="Helvetica" font-size="10" fill="#124d94" >ENSSPUP00000021885.1</text>
		<polygon fill="url('#gradient3')" shape-rendering="crispEdges" points="0.00,90.00 879.00,90.00 879.00,76.00 0.00,76.00 " clip-path="url('#clipping-rect2')" />
		<text x="0.00" y="86.00" font-family="Helvetica" font-size="12" fill="#333333" >Genes, Ensembl release 114</text>
		<polygon fill="#0000ff" fill-opacity="0.20" shape-rendering="crispEdges" points="-2719.50,31.50 -2719.50,23.10 -2719.50,23.10 " />
		<polygon fill="#0000ff" fill-opacity="0.20" shape-rendering="crispEdges" points="-2719.50,31.50 -2719.50,31.50 -2719.50,23.10 " />
		<line x1="-2719.50" y1="30.50" x2="-2719.50" y2="23.10" stroke="#0000ff" stroke-opacity="0.40" stroke-width="1.00" />
		<line x1="-2719.50" y1="30.50" x2="-2719.50" y2="23.10" stroke="#0000ff" stroke-opacity="0.40" stroke-width="1.00" />
		<polygon fill="#0000ff" shape-rendering="crispEdges" points="-2725.21,22.35 -2725.50,20.50 -2725.21,18.65 -2724.35,16.97 -2723.03,15.65 -2721.35,14.79 -2719.50,14.50 -2719.50,26.50 -2721.35,26.21 -2723.03,25.35 -2724.35,24.03 " />
		<polygon fill="#0000ff" fill-opacity="0.60" shape-rendering="crispEdges" points="-2685.62,26.50 -2685.62,14.50 -2719.50,14.50 -2719.50,26.50 " />
		<text x="-2717.50" y="23.50" font-family="Helvetica" font-size="10" fill="#ffffff" >DIP2A</text>
		<polygon fill="#0000ff" fill-opacity="0.20" shape-rendering="crispEdges" points="-2723.10,128.01 -2723.10,31.00 -2723.10,31.00 " />
		<polygon fill="#0000ff" fill-opacity="0.20" shape-rendering="crispEdges" points="-2723.10,128.01 -2723.10,128.01 -2723.10,31.00 " />
		<line x1="-2723.10" y1="127.00" x2="-2723.10" y2="31.00" stroke="#0000ff" stroke-opacity="0.40" stroke-width="1.00" />
		<line x1="-2723.10" y1="127.00" x2="-2723.10" y2="31.00" stroke="#0000ff" stroke-opacity="0.40" stroke-width="1.00" />
		<polygon fill="#0000ff" fill-opacity="0.20" shape-rendering="crispEdges" points="50.50,31.50 50.50,23.10 50.50,23.10 " />
		<polygon fill="#0000ff" fill-opacity="0.20" shape-rendering="crispEdges" points="50.50,31.50 50.50,31.50 50.50,23.10 " />
		<line x1="50.50" y1="30.50" x2="50.50" y2="23.10" stroke="#0000ff" stroke-opacity="0.40" stroke-width="1.00" />
		<line x1="50.50" y1="30.50" x2="50.50" y2="23.10" stroke="#0000ff" stroke-opacity="0.40" stroke-width="1.00" />
		<polygon fill="#0000ff" shape-rendering="crispEdges" points="44.79,22.35 44.50,20.50 44.79,18.65 45.65,16.97 46.97,15.65 48.65,14.79 50.50,14.50 50.50,26.50 48.65,26.21 46.97,25.35 45.65,24.03 " />
		<polygon fill="#0000ff" fill-opacity="0.60" shape-rendering="crispEdges" points="88.72,26.50 88.72,14.50 50.50,14.50 50.50,26.50 " />
		<text x="52.50" y="23.50" font-family="Helvetica" font-size="10" fill="#ffffff" >TRPC4</text>
		<polygon fill="#0000ff" fill-opacity="0.20" shape-rendering="crispEdges" points="50.06,128.01 50.06,31.00 50.06,31.00 " />
		<polygon fill="#0000ff" fill-opacity="0.20" shape-rendering="crispEdges" points="50.06,128.01 50.06,128.01 50.06,31.00 " />
		<line x1="50.06" y1="127.00" x2="50.06" y2="31.00" stroke="#0000ff" stroke-opacity="0.40" stroke-width="1.00" />
		<line x1="50.06" y1="127.00" x2="50.06" y2="31.00" stroke="#0000ff" stroke-opacity="0.40" stroke-width="1.00" />
		<polygon fill="#0000ff" fill-opacity="0.20" shape-rendering="crispEdges" points="680.50,31.50 680.50,23.10 680.50,23.10 " />
		<polygon fill="#0000ff" fill-opacity="0.20" shape-rendering="crispEdges" points="680.50,31.50 680.50,31.50 680.50,23.10 " />
		<line x1="680.50" y1="30.50" x2="680.50" y2="23.10" stroke="#0000ff" stroke-opacity="0.40" stroke-width="1.00" />
		<line x1="680.50" y1="30.50" x2="680.50" y2="23.10" stroke="#0000ff" stroke-opacity="0.40" stroke-width="1.00" />
		<polygon fill="#0000ff" shape-rendering="crispEdges" points="674.79,22.35 674.50,20.50 674.79,18.65 675.65,16.97 676.97,15.65 678.65,14.79 680.50,14.50 680.50,26.50 678.65,26.21 676.97,25.35 675.65,24.03 " />
		<polygon fill="#0000ff" fill-opacity="0.60" shape-rendering="crispEdges" points="719.28,26.50 719.28,14.50 680.50,14.50 680.50,26.50 " />
		<text x="682.50" y="23.50" font-family="Helvetica" font-size="10" fill="#ffffff" >POSTN</text>
		<polygon fill="#0000ff" fill-opacity="0.20" shape-rendering="crispEdges" points="680.77,128.01 680.77,31.00 680.77,31.00 " />
		<polygon fill="#0000ff" fill-opacity="0.20" shape-rendering="crispEdges" points="680.77,128.01 680.77,128.01 680.77,31.00 " />
		<line x1="680.77" y1="127.00" x2="680.77" y2="31.00" stroke="#0000ff" stroke-opacity="0.40" stroke-width="1.00" />
		<line x1="680.77" y1="127.00" x2="680.77" y2="31.00" stroke="#0000ff" stroke-opacity="0.40" stroke-width="1.00" />
		<polygon fill="#e5e5e5" shape-rendering="crispEdges" points="879.00,13.00 879.00,-1.00 0.00,-1.00 0.00,13.00 " />
		<text x="0.00" y="10.00" font-family="Helvetica Bold" font-size="12" text-anchor="start" fill="#000000" >QEPC01008474.1:4228929..4597219 Sphenodon punctatus isolate mauimua-1 ScrUdWx_1344, whole genome shotgun sequence</text>
	</g>
</svg>
