<?xml version="1.0" standalone="no" ?>
<!DOCTYPE svg PUBLIC "-//W3C//DTD SVG 1.1//EN" "http://www.w3.org/Graphics/SVG/1.1/DTD/svg11.dtd">
<svg width="879px" height="148px" xmlns="http://www.w3.org/2000/svg" version="1.1" viewBox="0 0 879 148" >
	<style type="text/css" > <![CDATA[
		@import url("https://www.ncbi.nlm.nih.gov/projects/sviewer/css/svg_fonts.css");
	]]>
	</style>
	<desc >Generated by NCBI Genome Workbench http://www.ncbi.nlm.nih.gov/tools/gbench/</desc>
	<defs >
		<clipPath id="clipping-rect1" >
			<rect x="0" y="14" width="879" height="18" />
		</clipPath>
		<linearGradient id="gradient1" gradientTransform="rotate(90)" >
			<stop offset="0%" stop-color="#6c6c6c" />
			<stop offset="50%" stop-color="#b5b5b5" />
			<stop offset="100%" stop-color="#6c6c6c" />
		</linearGradient>
		<clipPath id="clipping-rect2" >
			<rect x="0" y="32" width="879" height="116" />
		</clipPath>
		<linearGradient id="gradient2" gradientTransform="rotate(90)" >
			<stop offset="0%" stop-color="#b6dead" />
			<stop offset="100%" stop-color="#ffffff" stop-opacity="0.00" />
		</linearGradient>
		<linearGradient id="gradient3" gradientTransform="rotate(90)" >
			<stop offset="0%" stop-color="#e6e6e6" stop-opacity="0.71" />
			<stop offset="100%" stop-color="#ffffff" stop-opacity="0.00" />
		</linearGradient>
	</defs>
	<g >
		<polygon fill="#ffffff" shape-rendering="crispEdges" points="879.00,31.00 879.00,13.00 0.00,13.00 0.00,31.00 " />
		<line x1="0.00" y1="28.88" x2="879.00" y2="28.88" stroke="#7f7f7f" stroke-width="1.00" clip-path="url('#clipping-rect1')" />
		<line x1="10.30" y1="28.88" x2="10.30" y2="26.76" stroke="#7f7f7f" stroke-width="1.00" clip-path="url('#clipping-rect1')" />
		<line x1="20.61" y1="28.88" x2="20.61" y2="25.71" stroke="#7f7f7f" stroke-width="1.00" clip-path="url('#clipping-rect1')" />
		<line x1="30.91" y1="28.88" x2="30.91" y2="26.76" stroke="#7f7f7f" stroke-width="1.00" clip-path="url('#clipping-rect1')" />
		<line x1="41.21" y1="28.88" x2="41.21" y2="25.71" stroke="#7f7f7f" stroke-width="1.00" clip-path="url('#clipping-rect1')" />
		<line x1="51.52" y1="28.88" x2="51.52" y2="26.76" stroke="#7f7f7f" stroke-width="1.00" clip-path="url('#clipping-rect1')" />
		<line x1="61.82" y1="28.88" x2="61.82" y2="25.71" stroke="#7f7f7f" stroke-width="1.00" clip-path="url('#clipping-rect1')" />
		<line x1="72.12" y1="28.88" x2="72.12" y2="26.76" stroke="#7f7f7f" stroke-width="1.00" clip-path="url('#clipping-rect1')" />
		<line x1="82.43" y1="28.88" x2="82.43" y2="25.71" stroke="#7f7f7f" stroke-width="1.00" clip-path="url('#clipping-rect1')" />
		<line x1="92.73" y1="28.88" x2="92.73" y2="26.76" stroke="#7f7f7f" stroke-width="1.00" clip-path="url('#clipping-rect1')" />
		<line x1="103.03" y1="28.88" x2="103.03" y2="25.71" stroke="#7f7f7f" stroke-width="1.00" clip-path="url('#clipping-rect1')" />
		<line x1="113.34" y1="28.88" x2="113.34" y2="26.76" stroke="#7f7f7f" stroke-width="1.00" clip-path="url('#clipping-rect1')" />
		<line x1="123.64" y1="28.88" x2="123.64" y2="25.71" stroke="#7f7f7f" stroke-width="1.00" clip-path="url('#clipping-rect1')" />
		<line x1="133.95" y1="28.88" x2="133.95" y2="26.76" stroke="#7f7f7f" stroke-width="1.00" clip-path="url('#clipping-rect1')" />
		<line x1="144.25" y1="28.88" x2="144.25" y2="25.71" stroke="#7f7f7f" stroke-width="1.00" clip-path="url('#clipping-rect1')" />
		<line x1="154.55" y1="28.88" x2="154.55" y2="26.76" stroke="#7f7f7f" stroke-width="1.00" clip-path="url('#clipping-rect1')" />
		<line x1="164.86" y1="28.88" x2="164.86" y2="25.71" stroke="#7f7f7f" stroke-width="1.00" clip-path="url('#clipping-rect1')" />
		<line x1="175.16" y1="28.88" x2="175.16" y2="26.76" stroke="#7f7f7f" stroke-width="1.00" clip-path="url('#clipping-rect1')" />
		<line x1="185.46" y1="28.88" x2="185.46" y2="25.71" stroke="#7f7f7f" stroke-width="1.00" clip-path="url('#clipping-rect1')" />
		<line x1="195.77" y1="28.88" x2="195.77" y2="26.76" stroke="#7f7f7f" stroke-width="1.00" clip-path="url('#clipping-rect1')" />
		<line x1="206.07" y1="28.88" x2="206.07" y2="25.71" stroke="#7f7f7f" stroke-width="1.00" clip-path="url('#clipping-rect1')" />
		<line x1="216.37" y1="28.88" x2="216.37" y2="26.76" stroke="#7f7f7f" stroke-width="1.00" clip-path="url('#clipping-rect1')" />
		<line x1="226.68" y1="28.88" x2="226.68" y2="25.71" stroke="#7f7f7f" stroke-width="1.00" clip-path="url('#clipping-rect1')" />
		<line x1="236.98" y1="28.88" x2="236.98" y2="26.76" stroke="#7f7f7f" stroke-width="1.00" clip-path="url('#clipping-rect1')" />
		<line x1="247.28" y1="28.88" x2="247.28" y2="25.71" stroke="#7f7f7f" stroke-width="1.00" clip-path="url('#clipping-rect1')" />
		<line x1="257.59" y1="28.88" x2="257.59" y2="26.76" stroke="#7f7f7f" stroke-width="1.00" clip-path="url('#clipping-rect1')" />
		<line x1="267.89" y1="28.88" x2="267.89" y2="25.71" stroke="#7f7f7f" stroke-width="1.00" clip-path="url('#clipping-rect1')" />
		<line x1="278.19" y1="28.88" x2="278.19" y2="26.76" stroke="#7f7f7f" stroke-width="1.00" clip-path="url('#clipping-rect1')" />
		<line x1="288.50" y1="28.88" x2="288.50" y2="25.71" stroke="#7f7f7f" stroke-width="1.00" clip-path="url('#clipping-rect1')" />
		<line x1="298.80" y1="28.88" x2="298.80" y2="26.76" stroke="#7f7f7f" stroke-width="1.00" clip-path="url('#clipping-rect1')" />
		<line x1="309.11" y1="28.88" x2="309.11" y2="25.71" stroke="#7f7f7f" stroke-width="1.00" clip-path="url('#clipping-rect1')" />
		<line x1="319.41" y1="28.88" x2="319.41" y2="26.76" stroke="#7f7f7f" stroke-width="1.00" clip-path="url('#clipping-rect1')" />
		<line x1="329.71" y1="28.88" x2="329.71" y2="25.71" stroke="#7f7f7f" stroke-width="1.00" clip-path="url('#clipping-rect1')" />
		<line x1="340.02" y1="28.88" x2="340.02" y2="26.76" stroke="#7f7f7f" stroke-width="1.00" clip-path="url('#clipping-rect1')" />
		<line x1="350.32" y1="28.88" x2="350.32" y2="25.71" stroke="#7f7f7f" stroke-width="1.00" clip-path="url('#clipping-rect1')" />
		<line x1="360.62" y1="28.88" x2="360.62" y2="26.76" stroke="#7f7f7f" stroke-width="1.00" clip-path="url('#clipping-rect1')" />
		<line x1="370.93" y1="28.88" x2="370.93" y2="25.71" stroke="#7f7f7f" stroke-width="1.00" clip-path="url('#clipping-rect1')" />
		<line x1="381.23" y1="28.88" x2="381.23" y2="26.76" stroke="#7f7f7f" stroke-width="1.00" clip-path="url('#clipping-rect1')" />
		<line x1="391.53" y1="28.88" x2="391.53" y2="25.71" stroke="#7f7f7f" stroke-width="1.00" clip-path="url('#clipping-rect1')" />
		<line x1="401.84" y1="28.88" x2="401.84" y2="26.76" stroke="#7f7f7f" stroke-width="1.00" clip-path="url('#clipping-rect1')" />
		<line x1="412.14" y1="28.88" x2="412.14" y2="25.71" stroke="#7f7f7f" stroke-width="1.00" clip-path="url('#clipping-rect1')" />
		<line x1="422.44" y1="28.88" x2="422.44" y2="26.76" stroke="#7f7f7f" stroke-width="1.00" clip-path="url('#clipping-rect1')" />
		<line x1="432.75" y1="28.88" x2="432.75" y2="25.71" stroke="#7f7f7f" stroke-width="1.00" clip-path="url('#clipping-rect1')" />
		<line x1="443.05" y1="28.88" x2="443.05" y2="26.76" stroke="#7f7f7f" stroke-width="1.00" clip-path="url('#clipping-rect1')" />
		<line x1="453.36" y1="28.88" x2="453.36" y2="25.71" stroke="#7f7f7f" stroke-width="1.00" clip-path="url('#clipping-rect1')" />
		<line x1="463.66" y1="28.88" x2="463.66" y2="26.76" stroke="#7f7f7f" stroke-width="1.00" clip-path="url('#clipping-rect1')" />
		<line x1="473.96" y1="28.88" x2="473.96" y2="25.71" stroke="#7f7f7f" stroke-width="1.00" clip-path="url('#clipping-rect1')" />
		<line x1="484.27" y1="28.88" x2="484.27" y2="26.76" stroke="#7f7f7f" stroke-width="1.00" clip-path="url('#clipping-rect1')" />
		<line x1="494.57" y1="28.88" x2="494.57" y2="25.71" stroke="#7f7f7f" stroke-width="1.00" clip-path="url('#clipping-rect1')" />
		<line x1="504.87" y1="28.88" x2="504.87" y2="26.76" stroke="#7f7f7f" stroke-width="1.00" clip-path="url('#clipping-rect1')" />
		<line x1="515.18" y1="28.88" x2="515.18" y2="25.71" stroke="#7f7f7f" stroke-width="1.00" clip-path="url('#clipping-rect1')" />
		<line x1="525.48" y1="28.88" x2="525.48" y2="26.76" stroke="#7f7f7f" stroke-width="1.00" clip-path="url('#clipping-rect1')" />
		<line x1="535.78" y1="28.88" x2="535.78" y2="25.71" stroke="#7f7f7f" stroke-width="1.00" clip-path="url('#clipping-rect1')" />
		<line x1="546.09" y1="28.88" x2="546.09" y2="26.76" stroke="#7f7f7f" stroke-width="1.00" clip-path="url('#clipping-rect1')" />
		<line x1="556.39" y1="28.88" x2="556.39" y2="25.71" stroke="#7f7f7f" stroke-width="1.00" clip-path="url('#clipping-rect1')" />
		<line x1="566.69" y1="28.88" x2="566.69" y2="26.76" stroke="#7f7f7f" stroke-width="1.00" clip-path="url('#clipping-rect1')" />
		<line x1="577.00" y1="28.88" x2="577.00" y2="25.71" stroke="#7f7f7f" stroke-width="1.00" clip-path="url('#clipping-rect1')" />
		<line x1="587.30" y1="28.88" x2="587.30" y2="26.76" stroke="#7f7f7f" stroke-width="1.00" clip-path="url('#clipping-rect1')" />
		<line x1="597.60" y1="28.88" x2="597.60" y2="25.71" stroke="#7f7f7f" stroke-width="1.00" clip-path="url('#clipping-rect1')" />
		<line x1="607.91" y1="28.88" x2="607.91" y2="26.76" stroke="#7f7f7f" stroke-width="1.00" clip-path="url('#clipping-rect1')" />
		<line x1="618.21" y1="28.88" x2="618.21" y2="25.71" stroke="#7f7f7f" stroke-width="1.00" clip-path="url('#clipping-rect1')" />
		<line x1="628.52" y1="28.88" x2="628.52" y2="26.76" stroke="#7f7f7f" stroke-width="1.00" clip-path="url('#clipping-rect1')" />
		<line x1="638.82" y1="28.88" x2="638.82" y2="25.71" stroke="#7f7f7f" stroke-width="1.00" clip-path="url('#clipping-rect1')" />
		<line x1="649.12" y1="28.88" x2="649.12" y2="26.76" stroke="#7f7f7f" stroke-width="1.00" clip-path="url('#clipping-rect1')" />
		<line x1="659.43" y1="28.88" x2="659.43" y2="25.71" stroke="#7f7f7f" stroke-width="1.00" clip-path="url('#clipping-rect1')" />
		<line x1="669.73" y1="28.88" x2="669.73" y2="26.76" stroke="#7f7f7f" stroke-width="1.00" clip-path="url('#clipping-rect1')" />
		<line x1="680.03" y1="28.88" x2="680.03" y2="25.71" stroke="#7f7f7f" stroke-width="1.00" clip-path="url('#clipping-rect1')" />
		<line x1="690.34" y1="28.88" x2="690.34" y2="26.76" stroke="#7f7f7f" stroke-width="1.00" clip-path="url('#clipping-rect1')" />
		<line x1="700.64" y1="28.88" x2="700.64" y2="25.71" stroke="#7f7f7f" stroke-width="1.00" clip-path="url('#clipping-rect1')" />
		<line x1="710.94" y1="28.88" x2="710.94" y2="26.76" stroke="#7f7f7f" stroke-width="1.00" clip-path="url('#clipping-rect1')" />
		<line x1="721.25" y1="28.88" x2="721.25" y2="25.71" stroke="#7f7f7f" stroke-width="1.00" clip-path="url('#clipping-rect1')" />
		<line x1="731.55" y1="28.88" x2="731.55" y2="26.76" stroke="#7f7f7f" stroke-width="1.00" clip-path="url('#clipping-rect1')" />
		<line x1="741.85" y1="28.88" x2="741.85" y2="25.71" stroke="#7f7f7f" stroke-width="1.00" clip-path="url('#clipping-rect1')" />
		<line x1="752.16" y1="28.88" x2="752.16" y2="26.76" stroke="#7f7f7f" stroke-width="1.00" clip-path="url('#clipping-rect1')" />
		<line x1="762.46" y1="28.88" x2="762.46" y2="25.71" stroke="#7f7f7f" stroke-width="1.00" clip-path="url('#clipping-rect1')" />
		<line x1="772.77" y1="28.88" x2="772.77" y2="26.76" stroke="#7f7f7f" stroke-width="1.00" clip-path="url('#clipping-rect1')" />
		<line x1="783.07" y1="28.88" x2="783.07" y2="25.71" stroke="#7f7f7f" stroke-width="1.00" clip-path="url('#clipping-rect1')" />
		<line x1="793.37" y1="28.88" x2="793.37" y2="26.76" stroke="#7f7f7f" stroke-width="1.00" clip-path="url('#clipping-rect1')" />
		<line x1="803.68" y1="28.88" x2="803.68" y2="25.71" stroke="#7f7f7f" stroke-width="1.00" clip-path="url('#clipping-rect1')" />
		<line x1="813.98" y1="28.88" x2="813.98" y2="26.76" stroke="#7f7f7f" stroke-width="1.00" clip-path="url('#clipping-rect1')" />
		<line x1="824.28" y1="28.88" x2="824.28" y2="25.71" stroke="#7f7f7f" stroke-width="1.00" clip-path="url('#clipping-rect1')" />
		<line x1="834.59" y1="28.88" x2="834.59" y2="26.76" stroke="#7f7f7f" stroke-width="1.00" clip-path="url('#clipping-rect1')" />
		<line x1="844.89" y1="28.88" x2="844.89" y2="25.71" stroke="#7f7f7f" stroke-width="1.00" clip-path="url('#clipping-rect1')" />
		<line x1="855.19" y1="28.88" x2="855.19" y2="26.76" stroke="#7f7f7f" stroke-width="1.00" clip-path="url('#clipping-rect1')" />
		<line x1="865.50" y1="28.88" x2="865.50" y2="25.71" stroke="#7f7f7f" stroke-width="1.00" clip-path="url('#clipping-rect1')" />
		<line x1="875.80" y1="28.88" x2="875.80" y2="26.76" stroke="#7f7f7f" stroke-width="1.00" clip-path="url('#clipping-rect1')" />
		<text x="0.00" y="23.59" font-family="Helvetica" font-size="10" fill="#333333" clip-path="url('#clipping-rect1')" >1</text>
		<line x1="0.00" y1="31.00" x2="0.00" y2="15.12" stroke="#7f7f7f" stroke-width="1.00" clip-path="url('#clipping-rect1')" />
		<text x="843.58" y="23.59" font-family="Helvetica" font-size="10" fill="#333333" clip-path="url('#clipping-rect1')" >426,552</text>
		<line x1="879.00" y1="31.00" x2="879.00" y2="15.12" stroke="#7f7f7f" stroke-width="1.00" clip-path="url('#clipping-rect1')" />
		<line x1="824.28" y1="31.00" x2="824.28" y2="15.12" stroke="#7f7f7f" stroke-width="1.00" clip-path="url('#clipping-rect1')" />
		<text x="723.25" y="23.59" font-family="Helvetica" font-size="10" fill="#333333" clip-path="url('#clipping-rect1')" >350 K</text>
		<line x1="721.25" y1="31.00" x2="721.25" y2="15.12" stroke="#7f7f7f" stroke-width="1.00" clip-path="url('#clipping-rect1')" />
		<text x="620.21" y="23.59" font-family="Helvetica" font-size="10" fill="#333333" clip-path="url('#clipping-rect1')" >300 K</text>
		<line x1="618.21" y1="31.00" x2="618.21" y2="15.12" stroke="#7f7f7f" stroke-width="1.00" clip-path="url('#clipping-rect1')" />
		<text x="517.18" y="23.59" font-family="Helvetica" font-size="10" fill="#333333" clip-path="url('#clipping-rect1')" >250 K</text>
		<line x1="515.18" y1="31.00" x2="515.18" y2="15.12" stroke="#7f7f7f" stroke-width="1.00" clip-path="url('#clipping-rect1')" />
		<text x="414.14" y="23.59" font-family="Helvetica" font-size="10" fill="#333333" clip-path="url('#clipping-rect1')" >200 K</text>
		<line x1="412.14" y1="31.00" x2="412.14" y2="15.12" stroke="#7f7f7f" stroke-width="1.00" clip-path="url('#clipping-rect1')" />
		<text x="311.11" y="23.59" font-family="Helvetica" font-size="10" fill="#333333" clip-path="url('#clipping-rect1')" >150 K</text>
		<line x1="309.11" y1="31.00" x2="309.11" y2="15.12" stroke="#7f7f7f" stroke-width="1.00" clip-path="url('#clipping-rect1')" />
		<text x="208.07" y="23.59" font-family="Helvetica" font-size="10" fill="#333333" clip-path="url('#clipping-rect1')" >100 K</text>
		<line x1="206.07" y1="31.00" x2="206.07" y2="15.12" stroke="#7f7f7f" stroke-width="1.00" clip-path="url('#clipping-rect1')" />
		<text x="105.03" y="23.59" font-family="Helvetica" font-size="10" fill="#333333" clip-path="url('#clipping-rect1')" >50 K</text>
		<line x1="103.03" y1="31.00" x2="103.03" y2="15.12" stroke="#7f7f7f" stroke-width="1.00" clip-path="url('#clipping-rect1')" />
		<line x1="0.00" y1="147.00" x2="0.00" y2="31.00" stroke="#ebebeb" stroke-width="1.00" />
		<line x1="103.12" y1="147.00" x2="103.12" y2="31.00" stroke="#ebebeb" stroke-width="1.00" />
		<line x1="206.23" y1="147.00" x2="206.23" y2="31.00" stroke="#ebebeb" stroke-width="1.00" />
		<line x1="309.35" y1="147.00" x2="309.35" y2="31.00" stroke="#ebebeb" stroke-width="1.00" />
		<line x1="412.47" y1="147.00" x2="412.47" y2="31.00" stroke="#ebebeb" stroke-width="1.00" />
		<line x1="515.59" y1="147.00" x2="515.59" y2="31.00" stroke="#ebebeb" stroke-width="1.00" />
		<line x1="618.70" y1="147.00" x2="618.70" y2="31.00" stroke="#ebebeb" stroke-width="1.00" />
		<line x1="721.82" y1="147.00" x2="721.82" y2="31.00" stroke="#ebebeb" stroke-width="1.00" />
		<line x1="824.94" y1="147.00" x2="824.94" y2="31.00" stroke="#ebebeb" stroke-width="1.00" />
		<polygon fill="url('#gradient1')" shape-rendering="crispEdges" points="879.00,37.50 879.00,33.00 0.00,33.00 0.00,37.50 0.00,42.00 879.00,42.00 " />
		<line x1="0.00" y1="42.00" x2="0.00" y2="33.00" stroke="#6c6c6c" stroke-width="1.00" stroke-linejoin="round" />
		<line x1="0.00" y1="33.00" x2="879.00" y2="33.00" stroke="#6c6c6c" stroke-width="1.00" stroke-linejoin="round" />
		<line x1="879.00" y1="33.00" x2="879.00" y2="42.00" stroke="#6c6c6c" stroke-width="1.00" stroke-linejoin="round" />
		<line x1="0.00" y1="42.00" x2="879.00" y2="42.00" stroke="#6c6c6c" stroke-width="1.00" stroke-linejoin="round" />
		<polygon fill="url('#gradient2')" shape-rendering="crispEdges" points="0.00,58.00 879.00,58.00 879.00,44.00 0.00,44.00 " clip-path="url('#clipping-rect2')" />
		<text x="0.00" y="54.00" font-family="Helvetica" font-size="12" fill="#333333" >(U) Alignment for group templates, BLAST Results for: ref|NM_004727.3|</text>
		<polygon fill="url('#gradient2')" shape-rendering="crispEdges" points="0.00,74.00 879.00,74.00 879.00,60.00 0.00,60.00 " clip-path="url('#clipping-rect2')" />
		<text x="0.00" y="70.00" font-family="Helvetica" font-size="12" fill="#333333" >(U) BLAST Results for: ref|NM_004727.3|</text>
		<line x1="0.00" y1="128.00" x2="0.00" y2="143.00" stroke="#009900" stroke-opacity="0.10" stroke-width="1.00" stroke-linejoin="round" />
		<line x1="0.00" y1="143.00" x2="290.64" y2="143.00" stroke="#009900" stroke-opacity="0.10" stroke-width="1.00" stroke-linejoin="round" />
		<line x1="290.64" y1="143.00" x2="290.64" y2="128.00" stroke="#009900" stroke-opacity="0.10" stroke-width="1.00" stroke-linejoin="round" />
		<line x1="0.00" y1="128.00" x2="290.64" y2="128.00" stroke="#009900" stroke-opacity="0.10" stroke-width="1.00" stroke-linejoin="round" />
		<polygon fill="#77b977" shape-rendering="crispEdges" points="134.06,130.00 134.06,141.00 133.06,141.00 133.06,130.00 " />
		<polygon fill="#1e8c1e" shape-rendering="crispEdges" points="134.35,130.00 134.35,141.00 133.35,141.00 133.35,130.00 " />
		<line x1="134.05" y1="135.50" x2="135.48" y2="135.50" stroke="#4ba34b" stroke-width="2.00" />
		<polygon fill="#1e8c1e" shape-rendering="crispEdges" points="136.15,130.00 136.15,141.00 135.15,141.00 135.15,130.00 " />
		<line x1="135.81" y1="135.50" x2="139.11" y2="135.50" stroke="#4ba34b" stroke-width="2.00" />
		<polygon fill="#1e8c1e" shape-rendering="crispEdges" points="139.76,130.00 139.76,141.00 138.76,141.00 138.76,130.00 " />
		<line x1="139.42" y1="135.50" x2="152.74" y2="135.50" stroke="#4ba34b" stroke-width="2.00" />
		<polygon fill="#1e8c1e" shape-rendering="crispEdges" points="153.32,130.00 153.32,141.00 152.32,141.00 152.32,130.00 " />
		<line x1="152.91" y1="135.50" x2="154.34" y2="135.50" stroke="#4ba34b" stroke-width="2.00" />
		<polygon fill="#1e8c1e" shape-rendering="crispEdges" points="155.00,130.00 155.00,141.00 154.00,141.00 154.00,130.00 " />
		<line x1="154.65" y1="135.50" x2="174.89" y2="135.50" stroke="#4ba34b" stroke-width="2.00" />
		<polygon fill="#b2b2b2" shape-rendering="crispEdges" points="169.17,135.50 160.37,131.10 162.57,135.50 160.37,139.90 " />
		<polygon fill="#1e8c1e" shape-rendering="crispEdges" points="175.53,130.00 175.53,141.00 174.53,141.00 174.53,130.00 " />
		<line x1="175.18" y1="135.50" x2="175.43" y2="135.50" stroke="#4ba34b" stroke-width="2.00" />
		<polygon fill="#1e8c1e" shape-rendering="crispEdges" points="176.03,130.00 176.03,141.00 175.03,141.00 175.03,130.00 " />
		<line x1="175.63" y1="135.50" x2="176.38" y2="135.50" stroke="#4ba34b" stroke-width="2.00" />
		<polygon fill="#1e8c1e" shape-rendering="crispEdges" points="177.06,130.00 177.06,141.00 176.06,141.00 176.06,130.00 " />
		<line x1="176.75" y1="135.50" x2="210.94" y2="135.50" stroke="#4ba34b" stroke-width="2.00" />
		<polygon fill="#b2b2b2" shape-rendering="crispEdges" points="198.24,135.50 189.44,131.10 191.64,135.50 189.44,139.90 " />
		<polygon fill="#1e8c1e" shape-rendering="crispEdges" points="211.70,130.00 211.70,141.00 210.70,141.00 210.70,130.00 " />
		<line x1="211.46" y1="135.50" x2="218.13" y2="135.50" stroke="#4ba34b" stroke-width="2.00" />
		<polygon fill="#1e8c1e" shape-rendering="crispEdges" points="218.74,130.00 218.74,141.00 217.74,141.00 217.74,130.00 " />
		<line x1="218.34" y1="135.50" x2="227.92" y2="135.50" stroke="#4ba34b" stroke-width="2.00" />
		<polygon fill="#1e8c1e" shape-rendering="crispEdges" points="228.51,130.00 228.51,141.00 227.51,141.00 227.51,130.00 " />
		<line x1="228.10" y1="135.50" x2="244.76" y2="135.50" stroke="#4ba34b" stroke-width="2.00" />
		<polygon fill="#b2b2b2" shape-rendering="crispEdges" points="240.83,135.50 232.03,131.10 234.23,135.50 232.03,139.90 " />
		<polygon fill="#1e8c1e" shape-rendering="crispEdges" points="245.43,130.00 245.43,141.00 244.43,141.00 244.43,130.00 " />
		<line x1="245.09" y1="135.50" x2="252.74" y2="135.50" stroke="#4ba34b" stroke-width="2.00" />
		<polygon fill="#77b977" shape-rendering="crispEdges" points="253.64,130.00 253.64,141.00 252.64,141.00 252.64,130.00 " />
		<line x1="253.53" y1="135.50" x2="256.61" y2="135.50" stroke="#4ba34b" stroke-width="2.00" />
		<polygon fill="#1e8c1e" shape-rendering="crispEdges" points="257.21,130.00 257.21,141.00 256.21,141.00 256.21,130.00 " />
		<line x1="256.81" y1="135.50" x2="258.38" y2="135.50" stroke="#4ba34b" stroke-width="2.00" />
		<polygon fill="#77b977" shape-rendering="crispEdges" points="258.91,130.00 258.91,141.00 257.91,141.00 257.91,130.00 " />
		<line x1="258.45" y1="135.50" x2="284.43" y2="135.50" stroke="#4ba34b" stroke-width="2.00" />
		<polygon fill="#b2b2b2" shape-rendering="crispEdges" points="275.84,135.50 267.04,131.10 269.24,135.50 267.04,139.90 " />
		<polygon fill="#1e8c1e" shape-rendering="crispEdges" points="284.93,130.00 284.93,141.00 283.93,141.00 283.93,130.00 " />
		<polygon fill="#4aa34a" shape-rendering="crispEdges" points="285.30,130.00 285.30,141.00 284.30,141.00 284.30,130.00 " />
		<polygon fill="#77b977" shape-rendering="crispEdges" points="288.64,130.00 288.64,141.00 285.17,141.00 285.17,130.00 " />
		<polygon fill="#ffffff" shape-rendering="crispEdges" points="133.48,141.00 133.48,130.00 1.23,130.00 1.23,141.00 " />
		<text x="1.23" y="139.00" font-family="Helvetica" font-size="10" fill="#124d94" >ENSSPUG00000013289 [+4]</text>
		<line x1="198.48" y1="95.00" x2="198.48" y2="123.00" stroke="#009900" stroke-opacity="0.10" stroke-width="1.00" stroke-linejoin="round" />
		<line x1="198.48" y1="123.00" x2="665.16" y2="123.00" stroke="#009900" stroke-opacity="0.10" stroke-width="1.00" stroke-linejoin="round" />
		<line x1="665.16" y1="123.00" x2="665.16" y2="95.00" stroke="#009900" stroke-opacity="0.10" stroke-width="1.00" stroke-linejoin="round" />
		<line x1="198.48" y1="95.00" x2="665.16" y2="95.00" stroke="#009900" stroke-opacity="0.10" stroke-width="1.00" stroke-linejoin="round" />
		<text x="377.47" y="104.00" font-family="Helvetica" font-size="10" fill="#124d94" >ENSSPUG00000013310</text>
		<polygon fill="#a5d1a5" shape-rendering="crispEdges" points="321.48,110.00 321.48,121.00 319.80,121.00 319.80,110.00 " />
		<polygon fill="#1e8c1e" shape-rendering="crispEdges" points="322.09,110.00 322.09,121.00 321.09,121.00 321.09,110.00 " />
		<line x1="321.70" y1="115.50" x2="339.03" y2="115.50" stroke="#4ba34b" stroke-width="2.00" />
		<polygon fill="#b2b2b2" shape-rendering="crispEdges" points="325.97,115.50 334.77,111.10 332.57,115.50 334.77,119.90 " />
		<polygon fill="#1e8c1e" shape-rendering="crispEdges" points="339.62,110.00 339.62,121.00 338.62,121.00 338.62,110.00 " />
		<line x1="339.22" y1="115.50" x2="353.67" y2="115.50" stroke="#4ba34b" stroke-width="2.00" />
		<polygon fill="#1e8c1e" shape-rendering="crispEdges" points="354.22,110.00 354.22,121.00 353.22,121.00 353.22,110.00 " />
		<line x1="353.77" y1="115.50" x2="378.82" y2="115.50" stroke="#4ba34b" stroke-width="2.00" />
		<polygon fill="#b2b2b2" shape-rendering="crispEdges" points="361.90,115.50 370.70,111.10 368.50,115.50 370.70,119.90 " />
		<polygon fill="#1e8c1e" shape-rendering="crispEdges" points="379.42,110.00 379.42,121.00 378.42,121.00 378.42,110.00 " />
		<line x1="379.01" y1="115.50" x2="386.90" y2="115.50" stroke="#4ba34b" stroke-width="2.00" />
		<polygon fill="#1e8c1e" shape-rendering="crispEdges" points="387.51,110.00 387.51,121.00 386.51,121.00 386.51,110.00 " />
		<line x1="387.12" y1="115.50" x2="415.02" y2="115.50" stroke="#4ba34b" stroke-width="2.00" />
		<polygon fill="#b2b2b2" shape-rendering="crispEdges" points="396.67,115.50 405.47,111.10 403.27,115.50 405.47,119.90 " />
		<polygon fill="#1e8c1e" shape-rendering="crispEdges" points="415.64,110.00 415.64,121.00 414.64,121.00 414.64,110.00 " />
		<line x1="415.25" y1="115.50" x2="431.79" y2="115.50" stroke="#4ba34b" stroke-width="2.00" />
		<polygon fill="#b2b2b2" shape-rendering="crispEdges" points="419.12,115.50 427.92,111.10 425.72,115.50 427.92,119.90 " />
		<polygon fill="#1e8c1e" shape-rendering="crispEdges" points="432.41,110.00 432.41,121.00 431.41,121.00 431.41,110.00 " />
		<line x1="432.02" y1="115.50" x2="434.96" y2="115.50" stroke="#4ba34b" stroke-width="2.00" />
		<polygon fill="#1e8c1e" shape-rendering="crispEdges" points="435.66,110.00 435.66,121.00 434.66,121.00 434.66,110.00 " />
		<line x1="435.36" y1="115.50" x2="492.12" y2="115.50" stroke="#4ba34b" stroke-width="2.00" />
		<polygon fill="#b2b2b2" shape-rendering="crispEdges" points="459.34,115.50 468.14,111.10 465.94,115.50 468.14,119.90 " />
		<polygon fill="#1e8c1e" shape-rendering="crispEdges" points="492.78,110.00 492.78,121.00 491.78,121.00 491.78,110.00 " />
		<line x1="492.45" y1="115.50" x2="496.15" y2="115.50" stroke="#4ba34b" stroke-width="2.00" />
		<polygon fill="#1e8c1e" shape-rendering="crispEdges" points="496.76,110.00 496.76,121.00 495.76,121.00 495.76,110.00 " />
		<line x1="496.36" y1="115.50" x2="520.87" y2="115.50" stroke="#4ba34b" stroke-width="2.00" />
		<polygon fill="#b2b2b2" shape-rendering="crispEdges" points="504.22,115.50 513.02,111.10 510.82,115.50 513.02,119.90 " />
		<polygon fill="#1e8c1e" shape-rendering="crispEdges" points="521.47,110.00 521.47,121.00 520.47,121.00 520.47,110.00 " />
		<line x1="521.07" y1="115.50" x2="528.89" y2="115.50" stroke="#4ba34b" stroke-width="2.00" />
		<polygon fill="#1e8c1e" shape-rendering="crispEdges" points="529.59,110.00 529.59,121.00 528.59,121.00 528.59,110.00 " />
		<polygon fill="#a5d1a5" shape-rendering="crispEdges" points="529.78,110.00 529.78,121.00 528.78,121.00 528.78,110.00 " />
		<line x1="529.29" y1="115.50" x2="544.12" y2="115.50" stroke="#4ba34b" stroke-width="2.00" />
		<polygon fill="#a5d1a5" shape-rendering="crispEdges" points="544.76,110.00 544.76,121.00 543.76,121.00 543.76,110.00 " />
		<polygon fill="#ffffff" shape-rendering="crispEdges" points="319.80,121.00 319.80,110.00 201.48,110.00 201.48,121.00 " />
		<text x="201.48" y="119.00" font-family="Helvetica" font-size="10" fill="#124d94" >ENSSPUP00000017186.1</text>
		<polygon fill="#ffffff" shape-rendering="crispEdges" points="663.16,121.00 663.16,110.00 548.40,110.00 548.40,121.00 " />
		<text x="548.40" y="119.00" font-family="Helvetica" font-size="10" fill="#124d94" >ENSSPUT00000018310.1</text>
		<line x1="692.11" y1="95.00" x2="692.11" y2="110.00" stroke="#009900" stroke-opacity="0.10" stroke-width="1.00" stroke-linejoin="round" />
		<line x1="692.11" y1="110.00" x2="879.00" y2="110.00" stroke="#009900" stroke-opacity="0.10" stroke-width="1.00" stroke-linejoin="round" />
		<line x1="879.00" y1="110.00" x2="879.00" y2="95.00" stroke="#009900" stroke-opacity="0.10" stroke-width="1.00" stroke-linejoin="round" />
		<line x1="692.11" y1="95.00" x2="879.00" y2="95.00" stroke="#009900" stroke-opacity="0.10" stroke-width="1.00" stroke-linejoin="round" />
		<polygon fill="#91c791" shape-rendering="crispEdges" points="694.66,97.00 694.66,108.00 693.66,108.00 693.66,97.00 " />
		<line x1="694.20" y1="102.50" x2="695.76" y2="102.50" stroke="#4ba34b" stroke-width="2.00" />
		<polygon fill="#449f44" shape-rendering="crispEdges" points="696.36,97.00 696.36,108.00 695.36,108.00 695.36,97.00 " />
		<line x1="695.97" y1="102.50" x2="697.12" y2="102.50" stroke="#4ba34b" stroke-width="2.00" />
		<polygon fill="#449f44" shape-rendering="crispEdges" points="697.78,97.00 697.78,108.00 696.78,108.00 696.78,97.00 " />
		<line x1="697.44" y1="102.50" x2="700.89" y2="102.50" stroke="#4ba34b" stroke-width="2.00" />
		<polygon fill="#1e8c1e" shape-rendering="crispEdges" points="701.48,97.00 701.48,108.00 700.48,108.00 700.48,97.00 " />
		<polygon fill="#449f44" shape-rendering="crispEdges" points="701.61,97.00 701.61,108.00 700.61,108.00 700.61,97.00 " />
		<line x1="701.13" y1="102.50" x2="715.46" y2="102.50" stroke="#4ba34b" stroke-width="2.00" />
		<polygon fill="#1e8c1e" shape-rendering="crispEdges" points="716.09,97.00 716.09,108.00 715.09,108.00 715.09,97.00 " />
		<polygon fill="#449f44" shape-rendering="crispEdges" points="716.25,97.00 716.25,108.00 715.25,108.00 715.25,97.00 " />
		<line x1="715.76" y1="102.50" x2="719.83" y2="102.50" stroke="#4ba34b" stroke-width="2.00" />
		<polygon fill="#449f44" shape-rendering="crispEdges" points="720.36,97.00 720.36,108.00 719.36,108.00 719.36,97.00 " />
		<polygon fill="#1e8c1e" shape-rendering="crispEdges" points="720.52,97.00 720.52,108.00 719.52,108.00 719.52,97.00 " />
		<line x1="720.16" y1="102.50" x2="754.22" y2="102.50" stroke="#4ba34b" stroke-width="2.00" />
		<polygon fill="#b2b2b2" shape-rendering="crispEdges" points="732.79,102.50 741.59,98.10 739.39,102.50 741.59,106.90 " />
		<polygon fill="#1e8c1e" shape-rendering="crispEdges" points="754.88,97.00 754.88,108.00 753.88,108.00 753.88,97.00 " />
		<line x1="754.54" y1="102.50" x2="757.56" y2="102.50" stroke="#4ba34b" stroke-width="2.00" />
		<polygon fill="#1e8c1e" shape-rendering="crispEdges" points="758.17,97.00 758.17,108.00 757.17,108.00 757.17,97.00 " />
		<line x1="757.77" y1="102.50" x2="792.58" y2="102.50" stroke="#4ba34b" stroke-width="2.00" />
		<polygon fill="#b2b2b2" shape-rendering="crispEdges" points="770.78,102.50 779.58,98.10 777.38,102.50 779.58,106.90 " />
		<polygon fill="#1e8c1e" shape-rendering="crispEdges" points="793.22,97.00 793.22,108.00 792.22,108.00 792.22,97.00 " />
		<line x1="792.86" y1="102.50" x2="794.17" y2="102.50" stroke="#4ba34b" stroke-width="2.00" />
		<polygon fill="#1e8c1e" shape-rendering="crispEdges" points="794.76,97.00 794.76,108.00 793.76,108.00 793.76,97.00 " />
		<line x1="794.35" y1="102.50" x2="794.77" y2="102.50" stroke="#4ba34b" stroke-width="2.00" />
		<polygon fill="#1e8c1e" shape-rendering="crispEdges" points="795.41,97.00 795.41,108.00 794.41,108.00 794.41,97.00 " />
		<line x1="795.04" y1="102.50" x2="801.80" y2="102.50" stroke="#4ba34b" stroke-width="2.00" />
		<polygon fill="#1e8c1e" shape-rendering="crispEdges" points="802.59,97.00 802.59,108.00 801.59,108.00 801.59,97.00 " />
		<polygon fill="#6bb36b" shape-rendering="crispEdges" points="802.92,97.00 802.92,108.00 801.92,108.00 801.92,97.00 " />
		<line x1="802.44" y1="102.50" x2="802.49" y2="102.50" stroke="#4ba34b" stroke-width="2.00" />
		<polygon fill="#91c791" shape-rendering="crispEdges" points="803.01,97.00 803.01,108.00 802.01,108.00 802.01,97.00 " />
		<line x1="802.52" y1="102.50" x2="803.81" y2="102.50" stroke="#4ba34b" stroke-width="2.00" />
		<polygon fill="#91c791" shape-rendering="crispEdges" points="804.31,97.00 804.31,108.00 803.31,108.00 803.31,97.00 " />
		<polygon fill="#449f44" shape-rendering="crispEdges" points="804.33,97.00 804.33,108.00 803.33,108.00 803.33,97.00 " />
		<polygon fill="#1e8c1e" shape-rendering="crispEdges" points="804.46,97.00 804.46,108.00 803.46,108.00 803.46,97.00 " />
		<line x1="804.08" y1="102.50" x2="809.47" y2="102.50" stroke="#4ba34b" stroke-width="2.00" />
		<polygon fill="#1e8c1e" shape-rendering="crispEdges" points="810.10,97.00 810.10,108.00 809.10,108.00 809.10,97.00 " />
		<line x1="809.73" y1="102.50" x2="812.03" y2="102.50" stroke="#4ba34b" stroke-width="2.00" />
		<polygon fill="#91c791" shape-rendering="crispEdges" points="812.56,97.00 812.56,108.00 811.56,108.00 811.56,97.00 " />
		<line x1="812.09" y1="102.50" x2="814.82" y2="102.50" stroke="#4ba34b" stroke-width="2.00" />
		<polygon fill="#449f44" shape-rendering="crispEdges" points="815.35,97.00 815.35,108.00 814.35,108.00 814.35,97.00 " />
		<polygon fill="#1e8c1e" shape-rendering="crispEdges" points="815.49,97.00 815.49,108.00 814.49,108.00 814.49,97.00 " />
		<line x1="815.10" y1="102.50" x2="824.81" y2="102.50" stroke="#4ba34b" stroke-width="2.00" />
		<polygon fill="#1e8c1e" shape-rendering="crispEdges" points="825.46,97.00 825.46,108.00 824.46,108.00 824.46,97.00 " />
		<line x1="825.11" y1="102.50" x2="826.81" y2="102.50" stroke="#4ba34b" stroke-width="2.00" />
		<polygon fill="#1e8c1e" shape-rendering="crispEdges" points="827.46,97.00 827.46,108.00 826.46,108.00 826.46,97.00 " />
		<line x1="827.11" y1="102.50" x2="829.29" y2="102.50" stroke="#4ba34b" stroke-width="2.00" />
		<polygon fill="#1e8c1e" shape-rendering="crispEdges" points="829.89,97.00 829.89,108.00 828.89,108.00 828.89,97.00 " />
		<polygon fill="#6bb36b" shape-rendering="crispEdges" points="830.03,97.00 830.03,108.00 829.03,108.00 829.03,97.00 " />
		<line x1="829.57" y1="102.50" x2="830.54" y2="102.50" stroke="#4ba34b" stroke-width="2.00" />
		<polygon fill="#6bb36b" shape-rendering="crispEdges" points="831.09,97.00 831.09,108.00 830.09,108.00 830.09,97.00 " />
		<line x1="830.64" y1="102.50" x2="838.78" y2="102.50" stroke="#4ba34b" stroke-width="2.00" />
		<polygon fill="#91c791" shape-rendering="crispEdges" points="839.33,97.00 839.33,108.00 838.33,108.00 838.33,97.00 " />
		<line x1="838.89" y1="102.50" x2="838.91" y2="102.50" stroke="#4ba34b" stroke-width="2.00" />
		<polygon fill="#91c791" shape-rendering="crispEdges" points="839.45,97.00 839.45,108.00 838.45,108.00 838.45,97.00 " />
		<polygon fill="#ffffff" shape-rendering="crispEdges" points="879.00,108.00 879.00,97.00 749.75,97.00 749.75,108.00 " />
		<text x="749.75" y="106.00" font-family="Helvetica" font-size="10" fill="#124d94" >ENSSPUG00000013347 [+8]</text>
		<polygon fill="url('#gradient3')" shape-rendering="crispEdges" points="0.00,90.00 879.00,90.00 879.00,76.00 0.00,76.00 " clip-path="url('#clipping-rect2')" />
		<text x="0.00" y="86.00" font-family="Helvetica" font-size="12" fill="#333333" >Genes, Ensembl release 114</text>
		<polygon fill="#0000ff" fill-opacity="0.20" shape-rendering="crispEdges" points="766.50,31.50 766.50,23.10 766.50,23.10 " />
		<polygon fill="#0000ff" fill-opacity="0.20" shape-rendering="crispEdges" points="766.50,31.50 766.50,31.50 766.50,23.10 " />
		<line x1="766.50" y1="30.50" x2="766.50" y2="23.10" stroke="#0000ff" stroke-opacity="0.40" stroke-width="1.00" />
		<line x1="766.50" y1="30.50" x2="766.50" y2="23.10" stroke="#0000ff" stroke-opacity="0.40" stroke-width="1.00" />
		<polygon fill="#0000ff" shape-rendering="crispEdges" points="760.79,22.35 760.50,20.50 760.79,18.65 761.65,16.97 762.97,15.65 764.65,14.79 766.50,14.50 766.50,26.50 764.65,26.21 762.97,25.35 761.65,24.03 " />
		<polygon fill="#0000ff" fill-opacity="0.60" shape-rendering="crispEdges" points="804.17,26.50 804.17,14.50 766.50,14.50 766.50,26.50 " />
		<text x="768.50" y="23.50" font-family="Helvetica" font-size="10" fill="#ffffff" >NOP14</text>
		<polygon fill="#0000ff" fill-opacity="0.20" shape-rendering="crispEdges" points="766.87,148.01 766.87,31.00 766.87,31.00 " />
		<polygon fill="#0000ff" fill-opacity="0.20" shape-rendering="crispEdges" points="766.87,148.01 766.87,148.01 766.87,31.00 " />
		<line x1="766.87" y1="147.00" x2="766.87" y2="31.00" stroke="#0000ff" stroke-opacity="0.40" stroke-width="1.00" />
		<line x1="766.87" y1="147.00" x2="766.87" y2="31.00" stroke="#0000ff" stroke-opacity="0.40" stroke-width="1.00" />
		<polygon fill="#0000ff" fill-opacity="0.20" shape-rendering="crispEdges" points="257.50,31.50 257.50,23.10 257.50,23.10 " />
		<polygon fill="#0000ff" fill-opacity="0.20" shape-rendering="crispEdges" points="257.50,31.50 257.50,31.50 257.50,23.10 " />
		<line x1="257.50" y1="30.50" x2="257.50" y2="23.10" stroke="#0000ff" stroke-opacity="0.40" stroke-width="1.00" />
		<line x1="257.50" y1="30.50" x2="257.50" y2="23.10" stroke="#0000ff" stroke-opacity="0.40" stroke-width="1.00" />
		<polygon fill="#0000ff" shape-rendering="crispEdges" points="251.79,22.35 251.50,20.50 251.79,18.65 252.65,16.97 253.97,15.65 255.65,14.79 257.50,14.50 257.50,26.50 255.65,26.21 253.97,25.35 252.65,24.03 " />
		<polygon fill="#0000ff" fill-opacity="0.60" shape-rendering="crispEdges" points="287.91,26.50 287.91,14.50 257.50,14.50 257.50,26.50 " />
		<text x="259.50" y="23.50" font-family="Helvetica" font-size="10" fill="#ffffff" >ADD1</text>
		<polygon fill="#0000ff" fill-opacity="0.20" shape-rendering="crispEdges" points="257.29,148.01 257.29,31.00 257.29,31.00 " />
		<polygon fill="#0000ff" fill-opacity="0.20" shape-rendering="crispEdges" points="257.29,148.01 257.29,148.01 257.29,31.00 " />
		<line x1="257.29" y1="147.00" x2="257.29" y2="31.00" stroke="#0000ff" stroke-opacity="0.40" stroke-width="1.00" />
		<line x1="257.29" y1="147.00" x2="257.29" y2="31.00" stroke="#0000ff" stroke-opacity="0.40" stroke-width="1.00" />
		<polygon fill="#0000ff" fill-opacity="0.20" shape-rendering="crispEdges" points="439.50,23.10 439.50,31.50 438.50,31.50 438.50,23.10 " />
		<line x1="438.50" y1="30.50" x2="438.50" y2="23.10" stroke="#0000ff" stroke-opacity="0.40" stroke-width="1.00" />
		<line x1="439.50" y1="30.50" x2="439.50" y2="23.10" stroke="#0000ff" stroke-opacity="0.40" stroke-width="1.00" />
		<polygon fill="#0000ff" shape-rendering="crispEdges" points="432.79,22.35 432.50,20.50 432.79,18.65 433.65,16.97 434.97,15.65 436.65,14.79 438.50,14.50 438.50,26.50 436.65,26.21 434.97,25.35 433.65,24.03 " />
		<polygon fill="#0000ff" fill-opacity="0.60" shape-rendering="crispEdges" points="482.70,26.50 482.70,14.50 438.50,14.50 438.50,26.50 " />
		<text x="440.50" y="23.50" font-family="Helvetica" font-size="10" fill="#ffffff" >MFSD10</text>
		<polygon fill="#0000ff" fill-opacity="0.20" shape-rendering="crispEdges" points="439.50,31.00 439.50,148.01 438.50,148.01 438.50,31.00 " />
		<line x1="438.50" y1="147.00" x2="438.50" y2="31.00" stroke="#0000ff" stroke-opacity="0.40" stroke-width="1.00" />
		<line x1="439.50" y1="147.00" x2="439.50" y2="31.00" stroke="#0000ff" stroke-opacity="0.40" stroke-width="1.00" />
		<polygon fill="#e5e5e5" shape-rendering="crispEdges" points="879.00,13.00 879.00,-1.00 0.00,-1.00 0.00,13.00 " />
		<text x="0.00" y="10.00" font-family="Helvetica Bold" font-size="12" text-anchor="start" fill="#000000" >QEPC01012877.1:0..426552 Sphenodon punctatus isolate mauimua-1 ScrUdWx_11090, whole genome shotgun sequence</text>
	</g>
</svg>
