<?xml version="1.0" standalone="no" ?>
<!DOCTYPE svg PUBLIC "-//W3C//DTD SVG 1.1//EN" "http://www.w3.org/Graphics/SVG/1.1/DTD/svg11.dtd">
<svg width="879px" height="147px" xmlns="http://www.w3.org/2000/svg" version="1.1" viewBox="0 0 879 147" >
	<style type="text/css" > <![CDATA[
		@import url("https://www.ncbi.nlm.nih.gov/projects/sviewer/css/svg_fonts.css");
	]]>
	</style>
	<desc >Generated by NCBI Genome Workbench http://www.ncbi.nlm.nih.gov/tools/gbench/</desc>
	<defs >
		<clipPath id="clipping-rect1" >
			<rect x="0" y="14" width="879" height="18" />
		</clipPath>
		<linearGradient id="gradient1" gradientTransform="rotate(90)" >
			<stop offset="0%" stop-color="#6c6c6c" />
			<stop offset="50%" stop-color="#b5b5b5" />
			<stop offset="100%" stop-color="#6c6c6c" />
		</linearGradient>
		<clipPath id="clipping-rect2" >
			<rect x="0" y="32" width="879" height="115" />
		</clipPath>
		<linearGradient id="gradient2" gradientTransform="rotate(90)" >
			<stop offset="0%" stop-color="#b6dead" />
			<stop offset="100%" stop-color="#ffffff" stop-opacity="0.00" />
		</linearGradient>
		<linearGradient id="gradient3" gradientTransform="rotate(90)" >
			<stop offset="0%" stop-color="#e6e6e6" stop-opacity="0.71" />
			<stop offset="100%" stop-color="#ffffff" stop-opacity="0.00" />
		</linearGradient>
	</defs>
	<g >
		<polygon fill="#ffffff" shape-rendering="crispEdges" points="879.00,31.00 879.00,13.00 0.00,13.00 0.00,31.00 " />
		<line x1="0.00" y1="29.00" x2="879.00" y2="29.00" stroke="#7f7f7f" stroke-width="1.00" clip-path="url('#clipping-rect1')" />
		<line x1="879.00" y1="29.00" x2="879.00" y2="26.00" stroke="#7f7f7f" stroke-width="1.00" clip-path="url('#clipping-rect1')" />
		<line x1="871.49" y1="29.00" x2="871.49" y2="27.00" stroke="#7f7f7f" stroke-width="1.00" clip-path="url('#clipping-rect1')" />
		<line x1="863.97" y1="29.00" x2="863.97" y2="27.00" stroke="#7f7f7f" stroke-width="1.00" clip-path="url('#clipping-rect1')" />
		<line x1="856.45" y1="29.00" x2="856.45" y2="27.00" stroke="#7f7f7f" stroke-width="1.00" clip-path="url('#clipping-rect1')" />
		<line x1="848.94" y1="29.00" x2="848.94" y2="27.00" stroke="#7f7f7f" stroke-width="1.00" clip-path="url('#clipping-rect1')" />
		<line x1="841.42" y1="29.00" x2="841.42" y2="26.00" stroke="#7f7f7f" stroke-width="1.00" clip-path="url('#clipping-rect1')" />
		<line x1="833.91" y1="29.00" x2="833.91" y2="27.00" stroke="#7f7f7f" stroke-width="1.00" clip-path="url('#clipping-rect1')" />
		<line x1="826.39" y1="29.00" x2="826.39" y2="27.00" stroke="#7f7f7f" stroke-width="1.00" clip-path="url('#clipping-rect1')" />
		<line x1="818.87" y1="29.00" x2="818.87" y2="27.00" stroke="#7f7f7f" stroke-width="1.00" clip-path="url('#clipping-rect1')" />
		<line x1="811.36" y1="29.00" x2="811.36" y2="27.00" stroke="#7f7f7f" stroke-width="1.00" clip-path="url('#clipping-rect1')" />
		<line x1="803.84" y1="29.00" x2="803.84" y2="26.00" stroke="#7f7f7f" stroke-width="1.00" clip-path="url('#clipping-rect1')" />
		<line x1="796.33" y1="29.00" x2="796.33" y2="27.00" stroke="#7f7f7f" stroke-width="1.00" clip-path="url('#clipping-rect1')" />
		<line x1="788.81" y1="29.00" x2="788.81" y2="27.00" stroke="#7f7f7f" stroke-width="1.00" clip-path="url('#clipping-rect1')" />
		<line x1="781.29" y1="29.00" x2="781.29" y2="27.00" stroke="#7f7f7f" stroke-width="1.00" clip-path="url('#clipping-rect1')" />
		<line x1="773.78" y1="29.00" x2="773.78" y2="27.00" stroke="#7f7f7f" stroke-width="1.00" clip-path="url('#clipping-rect1')" />
		<line x1="766.26" y1="29.00" x2="766.26" y2="26.00" stroke="#7f7f7f" stroke-width="1.00" clip-path="url('#clipping-rect1')" />
		<line x1="758.75" y1="29.00" x2="758.75" y2="27.00" stroke="#7f7f7f" stroke-width="1.00" clip-path="url('#clipping-rect1')" />
		<line x1="751.23" y1="29.00" x2="751.23" y2="27.00" stroke="#7f7f7f" stroke-width="1.00" clip-path="url('#clipping-rect1')" />
		<line x1="743.72" y1="29.00" x2="743.72" y2="27.00" stroke="#7f7f7f" stroke-width="1.00" clip-path="url('#clipping-rect1')" />
		<line x1="736.20" y1="29.00" x2="736.20" y2="27.00" stroke="#7f7f7f" stroke-width="1.00" clip-path="url('#clipping-rect1')" />
		<line x1="728.68" y1="29.00" x2="728.68" y2="26.00" stroke="#7f7f7f" stroke-width="1.00" clip-path="url('#clipping-rect1')" />
		<line x1="721.17" y1="29.00" x2="721.17" y2="27.00" stroke="#7f7f7f" stroke-width="1.00" clip-path="url('#clipping-rect1')" />
		<line x1="713.65" y1="29.00" x2="713.65" y2="27.00" stroke="#7f7f7f" stroke-width="1.00" clip-path="url('#clipping-rect1')" />
		<line x1="706.14" y1="29.00" x2="706.14" y2="27.00" stroke="#7f7f7f" stroke-width="1.00" clip-path="url('#clipping-rect1')" />
		<line x1="698.62" y1="29.00" x2="698.62" y2="27.00" stroke="#7f7f7f" stroke-width="1.00" clip-path="url('#clipping-rect1')" />
		<line x1="691.10" y1="29.00" x2="691.10" y2="26.00" stroke="#7f7f7f" stroke-width="1.00" clip-path="url('#clipping-rect1')" />
		<line x1="683.59" y1="29.00" x2="683.59" y2="27.00" stroke="#7f7f7f" stroke-width="1.00" clip-path="url('#clipping-rect1')" />
		<line x1="676.07" y1="29.00" x2="676.07" y2="27.00" stroke="#7f7f7f" stroke-width="1.00" clip-path="url('#clipping-rect1')" />
		<line x1="668.56" y1="29.00" x2="668.56" y2="27.00" stroke="#7f7f7f" stroke-width="1.00" clip-path="url('#clipping-rect1')" />
		<line x1="661.04" y1="29.00" x2="661.04" y2="27.00" stroke="#7f7f7f" stroke-width="1.00" clip-path="url('#clipping-rect1')" />
		<line x1="653.52" y1="29.00" x2="653.52" y2="26.00" stroke="#7f7f7f" stroke-width="1.00" clip-path="url('#clipping-rect1')" />
		<line x1="646.01" y1="29.00" x2="646.01" y2="27.00" stroke="#7f7f7f" stroke-width="1.00" clip-path="url('#clipping-rect1')" />
		<line x1="638.49" y1="29.00" x2="638.49" y2="27.00" stroke="#7f7f7f" stroke-width="1.00" clip-path="url('#clipping-rect1')" />
		<line x1="630.98" y1="29.00" x2="630.98" y2="27.00" stroke="#7f7f7f" stroke-width="1.00" clip-path="url('#clipping-rect1')" />
		<line x1="623.46" y1="29.00" x2="623.46" y2="27.00" stroke="#7f7f7f" stroke-width="1.00" clip-path="url('#clipping-rect1')" />
		<line x1="615.94" y1="29.00" x2="615.94" y2="26.00" stroke="#7f7f7f" stroke-width="1.00" clip-path="url('#clipping-rect1')" />
		<line x1="608.43" y1="29.00" x2="608.43" y2="27.00" stroke="#7f7f7f" stroke-width="1.00" clip-path="url('#clipping-rect1')" />
		<line x1="600.91" y1="29.00" x2="600.91" y2="27.00" stroke="#7f7f7f" stroke-width="1.00" clip-path="url('#clipping-rect1')" />
		<line x1="593.40" y1="29.00" x2="593.40" y2="27.00" stroke="#7f7f7f" stroke-width="1.00" clip-path="url('#clipping-rect1')" />
		<line x1="585.88" y1="29.00" x2="585.88" y2="27.00" stroke="#7f7f7f" stroke-width="1.00" clip-path="url('#clipping-rect1')" />
		<line x1="578.36" y1="29.00" x2="578.36" y2="26.00" stroke="#7f7f7f" stroke-width="1.00" clip-path="url('#clipping-rect1')" />
		<line x1="570.85" y1="29.00" x2="570.85" y2="27.00" stroke="#7f7f7f" stroke-width="1.00" clip-path="url('#clipping-rect1')" />
		<line x1="563.33" y1="29.00" x2="563.33" y2="27.00" stroke="#7f7f7f" stroke-width="1.00" clip-path="url('#clipping-rect1')" />
		<line x1="555.82" y1="29.00" x2="555.82" y2="27.00" stroke="#7f7f7f" stroke-width="1.00" clip-path="url('#clipping-rect1')" />
		<line x1="548.30" y1="29.00" x2="548.30" y2="27.00" stroke="#7f7f7f" stroke-width="1.00" clip-path="url('#clipping-rect1')" />
		<line x1="540.78" y1="29.00" x2="540.78" y2="26.00" stroke="#7f7f7f" stroke-width="1.00" clip-path="url('#clipping-rect1')" />
		<line x1="533.27" y1="29.00" x2="533.27" y2="27.00" stroke="#7f7f7f" stroke-width="1.00" clip-path="url('#clipping-rect1')" />
		<line x1="525.75" y1="29.00" x2="525.75" y2="27.00" stroke="#7f7f7f" stroke-width="1.00" clip-path="url('#clipping-rect1')" />
		<line x1="518.24" y1="29.00" x2="518.24" y2="27.00" stroke="#7f7f7f" stroke-width="1.00" clip-path="url('#clipping-rect1')" />
		<line x1="510.72" y1="29.00" x2="510.72" y2="27.00" stroke="#7f7f7f" stroke-width="1.00" clip-path="url('#clipping-rect1')" />
		<line x1="503.21" y1="29.00" x2="503.21" y2="26.00" stroke="#7f7f7f" stroke-width="1.00" clip-path="url('#clipping-rect1')" />
		<line x1="495.69" y1="29.00" x2="495.69" y2="27.00" stroke="#7f7f7f" stroke-width="1.00" clip-path="url('#clipping-rect1')" />
		<line x1="488.17" y1="29.00" x2="488.17" y2="27.00" stroke="#7f7f7f" stroke-width="1.00" clip-path="url('#clipping-rect1')" />
		<line x1="480.66" y1="29.00" x2="480.66" y2="27.00" stroke="#7f7f7f" stroke-width="1.00" clip-path="url('#clipping-rect1')" />
		<line x1="473.14" y1="29.00" x2="473.14" y2="27.00" stroke="#7f7f7f" stroke-width="1.00" clip-path="url('#clipping-rect1')" />
		<line x1="465.63" y1="29.00" x2="465.63" y2="26.00" stroke="#7f7f7f" stroke-width="1.00" clip-path="url('#clipping-rect1')" />
		<line x1="458.11" y1="29.00" x2="458.11" y2="27.00" stroke="#7f7f7f" stroke-width="1.00" clip-path="url('#clipping-rect1')" />
		<line x1="450.59" y1="29.00" x2="450.59" y2="27.00" stroke="#7f7f7f" stroke-width="1.00" clip-path="url('#clipping-rect1')" />
		<line x1="443.08" y1="29.00" x2="443.08" y2="27.00" stroke="#7f7f7f" stroke-width="1.00" clip-path="url('#clipping-rect1')" />
		<line x1="435.56" y1="29.00" x2="435.56" y2="27.00" stroke="#7f7f7f" stroke-width="1.00" clip-path="url('#clipping-rect1')" />
		<line x1="428.05" y1="29.00" x2="428.05" y2="26.00" stroke="#7f7f7f" stroke-width="1.00" clip-path="url('#clipping-rect1')" />
		<line x1="420.53" y1="29.00" x2="420.53" y2="27.00" stroke="#7f7f7f" stroke-width="1.00" clip-path="url('#clipping-rect1')" />
		<line x1="413.01" y1="29.00" x2="413.01" y2="27.00" stroke="#7f7f7f" stroke-width="1.00" clip-path="url('#clipping-rect1')" />
		<line x1="405.50" y1="29.00" x2="405.50" y2="27.00" stroke="#7f7f7f" stroke-width="1.00" clip-path="url('#clipping-rect1')" />
		<line x1="397.98" y1="29.00" x2="397.98" y2="27.00" stroke="#7f7f7f" stroke-width="1.00" clip-path="url('#clipping-rect1')" />
		<line x1="390.47" y1="29.00" x2="390.47" y2="26.00" stroke="#7f7f7f" stroke-width="1.00" clip-path="url('#clipping-rect1')" />
		<line x1="382.95" y1="29.00" x2="382.95" y2="27.00" stroke="#7f7f7f" stroke-width="1.00" clip-path="url('#clipping-rect1')" />
		<line x1="375.43" y1="29.00" x2="375.43" y2="27.00" stroke="#7f7f7f" stroke-width="1.00" clip-path="url('#clipping-rect1')" />
		<line x1="367.92" y1="29.00" x2="367.92" y2="27.00" stroke="#7f7f7f" stroke-width="1.00" clip-path="url('#clipping-rect1')" />
		<line x1="360.40" y1="29.00" x2="360.40" y2="27.00" stroke="#7f7f7f" stroke-width="1.00" clip-path="url('#clipping-rect1')" />
		<line x1="352.89" y1="29.00" x2="352.89" y2="26.00" stroke="#7f7f7f" stroke-width="1.00" clip-path="url('#clipping-rect1')" />
		<line x1="345.37" y1="29.00" x2="345.37" y2="27.00" stroke="#7f7f7f" stroke-width="1.00" clip-path="url('#clipping-rect1')" />
		<line x1="337.85" y1="29.00" x2="337.85" y2="27.00" stroke="#7f7f7f" stroke-width="1.00" clip-path="url('#clipping-rect1')" />
		<line x1="330.34" y1="29.00" x2="330.34" y2="27.00" stroke="#7f7f7f" stroke-width="1.00" clip-path="url('#clipping-rect1')" />
		<line x1="322.82" y1="29.00" x2="322.82" y2="27.00" stroke="#7f7f7f" stroke-width="1.00" clip-path="url('#clipping-rect1')" />
		<line x1="315.31" y1="29.00" x2="315.31" y2="26.00" stroke="#7f7f7f" stroke-width="1.00" clip-path="url('#clipping-rect1')" />
		<line x1="307.79" y1="29.00" x2="307.79" y2="27.00" stroke="#7f7f7f" stroke-width="1.00" clip-path="url('#clipping-rect1')" />
		<line x1="300.27" y1="29.00" x2="300.27" y2="27.00" stroke="#7f7f7f" stroke-width="1.00" clip-path="url('#clipping-rect1')" />
		<line x1="292.76" y1="29.00" x2="292.76" y2="27.00" stroke="#7f7f7f" stroke-width="1.00" clip-path="url('#clipping-rect1')" />
		<line x1="285.24" y1="29.00" x2="285.24" y2="27.00" stroke="#7f7f7f" stroke-width="1.00" clip-path="url('#clipping-rect1')" />
		<line x1="277.73" y1="29.00" x2="277.73" y2="26.00" stroke="#7f7f7f" stroke-width="1.00" clip-path="url('#clipping-rect1')" />
		<line x1="270.21" y1="29.00" x2="270.21" y2="27.00" stroke="#7f7f7f" stroke-width="1.00" clip-path="url('#clipping-rect1')" />
		<line x1="262.70" y1="29.00" x2="262.70" y2="27.00" stroke="#7f7f7f" stroke-width="1.00" clip-path="url('#clipping-rect1')" />
		<line x1="255.18" y1="29.00" x2="255.18" y2="27.00" stroke="#7f7f7f" stroke-width="1.00" clip-path="url('#clipping-rect1')" />
		<line x1="247.66" y1="29.00" x2="247.66" y2="27.00" stroke="#7f7f7f" stroke-width="1.00" clip-path="url('#clipping-rect1')" />
		<line x1="240.15" y1="29.00" x2="240.15" y2="26.00" stroke="#7f7f7f" stroke-width="1.00" clip-path="url('#clipping-rect1')" />
		<line x1="232.63" y1="29.00" x2="232.63" y2="27.00" stroke="#7f7f7f" stroke-width="1.00" clip-path="url('#clipping-rect1')" />
		<line x1="225.12" y1="29.00" x2="225.12" y2="27.00" stroke="#7f7f7f" stroke-width="1.00" clip-path="url('#clipping-rect1')" />
		<line x1="217.60" y1="29.00" x2="217.60" y2="27.00" stroke="#7f7f7f" stroke-width="1.00" clip-path="url('#clipping-rect1')" />
		<line x1="210.08" y1="29.00" x2="210.08" y2="27.00" stroke="#7f7f7f" stroke-width="1.00" clip-path="url('#clipping-rect1')" />
		<line x1="202.57" y1="29.00" x2="202.57" y2="26.00" stroke="#7f7f7f" stroke-width="1.00" clip-path="url('#clipping-rect1')" />
		<line x1="195.05" y1="29.00" x2="195.05" y2="27.00" stroke="#7f7f7f" stroke-width="1.00" clip-path="url('#clipping-rect1')" />
		<line x1="187.54" y1="29.00" x2="187.54" y2="27.00" stroke="#7f7f7f" stroke-width="1.00" clip-path="url('#clipping-rect1')" />
		<line x1="180.02" y1="29.00" x2="180.02" y2="27.00" stroke="#7f7f7f" stroke-width="1.00" clip-path="url('#clipping-rect1')" />
		<line x1="172.50" y1="29.00" x2="172.50" y2="27.00" stroke="#7f7f7f" stroke-width="1.00" clip-path="url('#clipping-rect1')" />
		<line x1="164.99" y1="29.00" x2="164.99" y2="26.00" stroke="#7f7f7f" stroke-width="1.00" clip-path="url('#clipping-rect1')" />
		<line x1="157.47" y1="29.00" x2="157.47" y2="27.00" stroke="#7f7f7f" stroke-width="1.00" clip-path="url('#clipping-rect1')" />
		<line x1="149.96" y1="29.00" x2="149.96" y2="27.00" stroke="#7f7f7f" stroke-width="1.00" clip-path="url('#clipping-rect1')" />
		<line x1="142.44" y1="29.00" x2="142.44" y2="27.00" stroke="#7f7f7f" stroke-width="1.00" clip-path="url('#clipping-rect1')" />
		<line x1="134.92" y1="29.00" x2="134.92" y2="27.00" stroke="#7f7f7f" stroke-width="1.00" clip-path="url('#clipping-rect1')" />
		<line x1="127.41" y1="29.00" x2="127.41" y2="26.00" stroke="#7f7f7f" stroke-width="1.00" clip-path="url('#clipping-rect1')" />
		<line x1="119.89" y1="29.00" x2="119.89" y2="27.00" stroke="#7f7f7f" stroke-width="1.00" clip-path="url('#clipping-rect1')" />
		<line x1="112.38" y1="29.00" x2="112.38" y2="27.00" stroke="#7f7f7f" stroke-width="1.00" clip-path="url('#clipping-rect1')" />
		<line x1="104.86" y1="29.00" x2="104.86" y2="27.00" stroke="#7f7f7f" stroke-width="1.00" clip-path="url('#clipping-rect1')" />
		<line x1="97.34" y1="29.00" x2="97.34" y2="27.00" stroke="#7f7f7f" stroke-width="1.00" clip-path="url('#clipping-rect1')" />
		<line x1="89.83" y1="29.00" x2="89.83" y2="26.00" stroke="#7f7f7f" stroke-width="1.00" clip-path="url('#clipping-rect1')" />
		<line x1="82.31" y1="29.00" x2="82.31" y2="27.00" stroke="#7f7f7f" stroke-width="1.00" clip-path="url('#clipping-rect1')" />
		<line x1="74.80" y1="29.00" x2="74.80" y2="27.00" stroke="#7f7f7f" stroke-width="1.00" clip-path="url('#clipping-rect1')" />
		<line x1="67.28" y1="29.00" x2="67.28" y2="27.00" stroke="#7f7f7f" stroke-width="1.00" clip-path="url('#clipping-rect1')" />
		<line x1="59.76" y1="29.00" x2="59.76" y2="27.00" stroke="#7f7f7f" stroke-width="1.00" clip-path="url('#clipping-rect1')" />
		<line x1="52.25" y1="29.00" x2="52.25" y2="26.00" stroke="#7f7f7f" stroke-width="1.00" clip-path="url('#clipping-rect1')" />
		<line x1="44.73" y1="29.00" x2="44.73" y2="27.00" stroke="#7f7f7f" stroke-width="1.00" clip-path="url('#clipping-rect1')" />
		<line x1="37.22" y1="29.00" x2="37.22" y2="27.00" stroke="#7f7f7f" stroke-width="1.00" clip-path="url('#clipping-rect1')" />
		<line x1="29.70" y1="29.00" x2="29.70" y2="27.00" stroke="#7f7f7f" stroke-width="1.00" clip-path="url('#clipping-rect1')" />
		<line x1="22.19" y1="29.00" x2="22.19" y2="27.00" stroke="#7f7f7f" stroke-width="1.00" clip-path="url('#clipping-rect1')" />
		<line x1="14.67" y1="29.00" x2="14.67" y2="26.00" stroke="#7f7f7f" stroke-width="1.00" clip-path="url('#clipping-rect1')" />
		<line x1="7.15" y1="29.00" x2="7.15" y2="27.00" stroke="#7f7f7f" stroke-width="1.00" clip-path="url('#clipping-rect1')" />
		<text x="0.00" y="24.00" font-family="Helvetica" font-size="10" fill="#333333" clip-path="url('#clipping-rect1')" >233,903</text>
		<line x1="0.00" y1="31.00" x2="0.00" y2="16.00" stroke="#7f7f7f" stroke-width="1.00" clip-path="url('#clipping-rect1')" />
		<text x="876.54" y="24.00" font-family="Helvetica" font-size="10" fill="#333333" clip-path="url('#clipping-rect1')" >1</text>
		<line x1="879.00" y1="31.00" x2="879.00" y2="16.00" stroke="#7f7f7f" stroke-width="1.00" clip-path="url('#clipping-rect1')" />
		<text x="805.84" y="24.00" font-family="Helvetica" font-size="10" fill="#333333" clip-path="url('#clipping-rect1')" >20 K</text>
		<line x1="803.84" y1="31.00" x2="803.84" y2="16.00" stroke="#7f7f7f" stroke-width="1.00" clip-path="url('#clipping-rect1')" />
		<text x="730.68" y="24.00" font-family="Helvetica" font-size="10" fill="#333333" clip-path="url('#clipping-rect1')" >40 K</text>
		<line x1="728.68" y1="31.00" x2="728.68" y2="16.00" stroke="#7f7f7f" stroke-width="1.00" clip-path="url('#clipping-rect1')" />
		<text x="655.52" y="24.00" font-family="Helvetica" font-size="10" fill="#333333" clip-path="url('#clipping-rect1')" >60 K</text>
		<line x1="653.52" y1="31.00" x2="653.52" y2="16.00" stroke="#7f7f7f" stroke-width="1.00" clip-path="url('#clipping-rect1')" />
		<text x="580.36" y="24.00" font-family="Helvetica" font-size="10" fill="#333333" clip-path="url('#clipping-rect1')" >80 K</text>
		<line x1="578.36" y1="31.00" x2="578.36" y2="16.00" stroke="#7f7f7f" stroke-width="1.00" clip-path="url('#clipping-rect1')" />
		<text x="505.21" y="24.00" font-family="Helvetica" font-size="10" fill="#333333" clip-path="url('#clipping-rect1')" >100 K</text>
		<line x1="503.21" y1="31.00" x2="503.21" y2="16.00" stroke="#7f7f7f" stroke-width="1.00" clip-path="url('#clipping-rect1')" />
		<text x="430.05" y="24.00" font-family="Helvetica" font-size="10" fill="#333333" clip-path="url('#clipping-rect1')" >120 K</text>
		<line x1="428.05" y1="31.00" x2="428.05" y2="16.00" stroke="#7f7f7f" stroke-width="1.00" clip-path="url('#clipping-rect1')" />
		<text x="354.89" y="24.00" font-family="Helvetica" font-size="10" fill="#333333" clip-path="url('#clipping-rect1')" >140 K</text>
		<line x1="352.89" y1="31.00" x2="352.89" y2="16.00" stroke="#7f7f7f" stroke-width="1.00" clip-path="url('#clipping-rect1')" />
		<text x="279.73" y="24.00" font-family="Helvetica" font-size="10" fill="#333333" clip-path="url('#clipping-rect1')" >160 K</text>
		<line x1="277.73" y1="31.00" x2="277.73" y2="16.00" stroke="#7f7f7f" stroke-width="1.00" clip-path="url('#clipping-rect1')" />
		<text x="204.57" y="24.00" font-family="Helvetica" font-size="10" fill="#333333" clip-path="url('#clipping-rect1')" >180 K</text>
		<line x1="202.57" y1="31.00" x2="202.57" y2="16.00" stroke="#7f7f7f" stroke-width="1.00" clip-path="url('#clipping-rect1')" />
		<text x="129.41" y="24.00" font-family="Helvetica" font-size="10" fill="#333333" clip-path="url('#clipping-rect1')" >200 K</text>
		<line x1="127.41" y1="31.00" x2="127.41" y2="16.00" stroke="#7f7f7f" stroke-width="1.00" clip-path="url('#clipping-rect1')" />
		<line x1="879.00" y1="146.00" x2="879.00" y2="31.00" stroke="#ebebeb" stroke-width="1.00" />
		<line x1="803.91" y1="146.00" x2="803.91" y2="31.00" stroke="#ebebeb" stroke-width="1.00" />
		<line x1="728.83" y1="146.00" x2="728.83" y2="31.00" stroke="#ebebeb" stroke-width="1.00" />
		<line x1="653.74" y1="146.00" x2="653.74" y2="31.00" stroke="#ebebeb" stroke-width="1.00" />
		<line x1="578.66" y1="146.00" x2="578.66" y2="31.00" stroke="#ebebeb" stroke-width="1.00" />
		<line x1="503.57" y1="146.00" x2="503.57" y2="31.00" stroke="#ebebeb" stroke-width="1.00" />
		<line x1="428.49" y1="146.00" x2="428.49" y2="31.00" stroke="#ebebeb" stroke-width="1.00" />
		<line x1="352.40" y1="146.00" x2="352.40" y2="31.00" stroke="#ebebeb" stroke-width="1.00" />
		<line x1="277.32" y1="146.00" x2="277.32" y2="31.00" stroke="#ebebeb" stroke-width="1.00" />
		<line x1="202.23" y1="146.00" x2="202.23" y2="31.00" stroke="#ebebeb" stroke-width="1.00" />
		<line x1="127.14" y1="146.00" x2="127.14" y2="31.00" stroke="#ebebeb" stroke-width="1.00" />
		<line x1="52.06" y1="146.00" x2="52.06" y2="31.00" stroke="#ebebeb" stroke-width="1.00" />
		<polygon fill="url('#gradient1')" shape-rendering="crispEdges" points="0.00,37.50 0.00,33.00 879.00,33.00 879.00,37.50 879.00,42.00 0.00,42.00 " />
		<line x1="879.00" y1="42.00" x2="879.00" y2="33.00" stroke="#6c6c6c" stroke-width="1.00" stroke-linejoin="round" />
		<line x1="879.00" y1="33.00" x2="0.00" y2="33.00" stroke="#6c6c6c" stroke-width="1.00" stroke-linejoin="round" />
		<line x1="0.00" y1="33.00" x2="0.00" y2="42.00" stroke="#6c6c6c" stroke-width="1.00" stroke-linejoin="round" />
		<line x1="879.00" y1="42.00" x2="0.00" y2="42.00" stroke="#6c6c6c" stroke-width="1.00" stroke-linejoin="round" />
		<polygon fill="url('#gradient2')" shape-rendering="crispEdges" points="0.00,58.00 879.00,58.00 879.00,44.00 0.00,44.00 " clip-path="url('#clipping-rect2')" />
		<text x="0.00" y="54.00" font-family="Helvetica" font-size="12" fill="#333333" >(U) Alignment for group templates, BLAST Results for: ref|NM_004727.3|</text>
		<polygon fill="url('#gradient2')" shape-rendering="crispEdges" points="0.00,74.00 879.00,74.00 879.00,60.00 0.00,60.00 " clip-path="url('#clipping-rect2')" />
		<text x="0.00" y="70.00" font-family="Helvetica" font-size="12" fill="#333333" >(U) BLAST Results for: ref|NM_004727.3|</text>
		<polygon fill="url('#gradient2')" shape-rendering="crispEdges" points="0.00,90.00 879.00,90.00 879.00,76.00 0.00,76.00 " clip-path="url('#clipping-rect2')" />
		<text x="0.00" y="86.00" font-family="Helvetica" font-size="12" fill="#333333" >(U) Alignment for group templates, BLAST Results for: ref|NM_004727.3|</text>
		<polygon fill="url('#gradient2')" shape-rendering="crispEdges" points="0.00,106.00 879.00,106.00 879.00,92.00 0.00,92.00 " clip-path="url('#clipping-rect2')" />
		<text x="0.00" y="102.00" font-family="Helvetica" font-size="12" fill="#333333" >(U) BLAST Results for: ref|NM_004727.3|</text>
		<line x1="686.01" y1="127.00" x2="686.01" y2="142.00" stroke="#009900" stroke-opacity="0.10" stroke-width="1.00" stroke-linejoin="round" />
		<line x1="686.01" y1="142.00" x2="239.76" y2="142.00" stroke="#009900" stroke-opacity="0.10" stroke-width="1.00" stroke-linejoin="round" />
		<line x1="239.76" y1="142.00" x2="239.76" y2="127.00" stroke="#009900" stroke-opacity="0.10" stroke-width="1.00" stroke-linejoin="round" />
		<line x1="686.01" y1="127.00" x2="239.76" y2="127.00" stroke="#009900" stroke-opacity="0.10" stroke-width="1.00" stroke-linejoin="round" />
		<polygon fill="#8ac38a" shape-rendering="crispEdges" points="683.35,129.00 683.35,140.00 684.35,140.00 684.35,129.00 " />
		<line x1="683.69" y1="134.50" x2="683.52" y2="134.50" stroke="#4ba34b" stroke-width="2.00" />
		<polygon fill="#53a753" shape-rendering="crispEdges" points="682.90,129.00 682.90,140.00 683.90,140.00 683.90,129.00 " />
		<polygon fill="#1e8c1e" shape-rendering="crispEdges" points="682.44,129.00 682.44,140.00 683.44,140.00 683.44,129.00 " />
		<line x1="682.61" y1="134.50" x2="593.97" y2="134.50" stroke="#4ba34b" stroke-width="2.00" />
		<polygon fill="#b2b2b2" shape-rendering="crispEdges" points="642.69,134.50 633.89,130.10 636.09,134.50 633.89,138.90 " />
		<polygon fill="#1e8c1e" shape-rendering="crispEdges" points="592.90,129.00 592.90,140.00 593.97,140.00 593.97,129.00 " />
		<line x1="592.90" y1="134.50" x2="379.00" y2="134.50" stroke="#4ba34b" stroke-width="2.00" />
		<polygon fill="#b2b2b2" shape-rendering="crispEdges" points="540.35,134.50 531.55,130.10 533.75,134.50 531.55,138.90 " />
		<polygon fill="#9d9d9d" shape-rendering="crispEdges" points="440.35,134.50 431.55,130.10 433.75,134.50 431.55,138.90 " />
		<polygon fill="#1e8c1e" shape-rendering="crispEdges" points="378.02,129.00 378.02,140.00 379.02,140.00 379.02,129.00 " />
		<polygon fill="#53a753" shape-rendering="crispEdges" points="377.48,129.00 377.48,140.00 378.48,140.00 378.48,129.00 " />
		<line x1="377.91" y1="134.50" x2="376.06" y2="134.50" stroke="#4ba34b" stroke-width="2.00" />
		<polygon fill="#8ac38a" shape-rendering="crispEdges" points="375.51,129.00 375.51,140.00 376.51,140.00 376.51,129.00 " />
		<line x1="375.96" y1="134.50" x2="375.05" y2="134.50" stroke="#4ba34b" stroke-width="2.00" />
		<polygon fill="#8ac38a" shape-rendering="crispEdges" points="374.53,129.00 374.53,140.00 375.53,140.00 375.53,129.00 " />
		<polygon fill="#ffffff" shape-rendering="crispEdges" points="241.76,140.00 241.76,129.00 371.01,129.00 371.01,140.00 " />
		<text x="242.76" y="138.00" font-family="Helvetica" font-size="10" fill="#124d94" >ENSSPUG00000004346 [+6]</text>
		<polygon fill="url('#gradient3')" shape-rendering="crispEdges" points="0.00,122.00 879.00,122.00 879.00,108.00 0.00,108.00 " clip-path="url('#clipping-rect2')" />
		<text x="0.00" y="118.00" font-family="Helvetica" font-size="12" fill="#333333" >Genes, Ensembl release 114</text>
		<polygon fill="#0000ff" fill-opacity="0.20" shape-rendering="crispEdges" points="529.50,31.50 529.50,23.10 529.50,23.10 " />
		<polygon fill="#0000ff" fill-opacity="0.20" shape-rendering="crispEdges" points="529.50,31.50 529.50,31.50 529.50,23.10 " />
		<line x1="529.50" y1="30.50" x2="529.50" y2="23.10" stroke="#0000ff" stroke-opacity="0.40" stroke-width="1.00" />
		<line x1="529.50" y1="30.50" x2="529.50" y2="23.10" stroke="#0000ff" stroke-opacity="0.40" stroke-width="1.00" />
		<polygon fill="#0000ff" shape-rendering="crispEdges" points="523.79,22.35 523.50,20.50 523.79,18.65 524.65,16.97 525.97,15.65 527.65,14.79 529.50,14.50 529.50,26.50 527.65,26.21 525.97,25.35 524.65,24.03 " />
		<polygon fill="#0000ff" fill-opacity="0.60" shape-rendering="crispEdges" points="580.44,26.50 580.44,14.50 529.50,14.50 529.50,26.50 " />
		<text x="531.50" y="23.50" font-family="Helvetica" font-size="10" fill="#ffffff" >MSANTD1</text>
		<polygon fill="#0000ff" fill-opacity="0.20" shape-rendering="crispEdges" points="529.60,147.01 529.60,31.00 529.60,31.00 " />
		<polygon fill="#0000ff" fill-opacity="0.20" shape-rendering="crispEdges" points="529.60,147.01 529.60,147.01 529.60,31.00 " />
		<line x1="529.60" y1="146.00" x2="529.60" y2="31.00" stroke="#0000ff" stroke-opacity="0.40" stroke-width="1.00" />
		<line x1="529.60" y1="146.00" x2="529.60" y2="31.00" stroke="#0000ff" stroke-opacity="0.40" stroke-width="1.00" />
		<polygon fill="#e5e5e5" shape-rendering="crispEdges" points="879.00,13.00 879.00,-1.00 0.00,-1.00 0.00,13.00 " />
		<text x="0.00" y="10.00" font-family="Helvetica Bold" font-size="12" text-anchor="start" fill="#000000" >QEPC01011648.1:0..233903 Sphenodon punctatus isolate mauimua-1 ScrUdWx_5519, whole genome shotgun sequence</text>
	</g>
</svg>
