<?xml version="1.0" standalone="no" ?>
<!DOCTYPE svg PUBLIC "-//W3C//DTD SVG 1.1//EN" "http://www.w3.org/Graphics/SVG/1.1/DTD/svg11.dtd">
<svg width="879px" height="189px" xmlns="http://www.w3.org/2000/svg" version="1.1" viewBox="0 0 879 189" >
	<style type="text/css" > <![CDATA[
		@import url("https://www.ncbi.nlm.nih.gov/projects/sviewer/css/svg_fonts.css");
	]]>
	</style>
	<desc >Generated by NCBI Genome Workbench http://www.ncbi.nlm.nih.gov/tools/gbench/</desc>
	<defs >
		<clipPath id="clipping-rect1" >
			<rect x="0" y="14" width="879" height="18" />
		</clipPath>
		<linearGradient id="gradient1" gradientTransform="rotate(90)" >
			<stop offset="0%" stop-color="#6c6c6c" />
			<stop offset="50%" stop-color="#b5b5b5" />
			<stop offset="100%" stop-color="#6c6c6c" />
		</linearGradient>
		<clipPath id="clipping-rect2" >
			<rect x="0" y="32" width="879" height="157" />
		</clipPath>
		<linearGradient id="gradient2" gradientTransform="rotate(90)" >
			<stop offset="0%" stop-color="#b6dead" />
			<stop offset="100%" stop-color="#ffffff" stop-opacity="0.00" />
		</linearGradient>
		<linearGradient id="gradient3" gradientTransform="rotate(90)" >
			<stop offset="0%" stop-color="#e6e6e6" stop-opacity="0.71" />
			<stop offset="100%" stop-color="#ffffff" stop-opacity="0.00" />
		</linearGradient>
	</defs>
	<g >
		<polygon fill="#ffffff" shape-rendering="crispEdges" points="879.00,31.00 879.00,13.00 0.00,13.00 0.00,31.00 " />
		<line x1="0.00" y1="28.88" x2="879.00" y2="28.88" stroke="#7f7f7f" stroke-width="1.00" clip-path="url('#clipping-rect1')" />
		<line x1="7.69" y1="28.88" x2="7.69" y2="26.76" stroke="#7f7f7f" stroke-width="1.00" clip-path="url('#clipping-rect1')" />
		<line x1="15.38" y1="28.88" x2="15.38" y2="25.71" stroke="#7f7f7f" stroke-width="1.00" clip-path="url('#clipping-rect1')" />
		<line x1="23.07" y1="28.88" x2="23.07" y2="26.76" stroke="#7f7f7f" stroke-width="1.00" clip-path="url('#clipping-rect1')" />
		<line x1="30.75" y1="28.88" x2="30.75" y2="25.71" stroke="#7f7f7f" stroke-width="1.00" clip-path="url('#clipping-rect1')" />
		<line x1="38.44" y1="28.88" x2="38.44" y2="26.76" stroke="#7f7f7f" stroke-width="1.00" clip-path="url('#clipping-rect1')" />
		<line x1="46.13" y1="28.88" x2="46.13" y2="25.71" stroke="#7f7f7f" stroke-width="1.00" clip-path="url('#clipping-rect1')" />
		<line x1="53.82" y1="28.88" x2="53.82" y2="26.76" stroke="#7f7f7f" stroke-width="1.00" clip-path="url('#clipping-rect1')" />
		<line x1="61.51" y1="28.88" x2="61.51" y2="25.71" stroke="#7f7f7f" stroke-width="1.00" clip-path="url('#clipping-rect1')" />
		<line x1="69.20" y1="28.88" x2="69.20" y2="26.76" stroke="#7f7f7f" stroke-width="1.00" clip-path="url('#clipping-rect1')" />
		<line x1="76.89" y1="28.88" x2="76.89" y2="25.71" stroke="#7f7f7f" stroke-width="1.00" clip-path="url('#clipping-rect1')" />
		<line x1="84.57" y1="28.88" x2="84.57" y2="26.76" stroke="#7f7f7f" stroke-width="1.00" clip-path="url('#clipping-rect1')" />
		<line x1="92.26" y1="28.88" x2="92.26" y2="25.71" stroke="#7f7f7f" stroke-width="1.00" clip-path="url('#clipping-rect1')" />
		<line x1="99.95" y1="28.88" x2="99.95" y2="26.76" stroke="#7f7f7f" stroke-width="1.00" clip-path="url('#clipping-rect1')" />
		<line x1="107.64" y1="28.88" x2="107.64" y2="25.71" stroke="#7f7f7f" stroke-width="1.00" clip-path="url('#clipping-rect1')" />
		<line x1="115.33" y1="28.88" x2="115.33" y2="26.76" stroke="#7f7f7f" stroke-width="1.00" clip-path="url('#clipping-rect1')" />
		<line x1="123.02" y1="28.88" x2="123.02" y2="25.71" stroke="#7f7f7f" stroke-width="1.00" clip-path="url('#clipping-rect1')" />
		<line x1="130.71" y1="28.88" x2="130.71" y2="26.76" stroke="#7f7f7f" stroke-width="1.00" clip-path="url('#clipping-rect1')" />
		<line x1="138.39" y1="28.88" x2="138.39" y2="25.71" stroke="#7f7f7f" stroke-width="1.00" clip-path="url('#clipping-rect1')" />
		<line x1="146.08" y1="28.88" x2="146.08" y2="26.76" stroke="#7f7f7f" stroke-width="1.00" clip-path="url('#clipping-rect1')" />
		<line x1="153.77" y1="28.88" x2="153.77" y2="25.71" stroke="#7f7f7f" stroke-width="1.00" clip-path="url('#clipping-rect1')" />
		<line x1="161.46" y1="28.88" x2="161.46" y2="26.76" stroke="#7f7f7f" stroke-width="1.00" clip-path="url('#clipping-rect1')" />
		<line x1="169.15" y1="28.88" x2="169.15" y2="25.71" stroke="#7f7f7f" stroke-width="1.00" clip-path="url('#clipping-rect1')" />
		<line x1="176.84" y1="28.88" x2="176.84" y2="26.76" stroke="#7f7f7f" stroke-width="1.00" clip-path="url('#clipping-rect1')" />
		<line x1="184.53" y1="28.88" x2="184.53" y2="25.71" stroke="#7f7f7f" stroke-width="1.00" clip-path="url('#clipping-rect1')" />
		<line x1="192.22" y1="28.88" x2="192.22" y2="26.76" stroke="#7f7f7f" stroke-width="1.00" clip-path="url('#clipping-rect1')" />
		<line x1="199.90" y1="28.88" x2="199.90" y2="25.71" stroke="#7f7f7f" stroke-width="1.00" clip-path="url('#clipping-rect1')" />
		<line x1="207.59" y1="28.88" x2="207.59" y2="26.76" stroke="#7f7f7f" stroke-width="1.00" clip-path="url('#clipping-rect1')" />
		<line x1="215.28" y1="28.88" x2="215.28" y2="25.71" stroke="#7f7f7f" stroke-width="1.00" clip-path="url('#clipping-rect1')" />
		<line x1="222.97" y1="28.88" x2="222.97" y2="26.76" stroke="#7f7f7f" stroke-width="1.00" clip-path="url('#clipping-rect1')" />
		<line x1="230.66" y1="28.88" x2="230.66" y2="25.71" stroke="#7f7f7f" stroke-width="1.00" clip-path="url('#clipping-rect1')" />
		<line x1="238.35" y1="28.88" x2="238.35" y2="26.76" stroke="#7f7f7f" stroke-width="1.00" clip-path="url('#clipping-rect1')" />
		<line x1="246.04" y1="28.88" x2="246.04" y2="25.71" stroke="#7f7f7f" stroke-width="1.00" clip-path="url('#clipping-rect1')" />
		<line x1="253.72" y1="28.88" x2="253.72" y2="26.76" stroke="#7f7f7f" stroke-width="1.00" clip-path="url('#clipping-rect1')" />
		<line x1="261.41" y1="28.88" x2="261.41" y2="25.71" stroke="#7f7f7f" stroke-width="1.00" clip-path="url('#clipping-rect1')" />
		<line x1="269.10" y1="28.88" x2="269.10" y2="26.76" stroke="#7f7f7f" stroke-width="1.00" clip-path="url('#clipping-rect1')" />
		<line x1="276.79" y1="28.88" x2="276.79" y2="25.71" stroke="#7f7f7f" stroke-width="1.00" clip-path="url('#clipping-rect1')" />
		<line x1="284.48" y1="28.88" x2="284.48" y2="26.76" stroke="#7f7f7f" stroke-width="1.00" clip-path="url('#clipping-rect1')" />
		<line x1="292.17" y1="28.88" x2="292.17" y2="25.71" stroke="#7f7f7f" stroke-width="1.00" clip-path="url('#clipping-rect1')" />
		<line x1="299.86" y1="28.88" x2="299.86" y2="26.76" stroke="#7f7f7f" stroke-width="1.00" clip-path="url('#clipping-rect1')" />
		<line x1="307.54" y1="28.88" x2="307.54" y2="25.71" stroke="#7f7f7f" stroke-width="1.00" clip-path="url('#clipping-rect1')" />
		<line x1="315.23" y1="28.88" x2="315.23" y2="26.76" stroke="#7f7f7f" stroke-width="1.00" clip-path="url('#clipping-rect1')" />
		<line x1="322.92" y1="28.88" x2="322.92" y2="25.71" stroke="#7f7f7f" stroke-width="1.00" clip-path="url('#clipping-rect1')" />
		<line x1="330.61" y1="28.88" x2="330.61" y2="26.76" stroke="#7f7f7f" stroke-width="1.00" clip-path="url('#clipping-rect1')" />
		<line x1="338.30" y1="28.88" x2="338.30" y2="25.71" stroke="#7f7f7f" stroke-width="1.00" clip-path="url('#clipping-rect1')" />
		<line x1="345.99" y1="28.88" x2="345.99" y2="26.76" stroke="#7f7f7f" stroke-width="1.00" clip-path="url('#clipping-rect1')" />
		<line x1="353.68" y1="28.88" x2="353.68" y2="25.71" stroke="#7f7f7f" stroke-width="1.00" clip-path="url('#clipping-rect1')" />
		<line x1="361.37" y1="28.88" x2="361.37" y2="26.76" stroke="#7f7f7f" stroke-width="1.00" clip-path="url('#clipping-rect1')" />
		<line x1="369.05" y1="28.88" x2="369.05" y2="25.71" stroke="#7f7f7f" stroke-width="1.00" clip-path="url('#clipping-rect1')" />
		<line x1="376.74" y1="28.88" x2="376.74" y2="26.76" stroke="#7f7f7f" stroke-width="1.00" clip-path="url('#clipping-rect1')" />
		<line x1="384.43" y1="28.88" x2="384.43" y2="25.71" stroke="#7f7f7f" stroke-width="1.00" clip-path="url('#clipping-rect1')" />
		<line x1="392.12" y1="28.88" x2="392.12" y2="26.76" stroke="#7f7f7f" stroke-width="1.00" clip-path="url('#clipping-rect1')" />
		<line x1="399.81" y1="28.88" x2="399.81" y2="25.71" stroke="#7f7f7f" stroke-width="1.00" clip-path="url('#clipping-rect1')" />
		<line x1="407.50" y1="28.88" x2="407.50" y2="26.76" stroke="#7f7f7f" stroke-width="1.00" clip-path="url('#clipping-rect1')" />
		<line x1="415.19" y1="28.88" x2="415.19" y2="25.71" stroke="#7f7f7f" stroke-width="1.00" clip-path="url('#clipping-rect1')" />
		<line x1="422.87" y1="28.88" x2="422.87" y2="26.76" stroke="#7f7f7f" stroke-width="1.00" clip-path="url('#clipping-rect1')" />
		<line x1="430.56" y1="28.88" x2="430.56" y2="25.71" stroke="#7f7f7f" stroke-width="1.00" clip-path="url('#clipping-rect1')" />
		<line x1="438.25" y1="28.88" x2="438.25" y2="26.76" stroke="#7f7f7f" stroke-width="1.00" clip-path="url('#clipping-rect1')" />
		<line x1="445.94" y1="28.88" x2="445.94" y2="25.71" stroke="#7f7f7f" stroke-width="1.00" clip-path="url('#clipping-rect1')" />
		<line x1="453.63" y1="28.88" x2="453.63" y2="26.76" stroke="#7f7f7f" stroke-width="1.00" clip-path="url('#clipping-rect1')" />
		<line x1="461.32" y1="28.88" x2="461.32" y2="25.71" stroke="#7f7f7f" stroke-width="1.00" clip-path="url('#clipping-rect1')" />
		<line x1="469.01" y1="28.88" x2="469.01" y2="26.76" stroke="#7f7f7f" stroke-width="1.00" clip-path="url('#clipping-rect1')" />
		<line x1="476.69" y1="28.88" x2="476.69" y2="25.71" stroke="#7f7f7f" stroke-width="1.00" clip-path="url('#clipping-rect1')" />
		<line x1="484.38" y1="28.88" x2="484.38" y2="26.76" stroke="#7f7f7f" stroke-width="1.00" clip-path="url('#clipping-rect1')" />
		<line x1="492.07" y1="28.88" x2="492.07" y2="25.71" stroke="#7f7f7f" stroke-width="1.00" clip-path="url('#clipping-rect1')" />
		<line x1="499.76" y1="28.88" x2="499.76" y2="26.76" stroke="#7f7f7f" stroke-width="1.00" clip-path="url('#clipping-rect1')" />
		<line x1="507.45" y1="28.88" x2="507.45" y2="25.71" stroke="#7f7f7f" stroke-width="1.00" clip-path="url('#clipping-rect1')" />
		<line x1="515.14" y1="28.88" x2="515.14" y2="26.76" stroke="#7f7f7f" stroke-width="1.00" clip-path="url('#clipping-rect1')" />
		<line x1="522.83" y1="28.88" x2="522.83" y2="25.71" stroke="#7f7f7f" stroke-width="1.00" clip-path="url('#clipping-rect1')" />
		<line x1="530.51" y1="28.88" x2="530.51" y2="26.76" stroke="#7f7f7f" stroke-width="1.00" clip-path="url('#clipping-rect1')" />
		<line x1="538.20" y1="28.88" x2="538.20" y2="25.71" stroke="#7f7f7f" stroke-width="1.00" clip-path="url('#clipping-rect1')" />
		<line x1="545.89" y1="28.88" x2="545.89" y2="26.76" stroke="#7f7f7f" stroke-width="1.00" clip-path="url('#clipping-rect1')" />
		<line x1="553.58" y1="28.88" x2="553.58" y2="25.71" stroke="#7f7f7f" stroke-width="1.00" clip-path="url('#clipping-rect1')" />
		<line x1="561.27" y1="28.88" x2="561.27" y2="26.76" stroke="#7f7f7f" stroke-width="1.00" clip-path="url('#clipping-rect1')" />
		<line x1="568.96" y1="28.88" x2="568.96" y2="25.71" stroke="#7f7f7f" stroke-width="1.00" clip-path="url('#clipping-rect1')" />
		<line x1="576.65" y1="28.88" x2="576.65" y2="26.76" stroke="#7f7f7f" stroke-width="1.00" clip-path="url('#clipping-rect1')" />
		<line x1="584.34" y1="28.88" x2="584.34" y2="25.71" stroke="#7f7f7f" stroke-width="1.00" clip-path="url('#clipping-rect1')" />
		<line x1="592.02" y1="28.88" x2="592.02" y2="26.76" stroke="#7f7f7f" stroke-width="1.00" clip-path="url('#clipping-rect1')" />
		<line x1="599.71" y1="28.88" x2="599.71" y2="25.71" stroke="#7f7f7f" stroke-width="1.00" clip-path="url('#clipping-rect1')" />
		<line x1="607.40" y1="28.88" x2="607.40" y2="26.76" stroke="#7f7f7f" stroke-width="1.00" clip-path="url('#clipping-rect1')" />
		<line x1="615.09" y1="28.88" x2="615.09" y2="25.71" stroke="#7f7f7f" stroke-width="1.00" clip-path="url('#clipping-rect1')" />
		<line x1="622.78" y1="28.88" x2="622.78" y2="26.76" stroke="#7f7f7f" stroke-width="1.00" clip-path="url('#clipping-rect1')" />
		<line x1="630.47" y1="28.88" x2="630.47" y2="25.71" stroke="#7f7f7f" stroke-width="1.00" clip-path="url('#clipping-rect1')" />
		<line x1="638.16" y1="28.88" x2="638.16" y2="26.76" stroke="#7f7f7f" stroke-width="1.00" clip-path="url('#clipping-rect1')" />
		<line x1="645.84" y1="28.88" x2="645.84" y2="25.71" stroke="#7f7f7f" stroke-width="1.00" clip-path="url('#clipping-rect1')" />
		<line x1="653.53" y1="28.88" x2="653.53" y2="26.76" stroke="#7f7f7f" stroke-width="1.00" clip-path="url('#clipping-rect1')" />
		<line x1="661.22" y1="28.88" x2="661.22" y2="25.71" stroke="#7f7f7f" stroke-width="1.00" clip-path="url('#clipping-rect1')" />
		<line x1="668.91" y1="28.88" x2="668.91" y2="26.76" stroke="#7f7f7f" stroke-width="1.00" clip-path="url('#clipping-rect1')" />
		<line x1="676.60" y1="28.88" x2="676.60" y2="25.71" stroke="#7f7f7f" stroke-width="1.00" clip-path="url('#clipping-rect1')" />
		<line x1="684.29" y1="28.88" x2="684.29" y2="26.76" stroke="#7f7f7f" stroke-width="1.00" clip-path="url('#clipping-rect1')" />
		<line x1="691.98" y1="28.88" x2="691.98" y2="25.71" stroke="#7f7f7f" stroke-width="1.00" clip-path="url('#clipping-rect1')" />
		<line x1="699.66" y1="28.88" x2="699.66" y2="26.76" stroke="#7f7f7f" stroke-width="1.00" clip-path="url('#clipping-rect1')" />
		<line x1="707.35" y1="28.88" x2="707.35" y2="25.71" stroke="#7f7f7f" stroke-width="1.00" clip-path="url('#clipping-rect1')" />
		<line x1="715.04" y1="28.88" x2="715.04" y2="26.76" stroke="#7f7f7f" stroke-width="1.00" clip-path="url('#clipping-rect1')" />
		<line x1="722.73" y1="28.88" x2="722.73" y2="25.71" stroke="#7f7f7f" stroke-width="1.00" clip-path="url('#clipping-rect1')" />
		<line x1="730.42" y1="28.88" x2="730.42" y2="26.76" stroke="#7f7f7f" stroke-width="1.00" clip-path="url('#clipping-rect1')" />
		<line x1="738.11" y1="28.88" x2="738.11" y2="25.71" stroke="#7f7f7f" stroke-width="1.00" clip-path="url('#clipping-rect1')" />
		<line x1="745.80" y1="28.88" x2="745.80" y2="26.76" stroke="#7f7f7f" stroke-width="1.00" clip-path="url('#clipping-rect1')" />
		<line x1="753.49" y1="28.88" x2="753.49" y2="25.71" stroke="#7f7f7f" stroke-width="1.00" clip-path="url('#clipping-rect1')" />
		<line x1="761.17" y1="28.88" x2="761.17" y2="26.76" stroke="#7f7f7f" stroke-width="1.00" clip-path="url('#clipping-rect1')" />
		<line x1="768.86" y1="28.88" x2="768.86" y2="25.71" stroke="#7f7f7f" stroke-width="1.00" clip-path="url('#clipping-rect1')" />
		<line x1="776.55" y1="28.88" x2="776.55" y2="26.76" stroke="#7f7f7f" stroke-width="1.00" clip-path="url('#clipping-rect1')" />
		<line x1="784.24" y1="28.88" x2="784.24" y2="25.71" stroke="#7f7f7f" stroke-width="1.00" clip-path="url('#clipping-rect1')" />
		<line x1="791.93" y1="28.88" x2="791.93" y2="26.76" stroke="#7f7f7f" stroke-width="1.00" clip-path="url('#clipping-rect1')" />
		<line x1="799.62" y1="28.88" x2="799.62" y2="25.71" stroke="#7f7f7f" stroke-width="1.00" clip-path="url('#clipping-rect1')" />
		<line x1="807.31" y1="28.88" x2="807.31" y2="26.76" stroke="#7f7f7f" stroke-width="1.00" clip-path="url('#clipping-rect1')" />
		<line x1="814.99" y1="28.88" x2="814.99" y2="25.71" stroke="#7f7f7f" stroke-width="1.00" clip-path="url('#clipping-rect1')" />
		<line x1="822.68" y1="28.88" x2="822.68" y2="26.76" stroke="#7f7f7f" stroke-width="1.00" clip-path="url('#clipping-rect1')" />
		<line x1="830.37" y1="28.88" x2="830.37" y2="25.71" stroke="#7f7f7f" stroke-width="1.00" clip-path="url('#clipping-rect1')" />
		<line x1="838.06" y1="28.88" x2="838.06" y2="26.76" stroke="#7f7f7f" stroke-width="1.00" clip-path="url('#clipping-rect1')" />
		<line x1="845.75" y1="28.88" x2="845.75" y2="25.71" stroke="#7f7f7f" stroke-width="1.00" clip-path="url('#clipping-rect1')" />
		<line x1="853.44" y1="28.88" x2="853.44" y2="26.76" stroke="#7f7f7f" stroke-width="1.00" clip-path="url('#clipping-rect1')" />
		<line x1="861.13" y1="28.88" x2="861.13" y2="25.71" stroke="#7f7f7f" stroke-width="1.00" clip-path="url('#clipping-rect1')" />
		<line x1="868.81" y1="28.88" x2="868.81" y2="26.76" stroke="#7f7f7f" stroke-width="1.00" clip-path="url('#clipping-rect1')" />
		<line x1="876.50" y1="28.88" x2="876.50" y2="25.71" stroke="#7f7f7f" stroke-width="1.00" clip-path="url('#clipping-rect1')" />
		<text x="0.00" y="23.59" font-family="Helvetica" font-size="10" fill="#333333" clip-path="url('#clipping-rect1')" >1</text>
		<line x1="0.00" y1="31.00" x2="0.00" y2="15.12" stroke="#7f7f7f" stroke-width="1.00" clip-path="url('#clipping-rect1')" />
		<text x="843.70" y="23.59" font-family="Helvetica" font-size="10" fill="#333333" clip-path="url('#clipping-rect1')" >571,623</text>
		<line x1="879.00" y1="31.00" x2="879.00" y2="15.12" stroke="#7f7f7f" stroke-width="1.00" clip-path="url('#clipping-rect1')" />
		<text x="770.86" y="23.59" font-family="Helvetica" font-size="10" fill="#333333" clip-path="url('#clipping-rect1')" >500 K</text>
		<line x1="768.86" y1="31.00" x2="768.86" y2="15.12" stroke="#7f7f7f" stroke-width="1.00" clip-path="url('#clipping-rect1')" />
		<text x="693.98" y="23.59" font-family="Helvetica" font-size="10" fill="#333333" clip-path="url('#clipping-rect1')" >450 K</text>
		<line x1="691.98" y1="31.00" x2="691.98" y2="15.12" stroke="#7f7f7f" stroke-width="1.00" clip-path="url('#clipping-rect1')" />
		<text x="617.09" y="23.59" font-family="Helvetica" font-size="10" fill="#333333" clip-path="url('#clipping-rect1')" >400 K</text>
		<line x1="615.09" y1="31.00" x2="615.09" y2="15.12" stroke="#7f7f7f" stroke-width="1.00" clip-path="url('#clipping-rect1')" />
		<text x="540.20" y="23.59" font-family="Helvetica" font-size="10" fill="#333333" clip-path="url('#clipping-rect1')" >350 K</text>
		<line x1="538.20" y1="31.00" x2="538.20" y2="15.12" stroke="#7f7f7f" stroke-width="1.00" clip-path="url('#clipping-rect1')" />
		<text x="463.32" y="23.59" font-family="Helvetica" font-size="10" fill="#333333" clip-path="url('#clipping-rect1')" >300 K</text>
		<line x1="461.32" y1="31.00" x2="461.32" y2="15.12" stroke="#7f7f7f" stroke-width="1.00" clip-path="url('#clipping-rect1')" />
		<text x="386.43" y="23.59" font-family="Helvetica" font-size="10" fill="#333333" clip-path="url('#clipping-rect1')" >250 K</text>
		<line x1="384.43" y1="31.00" x2="384.43" y2="15.12" stroke="#7f7f7f" stroke-width="1.00" clip-path="url('#clipping-rect1')" />
		<text x="309.54" y="23.59" font-family="Helvetica" font-size="10" fill="#333333" clip-path="url('#clipping-rect1')" >200 K</text>
		<line x1="307.54" y1="31.00" x2="307.54" y2="15.12" stroke="#7f7f7f" stroke-width="1.00" clip-path="url('#clipping-rect1')" />
		<text x="232.66" y="23.59" font-family="Helvetica" font-size="10" fill="#333333" clip-path="url('#clipping-rect1')" >150 K</text>
		<line x1="230.66" y1="31.00" x2="230.66" y2="15.12" stroke="#7f7f7f" stroke-width="1.00" clip-path="url('#clipping-rect1')" />
		<text x="155.77" y="23.59" font-family="Helvetica" font-size="10" fill="#333333" clip-path="url('#clipping-rect1')" >100 K</text>
		<line x1="153.77" y1="31.00" x2="153.77" y2="15.12" stroke="#7f7f7f" stroke-width="1.00" clip-path="url('#clipping-rect1')" />
		<text x="78.89" y="23.59" font-family="Helvetica" font-size="10" fill="#333333" clip-path="url('#clipping-rect1')" >50 K</text>
		<line x1="76.89" y1="31.00" x2="76.89" y2="15.12" stroke="#7f7f7f" stroke-width="1.00" clip-path="url('#clipping-rect1')" />
		<line x1="0.00" y1="188.00" x2="0.00" y2="31.00" stroke="#ebebeb" stroke-width="1.00" />
		<line x1="76.09" y1="188.00" x2="76.09" y2="31.00" stroke="#ebebeb" stroke-width="1.00" />
		<line x1="153.17" y1="188.00" x2="153.17" y2="31.00" stroke="#ebebeb" stroke-width="1.00" />
		<line x1="230.26" y1="188.00" x2="230.26" y2="31.00" stroke="#ebebeb" stroke-width="1.00" />
		<line x1="307.35" y1="188.00" x2="307.35" y2="31.00" stroke="#ebebeb" stroke-width="1.00" />
		<line x1="384.44" y1="188.00" x2="384.44" y2="31.00" stroke="#ebebeb" stroke-width="1.00" />
		<line x1="461.53" y1="188.00" x2="461.53" y2="31.00" stroke="#ebebeb" stroke-width="1.00" />
		<line x1="538.61" y1="188.00" x2="538.61" y2="31.00" stroke="#ebebeb" stroke-width="1.00" />
		<line x1="615.70" y1="188.00" x2="615.70" y2="31.00" stroke="#ebebeb" stroke-width="1.00" />
		<line x1="691.79" y1="188.00" x2="691.79" y2="31.00" stroke="#ebebeb" stroke-width="1.00" />
		<line x1="768.87" y1="188.00" x2="768.87" y2="31.00" stroke="#ebebeb" stroke-width="1.00" />
		<line x1="845.96" y1="188.00" x2="845.96" y2="31.00" stroke="#ebebeb" stroke-width="1.00" />
		<polygon fill="url('#gradient1')" shape-rendering="crispEdges" points="879.00,37.50 879.00,33.00 0.00,33.00 0.00,37.50 0.00,42.00 879.00,42.00 " />
		<line x1="0.00" y1="42.00" x2="0.00" y2="33.00" stroke="#6c6c6c" stroke-width="1.00" stroke-linejoin="round" />
		<line x1="0.00" y1="33.00" x2="879.00" y2="33.00" stroke="#6c6c6c" stroke-width="1.00" stroke-linejoin="round" />
		<line x1="879.00" y1="33.00" x2="879.00" y2="42.00" stroke="#6c6c6c" stroke-width="1.00" stroke-linejoin="round" />
		<line x1="0.00" y1="42.00" x2="879.00" y2="42.00" stroke="#6c6c6c" stroke-width="1.00" stroke-linejoin="round" />
		<polygon fill="url('#gradient2')" shape-rendering="crispEdges" points="0.00,58.00 879.00,58.00 879.00,44.00 0.00,44.00 " clip-path="url('#clipping-rect2')" />
		<text x="0.00" y="54.00" font-family="Helvetica" font-size="12" fill="#333333" >(U) Alignment for group templates, BLAST Results for: ref|NM_004727.3|</text>
		<polygon fill="url('#gradient2')" shape-rendering="crispEdges" points="0.00,74.00 879.00,74.00 879.00,60.00 0.00,60.00 " clip-path="url('#clipping-rect2')" />
		<text x="0.00" y="70.00" font-family="Helvetica" font-size="12" fill="#333333" >(U) BLAST Results for: ref|NM_004727.3|</text>
		<polygon fill="url('#gradient2')" shape-rendering="crispEdges" points="0.00,90.00 879.00,90.00 879.00,76.00 0.00,76.00 " clip-path="url('#clipping-rect2')" />
		<text x="0.00" y="86.00" font-family="Helvetica" font-size="12" fill="#333333" >(U) Alignment for group templates, BLAST Results for: ref|NM_004727.3|</text>
		<polygon fill="url('#gradient2')" shape-rendering="crispEdges" points="0.00,106.00 879.00,106.00 879.00,92.00 0.00,92.00 " clip-path="url('#clipping-rect2')" />
		<text x="0.00" y="102.00" font-family="Helvetica" font-size="12" fill="#333333" >(U) BLAST Results for: ref|NM_004727.3|</text>
		<line x1="0.00" y1="127.00" x2="0.00" y2="164.00" stroke="#009900" stroke-opacity="0.10" stroke-width="1.00" stroke-linejoin="round" />
		<line x1="0.00" y1="164.00" x2="847.50" y2="164.00" stroke="#009900" stroke-opacity="0.10" stroke-width="1.00" stroke-linejoin="round" />
		<line x1="847.50" y1="164.00" x2="847.50" y2="127.00" stroke="#009900" stroke-opacity="0.10" stroke-width="1.00" stroke-linejoin="round" />
		<line x1="0.00" y1="127.00" x2="847.50" y2="127.00" stroke="#009900" stroke-opacity="0.10" stroke-width="1.00" stroke-linejoin="round" />
		<text x="350.69" y="136.00" font-family="Helvetica" font-size="10" fill="#124d94" >ENSSPUG00000000780</text>
		<polygon fill="#ffffff" shape-rendering="crispEdges" points="118.77,147.50 118.77,136.50 1.00,136.50 1.00,147.50 " />
		<text x="1.00" y="149.00" font-family="Helvetica" font-size="10" fill="#124d94" >ENSSPUT00000001153.1</text>
		<polygon fill="#1e8c1e" shape-rendering="crispEdges" points="83.86,151.00 83.86,162.00 82.86,162.00 82.86,151.00 " />
		<line x1="83.38" y1="156.50" x2="84.79" y2="156.50" stroke="#4ba34b" stroke-width="2.00" />
		<polygon fill="#1e8c1e" shape-rendering="crispEdges" points="85.35,151.00 85.35,162.00 84.35,162.00 84.35,151.00 " />
		<line x1="84.91" y1="156.50" x2="86.96" y2="156.50" stroke="#4ba34b" stroke-width="2.00" />
		<polygon fill="#1e8c1e" shape-rendering="crispEdges" points="87.55,151.00 87.55,162.00 86.55,162.00 86.55,151.00 " />
		<line x1="87.15" y1="156.50" x2="99.54" y2="156.50" stroke="#4ba34b" stroke-width="2.00" />
		<polygon fill="#1e8c1e" shape-rendering="crispEdges" points="100.09,151.00 100.09,162.00 99.09,162.00 99.09,151.00 " />
		<line x1="99.64" y1="156.50" x2="105.89" y2="156.50" stroke="#4ba34b" stroke-width="2.00" />
		<polygon fill="#1e8c1e" shape-rendering="crispEdges" points="106.45,151.00 106.45,162.00 105.45,162.00 105.45,151.00 " />
		<line x1="106.01" y1="156.50" x2="110.26" y2="156.50" stroke="#4ba34b" stroke-width="2.00" />
		<polygon fill="#1e8c1e" shape-rendering="crispEdges" points="110.86,151.00 110.86,162.00 109.86,162.00 109.86,151.00 " />
		<line x1="110.47" y1="156.50" x2="137.07" y2="156.50" stroke="#4ba34b" stroke-width="2.00" />
		<polygon fill="#b2b2b2" shape-rendering="crispEdges" points="128.17,156.50 119.37,152.10 121.57,156.50 119.37,160.90 " />
		<polygon fill="#1e8c1e" shape-rendering="crispEdges" points="137.68,151.00 137.68,162.00 136.68,162.00 136.68,151.00 " />
		<line x1="137.29" y1="156.50" x2="144.14" y2="156.50" stroke="#4ba34b" stroke-width="2.00" />
		<polygon fill="#1e8c1e" shape-rendering="crispEdges" points="144.77,151.00 144.77,162.00 143.77,162.00 143.77,151.00 " />
		<line x1="144.41" y1="156.50" x2="152.17" y2="156.50" stroke="#4ba34b" stroke-width="2.00" />
		<polygon fill="#1e8c1e" shape-rendering="crispEdges" points="152.85,151.00 152.85,162.00 151.85,162.00 151.85,151.00 " />
		<line x1="152.53" y1="156.50" x2="168.83" y2="156.50" stroke="#4ba34b" stroke-width="2.00" />
		<polygon fill="#b2b2b2" shape-rendering="crispEdges" points="165.08,156.50 156.28,152.10 158.48,156.50 156.28,160.90 " />
		<polygon fill="#1e8c1e" shape-rendering="crispEdges" points="169.39,151.00 169.39,162.00 168.39,162.00 168.39,151.00 " />
		<line x1="168.95" y1="156.50" x2="192.23" y2="156.50" stroke="#4ba34b" stroke-width="2.00" />
		<polygon fill="#b2b2b2" shape-rendering="crispEdges" points="184.99,156.50 176.19,152.10 178.39,156.50 176.19,160.90 " />
		<polygon fill="#1e8c1e" shape-rendering="crispEdges" points="193.01,151.00 193.01,162.00 192.01,162.00 192.01,151.00 " />
		<line x1="192.79" y1="156.50" x2="203.79" y2="156.50" stroke="#4ba34b" stroke-width="2.00" />
		<polygon fill="#1e8c1e" shape-rendering="crispEdges" points="204.39,151.00 204.39,162.00 203.39,162.00 203.39,151.00 " />
		<line x1="203.98" y1="156.50" x2="208.95" y2="156.50" stroke="#4ba34b" stroke-width="2.00" />
		<polygon fill="#1e8c1e" shape-rendering="crispEdges" points="209.55,151.00 209.55,162.00 208.55,162.00 208.55,151.00 " />
		<line x1="209.14" y1="156.50" x2="238.23" y2="156.50" stroke="#4ba34b" stroke-width="2.00" />
		<polygon fill="#b2b2b2" shape-rendering="crispEdges" points="228.08,156.50 219.28,152.10 221.48,156.50 219.28,160.90 " />
		<polygon fill="#1e8c1e" shape-rendering="crispEdges" points="238.81,151.00 238.81,162.00 237.81,162.00 237.81,151.00 " />
		<line x1="238.40" y1="156.50" x2="238.72" y2="156.50" stroke="#4ba34b" stroke-width="2.00" />
		<polygon fill="#1e8c1e" shape-rendering="crispEdges" points="239.33,151.00 239.33,162.00 238.33,162.00 238.33,151.00 " />
		<line x1="238.94" y1="156.50" x2="254.75" y2="156.50" stroke="#4ba34b" stroke-width="2.00" />
		<polygon fill="#b2b2b2" shape-rendering="crispEdges" points="251.24,156.50 242.44,152.10 244.64,156.50 242.44,160.90 " />
		<polygon fill="#1e8c1e" shape-rendering="crispEdges" points="255.37,151.00 255.37,162.00 254.37,162.00 254.37,151.00 " />
		<line x1="254.99" y1="156.50" x2="255.13" y2="156.50" stroke="#4ba34b" stroke-width="2.00" />
		<polygon fill="#1e8c1e" shape-rendering="crispEdges" points="255.70,151.00 255.70,162.00 254.70,162.00 254.70,151.00 " />
		<line x1="255.28" y1="156.50" x2="256.91" y2="156.50" stroke="#4ba34b" stroke-width="2.00" />
		<polygon fill="#1e8c1e" shape-rendering="crispEdges" points="257.51,151.00 257.51,162.00 256.51,162.00 256.51,151.00 " />
		<line x1="257.12" y1="156.50" x2="261.25" y2="156.50" stroke="#4ba34b" stroke-width="2.00" />
		<polygon fill="#1e8c1e" shape-rendering="crispEdges" points="261.80,151.00 261.80,162.00 260.80,162.00 260.80,151.00 " />
		<line x1="261.35" y1="156.50" x2="261.94" y2="156.50" stroke="#4ba34b" stroke-width="2.00" />
		<polygon fill="#1e8c1e" shape-rendering="crispEdges" points="262.52,151.00 262.52,162.00 261.52,162.00 261.52,151.00 " />
		<line x1="262.10" y1="156.50" x2="265.09" y2="156.50" stroke="#4ba34b" stroke-width="2.00" />
		<polygon fill="#1e8c1e" shape-rendering="crispEdges" points="265.71,151.00 265.71,162.00 264.71,162.00 264.71,151.00 " />
		<line x1="265.32" y1="156.50" x2="286.64" y2="156.50" stroke="#4ba34b" stroke-width="2.00" />
		<polygon fill="#b2b2b2" shape-rendering="crispEdges" points="280.38,156.50 271.58,152.10 273.78,156.50 271.58,160.90 " />
		<polygon fill="#1e8c1e" shape-rendering="crispEdges" points="287.24,151.00 287.24,162.00 286.24,162.00 286.24,151.00 " />
		<line x1="286.83" y1="156.50" x2="287.15" y2="156.50" stroke="#4ba34b" stroke-width="2.00" />
		<polygon fill="#1e8c1e" shape-rendering="crispEdges" points="287.71,151.00 287.71,162.00 286.71,162.00 286.71,151.00 " />
		<line x1="287.27" y1="156.50" x2="292.49" y2="156.50" stroke="#4ba34b" stroke-width="2.00" />
		<polygon fill="#1e8c1e" shape-rendering="crispEdges" points="293.11,151.00 293.11,162.00 292.11,162.00 292.11,151.00 " />
		<line x1="292.73" y1="156.50" x2="293.30" y2="156.50" stroke="#4ba34b" stroke-width="2.00" />
		<polygon fill="#1e8c1e" shape-rendering="crispEdges" points="293.96,151.00 293.96,162.00 292.96,162.00 292.96,151.00 " />
		<line x1="293.62" y1="156.50" x2="295.52" y2="156.50" stroke="#4ba34b" stroke-width="2.00" />
		<polygon fill="#1e8c1e" shape-rendering="crispEdges" points="296.12,151.00 296.12,162.00 295.12,162.00 295.12,151.00 " />
		<line x1="295.72" y1="156.50" x2="297.50" y2="156.50" stroke="#4ba34b" stroke-width="2.00" />
		<polygon fill="#1e8c1e" shape-rendering="crispEdges" points="298.10,151.00 298.10,162.00 297.10,162.00 297.10,151.00 " />
		<line x1="297.70" y1="156.50" x2="320.36" y2="156.50" stroke="#4ba34b" stroke-width="2.00" />
		<polygon fill="#b2b2b2" shape-rendering="crispEdges" points="313.43,156.50 304.63,152.10 306.83,156.50 304.63,160.90 " />
		<polygon fill="#1e8c1e" shape-rendering="crispEdges" points="320.95,151.00 320.95,162.00 319.95,162.00 319.95,151.00 " />
		<line x1="320.53" y1="156.50" x2="339.93" y2="156.50" stroke="#4ba34b" stroke-width="2.00" />
		<polygon fill="#b2b2b2" shape-rendering="crispEdges" points="334.63,156.50 325.83,152.10 328.03,156.50 325.83,160.90 " />
		<polygon fill="#1e8c1e" shape-rendering="crispEdges" points="340.49,151.00 340.49,162.00 339.49,162.00 339.49,151.00 " />
		<line x1="340.05" y1="156.50" x2="351.56" y2="156.50" stroke="#4ba34b" stroke-width="2.00" />
		<polygon fill="#1e8c1e" shape-rendering="crispEdges" points="352.23,151.00 352.23,162.00 351.23,162.00 351.23,151.00 " />
		<line x1="351.90" y1="156.50" x2="354.46" y2="156.50" stroke="#4ba34b" stroke-width="2.00" />
		<polygon fill="#1e8c1e" shape-rendering="crispEdges" points="355.02,151.00 355.02,162.00 354.02,162.00 354.02,151.00 " />
		<line x1="354.58" y1="156.50" x2="357.97" y2="156.50" stroke="#4ba34b" stroke-width="2.00" />
		<polygon fill="#1e8c1e" shape-rendering="crispEdges" points="358.60,151.00 358.60,162.00 357.60,162.00 357.60,151.00 " />
		<line x1="358.22" y1="156.50" x2="363.66" y2="156.50" stroke="#4ba34b" stroke-width="2.00" />
		<polygon fill="#1e8c1e" shape-rendering="crispEdges" points="364.21,151.00 364.21,162.00 363.21,162.00 363.21,151.00 " />
		<line x1="363.75" y1="156.50" x2="377.20" y2="156.50" stroke="#4ba34b" stroke-width="2.00" />
		<polygon fill="#1e8c1e" shape-rendering="crispEdges" points="377.81,151.00 377.81,162.00 376.81,162.00 376.81,151.00 " />
		<line x1="377.43" y1="156.50" x2="395.72" y2="156.50" stroke="#4ba34b" stroke-width="2.00" />
		<polygon fill="#b2b2b2" shape-rendering="crispEdges" points="390.98,156.50 382.18,152.10 384.38,156.50 382.18,160.90 " />
		<polygon fill="#1e8c1e" shape-rendering="crispEdges" points="396.33,151.00 396.33,162.00 395.33,162.00 395.33,151.00 " />
		<line x1="395.94" y1="156.50" x2="407.47" y2="156.50" stroke="#4ba34b" stroke-width="2.00" />
		<polygon fill="#1e8c1e" shape-rendering="crispEdges" points="408.06,151.00 408.06,162.00 407.06,162.00 407.06,151.00 " />
		<line x1="407.65" y1="156.50" x2="408.13" y2="156.50" stroke="#4ba34b" stroke-width="2.00" />
		<polygon fill="#1e8c1e" shape-rendering="crispEdges" points="408.72,151.00 408.72,162.00 407.72,162.00 407.72,151.00 " />
		<line x1="408.32" y1="156.50" x2="419.96" y2="156.50" stroke="#4ba34b" stroke-width="2.00" />
		<polygon fill="#1e8c1e" shape-rendering="crispEdges" points="420.64,151.00 420.64,162.00 419.64,162.00 419.64,151.00 " />
		<line x1="420.33" y1="156.50" x2="437.41" y2="156.50" stroke="#4ba34b" stroke-width="2.00" />
		<polygon fill="#b2b2b2" shape-rendering="crispEdges" points="433.27,156.50 424.47,152.10 426.67,156.50 424.47,160.90 " />
		<polygon fill="#1e8c1e" shape-rendering="crispEdges" points="438.02,151.00 438.02,162.00 437.02,162.00 437.02,151.00 " />
		<line x1="437.63" y1="156.50" x2="449.86" y2="156.50" stroke="#4ba34b" stroke-width="2.00" />
		<polygon fill="#1e8c1e" shape-rendering="crispEdges" points="450.52,151.00 450.52,162.00 449.52,162.00 449.52,151.00 " />
		<line x1="450.18" y1="156.50" x2="453.74" y2="156.50" stroke="#4ba34b" stroke-width="2.00" />
		<polygon fill="#1e8c1e" shape-rendering="crispEdges" points="454.34,151.00 454.34,162.00 453.34,162.00 453.34,151.00 " />
		<line x1="453.95" y1="156.50" x2="460.38" y2="156.50" stroke="#4ba34b" stroke-width="2.00" />
		<polygon fill="#1e8c1e" shape-rendering="crispEdges" points="461.02,151.00 461.02,162.00 460.02,162.00 460.02,151.00 " />
		<line x1="460.65" y1="156.50" x2="483.98" y2="156.50" stroke="#4ba34b" stroke-width="2.00" />
		<polygon fill="#b2b2b2" shape-rendering="crispEdges" points="476.72,156.50 467.92,152.10 470.12,156.50 467.92,160.90 " />
		<polygon fill="#1e8c1e" shape-rendering="crispEdges" points="484.62,151.00 484.62,162.00 483.62,162.00 483.62,151.00 " />
		<line x1="484.25" y1="156.50" x2="489.15" y2="156.50" stroke="#4ba34b" stroke-width="2.00" />
		<polygon fill="#1e8c1e" shape-rendering="crispEdges" points="489.71,151.00 489.71,162.00 488.71,162.00 488.71,151.00 " />
		<line x1="489.27" y1="156.50" x2="492.30" y2="156.50" stroke="#4ba34b" stroke-width="2.00" />
		<polygon fill="#1e8c1e" shape-rendering="crispEdges" points="492.90,151.00 492.90,162.00 491.90,162.00 491.90,151.00 " />
		<line x1="492.51" y1="156.50" x2="503.60" y2="156.50" stroke="#4ba34b" stroke-width="2.00" />
		<polygon fill="#1e8c1e" shape-rendering="crispEdges" points="504.20,151.00 504.20,162.00 503.20,162.00 503.20,151.00 " />
		<line x1="503.79" y1="156.50" x2="521.44" y2="156.50" stroke="#4ba34b" stroke-width="2.00" />
		<polygon fill="#b2b2b2" shape-rendering="crispEdges" points="517.01,156.50 508.21,152.10 510.41,156.50 508.21,160.90 " />
		<polygon fill="#1e8c1e" shape-rendering="crispEdges" points="522.10,151.00 522.10,162.00 521.10,162.00 521.10,151.00 " />
		<line x1="521.76" y1="156.50" x2="522.05" y2="156.50" stroke="#4ba34b" stroke-width="2.00" />
		<polygon fill="#1e8c1e" shape-rendering="crispEdges" points="522.67,151.00 522.67,162.00 521.67,162.00 521.67,151.00 " />
		<line x1="522.28" y1="156.50" x2="527.47" y2="156.50" stroke="#4ba34b" stroke-width="2.00" />
		<polygon fill="#1e8c1e" shape-rendering="crispEdges" points="528.11,151.00 528.11,162.00 527.11,162.00 527.11,151.00 " />
		<line x1="527.74" y1="156.50" x2="533.55" y2="156.50" stroke="#4ba34b" stroke-width="2.00" />
		<polygon fill="#1e8c1e" shape-rendering="crispEdges" points="534.12,151.00 534.12,162.00 533.12,162.00 533.12,151.00 " />
		<line x1="533.70" y1="156.50" x2="547.28" y2="156.50" stroke="#4ba34b" stroke-width="2.00" />
		<polygon fill="#1e8c1e" shape-rendering="crispEdges" points="547.92,151.00 547.92,162.00 546.92,162.00 546.92,151.00 " />
		<line x1="547.57" y1="156.50" x2="584.57" y2="156.50" stroke="#4ba34b" stroke-width="2.00" />
		<polygon fill="#b2b2b2" shape-rendering="crispEdges" points="570.47,156.50 561.67,152.10 563.87,156.50 561.67,160.90 " />
		<polygon fill="#1e8c1e" shape-rendering="crispEdges" points="585.16,151.00 585.16,162.00 584.16,162.00 584.16,151.00 " />
		<line x1="584.76" y1="156.50" x2="605.56" y2="156.50" stroke="#4ba34b" stroke-width="2.00" />
		<polygon fill="#b2b2b2" shape-rendering="crispEdges" points="599.56,156.50 590.76,152.10 592.96,156.50 590.76,160.90 " />
		<polygon fill="#1e8c1e" shape-rendering="crispEdges" points="606.14,151.00 606.14,162.00 605.14,162.00 605.14,151.00 " />
		<line x1="605.72" y1="156.50" x2="613.43" y2="156.50" stroke="#4ba34b" stroke-width="2.00" />
		<polygon fill="#1e8c1e" shape-rendering="crispEdges" points="614.05,151.00 614.05,162.00 613.05,162.00 613.05,151.00 " />
		<line x1="613.67" y1="156.50" x2="615.09" y2="156.50" stroke="#4ba34b" stroke-width="2.00" />
		<polygon fill="#1e8c1e" shape-rendering="crispEdges" points="615.70,151.00 615.70,162.00 614.70,162.00 614.70,151.00 " />
		<line x1="615.30" y1="156.50" x2="620.81" y2="156.50" stroke="#4ba34b" stroke-width="2.00" />
		<polygon fill="#1e8c1e" shape-rendering="crispEdges" points="621.37,151.00 621.37,162.00 620.37,162.00 620.37,151.00 " />
		<line x1="620.94" y1="156.50" x2="659.05" y2="156.50" stroke="#4ba34b" stroke-width="2.00" />
		<polygon fill="#b2b2b2" shape-rendering="crispEdges" points="644.39,156.50 635.59,152.10 637.79,156.50 635.59,160.90 " />
		<polygon fill="#1e8c1e" shape-rendering="crispEdges" points="659.65,151.00 659.65,162.00 658.65,162.00 658.65,151.00 " />
		<line x1="659.25" y1="156.50" x2="659.50" y2="156.50" stroke="#4ba34b" stroke-width="2.00" />
		<polygon fill="#1e8c1e" shape-rendering="crispEdges" points="660.10,151.00 660.10,162.00 659.10,162.00 659.10,151.00 " />
		<line x1="659.70" y1="156.50" x2="661.15" y2="156.50" stroke="#4ba34b" stroke-width="2.00" />
		<polygon fill="#1e8c1e" shape-rendering="crispEdges" points="661.77,151.00 661.77,162.00 660.77,162.00 660.77,151.00 " />
		<line x1="661.39" y1="156.50" x2="663.33" y2="156.50" stroke="#4ba34b" stroke-width="2.00" />
		<polygon fill="#1e8c1e" shape-rendering="crispEdges" points="663.98,151.00 663.98,162.00 662.98,162.00 662.98,151.00 " />
		<line x1="663.63" y1="156.50" x2="700.39" y2="156.50" stroke="#4ba34b" stroke-width="2.00" />
		<polygon fill="#b2b2b2" shape-rendering="crispEdges" points="686.41,156.50 677.61,152.10 679.81,156.50 677.61,160.90 " />
		<polygon fill="#1e8c1e" shape-rendering="crispEdges" points="700.98,151.00 700.98,162.00 699.98,162.00 699.98,151.00 " />
		<line x1="700.57" y1="156.50" x2="706.55" y2="156.50" stroke="#4ba34b" stroke-width="2.00" />
		<polygon fill="#1e8c1e" shape-rendering="crispEdges" points="707.21,151.00 707.21,162.00 706.21,162.00 706.21,151.00 " />
		<line x1="706.87" y1="156.50" x2="709.13" y2="156.50" stroke="#4ba34b" stroke-width="2.00" />
		<polygon fill="#1e8c1e" shape-rendering="crispEdges" points="709.71,151.00 709.71,162.00 708.71,162.00 708.71,151.00 " />
		<line x1="709.29" y1="156.50" x2="712.85" y2="156.50" stroke="#4ba34b" stroke-width="2.00" />
		<polygon fill="#1e8c1e" shape-rendering="crispEdges" points="713.48,151.00 713.48,162.00 712.48,162.00 712.48,151.00 " />
		<line x1="713.11" y1="156.50" x2="721.17" y2="156.50" stroke="#4ba34b" stroke-width="2.00" />
		<polygon fill="#1e8c1e" shape-rendering="crispEdges" points="721.80,151.00 721.80,162.00 720.80,162.00 720.80,151.00 " />
		<line x1="721.42" y1="156.50" x2="725.84" y2="156.50" stroke="#4ba34b" stroke-width="2.00" />
		<polygon fill="#1e8c1e" shape-rendering="crispEdges" points="726.51,151.00 726.51,162.00 725.51,162.00 725.51,151.00 " />
		<polygon fill="#ffffff" shape-rendering="crispEdges" points="845.50,162.00 845.50,151.00 730.17,151.00 730.17,162.00 " />
		<text x="730.17" y="160.00" font-family="Helvetica" font-size="10" fill="#124d94" >ENSSPUP00000001095.1</text>
		<line x1="158.64" y1="169.00" x2="158.64" y2="184.00" stroke="#009900" stroke-opacity="0.10" stroke-width="1.00" stroke-linejoin="round" />
		<line x1="158.64" y1="184.00" x2="297.97" y2="184.00" stroke="#009900" stroke-opacity="0.10" stroke-width="1.00" stroke-linejoin="round" />
		<line x1="297.97" y1="184.00" x2="297.97" y2="169.00" stroke="#009900" stroke-opacity="0.10" stroke-width="1.00" stroke-linejoin="round" />
		<line x1="158.64" y1="169.00" x2="297.97" y2="169.00" stroke="#009900" stroke-opacity="0.10" stroke-width="1.00" stroke-linejoin="round" />
		<polygon fill="#77b977" shape-rendering="crispEdges" points="161.21,171.00 161.21,182.00 160.21,182.00 160.21,171.00 " />
		<line x1="160.78" y1="176.50" x2="160.83" y2="176.50" stroke="#4ba34b" stroke-width="2.00" />
		<polygon fill="#77b977" shape-rendering="crispEdges" points="161.36,171.00 161.36,182.00 160.36,182.00 160.36,171.00 " />
		<polygon fill="#1e8c1e" shape-rendering="crispEdges" points="161.57,171.00 161.57,182.00 160.57,182.00 160.57,171.00 " />
		<polygon fill="#77b977" shape-rendering="crispEdges" points="161.79,171.00 161.79,182.00 160.79,182.00 160.79,171.00 " />
		<line x1="161.33" y1="176.50" x2="161.36" y2="176.50" stroke="#4ba34b" stroke-width="2.00" />
		<polygon fill="#77b977" shape-rendering="crispEdges" points="161.94,171.00 161.94,182.00 160.94,182.00 160.94,171.00 " />
		<polygon fill="#1e8c1e" shape-rendering="crispEdges" points="162.12,171.00 162.12,182.00 161.12,182.00 161.12,171.00 " />
		<line x1="161.72" y1="176.50" x2="161.79" y2="176.50" stroke="#4ba34b" stroke-width="2.00" />
		<polygon fill="#1e8c1e" shape-rendering="crispEdges" points="162.30,171.00 162.30,182.00 161.30,182.00 161.30,171.00 " />
		<polygon fill="#77b977" shape-rendering="crispEdges" points="162.40,171.00 162.40,182.00 161.40,182.00 161.40,171.00 " />
		<line x1="161.99" y1="176.50" x2="162.62" y2="176.50" stroke="#4ba34b" stroke-width="2.00" />
		<polygon fill="#77b977" shape-rendering="crispEdges" points="163.17,171.00 163.17,182.00 162.17,182.00 162.17,171.00 " />
		<polygon fill="#ffffff" shape-rendering="crispEdges" points="295.97,182.00 295.97,171.00 166.72,171.00 166.72,182.00 " />
		<text x="166.72" y="180.00" font-family="Helvetica" font-size="10" fill="#124d94" >ENSSPUG00000000876 [+4]</text>
		<polygon fill="url('#gradient3')" shape-rendering="crispEdges" points="0.00,122.00 879.00,122.00 879.00,108.00 0.00,108.00 " clip-path="url('#clipping-rect2')" />
		<text x="0.00" y="118.00" font-family="Helvetica" font-size="12" fill="#333333" >Genes, Ensembl release 114</text>
		<polygon fill="#0000ff" fill-opacity="0.20" shape-rendering="crispEdges" points="404.50,31.50 404.50,23.10 404.50,23.10 " />
		<polygon fill="#0000ff" fill-opacity="0.20" shape-rendering="crispEdges" points="404.50,31.50 404.50,31.50 404.50,23.10 " />
		<line x1="404.50" y1="30.50" x2="404.50" y2="23.10" stroke="#0000ff" stroke-opacity="0.40" stroke-width="1.00" />
		<line x1="404.50" y1="30.50" x2="404.50" y2="23.10" stroke="#0000ff" stroke-opacity="0.40" stroke-width="1.00" />
		<polygon fill="#0000ff" shape-rendering="crispEdges" points="398.79,22.35 398.50,20.50 398.79,18.65 399.65,16.97 400.97,15.65 402.65,14.79 404.50,14.50 404.50,26.50 402.65,26.21 400.97,25.35 399.65,24.03 " />
		<polygon fill="#0000ff" fill-opacity="0.60" shape-rendering="crispEdges" points="428.92,26.50 428.92,14.50 404.50,14.50 404.50,26.50 " />
		<text x="406.50" y="23.50" font-family="Helvetica" font-size="10" fill="#ffffff" >HTT</text>
		<polygon fill="#0000ff" fill-opacity="0.20" shape-rendering="crispEdges" points="404.46,189.01 404.46,31.00 404.46,31.00 " />
		<polygon fill="#0000ff" fill-opacity="0.20" shape-rendering="crispEdges" points="404.46,189.01 404.46,189.01 404.46,31.00 " />
		<line x1="404.46" y1="188.00" x2="404.46" y2="31.00" stroke="#0000ff" stroke-opacity="0.40" stroke-width="1.00" />
		<line x1="404.46" y1="188.00" x2="404.46" y2="31.00" stroke="#0000ff" stroke-opacity="0.40" stroke-width="1.00" />
		<polygon fill="#e5e5e5" shape-rendering="crispEdges" points="879.00,13.00 879.00,-1.00 0.00,-1.00 0.00,13.00 " />
		<text x="0.00" y="10.00" font-family="Helvetica Bold" font-size="12" text-anchor="start" fill="#000000" >QEPC01011572.1:0..571623 Sphenodon punctatus isolate mauimua-1 ScrUdWx_3750, whole genome shotgun sequence</text>
	</g>
</svg>
