<?xml version="1.0" standalone="no" ?>
<!DOCTYPE svg PUBLIC "-//W3C//DTD SVG 1.1//EN" "http://www.w3.org/Graphics/SVG/1.1/DTD/svg11.dtd">
<svg width="879px" height="128px" xmlns="http://www.w3.org/2000/svg" version="1.1" viewBox="0 0 879 128" >
	<style type="text/css" > <![CDATA[
		@import url("https://www.ncbi.nlm.nih.gov/projects/sviewer/css/svg_fonts.css");
	]]>
	</style>
	<desc >Generated by NCBI Genome Workbench http://www.ncbi.nlm.nih.gov/tools/gbench/</desc>
	<defs >
		<clipPath id="clipping-rect1" >
			<rect x="0" y="14" width="879" height="18" />
		</clipPath>
		<linearGradient id="gradient1" gradientTransform="rotate(90)" >
			<stop offset="0%" stop-color="#6c6c6c" />
			<stop offset="50%" stop-color="#b5b5b5" />
			<stop offset="100%" stop-color="#6c6c6c" />
		</linearGradient>
		<clipPath id="clipping-rect2" >
			<rect x="0" y="32" width="879" height="96" />
		</clipPath>
		<linearGradient id="gradient2" gradientTransform="rotate(90)" >
			<stop offset="0%" stop-color="#b6dead" />
			<stop offset="100%" stop-color="#ffffff" stop-opacity="0.00" />
		</linearGradient>
		<linearGradient id="gradient3" gradientTransform="rotate(90)" >
			<stop offset="0%" stop-color="#1e8c1e" />
			<stop offset="50%" stop-color="#8ec58e" />
			<stop offset="100%" stop-color="#1e8c1e" />
		</linearGradient>
		<linearGradient id="gradient4" gradientTransform="rotate(90)" >
			<stop offset="0%" stop-color="#e6e6e6" stop-opacity="0.71" />
			<stop offset="100%" stop-color="#ffffff" stop-opacity="0.00" />
		</linearGradient>
	</defs>
	<g >
		<polygon fill="#ffffff" shape-rendering="crispEdges" points="879.00,31.00 879.00,13.00 0.00,13.00 0.00,31.00 " />
		<line x1="0.00" y1="29.00" x2="879.00" y2="29.00" stroke="#7f7f7f" stroke-width="1.00" clip-path="url('#clipping-rect1')" />
		<line x1="879.00" y1="29.00" x2="879.00" y2="26.00" stroke="#7f7f7f" stroke-width="1.00" clip-path="url('#clipping-rect1')" />
		<line x1="873.03" y1="29.00" x2="873.03" y2="27.00" stroke="#7f7f7f" stroke-width="1.00" clip-path="url('#clipping-rect1')" />
		<line x1="867.07" y1="29.00" x2="867.07" y2="27.00" stroke="#7f7f7f" stroke-width="1.00" clip-path="url('#clipping-rect1')" />
		<line x1="861.10" y1="29.00" x2="861.10" y2="27.00" stroke="#7f7f7f" stroke-width="1.00" clip-path="url('#clipping-rect1')" />
		<line x1="855.13" y1="29.00" x2="855.13" y2="27.00" stroke="#7f7f7f" stroke-width="1.00" clip-path="url('#clipping-rect1')" />
		<line x1="849.16" y1="29.00" x2="849.16" y2="26.00" stroke="#7f7f7f" stroke-width="1.00" clip-path="url('#clipping-rect1')" />
		<line x1="843.20" y1="29.00" x2="843.20" y2="27.00" stroke="#7f7f7f" stroke-width="1.00" clip-path="url('#clipping-rect1')" />
		<line x1="837.23" y1="29.00" x2="837.23" y2="27.00" stroke="#7f7f7f" stroke-width="1.00" clip-path="url('#clipping-rect1')" />
		<line x1="831.26" y1="29.00" x2="831.26" y2="27.00" stroke="#7f7f7f" stroke-width="1.00" clip-path="url('#clipping-rect1')" />
		<line x1="825.30" y1="29.00" x2="825.30" y2="27.00" stroke="#7f7f7f" stroke-width="1.00" clip-path="url('#clipping-rect1')" />
		<line x1="819.33" y1="29.00" x2="819.33" y2="26.00" stroke="#7f7f7f" stroke-width="1.00" clip-path="url('#clipping-rect1')" />
		<line x1="813.36" y1="29.00" x2="813.36" y2="27.00" stroke="#7f7f7f" stroke-width="1.00" clip-path="url('#clipping-rect1')" />
		<line x1="807.39" y1="29.00" x2="807.39" y2="27.00" stroke="#7f7f7f" stroke-width="1.00" clip-path="url('#clipping-rect1')" />
		<line x1="801.43" y1="29.00" x2="801.43" y2="27.00" stroke="#7f7f7f" stroke-width="1.00" clip-path="url('#clipping-rect1')" />
		<line x1="795.46" y1="29.00" x2="795.46" y2="27.00" stroke="#7f7f7f" stroke-width="1.00" clip-path="url('#clipping-rect1')" />
		<line x1="789.49" y1="29.00" x2="789.49" y2="26.00" stroke="#7f7f7f" stroke-width="1.00" clip-path="url('#clipping-rect1')" />
		<line x1="783.53" y1="29.00" x2="783.53" y2="27.00" stroke="#7f7f7f" stroke-width="1.00" clip-path="url('#clipping-rect1')" />
		<line x1="777.56" y1="29.00" x2="777.56" y2="27.00" stroke="#7f7f7f" stroke-width="1.00" clip-path="url('#clipping-rect1')" />
		<line x1="771.59" y1="29.00" x2="771.59" y2="27.00" stroke="#7f7f7f" stroke-width="1.00" clip-path="url('#clipping-rect1')" />
		<line x1="765.62" y1="29.00" x2="765.62" y2="27.00" stroke="#7f7f7f" stroke-width="1.00" clip-path="url('#clipping-rect1')" />
		<line x1="759.66" y1="29.00" x2="759.66" y2="26.00" stroke="#7f7f7f" stroke-width="1.00" clip-path="url('#clipping-rect1')" />
		<line x1="753.69" y1="29.00" x2="753.69" y2="27.00" stroke="#7f7f7f" stroke-width="1.00" clip-path="url('#clipping-rect1')" />
		<line x1="747.72" y1="29.00" x2="747.72" y2="27.00" stroke="#7f7f7f" stroke-width="1.00" clip-path="url('#clipping-rect1')" />
		<line x1="741.76" y1="29.00" x2="741.76" y2="27.00" stroke="#7f7f7f" stroke-width="1.00" clip-path="url('#clipping-rect1')" />
		<line x1="735.79" y1="29.00" x2="735.79" y2="27.00" stroke="#7f7f7f" stroke-width="1.00" clip-path="url('#clipping-rect1')" />
		<line x1="729.82" y1="29.00" x2="729.82" y2="26.00" stroke="#7f7f7f" stroke-width="1.00" clip-path="url('#clipping-rect1')" />
		<line x1="723.85" y1="29.00" x2="723.85" y2="27.00" stroke="#7f7f7f" stroke-width="1.00" clip-path="url('#clipping-rect1')" />
		<line x1="717.89" y1="29.00" x2="717.89" y2="27.00" stroke="#7f7f7f" stroke-width="1.00" clip-path="url('#clipping-rect1')" />
		<line x1="711.92" y1="29.00" x2="711.92" y2="27.00" stroke="#7f7f7f" stroke-width="1.00" clip-path="url('#clipping-rect1')" />
		<line x1="705.95" y1="29.00" x2="705.95" y2="27.00" stroke="#7f7f7f" stroke-width="1.00" clip-path="url('#clipping-rect1')" />
		<line x1="699.99" y1="29.00" x2="699.99" y2="26.00" stroke="#7f7f7f" stroke-width="1.00" clip-path="url('#clipping-rect1')" />
		<line x1="694.02" y1="29.00" x2="694.02" y2="27.00" stroke="#7f7f7f" stroke-width="1.00" clip-path="url('#clipping-rect1')" />
		<line x1="688.05" y1="29.00" x2="688.05" y2="27.00" stroke="#7f7f7f" stroke-width="1.00" clip-path="url('#clipping-rect1')" />
		<line x1="682.08" y1="29.00" x2="682.08" y2="27.00" stroke="#7f7f7f" stroke-width="1.00" clip-path="url('#clipping-rect1')" />
		<line x1="676.12" y1="29.00" x2="676.12" y2="27.00" stroke="#7f7f7f" stroke-width="1.00" clip-path="url('#clipping-rect1')" />
		<line x1="670.15" y1="29.00" x2="670.15" y2="26.00" stroke="#7f7f7f" stroke-width="1.00" clip-path="url('#clipping-rect1')" />
		<line x1="664.18" y1="29.00" x2="664.18" y2="27.00" stroke="#7f7f7f" stroke-width="1.00" clip-path="url('#clipping-rect1')" />
		<line x1="658.22" y1="29.00" x2="658.22" y2="27.00" stroke="#7f7f7f" stroke-width="1.00" clip-path="url('#clipping-rect1')" />
		<line x1="652.25" y1="29.00" x2="652.25" y2="27.00" stroke="#7f7f7f" stroke-width="1.00" clip-path="url('#clipping-rect1')" />
		<line x1="646.28" y1="29.00" x2="646.28" y2="27.00" stroke="#7f7f7f" stroke-width="1.00" clip-path="url('#clipping-rect1')" />
		<line x1="640.31" y1="29.00" x2="640.31" y2="26.00" stroke="#7f7f7f" stroke-width="1.00" clip-path="url('#clipping-rect1')" />
		<line x1="634.35" y1="29.00" x2="634.35" y2="27.00" stroke="#7f7f7f" stroke-width="1.00" clip-path="url('#clipping-rect1')" />
		<line x1="628.38" y1="29.00" x2="628.38" y2="27.00" stroke="#7f7f7f" stroke-width="1.00" clip-path="url('#clipping-rect1')" />
		<line x1="622.41" y1="29.00" x2="622.41" y2="27.00" stroke="#7f7f7f" stroke-width="1.00" clip-path="url('#clipping-rect1')" />
		<line x1="616.45" y1="29.00" x2="616.45" y2="27.00" stroke="#7f7f7f" stroke-width="1.00" clip-path="url('#clipping-rect1')" />
		<line x1="610.48" y1="29.00" x2="610.48" y2="26.00" stroke="#7f7f7f" stroke-width="1.00" clip-path="url('#clipping-rect1')" />
		<line x1="604.51" y1="29.00" x2="604.51" y2="27.00" stroke="#7f7f7f" stroke-width="1.00" clip-path="url('#clipping-rect1')" />
		<line x1="598.54" y1="29.00" x2="598.54" y2="27.00" stroke="#7f7f7f" stroke-width="1.00" clip-path="url('#clipping-rect1')" />
		<line x1="592.58" y1="29.00" x2="592.58" y2="27.00" stroke="#7f7f7f" stroke-width="1.00" clip-path="url('#clipping-rect1')" />
		<line x1="586.61" y1="29.00" x2="586.61" y2="27.00" stroke="#7f7f7f" stroke-width="1.00" clip-path="url('#clipping-rect1')" />
		<line x1="580.64" y1="29.00" x2="580.64" y2="26.00" stroke="#7f7f7f" stroke-width="1.00" clip-path="url('#clipping-rect1')" />
		<line x1="574.68" y1="29.00" x2="574.68" y2="27.00" stroke="#7f7f7f" stroke-width="1.00" clip-path="url('#clipping-rect1')" />
		<line x1="568.71" y1="29.00" x2="568.71" y2="27.00" stroke="#7f7f7f" stroke-width="1.00" clip-path="url('#clipping-rect1')" />
		<line x1="562.74" y1="29.00" x2="562.74" y2="27.00" stroke="#7f7f7f" stroke-width="1.00" clip-path="url('#clipping-rect1')" />
		<line x1="556.77" y1="29.00" x2="556.77" y2="27.00" stroke="#7f7f7f" stroke-width="1.00" clip-path="url('#clipping-rect1')" />
		<line x1="550.81" y1="29.00" x2="550.81" y2="26.00" stroke="#7f7f7f" stroke-width="1.00" clip-path="url('#clipping-rect1')" />
		<line x1="544.84" y1="29.00" x2="544.84" y2="27.00" stroke="#7f7f7f" stroke-width="1.00" clip-path="url('#clipping-rect1')" />
		<line x1="538.87" y1="29.00" x2="538.87" y2="27.00" stroke="#7f7f7f" stroke-width="1.00" clip-path="url('#clipping-rect1')" />
		<line x1="532.91" y1="29.00" x2="532.91" y2="27.00" stroke="#7f7f7f" stroke-width="1.00" clip-path="url('#clipping-rect1')" />
		<line x1="526.94" y1="29.00" x2="526.94" y2="27.00" stroke="#7f7f7f" stroke-width="1.00" clip-path="url('#clipping-rect1')" />
		<line x1="520.97" y1="29.00" x2="520.97" y2="26.00" stroke="#7f7f7f" stroke-width="1.00" clip-path="url('#clipping-rect1')" />
		<line x1="515.00" y1="29.00" x2="515.00" y2="27.00" stroke="#7f7f7f" stroke-width="1.00" clip-path="url('#clipping-rect1')" />
		<line x1="509.04" y1="29.00" x2="509.04" y2="27.00" stroke="#7f7f7f" stroke-width="1.00" clip-path="url('#clipping-rect1')" />
		<line x1="503.07" y1="29.00" x2="503.07" y2="27.00" stroke="#7f7f7f" stroke-width="1.00" clip-path="url('#clipping-rect1')" />
		<line x1="497.10" y1="29.00" x2="497.10" y2="27.00" stroke="#7f7f7f" stroke-width="1.00" clip-path="url('#clipping-rect1')" />
		<line x1="491.14" y1="29.00" x2="491.14" y2="26.00" stroke="#7f7f7f" stroke-width="1.00" clip-path="url('#clipping-rect1')" />
		<line x1="485.17" y1="29.00" x2="485.17" y2="27.00" stroke="#7f7f7f" stroke-width="1.00" clip-path="url('#clipping-rect1')" />
		<line x1="479.20" y1="29.00" x2="479.20" y2="27.00" stroke="#7f7f7f" stroke-width="1.00" clip-path="url('#clipping-rect1')" />
		<line x1="473.23" y1="29.00" x2="473.23" y2="27.00" stroke="#7f7f7f" stroke-width="1.00" clip-path="url('#clipping-rect1')" />
		<line x1="467.27" y1="29.00" x2="467.27" y2="27.00" stroke="#7f7f7f" stroke-width="1.00" clip-path="url('#clipping-rect1')" />
		<line x1="461.30" y1="29.00" x2="461.30" y2="26.00" stroke="#7f7f7f" stroke-width="1.00" clip-path="url('#clipping-rect1')" />
		<line x1="455.33" y1="29.00" x2="455.33" y2="27.00" stroke="#7f7f7f" stroke-width="1.00" clip-path="url('#clipping-rect1')" />
		<line x1="449.37" y1="29.00" x2="449.37" y2="27.00" stroke="#7f7f7f" stroke-width="1.00" clip-path="url('#clipping-rect1')" />
		<line x1="443.40" y1="29.00" x2="443.40" y2="27.00" stroke="#7f7f7f" stroke-width="1.00" clip-path="url('#clipping-rect1')" />
		<line x1="437.43" y1="29.00" x2="437.43" y2="27.00" stroke="#7f7f7f" stroke-width="1.00" clip-path="url('#clipping-rect1')" />
		<line x1="431.46" y1="29.00" x2="431.46" y2="26.00" stroke="#7f7f7f" stroke-width="1.00" clip-path="url('#clipping-rect1')" />
		<line x1="425.50" y1="29.00" x2="425.50" y2="27.00" stroke="#7f7f7f" stroke-width="1.00" clip-path="url('#clipping-rect1')" />
		<line x1="419.53" y1="29.00" x2="419.53" y2="27.00" stroke="#7f7f7f" stroke-width="1.00" clip-path="url('#clipping-rect1')" />
		<line x1="413.56" y1="29.00" x2="413.56" y2="27.00" stroke="#7f7f7f" stroke-width="1.00" clip-path="url('#clipping-rect1')" />
		<line x1="407.60" y1="29.00" x2="407.60" y2="27.00" stroke="#7f7f7f" stroke-width="1.00" clip-path="url('#clipping-rect1')" />
		<line x1="401.63" y1="29.00" x2="401.63" y2="26.00" stroke="#7f7f7f" stroke-width="1.00" clip-path="url('#clipping-rect1')" />
		<line x1="395.66" y1="29.00" x2="395.66" y2="27.00" stroke="#7f7f7f" stroke-width="1.00" clip-path="url('#clipping-rect1')" />
		<line x1="389.70" y1="29.00" x2="389.70" y2="27.00" stroke="#7f7f7f" stroke-width="1.00" clip-path="url('#clipping-rect1')" />
		<line x1="383.73" y1="29.00" x2="383.73" y2="27.00" stroke="#7f7f7f" stroke-width="1.00" clip-path="url('#clipping-rect1')" />
		<line x1="377.76" y1="29.00" x2="377.76" y2="27.00" stroke="#7f7f7f" stroke-width="1.00" clip-path="url('#clipping-rect1')" />
		<line x1="371.79" y1="29.00" x2="371.79" y2="26.00" stroke="#7f7f7f" stroke-width="1.00" clip-path="url('#clipping-rect1')" />
		<line x1="365.83" y1="29.00" x2="365.83" y2="27.00" stroke="#7f7f7f" stroke-width="1.00" clip-path="url('#clipping-rect1')" />
		<line x1="359.86" y1="29.00" x2="359.86" y2="27.00" stroke="#7f7f7f" stroke-width="1.00" clip-path="url('#clipping-rect1')" />
		<line x1="353.89" y1="29.00" x2="353.89" y2="27.00" stroke="#7f7f7f" stroke-width="1.00" clip-path="url('#clipping-rect1')" />
		<line x1="347.93" y1="29.00" x2="347.93" y2="27.00" stroke="#7f7f7f" stroke-width="1.00" clip-path="url('#clipping-rect1')" />
		<line x1="341.96" y1="29.00" x2="341.96" y2="26.00" stroke="#7f7f7f" stroke-width="1.00" clip-path="url('#clipping-rect1')" />
		<line x1="335.99" y1="29.00" x2="335.99" y2="27.00" stroke="#7f7f7f" stroke-width="1.00" clip-path="url('#clipping-rect1')" />
		<line x1="330.02" y1="29.00" x2="330.02" y2="27.00" stroke="#7f7f7f" stroke-width="1.00" clip-path="url('#clipping-rect1')" />
		<line x1="324.06" y1="29.00" x2="324.06" y2="27.00" stroke="#7f7f7f" stroke-width="1.00" clip-path="url('#clipping-rect1')" />
		<line x1="318.09" y1="29.00" x2="318.09" y2="27.00" stroke="#7f7f7f" stroke-width="1.00" clip-path="url('#clipping-rect1')" />
		<line x1="312.12" y1="29.00" x2="312.12" y2="26.00" stroke="#7f7f7f" stroke-width="1.00" clip-path="url('#clipping-rect1')" />
		<line x1="306.16" y1="29.00" x2="306.16" y2="27.00" stroke="#7f7f7f" stroke-width="1.00" clip-path="url('#clipping-rect1')" />
		<line x1="300.19" y1="29.00" x2="300.19" y2="27.00" stroke="#7f7f7f" stroke-width="1.00" clip-path="url('#clipping-rect1')" />
		<line x1="294.22" y1="29.00" x2="294.22" y2="27.00" stroke="#7f7f7f" stroke-width="1.00" clip-path="url('#clipping-rect1')" />
		<line x1="288.25" y1="29.00" x2="288.25" y2="27.00" stroke="#7f7f7f" stroke-width="1.00" clip-path="url('#clipping-rect1')" />
		<line x1="282.29" y1="29.00" x2="282.29" y2="26.00" stroke="#7f7f7f" stroke-width="1.00" clip-path="url('#clipping-rect1')" />
		<line x1="276.32" y1="29.00" x2="276.32" y2="27.00" stroke="#7f7f7f" stroke-width="1.00" clip-path="url('#clipping-rect1')" />
		<line x1="270.35" y1="29.00" x2="270.35" y2="27.00" stroke="#7f7f7f" stroke-width="1.00" clip-path="url('#clipping-rect1')" />
		<line x1="264.39" y1="29.00" x2="264.39" y2="27.00" stroke="#7f7f7f" stroke-width="1.00" clip-path="url('#clipping-rect1')" />
		<line x1="258.42" y1="29.00" x2="258.42" y2="27.00" stroke="#7f7f7f" stroke-width="1.00" clip-path="url('#clipping-rect1')" />
		<line x1="252.45" y1="29.00" x2="252.45" y2="26.00" stroke="#7f7f7f" stroke-width="1.00" clip-path="url('#clipping-rect1')" />
		<line x1="246.48" y1="29.00" x2="246.48" y2="27.00" stroke="#7f7f7f" stroke-width="1.00" clip-path="url('#clipping-rect1')" />
		<line x1="240.52" y1="29.00" x2="240.52" y2="27.00" stroke="#7f7f7f" stroke-width="1.00" clip-path="url('#clipping-rect1')" />
		<line x1="234.55" y1="29.00" x2="234.55" y2="27.00" stroke="#7f7f7f" stroke-width="1.00" clip-path="url('#clipping-rect1')" />
		<line x1="228.58" y1="29.00" x2="228.58" y2="27.00" stroke="#7f7f7f" stroke-width="1.00" clip-path="url('#clipping-rect1')" />
		<line x1="222.62" y1="29.00" x2="222.62" y2="26.00" stroke="#7f7f7f" stroke-width="1.00" clip-path="url('#clipping-rect1')" />
		<line x1="216.65" y1="29.00" x2="216.65" y2="27.00" stroke="#7f7f7f" stroke-width="1.00" clip-path="url('#clipping-rect1')" />
		<line x1="210.68" y1="29.00" x2="210.68" y2="27.00" stroke="#7f7f7f" stroke-width="1.00" clip-path="url('#clipping-rect1')" />
		<line x1="204.71" y1="29.00" x2="204.71" y2="27.00" stroke="#7f7f7f" stroke-width="1.00" clip-path="url('#clipping-rect1')" />
		<line x1="198.75" y1="29.00" x2="198.75" y2="27.00" stroke="#7f7f7f" stroke-width="1.00" clip-path="url('#clipping-rect1')" />
		<line x1="192.78" y1="29.00" x2="192.78" y2="26.00" stroke="#7f7f7f" stroke-width="1.00" clip-path="url('#clipping-rect1')" />
		<line x1="186.81" y1="29.00" x2="186.81" y2="27.00" stroke="#7f7f7f" stroke-width="1.00" clip-path="url('#clipping-rect1')" />
		<line x1="180.85" y1="29.00" x2="180.85" y2="27.00" stroke="#7f7f7f" stroke-width="1.00" clip-path="url('#clipping-rect1')" />
		<line x1="174.88" y1="29.00" x2="174.88" y2="27.00" stroke="#7f7f7f" stroke-width="1.00" clip-path="url('#clipping-rect1')" />
		<line x1="168.91" y1="29.00" x2="168.91" y2="27.00" stroke="#7f7f7f" stroke-width="1.00" clip-path="url('#clipping-rect1')" />
		<line x1="162.94" y1="29.00" x2="162.94" y2="26.00" stroke="#7f7f7f" stroke-width="1.00" clip-path="url('#clipping-rect1')" />
		<line x1="156.98" y1="29.00" x2="156.98" y2="27.00" stroke="#7f7f7f" stroke-width="1.00" clip-path="url('#clipping-rect1')" />
		<line x1="151.01" y1="29.00" x2="151.01" y2="27.00" stroke="#7f7f7f" stroke-width="1.00" clip-path="url('#clipping-rect1')" />
		<line x1="145.04" y1="29.00" x2="145.04" y2="27.00" stroke="#7f7f7f" stroke-width="1.00" clip-path="url('#clipping-rect1')" />
		<line x1="139.08" y1="29.00" x2="139.08" y2="27.00" stroke="#7f7f7f" stroke-width="1.00" clip-path="url('#clipping-rect1')" />
		<line x1="133.11" y1="29.00" x2="133.11" y2="26.00" stroke="#7f7f7f" stroke-width="1.00" clip-path="url('#clipping-rect1')" />
		<line x1="127.14" y1="29.00" x2="127.14" y2="27.00" stroke="#7f7f7f" stroke-width="1.00" clip-path="url('#clipping-rect1')" />
		<line x1="121.17" y1="29.00" x2="121.17" y2="27.00" stroke="#7f7f7f" stroke-width="1.00" clip-path="url('#clipping-rect1')" />
		<line x1="115.21" y1="29.00" x2="115.21" y2="27.00" stroke="#7f7f7f" stroke-width="1.00" clip-path="url('#clipping-rect1')" />
		<line x1="109.24" y1="29.00" x2="109.24" y2="27.00" stroke="#7f7f7f" stroke-width="1.00" clip-path="url('#clipping-rect1')" />
		<line x1="103.27" y1="29.00" x2="103.27" y2="26.00" stroke="#7f7f7f" stroke-width="1.00" clip-path="url('#clipping-rect1')" />
		<line x1="97.31" y1="29.00" x2="97.31" y2="27.00" stroke="#7f7f7f" stroke-width="1.00" clip-path="url('#clipping-rect1')" />
		<line x1="91.34" y1="29.00" x2="91.34" y2="27.00" stroke="#7f7f7f" stroke-width="1.00" clip-path="url('#clipping-rect1')" />
		<line x1="85.37" y1="29.00" x2="85.37" y2="27.00" stroke="#7f7f7f" stroke-width="1.00" clip-path="url('#clipping-rect1')" />
		<line x1="79.40" y1="29.00" x2="79.40" y2="27.00" stroke="#7f7f7f" stroke-width="1.00" clip-path="url('#clipping-rect1')" />
		<line x1="73.44" y1="29.00" x2="73.44" y2="26.00" stroke="#7f7f7f" stroke-width="1.00" clip-path="url('#clipping-rect1')" />
		<line x1="67.47" y1="29.00" x2="67.47" y2="27.00" stroke="#7f7f7f" stroke-width="1.00" clip-path="url('#clipping-rect1')" />
		<line x1="61.50" y1="29.00" x2="61.50" y2="27.00" stroke="#7f7f7f" stroke-width="1.00" clip-path="url('#clipping-rect1')" />
		<line x1="55.54" y1="29.00" x2="55.54" y2="27.00" stroke="#7f7f7f" stroke-width="1.00" clip-path="url('#clipping-rect1')" />
		<line x1="49.57" y1="29.00" x2="49.57" y2="27.00" stroke="#7f7f7f" stroke-width="1.00" clip-path="url('#clipping-rect1')" />
		<line x1="43.60" y1="29.00" x2="43.60" y2="26.00" stroke="#7f7f7f" stroke-width="1.00" clip-path="url('#clipping-rect1')" />
		<line x1="37.63" y1="29.00" x2="37.63" y2="27.00" stroke="#7f7f7f" stroke-width="1.00" clip-path="url('#clipping-rect1')" />
		<line x1="31.67" y1="29.00" x2="31.67" y2="27.00" stroke="#7f7f7f" stroke-width="1.00" clip-path="url('#clipping-rect1')" />
		<line x1="25.70" y1="29.00" x2="25.70" y2="27.00" stroke="#7f7f7f" stroke-width="1.00" clip-path="url('#clipping-rect1')" />
		<line x1="19.73" y1="29.00" x2="19.73" y2="27.00" stroke="#7f7f7f" stroke-width="1.00" clip-path="url('#clipping-rect1')" />
		<line x1="13.77" y1="29.00" x2="13.77" y2="26.00" stroke="#7f7f7f" stroke-width="1.00" clip-path="url('#clipping-rect1')" />
		<line x1="7.80" y1="29.00" x2="7.80" y2="27.00" stroke="#7f7f7f" stroke-width="1.00" clip-path="url('#clipping-rect1')" />
		<line x1="1.83" y1="29.00" x2="1.83" y2="27.00" stroke="#7f7f7f" stroke-width="1.00" clip-path="url('#clipping-rect1')" />
		<text x="0.00" y="24.00" font-family="Helvetica" font-size="10" fill="#333333" clip-path="url('#clipping-rect1')" >2,946,137</text>
		<line x1="0.00" y1="31.00" x2="0.00" y2="16.00" stroke="#7f7f7f" stroke-width="1.00" clip-path="url('#clipping-rect1')" />
		<text x="876.55" y="24.00" font-family="Helvetica" font-size="10" fill="#333333" clip-path="url('#clipping-rect1')" >1</text>
		<line x1="879.00" y1="31.00" x2="879.00" y2="16.00" stroke="#7f7f7f" stroke-width="1.00" clip-path="url('#clipping-rect1')" />
		<text x="821.33" y="24.00" font-family="Helvetica" font-size="10" fill="#333333" clip-path="url('#clipping-rect1')" >200 K</text>
		<line x1="819.33" y1="31.00" x2="819.33" y2="16.00" stroke="#7f7f7f" stroke-width="1.00" clip-path="url('#clipping-rect1')" />
		<text x="761.66" y="24.00" font-family="Helvetica" font-size="10" fill="#333333" clip-path="url('#clipping-rect1')" >400 K</text>
		<line x1="759.66" y1="31.00" x2="759.66" y2="16.00" stroke="#7f7f7f" stroke-width="1.00" clip-path="url('#clipping-rect1')" />
		<text x="701.99" y="24.00" font-family="Helvetica" font-size="10" fill="#333333" clip-path="url('#clipping-rect1')" >600 K</text>
		<line x1="699.99" y1="31.00" x2="699.99" y2="16.00" stroke="#7f7f7f" stroke-width="1.00" clip-path="url('#clipping-rect1')" />
		<text x="642.31" y="24.00" font-family="Helvetica" font-size="10" fill="#333333" clip-path="url('#clipping-rect1')" >800 K</text>
		<line x1="640.31" y1="31.00" x2="640.31" y2="16.00" stroke="#7f7f7f" stroke-width="1.00" clip-path="url('#clipping-rect1')" />
		<text x="582.64" y="24.00" font-family="Helvetica" font-size="10" fill="#333333" clip-path="url('#clipping-rect1')" >1 M</text>
		<line x1="580.64" y1="31.00" x2="580.64" y2="16.00" stroke="#7f7f7f" stroke-width="1.00" clip-path="url('#clipping-rect1')" />
		<text x="522.97" y="24.00" font-family="Helvetica" font-size="10" fill="#333333" clip-path="url('#clipping-rect1')" >1,200 K</text>
		<line x1="520.97" y1="31.00" x2="520.97" y2="16.00" stroke="#7f7f7f" stroke-width="1.00" clip-path="url('#clipping-rect1')" />
		<text x="463.30" y="24.00" font-family="Helvetica" font-size="10" fill="#333333" clip-path="url('#clipping-rect1')" >1,400 K</text>
		<line x1="461.30" y1="31.00" x2="461.30" y2="16.00" stroke="#7f7f7f" stroke-width="1.00" clip-path="url('#clipping-rect1')" />
		<text x="403.63" y="24.00" font-family="Helvetica" font-size="10" fill="#333333" clip-path="url('#clipping-rect1')" >1,600 K</text>
		<line x1="401.63" y1="31.00" x2="401.63" y2="16.00" stroke="#7f7f7f" stroke-width="1.00" clip-path="url('#clipping-rect1')" />
		<text x="343.96" y="24.00" font-family="Helvetica" font-size="10" fill="#333333" clip-path="url('#clipping-rect1')" >1,800 K</text>
		<line x1="341.96" y1="31.00" x2="341.96" y2="16.00" stroke="#7f7f7f" stroke-width="1.00" clip-path="url('#clipping-rect1')" />
		<text x="284.29" y="24.00" font-family="Helvetica" font-size="10" fill="#333333" clip-path="url('#clipping-rect1')" >2 M</text>
		<line x1="282.29" y1="31.00" x2="282.29" y2="16.00" stroke="#7f7f7f" stroke-width="1.00" clip-path="url('#clipping-rect1')" />
		<text x="224.62" y="24.00" font-family="Helvetica" font-size="10" fill="#333333" clip-path="url('#clipping-rect1')" >2,200 K</text>
		<line x1="222.62" y1="31.00" x2="222.62" y2="16.00" stroke="#7f7f7f" stroke-width="1.00" clip-path="url('#clipping-rect1')" />
		<text x="164.94" y="24.00" font-family="Helvetica" font-size="10" fill="#333333" clip-path="url('#clipping-rect1')" >2,400 K</text>
		<line x1="162.94" y1="31.00" x2="162.94" y2="16.00" stroke="#7f7f7f" stroke-width="1.00" clip-path="url('#clipping-rect1')" />
		<text x="105.27" y="24.00" font-family="Helvetica" font-size="10" fill="#333333" clip-path="url('#clipping-rect1')" >2,600 K</text>
		<line x1="103.27" y1="31.00" x2="103.27" y2="16.00" stroke="#7f7f7f" stroke-width="1.00" clip-path="url('#clipping-rect1')" />
		<line x1="879.00" y1="127.00" x2="879.00" y2="31.00" stroke="#ebebeb" stroke-width="1.00" />
		<line x1="819.93" y1="127.00" x2="819.93" y2="31.00" stroke="#ebebeb" stroke-width="1.00" />
		<line x1="759.86" y1="127.00" x2="759.86" y2="31.00" stroke="#ebebeb" stroke-width="1.00" />
		<line x1="699.80" y1="127.00" x2="699.80" y2="31.00" stroke="#ebebeb" stroke-width="1.00" />
		<line x1="640.73" y1="127.00" x2="640.73" y2="31.00" stroke="#ebebeb" stroke-width="1.00" />
		<line x1="580.66" y1="127.00" x2="580.66" y2="31.00" stroke="#ebebeb" stroke-width="1.00" />
		<line x1="520.59" y1="127.00" x2="520.59" y2="31.00" stroke="#ebebeb" stroke-width="1.00" />
		<line x1="461.53" y1="127.00" x2="461.53" y2="31.00" stroke="#ebebeb" stroke-width="1.00" />
		<line x1="401.46" y1="127.00" x2="401.46" y2="31.00" stroke="#ebebeb" stroke-width="1.00" />
		<line x1="341.39" y1="127.00" x2="341.39" y2="31.00" stroke="#ebebeb" stroke-width="1.00" />
		<line x1="282.32" y1="127.00" x2="282.32" y2="31.00" stroke="#ebebeb" stroke-width="1.00" />
		<line x1="222.25" y1="127.00" x2="222.25" y2="31.00" stroke="#ebebeb" stroke-width="1.00" />
		<line x1="162.18" y1="127.00" x2="162.18" y2="31.00" stroke="#ebebeb" stroke-width="1.00" />
		<line x1="103.12" y1="127.00" x2="103.12" y2="31.00" stroke="#ebebeb" stroke-width="1.00" />
		<line x1="43.05" y1="127.00" x2="43.05" y2="31.00" stroke="#ebebeb" stroke-width="1.00" />
		<polygon fill="url('#gradient1')" shape-rendering="crispEdges" points="0.00,37.50 0.00,33.00 879.00,33.00 879.00,37.50 879.00,42.00 0.00,42.00 " />
		<line x1="879.00" y1="42.00" x2="879.00" y2="33.00" stroke="#6c6c6c" stroke-width="1.00" stroke-linejoin="round" />
		<line x1="879.00" y1="33.00" x2="0.00" y2="33.00" stroke="#6c6c6c" stroke-width="1.00" stroke-linejoin="round" />
		<line x1="0.00" y1="33.00" x2="0.00" y2="42.00" stroke="#6c6c6c" stroke-width="1.00" stroke-linejoin="round" />
		<line x1="879.00" y1="42.00" x2="0.00" y2="42.00" stroke="#6c6c6c" stroke-width="1.00" stroke-linejoin="round" />
		<polygon fill="url('#gradient2')" shape-rendering="crispEdges" points="0.00,58.00 879.00,58.00 879.00,44.00 0.00,44.00 " clip-path="url('#clipping-rect2')" />
		<text x="0.00" y="54.00" font-family="Helvetica" font-size="12" fill="#333333" >(U) Alignment for group templates, BLAST Results for: ref|NM_004727.3|</text>
		<polygon fill="url('#gradient2')" shape-rendering="crispEdges" points="0.00,74.00 879.00,74.00 879.00,60.00 0.00,60.00 " clip-path="url('#clipping-rect2')" />
		<text x="0.00" y="70.00" font-family="Helvetica" font-size="12" fill="#333333" >(U) BLAST Results for: ref|NM_004727.3|</text>
		<line x1="650.77" y1="95.00" x2="650.77" y2="123.00" stroke="#009900" stroke-opacity="0.10" stroke-width="1.00" stroke-linejoin="round" />
		<line x1="650.77" y1="123.00" x2="407.95" y2="123.00" stroke="#009900" stroke-opacity="0.10" stroke-width="1.00" stroke-linejoin="round" />
		<line x1="407.95" y1="123.00" x2="407.95" y2="95.00" stroke="#009900" stroke-opacity="0.10" stroke-width="1.00" stroke-linejoin="round" />
		<line x1="650.77" y1="95.00" x2="407.95" y2="95.00" stroke="#009900" stroke-opacity="0.10" stroke-width="1.00" stroke-linejoin="round" />
		<text x="475.81" y="104.00" font-family="Helvetica" font-size="10" fill="#124d94" >ENSSPUG00000001641</text>
		<polygon fill="url('#gradient3')" shape-rendering="crispEdges" points="529.01,115.50 529.01,121.00 530.01,121.00 530.01,115.50 530.01,110.00 529.01,110.00 " />
		<line x1="530.01" y1="110.00" x2="530.01" y2="121.00" stroke="#1e8c1e" stroke-width="1.00" stroke-linejoin="round" />
		<line x1="530.01" y1="121.00" x2="529.01" y2="121.00" stroke="#1e8c1e" stroke-width="1.00" stroke-linejoin="round" />
		<line x1="529.01" y1="121.00" x2="529.01" y2="110.00" stroke="#1e8c1e" stroke-width="1.00" stroke-linejoin="round" />
		<line x1="530.01" y1="110.00" x2="529.01" y2="110.00" stroke="#1e8c1e" stroke-width="1.00" stroke-linejoin="round" />
		<polygon fill="#ffffff" shape-rendering="crispEdges" points="530.01,121.00 530.01,110.00 647.77,110.00 647.77,121.00 " />
		<text x="534.01" y="119.00" font-family="Helvetica" font-size="10" fill="#124d94" >ENSSPUT00000002226.1</text>
		<polygon fill="#ffffff" shape-rendering="crispEdges" points="409.95,121.00 409.95,110.00 525.28,110.00 525.28,121.00 " />
		<text x="410.95" y="119.00" font-family="Helvetica" font-size="10" fill="#124d94" >ENSSPUP00000002107.1</text>
		<line x1="290.62" y1="95.00" x2="290.62" y2="110.00" stroke="#009900" stroke-opacity="0.10" stroke-width="1.00" stroke-linejoin="round" />
		<line x1="290.62" y1="110.00" x2="68.32" y2="110.00" stroke="#009900" stroke-opacity="0.10" stroke-width="1.00" stroke-linejoin="round" />
		<line x1="68.32" y1="110.00" x2="68.32" y2="95.00" stroke="#009900" stroke-opacity="0.10" stroke-width="1.00" stroke-linejoin="round" />
		<line x1="290.62" y1="95.00" x2="68.32" y2="95.00" stroke="#009900" stroke-opacity="0.10" stroke-width="1.00" stroke-linejoin="round" />
		<polygon fill="#77b977" shape-rendering="crispEdges" points="154.86,97.00 154.86,108.00 155.86,108.00 155.86,97.00 " />
		<line x1="155.35" y1="102.50" x2="154.14" y2="102.50" stroke="#4ba34b" stroke-width="2.00" />
		<polygon fill="#77b977" shape-rendering="crispEdges" points="153.62,97.00 153.62,108.00 154.62,108.00 154.62,97.00 " />
		<line x1="154.11" y1="102.50" x2="140.33" y2="102.50" stroke="#4ba34b" stroke-width="2.00" />
		<polygon fill="#77b977" shape-rendering="crispEdges" points="139.82,97.00 139.82,108.00 140.82,108.00 140.82,97.00 " />
		<line x1="140.32" y1="102.50" x2="139.55" y2="102.50" stroke="#4ba34b" stroke-width="2.00" />
		<polygon fill="#1e8c1e" shape-rendering="crispEdges" points="139.02,97.00 139.02,108.00 140.02,108.00 140.02,97.00 " />
		<line x1="139.49" y1="102.50" x2="130.47" y2="102.50" stroke="#4ba34b" stroke-width="2.00" />
		<polygon fill="#1e8c1e" shape-rendering="crispEdges" points="129.92,97.00 129.92,108.00 130.92,108.00 130.92,97.00 " />
		<line x1="130.38" y1="102.50" x2="106.39" y2="102.50" stroke="#4ba34b" stroke-width="2.00" />
		<polygon fill="#b2b2b2" shape-rendering="crispEdges" points="113.98,102.50 122.78,98.10 120.58,102.50 122.78,106.90 " />
		<polygon fill="#1e8c1e" shape-rendering="crispEdges" points="105.87,97.00 105.87,108.00 106.87,108.00 106.87,97.00 " />
		<line x1="106.35" y1="102.50" x2="98.16" y2="102.50" stroke="#4ba34b" stroke-width="2.00" />
		<polygon fill="#1e8c1e" shape-rendering="crispEdges" points="97.63,97.00 97.63,108.00 98.63,108.00 98.63,97.00 " />
		<line x1="98.10" y1="102.50" x2="71.72" y2="102.50" stroke="#4ba34b" stroke-width="2.00" />
		<polygon fill="#b2b2b2" shape-rendering="crispEdges" points="80.51,102.50 89.31,98.10 87.11,102.50 89.31,106.90 " />
		<polygon fill="#1e8c1e" shape-rendering="crispEdges" points="71.19,97.00 71.19,108.00 72.19,108.00 72.19,97.00 " />
		<line x1="71.67" y1="102.50" x2="70.42" y2="102.50" stroke="#4ba34b" stroke-width="2.00" />
		<polygon fill="#1e8c1e" shape-rendering="crispEdges" points="69.92,97.00 69.92,108.00 70.92,108.00 70.92,97.00 " />
		<line x1="70.41" y1="102.50" x2="70.39" y2="102.50" stroke="#4ba34b" stroke-width="2.00" />
		<polygon fill="#1e8c1e" shape-rendering="crispEdges" points="69.85,97.00 69.85,108.00 70.85,108.00 70.85,97.00 " />
		<polygon fill="#ffffff" shape-rendering="crispEdges" points="155.37,108.00 155.37,97.00 287.62,97.00 287.62,108.00 " />
		<text x="159.37" y="106.00" font-family="Helvetica" font-size="10" fill="#124d94" >ENSSPUG00000001650 [+4]</text>
		<polygon fill="url('#gradient4')" shape-rendering="crispEdges" points="0.00,90.00 879.00,90.00 879.00,76.00 0.00,76.00 " clip-path="url('#clipping-rect2')" />
		<text x="0.00" y="86.00" font-family="Helvetica" font-size="12" fill="#333333" >Genes, Ensembl release 114</text>
		<polygon fill="#0000ff" fill-opacity="0.20" shape-rendering="crispEdges" points="112.50,31.50 112.50,23.10 112.50,23.10 " />
		<polygon fill="#0000ff" fill-opacity="0.20" shape-rendering="crispEdges" points="112.50,31.50 112.50,31.50 112.50,23.10 " />
		<line x1="112.50" y1="30.50" x2="112.50" y2="23.10" stroke="#0000ff" stroke-opacity="0.40" stroke-width="1.00" />
		<line x1="112.50" y1="30.50" x2="112.50" y2="23.10" stroke="#0000ff" stroke-opacity="0.40" stroke-width="1.00" />
		<polygon fill="#0000ff" shape-rendering="crispEdges" points="106.79,22.35 106.50,20.50 106.79,18.65 107.65,16.97 108.97,15.65 110.65,14.79 112.50,14.50 112.50,26.50 110.65,26.21 108.97,25.35 107.65,24.03 " />
		<polygon fill="#0000ff" fill-opacity="0.60" shape-rendering="crispEdges" points="148.17,26.50 148.17,14.50 112.50,14.50 112.50,26.50 " />
		<text x="114.50" y="23.50" font-family="Helvetica" font-size="10" fill="#ffffff" >GRID2</text>
		<polygon fill="#0000ff" fill-opacity="0.20" shape-rendering="crispEdges" points="112.13,128.01 112.13,31.00 112.13,31.00 " />
		<polygon fill="#0000ff" fill-opacity="0.20" shape-rendering="crispEdges" points="112.13,128.01 112.13,128.01 112.13,31.00 " />
		<line x1="112.13" y1="127.00" x2="112.13" y2="31.00" stroke="#0000ff" stroke-opacity="0.40" stroke-width="1.00" />
		<line x1="112.13" y1="127.00" x2="112.13" y2="31.00" stroke="#0000ff" stroke-opacity="0.40" stroke-width="1.00" />
		<polygon fill="#e5e5e5" shape-rendering="crispEdges" points="879.00,13.00 879.00,-1.00 0.00,-1.00 0.00,13.00 " />
		<text x="0.00" y="10.00" font-family="Helvetica Bold" font-size="12" text-anchor="start" fill="#000000" >QEPC01013084.1:0..2946137 Sphenodon punctatus isolate mauimua-1 ScrUdWx_5527, whole genome shotgun sequence</text>
	</g>
</svg>
