<?xml version="1.0" standalone="no" ?>
<!DOCTYPE svg PUBLIC "-//W3C//DTD SVG 1.1//EN" "http://www.w3.org/Graphics/SVG/1.1/DTD/svg11.dtd">
<svg width="879px" height="83px" xmlns="http://www.w3.org/2000/svg" version="1.1" viewBox="0 0 879 83" >
	<style type="text/css" > <![CDATA[
		@import url("https://www.ncbi.nlm.nih.gov/projects/sviewer/css/svg_fonts.css");
	]]>
	</style>
	<desc >Generated by NCBI Genome Workbench http://www.ncbi.nlm.nih.gov/tools/gbench/</desc>
	<defs >
		<clipPath id="clipping-rect1" >
			<rect x="0" y="14" width="879" height="18" />
		</clipPath>
		<linearGradient id="gradient1" gradientTransform="rotate(90)" >
			<stop offset="0%" stop-color="#6c6c6c" />
			<stop offset="50%" stop-color="#b5b5b5" />
			<stop offset="100%" stop-color="#6c6c6c" />
		</linearGradient>
		<clipPath id="clipping-rect2" >
			<rect x="0" y="32" width="879" height="51" />
		</clipPath>
		<linearGradient id="gradient2" gradientTransform="rotate(90)" >
			<stop offset="0%" stop-color="#e6e6e6" stop-opacity="0.71" />
			<stop offset="100%" stop-color="#ffffff" stop-opacity="0.00" />
		</linearGradient>
	</defs>
	<g >
		<polygon fill="#ffffff" shape-rendering="crispEdges" points="879.00,31.00 879.00,13.00 0.00,13.00 0.00,31.00 " />
		<line x1="0.00" y1="29.00" x2="879.00" y2="29.00" stroke="#7f7f7f" stroke-width="1.00" clip-path="url('#clipping-rect1')" />
		<line x1="879.00" y1="29.00" x2="879.00" y2="26.00" stroke="#7f7f7f" stroke-width="1.00" clip-path="url('#clipping-rect1')" />
		<line x1="873.68" y1="29.00" x2="873.68" y2="27.00" stroke="#7f7f7f" stroke-width="1.00" clip-path="url('#clipping-rect1')" />
		<line x1="868.35" y1="29.00" x2="868.35" y2="27.00" stroke="#7f7f7f" stroke-width="1.00" clip-path="url('#clipping-rect1')" />
		<line x1="863.03" y1="29.00" x2="863.03" y2="27.00" stroke="#7f7f7f" stroke-width="1.00" clip-path="url('#clipping-rect1')" />
		<line x1="857.71" y1="29.00" x2="857.71" y2="27.00" stroke="#7f7f7f" stroke-width="1.00" clip-path="url('#clipping-rect1')" />
		<line x1="852.38" y1="29.00" x2="852.38" y2="27.00" stroke="#7f7f7f" stroke-width="1.00" clip-path="url('#clipping-rect1')" />
		<line x1="847.06" y1="29.00" x2="847.06" y2="27.00" stroke="#7f7f7f" stroke-width="1.00" clip-path="url('#clipping-rect1')" />
		<line x1="841.74" y1="29.00" x2="841.74" y2="27.00" stroke="#7f7f7f" stroke-width="1.00" clip-path="url('#clipping-rect1')" />
		<line x1="836.41" y1="29.00" x2="836.41" y2="27.00" stroke="#7f7f7f" stroke-width="1.00" clip-path="url('#clipping-rect1')" />
		<line x1="831.09" y1="29.00" x2="831.09" y2="27.00" stroke="#7f7f7f" stroke-width="1.00" clip-path="url('#clipping-rect1')" />
		<line x1="825.77" y1="29.00" x2="825.77" y2="26.00" stroke="#7f7f7f" stroke-width="1.00" clip-path="url('#clipping-rect1')" />
		<line x1="820.44" y1="29.00" x2="820.44" y2="27.00" stroke="#7f7f7f" stroke-width="1.00" clip-path="url('#clipping-rect1')" />
		<line x1="815.12" y1="29.00" x2="815.12" y2="27.00" stroke="#7f7f7f" stroke-width="1.00" clip-path="url('#clipping-rect1')" />
		<line x1="809.80" y1="29.00" x2="809.80" y2="27.00" stroke="#7f7f7f" stroke-width="1.00" clip-path="url('#clipping-rect1')" />
		<line x1="804.47" y1="29.00" x2="804.47" y2="27.00" stroke="#7f7f7f" stroke-width="1.00" clip-path="url('#clipping-rect1')" />
		<line x1="799.15" y1="29.00" x2="799.15" y2="27.00" stroke="#7f7f7f" stroke-width="1.00" clip-path="url('#clipping-rect1')" />
		<line x1="793.83" y1="29.00" x2="793.83" y2="27.00" stroke="#7f7f7f" stroke-width="1.00" clip-path="url('#clipping-rect1')" />
		<line x1="788.50" y1="29.00" x2="788.50" y2="27.00" stroke="#7f7f7f" stroke-width="1.00" clip-path="url('#clipping-rect1')" />
		<line x1="783.18" y1="29.00" x2="783.18" y2="27.00" stroke="#7f7f7f" stroke-width="1.00" clip-path="url('#clipping-rect1')" />
		<line x1="777.86" y1="29.00" x2="777.86" y2="27.00" stroke="#7f7f7f" stroke-width="1.00" clip-path="url('#clipping-rect1')" />
		<line x1="772.53" y1="29.00" x2="772.53" y2="26.00" stroke="#7f7f7f" stroke-width="1.00" clip-path="url('#clipping-rect1')" />
		<line x1="767.21" y1="29.00" x2="767.21" y2="27.00" stroke="#7f7f7f" stroke-width="1.00" clip-path="url('#clipping-rect1')" />
		<line x1="761.89" y1="29.00" x2="761.89" y2="27.00" stroke="#7f7f7f" stroke-width="1.00" clip-path="url('#clipping-rect1')" />
		<line x1="756.56" y1="29.00" x2="756.56" y2="27.00" stroke="#7f7f7f" stroke-width="1.00" clip-path="url('#clipping-rect1')" />
		<line x1="751.24" y1="29.00" x2="751.24" y2="27.00" stroke="#7f7f7f" stroke-width="1.00" clip-path="url('#clipping-rect1')" />
		<line x1="745.92" y1="29.00" x2="745.92" y2="27.00" stroke="#7f7f7f" stroke-width="1.00" clip-path="url('#clipping-rect1')" />
		<line x1="740.59" y1="29.00" x2="740.59" y2="27.00" stroke="#7f7f7f" stroke-width="1.00" clip-path="url('#clipping-rect1')" />
		<line x1="735.27" y1="29.00" x2="735.27" y2="27.00" stroke="#7f7f7f" stroke-width="1.00" clip-path="url('#clipping-rect1')" />
		<line x1="729.95" y1="29.00" x2="729.95" y2="27.00" stroke="#7f7f7f" stroke-width="1.00" clip-path="url('#clipping-rect1')" />
		<line x1="724.62" y1="29.00" x2="724.62" y2="27.00" stroke="#7f7f7f" stroke-width="1.00" clip-path="url('#clipping-rect1')" />
		<line x1="719.30" y1="29.00" x2="719.30" y2="26.00" stroke="#7f7f7f" stroke-width="1.00" clip-path="url('#clipping-rect1')" />
		<line x1="713.98" y1="29.00" x2="713.98" y2="27.00" stroke="#7f7f7f" stroke-width="1.00" clip-path="url('#clipping-rect1')" />
		<line x1="708.65" y1="29.00" x2="708.65" y2="27.00" stroke="#7f7f7f" stroke-width="1.00" clip-path="url('#clipping-rect1')" />
		<line x1="703.33" y1="29.00" x2="703.33" y2="27.00" stroke="#7f7f7f" stroke-width="1.00" clip-path="url('#clipping-rect1')" />
		<line x1="698.01" y1="29.00" x2="698.01" y2="27.00" stroke="#7f7f7f" stroke-width="1.00" clip-path="url('#clipping-rect1')" />
		<line x1="692.68" y1="29.00" x2="692.68" y2="27.00" stroke="#7f7f7f" stroke-width="1.00" clip-path="url('#clipping-rect1')" />
		<line x1="687.36" y1="29.00" x2="687.36" y2="27.00" stroke="#7f7f7f" stroke-width="1.00" clip-path="url('#clipping-rect1')" />
		<line x1="682.04" y1="29.00" x2="682.04" y2="27.00" stroke="#7f7f7f" stroke-width="1.00" clip-path="url('#clipping-rect1')" />
		<line x1="676.71" y1="29.00" x2="676.71" y2="27.00" stroke="#7f7f7f" stroke-width="1.00" clip-path="url('#clipping-rect1')" />
		<line x1="671.39" y1="29.00" x2="671.39" y2="27.00" stroke="#7f7f7f" stroke-width="1.00" clip-path="url('#clipping-rect1')" />
		<line x1="666.07" y1="29.00" x2="666.07" y2="26.00" stroke="#7f7f7f" stroke-width="1.00" clip-path="url('#clipping-rect1')" />
		<line x1="660.74" y1="29.00" x2="660.74" y2="27.00" stroke="#7f7f7f" stroke-width="1.00" clip-path="url('#clipping-rect1')" />
		<line x1="655.42" y1="29.00" x2="655.42" y2="27.00" stroke="#7f7f7f" stroke-width="1.00" clip-path="url('#clipping-rect1')" />
		<line x1="650.10" y1="29.00" x2="650.10" y2="27.00" stroke="#7f7f7f" stroke-width="1.00" clip-path="url('#clipping-rect1')" />
		<line x1="644.77" y1="29.00" x2="644.77" y2="27.00" stroke="#7f7f7f" stroke-width="1.00" clip-path="url('#clipping-rect1')" />
		<line x1="639.45" y1="29.00" x2="639.45" y2="27.00" stroke="#7f7f7f" stroke-width="1.00" clip-path="url('#clipping-rect1')" />
		<line x1="634.13" y1="29.00" x2="634.13" y2="27.00" stroke="#7f7f7f" stroke-width="1.00" clip-path="url('#clipping-rect1')" />
		<line x1="628.80" y1="29.00" x2="628.80" y2="27.00" stroke="#7f7f7f" stroke-width="1.00" clip-path="url('#clipping-rect1')" />
		<line x1="623.48" y1="29.00" x2="623.48" y2="27.00" stroke="#7f7f7f" stroke-width="1.00" clip-path="url('#clipping-rect1')" />
		<line x1="618.16" y1="29.00" x2="618.16" y2="27.00" stroke="#7f7f7f" stroke-width="1.00" clip-path="url('#clipping-rect1')" />
		<line x1="612.83" y1="29.00" x2="612.83" y2="26.00" stroke="#7f7f7f" stroke-width="1.00" clip-path="url('#clipping-rect1')" />
		<line x1="607.51" y1="29.00" x2="607.51" y2="27.00" stroke="#7f7f7f" stroke-width="1.00" clip-path="url('#clipping-rect1')" />
		<line x1="602.19" y1="29.00" x2="602.19" y2="27.00" stroke="#7f7f7f" stroke-width="1.00" clip-path="url('#clipping-rect1')" />
		<line x1="596.86" y1="29.00" x2="596.86" y2="27.00" stroke="#7f7f7f" stroke-width="1.00" clip-path="url('#clipping-rect1')" />
		<line x1="591.54" y1="29.00" x2="591.54" y2="27.00" stroke="#7f7f7f" stroke-width="1.00" clip-path="url('#clipping-rect1')" />
		<line x1="586.22" y1="29.00" x2="586.22" y2="27.00" stroke="#7f7f7f" stroke-width="1.00" clip-path="url('#clipping-rect1')" />
		<line x1="580.89" y1="29.00" x2="580.89" y2="27.00" stroke="#7f7f7f" stroke-width="1.00" clip-path="url('#clipping-rect1')" />
		<line x1="575.57" y1="29.00" x2="575.57" y2="27.00" stroke="#7f7f7f" stroke-width="1.00" clip-path="url('#clipping-rect1')" />
		<line x1="570.25" y1="29.00" x2="570.25" y2="27.00" stroke="#7f7f7f" stroke-width="1.00" clip-path="url('#clipping-rect1')" />
		<line x1="564.92" y1="29.00" x2="564.92" y2="27.00" stroke="#7f7f7f" stroke-width="1.00" clip-path="url('#clipping-rect1')" />
		<line x1="559.60" y1="29.00" x2="559.60" y2="26.00" stroke="#7f7f7f" stroke-width="1.00" clip-path="url('#clipping-rect1')" />
		<line x1="554.28" y1="29.00" x2="554.28" y2="27.00" stroke="#7f7f7f" stroke-width="1.00" clip-path="url('#clipping-rect1')" />
		<line x1="548.95" y1="29.00" x2="548.95" y2="27.00" stroke="#7f7f7f" stroke-width="1.00" clip-path="url('#clipping-rect1')" />
		<line x1="543.63" y1="29.00" x2="543.63" y2="27.00" stroke="#7f7f7f" stroke-width="1.00" clip-path="url('#clipping-rect1')" />
		<line x1="538.31" y1="29.00" x2="538.31" y2="27.00" stroke="#7f7f7f" stroke-width="1.00" clip-path="url('#clipping-rect1')" />
		<line x1="532.98" y1="29.00" x2="532.98" y2="27.00" stroke="#7f7f7f" stroke-width="1.00" clip-path="url('#clipping-rect1')" />
		<line x1="527.66" y1="29.00" x2="527.66" y2="27.00" stroke="#7f7f7f" stroke-width="1.00" clip-path="url('#clipping-rect1')" />
		<line x1="522.34" y1="29.00" x2="522.34" y2="27.00" stroke="#7f7f7f" stroke-width="1.00" clip-path="url('#clipping-rect1')" />
		<line x1="517.01" y1="29.00" x2="517.01" y2="27.00" stroke="#7f7f7f" stroke-width="1.00" clip-path="url('#clipping-rect1')" />
		<line x1="511.69" y1="29.00" x2="511.69" y2="27.00" stroke="#7f7f7f" stroke-width="1.00" clip-path="url('#clipping-rect1')" />
		<line x1="506.37" y1="29.00" x2="506.37" y2="26.00" stroke="#7f7f7f" stroke-width="1.00" clip-path="url('#clipping-rect1')" />
		<line x1="501.04" y1="29.00" x2="501.04" y2="27.00" stroke="#7f7f7f" stroke-width="1.00" clip-path="url('#clipping-rect1')" />
		<line x1="495.72" y1="29.00" x2="495.72" y2="27.00" stroke="#7f7f7f" stroke-width="1.00" clip-path="url('#clipping-rect1')" />
		<line x1="490.40" y1="29.00" x2="490.40" y2="27.00" stroke="#7f7f7f" stroke-width="1.00" clip-path="url('#clipping-rect1')" />
		<line x1="485.07" y1="29.00" x2="485.07" y2="27.00" stroke="#7f7f7f" stroke-width="1.00" clip-path="url('#clipping-rect1')" />
		<line x1="479.75" y1="29.00" x2="479.75" y2="27.00" stroke="#7f7f7f" stroke-width="1.00" clip-path="url('#clipping-rect1')" />
		<line x1="474.43" y1="29.00" x2="474.43" y2="27.00" stroke="#7f7f7f" stroke-width="1.00" clip-path="url('#clipping-rect1')" />
		<line x1="469.10" y1="29.00" x2="469.10" y2="27.00" stroke="#7f7f7f" stroke-width="1.00" clip-path="url('#clipping-rect1')" />
		<line x1="463.78" y1="29.00" x2="463.78" y2="27.00" stroke="#7f7f7f" stroke-width="1.00" clip-path="url('#clipping-rect1')" />
		<line x1="458.46" y1="29.00" x2="458.46" y2="27.00" stroke="#7f7f7f" stroke-width="1.00" clip-path="url('#clipping-rect1')" />
		<line x1="453.13" y1="29.00" x2="453.13" y2="26.00" stroke="#7f7f7f" stroke-width="1.00" clip-path="url('#clipping-rect1')" />
		<line x1="447.81" y1="29.00" x2="447.81" y2="27.00" stroke="#7f7f7f" stroke-width="1.00" clip-path="url('#clipping-rect1')" />
		<line x1="442.49" y1="29.00" x2="442.49" y2="27.00" stroke="#7f7f7f" stroke-width="1.00" clip-path="url('#clipping-rect1')" />
		<line x1="437.16" y1="29.00" x2="437.16" y2="27.00" stroke="#7f7f7f" stroke-width="1.00" clip-path="url('#clipping-rect1')" />
		<line x1="431.84" y1="29.00" x2="431.84" y2="27.00" stroke="#7f7f7f" stroke-width="1.00" clip-path="url('#clipping-rect1')" />
		<line x1="426.52" y1="29.00" x2="426.52" y2="27.00" stroke="#7f7f7f" stroke-width="1.00" clip-path="url('#clipping-rect1')" />
		<line x1="421.19" y1="29.00" x2="421.19" y2="27.00" stroke="#7f7f7f" stroke-width="1.00" clip-path="url('#clipping-rect1')" />
		<line x1="415.87" y1="29.00" x2="415.87" y2="27.00" stroke="#7f7f7f" stroke-width="1.00" clip-path="url('#clipping-rect1')" />
		<line x1="410.55" y1="29.00" x2="410.55" y2="27.00" stroke="#7f7f7f" stroke-width="1.00" clip-path="url('#clipping-rect1')" />
		<line x1="405.23" y1="29.00" x2="405.23" y2="27.00" stroke="#7f7f7f" stroke-width="1.00" clip-path="url('#clipping-rect1')" />
		<line x1="399.90" y1="29.00" x2="399.90" y2="26.00" stroke="#7f7f7f" stroke-width="1.00" clip-path="url('#clipping-rect1')" />
		<line x1="394.58" y1="29.00" x2="394.58" y2="27.00" stroke="#7f7f7f" stroke-width="1.00" clip-path="url('#clipping-rect1')" />
		<line x1="389.26" y1="29.00" x2="389.26" y2="27.00" stroke="#7f7f7f" stroke-width="1.00" clip-path="url('#clipping-rect1')" />
		<line x1="383.93" y1="29.00" x2="383.93" y2="27.00" stroke="#7f7f7f" stroke-width="1.00" clip-path="url('#clipping-rect1')" />
		<line x1="378.61" y1="29.00" x2="378.61" y2="27.00" stroke="#7f7f7f" stroke-width="1.00" clip-path="url('#clipping-rect1')" />
		<line x1="373.29" y1="29.00" x2="373.29" y2="27.00" stroke="#7f7f7f" stroke-width="1.00" clip-path="url('#clipping-rect1')" />
		<line x1="367.96" y1="29.00" x2="367.96" y2="27.00" stroke="#7f7f7f" stroke-width="1.00" clip-path="url('#clipping-rect1')" />
		<line x1="362.64" y1="29.00" x2="362.64" y2="27.00" stroke="#7f7f7f" stroke-width="1.00" clip-path="url('#clipping-rect1')" />
		<line x1="357.32" y1="29.00" x2="357.32" y2="27.00" stroke="#7f7f7f" stroke-width="1.00" clip-path="url('#clipping-rect1')" />
		<line x1="351.99" y1="29.00" x2="351.99" y2="27.00" stroke="#7f7f7f" stroke-width="1.00" clip-path="url('#clipping-rect1')" />
		<line x1="346.67" y1="29.00" x2="346.67" y2="26.00" stroke="#7f7f7f" stroke-width="1.00" clip-path="url('#clipping-rect1')" />
		<line x1="341.35" y1="29.00" x2="341.35" y2="27.00" stroke="#7f7f7f" stroke-width="1.00" clip-path="url('#clipping-rect1')" />
		<line x1="336.02" y1="29.00" x2="336.02" y2="27.00" stroke="#7f7f7f" stroke-width="1.00" clip-path="url('#clipping-rect1')" />
		<line x1="330.70" y1="29.00" x2="330.70" y2="27.00" stroke="#7f7f7f" stroke-width="1.00" clip-path="url('#clipping-rect1')" />
		<line x1="325.38" y1="29.00" x2="325.38" y2="27.00" stroke="#7f7f7f" stroke-width="1.00" clip-path="url('#clipping-rect1')" />
		<line x1="320.05" y1="29.00" x2="320.05" y2="27.00" stroke="#7f7f7f" stroke-width="1.00" clip-path="url('#clipping-rect1')" />
		<line x1="314.73" y1="29.00" x2="314.73" y2="27.00" stroke="#7f7f7f" stroke-width="1.00" clip-path="url('#clipping-rect1')" />
		<line x1="309.41" y1="29.00" x2="309.41" y2="27.00" stroke="#7f7f7f" stroke-width="1.00" clip-path="url('#clipping-rect1')" />
		<line x1="304.08" y1="29.00" x2="304.08" y2="27.00" stroke="#7f7f7f" stroke-width="1.00" clip-path="url('#clipping-rect1')" />
		<line x1="298.76" y1="29.00" x2="298.76" y2="27.00" stroke="#7f7f7f" stroke-width="1.00" clip-path="url('#clipping-rect1')" />
		<line x1="293.44" y1="29.00" x2="293.44" y2="26.00" stroke="#7f7f7f" stroke-width="1.00" clip-path="url('#clipping-rect1')" />
		<line x1="288.11" y1="29.00" x2="288.11" y2="27.00" stroke="#7f7f7f" stroke-width="1.00" clip-path="url('#clipping-rect1')" />
		<line x1="282.79" y1="29.00" x2="282.79" y2="27.00" stroke="#7f7f7f" stroke-width="1.00" clip-path="url('#clipping-rect1')" />
		<line x1="277.47" y1="29.00" x2="277.47" y2="27.00" stroke="#7f7f7f" stroke-width="1.00" clip-path="url('#clipping-rect1')" />
		<line x1="272.14" y1="29.00" x2="272.14" y2="27.00" stroke="#7f7f7f" stroke-width="1.00" clip-path="url('#clipping-rect1')" />
		<line x1="266.82" y1="29.00" x2="266.82" y2="27.00" stroke="#7f7f7f" stroke-width="1.00" clip-path="url('#clipping-rect1')" />
		<line x1="261.50" y1="29.00" x2="261.50" y2="27.00" stroke="#7f7f7f" stroke-width="1.00" clip-path="url('#clipping-rect1')" />
		<line x1="256.17" y1="29.00" x2="256.17" y2="27.00" stroke="#7f7f7f" stroke-width="1.00" clip-path="url('#clipping-rect1')" />
		<line x1="250.85" y1="29.00" x2="250.85" y2="27.00" stroke="#7f7f7f" stroke-width="1.00" clip-path="url('#clipping-rect1')" />
		<line x1="245.53" y1="29.00" x2="245.53" y2="27.00" stroke="#7f7f7f" stroke-width="1.00" clip-path="url('#clipping-rect1')" />
		<line x1="240.20" y1="29.00" x2="240.20" y2="26.00" stroke="#7f7f7f" stroke-width="1.00" clip-path="url('#clipping-rect1')" />
		<line x1="234.88" y1="29.00" x2="234.88" y2="27.00" stroke="#7f7f7f" stroke-width="1.00" clip-path="url('#clipping-rect1')" />
		<line x1="229.56" y1="29.00" x2="229.56" y2="27.00" stroke="#7f7f7f" stroke-width="1.00" clip-path="url('#clipping-rect1')" />
		<line x1="224.23" y1="29.00" x2="224.23" y2="27.00" stroke="#7f7f7f" stroke-width="1.00" clip-path="url('#clipping-rect1')" />
		<line x1="218.91" y1="29.00" x2="218.91" y2="27.00" stroke="#7f7f7f" stroke-width="1.00" clip-path="url('#clipping-rect1')" />
		<line x1="213.59" y1="29.00" x2="213.59" y2="27.00" stroke="#7f7f7f" stroke-width="1.00" clip-path="url('#clipping-rect1')" />
		<line x1="208.26" y1="29.00" x2="208.26" y2="27.00" stroke="#7f7f7f" stroke-width="1.00" clip-path="url('#clipping-rect1')" />
		<line x1="202.94" y1="29.00" x2="202.94" y2="27.00" stroke="#7f7f7f" stroke-width="1.00" clip-path="url('#clipping-rect1')" />
		<line x1="197.62" y1="29.00" x2="197.62" y2="27.00" stroke="#7f7f7f" stroke-width="1.00" clip-path="url('#clipping-rect1')" />
		<line x1="192.29" y1="29.00" x2="192.29" y2="27.00" stroke="#7f7f7f" stroke-width="1.00" clip-path="url('#clipping-rect1')" />
		<line x1="186.97" y1="29.00" x2="186.97" y2="26.00" stroke="#7f7f7f" stroke-width="1.00" clip-path="url('#clipping-rect1')" />
		<line x1="181.65" y1="29.00" x2="181.65" y2="27.00" stroke="#7f7f7f" stroke-width="1.00" clip-path="url('#clipping-rect1')" />
		<line x1="176.32" y1="29.00" x2="176.32" y2="27.00" stroke="#7f7f7f" stroke-width="1.00" clip-path="url('#clipping-rect1')" />
		<line x1="171.00" y1="29.00" x2="171.00" y2="27.00" stroke="#7f7f7f" stroke-width="1.00" clip-path="url('#clipping-rect1')" />
		<line x1="165.68" y1="29.00" x2="165.68" y2="27.00" stroke="#7f7f7f" stroke-width="1.00" clip-path="url('#clipping-rect1')" />
		<line x1="160.35" y1="29.00" x2="160.35" y2="27.00" stroke="#7f7f7f" stroke-width="1.00" clip-path="url('#clipping-rect1')" />
		<line x1="155.03" y1="29.00" x2="155.03" y2="27.00" stroke="#7f7f7f" stroke-width="1.00" clip-path="url('#clipping-rect1')" />
		<line x1="149.71" y1="29.00" x2="149.71" y2="27.00" stroke="#7f7f7f" stroke-width="1.00" clip-path="url('#clipping-rect1')" />
		<line x1="144.38" y1="29.00" x2="144.38" y2="27.00" stroke="#7f7f7f" stroke-width="1.00" clip-path="url('#clipping-rect1')" />
		<line x1="139.06" y1="29.00" x2="139.06" y2="27.00" stroke="#7f7f7f" stroke-width="1.00" clip-path="url('#clipping-rect1')" />
		<line x1="133.74" y1="29.00" x2="133.74" y2="26.00" stroke="#7f7f7f" stroke-width="1.00" clip-path="url('#clipping-rect1')" />
		<line x1="128.41" y1="29.00" x2="128.41" y2="27.00" stroke="#7f7f7f" stroke-width="1.00" clip-path="url('#clipping-rect1')" />
		<line x1="123.09" y1="29.00" x2="123.09" y2="27.00" stroke="#7f7f7f" stroke-width="1.00" clip-path="url('#clipping-rect1')" />
		<line x1="117.77" y1="29.00" x2="117.77" y2="27.00" stroke="#7f7f7f" stroke-width="1.00" clip-path="url('#clipping-rect1')" />
		<line x1="112.44" y1="29.00" x2="112.44" y2="27.00" stroke="#7f7f7f" stroke-width="1.00" clip-path="url('#clipping-rect1')" />
		<line x1="107.12" y1="29.00" x2="107.12" y2="27.00" stroke="#7f7f7f" stroke-width="1.00" clip-path="url('#clipping-rect1')" />
		<line x1="101.80" y1="29.00" x2="101.80" y2="27.00" stroke="#7f7f7f" stroke-width="1.00" clip-path="url('#clipping-rect1')" />
		<line x1="96.47" y1="29.00" x2="96.47" y2="27.00" stroke="#7f7f7f" stroke-width="1.00" clip-path="url('#clipping-rect1')" />
		<line x1="91.15" y1="29.00" x2="91.15" y2="27.00" stroke="#7f7f7f" stroke-width="1.00" clip-path="url('#clipping-rect1')" />
		<line x1="85.83" y1="29.00" x2="85.83" y2="27.00" stroke="#7f7f7f" stroke-width="1.00" clip-path="url('#clipping-rect1')" />
		<line x1="80.50" y1="29.00" x2="80.50" y2="26.00" stroke="#7f7f7f" stroke-width="1.00" clip-path="url('#clipping-rect1')" />
		<line x1="75.18" y1="29.00" x2="75.18" y2="27.00" stroke="#7f7f7f" stroke-width="1.00" clip-path="url('#clipping-rect1')" />
		<line x1="69.86" y1="29.00" x2="69.86" y2="27.00" stroke="#7f7f7f" stroke-width="1.00" clip-path="url('#clipping-rect1')" />
		<line x1="64.53" y1="29.00" x2="64.53" y2="27.00" stroke="#7f7f7f" stroke-width="1.00" clip-path="url('#clipping-rect1')" />
		<line x1="59.21" y1="29.00" x2="59.21" y2="27.00" stroke="#7f7f7f" stroke-width="1.00" clip-path="url('#clipping-rect1')" />
		<line x1="53.89" y1="29.00" x2="53.89" y2="27.00" stroke="#7f7f7f" stroke-width="1.00" clip-path="url('#clipping-rect1')" />
		<line x1="48.56" y1="29.00" x2="48.56" y2="27.00" stroke="#7f7f7f" stroke-width="1.00" clip-path="url('#clipping-rect1')" />
		<line x1="43.24" y1="29.00" x2="43.24" y2="27.00" stroke="#7f7f7f" stroke-width="1.00" clip-path="url('#clipping-rect1')" />
		<line x1="37.92" y1="29.00" x2="37.92" y2="27.00" stroke="#7f7f7f" stroke-width="1.00" clip-path="url('#clipping-rect1')" />
		<line x1="32.59" y1="29.00" x2="32.59" y2="27.00" stroke="#7f7f7f" stroke-width="1.00" clip-path="url('#clipping-rect1')" />
		<line x1="27.27" y1="29.00" x2="27.27" y2="26.00" stroke="#7f7f7f" stroke-width="1.00" clip-path="url('#clipping-rect1')" />
		<line x1="21.95" y1="29.00" x2="21.95" y2="27.00" stroke="#7f7f7f" stroke-width="1.00" clip-path="url('#clipping-rect1')" />
		<line x1="16.62" y1="29.00" x2="16.62" y2="27.00" stroke="#7f7f7f" stroke-width="1.00" clip-path="url('#clipping-rect1')" />
		<line x1="11.30" y1="29.00" x2="11.30" y2="27.00" stroke="#7f7f7f" stroke-width="1.00" clip-path="url('#clipping-rect1')" />
		<line x1="5.98" y1="29.00" x2="5.98" y2="27.00" stroke="#7f7f7f" stroke-width="1.00" clip-path="url('#clipping-rect1')" />
		<line x1="0.65" y1="29.00" x2="0.65" y2="27.00" stroke="#7f7f7f" stroke-width="1.00" clip-path="url('#clipping-rect1')" />
		<text x="0.00" y="24.00" font-family="Helvetica" font-size="10" fill="#333333" clip-path="url('#clipping-rect1')" >1,651,226</text>
		<line x1="0.00" y1="31.00" x2="0.00" y2="16.00" stroke="#7f7f7f" stroke-width="1.00" clip-path="url('#clipping-rect1')" />
		<text x="876.55" y="24.00" font-family="Helvetica" font-size="10" fill="#333333" clip-path="url('#clipping-rect1')" >1</text>
		<line x1="879.00" y1="31.00" x2="879.00" y2="16.00" stroke="#7f7f7f" stroke-width="1.00" clip-path="url('#clipping-rect1')" />
		<text x="827.77" y="24.00" font-family="Helvetica" font-size="10" fill="#333333" clip-path="url('#clipping-rect1')" >100 K</text>
		<line x1="825.77" y1="31.00" x2="825.77" y2="16.00" stroke="#7f7f7f" stroke-width="1.00" clip-path="url('#clipping-rect1')" />
		<text x="774.53" y="24.00" font-family="Helvetica" font-size="10" fill="#333333" clip-path="url('#clipping-rect1')" >200 K</text>
		<line x1="772.53" y1="31.00" x2="772.53" y2="16.00" stroke="#7f7f7f" stroke-width="1.00" clip-path="url('#clipping-rect1')" />
		<text x="721.30" y="24.00" font-family="Helvetica" font-size="10" fill="#333333" clip-path="url('#clipping-rect1')" >300 K</text>
		<line x1="719.30" y1="31.00" x2="719.30" y2="16.00" stroke="#7f7f7f" stroke-width="1.00" clip-path="url('#clipping-rect1')" />
		<text x="668.07" y="24.00" font-family="Helvetica" font-size="10" fill="#333333" clip-path="url('#clipping-rect1')" >400 K</text>
		<line x1="666.07" y1="31.00" x2="666.07" y2="16.00" stroke="#7f7f7f" stroke-width="1.00" clip-path="url('#clipping-rect1')" />
		<text x="614.83" y="24.00" font-family="Helvetica" font-size="10" fill="#333333" clip-path="url('#clipping-rect1')" >500 K</text>
		<line x1="612.83" y1="31.00" x2="612.83" y2="16.00" stroke="#7f7f7f" stroke-width="1.00" clip-path="url('#clipping-rect1')" />
		<text x="561.60" y="24.00" font-family="Helvetica" font-size="10" fill="#333333" clip-path="url('#clipping-rect1')" >600 K</text>
		<line x1="559.60" y1="31.00" x2="559.60" y2="16.00" stroke="#7f7f7f" stroke-width="1.00" clip-path="url('#clipping-rect1')" />
		<text x="508.37" y="24.00" font-family="Helvetica" font-size="10" fill="#333333" clip-path="url('#clipping-rect1')" >700 K</text>
		<line x1="506.37" y1="31.00" x2="506.37" y2="16.00" stroke="#7f7f7f" stroke-width="1.00" clip-path="url('#clipping-rect1')" />
		<text x="455.13" y="24.00" font-family="Helvetica" font-size="10" fill="#333333" clip-path="url('#clipping-rect1')" >800 K</text>
		<line x1="453.13" y1="31.00" x2="453.13" y2="16.00" stroke="#7f7f7f" stroke-width="1.00" clip-path="url('#clipping-rect1')" />
		<text x="401.90" y="24.00" font-family="Helvetica" font-size="10" fill="#333333" clip-path="url('#clipping-rect1')" >900 K</text>
		<line x1="399.90" y1="31.00" x2="399.90" y2="16.00" stroke="#7f7f7f" stroke-width="1.00" clip-path="url('#clipping-rect1')" />
		<text x="348.67" y="24.00" font-family="Helvetica" font-size="10" fill="#333333" clip-path="url('#clipping-rect1')" >1 M</text>
		<line x1="346.67" y1="31.00" x2="346.67" y2="16.00" stroke="#7f7f7f" stroke-width="1.00" clip-path="url('#clipping-rect1')" />
		<text x="295.44" y="24.00" font-family="Helvetica" font-size="10" fill="#333333" clip-path="url('#clipping-rect1')" >1,100 K</text>
		<line x1="293.44" y1="31.00" x2="293.44" y2="16.00" stroke="#7f7f7f" stroke-width="1.00" clip-path="url('#clipping-rect1')" />
		<text x="242.20" y="24.00" font-family="Helvetica" font-size="10" fill="#333333" clip-path="url('#clipping-rect1')" >1,200 K</text>
		<line x1="240.20" y1="31.00" x2="240.20" y2="16.00" stroke="#7f7f7f" stroke-width="1.00" clip-path="url('#clipping-rect1')" />
		<text x="188.97" y="24.00" font-family="Helvetica" font-size="10" fill="#333333" clip-path="url('#clipping-rect1')" >1,300 K</text>
		<line x1="186.97" y1="31.00" x2="186.97" y2="16.00" stroke="#7f7f7f" stroke-width="1.00" clip-path="url('#clipping-rect1')" />
		<text x="135.74" y="24.00" font-family="Helvetica" font-size="10" fill="#333333" clip-path="url('#clipping-rect1')" >1,400 K</text>
		<line x1="133.74" y1="31.00" x2="133.74" y2="16.00" stroke="#7f7f7f" stroke-width="1.00" clip-path="url('#clipping-rect1')" />
		<text x="82.50" y="24.00" font-family="Helvetica" font-size="10" fill="#333333" clip-path="url('#clipping-rect1')" >1,500 K</text>
		<line x1="80.50" y1="31.00" x2="80.50" y2="16.00" stroke="#7f7f7f" stroke-width="1.00" clip-path="url('#clipping-rect1')" />
		<line x1="879.00" y1="82.00" x2="879.00" y2="31.00" stroke="#ebebeb" stroke-width="1.00" />
		<line x1="825.94" y1="82.00" x2="825.94" y2="31.00" stroke="#ebebeb" stroke-width="1.00" />
		<line x1="772.88" y1="82.00" x2="772.88" y2="31.00" stroke="#ebebeb" stroke-width="1.00" />
		<line x1="719.82" y1="82.00" x2="719.82" y2="31.00" stroke="#ebebeb" stroke-width="1.00" />
		<line x1="666.76" y1="82.00" x2="666.76" y2="31.00" stroke="#ebebeb" stroke-width="1.00" />
		<line x1="612.70" y1="82.00" x2="612.70" y2="31.00" stroke="#ebebeb" stroke-width="1.00" />
		<line x1="559.64" y1="82.00" x2="559.64" y2="31.00" stroke="#ebebeb" stroke-width="1.00" />
		<line x1="506.58" y1="82.00" x2="506.58" y2="31.00" stroke="#ebebeb" stroke-width="1.00" />
		<line x1="453.52" y1="82.00" x2="453.52" y2="31.00" stroke="#ebebeb" stroke-width="1.00" />
		<line x1="399.45" y1="82.00" x2="399.45" y2="31.00" stroke="#ebebeb" stroke-width="1.00" />
		<line x1="346.39" y1="82.00" x2="346.39" y2="31.00" stroke="#ebebeb" stroke-width="1.00" />
		<line x1="293.33" y1="82.00" x2="293.33" y2="31.00" stroke="#ebebeb" stroke-width="1.00" />
		<line x1="240.27" y1="82.00" x2="240.27" y2="31.00" stroke="#ebebeb" stroke-width="1.00" />
		<line x1="186.21" y1="82.00" x2="186.21" y2="31.00" stroke="#ebebeb" stroke-width="1.00" />
		<line x1="133.15" y1="82.00" x2="133.15" y2="31.00" stroke="#ebebeb" stroke-width="1.00" />
		<line x1="80.09" y1="82.00" x2="80.09" y2="31.00" stroke="#ebebeb" stroke-width="1.00" />
		<line x1="27.03" y1="82.00" x2="27.03" y2="31.00" stroke="#ebebeb" stroke-width="1.00" />
		<polygon fill="url('#gradient1')" shape-rendering="crispEdges" points="0.00,37.50 0.00,33.00 879.00,33.00 879.00,37.50 879.00,42.00 0.00,42.00 " />
		<line x1="879.00" y1="42.00" x2="879.00" y2="33.00" stroke="#6c6c6c" stroke-width="1.00" stroke-linejoin="round" />
		<line x1="879.00" y1="33.00" x2="0.00" y2="33.00" stroke="#6c6c6c" stroke-width="1.00" stroke-linejoin="round" />
		<line x1="0.00" y1="33.00" x2="0.00" y2="42.00" stroke="#6c6c6c" stroke-width="1.00" stroke-linejoin="round" />
		<line x1="879.00" y1="42.00" x2="0.00" y2="42.00" stroke="#6c6c6c" stroke-width="1.00" stroke-linejoin="round" />
		<line x1="639.09" y1="63.00" x2="639.09" y2="78.00" stroke="#009900" stroke-opacity="0.10" stroke-width="1.00" stroke-linejoin="round" />
		<line x1="639.09" y1="78.00" x2="389.95" y2="78.00" stroke="#009900" stroke-opacity="0.10" stroke-width="1.00" stroke-linejoin="round" />
		<line x1="389.95" y1="78.00" x2="389.95" y2="63.00" stroke="#009900" stroke-opacity="0.10" stroke-width="1.00" stroke-linejoin="round" />
		<line x1="639.09" y1="63.00" x2="389.95" y2="63.00" stroke="#009900" stroke-opacity="0.10" stroke-width="1.00" stroke-linejoin="round" />
		<polygon fill="#1e8c1e" shape-rendering="crispEdges" points="503.32,65.00 503.32,76.00 504.32,76.00 504.32,65.00 " />
		<line x1="503.81" y1="70.50" x2="503.07" y2="70.50" stroke="#4ba34b" stroke-width="2.00" />
		<polygon fill="#1e8c1e" shape-rendering="crispEdges" points="502.55,65.00 502.55,76.00 503.55,76.00 503.55,65.00 " />
		<line x1="503.02" y1="70.50" x2="500.26" y2="70.50" stroke="#4ba34b" stroke-width="2.00" />
		<polygon fill="#1e8c1e" shape-rendering="crispEdges" points="499.71,65.00 499.71,76.00 500.71,76.00 500.71,65.00 " />
		<line x1="500.16" y1="70.50" x2="479.47" y2="70.50" stroke="#4ba34b" stroke-width="2.00" />
		<polygon fill="#b2b2b2" shape-rendering="crispEdges" points="485.42,70.50 494.22,66.10 492.02,70.50 494.22,74.90 " />
		<polygon fill="#1e8c1e" shape-rendering="crispEdges" points="478.94,65.00 478.94,76.00 479.94,76.00 479.94,65.00 " />
		<line x1="479.41" y1="70.50" x2="477.75" y2="70.50" stroke="#4ba34b" stroke-width="2.00" />
		<polygon fill="#1e8c1e" shape-rendering="crispEdges" points="477.20,65.00 477.20,76.00 478.20,76.00 478.20,65.00 " />
		<line x1="477.66" y1="70.50" x2="474.04" y2="70.50" stroke="#4ba34b" stroke-width="2.00" />
		<polygon fill="#77b977" shape-rendering="crispEdges" points="473.52,65.00 473.52,76.00 474.52,76.00 474.52,65.00 " />
		<line x1="474.01" y1="70.50" x2="469.42" y2="70.50" stroke="#4ba34b" stroke-width="2.00" />
		<polygon fill="#1e8c1e" shape-rendering="crispEdges" points="468.89,65.00 468.89,76.00 469.89,76.00 469.89,65.00 " />
		<line x1="469.36" y1="70.50" x2="462.28" y2="70.50" stroke="#4ba34b" stroke-width="2.00" />
		<polygon fill="#1e8c1e" shape-rendering="crispEdges" points="461.73,65.00 461.73,76.00 462.73,76.00 462.73,65.00 " />
		<line x1="462.19" y1="70.50" x2="451.14" y2="70.50" stroke="#4ba34b" stroke-width="2.00" />
		<polygon fill="#1e8c1e" shape-rendering="crispEdges" points="450.61,65.00 450.61,76.00 451.61,76.00 451.61,65.00 " />
		<line x1="451.07" y1="70.50" x2="448.66" y2="70.50" stroke="#4ba34b" stroke-width="2.00" />
		<polygon fill="#1e8c1e" shape-rendering="crispEdges" points="448.13,65.00 448.13,76.00 449.13,76.00 449.13,65.00 " />
		<line x1="448.60" y1="70.50" x2="447.74" y2="70.50" stroke="#4ba34b" stroke-width="2.00" />
		<polygon fill="#1e8c1e" shape-rendering="crispEdges" points="447.21,65.00 447.21,76.00 448.21,76.00 448.21,65.00 " />
		<line x1="447.69" y1="70.50" x2="442.81" y2="70.50" stroke="#4ba34b" stroke-width="2.00" />
		<polygon fill="#1e8c1e" shape-rendering="crispEdges" points="442.31,65.00 442.31,76.00 443.31,76.00 443.31,65.00 " />
		<line x1="442.81" y1="70.50" x2="438.59" y2="70.50" stroke="#4ba34b" stroke-width="2.00" />
		<polygon fill="#1e8c1e" shape-rendering="crispEdges" points="438.05,65.00 438.05,76.00 439.05,76.00 439.05,65.00 " />
		<line x1="438.51" y1="70.50" x2="437.24" y2="70.50" stroke="#4ba34b" stroke-width="2.00" />
		<polygon fill="#1e8c1e" shape-rendering="crispEdges" points="436.69,65.00 436.69,76.00 437.69,76.00 437.69,65.00 " />
		<line x1="437.15" y1="70.50" x2="435.36" y2="70.50" stroke="#4ba34b" stroke-width="2.00" />
		<polygon fill="#1e8c1e" shape-rendering="crispEdges" points="434.83,65.00 434.83,76.00 435.83,76.00 435.83,65.00 " />
		<line x1="435.30" y1="70.50" x2="421.44" y2="70.50" stroke="#4ba34b" stroke-width="2.00" />
		<polygon fill="#1e8c1e" shape-rendering="crispEdges" points="420.91,65.00 420.91,76.00 421.91,76.00 421.91,65.00 " />
		<line x1="421.38" y1="70.50" x2="420.88" y2="70.50" stroke="#4ba34b" stroke-width="2.00" />
		<polygon fill="#1e8c1e" shape-rendering="crispEdges" points="420.32,65.00 420.32,76.00 421.32,76.00 421.32,65.00 " />
		<line x1="420.77" y1="70.50" x2="417.27" y2="70.50" stroke="#4ba34b" stroke-width="2.00" />
		<polygon fill="#1e8c1e" shape-rendering="crispEdges" points="416.75,65.00 416.75,76.00 417.75,76.00 417.75,65.00 " />
		<line x1="417.23" y1="70.50" x2="409.86" y2="70.50" stroke="#4ba34b" stroke-width="2.00" />
		<polygon fill="#1e8c1e" shape-rendering="crispEdges" points="409.30,65.00 409.30,76.00 410.30,76.00 410.30,65.00 " />
		<line x1="409.74" y1="70.50" x2="405.50" y2="70.50" stroke="#4ba34b" stroke-width="2.00" />
		<polygon fill="#1e8c1e" shape-rendering="crispEdges" points="404.97,65.00 404.97,76.00 405.97,76.00 405.97,65.00 " />
		<line x1="405.44" y1="70.50" x2="405.35" y2="70.50" stroke="#4ba34b" stroke-width="2.00" />
		<polygon fill="#1e8c1e" shape-rendering="crispEdges" points="404.79,65.00 404.79,76.00 405.79,76.00 405.79,65.00 " />
		<line x1="405.22" y1="70.50" x2="405.17" y2="70.50" stroke="#4ba34b" stroke-width="2.00" />
		<polygon fill="#77b977" shape-rendering="crispEdges" points="404.62,65.00 404.62,76.00 405.62,76.00 405.62,65.00 " />
		<line x1="405.08" y1="70.50" x2="399.54" y2="70.50" stroke="#4ba34b" stroke-width="2.00" />
		<polygon fill="#77b977" shape-rendering="crispEdges" points="398.99,65.00 398.99,76.00 399.99,76.00 399.99,65.00 " />
		<line x1="399.45" y1="70.50" x2="398.65" y2="70.50" stroke="#4ba34b" stroke-width="2.00" />
		<polygon fill="#1e8c1e" shape-rendering="crispEdges" points="398.12,65.00 398.12,76.00 399.12,76.00 399.12,65.00 " />
		<line x1="398.58" y1="70.50" x2="396.78" y2="70.50" stroke="#4ba34b" stroke-width="2.00" />
		<polygon fill="#1e8c1e" shape-rendering="crispEdges" points="396.26,65.00 396.26,76.00 397.26,76.00 397.26,65.00 " />
		<line x1="396.74" y1="70.50" x2="392.06" y2="70.50" stroke="#4ba34b" stroke-width="2.00" />
		<polygon fill="#1e8c1e" shape-rendering="crispEdges" points="391.51,65.00 391.51,76.00 392.51,76.00 392.51,65.00 " />
		<polygon fill="#ffffff" shape-rendering="crispEdges" points="503.84,76.00 503.84,65.00 636.09,65.00 636.09,76.00 " />
		<text x="507.84" y="74.00" font-family="Helvetica" font-size="10" fill="#124d94" >ENSSPUG00000016543 [+4]</text>
		<polygon fill="url('#gradient2')" shape-rendering="crispEdges" points="0.00,58.00 879.00,58.00 879.00,44.00 0.00,44.00 " clip-path="url('#clipping-rect2')" />
		<text x="0.00" y="54.00" font-family="Helvetica" font-size="12" fill="#333333" >Genes, Ensembl release 114</text>
		<polygon fill="#0000ff" fill-opacity="0.20" shape-rendering="crispEdges" points="447.50,31.50 447.50,23.10 447.50,23.10 " />
		<polygon fill="#0000ff" fill-opacity="0.20" shape-rendering="crispEdges" points="447.50,31.50 447.50,31.50 447.50,23.10 " />
		<line x1="447.50" y1="30.50" x2="447.50" y2="23.10" stroke="#0000ff" stroke-opacity="0.40" stroke-width="1.00" />
		<line x1="447.50" y1="30.50" x2="447.50" y2="23.10" stroke="#0000ff" stroke-opacity="0.40" stroke-width="1.00" />
		<polygon fill="#0000ff" shape-rendering="crispEdges" points="441.79,22.35 441.50,20.50 441.79,18.65 442.65,16.97 443.97,15.65 445.65,14.79 447.50,14.50 447.50,26.50 445.65,26.21 443.97,25.35 442.65,24.03 " />
		<polygon fill="#0000ff" fill-opacity="0.60" shape-rendering="crispEdges" points="476.48,26.50 476.48,14.50 447.50,14.50 447.50,26.50 " />
		<text x="449.50" y="23.50" font-family="Helvetica" font-size="10" fill="#ffffff" >CHL1</text>
		<polygon fill="#0000ff" fill-opacity="0.20" shape-rendering="crispEdges" points="447.51,83.02 447.51,31.00 447.51,31.00 " />
		<polygon fill="#0000ff" fill-opacity="0.20" shape-rendering="crispEdges" points="447.51,83.02 447.51,83.02 447.51,31.00 " />
		<line x1="447.51" y1="82.00" x2="447.51" y2="31.00" stroke="#0000ff" stroke-opacity="0.40" stroke-width="1.00" />
		<line x1="447.51" y1="82.00" x2="447.51" y2="31.00" stroke="#0000ff" stroke-opacity="0.40" stroke-width="1.00" />
		<polygon fill="#e5e5e5" shape-rendering="crispEdges" points="879.00,13.00 879.00,-1.00 0.00,-1.00 0.00,13.00 " />
		<text x="0.00" y="10.00" font-family="Helvetica Bold" font-size="12" text-anchor="start" fill="#000000" >QEPC01013578.1:0..1651226 Sphenodon punctatus isolate mauimua-1 ScrUdWx_2523, whole genome shotgun sequence</text>
	</g>
</svg>
