<?xml version="1.0" standalone="no" ?>
<!DOCTYPE svg PUBLIC "-//W3C//DTD SVG 1.1//EN" "http://www.w3.org/Graphics/SVG/1.1/DTD/svg11.dtd">
<svg width="879px" height="338px" xmlns="http://www.w3.org/2000/svg" version="1.1" viewBox="0 0 879 338" >
	<style type="text/css" > <![CDATA[
		@import url("https://www.ncbi.nlm.nih.gov/projects/sviewer/css/svg_fonts.css");
	]]>
	</style>
	<desc >Generated by NCBI Genome Workbench http://www.ncbi.nlm.nih.gov/tools/gbench/</desc>
	<defs >
		<clipPath id="clipping-rect1" >
			<rect x="0" y="14" width="879" height="18" />
		</clipPath>
		<linearGradient id="gradient1" gradientTransform="rotate(90)" >
			<stop offset="0%" stop-color="#6c6c6c" />
			<stop offset="50%" stop-color="#b5b5b5" />
			<stop offset="100%" stop-color="#6c6c6c" />
		</linearGradient>
		<clipPath id="clipping-rect2" >
			<rect x="0" y="32" width="879" height="306" />
		</clipPath>
		<linearGradient id="gradient2" gradientTransform="rotate(90)" >
			<stop offset="0%" stop-color="#b6dead" />
			<stop offset="100%" stop-color="#ffffff" stop-opacity="0.00" />
		</linearGradient>
		<linearGradient id="gradient3" gradientTransform="rotate(90)" >
			<stop offset="0%" stop-color="#e6e6e6" stop-opacity="0.71" />
			<stop offset="100%" stop-color="#ffffff" stop-opacity="0.00" />
		</linearGradient>
	</defs>
	<g >
		<polygon fill="#ffffff" shape-rendering="crispEdges" points="879.00,31.00 879.00,13.00 0.00,13.00 0.00,31.00 " />
		<line x1="0.00" y1="29.00" x2="879.00" y2="29.00" stroke="#7f7f7f" stroke-width="1.00" clip-path="url('#clipping-rect1')" />
		<line x1="876.71" y1="29.00" x2="876.71" y2="27.00" stroke="#7f7f7f" stroke-width="1.00" clip-path="url('#clipping-rect1')" />
		<line x1="869.31" y1="29.00" x2="869.31" y2="26.00" stroke="#7f7f7f" stroke-width="1.00" clip-path="url('#clipping-rect1')" />
		<line x1="861.91" y1="29.00" x2="861.91" y2="27.00" stroke="#7f7f7f" stroke-width="1.00" clip-path="url('#clipping-rect1')" />
		<line x1="854.51" y1="29.00" x2="854.51" y2="26.00" stroke="#7f7f7f" stroke-width="1.00" clip-path="url('#clipping-rect1')" />
		<line x1="847.11" y1="29.00" x2="847.11" y2="27.00" stroke="#7f7f7f" stroke-width="1.00" clip-path="url('#clipping-rect1')" />
		<line x1="839.70" y1="29.00" x2="839.70" y2="26.00" stroke="#7f7f7f" stroke-width="1.00" clip-path="url('#clipping-rect1')" />
		<line x1="832.30" y1="29.00" x2="832.30" y2="27.00" stroke="#7f7f7f" stroke-width="1.00" clip-path="url('#clipping-rect1')" />
		<line x1="824.90" y1="29.00" x2="824.90" y2="26.00" stroke="#7f7f7f" stroke-width="1.00" clip-path="url('#clipping-rect1')" />
		<line x1="817.50" y1="29.00" x2="817.50" y2="27.00" stroke="#7f7f7f" stroke-width="1.00" clip-path="url('#clipping-rect1')" />
		<line x1="810.10" y1="29.00" x2="810.10" y2="26.00" stroke="#7f7f7f" stroke-width="1.00" clip-path="url('#clipping-rect1')" />
		<line x1="802.70" y1="29.00" x2="802.70" y2="27.00" stroke="#7f7f7f" stroke-width="1.00" clip-path="url('#clipping-rect1')" />
		<line x1="795.30" y1="29.00" x2="795.30" y2="26.00" stroke="#7f7f7f" stroke-width="1.00" clip-path="url('#clipping-rect1')" />
		<line x1="787.90" y1="29.00" x2="787.90" y2="27.00" stroke="#7f7f7f" stroke-width="1.00" clip-path="url('#clipping-rect1')" />
		<line x1="780.50" y1="29.00" x2="780.50" y2="26.00" stroke="#7f7f7f" stroke-width="1.00" clip-path="url('#clipping-rect1')" />
		<line x1="773.09" y1="29.00" x2="773.09" y2="27.00" stroke="#7f7f7f" stroke-width="1.00" clip-path="url('#clipping-rect1')" />
		<line x1="765.69" y1="29.00" x2="765.69" y2="26.00" stroke="#7f7f7f" stroke-width="1.00" clip-path="url('#clipping-rect1')" />
		<line x1="758.29" y1="29.00" x2="758.29" y2="27.00" stroke="#7f7f7f" stroke-width="1.00" clip-path="url('#clipping-rect1')" />
		<line x1="750.89" y1="29.00" x2="750.89" y2="26.00" stroke="#7f7f7f" stroke-width="1.00" clip-path="url('#clipping-rect1')" />
		<line x1="743.49" y1="29.00" x2="743.49" y2="27.00" stroke="#7f7f7f" stroke-width="1.00" clip-path="url('#clipping-rect1')" />
		<line x1="736.09" y1="29.00" x2="736.09" y2="26.00" stroke="#7f7f7f" stroke-width="1.00" clip-path="url('#clipping-rect1')" />
		<line x1="728.69" y1="29.00" x2="728.69" y2="27.00" stroke="#7f7f7f" stroke-width="1.00" clip-path="url('#clipping-rect1')" />
		<line x1="721.29" y1="29.00" x2="721.29" y2="26.00" stroke="#7f7f7f" stroke-width="1.00" clip-path="url('#clipping-rect1')" />
		<line x1="713.89" y1="29.00" x2="713.89" y2="27.00" stroke="#7f7f7f" stroke-width="1.00" clip-path="url('#clipping-rect1')" />
		<line x1="706.48" y1="29.00" x2="706.48" y2="26.00" stroke="#7f7f7f" stroke-width="1.00" clip-path="url('#clipping-rect1')" />
		<line x1="699.08" y1="29.00" x2="699.08" y2="27.00" stroke="#7f7f7f" stroke-width="1.00" clip-path="url('#clipping-rect1')" />
		<line x1="691.68" y1="29.00" x2="691.68" y2="26.00" stroke="#7f7f7f" stroke-width="1.00" clip-path="url('#clipping-rect1')" />
		<line x1="684.28" y1="29.00" x2="684.28" y2="27.00" stroke="#7f7f7f" stroke-width="1.00" clip-path="url('#clipping-rect1')" />
		<line x1="676.88" y1="29.00" x2="676.88" y2="26.00" stroke="#7f7f7f" stroke-width="1.00" clip-path="url('#clipping-rect1')" />
		<line x1="669.48" y1="29.00" x2="669.48" y2="27.00" stroke="#7f7f7f" stroke-width="1.00" clip-path="url('#clipping-rect1')" />
		<line x1="662.08" y1="29.00" x2="662.08" y2="26.00" stroke="#7f7f7f" stroke-width="1.00" clip-path="url('#clipping-rect1')" />
		<line x1="654.68" y1="29.00" x2="654.68" y2="27.00" stroke="#7f7f7f" stroke-width="1.00" clip-path="url('#clipping-rect1')" />
		<line x1="647.28" y1="29.00" x2="647.28" y2="26.00" stroke="#7f7f7f" stroke-width="1.00" clip-path="url('#clipping-rect1')" />
		<line x1="639.87" y1="29.00" x2="639.87" y2="27.00" stroke="#7f7f7f" stroke-width="1.00" clip-path="url('#clipping-rect1')" />
		<line x1="632.47" y1="29.00" x2="632.47" y2="26.00" stroke="#7f7f7f" stroke-width="1.00" clip-path="url('#clipping-rect1')" />
		<line x1="625.07" y1="29.00" x2="625.07" y2="27.00" stroke="#7f7f7f" stroke-width="1.00" clip-path="url('#clipping-rect1')" />
		<line x1="617.67" y1="29.00" x2="617.67" y2="26.00" stroke="#7f7f7f" stroke-width="1.00" clip-path="url('#clipping-rect1')" />
		<line x1="610.27" y1="29.00" x2="610.27" y2="27.00" stroke="#7f7f7f" stroke-width="1.00" clip-path="url('#clipping-rect1')" />
		<line x1="602.87" y1="29.00" x2="602.87" y2="26.00" stroke="#7f7f7f" stroke-width="1.00" clip-path="url('#clipping-rect1')" />
		<line x1="595.47" y1="29.00" x2="595.47" y2="27.00" stroke="#7f7f7f" stroke-width="1.00" clip-path="url('#clipping-rect1')" />
		<line x1="588.07" y1="29.00" x2="588.07" y2="26.00" stroke="#7f7f7f" stroke-width="1.00" clip-path="url('#clipping-rect1')" />
		<line x1="580.67" y1="29.00" x2="580.67" y2="27.00" stroke="#7f7f7f" stroke-width="1.00" clip-path="url('#clipping-rect1')" />
		<line x1="573.26" y1="29.00" x2="573.26" y2="26.00" stroke="#7f7f7f" stroke-width="1.00" clip-path="url('#clipping-rect1')" />
		<line x1="565.86" y1="29.00" x2="565.86" y2="27.00" stroke="#7f7f7f" stroke-width="1.00" clip-path="url('#clipping-rect1')" />
		<line x1="558.46" y1="29.00" x2="558.46" y2="26.00" stroke="#7f7f7f" stroke-width="1.00" clip-path="url('#clipping-rect1')" />
		<line x1="551.06" y1="29.00" x2="551.06" y2="27.00" stroke="#7f7f7f" stroke-width="1.00" clip-path="url('#clipping-rect1')" />
		<line x1="543.66" y1="29.00" x2="543.66" y2="26.00" stroke="#7f7f7f" stroke-width="1.00" clip-path="url('#clipping-rect1')" />
		<line x1="536.26" y1="29.00" x2="536.26" y2="27.00" stroke="#7f7f7f" stroke-width="1.00" clip-path="url('#clipping-rect1')" />
		<line x1="528.86" y1="29.00" x2="528.86" y2="26.00" stroke="#7f7f7f" stroke-width="1.00" clip-path="url('#clipping-rect1')" />
		<line x1="521.46" y1="29.00" x2="521.46" y2="27.00" stroke="#7f7f7f" stroke-width="1.00" clip-path="url('#clipping-rect1')" />
		<line x1="514.06" y1="29.00" x2="514.06" y2="26.00" stroke="#7f7f7f" stroke-width="1.00" clip-path="url('#clipping-rect1')" />
		<line x1="506.66" y1="29.00" x2="506.66" y2="27.00" stroke="#7f7f7f" stroke-width="1.00" clip-path="url('#clipping-rect1')" />
		<line x1="499.25" y1="29.00" x2="499.25" y2="26.00" stroke="#7f7f7f" stroke-width="1.00" clip-path="url('#clipping-rect1')" />
		<line x1="491.85" y1="29.00" x2="491.85" y2="27.00" stroke="#7f7f7f" stroke-width="1.00" clip-path="url('#clipping-rect1')" />
		<line x1="484.45" y1="29.00" x2="484.45" y2="26.00" stroke="#7f7f7f" stroke-width="1.00" clip-path="url('#clipping-rect1')" />
		<line x1="477.05" y1="29.00" x2="477.05" y2="27.00" stroke="#7f7f7f" stroke-width="1.00" clip-path="url('#clipping-rect1')" />
		<line x1="469.65" y1="29.00" x2="469.65" y2="26.00" stroke="#7f7f7f" stroke-width="1.00" clip-path="url('#clipping-rect1')" />
		<line x1="462.25" y1="29.00" x2="462.25" y2="27.00" stroke="#7f7f7f" stroke-width="1.00" clip-path="url('#clipping-rect1')" />
		<line x1="454.85" y1="29.00" x2="454.85" y2="26.00" stroke="#7f7f7f" stroke-width="1.00" clip-path="url('#clipping-rect1')" />
		<line x1="447.45" y1="29.00" x2="447.45" y2="27.00" stroke="#7f7f7f" stroke-width="1.00" clip-path="url('#clipping-rect1')" />
		<line x1="440.05" y1="29.00" x2="440.05" y2="26.00" stroke="#7f7f7f" stroke-width="1.00" clip-path="url('#clipping-rect1')" />
		<line x1="432.64" y1="29.00" x2="432.64" y2="27.00" stroke="#7f7f7f" stroke-width="1.00" clip-path="url('#clipping-rect1')" />
		<line x1="425.24" y1="29.00" x2="425.24" y2="26.00" stroke="#7f7f7f" stroke-width="1.00" clip-path="url('#clipping-rect1')" />
		<line x1="417.84" y1="29.00" x2="417.84" y2="27.00" stroke="#7f7f7f" stroke-width="1.00" clip-path="url('#clipping-rect1')" />
		<line x1="410.44" y1="29.00" x2="410.44" y2="26.00" stroke="#7f7f7f" stroke-width="1.00" clip-path="url('#clipping-rect1')" />
		<line x1="403.04" y1="29.00" x2="403.04" y2="27.00" stroke="#7f7f7f" stroke-width="1.00" clip-path="url('#clipping-rect1')" />
		<line x1="395.64" y1="29.00" x2="395.64" y2="26.00" stroke="#7f7f7f" stroke-width="1.00" clip-path="url('#clipping-rect1')" />
		<line x1="388.24" y1="29.00" x2="388.24" y2="27.00" stroke="#7f7f7f" stroke-width="1.00" clip-path="url('#clipping-rect1')" />
		<line x1="380.84" y1="29.00" x2="380.84" y2="26.00" stroke="#7f7f7f" stroke-width="1.00" clip-path="url('#clipping-rect1')" />
		<line x1="373.44" y1="29.00" x2="373.44" y2="27.00" stroke="#7f7f7f" stroke-width="1.00" clip-path="url('#clipping-rect1')" />
		<line x1="366.03" y1="29.00" x2="366.03" y2="26.00" stroke="#7f7f7f" stroke-width="1.00" clip-path="url('#clipping-rect1')" />
		<line x1="358.63" y1="29.00" x2="358.63" y2="27.00" stroke="#7f7f7f" stroke-width="1.00" clip-path="url('#clipping-rect1')" />
		<line x1="351.23" y1="29.00" x2="351.23" y2="26.00" stroke="#7f7f7f" stroke-width="1.00" clip-path="url('#clipping-rect1')" />
		<line x1="343.83" y1="29.00" x2="343.83" y2="27.00" stroke="#7f7f7f" stroke-width="1.00" clip-path="url('#clipping-rect1')" />
		<line x1="336.43" y1="29.00" x2="336.43" y2="26.00" stroke="#7f7f7f" stroke-width="1.00" clip-path="url('#clipping-rect1')" />
		<line x1="329.03" y1="29.00" x2="329.03" y2="27.00" stroke="#7f7f7f" stroke-width="1.00" clip-path="url('#clipping-rect1')" />
		<line x1="321.63" y1="29.00" x2="321.63" y2="26.00" stroke="#7f7f7f" stroke-width="1.00" clip-path="url('#clipping-rect1')" />
		<line x1="314.23" y1="29.00" x2="314.23" y2="27.00" stroke="#7f7f7f" stroke-width="1.00" clip-path="url('#clipping-rect1')" />
		<line x1="306.83" y1="29.00" x2="306.83" y2="26.00" stroke="#7f7f7f" stroke-width="1.00" clip-path="url('#clipping-rect1')" />
		<line x1="299.42" y1="29.00" x2="299.42" y2="27.00" stroke="#7f7f7f" stroke-width="1.00" clip-path="url('#clipping-rect1')" />
		<line x1="292.02" y1="29.00" x2="292.02" y2="26.00" stroke="#7f7f7f" stroke-width="1.00" clip-path="url('#clipping-rect1')" />
		<line x1="284.62" y1="29.00" x2="284.62" y2="27.00" stroke="#7f7f7f" stroke-width="1.00" clip-path="url('#clipping-rect1')" />
		<line x1="277.22" y1="29.00" x2="277.22" y2="26.00" stroke="#7f7f7f" stroke-width="1.00" clip-path="url('#clipping-rect1')" />
		<line x1="269.82" y1="29.00" x2="269.82" y2="27.00" stroke="#7f7f7f" stroke-width="1.00" clip-path="url('#clipping-rect1')" />
		<line x1="262.42" y1="29.00" x2="262.42" y2="26.00" stroke="#7f7f7f" stroke-width="1.00" clip-path="url('#clipping-rect1')" />
		<line x1="255.02" y1="29.00" x2="255.02" y2="27.00" stroke="#7f7f7f" stroke-width="1.00" clip-path="url('#clipping-rect1')" />
		<line x1="247.62" y1="29.00" x2="247.62" y2="26.00" stroke="#7f7f7f" stroke-width="1.00" clip-path="url('#clipping-rect1')" />
		<line x1="240.22" y1="29.00" x2="240.22" y2="27.00" stroke="#7f7f7f" stroke-width="1.00" clip-path="url('#clipping-rect1')" />
		<line x1="232.82" y1="29.00" x2="232.82" y2="26.00" stroke="#7f7f7f" stroke-width="1.00" clip-path="url('#clipping-rect1')" />
		<line x1="225.41" y1="29.00" x2="225.41" y2="27.00" stroke="#7f7f7f" stroke-width="1.00" clip-path="url('#clipping-rect1')" />
		<line x1="218.01" y1="29.00" x2="218.01" y2="26.00" stroke="#7f7f7f" stroke-width="1.00" clip-path="url('#clipping-rect1')" />
		<line x1="210.61" y1="29.00" x2="210.61" y2="27.00" stroke="#7f7f7f" stroke-width="1.00" clip-path="url('#clipping-rect1')" />
		<line x1="203.21" y1="29.00" x2="203.21" y2="26.00" stroke="#7f7f7f" stroke-width="1.00" clip-path="url('#clipping-rect1')" />
		<line x1="195.81" y1="29.00" x2="195.81" y2="27.00" stroke="#7f7f7f" stroke-width="1.00" clip-path="url('#clipping-rect1')" />
		<line x1="188.41" y1="29.00" x2="188.41" y2="26.00" stroke="#7f7f7f" stroke-width="1.00" clip-path="url('#clipping-rect1')" />
		<line x1="181.01" y1="29.00" x2="181.01" y2="27.00" stroke="#7f7f7f" stroke-width="1.00" clip-path="url('#clipping-rect1')" />
		<line x1="173.61" y1="29.00" x2="173.61" y2="26.00" stroke="#7f7f7f" stroke-width="1.00" clip-path="url('#clipping-rect1')" />
		<line x1="166.21" y1="29.00" x2="166.21" y2="27.00" stroke="#7f7f7f" stroke-width="1.00" clip-path="url('#clipping-rect1')" />
		<line x1="158.80" y1="29.00" x2="158.80" y2="26.00" stroke="#7f7f7f" stroke-width="1.00" clip-path="url('#clipping-rect1')" />
		<line x1="151.40" y1="29.00" x2="151.40" y2="27.00" stroke="#7f7f7f" stroke-width="1.00" clip-path="url('#clipping-rect1')" />
		<line x1="144.00" y1="29.00" x2="144.00" y2="26.00" stroke="#7f7f7f" stroke-width="1.00" clip-path="url('#clipping-rect1')" />
		<line x1="136.60" y1="29.00" x2="136.60" y2="27.00" stroke="#7f7f7f" stroke-width="1.00" clip-path="url('#clipping-rect1')" />
		<line x1="129.20" y1="29.00" x2="129.20" y2="26.00" stroke="#7f7f7f" stroke-width="1.00" clip-path="url('#clipping-rect1')" />
		<line x1="121.80" y1="29.00" x2="121.80" y2="27.00" stroke="#7f7f7f" stroke-width="1.00" clip-path="url('#clipping-rect1')" />
		<line x1="114.40" y1="29.00" x2="114.40" y2="26.00" stroke="#7f7f7f" stroke-width="1.00" clip-path="url('#clipping-rect1')" />
		<line x1="107.00" y1="29.00" x2="107.00" y2="27.00" stroke="#7f7f7f" stroke-width="1.00" clip-path="url('#clipping-rect1')" />
		<line x1="99.60" y1="29.00" x2="99.60" y2="26.00" stroke="#7f7f7f" stroke-width="1.00" clip-path="url('#clipping-rect1')" />
		<line x1="92.19" y1="29.00" x2="92.19" y2="27.00" stroke="#7f7f7f" stroke-width="1.00" clip-path="url('#clipping-rect1')" />
		<line x1="84.79" y1="29.00" x2="84.79" y2="26.00" stroke="#7f7f7f" stroke-width="1.00" clip-path="url('#clipping-rect1')" />
		<line x1="77.39" y1="29.00" x2="77.39" y2="27.00" stroke="#7f7f7f" stroke-width="1.00" clip-path="url('#clipping-rect1')" />
		<line x1="69.99" y1="29.00" x2="69.99" y2="26.00" stroke="#7f7f7f" stroke-width="1.00" clip-path="url('#clipping-rect1')" />
		<line x1="62.59" y1="29.00" x2="62.59" y2="27.00" stroke="#7f7f7f" stroke-width="1.00" clip-path="url('#clipping-rect1')" />
		<line x1="55.19" y1="29.00" x2="55.19" y2="26.00" stroke="#7f7f7f" stroke-width="1.00" clip-path="url('#clipping-rect1')" />
		<line x1="47.79" y1="29.00" x2="47.79" y2="27.00" stroke="#7f7f7f" stroke-width="1.00" clip-path="url('#clipping-rect1')" />
		<line x1="40.39" y1="29.00" x2="40.39" y2="26.00" stroke="#7f7f7f" stroke-width="1.00" clip-path="url('#clipping-rect1')" />
		<line x1="32.99" y1="29.00" x2="32.99" y2="27.00" stroke="#7f7f7f" stroke-width="1.00" clip-path="url('#clipping-rect1')" />
		<line x1="25.58" y1="29.00" x2="25.58" y2="26.00" stroke="#7f7f7f" stroke-width="1.00" clip-path="url('#clipping-rect1')" />
		<line x1="18.18" y1="29.00" x2="18.18" y2="27.00" stroke="#7f7f7f" stroke-width="1.00" clip-path="url('#clipping-rect1')" />
		<line x1="10.78" y1="29.00" x2="10.78" y2="26.00" stroke="#7f7f7f" stroke-width="1.00" clip-path="url('#clipping-rect1')" />
		<line x1="3.38" y1="29.00" x2="3.38" y2="27.00" stroke="#7f7f7f" stroke-width="1.00" clip-path="url('#clipping-rect1')" />
		<text x="0.00" y="24.00" font-family="Helvetica" font-size="10" fill="#333333" clip-path="url('#clipping-rect1')" >937,284</text>
		<line x1="0.00" y1="31.00" x2="0.00" y2="16.00" stroke="#7f7f7f" stroke-width="1.00" clip-path="url('#clipping-rect1')" />
		<line x1="869.31" y1="31.00" x2="869.31" y2="16.00" stroke="#7f7f7f" stroke-width="1.00" clip-path="url('#clipping-rect1')" />
		<text x="797.30" y="24.00" font-family="Helvetica" font-size="10" fill="#333333" clip-path="url('#clipping-rect1')" >400 K</text>
		<line x1="795.30" y1="31.00" x2="795.30" y2="16.00" stroke="#7f7f7f" stroke-width="1.00" clip-path="url('#clipping-rect1')" />
		<text x="723.29" y="24.00" font-family="Helvetica" font-size="10" fill="#333333" clip-path="url('#clipping-rect1')" >450 K</text>
		<line x1="721.29" y1="31.00" x2="721.29" y2="16.00" stroke="#7f7f7f" stroke-width="1.00" clip-path="url('#clipping-rect1')" />
		<text x="649.28" y="24.00" font-family="Helvetica" font-size="10" fill="#333333" clip-path="url('#clipping-rect1')" >500 K</text>
		<line x1="647.28" y1="31.00" x2="647.28" y2="16.00" stroke="#7f7f7f" stroke-width="1.00" clip-path="url('#clipping-rect1')" />
		<text x="575.26" y="24.00" font-family="Helvetica" font-size="10" fill="#333333" clip-path="url('#clipping-rect1')" >550 K</text>
		<line x1="573.26" y1="31.00" x2="573.26" y2="16.00" stroke="#7f7f7f" stroke-width="1.00" clip-path="url('#clipping-rect1')" />
		<text x="501.25" y="24.00" font-family="Helvetica" font-size="10" fill="#333333" clip-path="url('#clipping-rect1')" >600 K</text>
		<line x1="499.25" y1="31.00" x2="499.25" y2="16.00" stroke="#7f7f7f" stroke-width="1.00" clip-path="url('#clipping-rect1')" />
		<text x="427.24" y="24.00" font-family="Helvetica" font-size="10" fill="#333333" clip-path="url('#clipping-rect1')" >650 K</text>
		<line x1="425.24" y1="31.00" x2="425.24" y2="16.00" stroke="#7f7f7f" stroke-width="1.00" clip-path="url('#clipping-rect1')" />
		<text x="353.23" y="24.00" font-family="Helvetica" font-size="10" fill="#333333" clip-path="url('#clipping-rect1')" >700 K</text>
		<line x1="351.23" y1="31.00" x2="351.23" y2="16.00" stroke="#7f7f7f" stroke-width="1.00" clip-path="url('#clipping-rect1')" />
		<text x="279.22" y="24.00" font-family="Helvetica" font-size="10" fill="#333333" clip-path="url('#clipping-rect1')" >750 K</text>
		<line x1="277.22" y1="31.00" x2="277.22" y2="16.00" stroke="#7f7f7f" stroke-width="1.00" clip-path="url('#clipping-rect1')" />
		<text x="205.21" y="24.00" font-family="Helvetica" font-size="10" fill="#333333" clip-path="url('#clipping-rect1')" >800 K</text>
		<line x1="203.21" y1="31.00" x2="203.21" y2="16.00" stroke="#7f7f7f" stroke-width="1.00" clip-path="url('#clipping-rect1')" />
		<text x="131.20" y="24.00" font-family="Helvetica" font-size="10" fill="#333333" clip-path="url('#clipping-rect1')" >850 K</text>
		<line x1="129.20" y1="31.00" x2="129.20" y2="16.00" stroke="#7f7f7f" stroke-width="1.00" clip-path="url('#clipping-rect1')" />
		<line x1="869.99" y1="337.00" x2="869.99" y2="31.00" stroke="#ebebeb" stroke-width="1.00" />
		<line x1="795.91" y1="337.00" x2="795.91" y2="31.00" stroke="#ebebeb" stroke-width="1.00" />
		<line x1="721.82" y1="337.00" x2="721.82" y2="31.00" stroke="#ebebeb" stroke-width="1.00" />
		<line x1="647.74" y1="337.00" x2="647.74" y2="31.00" stroke="#ebebeb" stroke-width="1.00" />
		<line x1="573.65" y1="337.00" x2="573.65" y2="31.00" stroke="#ebebeb" stroke-width="1.00" />
		<line x1="499.57" y1="337.00" x2="499.57" y2="31.00" stroke="#ebebeb" stroke-width="1.00" />
		<line x1="425.48" y1="337.00" x2="425.48" y2="31.00" stroke="#ebebeb" stroke-width="1.00" />
		<line x1="351.40" y1="337.00" x2="351.40" y2="31.00" stroke="#ebebeb" stroke-width="1.00" />
		<line x1="277.32" y1="337.00" x2="277.32" y2="31.00" stroke="#ebebeb" stroke-width="1.00" />
		<line x1="203.23" y1="337.00" x2="203.23" y2="31.00" stroke="#ebebeb" stroke-width="1.00" />
		<line x1="129.15" y1="337.00" x2="129.15" y2="31.00" stroke="#ebebeb" stroke-width="1.00" />
		<line x1="55.06" y1="337.00" x2="55.06" y2="31.00" stroke="#ebebeb" stroke-width="1.00" />
		<polygon fill="url('#gradient1')" shape-rendering="crispEdges" points="0.00,37.50 0.00,33.00 879.00,33.00 879.00,37.50 879.00,42.00 0.00,42.00 " />
		<line x1="879.00" y1="42.00" x2="879.00" y2="33.00" stroke="#6c6c6c" stroke-width="1.00" stroke-linejoin="round" />
		<line x1="879.00" y1="33.00" x2="0.00" y2="33.00" stroke="#6c6c6c" stroke-width="1.00" stroke-linejoin="round" />
		<line x1="0.00" y1="33.00" x2="0.00" y2="42.00" stroke="#6c6c6c" stroke-width="1.00" stroke-linejoin="round" />
		<line x1="879.00" y1="42.00" x2="0.00" y2="42.00" stroke="#6c6c6c" stroke-width="1.00" stroke-linejoin="round" />
		<polygon fill="url('#gradient2')" shape-rendering="crispEdges" points="0.00,58.00 879.00,58.00 879.00,44.00 0.00,44.00 " clip-path="url('#clipping-rect2')" />
		<text x="0.00" y="54.00" font-family="Helvetica" font-size="12" fill="#333333" >(U) Alignment for group templates, BLAST Results for: ref|NM_004727.3|</text>
		<polygon fill="url('#gradient2')" shape-rendering="crispEdges" points="0.00,74.00 879.00,74.00 879.00,60.00 0.00,60.00 " clip-path="url('#clipping-rect2')" />
		<text x="0.00" y="70.00" font-family="Helvetica" font-size="12" fill="#333333" >(U) BLAST Results for: ref|NM_004727.3|</text>
		<polygon fill="url('#gradient2')" shape-rendering="crispEdges" points="0.00,90.00 879.00,90.00 879.00,76.00 0.00,76.00 " clip-path="url('#clipping-rect2')" />
		<text x="0.00" y="86.00" font-family="Helvetica" font-size="12" fill="#333333" >(U) BLAST Results for: ref|NM_004727.3|</text>
		<polygon fill="url('#gradient2')" shape-rendering="crispEdges" points="0.00,106.00 879.00,106.00 879.00,92.00 0.00,92.00 " clip-path="url('#clipping-rect2')" />
		<text x="0.00" y="102.00" font-family="Helvetica" font-size="12" fill="#333333" >(U) Alignment for group templates, BLAST Results for: ref|NM_004727.3|</text>
		<polygon fill="url('#gradient2')" shape-rendering="crispEdges" points="0.00,122.00 879.00,122.00 879.00,108.00 0.00,108.00 " clip-path="url('#clipping-rect2')" />
		<text x="0.00" y="118.00" font-family="Helvetica" font-size="12" fill="#333333" >(U) BLAST Results for: ref|NM_004727.3|</text>
		<polygon fill="url('#gradient2')" shape-rendering="crispEdges" points="0.00,138.00 879.00,138.00 879.00,124.00 0.00,124.00 " clip-path="url('#clipping-rect2')" />
		<text x="0.00" y="134.00" font-family="Helvetica" font-size="12" fill="#333333" >(U) Alignment for group templates, BLAST Results for: ref|NM_004727.3|</text>
		<polygon fill="url('#gradient2')" shape-rendering="crispEdges" points="0.00,154.00 879.00,154.00 879.00,140.00 0.00,140.00 " clip-path="url('#clipping-rect2')" />
		<text x="0.00" y="150.00" font-family="Helvetica" font-size="12" fill="#333333" >(U) BLAST Results for: ref|NM_004727.3|</text>
		<polygon fill="url('#gradient2')" shape-rendering="crispEdges" points="0.00,170.00 879.00,170.00 879.00,156.00 0.00,156.00 " clip-path="url('#clipping-rect2')" />
		<text x="0.00" y="166.00" font-family="Helvetica" font-size="12" fill="#333333" >(U) Alignment for group templates, BLAST Results for: ref|NM_004727.3|</text>
		<polygon fill="url('#gradient2')" shape-rendering="crispEdges" points="0.00,186.00 879.00,186.00 879.00,172.00 0.00,172.00 " clip-path="url('#clipping-rect2')" />
		<text x="0.00" y="182.00" font-family="Helvetica" font-size="12" fill="#333333" >(U) BLAST Results for: ref|NM_004727.3|</text>
		<polygon fill="url('#gradient2')" shape-rendering="crispEdges" points="0.00,202.00 879.00,202.00 879.00,188.00 0.00,188.00 " clip-path="url('#clipping-rect2')" />
		<text x="0.00" y="198.00" font-family="Helvetica" font-size="12" fill="#333333" >(U) Alignment for group templates, BLAST Results for: ref|NM_004727.3|</text>
		<polygon fill="url('#gradient2')" shape-rendering="crispEdges" points="0.00,218.00 879.00,218.00 879.00,204.00 0.00,204.00 " clip-path="url('#clipping-rect2')" />
		<text x="0.00" y="214.00" font-family="Helvetica" font-size="12" fill="#333333" >(U) BLAST Results for: ref|NM_004727.3|</text>
		<line x1="879.00" y1="239.00" x2="879.00" y2="267.00" stroke="#009900" stroke-opacity="0.10" stroke-width="1.00" stroke-linejoin="round" />
		<line x1="879.00" y1="267.00" x2="159.47" y2="267.00" stroke="#009900" stroke-opacity="0.10" stroke-width="1.00" stroke-linejoin="round" />
		<line x1="159.47" y1="267.00" x2="159.47" y2="239.00" stroke="#009900" stroke-opacity="0.10" stroke-width="1.00" stroke-linejoin="round" />
		<line x1="879.00" y1="239.00" x2="159.47" y2="239.00" stroke="#009900" stroke-opacity="0.10" stroke-width="1.00" stroke-linejoin="round" />
		<text x="627.50" y="248.00" font-family="Helvetica" font-size="10" fill="#124d94" >ENSSPUG00000014128</text>
		<line x1="879.00" y1="259.50" x2="730.58" y2="259.50" stroke="#4ba34b" stroke-width="2.00" />
		<polygon fill="#b2b2b2" shape-rendering="crispEdges" points="850.39,259.50 859.19,255.10 856.99,259.50 859.19,263.90 " />
		<polygon fill="#9d9d9d" shape-rendering="crispEdges" points="750.39,259.50 759.19,255.10 756.99,259.50 759.19,263.90 " />
		<polygon fill="#1e8c1e" shape-rendering="crispEdges" points="729.92,254.00 729.92,265.00 730.92,265.00 730.92,254.00 " />
		<line x1="730.27" y1="259.50" x2="669.35" y2="259.50" stroke="#4ba34b" stroke-width="2.00" />
		<polygon fill="#b2b2b2" shape-rendering="crispEdges" points="695.41,259.50 704.21,255.10 702.01,259.50 704.21,263.90 " />
		<polygon fill="#1e8c1e" shape-rendering="crispEdges" points="668.77,254.00 668.77,265.00 669.77,265.00 669.77,254.00 " />
		<line x1="669.20" y1="259.50" x2="661.39" y2="259.50" stroke="#4ba34b" stroke-width="2.00" />
		<polygon fill="#1e8c1e" shape-rendering="crispEdges" points="660.76,254.00 660.76,265.00 661.76,265.00 661.76,254.00 " />
		<line x1="661.12" y1="259.50" x2="610.90" y2="259.50" stroke="#4ba34b" stroke-width="2.00" />
		<polygon fill="#b2b2b2" shape-rendering="crispEdges" points="631.61,259.50 640.41,255.10 638.21,259.50 640.41,263.90 " />
		<polygon fill="#1e8c1e" shape-rendering="crispEdges" points="610.30,254.00 610.30,265.00 611.30,265.00 611.30,254.00 " />
		<line x1="610.70" y1="259.50" x2="605.25" y2="259.50" stroke="#4ba34b" stroke-width="2.00" />
		<polygon fill="#1e8c1e" shape-rendering="crispEdges" points="604.65,254.00 604.65,265.00 605.65,265.00 605.65,254.00 " />
		<line x1="605.05" y1="259.50" x2="583.81" y2="259.50" stroke="#4ba34b" stroke-width="2.00" />
		<polygon fill="#b2b2b2" shape-rendering="crispEdges" points="590.03,259.50 598.83,255.10 596.63,259.50 598.83,263.90 " />
		<polygon fill="#1e8c1e" shape-rendering="crispEdges" points="583.20,254.00 583.20,265.00 584.20,265.00 584.20,254.00 " />
		<line x1="583.58" y1="259.50" x2="480.33" y2="259.50" stroke="#4ba34b" stroke-width="2.00" />
		<polygon fill="#b2b2b2" shape-rendering="crispEdges" points="527.56,259.50 536.36,255.10 534.16,259.50 536.36,263.90 " />
		<polygon fill="#1e8c1e" shape-rendering="crispEdges" points="479.76,254.00 479.76,265.00 480.76,265.00 480.76,254.00 " />
		<line x1="480.19" y1="259.50" x2="453.84" y2="259.50" stroke="#4ba34b" stroke-width="2.00" />
		<polygon fill="#b2b2b2" shape-rendering="crispEdges" points="462.62,259.50 471.42,255.10 469.22,259.50 471.42,263.90 " />
		<polygon fill="#1e8c1e" shape-rendering="crispEdges" points="453.31,254.00 453.31,265.00 454.31,265.00 454.31,254.00 " />
		<line x1="453.79" y1="259.50" x2="349.97" y2="259.50" stroke="#4ba34b" stroke-width="2.00" />
		<polygon fill="#b2b2b2" shape-rendering="crispEdges" points="397.48,259.50 406.28,255.10 404.08,259.50 406.28,263.90 " />
		<polygon fill="#1e8c1e" shape-rendering="crispEdges" points="349.34,254.00 349.34,265.00 350.34,265.00 350.34,254.00 " />
		<line x1="349.71" y1="259.50" x2="340.04" y2="259.50" stroke="#4ba34b" stroke-width="2.00" />
		<polygon fill="#1e8c1e" shape-rendering="crispEdges" points="339.45,254.00 339.45,265.00 340.45,265.00 340.45,254.00 " />
		<line x1="339.86" y1="259.50" x2="314.97" y2="259.50" stroke="#4ba34b" stroke-width="2.00" />
		<polygon fill="#b2b2b2" shape-rendering="crispEdges" points="323.02,259.50 331.82,255.10 329.62,259.50 331.82,263.90 " />
		<polygon fill="#1e8c1e" shape-rendering="crispEdges" points="314.35,254.00 314.35,265.00 315.35,265.00 315.35,254.00 " />
		<line x1="314.73" y1="259.50" x2="313.03" y2="259.50" stroke="#4ba34b" stroke-width="2.00" />
		<polygon fill="#1e8c1e" shape-rendering="crispEdges" points="312.41,254.00 312.41,265.00 313.41,265.00 313.41,254.00 " />
		<line x1="312.80" y1="259.50" x2="308.47" y2="259.50" stroke="#4ba34b" stroke-width="2.00" />
		<polygon fill="#1e8c1e" shape-rendering="crispEdges" points="307.92,254.00 307.92,265.00 308.92,265.00 308.92,254.00 " />
		<line x1="308.37" y1="259.50" x2="297.83" y2="259.50" stroke="#4ba34b" stroke-width="2.00" />
		<polygon fill="#1e8c1e" shape-rendering="crispEdges" points="297.16,254.00 297.16,265.00 298.16,265.00 298.16,254.00 " />
		<line x1="297.49" y1="259.50" x2="294.56" y2="259.50" stroke="#4ba34b" stroke-width="2.00" />
		<polygon fill="#1e8c1e" shape-rendering="crispEdges" points="293.97,254.00 293.97,265.00 294.97,265.00 294.97,254.00 " />
		<line x1="294.39" y1="259.50" x2="292.14" y2="259.50" stroke="#4ba34b" stroke-width="2.00" />
		<polygon fill="#1e8c1e" shape-rendering="crispEdges" points="291.50,254.00 291.50,265.00 292.50,265.00 292.50,254.00 " />
		<line x1="291.87" y1="259.50" x2="291.11" y2="259.50" stroke="#4ba34b" stroke-width="2.00" />
		<polygon fill="#1e8c1e" shape-rendering="crispEdges" points="290.52,254.00 290.52,265.00 291.52,265.00 291.52,254.00 " />
		<line x1="290.94" y1="259.50" x2="286.54" y2="259.50" stroke="#4ba34b" stroke-width="2.00" />
		<polygon fill="#1e8c1e" shape-rendering="crispEdges" points="285.90,254.00 285.90,265.00 286.90,265.00 286.90,254.00 " />
		<line x1="286.26" y1="259.50" x2="280.85" y2="259.50" stroke="#4ba34b" stroke-width="2.00" />
		<polygon fill="#1e8c1e" shape-rendering="crispEdges" points="280.33,254.00 280.33,265.00 281.33,265.00 281.33,254.00 " />
		<polygon fill="#ffffff" shape-rendering="crispEdges" points="760.23,265.00 760.23,254.00 878.00,254.00 878.00,265.00 " />
		<text x="764.23" y="263.00" font-family="Helvetica" font-size="10" fill="#124d94" >ENSSPUT00000019514.1</text>
		<polygon fill="#ffffff" shape-rendering="crispEdges" points="161.47,265.00 161.47,254.00 276.80,254.00 276.80,265.00 " />
		<text x="162.47" y="263.00" font-family="Helvetica" font-size="10" fill="#124d94" >ENSSPUP00000018323.1</text>
		<line x1="277.28" y1="305.00" x2="277.28" y2="333.00" stroke="#009900" stroke-opacity="0.10" stroke-width="1.00" stroke-linejoin="round" />
		<line x1="277.28" y1="333.00" x2="25.81" y2="333.00" stroke="#009900" stroke-opacity="0.10" stroke-width="1.00" stroke-linejoin="round" />
		<line x1="25.81" y1="333.00" x2="25.81" y2="305.00" stroke="#009900" stroke-opacity="0.10" stroke-width="1.00" stroke-linejoin="round" />
		<line x1="277.28" y1="305.00" x2="25.81" y2="305.00" stroke="#009900" stroke-opacity="0.10" stroke-width="1.00" stroke-linejoin="round" />
		<text x="97.20" y="314.00" font-family="Helvetica" font-size="10" fill="#124d94" >ENSSPUG00000014153</text>
		<polygon fill="#1e8c1e" shape-rendering="crispEdges" points="155.87,320.00 155.87,331.00 156.87,331.00 156.87,320.00 " />
		<line x1="156.23" y1="325.50" x2="154.65" y2="325.50" stroke="#4ba34b" stroke-width="2.00" />
		<polygon fill="#1e8c1e" shape-rendering="crispEdges" points="154.04,320.00 154.04,331.00 155.04,331.00 155.04,320.00 " />
		<line x1="154.44" y1="325.50" x2="154.03" y2="325.50" stroke="#4ba34b" stroke-width="2.00" />
		<polygon fill="#1e8c1e" shape-rendering="crispEdges" points="153.43,320.00 153.43,331.00 154.43,331.00 154.43,320.00 " />
		<line x1="153.84" y1="325.50" x2="151.44" y2="325.50" stroke="#4ba34b" stroke-width="2.00" />
		<polygon fill="#1e8c1e" shape-rendering="crispEdges" points="150.80,320.00 150.80,331.00 151.80,331.00 151.80,320.00 " />
		<line x1="151.16" y1="325.50" x2="150.91" y2="325.50" stroke="#4ba34b" stroke-width="2.00" />
		<polygon fill="#1e8c1e" shape-rendering="crispEdges" points="150.22,320.00 150.22,331.00 151.22,331.00 151.22,320.00 " />
		<line x1="150.53" y1="325.50" x2="147.51" y2="325.50" stroke="#4ba34b" stroke-width="2.00" />
		<polygon fill="#1e8c1e" shape-rendering="crispEdges" points="146.82,320.00 146.82,331.00 147.82,331.00 147.82,320.00 " />
		<polygon fill="#ffffff" shape-rendering="crispEdges" points="156.51,331.00 156.51,320.00 274.28,320.00 274.28,331.00 " />
		<text x="160.51" y="329.00" font-family="Helvetica" font-size="10" fill="#124d94" >ENSSPUT00000019539.1</text>
		<polygon fill="#ffffff" shape-rendering="crispEdges" points="27.81,331.00 27.81,320.00 143.14,320.00 143.14,331.00 " />
		<text x="28.81" y="329.00" font-family="Helvetica" font-size="10" fill="#124d94" >ENSSPUP00000018346.1</text>
		<line x1="229.72" y1="272.00" x2="229.72" y2="300.00" stroke="#009900" stroke-opacity="0.10" stroke-width="1.00" stroke-linejoin="round" />
		<line x1="229.72" y1="300.00" x2="0.00" y2="300.00" stroke="#009900" stroke-opacity="0.10" stroke-width="1.00" stroke-linejoin="round" />
		<line x1="0.00" y1="300.00" x2="0.00" y2="272.00" stroke="#009900" stroke-opacity="0.10" stroke-width="1.00" stroke-linejoin="round" />
		<line x1="229.72" y1="272.00" x2="0.00" y2="272.00" stroke="#009900" stroke-opacity="0.10" stroke-width="1.00" stroke-linejoin="round" />
		<text x="15.53" y="281.00" font-family="Helvetica" font-size="10" fill="#124d94" >ENSSPUG00000014174</text>
		<polygon fill="#1e8c1e" shape-rendering="crispEdges" points="107.76,287.00 107.76,298.00 108.76,298.00 108.76,287.00 " />
		<line x1="108.12" y1="292.50" x2="87.42" y2="292.50" stroke="#4ba34b" stroke-width="2.00" />
		<polygon fill="#b2b2b2" shape-rendering="crispEdges" points="102.17,292.50 93.37,288.10 95.57,292.50 93.37,296.90 " />
		<polygon fill="#1e8c1e" shape-rendering="crispEdges" points="86.83,287.00 86.83,298.00 87.83,298.00 87.83,287.00 " />
		<line x1="87.23" y1="292.50" x2="85.30" y2="292.50" stroke="#4ba34b" stroke-width="2.00" />
		<polygon fill="#1e8c1e" shape-rendering="crispEdges" points="84.75,287.00 84.75,298.00 85.75,298.00 85.75,287.00 " />
		<line x1="85.21" y1="292.50" x2="80.63" y2="292.50" stroke="#4ba34b" stroke-width="2.00" />
		<polygon fill="#1e8c1e" shape-rendering="crispEdges" points="80.04,287.00 80.04,298.00 81.04,298.00 81.04,287.00 " />
		<line x1="80.46" y1="292.50" x2="77.52" y2="292.50" stroke="#4ba34b" stroke-width="2.00" />
		<polygon fill="#1e8c1e" shape-rendering="crispEdges" points="76.94,287.00 76.94,298.00 77.94,298.00 77.94,287.00 " />
		<line x1="77.36" y1="292.50" x2="65.41" y2="292.50" stroke="#4ba34b" stroke-width="2.00" />
		<polygon fill="#1e8c1e" shape-rendering="crispEdges" points="64.79,287.00 64.79,298.00 65.79,298.00 65.79,287.00 " />
		<line x1="65.17" y1="292.50" x2="52.11" y2="292.50" stroke="#4ba34b" stroke-width="2.00" />
		<polygon fill="#1e8c1e" shape-rendering="crispEdges" points="51.50,287.00 51.50,298.00 52.50,298.00 52.50,287.00 " />
		<line x1="51.89" y1="292.50" x2="39.81" y2="292.50" stroke="#4ba34b" stroke-width="2.00" />
		<polygon fill="#1e8c1e" shape-rendering="crispEdges" points="39.16,287.00 39.16,298.00 40.16,298.00 40.16,287.00 " />
		<line x1="39.51" y1="292.50" x2="32.97" y2="292.50" stroke="#4ba34b" stroke-width="2.00" />
		<polygon fill="#1e8c1e" shape-rendering="crispEdges" points="32.38,287.00 32.38,298.00 33.38,298.00 33.38,287.00 " />
		<line x1="32.80" y1="292.50" x2="31.09" y2="292.50" stroke="#4ba34b" stroke-width="2.00" />
		<polygon fill="#1e8c1e" shape-rendering="crispEdges" points="30.51,287.00 30.51,298.00 31.51,298.00 31.51,287.00 " />
		<polygon fill="#ffffff" shape-rendering="crispEdges" points="108.39,298.00 108.39,287.00 226.72,287.00 226.72,298.00 " />
		<text x="112.39" y="296.00" font-family="Helvetica" font-size="10" fill="#124d94" >ENSSPUP00000018363.1</text>
		<polygon fill="url('#gradient3')" shape-rendering="crispEdges" points="0.00,234.00 879.00,234.00 879.00,220.00 0.00,220.00 " clip-path="url('#clipping-rect2')" />
		<text x="0.00" y="230.00" font-family="Helvetica" font-size="12" fill="#333333" >Genes, Ensembl release 114</text>
		<polygon fill="#0000ff" fill-opacity="0.20" shape-rendering="crispEdges" points="151.50,31.50 151.50,23.10 151.50,23.10 " />
		<polygon fill="#0000ff" fill-opacity="0.20" shape-rendering="crispEdges" points="151.50,31.50 151.50,31.50 151.50,23.10 " />
		<line x1="151.50" y1="30.50" x2="151.50" y2="23.10" stroke="#0000ff" stroke-opacity="0.40" stroke-width="1.00" />
		<line x1="151.50" y1="30.50" x2="151.50" y2="23.10" stroke="#0000ff" stroke-opacity="0.40" stroke-width="1.00" />
		<polygon fill="#0000ff" shape-rendering="crispEdges" points="145.79,22.35 145.50,20.50 145.79,18.65 146.65,16.97 147.97,15.65 149.65,14.79 151.50,14.50 151.50,26.50 149.65,26.21 147.97,25.35 146.65,24.03 " />
		<polygon fill="#0000ff" fill-opacity="0.60" shape-rendering="crispEdges" points="187.42,26.50 187.42,14.50 151.50,14.50 151.50,26.50 " />
		<text x="153.50" y="23.50" font-family="Helvetica" font-size="10" fill="#ffffff" >TRNT1</text>
		<polygon fill="#0000ff" fill-opacity="0.20" shape-rendering="crispEdges" points="151.17,338.00 151.17,31.00 151.17,31.00 " />
		<polygon fill="#0000ff" fill-opacity="0.20" shape-rendering="crispEdges" points="151.17,338.00 151.17,338.00 151.17,31.00 " />
		<line x1="151.17" y1="337.00" x2="151.17" y2="31.00" stroke="#0000ff" stroke-opacity="0.40" stroke-width="1.00" />
		<line x1="151.17" y1="337.00" x2="151.17" y2="31.00" stroke="#0000ff" stroke-opacity="0.40" stroke-width="1.00" />
		<polygon fill="#0000ff" fill-opacity="0.20" shape-rendering="crispEdges" points="84.50,31.50 84.50,23.10 84.50,23.10 " />
		<polygon fill="#0000ff" fill-opacity="0.20" shape-rendering="crispEdges" points="84.50,31.50 84.50,31.50 84.50,23.10 " />
		<line x1="84.50" y1="30.50" x2="84.50" y2="23.10" stroke="#0000ff" stroke-opacity="0.40" stroke-width="1.00" />
		<line x1="84.50" y1="30.50" x2="84.50" y2="23.10" stroke="#0000ff" stroke-opacity="0.40" stroke-width="1.00" />
		<polygon fill="#0000ff" shape-rendering="crispEdges" points="78.79,22.35 78.50,20.50 78.79,18.65 79.65,16.97 80.97,15.65 82.65,14.79 84.50,14.50 84.50,26.50 82.65,26.21 80.97,25.35 79.65,24.03 " />
		<polygon fill="#0000ff" fill-opacity="0.60" shape-rendering="crispEdges" points="117.58,26.50 117.58,14.50 84.50,14.50 84.50,26.50 " />
		<text x="86.50" y="23.50" font-family="Helvetica" font-size="10" fill="#ffffff" >CRBN</text>
		<polygon fill="#0000ff" fill-opacity="0.20" shape-rendering="crispEdges" points="84.10,338.00 84.10,31.00 84.10,31.00 " />
		<polygon fill="#0000ff" fill-opacity="0.20" shape-rendering="crispEdges" points="84.10,338.00 84.10,338.00 84.10,31.00 " />
		<line x1="84.10" y1="337.00" x2="84.10" y2="31.00" stroke="#0000ff" stroke-opacity="0.40" stroke-width="1.00" />
		<line x1="84.10" y1="337.00" x2="84.10" y2="31.00" stroke="#0000ff" stroke-opacity="0.40" stroke-width="1.00" />
		<polygon fill="#0000ff" fill-opacity="0.20" shape-rendering="crispEdges" points="321.50,31.50 321.50,23.10 321.50,23.10 " />
		<polygon fill="#0000ff" fill-opacity="0.20" shape-rendering="crispEdges" points="321.50,31.50 321.50,31.50 321.50,23.10 " />
		<line x1="321.50" y1="30.50" x2="321.50" y2="23.10" stroke="#0000ff" stroke-opacity="0.40" stroke-width="1.00" />
		<line x1="321.50" y1="30.50" x2="321.50" y2="23.10" stroke="#0000ff" stroke-opacity="0.40" stroke-width="1.00" />
		<polygon fill="#0000ff" shape-rendering="crispEdges" points="315.79,22.35 315.50,20.50 315.79,18.65 316.65,16.97 317.97,15.65 319.65,14.79 321.50,14.50 321.50,26.50 319.65,26.21 317.97,25.35 316.65,24.03 " />
		<polygon fill="#0000ff" fill-opacity="0.60" shape-rendering="crispEdges" points="359.98,26.50 359.98,14.50 321.50,14.50 321.50,26.50 " />
		<text x="323.50" y="23.50" font-family="Helvetica" font-size="10" fill="#ffffff" >CNTN4</text>
		<polygon fill="#0000ff" fill-opacity="0.20" shape-rendering="crispEdges" points="321.37,338.00 321.37,31.00 321.37,31.00 " />
		<polygon fill="#0000ff" fill-opacity="0.20" shape-rendering="crispEdges" points="321.37,338.00 321.37,338.00 321.37,31.00 " />
		<line x1="321.37" y1="337.00" x2="321.37" y2="31.00" stroke="#0000ff" stroke-opacity="0.40" stroke-width="1.00" />
		<line x1="321.37" y1="337.00" x2="321.37" y2="31.00" stroke="#0000ff" stroke-opacity="0.40" stroke-width="1.00" />
		<polygon fill="#0000ff" fill-opacity="0.20" shape-rendering="crispEdges" points="204.50,23.10 204.50,31.50 193.50,31.50 193.50,23.10 " />
		<line x1="193.50" y1="30.50" x2="193.50" y2="23.10" stroke="#0000ff" stroke-opacity="0.40" stroke-width="1.00" />
		<line x1="204.50" y1="30.50" x2="204.50" y2="23.10" stroke="#0000ff" stroke-opacity="0.40" stroke-width="1.00" />
		<polygon fill="#0000ff" shape-rendering="crispEdges" points="187.79,22.35 187.50,20.50 187.79,18.65 188.65,16.97 189.97,15.65 191.65,14.79 193.50,14.50 193.50,26.50 191.65,26.21 189.97,25.35 188.65,24.03 " />
		<polygon fill="#0000ff" fill-opacity="0.60" shape-rendering="crispEdges" points="226.16,26.50 226.16,14.50 193.50,14.50 193.50,26.50 " />
		<text x="195.50" y="23.50" font-family="Helvetica" font-size="10" fill="#ffffff" >IL5RA</text>
		<polygon fill="#0000ff" fill-opacity="0.20" shape-rendering="crispEdges" points="204.23,31.00 204.23,338.00 193.22,338.00 193.22,31.00 " />
		<line x1="193.22" y1="337.00" x2="193.22" y2="31.00" stroke="#0000ff" stroke-opacity="0.40" stroke-width="1.00" />
		<line x1="204.23" y1="337.00" x2="204.23" y2="31.00" stroke="#0000ff" stroke-opacity="0.40" stroke-width="1.00" />
		<polygon fill="#e5e5e5" shape-rendering="crispEdges" points="879.00,13.00 879.00,-1.00 0.00,-1.00 0.00,13.00 " />
		<text x="0.00" y="10.00" font-family="Helvetica Bold" font-size="12" text-anchor="start" fill="#000000" >QEPC01000632.1:343452..937284 Sphenodon punctatus isolate mauimua-1 ScrUdWx_3966, whole genome shotgun sequence</text>
	</g>
</svg>
