<?xml version="1.0" standalone="no" ?>
<!DOCTYPE svg PUBLIC "-//W3C//DTD SVG 1.1//EN" "http://www.w3.org/Graphics/SVG/1.1/DTD/svg11.dtd">
<svg width="879px" height="115px" xmlns="http://www.w3.org/2000/svg" version="1.1" viewBox="0 0 879 115" >
	<style type="text/css" > <![CDATA[
		@import url("https://www.ncbi.nlm.nih.gov/projects/sviewer/css/svg_fonts.css");
	]]>
	</style>
	<desc >Generated by NCBI Genome Workbench http://www.ncbi.nlm.nih.gov/tools/gbench/</desc>
	<defs >
		<clipPath id="clipping-rect1" >
			<rect x="0" y="14" width="879" height="18" />
		</clipPath>
		<linearGradient id="gradient1" gradientTransform="rotate(90)" >
			<stop offset="0%" stop-color="#6c6c6c" />
			<stop offset="50%" stop-color="#b5b5b5" />
			<stop offset="100%" stop-color="#6c6c6c" />
		</linearGradient>
		<clipPath id="clipping-rect2" >
			<rect x="0" y="32" width="879" height="83" />
		</clipPath>
		<linearGradient id="gradient2" gradientTransform="rotate(90)" >
			<stop offset="0%" stop-color="#b6dead" />
			<stop offset="100%" stop-color="#ffffff" stop-opacity="0.00" />
		</linearGradient>
		<linearGradient id="gradient3" gradientTransform="rotate(90)" >
			<stop offset="0%" stop-color="#e6e6e6" stop-opacity="0.71" />
			<stop offset="100%" stop-color="#ffffff" stop-opacity="0.00" />
		</linearGradient>
	</defs>
	<g >
		<polygon fill="#ffffff" shape-rendering="crispEdges" points="879.00,31.00 879.00,13.00 0.00,13.00 0.00,31.00 " />
		<line x1="0.00" y1="28.88" x2="879.00" y2="28.88" stroke="#7f7f7f" stroke-width="1.00" clip-path="url('#clipping-rect1')" />
		<line x1="6.66" y1="28.88" x2="6.66" y2="26.76" stroke="#7f7f7f" stroke-width="1.00" clip-path="url('#clipping-rect1')" />
		<line x1="13.32" y1="28.88" x2="13.32" y2="26.76" stroke="#7f7f7f" stroke-width="1.00" clip-path="url('#clipping-rect1')" />
		<line x1="19.98" y1="28.88" x2="19.98" y2="26.76" stroke="#7f7f7f" stroke-width="1.00" clip-path="url('#clipping-rect1')" />
		<line x1="26.64" y1="28.88" x2="26.64" y2="26.76" stroke="#7f7f7f" stroke-width="1.00" clip-path="url('#clipping-rect1')" />
		<line x1="33.30" y1="28.88" x2="33.30" y2="25.71" stroke="#7f7f7f" stroke-width="1.00" clip-path="url('#clipping-rect1')" />
		<line x1="39.97" y1="28.88" x2="39.97" y2="26.76" stroke="#7f7f7f" stroke-width="1.00" clip-path="url('#clipping-rect1')" />
		<line x1="46.63" y1="28.88" x2="46.63" y2="26.76" stroke="#7f7f7f" stroke-width="1.00" clip-path="url('#clipping-rect1')" />
		<line x1="53.29" y1="28.88" x2="53.29" y2="26.76" stroke="#7f7f7f" stroke-width="1.00" clip-path="url('#clipping-rect1')" />
		<line x1="59.95" y1="28.88" x2="59.95" y2="26.76" stroke="#7f7f7f" stroke-width="1.00" clip-path="url('#clipping-rect1')" />
		<line x1="66.61" y1="28.88" x2="66.61" y2="25.71" stroke="#7f7f7f" stroke-width="1.00" clip-path="url('#clipping-rect1')" />
		<line x1="73.27" y1="28.88" x2="73.27" y2="26.76" stroke="#7f7f7f" stroke-width="1.00" clip-path="url('#clipping-rect1')" />
		<line x1="79.93" y1="28.88" x2="79.93" y2="26.76" stroke="#7f7f7f" stroke-width="1.00" clip-path="url('#clipping-rect1')" />
		<line x1="86.60" y1="28.88" x2="86.60" y2="26.76" stroke="#7f7f7f" stroke-width="1.00" clip-path="url('#clipping-rect1')" />
		<line x1="93.26" y1="28.88" x2="93.26" y2="26.76" stroke="#7f7f7f" stroke-width="1.00" clip-path="url('#clipping-rect1')" />
		<line x1="99.92" y1="28.88" x2="99.92" y2="25.71" stroke="#7f7f7f" stroke-width="1.00" clip-path="url('#clipping-rect1')" />
		<line x1="106.58" y1="28.88" x2="106.58" y2="26.76" stroke="#7f7f7f" stroke-width="1.00" clip-path="url('#clipping-rect1')" />
		<line x1="113.24" y1="28.88" x2="113.24" y2="26.76" stroke="#7f7f7f" stroke-width="1.00" clip-path="url('#clipping-rect1')" />
		<line x1="119.90" y1="28.88" x2="119.90" y2="26.76" stroke="#7f7f7f" stroke-width="1.00" clip-path="url('#clipping-rect1')" />
		<line x1="126.56" y1="28.88" x2="126.56" y2="26.76" stroke="#7f7f7f" stroke-width="1.00" clip-path="url('#clipping-rect1')" />
		<line x1="133.22" y1="28.88" x2="133.22" y2="25.71" stroke="#7f7f7f" stroke-width="1.00" clip-path="url('#clipping-rect1')" />
		<line x1="139.89" y1="28.88" x2="139.89" y2="26.76" stroke="#7f7f7f" stroke-width="1.00" clip-path="url('#clipping-rect1')" />
		<line x1="146.55" y1="28.88" x2="146.55" y2="26.76" stroke="#7f7f7f" stroke-width="1.00" clip-path="url('#clipping-rect1')" />
		<line x1="153.21" y1="28.88" x2="153.21" y2="26.76" stroke="#7f7f7f" stroke-width="1.00" clip-path="url('#clipping-rect1')" />
		<line x1="159.87" y1="28.88" x2="159.87" y2="26.76" stroke="#7f7f7f" stroke-width="1.00" clip-path="url('#clipping-rect1')" />
		<line x1="166.53" y1="28.88" x2="166.53" y2="25.71" stroke="#7f7f7f" stroke-width="1.00" clip-path="url('#clipping-rect1')" />
		<line x1="173.19" y1="28.88" x2="173.19" y2="26.76" stroke="#7f7f7f" stroke-width="1.00" clip-path="url('#clipping-rect1')" />
		<line x1="179.85" y1="28.88" x2="179.85" y2="26.76" stroke="#7f7f7f" stroke-width="1.00" clip-path="url('#clipping-rect1')" />
		<line x1="186.52" y1="28.88" x2="186.52" y2="26.76" stroke="#7f7f7f" stroke-width="1.00" clip-path="url('#clipping-rect1')" />
		<line x1="193.18" y1="28.88" x2="193.18" y2="26.76" stroke="#7f7f7f" stroke-width="1.00" clip-path="url('#clipping-rect1')" />
		<line x1="199.84" y1="28.88" x2="199.84" y2="25.71" stroke="#7f7f7f" stroke-width="1.00" clip-path="url('#clipping-rect1')" />
		<line x1="206.50" y1="28.88" x2="206.50" y2="26.76" stroke="#7f7f7f" stroke-width="1.00" clip-path="url('#clipping-rect1')" />
		<line x1="213.16" y1="28.88" x2="213.16" y2="26.76" stroke="#7f7f7f" stroke-width="1.00" clip-path="url('#clipping-rect1')" />
		<line x1="219.82" y1="28.88" x2="219.82" y2="26.76" stroke="#7f7f7f" stroke-width="1.00" clip-path="url('#clipping-rect1')" />
		<line x1="226.48" y1="28.88" x2="226.48" y2="26.76" stroke="#7f7f7f" stroke-width="1.00" clip-path="url('#clipping-rect1')" />
		<line x1="233.14" y1="28.88" x2="233.14" y2="25.71" stroke="#7f7f7f" stroke-width="1.00" clip-path="url('#clipping-rect1')" />
		<line x1="239.81" y1="28.88" x2="239.81" y2="26.76" stroke="#7f7f7f" stroke-width="1.00" clip-path="url('#clipping-rect1')" />
		<line x1="246.47" y1="28.88" x2="246.47" y2="26.76" stroke="#7f7f7f" stroke-width="1.00" clip-path="url('#clipping-rect1')" />
		<line x1="253.13" y1="28.88" x2="253.13" y2="26.76" stroke="#7f7f7f" stroke-width="1.00" clip-path="url('#clipping-rect1')" />
		<line x1="259.79" y1="28.88" x2="259.79" y2="26.76" stroke="#7f7f7f" stroke-width="1.00" clip-path="url('#clipping-rect1')" />
		<line x1="266.45" y1="28.88" x2="266.45" y2="25.71" stroke="#7f7f7f" stroke-width="1.00" clip-path="url('#clipping-rect1')" />
		<line x1="273.11" y1="28.88" x2="273.11" y2="26.76" stroke="#7f7f7f" stroke-width="1.00" clip-path="url('#clipping-rect1')" />
		<line x1="279.77" y1="28.88" x2="279.77" y2="26.76" stroke="#7f7f7f" stroke-width="1.00" clip-path="url('#clipping-rect1')" />
		<line x1="286.43" y1="28.88" x2="286.43" y2="26.76" stroke="#7f7f7f" stroke-width="1.00" clip-path="url('#clipping-rect1')" />
		<line x1="293.10" y1="28.88" x2="293.10" y2="26.76" stroke="#7f7f7f" stroke-width="1.00" clip-path="url('#clipping-rect1')" />
		<line x1="299.76" y1="28.88" x2="299.76" y2="25.71" stroke="#7f7f7f" stroke-width="1.00" clip-path="url('#clipping-rect1')" />
		<line x1="306.42" y1="28.88" x2="306.42" y2="26.76" stroke="#7f7f7f" stroke-width="1.00" clip-path="url('#clipping-rect1')" />
		<line x1="313.08" y1="28.88" x2="313.08" y2="26.76" stroke="#7f7f7f" stroke-width="1.00" clip-path="url('#clipping-rect1')" />
		<line x1="319.74" y1="28.88" x2="319.74" y2="26.76" stroke="#7f7f7f" stroke-width="1.00" clip-path="url('#clipping-rect1')" />
		<line x1="326.40" y1="28.88" x2="326.40" y2="26.76" stroke="#7f7f7f" stroke-width="1.00" clip-path="url('#clipping-rect1')" />
		<line x1="333.06" y1="28.88" x2="333.06" y2="25.71" stroke="#7f7f7f" stroke-width="1.00" clip-path="url('#clipping-rect1')" />
		<line x1="339.73" y1="28.88" x2="339.73" y2="26.76" stroke="#7f7f7f" stroke-width="1.00" clip-path="url('#clipping-rect1')" />
		<line x1="346.39" y1="28.88" x2="346.39" y2="26.76" stroke="#7f7f7f" stroke-width="1.00" clip-path="url('#clipping-rect1')" />
		<line x1="353.05" y1="28.88" x2="353.05" y2="26.76" stroke="#7f7f7f" stroke-width="1.00" clip-path="url('#clipping-rect1')" />
		<line x1="359.71" y1="28.88" x2="359.71" y2="26.76" stroke="#7f7f7f" stroke-width="1.00" clip-path="url('#clipping-rect1')" />
		<line x1="366.37" y1="28.88" x2="366.37" y2="25.71" stroke="#7f7f7f" stroke-width="1.00" clip-path="url('#clipping-rect1')" />
		<line x1="373.03" y1="28.88" x2="373.03" y2="26.76" stroke="#7f7f7f" stroke-width="1.00" clip-path="url('#clipping-rect1')" />
		<line x1="379.69" y1="28.88" x2="379.69" y2="26.76" stroke="#7f7f7f" stroke-width="1.00" clip-path="url('#clipping-rect1')" />
		<line x1="386.35" y1="28.88" x2="386.35" y2="26.76" stroke="#7f7f7f" stroke-width="1.00" clip-path="url('#clipping-rect1')" />
		<line x1="393.02" y1="28.88" x2="393.02" y2="26.76" stroke="#7f7f7f" stroke-width="1.00" clip-path="url('#clipping-rect1')" />
		<line x1="399.68" y1="28.88" x2="399.68" y2="25.71" stroke="#7f7f7f" stroke-width="1.00" clip-path="url('#clipping-rect1')" />
		<line x1="406.34" y1="28.88" x2="406.34" y2="26.76" stroke="#7f7f7f" stroke-width="1.00" clip-path="url('#clipping-rect1')" />
		<line x1="413.00" y1="28.88" x2="413.00" y2="26.76" stroke="#7f7f7f" stroke-width="1.00" clip-path="url('#clipping-rect1')" />
		<line x1="419.66" y1="28.88" x2="419.66" y2="26.76" stroke="#7f7f7f" stroke-width="1.00" clip-path="url('#clipping-rect1')" />
		<line x1="426.32" y1="28.88" x2="426.32" y2="26.76" stroke="#7f7f7f" stroke-width="1.00" clip-path="url('#clipping-rect1')" />
		<line x1="432.98" y1="28.88" x2="432.98" y2="25.71" stroke="#7f7f7f" stroke-width="1.00" clip-path="url('#clipping-rect1')" />
		<line x1="439.64" y1="28.88" x2="439.64" y2="26.76" stroke="#7f7f7f" stroke-width="1.00" clip-path="url('#clipping-rect1')" />
		<line x1="446.31" y1="28.88" x2="446.31" y2="26.76" stroke="#7f7f7f" stroke-width="1.00" clip-path="url('#clipping-rect1')" />
		<line x1="452.97" y1="28.88" x2="452.97" y2="26.76" stroke="#7f7f7f" stroke-width="1.00" clip-path="url('#clipping-rect1')" />
		<line x1="459.63" y1="28.88" x2="459.63" y2="26.76" stroke="#7f7f7f" stroke-width="1.00" clip-path="url('#clipping-rect1')" />
		<line x1="466.29" y1="28.88" x2="466.29" y2="25.71" stroke="#7f7f7f" stroke-width="1.00" clip-path="url('#clipping-rect1')" />
		<line x1="472.95" y1="28.88" x2="472.95" y2="26.76" stroke="#7f7f7f" stroke-width="1.00" clip-path="url('#clipping-rect1')" />
		<line x1="479.61" y1="28.88" x2="479.61" y2="26.76" stroke="#7f7f7f" stroke-width="1.00" clip-path="url('#clipping-rect1')" />
		<line x1="486.27" y1="28.88" x2="486.27" y2="26.76" stroke="#7f7f7f" stroke-width="1.00" clip-path="url('#clipping-rect1')" />
		<line x1="492.94" y1="28.88" x2="492.94" y2="26.76" stroke="#7f7f7f" stroke-width="1.00" clip-path="url('#clipping-rect1')" />
		<line x1="499.60" y1="28.88" x2="499.60" y2="25.71" stroke="#7f7f7f" stroke-width="1.00" clip-path="url('#clipping-rect1')" />
		<line x1="506.26" y1="28.88" x2="506.26" y2="26.76" stroke="#7f7f7f" stroke-width="1.00" clip-path="url('#clipping-rect1')" />
		<line x1="512.92" y1="28.88" x2="512.92" y2="26.76" stroke="#7f7f7f" stroke-width="1.00" clip-path="url('#clipping-rect1')" />
		<line x1="519.58" y1="28.88" x2="519.58" y2="26.76" stroke="#7f7f7f" stroke-width="1.00" clip-path="url('#clipping-rect1')" />
		<line x1="526.24" y1="28.88" x2="526.24" y2="26.76" stroke="#7f7f7f" stroke-width="1.00" clip-path="url('#clipping-rect1')" />
		<line x1="532.90" y1="28.88" x2="532.90" y2="25.71" stroke="#7f7f7f" stroke-width="1.00" clip-path="url('#clipping-rect1')" />
		<line x1="539.56" y1="28.88" x2="539.56" y2="26.76" stroke="#7f7f7f" stroke-width="1.00" clip-path="url('#clipping-rect1')" />
		<line x1="546.23" y1="28.88" x2="546.23" y2="26.76" stroke="#7f7f7f" stroke-width="1.00" clip-path="url('#clipping-rect1')" />
		<line x1="552.89" y1="28.88" x2="552.89" y2="26.76" stroke="#7f7f7f" stroke-width="1.00" clip-path="url('#clipping-rect1')" />
		<line x1="559.55" y1="28.88" x2="559.55" y2="26.76" stroke="#7f7f7f" stroke-width="1.00" clip-path="url('#clipping-rect1')" />
		<line x1="566.21" y1="28.88" x2="566.21" y2="25.71" stroke="#7f7f7f" stroke-width="1.00" clip-path="url('#clipping-rect1')" />
		<line x1="572.87" y1="28.88" x2="572.87" y2="26.76" stroke="#7f7f7f" stroke-width="1.00" clip-path="url('#clipping-rect1')" />
		<line x1="579.53" y1="28.88" x2="579.53" y2="26.76" stroke="#7f7f7f" stroke-width="1.00" clip-path="url('#clipping-rect1')" />
		<line x1="586.19" y1="28.88" x2="586.19" y2="26.76" stroke="#7f7f7f" stroke-width="1.00" clip-path="url('#clipping-rect1')" />
		<line x1="592.86" y1="28.88" x2="592.86" y2="26.76" stroke="#7f7f7f" stroke-width="1.00" clip-path="url('#clipping-rect1')" />
		<line x1="599.52" y1="28.88" x2="599.52" y2="25.71" stroke="#7f7f7f" stroke-width="1.00" clip-path="url('#clipping-rect1')" />
		<line x1="606.18" y1="28.88" x2="606.18" y2="26.76" stroke="#7f7f7f" stroke-width="1.00" clip-path="url('#clipping-rect1')" />
		<line x1="612.84" y1="28.88" x2="612.84" y2="26.76" stroke="#7f7f7f" stroke-width="1.00" clip-path="url('#clipping-rect1')" />
		<line x1="619.50" y1="28.88" x2="619.50" y2="26.76" stroke="#7f7f7f" stroke-width="1.00" clip-path="url('#clipping-rect1')" />
		<line x1="626.16" y1="28.88" x2="626.16" y2="26.76" stroke="#7f7f7f" stroke-width="1.00" clip-path="url('#clipping-rect1')" />
		<line x1="632.82" y1="28.88" x2="632.82" y2="25.71" stroke="#7f7f7f" stroke-width="1.00" clip-path="url('#clipping-rect1')" />
		<line x1="639.48" y1="28.88" x2="639.48" y2="26.76" stroke="#7f7f7f" stroke-width="1.00" clip-path="url('#clipping-rect1')" />
		<line x1="646.15" y1="28.88" x2="646.15" y2="26.76" stroke="#7f7f7f" stroke-width="1.00" clip-path="url('#clipping-rect1')" />
		<line x1="652.81" y1="28.88" x2="652.81" y2="26.76" stroke="#7f7f7f" stroke-width="1.00" clip-path="url('#clipping-rect1')" />
		<line x1="659.47" y1="28.88" x2="659.47" y2="26.76" stroke="#7f7f7f" stroke-width="1.00" clip-path="url('#clipping-rect1')" />
		<line x1="666.13" y1="28.88" x2="666.13" y2="25.71" stroke="#7f7f7f" stroke-width="1.00" clip-path="url('#clipping-rect1')" />
		<line x1="672.79" y1="28.88" x2="672.79" y2="26.76" stroke="#7f7f7f" stroke-width="1.00" clip-path="url('#clipping-rect1')" />
		<line x1="679.45" y1="28.88" x2="679.45" y2="26.76" stroke="#7f7f7f" stroke-width="1.00" clip-path="url('#clipping-rect1')" />
		<line x1="686.11" y1="28.88" x2="686.11" y2="26.76" stroke="#7f7f7f" stroke-width="1.00" clip-path="url('#clipping-rect1')" />
		<line x1="692.77" y1="28.88" x2="692.77" y2="26.76" stroke="#7f7f7f" stroke-width="1.00" clip-path="url('#clipping-rect1')" />
		<line x1="699.44" y1="28.88" x2="699.44" y2="25.71" stroke="#7f7f7f" stroke-width="1.00" clip-path="url('#clipping-rect1')" />
		<line x1="706.10" y1="28.88" x2="706.10" y2="26.76" stroke="#7f7f7f" stroke-width="1.00" clip-path="url('#clipping-rect1')" />
		<line x1="712.76" y1="28.88" x2="712.76" y2="26.76" stroke="#7f7f7f" stroke-width="1.00" clip-path="url('#clipping-rect1')" />
		<line x1="719.42" y1="28.88" x2="719.42" y2="26.76" stroke="#7f7f7f" stroke-width="1.00" clip-path="url('#clipping-rect1')" />
		<line x1="726.08" y1="28.88" x2="726.08" y2="26.76" stroke="#7f7f7f" stroke-width="1.00" clip-path="url('#clipping-rect1')" />
		<line x1="732.74" y1="28.88" x2="732.74" y2="25.71" stroke="#7f7f7f" stroke-width="1.00" clip-path="url('#clipping-rect1')" />
		<line x1="739.40" y1="28.88" x2="739.40" y2="26.76" stroke="#7f7f7f" stroke-width="1.00" clip-path="url('#clipping-rect1')" />
		<line x1="746.07" y1="28.88" x2="746.07" y2="26.76" stroke="#7f7f7f" stroke-width="1.00" clip-path="url('#clipping-rect1')" />
		<line x1="752.73" y1="28.88" x2="752.73" y2="26.76" stroke="#7f7f7f" stroke-width="1.00" clip-path="url('#clipping-rect1')" />
		<line x1="759.39" y1="28.88" x2="759.39" y2="26.76" stroke="#7f7f7f" stroke-width="1.00" clip-path="url('#clipping-rect1')" />
		<line x1="766.05" y1="28.88" x2="766.05" y2="25.71" stroke="#7f7f7f" stroke-width="1.00" clip-path="url('#clipping-rect1')" />
		<line x1="772.71" y1="28.88" x2="772.71" y2="26.76" stroke="#7f7f7f" stroke-width="1.00" clip-path="url('#clipping-rect1')" />
		<line x1="779.37" y1="28.88" x2="779.37" y2="26.76" stroke="#7f7f7f" stroke-width="1.00" clip-path="url('#clipping-rect1')" />
		<line x1="786.03" y1="28.88" x2="786.03" y2="26.76" stroke="#7f7f7f" stroke-width="1.00" clip-path="url('#clipping-rect1')" />
		<line x1="792.69" y1="28.88" x2="792.69" y2="26.76" stroke="#7f7f7f" stroke-width="1.00" clip-path="url('#clipping-rect1')" />
		<line x1="799.36" y1="28.88" x2="799.36" y2="25.71" stroke="#7f7f7f" stroke-width="1.00" clip-path="url('#clipping-rect1')" />
		<line x1="806.02" y1="28.88" x2="806.02" y2="26.76" stroke="#7f7f7f" stroke-width="1.00" clip-path="url('#clipping-rect1')" />
		<line x1="812.68" y1="28.88" x2="812.68" y2="26.76" stroke="#7f7f7f" stroke-width="1.00" clip-path="url('#clipping-rect1')" />
		<line x1="819.34" y1="28.88" x2="819.34" y2="26.76" stroke="#7f7f7f" stroke-width="1.00" clip-path="url('#clipping-rect1')" />
		<line x1="826.00" y1="28.88" x2="826.00" y2="26.76" stroke="#7f7f7f" stroke-width="1.00" clip-path="url('#clipping-rect1')" />
		<line x1="832.66" y1="28.88" x2="832.66" y2="25.71" stroke="#7f7f7f" stroke-width="1.00" clip-path="url('#clipping-rect1')" />
		<line x1="839.32" y1="28.88" x2="839.32" y2="26.76" stroke="#7f7f7f" stroke-width="1.00" clip-path="url('#clipping-rect1')" />
		<line x1="845.98" y1="28.88" x2="845.98" y2="26.76" stroke="#7f7f7f" stroke-width="1.00" clip-path="url('#clipping-rect1')" />
		<line x1="852.65" y1="28.88" x2="852.65" y2="26.76" stroke="#7f7f7f" stroke-width="1.00" clip-path="url('#clipping-rect1')" />
		<line x1="859.31" y1="28.88" x2="859.31" y2="26.76" stroke="#7f7f7f" stroke-width="1.00" clip-path="url('#clipping-rect1')" />
		<line x1="865.97" y1="28.88" x2="865.97" y2="25.71" stroke="#7f7f7f" stroke-width="1.00" clip-path="url('#clipping-rect1')" />
		<line x1="872.63" y1="28.88" x2="872.63" y2="26.76" stroke="#7f7f7f" stroke-width="1.00" clip-path="url('#clipping-rect1')" />
		<text x="0.00" y="23.59" font-family="Helvetica" font-size="10" fill="#333333" clip-path="url('#clipping-rect1')" >1</text>
		<line x1="0.00" y1="31.00" x2="0.00" y2="15.12" stroke="#7f7f7f" stroke-width="1.00" clip-path="url('#clipping-rect1')" />
		<text x="843.64" y="23.59" font-family="Helvetica" font-size="10" fill="#333333" clip-path="url('#clipping-rect1')" >263,912</text>
		<line x1="879.00" y1="31.00" x2="879.00" y2="15.12" stroke="#7f7f7f" stroke-width="1.00" clip-path="url('#clipping-rect1')" />
		<text x="801.36" y="23.59" font-family="Helvetica" font-size="10" fill="#333333" clip-path="url('#clipping-rect1')" >240 K</text>
		<line x1="799.36" y1="31.00" x2="799.36" y2="15.12" stroke="#7f7f7f" stroke-width="1.00" clip-path="url('#clipping-rect1')" />
		<text x="734.74" y="23.59" font-family="Helvetica" font-size="10" fill="#333333" clip-path="url('#clipping-rect1')" >220 K</text>
		<line x1="732.74" y1="31.00" x2="732.74" y2="15.12" stroke="#7f7f7f" stroke-width="1.00" clip-path="url('#clipping-rect1')" />
		<text x="668.13" y="23.59" font-family="Helvetica" font-size="10" fill="#333333" clip-path="url('#clipping-rect1')" >200 K</text>
		<line x1="666.13" y1="31.00" x2="666.13" y2="15.12" stroke="#7f7f7f" stroke-width="1.00" clip-path="url('#clipping-rect1')" />
		<text x="601.52" y="23.59" font-family="Helvetica" font-size="10" fill="#333333" clip-path="url('#clipping-rect1')" >180 K</text>
		<line x1="599.52" y1="31.00" x2="599.52" y2="15.12" stroke="#7f7f7f" stroke-width="1.00" clip-path="url('#clipping-rect1')" />
		<text x="534.90" y="23.59" font-family="Helvetica" font-size="10" fill="#333333" clip-path="url('#clipping-rect1')" >160 K</text>
		<line x1="532.90" y1="31.00" x2="532.90" y2="15.12" stroke="#7f7f7f" stroke-width="1.00" clip-path="url('#clipping-rect1')" />
		<text x="468.29" y="23.59" font-family="Helvetica" font-size="10" fill="#333333" clip-path="url('#clipping-rect1')" >140 K</text>
		<line x1="466.29" y1="31.00" x2="466.29" y2="15.12" stroke="#7f7f7f" stroke-width="1.00" clip-path="url('#clipping-rect1')" />
		<text x="401.68" y="23.59" font-family="Helvetica" font-size="10" fill="#333333" clip-path="url('#clipping-rect1')" >120 K</text>
		<line x1="399.68" y1="31.00" x2="399.68" y2="15.12" stroke="#7f7f7f" stroke-width="1.00" clip-path="url('#clipping-rect1')" />
		<text x="335.06" y="23.59" font-family="Helvetica" font-size="10" fill="#333333" clip-path="url('#clipping-rect1')" >100 K</text>
		<line x1="333.06" y1="31.00" x2="333.06" y2="15.12" stroke="#7f7f7f" stroke-width="1.00" clip-path="url('#clipping-rect1')" />
		<text x="268.45" y="23.59" font-family="Helvetica" font-size="10" fill="#333333" clip-path="url('#clipping-rect1')" >80 K</text>
		<line x1="266.45" y1="31.00" x2="266.45" y2="15.12" stroke="#7f7f7f" stroke-width="1.00" clip-path="url('#clipping-rect1')" />
		<text x="201.84" y="23.59" font-family="Helvetica" font-size="10" fill="#333333" clip-path="url('#clipping-rect1')" >60 K</text>
		<line x1="199.84" y1="31.00" x2="199.84" y2="15.12" stroke="#7f7f7f" stroke-width="1.00" clip-path="url('#clipping-rect1')" />
		<text x="135.22" y="23.59" font-family="Helvetica" font-size="10" fill="#333333" clip-path="url('#clipping-rect1')" >40 K</text>
		<line x1="133.22" y1="31.00" x2="133.22" y2="15.12" stroke="#7f7f7f" stroke-width="1.00" clip-path="url('#clipping-rect1')" />
		<text x="68.61" y="23.59" font-family="Helvetica" font-size="10" fill="#333333" clip-path="url('#clipping-rect1')" >20 K</text>
		<line x1="66.61" y1="31.00" x2="66.61" y2="15.12" stroke="#7f7f7f" stroke-width="1.00" clip-path="url('#clipping-rect1')" />
		<line x1="0.00" y1="114.00" x2="0.00" y2="31.00" stroke="#ebebeb" stroke-width="1.00" />
		<line x1="66.08" y1="114.00" x2="66.08" y2="31.00" stroke="#ebebeb" stroke-width="1.00" />
		<line x1="133.15" y1="114.00" x2="133.15" y2="31.00" stroke="#ebebeb" stroke-width="1.00" />
		<line x1="199.23" y1="114.00" x2="199.23" y2="31.00" stroke="#ebebeb" stroke-width="1.00" />
		<line x1="266.30" y1="114.00" x2="266.30" y2="31.00" stroke="#ebebeb" stroke-width="1.00" />
		<line x1="333.38" y1="114.00" x2="333.38" y2="31.00" stroke="#ebebeb" stroke-width="1.00" />
		<line x1="399.45" y1="114.00" x2="399.45" y2="31.00" stroke="#ebebeb" stroke-width="1.00" />
		<line x1="466.53" y1="114.00" x2="466.53" y2="31.00" stroke="#ebebeb" stroke-width="1.00" />
		<line x1="532.61" y1="114.00" x2="532.61" y2="31.00" stroke="#ebebeb" stroke-width="1.00" />
		<line x1="599.68" y1="114.00" x2="599.68" y2="31.00" stroke="#ebebeb" stroke-width="1.00" />
		<line x1="666.76" y1="114.00" x2="666.76" y2="31.00" stroke="#ebebeb" stroke-width="1.00" />
		<line x1="732.83" y1="114.00" x2="732.83" y2="31.00" stroke="#ebebeb" stroke-width="1.00" />
		<line x1="799.91" y1="114.00" x2="799.91" y2="31.00" stroke="#ebebeb" stroke-width="1.00" />
		<line x1="865.99" y1="114.00" x2="865.99" y2="31.00" stroke="#ebebeb" stroke-width="1.00" />
		<polygon fill="url('#gradient1')" shape-rendering="crispEdges" points="879.00,37.50 879.00,33.00 0.00,33.00 0.00,37.50 0.00,42.00 879.00,42.00 " />
		<line x1="0.00" y1="42.00" x2="0.00" y2="33.00" stroke="#6c6c6c" stroke-width="1.00" stroke-linejoin="round" />
		<line x1="0.00" y1="33.00" x2="879.00" y2="33.00" stroke="#6c6c6c" stroke-width="1.00" stroke-linejoin="round" />
		<line x1="879.00" y1="33.00" x2="879.00" y2="42.00" stroke="#6c6c6c" stroke-width="1.00" stroke-linejoin="round" />
		<line x1="0.00" y1="42.00" x2="879.00" y2="42.00" stroke="#6c6c6c" stroke-width="1.00" stroke-linejoin="round" />
		<polygon fill="url('#gradient2')" shape-rendering="crispEdges" points="0.00,58.00 879.00,58.00 879.00,44.00 0.00,44.00 " clip-path="url('#clipping-rect2')" />
		<text x="0.00" y="54.00" font-family="Helvetica" font-size="12" fill="#333333" >(U) Alignment for group templates, BLAST Results for: ref|NM_032753.4|</text>
		<polygon fill="url('#gradient2')" shape-rendering="crispEdges" points="0.00,74.00 879.00,74.00 879.00,60.00 0.00,60.00 " clip-path="url('#clipping-rect2')" />
		<text x="0.00" y="70.00" font-family="Helvetica" font-size="12" fill="#333333" >(U) BLAST Results for: ref|NM_032753.4|</text>
		<line x1="120.95" y1="95.00" x2="120.95" y2="110.00" stroke="#009900" stroke-opacity="0.10" stroke-width="1.00" stroke-linejoin="round" />
		<line x1="120.95" y1="110.00" x2="337.49" y2="110.00" stroke="#009900" stroke-opacity="0.10" stroke-width="1.00" stroke-linejoin="round" />
		<line x1="337.49" y1="110.00" x2="337.49" y2="95.00" stroke="#009900" stroke-opacity="0.10" stroke-width="1.00" stroke-linejoin="round" />
		<line x1="120.95" y1="95.00" x2="337.49" y2="95.00" stroke="#009900" stroke-opacity="0.10" stroke-width="1.00" stroke-linejoin="round" />
		<polygon fill="#6bb36b" shape-rendering="crispEdges" points="256.95,97.00 256.95,108.00 255.95,108.00 255.95,97.00 " />
		<line x1="256.71" y1="102.50" x2="257.49" y2="102.50" stroke="#4ba34b" stroke-width="2.00" />
		<polygon fill="#a5d1a5" shape-rendering="crispEdges" points="258.25,97.00 258.25,108.00 257.25,108.00 257.25,97.00 " />
		<polygon fill="#57a957" shape-rendering="crispEdges" points="258.88,97.00 258.88,108.00 257.88,108.00 257.88,97.00 " />
		<polygon fill="#7ebd7e" shape-rendering="crispEdges" points="259.34,97.00 259.34,108.00 258.34,108.00 258.34,97.00 " />
		<line x1="258.92" y1="102.50" x2="259.42" y2="102.50" stroke="#4ba34b" stroke-width="2.00" />
		<polygon fill="#91c791" shape-rendering="crispEdges" points="259.99,97.00 259.99,108.00 258.99,108.00 258.99,97.00 " />
		<line x1="259.55" y1="102.50" x2="260.92" y2="102.50" stroke="#4ba34b" stroke-width="2.00" />
		<polygon fill="#a5d1a5" shape-rendering="crispEdges" points="261.42,97.00 261.42,108.00 260.42,108.00 260.42,97.00 " />
		<polygon fill="#7ebd7e" shape-rendering="crispEdges" points="261.43,97.00 261.43,108.00 260.43,108.00 260.43,97.00 " />
		<polygon fill="#6bb36b" shape-rendering="crispEdges" points="261.44,97.00 261.44,108.00 260.44,108.00 260.44,97.00 " />
		<polygon fill="#449f44" shape-rendering="crispEdges" points="261.70,97.00 261.70,108.00 260.70,108.00 260.70,97.00 " />
		<line x1="261.44" y1="102.50" x2="263.72" y2="102.50" stroke="#4ba34b" stroke-width="2.00" />
		<polygon fill="#449f44" shape-rendering="crispEdges" points="264.54,97.00 264.54,108.00 263.54,108.00 263.54,97.00 " />
		<line x1="264.35" y1="102.50" x2="264.94" y2="102.50" stroke="#4ba34b" stroke-width="2.00" />
		<polygon fill="#449f44" shape-rendering="crispEdges" points="265.62,97.00 265.62,108.00 264.62,108.00 264.62,97.00 " />
		<polygon fill="#91c791" shape-rendering="crispEdges" points="265.86,97.00 265.86,108.00 264.86,108.00 264.86,97.00 " />
		<line x1="265.41" y1="102.50" x2="291.85" y2="102.50" stroke="#4ba34b" stroke-width="2.00" />
		<polygon fill="#b2b2b2" shape-rendering="crispEdges" points="283.03,102.50 274.23,98.10 276.43,102.50 274.23,106.90 " />
		<polygon fill="#a5d1a5" shape-rendering="crispEdges" points="292.61,97.00 292.61,108.00 291.61,108.00 291.61,97.00 " />
		<line x1="292.37" y1="102.50" x2="305.92" y2="102.50" stroke="#4ba34b" stroke-width="2.00" />
		<polygon fill="#57a957" shape-rendering="crispEdges" points="306.56,97.00 306.56,108.00 305.56,108.00 305.56,97.00 " />
		<polygon fill="#7ebd7e" shape-rendering="crispEdges" points="306.71,97.00 306.71,108.00 305.71,108.00 305.71,97.00 " />
		<line x1="306.22" y1="102.50" x2="311.28" y2="102.50" stroke="#4ba34b" stroke-width="2.00" />
		<polygon fill="#91c791" shape-rendering="crispEdges" points="311.81,97.00 311.81,108.00 310.81,108.00 310.81,97.00 " />
		<line x1="311.33" y1="102.50" x2="316.34" y2="102.50" stroke="#4ba34b" stroke-width="2.00" />
		<polygon fill="#91c791" shape-rendering="crispEdges" points="316.90,97.00 316.90,108.00 315.90,108.00 315.90,97.00 " />
		<polygon fill="#57a957" shape-rendering="crispEdges" points="316.97,97.00 316.97,108.00 315.97,108.00 315.97,97.00 " />
		<polygon fill="#319531" shape-rendering="crispEdges" points="317.17,97.00 317.17,108.00 316.17,108.00 316.17,97.00 " />
		<polygon fill="#1e8c1e" shape-rendering="crispEdges" points="317.59,97.00 317.59,108.00 316.59,108.00 316.59,97.00 " />
		<polygon fill="#6bb36b" shape-rendering="crispEdges" points="317.83,97.00 317.83,108.00 316.83,108.00 316.83,97.00 " />
		<line x1="317.35" y1="102.50" x2="317.68" y2="102.50" stroke="#4ba34b" stroke-width="2.00" />
		<polygon fill="#1e8c1e" shape-rendering="crispEdges" points="318.57,97.00 318.57,108.00 317.57,108.00 317.57,97.00 " />
		<line x1="318.46" y1="102.50" x2="321.53" y2="102.50" stroke="#4ba34b" stroke-width="2.00" />
		<polygon fill="#1e8c1e" shape-rendering="crispEdges" points="322.20,97.00 322.20,108.00 321.20,108.00 321.20,97.00 " />
		<line x1="321.86" y1="102.50" x2="327.63" y2="102.50" stroke="#4ba34b" stroke-width="2.00" />
		<polygon fill="#1e8c1e" shape-rendering="crispEdges" points="328.44,97.00 328.44,108.00 327.44,108.00 327.44,97.00 " />
		<line x1="328.25" y1="102.50" x2="328.53" y2="102.50" stroke="#4ba34b" stroke-width="2.00" />
		<polygon fill="#1e8c1e" shape-rendering="crispEdges" points="329.26,97.00 329.26,108.00 328.26,108.00 328.26,97.00 " />
		<polygon fill="#91c791" shape-rendering="crispEdges" points="329.50,97.00 329.50,108.00 328.50,108.00 328.50,97.00 " />
		<line x1="329.01" y1="102.50" x2="332.72" y2="102.50" stroke="#4ba34b" stroke-width="2.00" />
		<polygon fill="#449f44" shape-rendering="crispEdges" points="333.24,97.00 333.24,108.00 332.24,108.00 332.24,97.00 " />
		<polygon fill="#1e8c1e" shape-rendering="crispEdges" points="333.52,97.00 333.52,108.00 332.52,108.00 332.52,97.00 " />
		<polygon fill="#91c791" shape-rendering="crispEdges" points="335.49,97.00 335.49,108.00 333.28,108.00 333.28,97.00 " />
		<polygon fill="#ffffff" shape-rendering="crispEdges" points="256.20,108.00 256.20,97.00 123.95,97.00 123.95,108.00 " />
		<text x="123.95" y="106.00" font-family="Helvetica" font-size="10" fill="#124d94" >ENSSPUG00000011050 [+8]</text>
		<line x1="350.76" y1="95.00" x2="350.76" y2="110.00" stroke="#009900" stroke-opacity="0.10" stroke-width="1.00" stroke-linejoin="round" />
		<line x1="350.76" y1="110.00" x2="730.07" y2="110.00" stroke="#009900" stroke-opacity="0.10" stroke-width="1.00" stroke-linejoin="round" />
		<line x1="730.07" y1="110.00" x2="730.07" y2="95.00" stroke="#009900" stroke-opacity="0.10" stroke-width="1.00" stroke-linejoin="round" />
		<line x1="350.76" y1="95.00" x2="730.07" y2="95.00" stroke="#009900" stroke-opacity="0.10" stroke-width="1.00" stroke-linejoin="round" />
		<polygon fill="#91c791" shape-rendering="crispEdges" points="353.38,97.00 353.38,108.00 352.38,108.00 352.38,97.00 " />
		<line x1="353.00" y1="102.50" x2="354.23" y2="102.50" stroke="#4ba34b" stroke-width="2.00" />
		<polygon fill="#91c791" shape-rendering="crispEdges" points="354.87,97.00 354.87,108.00 353.87,108.00 353.87,97.00 " />
		<line x1="354.50" y1="102.50" x2="357.54" y2="102.50" stroke="#4ba34b" stroke-width="2.00" />
		<polygon fill="#91c791" shape-rendering="crispEdges" points="358.15,97.00 358.15,108.00 357.15,108.00 357.15,97.00 " />
		<line x1="357.76" y1="102.50" x2="357.94" y2="102.50" stroke="#4ba34b" stroke-width="2.00" />
		<polygon fill="#91c791" shape-rendering="crispEdges" points="358.49,97.00 358.49,108.00 357.49,108.00 357.49,97.00 " />
		<line x1="358.05" y1="102.50" x2="363.28" y2="102.50" stroke="#4ba34b" stroke-width="2.00" />
		<polygon fill="#91c791" shape-rendering="crispEdges" points="363.88,97.00 363.88,108.00 362.88,108.00 362.88,97.00 " />
		<polygon fill="#6bb36b" shape-rendering="crispEdges" points="364.02,97.00 364.02,108.00 363.02,108.00 363.02,97.00 " />
		<polygon fill="#1e8c1e" shape-rendering="crispEdges" points="364.37,97.00 364.37,108.00 363.37,108.00 363.37,97.00 " />
		<line x1="364.19" y1="102.50" x2="364.99" y2="102.50" stroke="#4ba34b" stroke-width="2.00" />
		<polygon fill="#1e8c1e" shape-rendering="crispEdges" points="365.94,97.00 365.94,108.00 364.94,108.00 364.94,97.00 " />
		<line x1="365.90" y1="102.50" x2="370.02" y2="102.50" stroke="#4ba34b" stroke-width="2.00" />
		<polygon fill="#1e8c1e" shape-rendering="crispEdges" points="370.89,97.00 370.89,108.00 369.89,108.00 369.89,97.00 " />
		<polygon fill="#449f44" shape-rendering="crispEdges" points="371.30,97.00 371.30,108.00 370.30,108.00 370.30,97.00 " />
		<line x1="370.85" y1="102.50" x2="374.17" y2="102.50" stroke="#4ba34b" stroke-width="2.00" />
		<polygon fill="#91c791" shape-rendering="crispEdges" points="374.72,97.00 374.72,108.00 373.72,108.00 373.72,97.00 " />
		<polygon fill="#1e8c1e" shape-rendering="crispEdges" points="374.86,97.00 374.86,108.00 373.86,108.00 373.86,97.00 " />
		<line x1="374.46" y1="102.50" x2="374.60" y2="102.50" stroke="#4ba34b" stroke-width="2.00" />
		<polygon fill="#1e8c1e" shape-rendering="crispEdges" points="375.17,97.00 375.17,108.00 374.17,108.00 374.17,97.00 " />
		<polygon fill="#449f44" shape-rendering="crispEdges" points="375.27,97.00 375.27,108.00 374.27,108.00 374.27,97.00 " />
		<line x1="374.80" y1="102.50" x2="383.99" y2="102.50" stroke="#4ba34b" stroke-width="2.00" />
		<polygon fill="#91c791" shape-rendering="crispEdges" points="384.52,97.00 384.52,108.00 383.52,108.00 383.52,97.00 " />
		<polygon fill="#1e8c1e" shape-rendering="crispEdges" points="384.78,97.00 384.78,108.00 383.78,108.00 383.78,97.00 " />
		<line x1="384.52" y1="102.50" x2="387.26" y2="102.50" stroke="#4ba34b" stroke-width="2.00" />
		<polygon fill="#1e8c1e" shape-rendering="crispEdges" points="388.20,97.00 388.20,108.00 387.20,108.00 387.20,97.00 " />
		<line x1="388.15" y1="102.50" x2="390.46" y2="102.50" stroke="#4ba34b" stroke-width="2.00" />
		<polygon fill="#1e8c1e" shape-rendering="crispEdges" points="391.10,97.00 391.10,108.00 390.10,108.00 390.10,97.00 " />
		<line x1="390.75" y1="102.50" x2="428.34" y2="102.50" stroke="#4ba34b" stroke-width="2.00" />
		<polygon fill="#b2b2b2" shape-rendering="crispEdges" points="405.14,102.50 413.94,98.10 411.74,102.50 413.94,106.90 " />
		<polygon fill="#1e8c1e" shape-rendering="crispEdges" points="429.18,97.00 429.18,108.00 428.18,108.00 428.18,97.00 " />
		<line x1="429.01" y1="102.50" x2="453.31" y2="102.50" stroke="#4ba34b" stroke-width="2.00" />
		<polygon fill="#b2b2b2" shape-rendering="crispEdges" points="436.76,102.50 445.56,98.10 443.36,102.50 445.56,106.90 " />
		<polygon fill="#6bb36b" shape-rendering="crispEdges" points="453.82,97.00 453.82,108.00 452.82,108.00 452.82,97.00 " />
		<polygon fill="#1e8c1e" shape-rendering="crispEdges" points="454.11,97.00 454.11,108.00 453.11,108.00 453.11,97.00 " />
		<line x1="453.90" y1="102.50" x2="510.98" y2="102.50" stroke="#4ba34b" stroke-width="2.00" />
		<polygon fill="#b2b2b2" shape-rendering="crispEdges" points="478.04,102.50 486.84,98.10 484.64,102.50 486.84,106.90 " />
		<polygon fill="#1e8c1e" shape-rendering="crispEdges" points="511.76,97.00 511.76,108.00 510.76,108.00 510.76,97.00 " />
		<line x1="511.54" y1="102.50" x2="513.39" y2="102.50" stroke="#4ba34b" stroke-width="2.00" />
		<polygon fill="#1e8c1e" shape-rendering="crispEdges" points="514.14,97.00 514.14,108.00 513.14,108.00 513.14,97.00 " />
		<polygon fill="#449f44" shape-rendering="crispEdges" points="514.49,97.00 514.49,108.00 513.49,108.00 513.49,97.00 " />
		<line x1="514.07" y1="102.50" x2="589.87" y2="102.50" stroke="#4ba34b" stroke-width="2.00" />
		<polygon fill="#b2b2b2" shape-rendering="crispEdges" points="547.57,102.50 556.37,98.10 554.17,102.50 556.37,106.90 " />
		<polygon fill="#91c791" shape-rendering="crispEdges" points="590.40,97.00 590.40,108.00 589.40,108.00 589.40,97.00 " />
		<polygon fill="#6bb36b" shape-rendering="crispEdges" points="590.46,97.00 590.46,108.00 589.46,108.00 589.46,97.00 " />
		<polygon fill="#1e8c1e" shape-rendering="crispEdges" points="590.70,97.00 590.70,108.00 589.70,108.00 589.70,97.00 " />
		<polygon fill="#449f44" shape-rendering="crispEdges" points="590.97,97.00 590.97,108.00 589.97,108.00 589.97,97.00 " />
		<polygon fill="#6bb36b" shape-rendering="crispEdges" points="591.03,97.00 591.03,108.00 590.03,108.00 590.03,97.00 " />
		<polygon fill="#91c791" shape-rendering="crispEdges" points="591.04,97.00 591.04,108.00 590.04,108.00 590.04,97.00 " />
		<line x1="590.55" y1="102.50" x2="594.57" y2="102.50" stroke="#4ba34b" stroke-width="2.00" />
		<polygon fill="#449f44" shape-rendering="crispEdges" points="595.09,97.00 595.09,108.00 594.09,108.00 594.09,97.00 " />
		<polygon fill="#6bb36b" shape-rendering="crispEdges" points="595.16,97.00 595.16,108.00 594.16,108.00 594.16,97.00 " />
		<polygon fill="#91c791" shape-rendering="crispEdges" points="595.27,97.00 595.27,108.00 594.27,108.00 594.27,97.00 " />
		<polygon fill="#ffffff" shape-rendering="crispEdges" points="728.07,108.00 728.07,97.00 598.82,97.00 598.82,108.00 " />
		<text x="598.82" y="106.00" font-family="Helvetica" font-size="10" fill="#124d94" >ENSSPUG00000011203 [+8]</text>
		<polygon fill="url('#gradient3')" shape-rendering="crispEdges" points="0.00,90.00 879.00,90.00 879.00,76.00 0.00,76.00 " clip-path="url('#clipping-rect2')" />
		<text x="0.00" y="86.00" font-family="Helvetica" font-size="12" fill="#333333" >Genes, Ensembl release 114</text>
		<polygon fill="#0000ff" fill-opacity="0.20" shape-rendering="crispEdges" points="439.50,23.10 439.50,31.50 438.50,31.50 438.50,23.10 " />
		<line x1="438.50" y1="30.50" x2="438.50" y2="23.10" stroke="#0000ff" stroke-opacity="0.40" stroke-width="1.00" />
		<line x1="439.50" y1="30.50" x2="439.50" y2="23.10" stroke="#0000ff" stroke-opacity="0.40" stroke-width="1.00" />
		<polygon fill="#0000ff" shape-rendering="crispEdges" points="432.79,22.35 432.50,20.50 432.79,18.65 433.65,16.97 434.97,15.65 436.65,14.79 438.50,14.50 438.50,26.50 436.65,26.21 434.97,25.35 433.65,24.03 " />
		<polygon fill="#0000ff" fill-opacity="0.60" shape-rendering="crispEdges" points="476.91,26.50 476.91,14.50 438.50,14.50 438.50,26.50 " />
		<text x="440.50" y="23.50" font-family="Helvetica" font-size="10" fill="#ffffff" >SUSD2</text>
		<polygon fill="#0000ff" fill-opacity="0.20" shape-rendering="crispEdges" points="439.50,31.00 439.50,115.01 438.50,115.01 438.50,31.00 " />
		<line x1="438.50" y1="114.00" x2="438.50" y2="31.00" stroke="#0000ff" stroke-opacity="0.40" stroke-width="1.00" />
		<line x1="439.50" y1="114.00" x2="439.50" y2="31.00" stroke="#0000ff" stroke-opacity="0.40" stroke-width="1.00" />
		<polygon fill="#0000ff" fill-opacity="0.20" shape-rendering="crispEdges" points="281.50,23.10 281.50,31.50 280.50,31.50 280.50,23.10 " />
		<line x1="280.50" y1="30.50" x2="280.50" y2="23.10" stroke="#0000ff" stroke-opacity="0.40" stroke-width="1.00" />
		<line x1="281.50" y1="30.50" x2="281.50" y2="23.10" stroke="#0000ff" stroke-opacity="0.40" stroke-width="1.00" />
		<polygon fill="#0000ff" shape-rendering="crispEdges" points="274.79,22.35 274.50,20.50 274.79,18.65 275.65,16.97 276.97,15.65 278.65,14.79 280.50,14.50 280.50,26.50 278.65,26.21 276.97,25.35 275.65,24.03 " />
		<polygon fill="#0000ff" fill-opacity="0.60" shape-rendering="crispEdges" points="318.03,26.50 318.03,14.50 280.50,14.50 280.50,26.50 " />
		<text x="282.50" y="23.50" font-family="Helvetica" font-size="10" fill="#ffffff" >LCMT2</text>
		<polygon fill="#0000ff" fill-opacity="0.20" shape-rendering="crispEdges" points="281.32,31.00 281.32,115.01 280.32,115.01 280.32,31.00 " />
		<line x1="280.32" y1="114.00" x2="280.32" y2="31.00" stroke="#0000ff" stroke-opacity="0.40" stroke-width="1.00" />
		<line x1="281.32" y1="114.00" x2="281.32" y2="31.00" stroke="#0000ff" stroke-opacity="0.40" stroke-width="1.00" />
		<polygon fill="#e5e5e5" shape-rendering="crispEdges" points="879.00,13.00 879.00,-1.00 0.00,-1.00 0.00,13.00 " />
		<text x="0.00" y="10.00" font-family="Helvetica Bold" font-size="12" text-anchor="start" fill="#000000" >QEPC01008993.1:0..263912 Sphenodon punctatus isolate mauimua-1 ScrUdWx_2166, whole genome shotgun sequence</text>
	</g>
</svg>
