<?xml version="1.0" standalone="no" ?>
<!DOCTYPE svg PUBLIC "-//W3C//DTD SVG 1.1//EN" "http://www.w3.org/Graphics/SVG/1.1/DTD/svg11.dtd">
<svg width="879px" height="160px" xmlns="http://www.w3.org/2000/svg" version="1.1" viewBox="0 0 879 160" >
	<style type="text/css" > <![CDATA[
		@import url("https://www.ncbi.nlm.nih.gov/projects/sviewer/css/svg_fonts.css");
	]]>
	</style>
	<desc >Generated by NCBI Genome Workbench http://www.ncbi.nlm.nih.gov/tools/gbench/</desc>
	<defs >
		<clipPath id="clipping-rect1" >
			<rect x="0" y="14" width="879" height="18" />
		</clipPath>
		<linearGradient id="gradient1" gradientTransform="rotate(90)" >
			<stop offset="0%" stop-color="#6c6c6c" />
			<stop offset="50%" stop-color="#b5b5b5" />
			<stop offset="100%" stop-color="#6c6c6c" />
		</linearGradient>
		<clipPath id="clipping-rect2" >
			<rect x="0" y="32" width="879" height="128" />
		</clipPath>
		<linearGradient id="gradient2" gradientTransform="rotate(90)" >
			<stop offset="0%" stop-color="#b6dead" />
			<stop offset="100%" stop-color="#ffffff" stop-opacity="0.00" />
		</linearGradient>
		<linearGradient id="gradient3" gradientTransform="rotate(90)" >
			<stop offset="0%" stop-color="#e6e6e6" stop-opacity="0.71" />
			<stop offset="100%" stop-color="#ffffff" stop-opacity="0.00" />
		</linearGradient>
	</defs>
	<g >
		<polygon fill="#ffffff" shape-rendering="crispEdges" points="879.00,31.00 879.00,13.00 0.00,13.00 0.00,31.00 " />
		<line x1="0.01" y1="28.88" x2="878.99" y2="28.88" stroke="#7f7f7f" stroke-width="1.00" clip-path="url('#clipping-rect1')" />
		<line x1="5.30" y1="28.88" x2="5.30" y2="26.76" stroke="#7f7f7f" stroke-width="1.00" clip-path="url('#clipping-rect1')" />
		<line x1="10.60" y1="28.88" x2="10.60" y2="25.71" stroke="#7f7f7f" stroke-width="1.00" clip-path="url('#clipping-rect1')" />
		<line x1="15.90" y1="28.88" x2="15.90" y2="26.76" stroke="#7f7f7f" stroke-width="1.00" clip-path="url('#clipping-rect1')" />
		<line x1="21.20" y1="28.88" x2="21.20" y2="25.71" stroke="#7f7f7f" stroke-width="1.00" clip-path="url('#clipping-rect1')" />
		<line x1="26.50" y1="28.88" x2="26.50" y2="26.76" stroke="#7f7f7f" stroke-width="1.00" clip-path="url('#clipping-rect1')" />
		<line x1="31.80" y1="28.88" x2="31.80" y2="25.71" stroke="#7f7f7f" stroke-width="1.00" clip-path="url('#clipping-rect1')" />
		<line x1="37.10" y1="28.88" x2="37.10" y2="26.76" stroke="#7f7f7f" stroke-width="1.00" clip-path="url('#clipping-rect1')" />
		<line x1="42.40" y1="28.88" x2="42.40" y2="25.71" stroke="#7f7f7f" stroke-width="1.00" clip-path="url('#clipping-rect1')" />
		<line x1="47.71" y1="28.88" x2="47.71" y2="26.76" stroke="#7f7f7f" stroke-width="1.00" clip-path="url('#clipping-rect1')" />
		<line x1="53.01" y1="28.88" x2="53.01" y2="25.71" stroke="#7f7f7f" stroke-width="1.00" clip-path="url('#clipping-rect1')" />
		<line x1="58.31" y1="28.88" x2="58.31" y2="26.76" stroke="#7f7f7f" stroke-width="1.00" clip-path="url('#clipping-rect1')" />
		<line x1="63.61" y1="28.88" x2="63.61" y2="25.71" stroke="#7f7f7f" stroke-width="1.00" clip-path="url('#clipping-rect1')" />
		<line x1="68.91" y1="28.88" x2="68.91" y2="26.76" stroke="#7f7f7f" stroke-width="1.00" clip-path="url('#clipping-rect1')" />
		<line x1="74.21" y1="28.88" x2="74.21" y2="25.71" stroke="#7f7f7f" stroke-width="1.00" clip-path="url('#clipping-rect1')" />
		<line x1="79.51" y1="28.88" x2="79.51" y2="26.76" stroke="#7f7f7f" stroke-width="1.00" clip-path="url('#clipping-rect1')" />
		<line x1="84.81" y1="28.88" x2="84.81" y2="25.71" stroke="#7f7f7f" stroke-width="1.00" clip-path="url('#clipping-rect1')" />
		<line x1="90.11" y1="28.88" x2="90.11" y2="26.76" stroke="#7f7f7f" stroke-width="1.00" clip-path="url('#clipping-rect1')" />
		<line x1="95.42" y1="28.88" x2="95.42" y2="25.71" stroke="#7f7f7f" stroke-width="1.00" clip-path="url('#clipping-rect1')" />
		<line x1="100.72" y1="28.88" x2="100.72" y2="26.76" stroke="#7f7f7f" stroke-width="1.00" clip-path="url('#clipping-rect1')" />
		<line x1="106.02" y1="28.88" x2="106.02" y2="25.71" stroke="#7f7f7f" stroke-width="1.00" clip-path="url('#clipping-rect1')" />
		<line x1="111.32" y1="28.88" x2="111.32" y2="26.76" stroke="#7f7f7f" stroke-width="1.00" clip-path="url('#clipping-rect1')" />
		<line x1="116.62" y1="28.88" x2="116.62" y2="25.71" stroke="#7f7f7f" stroke-width="1.00" clip-path="url('#clipping-rect1')" />
		<line x1="121.92" y1="28.88" x2="121.92" y2="26.76" stroke="#7f7f7f" stroke-width="1.00" clip-path="url('#clipping-rect1')" />
		<line x1="127.22" y1="28.88" x2="127.22" y2="25.71" stroke="#7f7f7f" stroke-width="1.00" clip-path="url('#clipping-rect1')" />
		<line x1="132.52" y1="28.88" x2="132.52" y2="26.76" stroke="#7f7f7f" stroke-width="1.00" clip-path="url('#clipping-rect1')" />
		<line x1="137.83" y1="28.88" x2="137.83" y2="25.71" stroke="#7f7f7f" stroke-width="1.00" clip-path="url('#clipping-rect1')" />
		<line x1="143.13" y1="28.88" x2="143.13" y2="26.76" stroke="#7f7f7f" stroke-width="1.00" clip-path="url('#clipping-rect1')" />
		<line x1="148.43" y1="28.88" x2="148.43" y2="25.71" stroke="#7f7f7f" stroke-width="1.00" clip-path="url('#clipping-rect1')" />
		<line x1="153.73" y1="28.88" x2="153.73" y2="26.76" stroke="#7f7f7f" stroke-width="1.00" clip-path="url('#clipping-rect1')" />
		<line x1="159.03" y1="28.88" x2="159.03" y2="25.71" stroke="#7f7f7f" stroke-width="1.00" clip-path="url('#clipping-rect1')" />
		<line x1="164.33" y1="28.88" x2="164.33" y2="26.76" stroke="#7f7f7f" stroke-width="1.00" clip-path="url('#clipping-rect1')" />
		<line x1="169.63" y1="28.88" x2="169.63" y2="25.71" stroke="#7f7f7f" stroke-width="1.00" clip-path="url('#clipping-rect1')" />
		<line x1="174.93" y1="28.88" x2="174.93" y2="26.76" stroke="#7f7f7f" stroke-width="1.00" clip-path="url('#clipping-rect1')" />
		<line x1="180.23" y1="28.88" x2="180.23" y2="25.71" stroke="#7f7f7f" stroke-width="1.00" clip-path="url('#clipping-rect1')" />
		<line x1="185.54" y1="28.88" x2="185.54" y2="26.76" stroke="#7f7f7f" stroke-width="1.00" clip-path="url('#clipping-rect1')" />
		<line x1="190.84" y1="28.88" x2="190.84" y2="25.71" stroke="#7f7f7f" stroke-width="1.00" clip-path="url('#clipping-rect1')" />
		<line x1="196.14" y1="28.88" x2="196.14" y2="26.76" stroke="#7f7f7f" stroke-width="1.00" clip-path="url('#clipping-rect1')" />
		<line x1="201.44" y1="28.88" x2="201.44" y2="25.71" stroke="#7f7f7f" stroke-width="1.00" clip-path="url('#clipping-rect1')" />
		<line x1="206.74" y1="28.88" x2="206.74" y2="26.76" stroke="#7f7f7f" stroke-width="1.00" clip-path="url('#clipping-rect1')" />
		<line x1="212.04" y1="28.88" x2="212.04" y2="25.71" stroke="#7f7f7f" stroke-width="1.00" clip-path="url('#clipping-rect1')" />
		<line x1="217.34" y1="28.88" x2="217.34" y2="26.76" stroke="#7f7f7f" stroke-width="1.00" clip-path="url('#clipping-rect1')" />
		<line x1="222.64" y1="28.88" x2="222.64" y2="25.71" stroke="#7f7f7f" stroke-width="1.00" clip-path="url('#clipping-rect1')" />
		<line x1="227.95" y1="28.88" x2="227.95" y2="26.76" stroke="#7f7f7f" stroke-width="1.00" clip-path="url('#clipping-rect1')" />
		<line x1="233.25" y1="28.88" x2="233.25" y2="25.71" stroke="#7f7f7f" stroke-width="1.00" clip-path="url('#clipping-rect1')" />
		<line x1="238.55" y1="28.88" x2="238.55" y2="26.76" stroke="#7f7f7f" stroke-width="1.00" clip-path="url('#clipping-rect1')" />
		<line x1="243.85" y1="28.88" x2="243.85" y2="25.71" stroke="#7f7f7f" stroke-width="1.00" clip-path="url('#clipping-rect1')" />
		<line x1="249.15" y1="28.88" x2="249.15" y2="26.76" stroke="#7f7f7f" stroke-width="1.00" clip-path="url('#clipping-rect1')" />
		<line x1="254.45" y1="28.88" x2="254.45" y2="25.71" stroke="#7f7f7f" stroke-width="1.00" clip-path="url('#clipping-rect1')" />
		<line x1="259.75" y1="28.88" x2="259.75" y2="26.76" stroke="#7f7f7f" stroke-width="1.00" clip-path="url('#clipping-rect1')" />
		<line x1="265.05" y1="28.88" x2="265.05" y2="25.71" stroke="#7f7f7f" stroke-width="1.00" clip-path="url('#clipping-rect1')" />
		<line x1="270.36" y1="28.88" x2="270.36" y2="26.76" stroke="#7f7f7f" stroke-width="1.00" clip-path="url('#clipping-rect1')" />
		<line x1="275.66" y1="28.88" x2="275.66" y2="25.71" stroke="#7f7f7f" stroke-width="1.00" clip-path="url('#clipping-rect1')" />
		<line x1="280.96" y1="28.88" x2="280.96" y2="26.76" stroke="#7f7f7f" stroke-width="1.00" clip-path="url('#clipping-rect1')" />
		<line x1="286.26" y1="28.88" x2="286.26" y2="25.71" stroke="#7f7f7f" stroke-width="1.00" clip-path="url('#clipping-rect1')" />
		<line x1="291.56" y1="28.88" x2="291.56" y2="26.76" stroke="#7f7f7f" stroke-width="1.00" clip-path="url('#clipping-rect1')" />
		<line x1="296.86" y1="28.88" x2="296.86" y2="25.71" stroke="#7f7f7f" stroke-width="1.00" clip-path="url('#clipping-rect1')" />
		<line x1="302.16" y1="28.88" x2="302.16" y2="26.76" stroke="#7f7f7f" stroke-width="1.00" clip-path="url('#clipping-rect1')" />
		<line x1="307.46" y1="28.88" x2="307.46" y2="25.71" stroke="#7f7f7f" stroke-width="1.00" clip-path="url('#clipping-rect1')" />
		<line x1="312.76" y1="28.88" x2="312.76" y2="26.76" stroke="#7f7f7f" stroke-width="1.00" clip-path="url('#clipping-rect1')" />
		<line x1="318.07" y1="28.88" x2="318.07" y2="25.71" stroke="#7f7f7f" stroke-width="1.00" clip-path="url('#clipping-rect1')" />
		<line x1="323.37" y1="28.88" x2="323.37" y2="26.76" stroke="#7f7f7f" stroke-width="1.00" clip-path="url('#clipping-rect1')" />
		<line x1="328.67" y1="28.88" x2="328.67" y2="25.71" stroke="#7f7f7f" stroke-width="1.00" clip-path="url('#clipping-rect1')" />
		<line x1="333.97" y1="28.88" x2="333.97" y2="26.76" stroke="#7f7f7f" stroke-width="1.00" clip-path="url('#clipping-rect1')" />
		<line x1="339.27" y1="28.88" x2="339.27" y2="25.71" stroke="#7f7f7f" stroke-width="1.00" clip-path="url('#clipping-rect1')" />
		<line x1="344.57" y1="28.88" x2="344.57" y2="26.76" stroke="#7f7f7f" stroke-width="1.00" clip-path="url('#clipping-rect1')" />
		<line x1="349.87" y1="28.88" x2="349.87" y2="25.71" stroke="#7f7f7f" stroke-width="1.00" clip-path="url('#clipping-rect1')" />
		<line x1="355.17" y1="28.88" x2="355.17" y2="26.76" stroke="#7f7f7f" stroke-width="1.00" clip-path="url('#clipping-rect1')" />
		<line x1="360.48" y1="28.88" x2="360.48" y2="25.71" stroke="#7f7f7f" stroke-width="1.00" clip-path="url('#clipping-rect1')" />
		<line x1="365.78" y1="28.88" x2="365.78" y2="26.76" stroke="#7f7f7f" stroke-width="1.00" clip-path="url('#clipping-rect1')" />
		<line x1="371.08" y1="28.88" x2="371.08" y2="25.71" stroke="#7f7f7f" stroke-width="1.00" clip-path="url('#clipping-rect1')" />
		<line x1="376.38" y1="28.88" x2="376.38" y2="26.76" stroke="#7f7f7f" stroke-width="1.00" clip-path="url('#clipping-rect1')" />
		<line x1="381.68" y1="28.88" x2="381.68" y2="25.71" stroke="#7f7f7f" stroke-width="1.00" clip-path="url('#clipping-rect1')" />
		<line x1="386.98" y1="28.88" x2="386.98" y2="26.76" stroke="#7f7f7f" stroke-width="1.00" clip-path="url('#clipping-rect1')" />
		<line x1="392.28" y1="28.88" x2="392.28" y2="25.71" stroke="#7f7f7f" stroke-width="1.00" clip-path="url('#clipping-rect1')" />
		<line x1="397.58" y1="28.88" x2="397.58" y2="26.76" stroke="#7f7f7f" stroke-width="1.00" clip-path="url('#clipping-rect1')" />
		<line x1="402.88" y1="28.88" x2="402.88" y2="25.71" stroke="#7f7f7f" stroke-width="1.00" clip-path="url('#clipping-rect1')" />
		<line x1="408.19" y1="28.88" x2="408.19" y2="26.76" stroke="#7f7f7f" stroke-width="1.00" clip-path="url('#clipping-rect1')" />
		<line x1="413.49" y1="28.88" x2="413.49" y2="25.71" stroke="#7f7f7f" stroke-width="1.00" clip-path="url('#clipping-rect1')" />
		<line x1="418.79" y1="28.88" x2="418.79" y2="26.76" stroke="#7f7f7f" stroke-width="1.00" clip-path="url('#clipping-rect1')" />
		<line x1="424.09" y1="28.88" x2="424.09" y2="25.71" stroke="#7f7f7f" stroke-width="1.00" clip-path="url('#clipping-rect1')" />
		<line x1="429.39" y1="28.88" x2="429.39" y2="26.76" stroke="#7f7f7f" stroke-width="1.00" clip-path="url('#clipping-rect1')" />
		<line x1="434.69" y1="28.88" x2="434.69" y2="25.71" stroke="#7f7f7f" stroke-width="1.00" clip-path="url('#clipping-rect1')" />
		<line x1="439.99" y1="28.88" x2="439.99" y2="26.76" stroke="#7f7f7f" stroke-width="1.00" clip-path="url('#clipping-rect1')" />
		<line x1="445.29" y1="28.88" x2="445.29" y2="25.71" stroke="#7f7f7f" stroke-width="1.00" clip-path="url('#clipping-rect1')" />
		<line x1="450.60" y1="28.88" x2="450.60" y2="26.76" stroke="#7f7f7f" stroke-width="1.00" clip-path="url('#clipping-rect1')" />
		<line x1="455.90" y1="28.88" x2="455.90" y2="25.71" stroke="#7f7f7f" stroke-width="1.00" clip-path="url('#clipping-rect1')" />
		<line x1="461.20" y1="28.88" x2="461.20" y2="26.76" stroke="#7f7f7f" stroke-width="1.00" clip-path="url('#clipping-rect1')" />
		<line x1="466.50" y1="28.88" x2="466.50" y2="25.71" stroke="#7f7f7f" stroke-width="1.00" clip-path="url('#clipping-rect1')" />
		<line x1="471.80" y1="28.88" x2="471.80" y2="26.76" stroke="#7f7f7f" stroke-width="1.00" clip-path="url('#clipping-rect1')" />
		<line x1="477.10" y1="28.88" x2="477.10" y2="25.71" stroke="#7f7f7f" stroke-width="1.00" clip-path="url('#clipping-rect1')" />
		<line x1="482.40" y1="28.88" x2="482.40" y2="26.76" stroke="#7f7f7f" stroke-width="1.00" clip-path="url('#clipping-rect1')" />
		<line x1="487.70" y1="28.88" x2="487.70" y2="25.71" stroke="#7f7f7f" stroke-width="1.00" clip-path="url('#clipping-rect1')" />
		<line x1="493.00" y1="28.88" x2="493.00" y2="26.76" stroke="#7f7f7f" stroke-width="1.00" clip-path="url('#clipping-rect1')" />
		<line x1="498.31" y1="28.88" x2="498.31" y2="25.71" stroke="#7f7f7f" stroke-width="1.00" clip-path="url('#clipping-rect1')" />
		<line x1="503.61" y1="28.88" x2="503.61" y2="26.76" stroke="#7f7f7f" stroke-width="1.00" clip-path="url('#clipping-rect1')" />
		<line x1="508.91" y1="28.88" x2="508.91" y2="25.71" stroke="#7f7f7f" stroke-width="1.00" clip-path="url('#clipping-rect1')" />
		<line x1="514.21" y1="28.88" x2="514.21" y2="26.76" stroke="#7f7f7f" stroke-width="1.00" clip-path="url('#clipping-rect1')" />
		<line x1="519.51" y1="28.88" x2="519.51" y2="25.71" stroke="#7f7f7f" stroke-width="1.00" clip-path="url('#clipping-rect1')" />
		<line x1="524.81" y1="28.88" x2="524.81" y2="26.76" stroke="#7f7f7f" stroke-width="1.00" clip-path="url('#clipping-rect1')" />
		<line x1="530.11" y1="28.88" x2="530.11" y2="25.71" stroke="#7f7f7f" stroke-width="1.00" clip-path="url('#clipping-rect1')" />
		<line x1="535.41" y1="28.88" x2="535.41" y2="26.76" stroke="#7f7f7f" stroke-width="1.00" clip-path="url('#clipping-rect1')" />
		<line x1="540.72" y1="28.88" x2="540.72" y2="25.71" stroke="#7f7f7f" stroke-width="1.00" clip-path="url('#clipping-rect1')" />
		<line x1="546.02" y1="28.88" x2="546.02" y2="26.76" stroke="#7f7f7f" stroke-width="1.00" clip-path="url('#clipping-rect1')" />
		<line x1="551.32" y1="28.88" x2="551.32" y2="25.71" stroke="#7f7f7f" stroke-width="1.00" clip-path="url('#clipping-rect1')" />
		<line x1="556.62" y1="28.88" x2="556.62" y2="26.76" stroke="#7f7f7f" stroke-width="1.00" clip-path="url('#clipping-rect1')" />
		<line x1="561.92" y1="28.88" x2="561.92" y2="25.71" stroke="#7f7f7f" stroke-width="1.00" clip-path="url('#clipping-rect1')" />
		<line x1="567.22" y1="28.88" x2="567.22" y2="26.76" stroke="#7f7f7f" stroke-width="1.00" clip-path="url('#clipping-rect1')" />
		<line x1="572.52" y1="28.88" x2="572.52" y2="25.71" stroke="#7f7f7f" stroke-width="1.00" clip-path="url('#clipping-rect1')" />
		<line x1="577.82" y1="28.88" x2="577.82" y2="26.76" stroke="#7f7f7f" stroke-width="1.00" clip-path="url('#clipping-rect1')" />
		<line x1="583.12" y1="28.88" x2="583.12" y2="25.71" stroke="#7f7f7f" stroke-width="1.00" clip-path="url('#clipping-rect1')" />
		<line x1="588.43" y1="28.88" x2="588.43" y2="26.76" stroke="#7f7f7f" stroke-width="1.00" clip-path="url('#clipping-rect1')" />
		<line x1="593.73" y1="28.88" x2="593.73" y2="25.71" stroke="#7f7f7f" stroke-width="1.00" clip-path="url('#clipping-rect1')" />
		<line x1="599.03" y1="28.88" x2="599.03" y2="26.76" stroke="#7f7f7f" stroke-width="1.00" clip-path="url('#clipping-rect1')" />
		<line x1="604.33" y1="28.88" x2="604.33" y2="25.71" stroke="#7f7f7f" stroke-width="1.00" clip-path="url('#clipping-rect1')" />
		<line x1="609.63" y1="28.88" x2="609.63" y2="26.76" stroke="#7f7f7f" stroke-width="1.00" clip-path="url('#clipping-rect1')" />
		<line x1="614.93" y1="28.88" x2="614.93" y2="25.71" stroke="#7f7f7f" stroke-width="1.00" clip-path="url('#clipping-rect1')" />
		<line x1="620.23" y1="28.88" x2="620.23" y2="26.76" stroke="#7f7f7f" stroke-width="1.00" clip-path="url('#clipping-rect1')" />
		<line x1="625.53" y1="28.88" x2="625.53" y2="25.71" stroke="#7f7f7f" stroke-width="1.00" clip-path="url('#clipping-rect1')" />
		<line x1="630.84" y1="28.88" x2="630.84" y2="26.76" stroke="#7f7f7f" stroke-width="1.00" clip-path="url('#clipping-rect1')" />
		<line x1="636.14" y1="28.88" x2="636.14" y2="25.71" stroke="#7f7f7f" stroke-width="1.00" clip-path="url('#clipping-rect1')" />
		<line x1="641.44" y1="28.88" x2="641.44" y2="26.76" stroke="#7f7f7f" stroke-width="1.00" clip-path="url('#clipping-rect1')" />
		<line x1="646.74" y1="28.88" x2="646.74" y2="25.71" stroke="#7f7f7f" stroke-width="1.00" clip-path="url('#clipping-rect1')" />
		<line x1="652.04" y1="28.88" x2="652.04" y2="26.76" stroke="#7f7f7f" stroke-width="1.00" clip-path="url('#clipping-rect1')" />
		<line x1="657.34" y1="28.88" x2="657.34" y2="25.71" stroke="#7f7f7f" stroke-width="1.00" clip-path="url('#clipping-rect1')" />
		<line x1="662.64" y1="28.88" x2="662.64" y2="26.76" stroke="#7f7f7f" stroke-width="1.00" clip-path="url('#clipping-rect1')" />
		<line x1="667.94" y1="28.88" x2="667.94" y2="25.71" stroke="#7f7f7f" stroke-width="1.00" clip-path="url('#clipping-rect1')" />
		<line x1="673.25" y1="28.88" x2="673.25" y2="26.76" stroke="#7f7f7f" stroke-width="1.00" clip-path="url('#clipping-rect1')" />
		<line x1="678.55" y1="28.88" x2="678.55" y2="25.71" stroke="#7f7f7f" stroke-width="1.00" clip-path="url('#clipping-rect1')" />
		<line x1="683.85" y1="28.88" x2="683.85" y2="26.76" stroke="#7f7f7f" stroke-width="1.00" clip-path="url('#clipping-rect1')" />
		<line x1="689.15" y1="28.88" x2="689.15" y2="25.71" stroke="#7f7f7f" stroke-width="1.00" clip-path="url('#clipping-rect1')" />
		<line x1="694.45" y1="28.88" x2="694.45" y2="26.76" stroke="#7f7f7f" stroke-width="1.00" clip-path="url('#clipping-rect1')" />
		<line x1="699.75" y1="28.88" x2="699.75" y2="25.71" stroke="#7f7f7f" stroke-width="1.00" clip-path="url('#clipping-rect1')" />
		<line x1="705.05" y1="28.88" x2="705.05" y2="26.76" stroke="#7f7f7f" stroke-width="1.00" clip-path="url('#clipping-rect1')" />
		<line x1="710.35" y1="28.88" x2="710.35" y2="25.71" stroke="#7f7f7f" stroke-width="1.00" clip-path="url('#clipping-rect1')" />
		<line x1="715.65" y1="28.88" x2="715.65" y2="26.76" stroke="#7f7f7f" stroke-width="1.00" clip-path="url('#clipping-rect1')" />
		<line x1="720.96" y1="28.88" x2="720.96" y2="25.71" stroke="#7f7f7f" stroke-width="1.00" clip-path="url('#clipping-rect1')" />
		<line x1="726.26" y1="28.88" x2="726.26" y2="26.76" stroke="#7f7f7f" stroke-width="1.00" clip-path="url('#clipping-rect1')" />
		<line x1="731.56" y1="28.88" x2="731.56" y2="25.71" stroke="#7f7f7f" stroke-width="1.00" clip-path="url('#clipping-rect1')" />
		<line x1="736.86" y1="28.88" x2="736.86" y2="26.76" stroke="#7f7f7f" stroke-width="1.00" clip-path="url('#clipping-rect1')" />
		<line x1="742.16" y1="28.88" x2="742.16" y2="25.71" stroke="#7f7f7f" stroke-width="1.00" clip-path="url('#clipping-rect1')" />
		<line x1="747.46" y1="28.88" x2="747.46" y2="26.76" stroke="#7f7f7f" stroke-width="1.00" clip-path="url('#clipping-rect1')" />
		<line x1="752.76" y1="28.88" x2="752.76" y2="25.71" stroke="#7f7f7f" stroke-width="1.00" clip-path="url('#clipping-rect1')" />
		<line x1="758.06" y1="28.88" x2="758.06" y2="26.76" stroke="#7f7f7f" stroke-width="1.00" clip-path="url('#clipping-rect1')" />
		<line x1="763.37" y1="28.88" x2="763.37" y2="25.71" stroke="#7f7f7f" stroke-width="1.00" clip-path="url('#clipping-rect1')" />
		<line x1="768.67" y1="28.88" x2="768.67" y2="26.76" stroke="#7f7f7f" stroke-width="1.00" clip-path="url('#clipping-rect1')" />
		<line x1="773.97" y1="28.88" x2="773.97" y2="25.71" stroke="#7f7f7f" stroke-width="1.00" clip-path="url('#clipping-rect1')" />
		<line x1="779.27" y1="28.88" x2="779.27" y2="26.76" stroke="#7f7f7f" stroke-width="1.00" clip-path="url('#clipping-rect1')" />
		<line x1="784.57" y1="28.88" x2="784.57" y2="25.71" stroke="#7f7f7f" stroke-width="1.00" clip-path="url('#clipping-rect1')" />
		<line x1="789.87" y1="28.88" x2="789.87" y2="26.76" stroke="#7f7f7f" stroke-width="1.00" clip-path="url('#clipping-rect1')" />
		<line x1="795.17" y1="28.88" x2="795.17" y2="25.71" stroke="#7f7f7f" stroke-width="1.00" clip-path="url('#clipping-rect1')" />
		<line x1="800.47" y1="28.88" x2="800.47" y2="26.76" stroke="#7f7f7f" stroke-width="1.00" clip-path="url('#clipping-rect1')" />
		<line x1="805.77" y1="28.88" x2="805.77" y2="25.71" stroke="#7f7f7f" stroke-width="1.00" clip-path="url('#clipping-rect1')" />
		<line x1="811.08" y1="28.88" x2="811.08" y2="26.76" stroke="#7f7f7f" stroke-width="1.00" clip-path="url('#clipping-rect1')" />
		<line x1="816.38" y1="28.88" x2="816.38" y2="25.71" stroke="#7f7f7f" stroke-width="1.00" clip-path="url('#clipping-rect1')" />
		<line x1="821.68" y1="28.88" x2="821.68" y2="26.76" stroke="#7f7f7f" stroke-width="1.00" clip-path="url('#clipping-rect1')" />
		<line x1="826.98" y1="28.88" x2="826.98" y2="25.71" stroke="#7f7f7f" stroke-width="1.00" clip-path="url('#clipping-rect1')" />
		<line x1="832.28" y1="28.88" x2="832.28" y2="26.76" stroke="#7f7f7f" stroke-width="1.00" clip-path="url('#clipping-rect1')" />
		<line x1="837.58" y1="28.88" x2="837.58" y2="25.71" stroke="#7f7f7f" stroke-width="1.00" clip-path="url('#clipping-rect1')" />
		<line x1="842.88" y1="28.88" x2="842.88" y2="26.76" stroke="#7f7f7f" stroke-width="1.00" clip-path="url('#clipping-rect1')" />
		<line x1="848.18" y1="28.88" x2="848.18" y2="25.71" stroke="#7f7f7f" stroke-width="1.00" clip-path="url('#clipping-rect1')" />
		<line x1="853.49" y1="28.88" x2="853.49" y2="26.76" stroke="#7f7f7f" stroke-width="1.00" clip-path="url('#clipping-rect1')" />
		<line x1="858.79" y1="28.88" x2="858.79" y2="25.71" stroke="#7f7f7f" stroke-width="1.00" clip-path="url('#clipping-rect1')" />
		<line x1="864.09" y1="28.88" x2="864.09" y2="26.76" stroke="#7f7f7f" stroke-width="1.00" clip-path="url('#clipping-rect1')" />
		<line x1="869.39" y1="28.88" x2="869.39" y2="25.71" stroke="#7f7f7f" stroke-width="1.00" clip-path="url('#clipping-rect1')" />
		<line x1="874.69" y1="28.88" x2="874.69" y2="26.76" stroke="#7f7f7f" stroke-width="1.00" clip-path="url('#clipping-rect1')" />
		<text x="0.01" y="23.59" font-family="Helvetica" font-size="10" fill="#333333" clip-path="url('#clipping-rect1')" >1</text>
		<line x1="0.01" y1="31.00" x2="0.01" y2="15.12" stroke="#7f7f7f" stroke-width="1.00" clip-path="url('#clipping-rect1')" />
		<text x="849.21" y="23.59" font-family="Helvetica" font-size="10" fill="#333333" clip-path="url('#clipping-rect1')" >82,906</text>
		<line x1="878.99" y1="31.00" x2="878.99" y2="15.12" stroke="#7f7f7f" stroke-width="1.00" clip-path="url('#clipping-rect1')" />
		<text x="797.17" y="23.59" font-family="Helvetica" font-size="10" fill="#333333" clip-path="url('#clipping-rect1')" >75 K</text>
		<line x1="795.17" y1="31.00" x2="795.17" y2="15.12" stroke="#7f7f7f" stroke-width="1.00" clip-path="url('#clipping-rect1')" />
		<text x="744.16" y="23.59" font-family="Helvetica" font-size="10" fill="#333333" clip-path="url('#clipping-rect1')" >70 K</text>
		<line x1="742.16" y1="31.00" x2="742.16" y2="15.12" stroke="#7f7f7f" stroke-width="1.00" clip-path="url('#clipping-rect1')" />
		<text x="691.15" y="23.59" font-family="Helvetica" font-size="10" fill="#333333" clip-path="url('#clipping-rect1')" >65 K</text>
		<line x1="689.15" y1="31.00" x2="689.15" y2="15.12" stroke="#7f7f7f" stroke-width="1.00" clip-path="url('#clipping-rect1')" />
		<text x="638.14" y="23.59" font-family="Helvetica" font-size="10" fill="#333333" clip-path="url('#clipping-rect1')" >60 K</text>
		<line x1="636.14" y1="31.00" x2="636.14" y2="15.12" stroke="#7f7f7f" stroke-width="1.00" clip-path="url('#clipping-rect1')" />
		<text x="585.12" y="23.59" font-family="Helvetica" font-size="10" fill="#333333" clip-path="url('#clipping-rect1')" >55 K</text>
		<line x1="583.12" y1="31.00" x2="583.12" y2="15.12" stroke="#7f7f7f" stroke-width="1.00" clip-path="url('#clipping-rect1')" />
		<text x="532.11" y="23.59" font-family="Helvetica" font-size="10" fill="#333333" clip-path="url('#clipping-rect1')" >50 K</text>
		<line x1="530.11" y1="31.00" x2="530.11" y2="15.12" stroke="#7f7f7f" stroke-width="1.00" clip-path="url('#clipping-rect1')" />
		<text x="479.10" y="23.59" font-family="Helvetica" font-size="10" fill="#333333" clip-path="url('#clipping-rect1')" >45 K</text>
		<line x1="477.10" y1="31.00" x2="477.10" y2="15.12" stroke="#7f7f7f" stroke-width="1.00" clip-path="url('#clipping-rect1')" />
		<text x="426.09" y="23.59" font-family="Helvetica" font-size="10" fill="#333333" clip-path="url('#clipping-rect1')" >40 K</text>
		<line x1="424.09" y1="31.00" x2="424.09" y2="15.12" stroke="#7f7f7f" stroke-width="1.00" clip-path="url('#clipping-rect1')" />
		<text x="373.08" y="23.59" font-family="Helvetica" font-size="10" fill="#333333" clip-path="url('#clipping-rect1')" >35 K</text>
		<line x1="371.08" y1="31.00" x2="371.08" y2="15.12" stroke="#7f7f7f" stroke-width="1.00" clip-path="url('#clipping-rect1')" />
		<text x="320.07" y="23.59" font-family="Helvetica" font-size="10" fill="#333333" clip-path="url('#clipping-rect1')" >30 K</text>
		<line x1="318.07" y1="31.00" x2="318.07" y2="15.12" stroke="#7f7f7f" stroke-width="1.00" clip-path="url('#clipping-rect1')" />
		<text x="267.05" y="23.59" font-family="Helvetica" font-size="10" fill="#333333" clip-path="url('#clipping-rect1')" >25 K</text>
		<line x1="265.05" y1="31.00" x2="265.05" y2="15.12" stroke="#7f7f7f" stroke-width="1.00" clip-path="url('#clipping-rect1')" />
		<text x="214.04" y="23.59" font-family="Helvetica" font-size="10" fill="#333333" clip-path="url('#clipping-rect1')" >20 K</text>
		<line x1="212.04" y1="31.00" x2="212.04" y2="15.12" stroke="#7f7f7f" stroke-width="1.00" clip-path="url('#clipping-rect1')" />
		<text x="161.03" y="23.59" font-family="Helvetica" font-size="10" fill="#333333" clip-path="url('#clipping-rect1')" >15 K</text>
		<line x1="159.03" y1="31.00" x2="159.03" y2="15.12" stroke="#7f7f7f" stroke-width="1.00" clip-path="url('#clipping-rect1')" />
		<text x="108.02" y="23.59" font-family="Helvetica" font-size="10" fill="#333333" clip-path="url('#clipping-rect1')" >10 K</text>
		<line x1="106.02" y1="31.00" x2="106.02" y2="15.12" stroke="#7f7f7f" stroke-width="1.00" clip-path="url('#clipping-rect1')" />
		<text x="55.01" y="23.59" font-family="Helvetica" font-size="10" fill="#333333" clip-path="url('#clipping-rect1')" >5 K</text>
		<line x1="53.01" y1="31.00" x2="53.01" y2="15.12" stroke="#7f7f7f" stroke-width="1.00" clip-path="url('#clipping-rect1')" />
		<line x1="0.00" y1="159.00" x2="0.00" y2="31.00" stroke="#ebebeb" stroke-width="1.00" />
		<line x1="53.06" y1="159.00" x2="53.06" y2="31.00" stroke="#ebebeb" stroke-width="1.00" />
		<line x1="106.12" y1="159.00" x2="106.12" y2="31.00" stroke="#ebebeb" stroke-width="1.00" />
		<line x1="159.18" y1="159.00" x2="159.18" y2="31.00" stroke="#ebebeb" stroke-width="1.00" />
		<line x1="212.24" y1="159.00" x2="212.24" y2="31.00" stroke="#ebebeb" stroke-width="1.00" />
		<line x1="265.30" y1="159.00" x2="265.30" y2="31.00" stroke="#ebebeb" stroke-width="1.00" />
		<line x1="318.36" y1="159.00" x2="318.36" y2="31.00" stroke="#ebebeb" stroke-width="1.00" />
		<line x1="371.42" y1="159.00" x2="371.42" y2="31.00" stroke="#ebebeb" stroke-width="1.00" />
		<line x1="424.48" y1="159.00" x2="424.48" y2="31.00" stroke="#ebebeb" stroke-width="1.00" />
		<line x1="477.54" y1="159.00" x2="477.54" y2="31.00" stroke="#ebebeb" stroke-width="1.00" />
		<line x1="530.60" y1="159.00" x2="530.60" y2="31.00" stroke="#ebebeb" stroke-width="1.00" />
		<line x1="583.66" y1="159.00" x2="583.66" y2="31.00" stroke="#ebebeb" stroke-width="1.00" />
		<line x1="636.72" y1="159.00" x2="636.72" y2="31.00" stroke="#ebebeb" stroke-width="1.00" />
		<line x1="689.78" y1="159.00" x2="689.78" y2="31.00" stroke="#ebebeb" stroke-width="1.00" />
		<line x1="742.85" y1="159.00" x2="742.85" y2="31.00" stroke="#ebebeb" stroke-width="1.00" />
		<line x1="795.91" y1="159.00" x2="795.91" y2="31.00" stroke="#ebebeb" stroke-width="1.00" />
		<line x1="848.97" y1="159.00" x2="848.97" y2="31.00" stroke="#ebebeb" stroke-width="1.00" />
		<polygon fill="url('#gradient1')" shape-rendering="crispEdges" points="879.00,37.50 879.00,33.00 0.00,33.00 0.00,37.50 0.00,42.00 879.00,42.00 " />
		<line x1="0.00" y1="42.00" x2="0.00" y2="33.00" stroke="#6c6c6c" stroke-width="1.00" stroke-linejoin="round" />
		<line x1="0.00" y1="33.00" x2="879.00" y2="33.00" stroke="#6c6c6c" stroke-width="1.00" stroke-linejoin="round" />
		<line x1="879.00" y1="33.00" x2="879.00" y2="42.00" stroke="#6c6c6c" stroke-width="1.00" stroke-linejoin="round" />
		<line x1="0.00" y1="42.00" x2="879.00" y2="42.00" stroke="#6c6c6c" stroke-width="1.00" stroke-linejoin="round" />
		<polygon fill="url('#gradient2')" shape-rendering="crispEdges" points="0.00,58.00 879.01,58.00 879.01,44.00 0.00,44.00 " clip-path="url('#clipping-rect2')" />
		<text x="0.00" y="54.00" font-family="Helvetica" font-size="12" fill="#333333" >(U) Alignment for group templates, BLAST Results for: ref|NM_004727.3|</text>
		<polygon fill="url('#gradient2')" shape-rendering="crispEdges" points="0.00,74.00 879.01,74.00 879.01,60.00 0.00,60.00 " clip-path="url('#clipping-rect2')" />
		<text x="0.00" y="70.00" font-family="Helvetica" font-size="12" fill="#333333" >(U) BLAST Results for: ref|NM_004727.3|</text>
		<polygon fill="url('#gradient2')" shape-rendering="crispEdges" points="0.00,90.00 879.01,90.00 879.01,76.00 0.00,76.00 " clip-path="url('#clipping-rect2')" />
		<text x="0.00" y="86.00" font-family="Helvetica" font-size="12" fill="#333333" >(U) BLAST Results for: ref|NM_004727.3|</text>
		<polygon fill="url('#gradient2')" shape-rendering="crispEdges" points="0.00,106.00 879.01,106.00 879.01,92.00 0.00,92.00 " clip-path="url('#clipping-rect2')" />
		<text x="0.00" y="102.00" font-family="Helvetica" font-size="12" fill="#333333" >(U) BLAST Results for: ref|NM_004727.3|</text>
		<line x1="165.52" y1="127.00" x2="165.52" y2="155.00" stroke="#009900" stroke-opacity="0.10" stroke-width="1.00" stroke-linejoin="round" />
		<line x1="165.52" y1="155.00" x2="796.25" y2="155.00" stroke="#009900" stroke-opacity="0.10" stroke-width="1.00" stroke-linejoin="round" />
		<line x1="796.25" y1="155.00" x2="796.25" y2="127.00" stroke="#009900" stroke-opacity="0.10" stroke-width="1.00" stroke-linejoin="round" />
		<line x1="165.52" y1="127.00" x2="796.25" y2="127.00" stroke="#009900" stroke-opacity="0.10" stroke-width="1.00" stroke-linejoin="round" />
		<text x="427.34" y="136.00" font-family="Helvetica" font-size="10" fill="#124d94" >ENSSPUG00000012311</text>
		<polygon fill="#1e8c1e" shape-rendering="crispEdges" points="286.88,142.00 286.88,153.00 285.88,153.00 285.88,142.00 " />
		<line x1="286.47" y1="147.50" x2="292.91" y2="147.50" stroke="#4ba34b" stroke-width="2.00" />
		<polygon fill="#1e8c1e" shape-rendering="crispEdges" points="296.99,142.00 296.99,153.00 292.91,153.00 292.91,142.00 " />
		<line x1="296.99" y1="147.50" x2="452.94" y2="147.50" stroke="#4ba34b" stroke-width="2.00" />
		<polygon fill="#b2b2b2" shape-rendering="crispEdges" points="329.37,147.50 320.57,143.10 322.77,147.50 320.57,151.90 " />
		<polygon fill="#9d9d9d" shape-rendering="crispEdges" points="429.37,147.50 420.57,143.10 422.77,147.50 420.57,151.90 " />
		<polygon fill="#1e8c1e" shape-rendering="crispEdges" points="454.96,142.00 454.96,153.00 452.94,153.00 452.94,142.00 " />
		<line x1="454.96" y1="147.50" x2="567.66" y2="147.50" stroke="#4ba34b" stroke-width="2.00" />
		<polygon fill="#b2b2b2" shape-rendering="crispEdges" points="515.71,147.50 506.91,143.10 509.11,147.50 506.91,151.90 " />
		<polygon fill="#1e8c1e" shape-rendering="crispEdges" points="569.00,142.00 569.00,153.00 567.66,153.00 567.66,142.00 " />
		<line x1="569.00" y1="147.50" x2="633.09" y2="147.50" stroke="#4ba34b" stroke-width="2.00" />
		<polygon fill="#b2b2b2" shape-rendering="crispEdges" points="605.44,147.50 596.64,143.10 598.84,147.50 596.64,151.90 " />
		<polygon fill="#1e8c1e" shape-rendering="crispEdges" points="637.28,142.00 637.28,153.00 633.09,153.00 633.09,142.00 " />
		<line x1="637.28" y1="147.50" x2="672.35" y2="147.50" stroke="#4ba34b" stroke-width="2.00" />
		<polygon fill="#b2b2b2" shape-rendering="crispEdges" points="659.21,147.50 650.41,143.10 652.61,147.50 650.41,151.90 " />
		<polygon fill="#1e8c1e" shape-rendering="crispEdges" points="674.93,142.00 674.93,153.00 672.35,153.00 672.35,142.00 " />
		<polygon fill="#ffffff" shape-rendering="crispEdges" points="286.29,153.00 286.29,142.00 168.52,142.00 168.52,153.00 " />
		<text x="168.52" y="151.00" font-family="Helvetica" font-size="10" fill="#124d94" >ENSSPUT00000016992.1</text>
		<polygon fill="#ffffff" shape-rendering="crispEdges" points="794.25,153.00 794.25,142.00 678.93,142.00 678.93,153.00 " />
		<text x="678.93" y="151.00" font-family="Helvetica" font-size="10" fill="#124d94" >ENSSPUP00000015940.1</text>
		<polygon fill="url('#gradient3')" shape-rendering="crispEdges" points="0.00,122.00 879.01,122.00 879.01,108.00 0.00,108.00 " clip-path="url('#clipping-rect2')" />
		<text x="0.00" y="118.00" font-family="Helvetica" font-size="12" fill="#333333" >Genes, Ensembl release 114</text>
		<polygon fill="#0000ff" fill-opacity="0.20" shape-rendering="crispEdges" points="480.50,31.50 480.50,23.10 480.50,23.10 " />
		<polygon fill="#0000ff" fill-opacity="0.20" shape-rendering="crispEdges" points="480.50,31.50 480.50,31.50 480.50,23.10 " />
		<line x1="480.50" y1="30.50" x2="480.50" y2="23.10" stroke="#0000ff" stroke-opacity="0.40" stroke-width="1.00" />
		<line x1="480.50" y1="30.50" x2="480.50" y2="23.10" stroke="#0000ff" stroke-opacity="0.40" stroke-width="1.00" />
		<polygon fill="#0000ff" shape-rendering="crispEdges" points="474.79,22.35 474.50,20.50 474.79,18.65 475.65,16.97 476.97,15.65 478.65,14.79 480.50,14.50 480.50,26.50 478.65,26.21 476.97,25.35 475.65,24.03 " />
		<polygon fill="#0000ff" fill-opacity="0.60" shape-rendering="crispEdges" points="517.55,26.50 517.55,14.50 480.50,14.50 480.50,26.50 " />
		<text x="482.50" y="23.50" font-family="Helvetica" font-size="10" fill="#ffffff" >MATN1</text>
		<polygon fill="#0000ff" fill-opacity="0.20" shape-rendering="crispEdges" points="480.55,160.01 480.55,31.00 480.55,31.00 " />
		<polygon fill="#0000ff" fill-opacity="0.20" shape-rendering="crispEdges" points="480.55,160.01 480.55,160.01 480.55,31.00 " />
		<line x1="480.55" y1="159.00" x2="480.55" y2="31.00" stroke="#0000ff" stroke-opacity="0.40" stroke-width="1.00" />
		<line x1="480.55" y1="159.00" x2="480.55" y2="31.00" stroke="#0000ff" stroke-opacity="0.40" stroke-width="1.00" />
		<polygon fill="#e5e5e5" shape-rendering="crispEdges" points="879.00,13.00 879.00,-1.00 0.00,-1.00 0.00,13.00 " />
		<text x="0.00" y="10.00" font-family="Helvetica Bold" font-size="12" text-anchor="start" fill="#000000" >QEPC01000200.1:0..82906 Sphenodon punctatus isolate mauimua-1 ScrUdWx_3580.1, whole genome shotgun sequence</text>
	</g>
</svg>
