<?xml version="1.0" standalone="no" ?>
<!DOCTYPE svg PUBLIC "-//W3C//DTD SVG 1.1//EN" "http://www.w3.org/Graphics/SVG/1.1/DTD/svg11.dtd">
<svg width="879px" height="192px" xmlns="http://www.w3.org/2000/svg" version="1.1" viewBox="0 0 879 192" >
	<style type="text/css" > <![CDATA[
		@import url("https://www.ncbi.nlm.nih.gov/projects/sviewer/css/svg_fonts.css");
	]]>
	</style>
	<desc >Generated by NCBI Genome Workbench http://www.ncbi.nlm.nih.gov/tools/gbench/</desc>
	<defs >
		<clipPath id="clipping-rect1" >
			<rect x="0" y="14" width="879" height="18" />
		</clipPath>
		<linearGradient id="gradient1" gradientTransform="rotate(90)" >
			<stop offset="0%" stop-color="#6c6c6c" />
			<stop offset="50%" stop-color="#b5b5b5" />
			<stop offset="100%" stop-color="#6c6c6c" />
		</linearGradient>
		<clipPath id="clipping-rect2" >
			<rect x="0" y="32" width="879" height="160" />
		</clipPath>
		<linearGradient id="gradient2" gradientTransform="rotate(90)" >
			<stop offset="0%" stop-color="#b6dead" />
			<stop offset="100%" stop-color="#ffffff" stop-opacity="0.00" />
		</linearGradient>
		<linearGradient id="gradient3" gradientTransform="rotate(90)" >
			<stop offset="0%" stop-color="#e6e6e6" stop-opacity="0.71" />
			<stop offset="100%" stop-color="#ffffff" stop-opacity="0.00" />
		</linearGradient>
	</defs>
	<g >
		<polygon fill="#ffffff" shape-rendering="crispEdges" points="879.00,31.00 879.00,13.00 0.00,13.00 0.00,31.00 " />
		<line x1="0.00" y1="29.00" x2="879.00" y2="29.00" stroke="#7f7f7f" stroke-width="1.00" clip-path="url('#clipping-rect1')" />
		<line x1="879.00" y1="29.00" x2="879.00" y2="26.00" stroke="#7f7f7f" stroke-width="1.00" clip-path="url('#clipping-rect1')" />
		<line x1="873.73" y1="29.00" x2="873.73" y2="27.00" stroke="#7f7f7f" stroke-width="1.00" clip-path="url('#clipping-rect1')" />
		<line x1="868.46" y1="29.00" x2="868.46" y2="27.00" stroke="#7f7f7f" stroke-width="1.00" clip-path="url('#clipping-rect1')" />
		<line x1="863.19" y1="29.00" x2="863.19" y2="27.00" stroke="#7f7f7f" stroke-width="1.00" clip-path="url('#clipping-rect1')" />
		<line x1="857.92" y1="29.00" x2="857.92" y2="27.00" stroke="#7f7f7f" stroke-width="1.00" clip-path="url('#clipping-rect1')" />
		<line x1="852.65" y1="29.00" x2="852.65" y2="27.00" stroke="#7f7f7f" stroke-width="1.00" clip-path="url('#clipping-rect1')" />
		<line x1="847.38" y1="29.00" x2="847.38" y2="27.00" stroke="#7f7f7f" stroke-width="1.00" clip-path="url('#clipping-rect1')" />
		<line x1="842.11" y1="29.00" x2="842.11" y2="27.00" stroke="#7f7f7f" stroke-width="1.00" clip-path="url('#clipping-rect1')" />
		<line x1="836.85" y1="29.00" x2="836.85" y2="27.00" stroke="#7f7f7f" stroke-width="1.00" clip-path="url('#clipping-rect1')" />
		<line x1="831.58" y1="29.00" x2="831.58" y2="27.00" stroke="#7f7f7f" stroke-width="1.00" clip-path="url('#clipping-rect1')" />
		<line x1="826.31" y1="29.00" x2="826.31" y2="26.00" stroke="#7f7f7f" stroke-width="1.00" clip-path="url('#clipping-rect1')" />
		<line x1="821.04" y1="29.00" x2="821.04" y2="27.00" stroke="#7f7f7f" stroke-width="1.00" clip-path="url('#clipping-rect1')" />
		<line x1="815.77" y1="29.00" x2="815.77" y2="27.00" stroke="#7f7f7f" stroke-width="1.00" clip-path="url('#clipping-rect1')" />
		<line x1="810.50" y1="29.00" x2="810.50" y2="27.00" stroke="#7f7f7f" stroke-width="1.00" clip-path="url('#clipping-rect1')" />
		<line x1="805.23" y1="29.00" x2="805.23" y2="27.00" stroke="#7f7f7f" stroke-width="1.00" clip-path="url('#clipping-rect1')" />
		<line x1="799.96" y1="29.00" x2="799.96" y2="27.00" stroke="#7f7f7f" stroke-width="1.00" clip-path="url('#clipping-rect1')" />
		<line x1="794.69" y1="29.00" x2="794.69" y2="27.00" stroke="#7f7f7f" stroke-width="1.00" clip-path="url('#clipping-rect1')" />
		<line x1="789.42" y1="29.00" x2="789.42" y2="27.00" stroke="#7f7f7f" stroke-width="1.00" clip-path="url('#clipping-rect1')" />
		<line x1="784.15" y1="29.00" x2="784.15" y2="27.00" stroke="#7f7f7f" stroke-width="1.00" clip-path="url('#clipping-rect1')" />
		<line x1="778.88" y1="29.00" x2="778.88" y2="27.00" stroke="#7f7f7f" stroke-width="1.00" clip-path="url('#clipping-rect1')" />
		<line x1="773.61" y1="29.00" x2="773.61" y2="26.00" stroke="#7f7f7f" stroke-width="1.00" clip-path="url('#clipping-rect1')" />
		<line x1="768.34" y1="29.00" x2="768.34" y2="27.00" stroke="#7f7f7f" stroke-width="1.00" clip-path="url('#clipping-rect1')" />
		<line x1="763.08" y1="29.00" x2="763.08" y2="27.00" stroke="#7f7f7f" stroke-width="1.00" clip-path="url('#clipping-rect1')" />
		<line x1="757.81" y1="29.00" x2="757.81" y2="27.00" stroke="#7f7f7f" stroke-width="1.00" clip-path="url('#clipping-rect1')" />
		<line x1="752.54" y1="29.00" x2="752.54" y2="27.00" stroke="#7f7f7f" stroke-width="1.00" clip-path="url('#clipping-rect1')" />
		<line x1="747.27" y1="29.00" x2="747.27" y2="27.00" stroke="#7f7f7f" stroke-width="1.00" clip-path="url('#clipping-rect1')" />
		<line x1="742.00" y1="29.00" x2="742.00" y2="27.00" stroke="#7f7f7f" stroke-width="1.00" clip-path="url('#clipping-rect1')" />
		<line x1="736.73" y1="29.00" x2="736.73" y2="27.00" stroke="#7f7f7f" stroke-width="1.00" clip-path="url('#clipping-rect1')" />
		<line x1="731.46" y1="29.00" x2="731.46" y2="27.00" stroke="#7f7f7f" stroke-width="1.00" clip-path="url('#clipping-rect1')" />
		<line x1="726.19" y1="29.00" x2="726.19" y2="27.00" stroke="#7f7f7f" stroke-width="1.00" clip-path="url('#clipping-rect1')" />
		<line x1="720.92" y1="29.00" x2="720.92" y2="26.00" stroke="#7f7f7f" stroke-width="1.00" clip-path="url('#clipping-rect1')" />
		<line x1="715.65" y1="29.00" x2="715.65" y2="27.00" stroke="#7f7f7f" stroke-width="1.00" clip-path="url('#clipping-rect1')" />
		<line x1="710.38" y1="29.00" x2="710.38" y2="27.00" stroke="#7f7f7f" stroke-width="1.00" clip-path="url('#clipping-rect1')" />
		<line x1="705.11" y1="29.00" x2="705.11" y2="27.00" stroke="#7f7f7f" stroke-width="1.00" clip-path="url('#clipping-rect1')" />
		<line x1="699.84" y1="29.00" x2="699.84" y2="27.00" stroke="#7f7f7f" stroke-width="1.00" clip-path="url('#clipping-rect1')" />
		<line x1="694.57" y1="29.00" x2="694.57" y2="27.00" stroke="#7f7f7f" stroke-width="1.00" clip-path="url('#clipping-rect1')" />
		<line x1="689.30" y1="29.00" x2="689.30" y2="27.00" stroke="#7f7f7f" stroke-width="1.00" clip-path="url('#clipping-rect1')" />
		<line x1="684.04" y1="29.00" x2="684.04" y2="27.00" stroke="#7f7f7f" stroke-width="1.00" clip-path="url('#clipping-rect1')" />
		<line x1="678.77" y1="29.00" x2="678.77" y2="27.00" stroke="#7f7f7f" stroke-width="1.00" clip-path="url('#clipping-rect1')" />
		<line x1="673.50" y1="29.00" x2="673.50" y2="27.00" stroke="#7f7f7f" stroke-width="1.00" clip-path="url('#clipping-rect1')" />
		<line x1="668.23" y1="29.00" x2="668.23" y2="26.00" stroke="#7f7f7f" stroke-width="1.00" clip-path="url('#clipping-rect1')" />
		<line x1="662.96" y1="29.00" x2="662.96" y2="27.00" stroke="#7f7f7f" stroke-width="1.00" clip-path="url('#clipping-rect1')" />
		<line x1="657.69" y1="29.00" x2="657.69" y2="27.00" stroke="#7f7f7f" stroke-width="1.00" clip-path="url('#clipping-rect1')" />
		<line x1="652.42" y1="29.00" x2="652.42" y2="27.00" stroke="#7f7f7f" stroke-width="1.00" clip-path="url('#clipping-rect1')" />
		<line x1="647.15" y1="29.00" x2="647.15" y2="27.00" stroke="#7f7f7f" stroke-width="1.00" clip-path="url('#clipping-rect1')" />
		<line x1="641.88" y1="29.00" x2="641.88" y2="27.00" stroke="#7f7f7f" stroke-width="1.00" clip-path="url('#clipping-rect1')" />
		<line x1="636.61" y1="29.00" x2="636.61" y2="27.00" stroke="#7f7f7f" stroke-width="1.00" clip-path="url('#clipping-rect1')" />
		<line x1="631.34" y1="29.00" x2="631.34" y2="27.00" stroke="#7f7f7f" stroke-width="1.00" clip-path="url('#clipping-rect1')" />
		<line x1="626.07" y1="29.00" x2="626.07" y2="27.00" stroke="#7f7f7f" stroke-width="1.00" clip-path="url('#clipping-rect1')" />
		<line x1="620.80" y1="29.00" x2="620.80" y2="27.00" stroke="#7f7f7f" stroke-width="1.00" clip-path="url('#clipping-rect1')" />
		<line x1="615.53" y1="29.00" x2="615.53" y2="26.00" stroke="#7f7f7f" stroke-width="1.00" clip-path="url('#clipping-rect1')" />
		<line x1="610.26" y1="29.00" x2="610.26" y2="27.00" stroke="#7f7f7f" stroke-width="1.00" clip-path="url('#clipping-rect1')" />
		<line x1="605.00" y1="29.00" x2="605.00" y2="27.00" stroke="#7f7f7f" stroke-width="1.00" clip-path="url('#clipping-rect1')" />
		<line x1="599.73" y1="29.00" x2="599.73" y2="27.00" stroke="#7f7f7f" stroke-width="1.00" clip-path="url('#clipping-rect1')" />
		<line x1="594.46" y1="29.00" x2="594.46" y2="27.00" stroke="#7f7f7f" stroke-width="1.00" clip-path="url('#clipping-rect1')" />
		<line x1="589.19" y1="29.00" x2="589.19" y2="27.00" stroke="#7f7f7f" stroke-width="1.00" clip-path="url('#clipping-rect1')" />
		<line x1="583.92" y1="29.00" x2="583.92" y2="27.00" stroke="#7f7f7f" stroke-width="1.00" clip-path="url('#clipping-rect1')" />
		<line x1="578.65" y1="29.00" x2="578.65" y2="27.00" stroke="#7f7f7f" stroke-width="1.00" clip-path="url('#clipping-rect1')" />
		<line x1="573.38" y1="29.00" x2="573.38" y2="27.00" stroke="#7f7f7f" stroke-width="1.00" clip-path="url('#clipping-rect1')" />
		<line x1="568.11" y1="29.00" x2="568.11" y2="27.00" stroke="#7f7f7f" stroke-width="1.00" clip-path="url('#clipping-rect1')" />
		<line x1="562.84" y1="29.00" x2="562.84" y2="26.00" stroke="#7f7f7f" stroke-width="1.00" clip-path="url('#clipping-rect1')" />
		<line x1="557.57" y1="29.00" x2="557.57" y2="27.00" stroke="#7f7f7f" stroke-width="1.00" clip-path="url('#clipping-rect1')" />
		<line x1="552.30" y1="29.00" x2="552.30" y2="27.00" stroke="#7f7f7f" stroke-width="1.00" clip-path="url('#clipping-rect1')" />
		<line x1="547.03" y1="29.00" x2="547.03" y2="27.00" stroke="#7f7f7f" stroke-width="1.00" clip-path="url('#clipping-rect1')" />
		<line x1="541.76" y1="29.00" x2="541.76" y2="27.00" stroke="#7f7f7f" stroke-width="1.00" clip-path="url('#clipping-rect1')" />
		<line x1="536.49" y1="29.00" x2="536.49" y2="27.00" stroke="#7f7f7f" stroke-width="1.00" clip-path="url('#clipping-rect1')" />
		<line x1="531.22" y1="29.00" x2="531.22" y2="27.00" stroke="#7f7f7f" stroke-width="1.00" clip-path="url('#clipping-rect1')" />
		<line x1="525.96" y1="29.00" x2="525.96" y2="27.00" stroke="#7f7f7f" stroke-width="1.00" clip-path="url('#clipping-rect1')" />
		<line x1="520.69" y1="29.00" x2="520.69" y2="27.00" stroke="#7f7f7f" stroke-width="1.00" clip-path="url('#clipping-rect1')" />
		<line x1="515.42" y1="29.00" x2="515.42" y2="27.00" stroke="#7f7f7f" stroke-width="1.00" clip-path="url('#clipping-rect1')" />
		<line x1="510.15" y1="29.00" x2="510.15" y2="26.00" stroke="#7f7f7f" stroke-width="1.00" clip-path="url('#clipping-rect1')" />
		<line x1="504.88" y1="29.00" x2="504.88" y2="27.00" stroke="#7f7f7f" stroke-width="1.00" clip-path="url('#clipping-rect1')" />
		<line x1="499.61" y1="29.00" x2="499.61" y2="27.00" stroke="#7f7f7f" stroke-width="1.00" clip-path="url('#clipping-rect1')" />
		<line x1="494.34" y1="29.00" x2="494.34" y2="27.00" stroke="#7f7f7f" stroke-width="1.00" clip-path="url('#clipping-rect1')" />
		<line x1="489.07" y1="29.00" x2="489.07" y2="27.00" stroke="#7f7f7f" stroke-width="1.00" clip-path="url('#clipping-rect1')" />
		<line x1="483.80" y1="29.00" x2="483.80" y2="27.00" stroke="#7f7f7f" stroke-width="1.00" clip-path="url('#clipping-rect1')" />
		<line x1="478.53" y1="29.00" x2="478.53" y2="27.00" stroke="#7f7f7f" stroke-width="1.00" clip-path="url('#clipping-rect1')" />
		<line x1="473.26" y1="29.00" x2="473.26" y2="27.00" stroke="#7f7f7f" stroke-width="1.00" clip-path="url('#clipping-rect1')" />
		<line x1="467.99" y1="29.00" x2="467.99" y2="27.00" stroke="#7f7f7f" stroke-width="1.00" clip-path="url('#clipping-rect1')" />
		<line x1="462.72" y1="29.00" x2="462.72" y2="27.00" stroke="#7f7f7f" stroke-width="1.00" clip-path="url('#clipping-rect1')" />
		<line x1="457.45" y1="29.00" x2="457.45" y2="26.00" stroke="#7f7f7f" stroke-width="1.00" clip-path="url('#clipping-rect1')" />
		<line x1="452.19" y1="29.00" x2="452.19" y2="27.00" stroke="#7f7f7f" stroke-width="1.00" clip-path="url('#clipping-rect1')" />
		<line x1="446.92" y1="29.00" x2="446.92" y2="27.00" stroke="#7f7f7f" stroke-width="1.00" clip-path="url('#clipping-rect1')" />
		<line x1="441.65" y1="29.00" x2="441.65" y2="27.00" stroke="#7f7f7f" stroke-width="1.00" clip-path="url('#clipping-rect1')" />
		<line x1="436.38" y1="29.00" x2="436.38" y2="27.00" stroke="#7f7f7f" stroke-width="1.00" clip-path="url('#clipping-rect1')" />
		<line x1="431.11" y1="29.00" x2="431.11" y2="27.00" stroke="#7f7f7f" stroke-width="1.00" clip-path="url('#clipping-rect1')" />
		<line x1="425.84" y1="29.00" x2="425.84" y2="27.00" stroke="#7f7f7f" stroke-width="1.00" clip-path="url('#clipping-rect1')" />
		<line x1="420.57" y1="29.00" x2="420.57" y2="27.00" stroke="#7f7f7f" stroke-width="1.00" clip-path="url('#clipping-rect1')" />
		<line x1="415.30" y1="29.00" x2="415.30" y2="27.00" stroke="#7f7f7f" stroke-width="1.00" clip-path="url('#clipping-rect1')" />
		<line x1="410.03" y1="29.00" x2="410.03" y2="27.00" stroke="#7f7f7f" stroke-width="1.00" clip-path="url('#clipping-rect1')" />
		<line x1="404.76" y1="29.00" x2="404.76" y2="26.00" stroke="#7f7f7f" stroke-width="1.00" clip-path="url('#clipping-rect1')" />
		<line x1="399.49" y1="29.00" x2="399.49" y2="27.00" stroke="#7f7f7f" stroke-width="1.00" clip-path="url('#clipping-rect1')" />
		<line x1="394.22" y1="29.00" x2="394.22" y2="27.00" stroke="#7f7f7f" stroke-width="1.00" clip-path="url('#clipping-rect1')" />
		<line x1="388.95" y1="29.00" x2="388.95" y2="27.00" stroke="#7f7f7f" stroke-width="1.00" clip-path="url('#clipping-rect1')" />
		<line x1="383.68" y1="29.00" x2="383.68" y2="27.00" stroke="#7f7f7f" stroke-width="1.00" clip-path="url('#clipping-rect1')" />
		<line x1="378.41" y1="29.00" x2="378.41" y2="27.00" stroke="#7f7f7f" stroke-width="1.00" clip-path="url('#clipping-rect1')" />
		<line x1="373.15" y1="29.00" x2="373.15" y2="27.00" stroke="#7f7f7f" stroke-width="1.00" clip-path="url('#clipping-rect1')" />
		<line x1="367.88" y1="29.00" x2="367.88" y2="27.00" stroke="#7f7f7f" stroke-width="1.00" clip-path="url('#clipping-rect1')" />
		<line x1="362.61" y1="29.00" x2="362.61" y2="27.00" stroke="#7f7f7f" stroke-width="1.00" clip-path="url('#clipping-rect1')" />
		<line x1="357.34" y1="29.00" x2="357.34" y2="27.00" stroke="#7f7f7f" stroke-width="1.00" clip-path="url('#clipping-rect1')" />
		<line x1="352.07" y1="29.00" x2="352.07" y2="26.00" stroke="#7f7f7f" stroke-width="1.00" clip-path="url('#clipping-rect1')" />
		<line x1="346.80" y1="29.00" x2="346.80" y2="27.00" stroke="#7f7f7f" stroke-width="1.00" clip-path="url('#clipping-rect1')" />
		<line x1="341.53" y1="29.00" x2="341.53" y2="27.00" stroke="#7f7f7f" stroke-width="1.00" clip-path="url('#clipping-rect1')" />
		<line x1="336.26" y1="29.00" x2="336.26" y2="27.00" stroke="#7f7f7f" stroke-width="1.00" clip-path="url('#clipping-rect1')" />
		<line x1="330.99" y1="29.00" x2="330.99" y2="27.00" stroke="#7f7f7f" stroke-width="1.00" clip-path="url('#clipping-rect1')" />
		<line x1="325.72" y1="29.00" x2="325.72" y2="27.00" stroke="#7f7f7f" stroke-width="1.00" clip-path="url('#clipping-rect1')" />
		<line x1="320.45" y1="29.00" x2="320.45" y2="27.00" stroke="#7f7f7f" stroke-width="1.00" clip-path="url('#clipping-rect1')" />
		<line x1="315.18" y1="29.00" x2="315.18" y2="27.00" stroke="#7f7f7f" stroke-width="1.00" clip-path="url('#clipping-rect1')" />
		<line x1="309.91" y1="29.00" x2="309.91" y2="27.00" stroke="#7f7f7f" stroke-width="1.00" clip-path="url('#clipping-rect1')" />
		<line x1="304.64" y1="29.00" x2="304.64" y2="27.00" stroke="#7f7f7f" stroke-width="1.00" clip-path="url('#clipping-rect1')" />
		<line x1="299.37" y1="29.00" x2="299.37" y2="26.00" stroke="#7f7f7f" stroke-width="1.00" clip-path="url('#clipping-rect1')" />
		<line x1="294.11" y1="29.00" x2="294.11" y2="27.00" stroke="#7f7f7f" stroke-width="1.00" clip-path="url('#clipping-rect1')" />
		<line x1="288.84" y1="29.00" x2="288.84" y2="27.00" stroke="#7f7f7f" stroke-width="1.00" clip-path="url('#clipping-rect1')" />
		<line x1="283.57" y1="29.00" x2="283.57" y2="27.00" stroke="#7f7f7f" stroke-width="1.00" clip-path="url('#clipping-rect1')" />
		<line x1="278.30" y1="29.00" x2="278.30" y2="27.00" stroke="#7f7f7f" stroke-width="1.00" clip-path="url('#clipping-rect1')" />
		<line x1="273.03" y1="29.00" x2="273.03" y2="27.00" stroke="#7f7f7f" stroke-width="1.00" clip-path="url('#clipping-rect1')" />
		<line x1="267.76" y1="29.00" x2="267.76" y2="27.00" stroke="#7f7f7f" stroke-width="1.00" clip-path="url('#clipping-rect1')" />
		<line x1="262.49" y1="29.00" x2="262.49" y2="27.00" stroke="#7f7f7f" stroke-width="1.00" clip-path="url('#clipping-rect1')" />
		<line x1="257.22" y1="29.00" x2="257.22" y2="27.00" stroke="#7f7f7f" stroke-width="1.00" clip-path="url('#clipping-rect1')" />
		<line x1="251.95" y1="29.00" x2="251.95" y2="27.00" stroke="#7f7f7f" stroke-width="1.00" clip-path="url('#clipping-rect1')" />
		<line x1="246.68" y1="29.00" x2="246.68" y2="26.00" stroke="#7f7f7f" stroke-width="1.00" clip-path="url('#clipping-rect1')" />
		<line x1="241.41" y1="29.00" x2="241.41" y2="27.00" stroke="#7f7f7f" stroke-width="1.00" clip-path="url('#clipping-rect1')" />
		<line x1="236.14" y1="29.00" x2="236.14" y2="27.00" stroke="#7f7f7f" stroke-width="1.00" clip-path="url('#clipping-rect1')" />
		<line x1="230.87" y1="29.00" x2="230.87" y2="27.00" stroke="#7f7f7f" stroke-width="1.00" clip-path="url('#clipping-rect1')" />
		<line x1="225.60" y1="29.00" x2="225.60" y2="27.00" stroke="#7f7f7f" stroke-width="1.00" clip-path="url('#clipping-rect1')" />
		<line x1="220.33" y1="29.00" x2="220.33" y2="27.00" stroke="#7f7f7f" stroke-width="1.00" clip-path="url('#clipping-rect1')" />
		<line x1="215.07" y1="29.00" x2="215.07" y2="27.00" stroke="#7f7f7f" stroke-width="1.00" clip-path="url('#clipping-rect1')" />
		<line x1="209.80" y1="29.00" x2="209.80" y2="27.00" stroke="#7f7f7f" stroke-width="1.00" clip-path="url('#clipping-rect1')" />
		<line x1="204.53" y1="29.00" x2="204.53" y2="27.00" stroke="#7f7f7f" stroke-width="1.00" clip-path="url('#clipping-rect1')" />
		<line x1="199.26" y1="29.00" x2="199.26" y2="27.00" stroke="#7f7f7f" stroke-width="1.00" clip-path="url('#clipping-rect1')" />
		<line x1="193.99" y1="29.00" x2="193.99" y2="26.00" stroke="#7f7f7f" stroke-width="1.00" clip-path="url('#clipping-rect1')" />
		<line x1="188.72" y1="29.00" x2="188.72" y2="27.00" stroke="#7f7f7f" stroke-width="1.00" clip-path="url('#clipping-rect1')" />
		<line x1="183.45" y1="29.00" x2="183.45" y2="27.00" stroke="#7f7f7f" stroke-width="1.00" clip-path="url('#clipping-rect1')" />
		<line x1="178.18" y1="29.00" x2="178.18" y2="27.00" stroke="#7f7f7f" stroke-width="1.00" clip-path="url('#clipping-rect1')" />
		<line x1="172.91" y1="29.00" x2="172.91" y2="27.00" stroke="#7f7f7f" stroke-width="1.00" clip-path="url('#clipping-rect1')" />
		<line x1="167.64" y1="29.00" x2="167.64" y2="27.00" stroke="#7f7f7f" stroke-width="1.00" clip-path="url('#clipping-rect1')" />
		<line x1="162.37" y1="29.00" x2="162.37" y2="27.00" stroke="#7f7f7f" stroke-width="1.00" clip-path="url('#clipping-rect1')" />
		<line x1="157.10" y1="29.00" x2="157.10" y2="27.00" stroke="#7f7f7f" stroke-width="1.00" clip-path="url('#clipping-rect1')" />
		<line x1="151.83" y1="29.00" x2="151.83" y2="27.00" stroke="#7f7f7f" stroke-width="1.00" clip-path="url('#clipping-rect1')" />
		<line x1="146.56" y1="29.00" x2="146.56" y2="27.00" stroke="#7f7f7f" stroke-width="1.00" clip-path="url('#clipping-rect1')" />
		<line x1="141.30" y1="29.00" x2="141.30" y2="26.00" stroke="#7f7f7f" stroke-width="1.00" clip-path="url('#clipping-rect1')" />
		<line x1="136.03" y1="29.00" x2="136.03" y2="27.00" stroke="#7f7f7f" stroke-width="1.00" clip-path="url('#clipping-rect1')" />
		<line x1="130.76" y1="29.00" x2="130.76" y2="27.00" stroke="#7f7f7f" stroke-width="1.00" clip-path="url('#clipping-rect1')" />
		<line x1="125.49" y1="29.00" x2="125.49" y2="27.00" stroke="#7f7f7f" stroke-width="1.00" clip-path="url('#clipping-rect1')" />
		<line x1="120.22" y1="29.00" x2="120.22" y2="27.00" stroke="#7f7f7f" stroke-width="1.00" clip-path="url('#clipping-rect1')" />
		<line x1="114.95" y1="29.00" x2="114.95" y2="27.00" stroke="#7f7f7f" stroke-width="1.00" clip-path="url('#clipping-rect1')" />
		<line x1="109.68" y1="29.00" x2="109.68" y2="27.00" stroke="#7f7f7f" stroke-width="1.00" clip-path="url('#clipping-rect1')" />
		<line x1="104.41" y1="29.00" x2="104.41" y2="27.00" stroke="#7f7f7f" stroke-width="1.00" clip-path="url('#clipping-rect1')" />
		<line x1="99.14" y1="29.00" x2="99.14" y2="27.00" stroke="#7f7f7f" stroke-width="1.00" clip-path="url('#clipping-rect1')" />
		<line x1="93.87" y1="29.00" x2="93.87" y2="27.00" stroke="#7f7f7f" stroke-width="1.00" clip-path="url('#clipping-rect1')" />
		<line x1="88.60" y1="29.00" x2="88.60" y2="26.00" stroke="#7f7f7f" stroke-width="1.00" clip-path="url('#clipping-rect1')" />
		<line x1="83.33" y1="29.00" x2="83.33" y2="27.00" stroke="#7f7f7f" stroke-width="1.00" clip-path="url('#clipping-rect1')" />
		<line x1="78.06" y1="29.00" x2="78.06" y2="27.00" stroke="#7f7f7f" stroke-width="1.00" clip-path="url('#clipping-rect1')" />
		<line x1="72.79" y1="29.00" x2="72.79" y2="27.00" stroke="#7f7f7f" stroke-width="1.00" clip-path="url('#clipping-rect1')" />
		<line x1="67.52" y1="29.00" x2="67.52" y2="27.00" stroke="#7f7f7f" stroke-width="1.00" clip-path="url('#clipping-rect1')" />
		<line x1="62.26" y1="29.00" x2="62.26" y2="27.00" stroke="#7f7f7f" stroke-width="1.00" clip-path="url('#clipping-rect1')" />
		<line x1="56.99" y1="29.00" x2="56.99" y2="27.00" stroke="#7f7f7f" stroke-width="1.00" clip-path="url('#clipping-rect1')" />
		<line x1="51.72" y1="29.00" x2="51.72" y2="27.00" stroke="#7f7f7f" stroke-width="1.00" clip-path="url('#clipping-rect1')" />
		<line x1="46.45" y1="29.00" x2="46.45" y2="27.00" stroke="#7f7f7f" stroke-width="1.00" clip-path="url('#clipping-rect1')" />
		<line x1="41.18" y1="29.00" x2="41.18" y2="27.00" stroke="#7f7f7f" stroke-width="1.00" clip-path="url('#clipping-rect1')" />
		<line x1="35.91" y1="29.00" x2="35.91" y2="26.00" stroke="#7f7f7f" stroke-width="1.00" clip-path="url('#clipping-rect1')" />
		<line x1="30.64" y1="29.00" x2="30.64" y2="27.00" stroke="#7f7f7f" stroke-width="1.00" clip-path="url('#clipping-rect1')" />
		<line x1="25.37" y1="29.00" x2="25.37" y2="27.00" stroke="#7f7f7f" stroke-width="1.00" clip-path="url('#clipping-rect1')" />
		<line x1="20.10" y1="29.00" x2="20.10" y2="27.00" stroke="#7f7f7f" stroke-width="1.00" clip-path="url('#clipping-rect1')" />
		<line x1="14.83" y1="29.00" x2="14.83" y2="27.00" stroke="#7f7f7f" stroke-width="1.00" clip-path="url('#clipping-rect1')" />
		<line x1="9.56" y1="29.00" x2="9.56" y2="27.00" stroke="#7f7f7f" stroke-width="1.00" clip-path="url('#clipping-rect1')" />
		<line x1="4.29" y1="29.00" x2="4.29" y2="27.00" stroke="#7f7f7f" stroke-width="1.00" clip-path="url('#clipping-rect1')" />
		<text x="0.00" y="24.00" font-family="Helvetica" font-size="10" fill="#333333" clip-path="url('#clipping-rect1')" >1,668,146</text>
		<line x1="0.00" y1="31.00" x2="0.00" y2="16.00" stroke="#7f7f7f" stroke-width="1.00" clip-path="url('#clipping-rect1')" />
		<text x="876.55" y="24.00" font-family="Helvetica" font-size="10" fill="#333333" clip-path="url('#clipping-rect1')" >1</text>
		<line x1="879.00" y1="31.00" x2="879.00" y2="16.00" stroke="#7f7f7f" stroke-width="1.00" clip-path="url('#clipping-rect1')" />
		<text x="828.31" y="24.00" font-family="Helvetica" font-size="10" fill="#333333" clip-path="url('#clipping-rect1')" >100 K</text>
		<line x1="826.31" y1="31.00" x2="826.31" y2="16.00" stroke="#7f7f7f" stroke-width="1.00" clip-path="url('#clipping-rect1')" />
		<text x="775.61" y="24.00" font-family="Helvetica" font-size="10" fill="#333333" clip-path="url('#clipping-rect1')" >200 K</text>
		<line x1="773.61" y1="31.00" x2="773.61" y2="16.00" stroke="#7f7f7f" stroke-width="1.00" clip-path="url('#clipping-rect1')" />
		<text x="722.92" y="24.00" font-family="Helvetica" font-size="10" fill="#333333" clip-path="url('#clipping-rect1')" >300 K</text>
		<line x1="720.92" y1="31.00" x2="720.92" y2="16.00" stroke="#7f7f7f" stroke-width="1.00" clip-path="url('#clipping-rect1')" />
		<text x="670.23" y="24.00" font-family="Helvetica" font-size="10" fill="#333333" clip-path="url('#clipping-rect1')" >400 K</text>
		<line x1="668.23" y1="31.00" x2="668.23" y2="16.00" stroke="#7f7f7f" stroke-width="1.00" clip-path="url('#clipping-rect1')" />
		<text x="617.53" y="24.00" font-family="Helvetica" font-size="10" fill="#333333" clip-path="url('#clipping-rect1')" >500 K</text>
		<line x1="615.53" y1="31.00" x2="615.53" y2="16.00" stroke="#7f7f7f" stroke-width="1.00" clip-path="url('#clipping-rect1')" />
		<text x="564.84" y="24.00" font-family="Helvetica" font-size="10" fill="#333333" clip-path="url('#clipping-rect1')" >600 K</text>
		<line x1="562.84" y1="31.00" x2="562.84" y2="16.00" stroke="#7f7f7f" stroke-width="1.00" clip-path="url('#clipping-rect1')" />
		<text x="512.15" y="24.00" font-family="Helvetica" font-size="10" fill="#333333" clip-path="url('#clipping-rect1')" >700 K</text>
		<line x1="510.15" y1="31.00" x2="510.15" y2="16.00" stroke="#7f7f7f" stroke-width="1.00" clip-path="url('#clipping-rect1')" />
		<text x="459.45" y="24.00" font-family="Helvetica" font-size="10" fill="#333333" clip-path="url('#clipping-rect1')" >800 K</text>
		<line x1="457.45" y1="31.00" x2="457.45" y2="16.00" stroke="#7f7f7f" stroke-width="1.00" clip-path="url('#clipping-rect1')" />
		<text x="406.76" y="24.00" font-family="Helvetica" font-size="10" fill="#333333" clip-path="url('#clipping-rect1')" >900 K</text>
		<line x1="404.76" y1="31.00" x2="404.76" y2="16.00" stroke="#7f7f7f" stroke-width="1.00" clip-path="url('#clipping-rect1')" />
		<text x="354.07" y="24.00" font-family="Helvetica" font-size="10" fill="#333333" clip-path="url('#clipping-rect1')" >1 M</text>
		<line x1="352.07" y1="31.00" x2="352.07" y2="16.00" stroke="#7f7f7f" stroke-width="1.00" clip-path="url('#clipping-rect1')" />
		<text x="301.37" y="24.00" font-family="Helvetica" font-size="10" fill="#333333" clip-path="url('#clipping-rect1')" >1,100 K</text>
		<line x1="299.37" y1="31.00" x2="299.37" y2="16.00" stroke="#7f7f7f" stroke-width="1.00" clip-path="url('#clipping-rect1')" />
		<text x="248.68" y="24.00" font-family="Helvetica" font-size="10" fill="#333333" clip-path="url('#clipping-rect1')" >1,200 K</text>
		<line x1="246.68" y1="31.00" x2="246.68" y2="16.00" stroke="#7f7f7f" stroke-width="1.00" clip-path="url('#clipping-rect1')" />
		<text x="195.99" y="24.00" font-family="Helvetica" font-size="10" fill="#333333" clip-path="url('#clipping-rect1')" >1,300 K</text>
		<line x1="193.99" y1="31.00" x2="193.99" y2="16.00" stroke="#7f7f7f" stroke-width="1.00" clip-path="url('#clipping-rect1')" />
		<text x="143.30" y="24.00" font-family="Helvetica" font-size="10" fill="#333333" clip-path="url('#clipping-rect1')" >1,400 K</text>
		<line x1="141.30" y1="31.00" x2="141.30" y2="16.00" stroke="#7f7f7f" stroke-width="1.00" clip-path="url('#clipping-rect1')" />
		<text x="90.60" y="24.00" font-family="Helvetica" font-size="10" fill="#333333" clip-path="url('#clipping-rect1')" >1,500 K</text>
		<line x1="88.60" y1="31.00" x2="88.60" y2="16.00" stroke="#7f7f7f" stroke-width="1.00" clip-path="url('#clipping-rect1')" />
		<line x1="879.00" y1="191.00" x2="879.00" y2="31.00" stroke="#ebebeb" stroke-width="1.00" />
		<line x1="826.94" y1="191.00" x2="826.94" y2="31.00" stroke="#ebebeb" stroke-width="1.00" />
		<line x1="773.88" y1="191.00" x2="773.88" y2="31.00" stroke="#ebebeb" stroke-width="1.00" />
		<line x1="720.82" y1="191.00" x2="720.82" y2="31.00" stroke="#ebebeb" stroke-width="1.00" />
		<line x1="668.76" y1="191.00" x2="668.76" y2="31.00" stroke="#ebebeb" stroke-width="1.00" />
		<line x1="615.70" y1="191.00" x2="615.70" y2="31.00" stroke="#ebebeb" stroke-width="1.00" />
		<line x1="562.64" y1="191.00" x2="562.64" y2="31.00" stroke="#ebebeb" stroke-width="1.00" />
		<line x1="510.58" y1="191.00" x2="510.58" y2="31.00" stroke="#ebebeb" stroke-width="1.00" />
		<line x1="457.52" y1="191.00" x2="457.52" y2="31.00" stroke="#ebebeb" stroke-width="1.00" />
		<line x1="404.46" y1="191.00" x2="404.46" y2="31.00" stroke="#ebebeb" stroke-width="1.00" />
		<line x1="352.40" y1="191.00" x2="352.40" y2="31.00" stroke="#ebebeb" stroke-width="1.00" />
		<line x1="299.34" y1="191.00" x2="299.34" y2="31.00" stroke="#ebebeb" stroke-width="1.00" />
		<line x1="246.28" y1="191.00" x2="246.28" y2="31.00" stroke="#ebebeb" stroke-width="1.00" />
		<line x1="193.22" y1="191.00" x2="193.22" y2="31.00" stroke="#ebebeb" stroke-width="1.00" />
		<line x1="141.16" y1="191.00" x2="141.16" y2="31.00" stroke="#ebebeb" stroke-width="1.00" />
		<line x1="88.10" y1="191.00" x2="88.10" y2="31.00" stroke="#ebebeb" stroke-width="1.00" />
		<line x1="35.04" y1="191.00" x2="35.04" y2="31.00" stroke="#ebebeb" stroke-width="1.00" />
		<polygon fill="url('#gradient1')" shape-rendering="crispEdges" points="0.00,37.50 0.00,33.00 879.00,33.00 879.00,37.50 879.00,42.00 0.00,42.00 " />
		<line x1="879.00" y1="42.00" x2="879.00" y2="33.00" stroke="#6c6c6c" stroke-width="1.00" stroke-linejoin="round" />
		<line x1="879.00" y1="33.00" x2="0.00" y2="33.00" stroke="#6c6c6c" stroke-width="1.00" stroke-linejoin="round" />
		<line x1="0.00" y1="33.00" x2="0.00" y2="42.00" stroke="#6c6c6c" stroke-width="1.00" stroke-linejoin="round" />
		<line x1="879.00" y1="42.00" x2="0.00" y2="42.00" stroke="#6c6c6c" stroke-width="1.00" stroke-linejoin="round" />
		<polygon fill="url('#gradient2')" shape-rendering="crispEdges" points="0.00,58.00 879.00,58.00 879.00,44.00 0.00,44.00 " clip-path="url('#clipping-rect2')" />
		<text x="0.00" y="54.00" font-family="Helvetica" font-size="12" fill="#333333" >(U) BLAST Results for: ref|NM_004727.3|</text>
		<polygon fill="url('#gradient2')" shape-rendering="crispEdges" points="0.00,74.00 879.00,74.00 879.00,60.00 0.00,60.00 " clip-path="url('#clipping-rect2')" />
		<text x="0.00" y="70.00" font-family="Helvetica" font-size="12" fill="#333333" >(U) BLAST Results for: ref|NM_004727.3|</text>
		<line x1="772.88" y1="95.00" x2="772.88" y2="122.00" stroke="#009900" stroke-opacity="0.10" stroke-width="1.00" stroke-linejoin="round" />
		<line x1="772.88" y1="122.00" x2="650.05" y2="122.00" stroke="#009900" stroke-opacity="0.10" stroke-width="1.00" stroke-linejoin="round" />
		<line x1="650.05" y1="122.00" x2="650.05" y2="95.00" stroke="#009900" stroke-opacity="0.10" stroke-width="1.00" stroke-linejoin="round" />
		<line x1="772.88" y1="95.00" x2="650.05" y2="95.00" stroke="#009900" stroke-opacity="0.10" stroke-width="1.00" stroke-linejoin="round" />
		<text x="657.12" y="104.00" font-family="Helvetica" font-size="10" fill="#124d94" >ENSSPUG00000006190</text>
		<line x1="770.88" y1="110.00" x2="770.88" y2="120.00" stroke="#6321ff" stroke-width="1.00" />
		<polygon fill="#ffffff" shape-rendering="crispEdges" points="652.05,121.00 652.05,109.00 765.82,109.00 765.82,121.00 " />
		<text x="652.05" y="118.50" font-family="Helvetica" font-size="10" fill="#124d94" >ENSSPUT00000008564.1</text>
		<line x1="613.40" y1="95.00" x2="613.40" y2="123.00" stroke="#009900" stroke-opacity="0.10" stroke-width="1.00" stroke-linejoin="round" />
		<line x1="613.40" y1="123.00" x2="360.32" y2="123.00" stroke="#009900" stroke-opacity="0.10" stroke-width="1.00" stroke-linejoin="round" />
		<line x1="360.32" y1="123.00" x2="360.32" y2="95.00" stroke="#009900" stroke-opacity="0.10" stroke-width="1.00" stroke-linejoin="round" />
		<line x1="613.40" y1="95.00" x2="360.32" y2="95.00" stroke="#009900" stroke-opacity="0.10" stroke-width="1.00" stroke-linejoin="round" />
		<text x="432.49" y="104.00" font-family="Helvetica" font-size="10" fill="#124d94" >ENSSPUG00000006232</text>
		<polygon fill="#1e8c1e" shape-rendering="crispEdges" points="491.52,110.00 491.52,121.00 492.52,121.00 492.52,110.00 " />
		<line x1="491.98" y1="115.50" x2="489.92" y2="115.50" stroke="#4ba34b" stroke-width="2.00" />
		<polygon fill="#1e8c1e" shape-rendering="crispEdges" points="489.35,110.00 489.35,121.00 490.35,121.00 490.35,110.00 " />
		<line x1="489.78" y1="115.50" x2="486.29" y2="115.50" stroke="#4ba34b" stroke-width="2.00" />
		<polygon fill="#1e8c1e" shape-rendering="crispEdges" points="485.62,110.00 485.62,121.00 486.62,121.00 486.62,110.00 " />
		<line x1="485.96" y1="115.50" x2="481.57" y2="115.50" stroke="#4ba34b" stroke-width="2.00" />
		<polygon fill="#1e8c1e" shape-rendering="crispEdges" points="481.04,110.00 481.04,121.00 482.04,121.00 482.04,110.00 " />
		<line x1="481.51" y1="115.50" x2="481.12" y2="115.50" stroke="#4ba34b" stroke-width="2.00" />
		<polygon fill="#1e8c1e" shape-rendering="crispEdges" points="480.60,110.00 480.60,121.00 481.60,121.00 481.60,110.00 " />
		<polygon fill="#ffffff" shape-rendering="crispEdges" points="492.07,121.00 492.07,110.00 610.40,110.00 610.40,121.00 " />
		<text x="496.07" y="119.00" font-family="Helvetica" font-size="10" fill="#124d94" >ENSSPUP00000008075.1</text>
		<polygon fill="#ffffff" shape-rendering="crispEdges" points="362.32,121.00 362.32,110.00 477.08,110.00 477.08,121.00 " />
		<text x="363.32" y="119.00" font-family="Helvetica" font-size="10" fill="#124d94" >ENSSPUT00000008609.1</text>
		<line x1="338.21" y1="95.00" x2="338.21" y2="123.00" stroke="#009900" stroke-opacity="0.10" stroke-width="1.00" stroke-linejoin="round" />
		<line x1="338.21" y1="123.00" x2="0.00" y2="123.00" stroke="#009900" stroke-opacity="0.10" stroke-width="1.00" stroke-linejoin="round" />
		<line x1="0.00" y1="123.00" x2="0.00" y2="95.00" stroke="#009900" stroke-opacity="0.10" stroke-width="1.00" stroke-linejoin="round" />
		<line x1="338.21" y1="95.00" x2="0.00" y2="95.00" stroke="#009900" stroke-opacity="0.10" stroke-width="1.00" stroke-linejoin="round" />
		<text x="100.34" y="104.00" font-family="Helvetica" font-size="10" fill="#124d94" >ENSSPUG00000006267</text>
		<polygon fill="#a5d1a5" shape-rendering="crispEdges" points="216.37,110.00 216.37,121.00 217.37,121.00 217.37,110.00 " />
		<polygon fill="#1e8c1e" shape-rendering="crispEdges" points="216.33,110.00 216.33,121.00 217.33,121.00 217.33,110.00 " />
		<line x1="216.79" y1="115.50" x2="216.15" y2="115.50" stroke="#4ba34b" stroke-width="2.00" />
		<polygon fill="#1e8c1e" shape-rendering="crispEdges" points="215.60,110.00 215.60,121.00 216.60,121.00 216.60,110.00 " />
		<line x1="216.05" y1="115.50" x2="215.24" y2="115.50" stroke="#4ba34b" stroke-width="2.00" />
		<polygon fill="#1e8c1e" shape-rendering="crispEdges" points="214.71,110.00 214.71,121.00 215.71,121.00 215.71,110.00 " />
		<line x1="215.18" y1="115.50" x2="214.80" y2="115.50" stroke="#4ba34b" stroke-width="2.00" />
		<polygon fill="#1e8c1e" shape-rendering="crispEdges" points="214.27,110.00 214.27,121.00 215.27,121.00 215.27,110.00 " />
		<line x1="214.73" y1="115.50" x2="212.39" y2="115.50" stroke="#4ba34b" stroke-width="2.00" />
		<polygon fill="#1e8c1e" shape-rendering="crispEdges" points="211.85,110.00 211.85,121.00 212.85,121.00 212.85,110.00 " />
		<line x1="212.31" y1="115.50" x2="211.35" y2="115.50" stroke="#4ba34b" stroke-width="2.00" />
		<polygon fill="#1e8c1e" shape-rendering="crispEdges" points="210.81,110.00 210.81,121.00 211.81,121.00 211.81,110.00 " />
		<line x1="211.28" y1="115.50" x2="210.54" y2="115.50" stroke="#4ba34b" stroke-width="2.00" />
		<polygon fill="#1e8c1e" shape-rendering="crispEdges" points="210.01,110.00 210.01,121.00 211.01,121.00 211.01,110.00 " />
		<line x1="210.47" y1="115.50" x2="210.15" y2="115.50" stroke="#4ba34b" stroke-width="2.00" />
		<polygon fill="#1e8c1e" shape-rendering="crispEdges" points="209.58,110.00 209.58,121.00 210.58,121.00 210.58,110.00 " />
		<line x1="210.01" y1="115.50" x2="190.40" y2="115.50" stroke="#4ba34b" stroke-width="2.00" />
		<polygon fill="#b2b2b2" shape-rendering="crispEdges" points="204.60,115.50 195.80,111.10 198.00,115.50 195.80,119.90 " />
		<polygon fill="#1e8c1e" shape-rendering="crispEdges" points="189.83,110.00 189.83,121.00 190.83,121.00 190.83,110.00 " />
		<line x1="190.27" y1="115.50" x2="190.01" y2="115.50" stroke="#4ba34b" stroke-width="2.00" />
		<polygon fill="#1e8c1e" shape-rendering="crispEdges" points="189.43,110.00 189.43,121.00 190.43,121.00 190.43,110.00 " />
		<line x1="189.85" y1="115.50" x2="189.40" y2="115.50" stroke="#4ba34b" stroke-width="2.00" />
		<polygon fill="#1e8c1e" shape-rendering="crispEdges" points="188.86,110.00 188.86,121.00 189.86,121.00 189.86,110.00 " />
		<line x1="189.33" y1="115.50" x2="187.94" y2="115.50" stroke="#4ba34b" stroke-width="2.00" />
		<polygon fill="#1e8c1e" shape-rendering="crispEdges" points="187.40,110.00 187.40,121.00 188.40,121.00 188.40,110.00 " />
		<line x1="187.86" y1="115.50" x2="176.13" y2="115.50" stroke="#4ba34b" stroke-width="2.00" />
		<polygon fill="#1e8c1e" shape-rendering="crispEdges" points="175.59,110.00 175.59,121.00 176.59,121.00 176.59,110.00 " />
		<line x1="176.05" y1="115.50" x2="169.39" y2="115.50" stroke="#4ba34b" stroke-width="2.00" />
		<polygon fill="#1e8c1e" shape-rendering="crispEdges" points="168.86,110.00 168.86,121.00 169.86,121.00 169.86,110.00 " />
		<line x1="169.33" y1="115.50" x2="168.68" y2="115.50" stroke="#4ba34b" stroke-width="2.00" />
		<polygon fill="#1e8c1e" shape-rendering="crispEdges" points="168.16,110.00 168.16,121.00 169.16,121.00 169.16,110.00 " />
		<line x1="168.63" y1="115.50" x2="156.03" y2="115.50" stroke="#4ba34b" stroke-width="2.00" />
		<polygon fill="#1e8c1e" shape-rendering="crispEdges" points="155.46,110.00 155.46,121.00 156.46,121.00 156.46,110.00 " />
		<line x1="155.89" y1="115.50" x2="150.76" y2="115.50" stroke="#4ba34b" stroke-width="2.00" />
		<polygon fill="#1e8c1e" shape-rendering="crispEdges" points="150.21,110.00 150.21,121.00 151.21,121.00 151.21,110.00 " />
		<line x1="150.67" y1="115.50" x2="143.18" y2="115.50" stroke="#4ba34b" stroke-width="2.00" />
		<polygon fill="#1e8c1e" shape-rendering="crispEdges" points="142.63,110.00 142.63,121.00 143.63,121.00 143.63,110.00 " />
		<line x1="143.09" y1="115.50" x2="142.17" y2="115.50" stroke="#4ba34b" stroke-width="2.00" />
		<polygon fill="#1e8c1e" shape-rendering="crispEdges" points="141.65,110.00 141.65,121.00 142.64,121.00 142.64,110.00 " />
		<line x1="142.12" y1="115.50" x2="119.24" y2="115.50" stroke="#4ba34b" stroke-width="2.00" />
		<polygon fill="#b2b2b2" shape-rendering="crispEdges" points="135.08,115.50 126.28,111.10 128.48,115.50 126.28,119.90 " />
		<polygon fill="#1e8c1e" shape-rendering="crispEdges" points="118.72,110.00 118.72,121.00 119.72,121.00 119.72,110.00 " />
		<line x1="119.21" y1="115.50" x2="92.30" y2="115.50" stroke="#4ba34b" stroke-width="2.00" />
		<polygon fill="#b2b2b2" shape-rendering="crispEdges" points="110.15,115.50 101.35,111.10 103.55,115.50 101.35,119.90 " />
		<polygon fill="#1e8c1e" shape-rendering="crispEdges" points="91.70,110.00 91.70,121.00 92.70,121.00 92.70,110.00 " />
		<polygon fill="#a5d1a5" shape-rendering="crispEdges" points="91.59,110.00 91.59,121.00 92.59,121.00 92.59,110.00 " />
		<polygon fill="#ffffff" shape-rendering="crispEdges" points="216.88,121.00 216.88,110.00 335.21,110.00 335.21,121.00 " />
		<text x="220.88" y="119.00" font-family="Helvetica" font-size="10" fill="#124d94" >ENSSPUP00000008095.1</text>
		<polygon fill="#ffffff" shape-rendering="crispEdges" points="-0.00,121.00 -0.00,110.00 114.77,110.00 114.77,121.00 " />
		<text x="1.00" y="119.00" font-family="Helvetica" font-size="10" fill="#124d94" >ENSSPUT00000008632.1</text>
		<line x1="174.80" y1="160.00" x2="174.80" y2="187.00" stroke="#009900" stroke-opacity="0.10" stroke-width="1.00" stroke-linejoin="round" />
		<line x1="174.80" y1="187.00" x2="129.00" y2="187.00" stroke="#009900" stroke-opacity="0.10" stroke-width="1.00" stroke-linejoin="round" />
		<line x1="129.00" y1="187.00" x2="129.00" y2="160.00" stroke="#009900" stroke-opacity="0.10" stroke-width="1.00" stroke-linejoin="round" />
		<line x1="174.80" y1="160.00" x2="129.00" y2="160.00" stroke="#009900" stroke-opacity="0.10" stroke-width="1.00" stroke-linejoin="round" />
		<text x="128.06" y="169.00" font-family="Helvetica" font-size="10" fill="#124d94" >ENSSPU...</text>
		<line x1="172.80" y1="175.00" x2="172.80" y2="185.00" stroke="#6321ff" stroke-width="1.00" />
		<polygon fill="#ffffff" shape-rendering="crispEdges" points="131.00,186.00 131.00,174.00 167.75,174.00 167.75,186.00 " />
		<text x="131.00" y="183.50" font-family="Helvetica" font-size="10" fill="#124d94" >snoRNA</text>
		<line x1="170.87" y1="128.00" x2="170.87" y2="155.00" stroke="#009900" stroke-opacity="0.10" stroke-width="1.00" stroke-linejoin="round" />
		<line x1="170.87" y1="155.00" x2="125.07" y2="155.00" stroke="#009900" stroke-opacity="0.10" stroke-width="1.00" stroke-linejoin="round" />
		<line x1="125.07" y1="155.00" x2="125.07" y2="128.00" stroke="#009900" stroke-opacity="0.10" stroke-width="1.00" stroke-linejoin="round" />
		<line x1="170.87" y1="128.00" x2="125.07" y2="128.00" stroke="#009900" stroke-opacity="0.10" stroke-width="1.00" stroke-linejoin="round" />
		<text x="124.12" y="137.00" font-family="Helvetica" font-size="10" fill="#124d94" >ENSSPU...</text>
		<line x1="168.87" y1="143.00" x2="168.87" y2="153.00" stroke="#6321ff" stroke-width="1.00" />
		<polygon fill="#ffffff" shape-rendering="crispEdges" points="127.07,154.00 127.07,142.00 163.82,142.00 163.82,154.00 " />
		<text x="127.07" y="151.50" font-family="Helvetica" font-size="10" fill="#124d94" >snoRNA</text>
		<polygon fill="url('#gradient3')" shape-rendering="crispEdges" points="0.00,90.00 879.00,90.00 879.00,76.00 0.00,76.00 " clip-path="url('#clipping-rect2')" />
		<text x="0.00" y="86.00" font-family="Helvetica" font-size="12" fill="#333333" >Genes, Ensembl release 114</text>
		<polygon fill="#0000ff" fill-opacity="0.20" shape-rendering="crispEdges" points="486.50,31.50 486.50,23.10 486.50,23.10 " />
		<polygon fill="#0000ff" fill-opacity="0.20" shape-rendering="crispEdges" points="486.50,31.50 486.50,31.50 486.50,23.10 " />
		<line x1="486.50" y1="30.50" x2="486.50" y2="23.10" stroke="#0000ff" stroke-opacity="0.40" stroke-width="1.00" />
		<line x1="486.50" y1="30.50" x2="486.50" y2="23.10" stroke="#0000ff" stroke-opacity="0.40" stroke-width="1.00" />
		<polygon fill="#0000ff" shape-rendering="crispEdges" points="480.79,22.35 480.50,20.50 480.79,18.65 481.65,16.97 482.97,15.65 484.65,14.79 486.50,14.50 486.50,26.50 484.65,26.21 482.97,25.35 481.65,24.03 " />
		<polygon fill="#0000ff" fill-opacity="0.60" shape-rendering="crispEdges" points="518.19,26.50 518.19,14.50 486.50,14.50 486.50,26.50 " />
		<text x="488.50" y="23.50" font-family="Helvetica" font-size="10" fill="#ffffff" >SDC3</text>
		<polygon fill="#0000ff" fill-opacity="0.20" shape-rendering="crispEdges" points="486.55,192.01 486.55,31.00 486.55,31.00 " />
		<polygon fill="#0000ff" fill-opacity="0.20" shape-rendering="crispEdges" points="486.55,192.01 486.55,192.01 486.55,31.00 " />
		<line x1="486.55" y1="191.00" x2="486.55" y2="31.00" stroke="#0000ff" stroke-opacity="0.40" stroke-width="1.00" />
		<line x1="486.55" y1="191.00" x2="486.55" y2="31.00" stroke="#0000ff" stroke-opacity="0.40" stroke-width="1.00" />
		<polygon fill="#0000ff" fill-opacity="0.20" shape-rendering="crispEdges" points="176.50,31.50 176.50,23.10 176.50,23.10 " />
		<polygon fill="#0000ff" fill-opacity="0.20" shape-rendering="crispEdges" points="176.50,31.50 176.50,31.50 176.50,23.10 " />
		<line x1="176.50" y1="30.50" x2="176.50" y2="23.10" stroke="#0000ff" stroke-opacity="0.40" stroke-width="1.00" />
		<line x1="176.50" y1="30.50" x2="176.50" y2="23.10" stroke="#0000ff" stroke-opacity="0.40" stroke-width="1.00" />
		<polygon fill="#0000ff" shape-rendering="crispEdges" points="170.79,22.35 170.50,20.50 170.79,18.65 171.65,16.97 172.97,15.65 174.65,14.79 176.50,14.50 176.50,26.50 174.65,26.21 172.97,25.35 171.65,24.03 " />
		<polygon fill="#0000ff" fill-opacity="0.60" shape-rendering="crispEdges" points="207.28,26.50 207.28,14.50 176.50,14.50 176.50,26.50 " />
		<text x="178.50" y="23.50" font-family="Helvetica" font-size="10" fill="#ffffff" >PUM1</text>
		<polygon fill="#0000ff" fill-opacity="0.20" shape-rendering="crispEdges" points="176.20,192.01 176.20,31.00 176.20,31.00 " />
		<polygon fill="#0000ff" fill-opacity="0.20" shape-rendering="crispEdges" points="176.20,192.01 176.20,192.01 176.20,31.00 " />
		<line x1="176.20" y1="191.00" x2="176.20" y2="31.00" stroke="#0000ff" stroke-opacity="0.40" stroke-width="1.00" />
		<line x1="176.20" y1="191.00" x2="176.20" y2="31.00" stroke="#0000ff" stroke-opacity="0.40" stroke-width="1.00" />
		<polygon fill="#e5e5e5" shape-rendering="crispEdges" points="879.00,13.00 879.00,-1.00 0.00,-1.00 0.00,13.00 " />
		<text x="0.00" y="10.00" font-family="Helvetica Bold" font-size="12" text-anchor="start" fill="#000000" >QEPC01012515.1:0..1668146 Sphenodon punctatus isolate mauimua-1 ScrUdWx_1842, whole genome shotgun sequence</text>
	</g>
</svg>
