<?xml version="1.0" standalone="no" ?>
<!DOCTYPE svg PUBLIC "-//W3C//DTD SVG 1.1//EN" "http://www.w3.org/Graphics/SVG/1.1/DTD/svg11.dtd">
<svg width="879px" height="208px" xmlns="http://www.w3.org/2000/svg" version="1.1" viewBox="0 0 879 208" >
	<style type="text/css" > <![CDATA[
		@import url("https://www.ncbi.nlm.nih.gov/projects/sviewer/css/svg_fonts.css");
	]]>
	</style>
	<desc >Generated by NCBI Genome Workbench http://www.ncbi.nlm.nih.gov/tools/gbench/</desc>
	<defs >
		<clipPath id="clipping-rect1" >
			<rect x="0" y="14" width="879" height="18" />
		</clipPath>
		<linearGradient id="gradient1" gradientTransform="rotate(90)" >
			<stop offset="0%" stop-color="#6c6c6c" />
			<stop offset="50%" stop-color="#b5b5b5" />
			<stop offset="100%" stop-color="#6c6c6c" />
		</linearGradient>
		<clipPath id="clipping-rect2" >
			<rect x="0" y="32" width="879" height="176" />
		</clipPath>
		<linearGradient id="gradient2" gradientTransform="rotate(90)" >
			<stop offset="0%" stop-color="#b6dead" />
			<stop offset="100%" stop-color="#ffffff" stop-opacity="0.00" />
		</linearGradient>
		<linearGradient id="gradient3" gradientTransform="rotate(90)" >
			<stop offset="0%" stop-color="#e6e6e6" stop-opacity="0.71" />
			<stop offset="100%" stop-color="#ffffff" stop-opacity="0.00" />
		</linearGradient>
	</defs>
	<g >
		<polygon fill="#ffffff" shape-rendering="crispEdges" points="879.00,31.00 879.00,13.00 0.00,13.00 0.00,31.00 " />
		<line x1="0.00" y1="28.88" x2="879.00" y2="28.88" stroke="#7f7f7f" stroke-width="1.00" clip-path="url('#clipping-rect1')" />
		<line x1="6.64" y1="28.88" x2="6.64" y2="25.71" stroke="#7f7f7f" stroke-width="1.00" clip-path="url('#clipping-rect1')" />
		<line x1="13.95" y1="28.88" x2="13.95" y2="26.76" stroke="#7f7f7f" stroke-width="1.00" clip-path="url('#clipping-rect1')" />
		<line x1="21.26" y1="28.88" x2="21.26" y2="25.71" stroke="#7f7f7f" stroke-width="1.00" clip-path="url('#clipping-rect1')" />
		<line x1="28.57" y1="28.88" x2="28.57" y2="26.76" stroke="#7f7f7f" stroke-width="1.00" clip-path="url('#clipping-rect1')" />
		<line x1="35.88" y1="28.88" x2="35.88" y2="25.71" stroke="#7f7f7f" stroke-width="1.00" clip-path="url('#clipping-rect1')" />
		<line x1="43.19" y1="28.88" x2="43.19" y2="26.76" stroke="#7f7f7f" stroke-width="1.00" clip-path="url('#clipping-rect1')" />
		<line x1="50.50" y1="28.88" x2="50.50" y2="25.71" stroke="#7f7f7f" stroke-width="1.00" clip-path="url('#clipping-rect1')" />
		<line x1="57.81" y1="28.88" x2="57.81" y2="26.76" stroke="#7f7f7f" stroke-width="1.00" clip-path="url('#clipping-rect1')" />
		<line x1="65.11" y1="28.88" x2="65.11" y2="25.71" stroke="#7f7f7f" stroke-width="1.00" clip-path="url('#clipping-rect1')" />
		<line x1="72.42" y1="28.88" x2="72.42" y2="26.76" stroke="#7f7f7f" stroke-width="1.00" clip-path="url('#clipping-rect1')" />
		<line x1="79.73" y1="28.88" x2="79.73" y2="25.71" stroke="#7f7f7f" stroke-width="1.00" clip-path="url('#clipping-rect1')" />
		<line x1="87.04" y1="28.88" x2="87.04" y2="26.76" stroke="#7f7f7f" stroke-width="1.00" clip-path="url('#clipping-rect1')" />
		<line x1="94.35" y1="28.88" x2="94.35" y2="25.71" stroke="#7f7f7f" stroke-width="1.00" clip-path="url('#clipping-rect1')" />
		<line x1="101.66" y1="28.88" x2="101.66" y2="26.76" stroke="#7f7f7f" stroke-width="1.00" clip-path="url('#clipping-rect1')" />
		<line x1="108.97" y1="28.88" x2="108.97" y2="25.71" stroke="#7f7f7f" stroke-width="1.00" clip-path="url('#clipping-rect1')" />
		<line x1="116.27" y1="28.88" x2="116.27" y2="26.76" stroke="#7f7f7f" stroke-width="1.00" clip-path="url('#clipping-rect1')" />
		<line x1="123.58" y1="28.88" x2="123.58" y2="25.71" stroke="#7f7f7f" stroke-width="1.00" clip-path="url('#clipping-rect1')" />
		<line x1="130.89" y1="28.88" x2="130.89" y2="26.76" stroke="#7f7f7f" stroke-width="1.00" clip-path="url('#clipping-rect1')" />
		<line x1="138.20" y1="28.88" x2="138.20" y2="25.71" stroke="#7f7f7f" stroke-width="1.00" clip-path="url('#clipping-rect1')" />
		<line x1="145.51" y1="28.88" x2="145.51" y2="26.76" stroke="#7f7f7f" stroke-width="1.00" clip-path="url('#clipping-rect1')" />
		<line x1="152.82" y1="28.88" x2="152.82" y2="25.71" stroke="#7f7f7f" stroke-width="1.00" clip-path="url('#clipping-rect1')" />
		<line x1="160.13" y1="28.88" x2="160.13" y2="26.76" stroke="#7f7f7f" stroke-width="1.00" clip-path="url('#clipping-rect1')" />
		<line x1="167.44" y1="28.88" x2="167.44" y2="25.71" stroke="#7f7f7f" stroke-width="1.00" clip-path="url('#clipping-rect1')" />
		<line x1="174.74" y1="28.88" x2="174.74" y2="26.76" stroke="#7f7f7f" stroke-width="1.00" clip-path="url('#clipping-rect1')" />
		<line x1="182.05" y1="28.88" x2="182.05" y2="25.71" stroke="#7f7f7f" stroke-width="1.00" clip-path="url('#clipping-rect1')" />
		<line x1="189.36" y1="28.88" x2="189.36" y2="26.76" stroke="#7f7f7f" stroke-width="1.00" clip-path="url('#clipping-rect1')" />
		<line x1="196.67" y1="28.88" x2="196.67" y2="25.71" stroke="#7f7f7f" stroke-width="1.00" clip-path="url('#clipping-rect1')" />
		<line x1="203.98" y1="28.88" x2="203.98" y2="26.76" stroke="#7f7f7f" stroke-width="1.00" clip-path="url('#clipping-rect1')" />
		<line x1="211.29" y1="28.88" x2="211.29" y2="25.71" stroke="#7f7f7f" stroke-width="1.00" clip-path="url('#clipping-rect1')" />
		<line x1="218.60" y1="28.88" x2="218.60" y2="26.76" stroke="#7f7f7f" stroke-width="1.00" clip-path="url('#clipping-rect1')" />
		<line x1="225.91" y1="28.88" x2="225.91" y2="25.71" stroke="#7f7f7f" stroke-width="1.00" clip-path="url('#clipping-rect1')" />
		<line x1="233.21" y1="28.88" x2="233.21" y2="26.76" stroke="#7f7f7f" stroke-width="1.00" clip-path="url('#clipping-rect1')" />
		<line x1="240.52" y1="28.88" x2="240.52" y2="25.71" stroke="#7f7f7f" stroke-width="1.00" clip-path="url('#clipping-rect1')" />
		<line x1="247.83" y1="28.88" x2="247.83" y2="26.76" stroke="#7f7f7f" stroke-width="1.00" clip-path="url('#clipping-rect1')" />
		<line x1="255.14" y1="28.88" x2="255.14" y2="25.71" stroke="#7f7f7f" stroke-width="1.00" clip-path="url('#clipping-rect1')" />
		<line x1="262.45" y1="28.88" x2="262.45" y2="26.76" stroke="#7f7f7f" stroke-width="1.00" clip-path="url('#clipping-rect1')" />
		<line x1="269.76" y1="28.88" x2="269.76" y2="25.71" stroke="#7f7f7f" stroke-width="1.00" clip-path="url('#clipping-rect1')" />
		<line x1="277.07" y1="28.88" x2="277.07" y2="26.76" stroke="#7f7f7f" stroke-width="1.00" clip-path="url('#clipping-rect1')" />
		<line x1="284.37" y1="28.88" x2="284.37" y2="25.71" stroke="#7f7f7f" stroke-width="1.00" clip-path="url('#clipping-rect1')" />
		<line x1="291.68" y1="28.88" x2="291.68" y2="26.76" stroke="#7f7f7f" stroke-width="1.00" clip-path="url('#clipping-rect1')" />
		<line x1="298.99" y1="28.88" x2="298.99" y2="25.71" stroke="#7f7f7f" stroke-width="1.00" clip-path="url('#clipping-rect1')" />
		<line x1="306.30" y1="28.88" x2="306.30" y2="26.76" stroke="#7f7f7f" stroke-width="1.00" clip-path="url('#clipping-rect1')" />
		<line x1="313.61" y1="28.88" x2="313.61" y2="25.71" stroke="#7f7f7f" stroke-width="1.00" clip-path="url('#clipping-rect1')" />
		<line x1="320.92" y1="28.88" x2="320.92" y2="26.76" stroke="#7f7f7f" stroke-width="1.00" clip-path="url('#clipping-rect1')" />
		<line x1="328.23" y1="28.88" x2="328.23" y2="25.71" stroke="#7f7f7f" stroke-width="1.00" clip-path="url('#clipping-rect1')" />
		<line x1="335.54" y1="28.88" x2="335.54" y2="26.76" stroke="#7f7f7f" stroke-width="1.00" clip-path="url('#clipping-rect1')" />
		<line x1="342.84" y1="28.88" x2="342.84" y2="25.71" stroke="#7f7f7f" stroke-width="1.00" clip-path="url('#clipping-rect1')" />
		<line x1="350.15" y1="28.88" x2="350.15" y2="26.76" stroke="#7f7f7f" stroke-width="1.00" clip-path="url('#clipping-rect1')" />
		<line x1="357.46" y1="28.88" x2="357.46" y2="25.71" stroke="#7f7f7f" stroke-width="1.00" clip-path="url('#clipping-rect1')" />
		<line x1="364.77" y1="28.88" x2="364.77" y2="26.76" stroke="#7f7f7f" stroke-width="1.00" clip-path="url('#clipping-rect1')" />
		<line x1="372.08" y1="28.88" x2="372.08" y2="25.71" stroke="#7f7f7f" stroke-width="1.00" clip-path="url('#clipping-rect1')" />
		<line x1="379.39" y1="28.88" x2="379.39" y2="26.76" stroke="#7f7f7f" stroke-width="1.00" clip-path="url('#clipping-rect1')" />
		<line x1="386.70" y1="28.88" x2="386.70" y2="25.71" stroke="#7f7f7f" stroke-width="1.00" clip-path="url('#clipping-rect1')" />
		<line x1="394.00" y1="28.88" x2="394.00" y2="26.76" stroke="#7f7f7f" stroke-width="1.00" clip-path="url('#clipping-rect1')" />
		<line x1="401.31" y1="28.88" x2="401.31" y2="25.71" stroke="#7f7f7f" stroke-width="1.00" clip-path="url('#clipping-rect1')" />
		<line x1="408.62" y1="28.88" x2="408.62" y2="26.76" stroke="#7f7f7f" stroke-width="1.00" clip-path="url('#clipping-rect1')" />
		<line x1="415.93" y1="28.88" x2="415.93" y2="25.71" stroke="#7f7f7f" stroke-width="1.00" clip-path="url('#clipping-rect1')" />
		<line x1="423.24" y1="28.88" x2="423.24" y2="26.76" stroke="#7f7f7f" stroke-width="1.00" clip-path="url('#clipping-rect1')" />
		<line x1="430.55" y1="28.88" x2="430.55" y2="25.71" stroke="#7f7f7f" stroke-width="1.00" clip-path="url('#clipping-rect1')" />
		<line x1="437.86" y1="28.88" x2="437.86" y2="26.76" stroke="#7f7f7f" stroke-width="1.00" clip-path="url('#clipping-rect1')" />
		<line x1="445.17" y1="28.88" x2="445.17" y2="25.71" stroke="#7f7f7f" stroke-width="1.00" clip-path="url('#clipping-rect1')" />
		<line x1="452.47" y1="28.88" x2="452.47" y2="26.76" stroke="#7f7f7f" stroke-width="1.00" clip-path="url('#clipping-rect1')" />
		<line x1="459.78" y1="28.88" x2="459.78" y2="25.71" stroke="#7f7f7f" stroke-width="1.00" clip-path="url('#clipping-rect1')" />
		<line x1="467.09" y1="28.88" x2="467.09" y2="26.76" stroke="#7f7f7f" stroke-width="1.00" clip-path="url('#clipping-rect1')" />
		<line x1="474.40" y1="28.88" x2="474.40" y2="25.71" stroke="#7f7f7f" stroke-width="1.00" clip-path="url('#clipping-rect1')" />
		<line x1="481.71" y1="28.88" x2="481.71" y2="26.76" stroke="#7f7f7f" stroke-width="1.00" clip-path="url('#clipping-rect1')" />
		<line x1="489.02" y1="28.88" x2="489.02" y2="25.71" stroke="#7f7f7f" stroke-width="1.00" clip-path="url('#clipping-rect1')" />
		<line x1="496.33" y1="28.88" x2="496.33" y2="26.76" stroke="#7f7f7f" stroke-width="1.00" clip-path="url('#clipping-rect1')" />
		<line x1="503.64" y1="28.88" x2="503.64" y2="25.71" stroke="#7f7f7f" stroke-width="1.00" clip-path="url('#clipping-rect1')" />
		<line x1="510.94" y1="28.88" x2="510.94" y2="26.76" stroke="#7f7f7f" stroke-width="1.00" clip-path="url('#clipping-rect1')" />
		<line x1="518.25" y1="28.88" x2="518.25" y2="25.71" stroke="#7f7f7f" stroke-width="1.00" clip-path="url('#clipping-rect1')" />
		<line x1="525.56" y1="28.88" x2="525.56" y2="26.76" stroke="#7f7f7f" stroke-width="1.00" clip-path="url('#clipping-rect1')" />
		<line x1="532.87" y1="28.88" x2="532.87" y2="25.71" stroke="#7f7f7f" stroke-width="1.00" clip-path="url('#clipping-rect1')" />
		<line x1="540.18" y1="28.88" x2="540.18" y2="26.76" stroke="#7f7f7f" stroke-width="1.00" clip-path="url('#clipping-rect1')" />
		<line x1="547.49" y1="28.88" x2="547.49" y2="25.71" stroke="#7f7f7f" stroke-width="1.00" clip-path="url('#clipping-rect1')" />
		<line x1="554.80" y1="28.88" x2="554.80" y2="26.76" stroke="#7f7f7f" stroke-width="1.00" clip-path="url('#clipping-rect1')" />
		<line x1="562.10" y1="28.88" x2="562.10" y2="25.71" stroke="#7f7f7f" stroke-width="1.00" clip-path="url('#clipping-rect1')" />
		<line x1="569.41" y1="28.88" x2="569.41" y2="26.76" stroke="#7f7f7f" stroke-width="1.00" clip-path="url('#clipping-rect1')" />
		<line x1="576.72" y1="28.88" x2="576.72" y2="25.71" stroke="#7f7f7f" stroke-width="1.00" clip-path="url('#clipping-rect1')" />
		<line x1="584.03" y1="28.88" x2="584.03" y2="26.76" stroke="#7f7f7f" stroke-width="1.00" clip-path="url('#clipping-rect1')" />
		<line x1="591.34" y1="28.88" x2="591.34" y2="25.71" stroke="#7f7f7f" stroke-width="1.00" clip-path="url('#clipping-rect1')" />
		<line x1="598.65" y1="28.88" x2="598.65" y2="26.76" stroke="#7f7f7f" stroke-width="1.00" clip-path="url('#clipping-rect1')" />
		<line x1="605.96" y1="28.88" x2="605.96" y2="25.71" stroke="#7f7f7f" stroke-width="1.00" clip-path="url('#clipping-rect1')" />
		<line x1="613.27" y1="28.88" x2="613.27" y2="26.76" stroke="#7f7f7f" stroke-width="1.00" clip-path="url('#clipping-rect1')" />
		<line x1="620.57" y1="28.88" x2="620.57" y2="25.71" stroke="#7f7f7f" stroke-width="1.00" clip-path="url('#clipping-rect1')" />
		<line x1="627.88" y1="28.88" x2="627.88" y2="26.76" stroke="#7f7f7f" stroke-width="1.00" clip-path="url('#clipping-rect1')" />
		<line x1="635.19" y1="28.88" x2="635.19" y2="25.71" stroke="#7f7f7f" stroke-width="1.00" clip-path="url('#clipping-rect1')" />
		<line x1="642.50" y1="28.88" x2="642.50" y2="26.76" stroke="#7f7f7f" stroke-width="1.00" clip-path="url('#clipping-rect1')" />
		<line x1="649.81" y1="28.88" x2="649.81" y2="25.71" stroke="#7f7f7f" stroke-width="1.00" clip-path="url('#clipping-rect1')" />
		<line x1="657.12" y1="28.88" x2="657.12" y2="26.76" stroke="#7f7f7f" stroke-width="1.00" clip-path="url('#clipping-rect1')" />
		<line x1="664.43" y1="28.88" x2="664.43" y2="25.71" stroke="#7f7f7f" stroke-width="1.00" clip-path="url('#clipping-rect1')" />
		<line x1="671.74" y1="28.88" x2="671.74" y2="26.76" stroke="#7f7f7f" stroke-width="1.00" clip-path="url('#clipping-rect1')" />
		<line x1="679.04" y1="28.88" x2="679.04" y2="25.71" stroke="#7f7f7f" stroke-width="1.00" clip-path="url('#clipping-rect1')" />
		<line x1="686.35" y1="28.88" x2="686.35" y2="26.76" stroke="#7f7f7f" stroke-width="1.00" clip-path="url('#clipping-rect1')" />
		<line x1="693.66" y1="28.88" x2="693.66" y2="25.71" stroke="#7f7f7f" stroke-width="1.00" clip-path="url('#clipping-rect1')" />
		<line x1="700.97" y1="28.88" x2="700.97" y2="26.76" stroke="#7f7f7f" stroke-width="1.00" clip-path="url('#clipping-rect1')" />
		<line x1="708.28" y1="28.88" x2="708.28" y2="25.71" stroke="#7f7f7f" stroke-width="1.00" clip-path="url('#clipping-rect1')" />
		<line x1="715.59" y1="28.88" x2="715.59" y2="26.76" stroke="#7f7f7f" stroke-width="1.00" clip-path="url('#clipping-rect1')" />
		<line x1="722.90" y1="28.88" x2="722.90" y2="25.71" stroke="#7f7f7f" stroke-width="1.00" clip-path="url('#clipping-rect1')" />
		<line x1="730.20" y1="28.88" x2="730.20" y2="26.76" stroke="#7f7f7f" stroke-width="1.00" clip-path="url('#clipping-rect1')" />
		<line x1="737.51" y1="28.88" x2="737.51" y2="25.71" stroke="#7f7f7f" stroke-width="1.00" clip-path="url('#clipping-rect1')" />
		<line x1="744.82" y1="28.88" x2="744.82" y2="26.76" stroke="#7f7f7f" stroke-width="1.00" clip-path="url('#clipping-rect1')" />
		<line x1="752.13" y1="28.88" x2="752.13" y2="25.71" stroke="#7f7f7f" stroke-width="1.00" clip-path="url('#clipping-rect1')" />
		<line x1="759.44" y1="28.88" x2="759.44" y2="26.76" stroke="#7f7f7f" stroke-width="1.00" clip-path="url('#clipping-rect1')" />
		<line x1="766.75" y1="28.88" x2="766.75" y2="25.71" stroke="#7f7f7f" stroke-width="1.00" clip-path="url('#clipping-rect1')" />
		<line x1="774.06" y1="28.88" x2="774.06" y2="26.76" stroke="#7f7f7f" stroke-width="1.00" clip-path="url('#clipping-rect1')" />
		<line x1="781.37" y1="28.88" x2="781.37" y2="25.71" stroke="#7f7f7f" stroke-width="1.00" clip-path="url('#clipping-rect1')" />
		<line x1="788.67" y1="28.88" x2="788.67" y2="26.76" stroke="#7f7f7f" stroke-width="1.00" clip-path="url('#clipping-rect1')" />
		<line x1="795.98" y1="28.88" x2="795.98" y2="25.71" stroke="#7f7f7f" stroke-width="1.00" clip-path="url('#clipping-rect1')" />
		<line x1="803.29" y1="28.88" x2="803.29" y2="26.76" stroke="#7f7f7f" stroke-width="1.00" clip-path="url('#clipping-rect1')" />
		<line x1="810.60" y1="28.88" x2="810.60" y2="25.71" stroke="#7f7f7f" stroke-width="1.00" clip-path="url('#clipping-rect1')" />
		<line x1="817.91" y1="28.88" x2="817.91" y2="26.76" stroke="#7f7f7f" stroke-width="1.00" clip-path="url('#clipping-rect1')" />
		<line x1="825.22" y1="28.88" x2="825.22" y2="25.71" stroke="#7f7f7f" stroke-width="1.00" clip-path="url('#clipping-rect1')" />
		<line x1="832.53" y1="28.88" x2="832.53" y2="26.76" stroke="#7f7f7f" stroke-width="1.00" clip-path="url('#clipping-rect1')" />
		<line x1="839.83" y1="28.88" x2="839.83" y2="25.71" stroke="#7f7f7f" stroke-width="1.00" clip-path="url('#clipping-rect1')" />
		<line x1="847.14" y1="28.88" x2="847.14" y2="26.76" stroke="#7f7f7f" stroke-width="1.00" clip-path="url('#clipping-rect1')" />
		<line x1="854.45" y1="28.88" x2="854.45" y2="25.71" stroke="#7f7f7f" stroke-width="1.00" clip-path="url('#clipping-rect1')" />
		<line x1="861.76" y1="28.88" x2="861.76" y2="26.76" stroke="#7f7f7f" stroke-width="1.00" clip-path="url('#clipping-rect1')" />
		<line x1="869.07" y1="28.88" x2="869.07" y2="25.71" stroke="#7f7f7f" stroke-width="1.00" clip-path="url('#clipping-rect1')" />
		<line x1="876.38" y1="28.88" x2="876.38" y2="26.76" stroke="#7f7f7f" stroke-width="1.00" clip-path="url('#clipping-rect1')" />
		<line x1="879.00" y1="31.00" x2="879.00" y2="15.12" stroke="#7f7f7f" stroke-width="1.00" clip-path="url('#clipping-rect1')" />
		<line x1="869.07" y1="31.00" x2="869.07" y2="15.12" stroke="#7f7f7f" stroke-width="1.00" clip-path="url('#clipping-rect1')" />
		<text x="797.98" y="23.59" font-family="Helvetica" font-size="10" fill="#333333" clip-path="url('#clipping-rect1')" >1,050 K</text>
		<line x1="795.98" y1="31.00" x2="795.98" y2="15.12" stroke="#7f7f7f" stroke-width="1.00" clip-path="url('#clipping-rect1')" />
		<text x="724.90" y="23.59" font-family="Helvetica" font-size="10" fill="#333333" clip-path="url('#clipping-rect1')" >1 M</text>
		<line x1="722.90" y1="31.00" x2="722.90" y2="15.12" stroke="#7f7f7f" stroke-width="1.00" clip-path="url('#clipping-rect1')" />
		<text x="651.81" y="23.59" font-family="Helvetica" font-size="10" fill="#333333" clip-path="url('#clipping-rect1')" >950 K</text>
		<line x1="649.81" y1="31.00" x2="649.81" y2="15.12" stroke="#7f7f7f" stroke-width="1.00" clip-path="url('#clipping-rect1')" />
		<text x="578.72" y="23.59" font-family="Helvetica" font-size="10" fill="#333333" clip-path="url('#clipping-rect1')" >900 K</text>
		<line x1="576.72" y1="31.00" x2="576.72" y2="15.12" stroke="#7f7f7f" stroke-width="1.00" clip-path="url('#clipping-rect1')" />
		<text x="505.64" y="23.59" font-family="Helvetica" font-size="10" fill="#333333" clip-path="url('#clipping-rect1')" >850 K</text>
		<line x1="503.64" y1="31.00" x2="503.64" y2="15.12" stroke="#7f7f7f" stroke-width="1.00" clip-path="url('#clipping-rect1')" />
		<text x="432.55" y="23.59" font-family="Helvetica" font-size="10" fill="#333333" clip-path="url('#clipping-rect1')" >800 K</text>
		<line x1="430.55" y1="31.00" x2="430.55" y2="15.12" stroke="#7f7f7f" stroke-width="1.00" clip-path="url('#clipping-rect1')" />
		<text x="359.46" y="23.59" font-family="Helvetica" font-size="10" fill="#333333" clip-path="url('#clipping-rect1')" >750 K</text>
		<line x1="357.46" y1="31.00" x2="357.46" y2="15.12" stroke="#7f7f7f" stroke-width="1.00" clip-path="url('#clipping-rect1')" />
		<text x="286.37" y="23.59" font-family="Helvetica" font-size="10" fill="#333333" clip-path="url('#clipping-rect1')" >700 K</text>
		<line x1="284.37" y1="31.00" x2="284.37" y2="15.12" stroke="#7f7f7f" stroke-width="1.00" clip-path="url('#clipping-rect1')" />
		<text x="213.29" y="23.59" font-family="Helvetica" font-size="10" fill="#333333" clip-path="url('#clipping-rect1')" >650 K</text>
		<line x1="211.29" y1="31.00" x2="211.29" y2="15.12" stroke="#7f7f7f" stroke-width="1.00" clip-path="url('#clipping-rect1')" />
		<text x="140.20" y="23.59" font-family="Helvetica" font-size="10" fill="#333333" clip-path="url('#clipping-rect1')" >600 K</text>
		<line x1="138.20" y1="31.00" x2="138.20" y2="15.12" stroke="#7f7f7f" stroke-width="1.00" clip-path="url('#clipping-rect1')" />
		<text x="67.11" y="23.59" font-family="Helvetica" font-size="10" fill="#333333" clip-path="url('#clipping-rect1')" >550 K</text>
		<line x1="65.11" y1="31.00" x2="65.11" y2="15.12" stroke="#7f7f7f" stroke-width="1.00" clip-path="url('#clipping-rect1')" />
		<line x1="65.07" y1="207.00" x2="65.07" y2="31.00" stroke="#ebebeb" stroke-width="1.00" />
		<line x1="138.16" y1="207.00" x2="138.16" y2="31.00" stroke="#ebebeb" stroke-width="1.00" />
		<line x1="211.24" y1="207.00" x2="211.24" y2="31.00" stroke="#ebebeb" stroke-width="1.00" />
		<line x1="284.32" y1="207.00" x2="284.32" y2="31.00" stroke="#ebebeb" stroke-width="1.00" />
		<line x1="357.41" y1="207.00" x2="357.41" y2="31.00" stroke="#ebebeb" stroke-width="1.00" />
		<line x1="430.49" y1="207.00" x2="430.49" y2="31.00" stroke="#ebebeb" stroke-width="1.00" />
		<line x1="503.57" y1="207.00" x2="503.57" y2="31.00" stroke="#ebebeb" stroke-width="1.00" />
		<line x1="576.66" y1="207.00" x2="576.66" y2="31.00" stroke="#ebebeb" stroke-width="1.00" />
		<line x1="649.74" y1="207.00" x2="649.74" y2="31.00" stroke="#ebebeb" stroke-width="1.00" />
		<line x1="722.82" y1="207.00" x2="722.82" y2="31.00" stroke="#ebebeb" stroke-width="1.00" />
		<line x1="795.91" y1="207.00" x2="795.91" y2="31.00" stroke="#ebebeb" stroke-width="1.00" />
		<line x1="869.99" y1="207.00" x2="869.99" y2="31.00" stroke="#ebebeb" stroke-width="1.00" />
		<polygon fill="url('#gradient1')" shape-rendering="crispEdges" points="879.00,37.50 879.00,33.00 0.00,33.00 0.00,37.50 0.00,42.00 879.00,42.00 " />
		<line x1="0.00" y1="42.00" x2="0.00" y2="33.00" stroke="#6c6c6c" stroke-width="1.00" stroke-linejoin="round" />
		<line x1="0.00" y1="33.00" x2="879.00" y2="33.00" stroke="#6c6c6c" stroke-width="1.00" stroke-linejoin="round" />
		<line x1="879.00" y1="33.00" x2="879.00" y2="42.00" stroke="#6c6c6c" stroke-width="1.00" stroke-linejoin="round" />
		<line x1="0.00" y1="42.00" x2="879.00" y2="42.00" stroke="#6c6c6c" stroke-width="1.00" stroke-linejoin="round" />
		<polygon fill="url('#gradient2')" shape-rendering="crispEdges" points="0.00,58.00 879.00,58.00 879.00,44.00 0.00,44.00 " clip-path="url('#clipping-rect2')" />
		<text x="0.00" y="54.00" font-family="Helvetica" font-size="12" fill="#333333" >(U) Alignment for group templates, BLAST Results for: ref|NM_004727.3|</text>
		<polygon fill="url('#gradient2')" shape-rendering="crispEdges" points="0.00,74.00 879.00,74.00 879.00,60.00 0.00,60.00 " clip-path="url('#clipping-rect2')" />
		<text x="0.00" y="70.00" font-family="Helvetica" font-size="12" fill="#333333" >(U) BLAST Results for: ref|NM_004727.3|</text>
		<polygon fill="url('#gradient2')" shape-rendering="crispEdges" points="0.00,90.00 879.00,90.00 879.00,76.00 0.00,76.00 " clip-path="url('#clipping-rect2')" />
		<text x="0.00" y="86.00" font-family="Helvetica" font-size="12" fill="#333333" >(U) Alignment for group templates, BLAST Results for: ref|NM_004727.3|</text>
		<polygon fill="url('#gradient2')" shape-rendering="crispEdges" points="0.00,106.00 879.00,106.00 879.00,92.00 0.00,92.00 " clip-path="url('#clipping-rect2')" />
		<text x="0.00" y="102.00" font-family="Helvetica" font-size="12" fill="#333333" >(U) BLAST Results for: ref|NM_004727.3|</text>
		<polygon fill="url('#gradient2')" shape-rendering="crispEdges" points="0.00,122.00 879.00,122.00 879.00,108.00 0.00,108.00 " clip-path="url('#clipping-rect2')" />
		<text x="0.00" y="118.00" font-family="Helvetica" font-size="12" fill="#333333" >(U) BLAST Results for: ref|NM_004727.3|</text>
		<polygon fill="url('#gradient2')" shape-rendering="crispEdges" points="0.00,138.00 879.00,138.00 879.00,124.00 0.00,124.00 " clip-path="url('#clipping-rect2')" />
		<text x="0.00" y="134.00" font-family="Helvetica" font-size="12" fill="#333333" >(U) Alignment for group templates, BLAST Results for: ref|NM_004727.3|</text>
		<polygon fill="url('#gradient2')" shape-rendering="crispEdges" points="0.00,154.00 879.00,154.00 879.00,140.00 0.00,140.00 " clip-path="url('#clipping-rect2')" />
		<text x="0.00" y="150.00" font-family="Helvetica" font-size="12" fill="#333333" >(U) BLAST Results for: ref|NM_004727.3|</text>
		<line x1="0.00" y1="175.00" x2="0.00" y2="203.00" stroke="#009900" stroke-opacity="0.10" stroke-width="1.00" stroke-linejoin="round" />
		<line x1="0.00" y1="203.00" x2="183.10" y2="203.00" stroke="#009900" stroke-opacity="0.10" stroke-width="1.00" stroke-linejoin="round" />
		<line x1="183.10" y1="203.00" x2="183.10" y2="175.00" stroke="#009900" stroke-opacity="0.10" stroke-width="1.00" stroke-linejoin="round" />
		<line x1="0.00" y1="175.00" x2="183.10" y2="175.00" stroke="#009900" stroke-opacity="0.10" stroke-width="1.00" stroke-linejoin="round" />
		<text x="-56.18" y="184.00" font-family="Helvetica" font-size="10" fill="#124d94" >ENSSPUG00000014100</text>
		<line x1="0.00" y1="195.50" x2="21.71" y2="195.50" stroke="#4ba34b" stroke-width="2.00" />
		<polygon fill="#b2b2b2" shape-rendering="crispEdges" points="15.25,195.50 6.45,191.10 8.65,195.50 6.45,199.90 " />
		<polygon fill="#1e8c1e" shape-rendering="crispEdges" points="22.35,190.00 22.35,201.00 21.35,201.00 21.35,190.00 " />
		<line x1="22.00" y1="195.50" x2="34.35" y2="195.50" stroke="#4ba34b" stroke-width="2.00" />
		<polygon fill="#1e8c1e" shape-rendering="crispEdges" points="35.05,190.00 35.05,201.00 34.05,201.00 34.05,190.00 " />
		<line x1="34.74" y1="195.50" x2="36.04" y2="195.50" stroke="#4ba34b" stroke-width="2.00" />
		<polygon fill="#1e8c1e" shape-rendering="crispEdges" points="36.75,190.00 36.75,201.00 35.75,201.00 35.75,190.00 " />
		<line x1="36.46" y1="195.50" x2="40.00" y2="195.50" stroke="#4ba34b" stroke-width="2.00" />
		<polygon fill="#1e8c1e" shape-rendering="crispEdges" points="40.63,190.00 40.63,201.00 39.63,201.00 39.63,190.00 " />
		<line x1="40.27" y1="195.50" x2="50.42" y2="195.50" stroke="#4ba34b" stroke-width="2.00" />
		<polygon fill="#1e8c1e" shape-rendering="crispEdges" points="51.08,190.00 51.08,201.00 50.08,201.00 50.08,190.00 " />
		<line x1="50.75" y1="195.50" x2="59.28" y2="195.50" stroke="#4ba34b" stroke-width="2.00" />
		<polygon fill="#1e8c1e" shape-rendering="crispEdges" points="60.51,190.00 60.51,201.00 59.28,201.00 59.28,190.00 " />
		<line x1="60.51" y1="195.50" x2="61.52" y2="195.50" stroke="#4ba34b" stroke-width="2.00" />
		<polygon fill="#1e8c1e" shape-rendering="crispEdges" points="62.08,190.00 62.08,201.00 61.08,201.00 61.08,190.00 " />
		<polygon fill="#a5d1a5" shape-rendering="crispEdges" points="62.21,190.00 62.21,201.00 61.21,201.00 61.21,190.00 " />
		<polygon fill="#ffffff" shape-rendering="crispEdges" points="181.10,201.00 181.10,190.00 65.77,190.00 65.77,201.00 " />
		<text x="65.77" y="199.00" font-family="Helvetica" font-size="10" fill="#124d94" >ENSSPUP00000018251.1</text>
		<line x1="261.29" y1="175.00" x2="261.29" y2="203.00" stroke="#009900" stroke-opacity="0.10" stroke-width="1.00" stroke-linejoin="round" />
		<line x1="261.29" y1="203.00" x2="541.82" y2="203.00" stroke="#009900" stroke-opacity="0.10" stroke-width="1.00" stroke-linejoin="round" />
		<line x1="541.82" y1="203.00" x2="541.82" y2="175.00" stroke="#009900" stroke-opacity="0.10" stroke-width="1.00" stroke-linejoin="round" />
		<line x1="261.29" y1="175.00" x2="541.82" y2="175.00" stroke="#009900" stroke-opacity="0.10" stroke-width="1.00" stroke-linejoin="round" />
		<text x="347.21" y="184.00" font-family="Helvetica" font-size="10" fill="#124d94" >ENSSPUG00000014113</text>
		<polygon fill="#a5d1a5" shape-rendering="crispEdges" points="383.79,190.00 383.79,201.00 382.62,201.00 382.62,190.00 " />
		<polygon fill="#1e8c1e" shape-rendering="crispEdges" points="384.50,190.00 384.50,201.00 383.50,201.00 383.50,190.00 " />
		<line x1="384.20" y1="195.50" x2="385.96" y2="195.50" stroke="#4ba34b" stroke-width="2.00" />
		<polygon fill="#1e8c1e" shape-rendering="crispEdges" points="386.55,190.00 386.55,201.00 385.55,201.00 385.55,190.00 " />
		<line x1="386.14" y1="195.50" x2="386.73" y2="195.50" stroke="#4ba34b" stroke-width="2.00" />
		<polygon fill="#1e8c1e" shape-rendering="crispEdges" points="387.44,190.00 387.44,201.00 386.44,201.00 386.44,190.00 " />
		<line x1="387.15" y1="195.50" x2="391.75" y2="195.50" stroke="#4ba34b" stroke-width="2.00" />
		<polygon fill="#1e8c1e" shape-rendering="crispEdges" points="392.32,190.00 392.32,201.00 391.32,201.00 391.32,190.00 " />
		<line x1="391.88" y1="195.50" x2="398.35" y2="195.50" stroke="#4ba34b" stroke-width="2.00" />
		<polygon fill="#1e8c1e" shape-rendering="crispEdges" points="399.06,190.00 399.06,201.00 398.06,201.00 398.06,190.00 " />
		<line x1="398.76" y1="195.50" x2="420.23" y2="195.50" stroke="#4ba34b" stroke-width="2.00" />
		<polygon fill="#b2b2b2" shape-rendering="crispEdges" points="405.10,195.50 413.90,191.10 411.70,195.50 413.90,199.90 " />
		<polygon fill="#1e8c1e" shape-rendering="crispEdges" points="421.08,190.00 421.08,201.00 420.08,201.00 420.08,190.00 " />
		<polygon fill="#a5d1a5" shape-rendering="crispEdges" points="421.49,190.00 421.49,201.00 420.49,201.00 420.49,190.00 " />
		<polygon fill="#ffffff" shape-rendering="crispEdges" points="382.62,201.00 382.62,190.00 264.29,190.00 264.29,201.00 " />
		<text x="264.29" y="199.00" font-family="Helvetica" font-size="10" fill="#124d94" >ENSSPUP00000018267.1</text>
		<polygon fill="#ffffff" shape-rendering="crispEdges" points="539.82,201.00 539.82,190.00 425.05,190.00 425.05,201.00 " />
		<text x="425.05" y="199.00" font-family="Helvetica" font-size="10" fill="#124d94" >ENSSPUT00000019456.1</text>
		<line x1="661.08" y1="175.00" x2="661.08" y2="203.00" stroke="#009900" stroke-opacity="0.10" stroke-width="1.00" stroke-linejoin="round" />
		<line x1="661.08" y1="203.00" x2="879.00" y2="203.00" stroke="#009900" stroke-opacity="0.10" stroke-width="1.00" stroke-linejoin="round" />
		<line x1="879.00" y1="203.00" x2="879.00" y2="175.00" stroke="#009900" stroke-opacity="0.10" stroke-width="1.00" stroke-linejoin="round" />
		<line x1="661.08" y1="175.00" x2="879.00" y2="175.00" stroke="#009900" stroke-opacity="0.10" stroke-width="1.00" stroke-linejoin="round" />
		<text x="747.88" y="184.00" font-family="Helvetica" font-size="10" fill="#124d94" >ENSSPUG00000014118</text>
		<polygon fill="#1e8c1e" shape-rendering="crispEdges" points="782.45,190.00 782.45,201.00 781.45,201.00 781.45,190.00 " />
		<line x1="782.05" y1="195.50" x2="786.61" y2="195.50" stroke="#4ba34b" stroke-width="2.00" />
		<polygon fill="#1e8c1e" shape-rendering="crispEdges" points="787.18,190.00 787.18,201.00 786.18,201.00 786.18,190.00 " />
		<line x1="786.76" y1="195.50" x2="791.44" y2="195.50" stroke="#4ba34b" stroke-width="2.00" />
		<polygon fill="#1e8c1e" shape-rendering="crispEdges" points="792.03,190.00 792.03,201.00 791.03,201.00 791.03,190.00 " />
		<line x1="791.61" y1="195.50" x2="792.76" y2="195.50" stroke="#4ba34b" stroke-width="2.00" />
		<polygon fill="#1e8c1e" shape-rendering="crispEdges" points="793.33,190.00 793.33,201.00 792.33,201.00 792.33,190.00 " />
		<line x1="792.91" y1="195.50" x2="801.14" y2="195.50" stroke="#4ba34b" stroke-width="2.00" />
		<polygon fill="#1e8c1e" shape-rendering="crispEdges" points="801.74,190.00 801.74,201.00 800.74,201.00 800.74,190.00 " />
		<line x1="801.33" y1="195.50" x2="804.54" y2="195.50" stroke="#4ba34b" stroke-width="2.00" />
		<polygon fill="#1e8c1e" shape-rendering="crispEdges" points="805.46,190.00 805.46,201.00 804.46,201.00 804.46,190.00 " />
		<line x1="805.37" y1="195.50" x2="816.98" y2="195.50" stroke="#4ba34b" stroke-width="2.00" />
		<polygon fill="#1e8c1e" shape-rendering="crispEdges" points="817.56,190.00 817.56,201.00 816.56,201.00 816.56,190.00 " />
		<line x1="817.14" y1="195.50" x2="817.50" y2="195.50" stroke="#4ba34b" stroke-width="2.00" />
		<polygon fill="#1e8c1e" shape-rendering="crispEdges" points="818.04,190.00 818.04,201.00 817.04,201.00 817.04,190.00 " />
		<line x1="817.58" y1="195.50" x2="819.29" y2="195.50" stroke="#4ba34b" stroke-width="2.00" />
		<polygon fill="#1e8c1e" shape-rendering="crispEdges" points="819.84,190.00 819.84,201.00 818.84,201.00 818.84,190.00 " />
		<line x1="819.40" y1="195.50" x2="820.77" y2="195.50" stroke="#4ba34b" stroke-width="2.00" />
		<polygon fill="#1e8c1e" shape-rendering="crispEdges" points="821.32,190.00 821.32,201.00 820.32,201.00 820.32,190.00 " />
		<line x1="820.86" y1="195.50" x2="821.90" y2="195.50" stroke="#4ba34b" stroke-width="2.00" />
		<polygon fill="#1e8c1e" shape-rendering="crispEdges" points="822.50,190.00 822.50,201.00 821.50,201.00 821.50,190.00 " />
		<polygon fill="#ffffff" shape-rendering="crispEdges" points="781.85,201.00 781.85,190.00 664.08,190.00 664.08,201.00 " />
		<text x="664.08" y="199.00" font-family="Helvetica" font-size="10" fill="#124d94" >ENSSPUT00000019478.1</text>
		<polygon fill="url('#gradient3')" shape-rendering="crispEdges" points="0.00,170.00 879.00,170.00 879.00,156.00 0.00,156.00 " clip-path="url('#clipping-rect2')" />
		<text x="0.00" y="166.00" font-family="Helvetica" font-size="12" fill="#333333" >Genes, Ensembl release 114</text>
		<polygon fill="#0000ff" fill-opacity="0.20" shape-rendering="crispEdges" points="401.50,31.50 401.50,23.10 401.50,23.10 " />
		<polygon fill="#0000ff" fill-opacity="0.20" shape-rendering="crispEdges" points="401.50,31.50 401.50,31.50 401.50,23.10 " />
		<line x1="401.50" y1="30.50" x2="401.50" y2="23.10" stroke="#0000ff" stroke-opacity="0.40" stroke-width="1.00" />
		<line x1="401.50" y1="30.50" x2="401.50" y2="23.10" stroke="#0000ff" stroke-opacity="0.40" stroke-width="1.00" />
		<polygon fill="#0000ff" shape-rendering="crispEdges" points="395.79,22.35 395.50,20.50 395.79,18.65 396.65,16.97 397.97,15.65 399.65,14.79 401.50,14.50 401.50,26.50 399.65,26.21 397.97,25.35 396.65,24.03 " />
		<polygon fill="#0000ff" fill-opacity="0.60" shape-rendering="crispEdges" points="435.19,26.50 435.19,14.50 401.50,14.50 401.50,26.50 " />
		<text x="403.50" y="23.50" font-family="Helvetica" font-size="10" fill="#ffffff" >TNIP2</text>
		<polygon fill="#0000ff" fill-opacity="0.20" shape-rendering="crispEdges" points="401.46,208.01 401.46,31.00 401.46,31.00 " />
		<polygon fill="#0000ff" fill-opacity="0.20" shape-rendering="crispEdges" points="401.46,208.01 401.46,208.01 401.46,31.00 " />
		<line x1="401.46" y1="207.00" x2="401.46" y2="31.00" stroke="#0000ff" stroke-opacity="0.40" stroke-width="1.00" />
		<line x1="401.46" y1="207.00" x2="401.46" y2="31.00" stroke="#0000ff" stroke-opacity="0.40" stroke-width="1.00" />
		<polygon fill="#0000ff" fill-opacity="0.20" shape-rendering="crispEdges" points="10.50,31.50 10.50,23.10 10.50,23.10 " />
		<polygon fill="#0000ff" fill-opacity="0.20" shape-rendering="crispEdges" points="10.50,31.50 10.50,31.50 10.50,23.10 " />
		<line x1="10.50" y1="30.50" x2="10.50" y2="23.10" stroke="#0000ff" stroke-opacity="0.40" stroke-width="1.00" />
		<line x1="10.50" y1="30.50" x2="10.50" y2="23.10" stroke="#0000ff" stroke-opacity="0.40" stroke-width="1.00" />
		<polygon fill="#0000ff" shape-rendering="crispEdges" points="4.79,22.35 4.50,20.50 4.79,18.65 5.65,16.97 6.97,15.65 8.65,14.79 10.50,14.50 10.50,26.50 8.65,26.21 6.97,25.35 5.65,24.03 " />
		<polygon fill="#0000ff" fill-opacity="0.60" shape-rendering="crispEdges" points="59.92,26.50 59.92,14.50 10.50,14.50 10.50,26.50 " />
		<text x="12.50" y="23.50" font-family="Helvetica" font-size="10" fill="#ffffff" >FAM193A</text>
		<polygon fill="#0000ff" fill-opacity="0.20" shape-rendering="crispEdges" points="10.01,208.01 10.01,31.00 10.01,31.00 " />
		<polygon fill="#0000ff" fill-opacity="0.20" shape-rendering="crispEdges" points="10.01,208.01 10.01,208.01 10.01,31.00 " />
		<line x1="10.01" y1="207.00" x2="10.01" y2="31.00" stroke="#0000ff" stroke-opacity="0.40" stroke-width="1.00" />
		<line x1="10.01" y1="207.00" x2="10.01" y2="31.00" stroke="#0000ff" stroke-opacity="0.40" stroke-width="1.00" />
		<polygon fill="#0000ff" fill-opacity="0.20" shape-rendering="crispEdges" points="807.50,31.50 807.50,23.10 807.50,23.10 " />
		<polygon fill="#0000ff" fill-opacity="0.20" shape-rendering="crispEdges" points="807.50,31.50 807.50,31.50 807.50,23.10 " />
		<line x1="807.50" y1="30.50" x2="807.50" y2="23.10" stroke="#0000ff" stroke-opacity="0.40" stroke-width="1.00" />
		<line x1="807.50" y1="30.50" x2="807.50" y2="23.10" stroke="#0000ff" stroke-opacity="0.40" stroke-width="1.00" />
		<polygon fill="#0000ff" shape-rendering="crispEdges" points="801.79,22.35 801.50,20.50 801.79,18.65 802.65,16.97 803.97,15.65 805.65,14.79 807.50,14.50 807.50,26.50 805.65,26.21 803.97,25.35 802.65,24.03 " />
		<polygon fill="#0000ff" fill-opacity="0.60" shape-rendering="crispEdges" points="850.92,26.50 850.92,14.50 807.50,14.50 807.50,26.50 " />
		<text x="809.50" y="23.50" font-family="Helvetica" font-size="10" fill="#ffffff" >SH3BP2</text>
		<polygon fill="#0000ff" fill-opacity="0.20" shape-rendering="crispEdges" points="807.92,208.01 807.92,31.00 807.92,31.00 " />
		<polygon fill="#0000ff" fill-opacity="0.20" shape-rendering="crispEdges" points="807.92,208.01 807.92,208.01 807.92,31.00 " />
		<line x1="807.92" y1="207.00" x2="807.92" y2="31.00" stroke="#0000ff" stroke-opacity="0.40" stroke-width="1.00" />
		<line x1="807.92" y1="207.00" x2="807.92" y2="31.00" stroke="#0000ff" stroke-opacity="0.40" stroke-width="1.00" />
		<polygon fill="#0000ff" fill-opacity="0.20" shape-rendering="crispEdges" points="-458.50,31.50 -458.50,23.10 -458.50,23.10 " />
		<polygon fill="#0000ff" fill-opacity="0.20" shape-rendering="crispEdges" points="-458.50,31.50 -458.50,31.50 -458.50,23.10 " />
		<line x1="-458.50" y1="30.50" x2="-458.50" y2="23.10" stroke="#0000ff" stroke-opacity="0.40" stroke-width="1.00" />
		<line x1="-458.50" y1="30.50" x2="-458.50" y2="23.10" stroke="#0000ff" stroke-opacity="0.40" stroke-width="1.00" />
		<polygon fill="#0000ff" shape-rendering="crispEdges" points="-464.21,22.35 -464.50,20.50 -464.21,18.65 -463.35,16.97 -462.03,15.65 -460.35,14.79 -458.50,14.50 -458.50,26.50 -460.35,26.21 -462.03,25.35 -463.35,24.03 " />
		<polygon fill="#0000ff" fill-opacity="0.60" shape-rendering="crispEdges" points="-420.16,26.50 -420.16,14.50 -458.50,14.50 -458.50,26.50 " />
		<text x="-456.50" y="23.50" font-family="Helvetica" font-size="10" fill="#ffffff" >TECRL</text>
		<polygon fill="#0000ff" fill-opacity="0.20" shape-rendering="crispEdges" points="-459.52,208.01 -459.52,31.00 -459.52,31.00 " />
		<polygon fill="#0000ff" fill-opacity="0.20" shape-rendering="crispEdges" points="-459.52,208.01 -459.52,208.01 -459.52,31.00 " />
		<line x1="-459.52" y1="207.00" x2="-459.52" y2="31.00" stroke="#0000ff" stroke-opacity="0.40" stroke-width="1.00" />
		<line x1="-459.52" y1="207.00" x2="-459.52" y2="31.00" stroke="#0000ff" stroke-opacity="0.40" stroke-width="1.00" />
		<polygon fill="#e5e5e5" shape-rendering="crispEdges" points="879.00,13.00 879.00,-1.00 0.00,-1.00 0.00,13.00 " />
		<text x="0.00" y="10.00" font-family="Helvetica Bold" font-size="12" text-anchor="start" fill="#000000" >QEPC01006964.1:505454..1106793 Sphenodon punctatus isolate mauimua-1 ScrUdWx_1201, whole genome shotgun sequence</text>
	</g>
</svg>
