<?xml version="1.0" standalone="no" ?>
<!DOCTYPE svg PUBLIC "-//W3C//DTD SVG 1.1//EN" "http://www.w3.org/Graphics/SVG/1.1/DTD/svg11.dtd">
<svg width="879px" height="228px" xmlns="http://www.w3.org/2000/svg" version="1.1" viewBox="0 0 879 228" >
	<style type="text/css" > <![CDATA[
		@import url("https://www.ncbi.nlm.nih.gov/projects/sviewer/css/svg_fonts.css");
	]]>
	</style>
	<desc >Generated by NCBI Genome Workbench http://www.ncbi.nlm.nih.gov/tools/gbench/</desc>
	<defs >
		<clipPath id="clipping-rect1" >
			<rect x="0" y="14" width="879" height="18" />
		</clipPath>
		<linearGradient id="gradient1" gradientTransform="rotate(90)" >
			<stop offset="0%" stop-color="#6c6c6c" />
			<stop offset="50%" stop-color="#b5b5b5" />
			<stop offset="100%" stop-color="#6c6c6c" />
		</linearGradient>
		<clipPath id="clipping-rect2" >
			<rect x="0" y="32" width="879" height="196" />
		</clipPath>
		<linearGradient id="gradient2" gradientTransform="rotate(90)" >
			<stop offset="0%" stop-color="#e6e6e6" stop-opacity="0.71" />
			<stop offset="100%" stop-color="#ffffff" stop-opacity="0.00" />
		</linearGradient>
	</defs>
	<g >
		<polygon fill="#ffffff" shape-rendering="crispEdges" points="879.00,31.00 879.00,13.00 0.00,13.00 0.00,31.00 " />
		<line x1="0.00" y1="29.00" x2="879.00" y2="29.00" stroke="#7f7f7f" stroke-width="1.00" clip-path="url('#clipping-rect1')" />
		<line x1="879.00" y1="29.00" x2="879.00" y2="26.00" stroke="#7f7f7f" stroke-width="1.00" clip-path="url('#clipping-rect1')" />
		<line x1="869.18" y1="29.00" x2="869.18" y2="27.00" stroke="#7f7f7f" stroke-width="1.00" clip-path="url('#clipping-rect1')" />
		<line x1="859.36" y1="29.00" x2="859.36" y2="26.00" stroke="#7f7f7f" stroke-width="1.00" clip-path="url('#clipping-rect1')" />
		<line x1="849.54" y1="29.00" x2="849.54" y2="27.00" stroke="#7f7f7f" stroke-width="1.00" clip-path="url('#clipping-rect1')" />
		<line x1="839.72" y1="29.00" x2="839.72" y2="26.00" stroke="#7f7f7f" stroke-width="1.00" clip-path="url('#clipping-rect1')" />
		<line x1="829.90" y1="29.00" x2="829.90" y2="27.00" stroke="#7f7f7f" stroke-width="1.00" clip-path="url('#clipping-rect1')" />
		<line x1="820.08" y1="29.00" x2="820.08" y2="26.00" stroke="#7f7f7f" stroke-width="1.00" clip-path="url('#clipping-rect1')" />
		<line x1="810.26" y1="29.00" x2="810.26" y2="27.00" stroke="#7f7f7f" stroke-width="1.00" clip-path="url('#clipping-rect1')" />
		<line x1="800.44" y1="29.00" x2="800.44" y2="26.00" stroke="#7f7f7f" stroke-width="1.00" clip-path="url('#clipping-rect1')" />
		<line x1="790.62" y1="29.00" x2="790.62" y2="27.00" stroke="#7f7f7f" stroke-width="1.00" clip-path="url('#clipping-rect1')" />
		<line x1="780.80" y1="29.00" x2="780.80" y2="26.00" stroke="#7f7f7f" stroke-width="1.00" clip-path="url('#clipping-rect1')" />
		<line x1="770.98" y1="29.00" x2="770.98" y2="27.00" stroke="#7f7f7f" stroke-width="1.00" clip-path="url('#clipping-rect1')" />
		<line x1="761.16" y1="29.00" x2="761.16" y2="26.00" stroke="#7f7f7f" stroke-width="1.00" clip-path="url('#clipping-rect1')" />
		<line x1="751.34" y1="29.00" x2="751.34" y2="27.00" stroke="#7f7f7f" stroke-width="1.00" clip-path="url('#clipping-rect1')" />
		<line x1="741.52" y1="29.00" x2="741.52" y2="26.00" stroke="#7f7f7f" stroke-width="1.00" clip-path="url('#clipping-rect1')" />
		<line x1="731.70" y1="29.00" x2="731.70" y2="27.00" stroke="#7f7f7f" stroke-width="1.00" clip-path="url('#clipping-rect1')" />
		<line x1="721.88" y1="29.00" x2="721.88" y2="26.00" stroke="#7f7f7f" stroke-width="1.00" clip-path="url('#clipping-rect1')" />
		<line x1="712.06" y1="29.00" x2="712.06" y2="27.00" stroke="#7f7f7f" stroke-width="1.00" clip-path="url('#clipping-rect1')" />
		<line x1="702.24" y1="29.00" x2="702.24" y2="26.00" stroke="#7f7f7f" stroke-width="1.00" clip-path="url('#clipping-rect1')" />
		<line x1="692.42" y1="29.00" x2="692.42" y2="27.00" stroke="#7f7f7f" stroke-width="1.00" clip-path="url('#clipping-rect1')" />
		<line x1="682.60" y1="29.00" x2="682.60" y2="26.00" stroke="#7f7f7f" stroke-width="1.00" clip-path="url('#clipping-rect1')" />
		<line x1="672.78" y1="29.00" x2="672.78" y2="27.00" stroke="#7f7f7f" stroke-width="1.00" clip-path="url('#clipping-rect1')" />
		<line x1="662.96" y1="29.00" x2="662.96" y2="26.00" stroke="#7f7f7f" stroke-width="1.00" clip-path="url('#clipping-rect1')" />
		<line x1="653.14" y1="29.00" x2="653.14" y2="27.00" stroke="#7f7f7f" stroke-width="1.00" clip-path="url('#clipping-rect1')" />
		<line x1="643.32" y1="29.00" x2="643.32" y2="26.00" stroke="#7f7f7f" stroke-width="1.00" clip-path="url('#clipping-rect1')" />
		<line x1="633.50" y1="29.00" x2="633.50" y2="27.00" stroke="#7f7f7f" stroke-width="1.00" clip-path="url('#clipping-rect1')" />
		<line x1="623.68" y1="29.00" x2="623.68" y2="26.00" stroke="#7f7f7f" stroke-width="1.00" clip-path="url('#clipping-rect1')" />
		<line x1="613.86" y1="29.00" x2="613.86" y2="27.00" stroke="#7f7f7f" stroke-width="1.00" clip-path="url('#clipping-rect1')" />
		<line x1="604.04" y1="29.00" x2="604.04" y2="26.00" stroke="#7f7f7f" stroke-width="1.00" clip-path="url('#clipping-rect1')" />
		<line x1="594.22" y1="29.00" x2="594.22" y2="27.00" stroke="#7f7f7f" stroke-width="1.00" clip-path="url('#clipping-rect1')" />
		<line x1="584.40" y1="29.00" x2="584.40" y2="26.00" stroke="#7f7f7f" stroke-width="1.00" clip-path="url('#clipping-rect1')" />
		<line x1="574.58" y1="29.00" x2="574.58" y2="27.00" stroke="#7f7f7f" stroke-width="1.00" clip-path="url('#clipping-rect1')" />
		<line x1="564.76" y1="29.00" x2="564.76" y2="26.00" stroke="#7f7f7f" stroke-width="1.00" clip-path="url('#clipping-rect1')" />
		<line x1="554.94" y1="29.00" x2="554.94" y2="27.00" stroke="#7f7f7f" stroke-width="1.00" clip-path="url('#clipping-rect1')" />
		<line x1="545.12" y1="29.00" x2="545.12" y2="26.00" stroke="#7f7f7f" stroke-width="1.00" clip-path="url('#clipping-rect1')" />
		<line x1="535.30" y1="29.00" x2="535.30" y2="27.00" stroke="#7f7f7f" stroke-width="1.00" clip-path="url('#clipping-rect1')" />
		<line x1="525.48" y1="29.00" x2="525.48" y2="26.00" stroke="#7f7f7f" stroke-width="1.00" clip-path="url('#clipping-rect1')" />
		<line x1="515.66" y1="29.00" x2="515.66" y2="27.00" stroke="#7f7f7f" stroke-width="1.00" clip-path="url('#clipping-rect1')" />
		<line x1="505.84" y1="29.00" x2="505.84" y2="26.00" stroke="#7f7f7f" stroke-width="1.00" clip-path="url('#clipping-rect1')" />
		<line x1="496.02" y1="29.00" x2="496.02" y2="27.00" stroke="#7f7f7f" stroke-width="1.00" clip-path="url('#clipping-rect1')" />
		<line x1="486.20" y1="29.00" x2="486.20" y2="26.00" stroke="#7f7f7f" stroke-width="1.00" clip-path="url('#clipping-rect1')" />
		<line x1="476.38" y1="29.00" x2="476.38" y2="27.00" stroke="#7f7f7f" stroke-width="1.00" clip-path="url('#clipping-rect1')" />
		<line x1="466.56" y1="29.00" x2="466.56" y2="26.00" stroke="#7f7f7f" stroke-width="1.00" clip-path="url('#clipping-rect1')" />
		<line x1="456.74" y1="29.00" x2="456.74" y2="27.00" stroke="#7f7f7f" stroke-width="1.00" clip-path="url('#clipping-rect1')" />
		<line x1="446.92" y1="29.00" x2="446.92" y2="26.00" stroke="#7f7f7f" stroke-width="1.00" clip-path="url('#clipping-rect1')" />
		<line x1="437.10" y1="29.00" x2="437.10" y2="27.00" stroke="#7f7f7f" stroke-width="1.00" clip-path="url('#clipping-rect1')" />
		<line x1="427.28" y1="29.00" x2="427.28" y2="26.00" stroke="#7f7f7f" stroke-width="1.00" clip-path="url('#clipping-rect1')" />
		<line x1="417.46" y1="29.00" x2="417.46" y2="27.00" stroke="#7f7f7f" stroke-width="1.00" clip-path="url('#clipping-rect1')" />
		<line x1="407.64" y1="29.00" x2="407.64" y2="26.00" stroke="#7f7f7f" stroke-width="1.00" clip-path="url('#clipping-rect1')" />
		<line x1="397.82" y1="29.00" x2="397.82" y2="27.00" stroke="#7f7f7f" stroke-width="1.00" clip-path="url('#clipping-rect1')" />
		<line x1="388.00" y1="29.00" x2="388.00" y2="26.00" stroke="#7f7f7f" stroke-width="1.00" clip-path="url('#clipping-rect1')" />
		<line x1="378.18" y1="29.00" x2="378.18" y2="27.00" stroke="#7f7f7f" stroke-width="1.00" clip-path="url('#clipping-rect1')" />
		<line x1="368.36" y1="29.00" x2="368.36" y2="26.00" stroke="#7f7f7f" stroke-width="1.00" clip-path="url('#clipping-rect1')" />
		<line x1="358.54" y1="29.00" x2="358.54" y2="27.00" stroke="#7f7f7f" stroke-width="1.00" clip-path="url('#clipping-rect1')" />
		<line x1="348.72" y1="29.00" x2="348.72" y2="26.00" stroke="#7f7f7f" stroke-width="1.00" clip-path="url('#clipping-rect1')" />
		<line x1="338.90" y1="29.00" x2="338.90" y2="27.00" stroke="#7f7f7f" stroke-width="1.00" clip-path="url('#clipping-rect1')" />
		<line x1="329.08" y1="29.00" x2="329.08" y2="26.00" stroke="#7f7f7f" stroke-width="1.00" clip-path="url('#clipping-rect1')" />
		<line x1="319.26" y1="29.00" x2="319.26" y2="27.00" stroke="#7f7f7f" stroke-width="1.00" clip-path="url('#clipping-rect1')" />
		<line x1="309.44" y1="29.00" x2="309.44" y2="26.00" stroke="#7f7f7f" stroke-width="1.00" clip-path="url('#clipping-rect1')" />
		<line x1="299.62" y1="29.00" x2="299.62" y2="27.00" stroke="#7f7f7f" stroke-width="1.00" clip-path="url('#clipping-rect1')" />
		<line x1="289.80" y1="29.00" x2="289.80" y2="26.00" stroke="#7f7f7f" stroke-width="1.00" clip-path="url('#clipping-rect1')" />
		<line x1="279.98" y1="29.00" x2="279.98" y2="27.00" stroke="#7f7f7f" stroke-width="1.00" clip-path="url('#clipping-rect1')" />
		<line x1="270.16" y1="29.00" x2="270.16" y2="26.00" stroke="#7f7f7f" stroke-width="1.00" clip-path="url('#clipping-rect1')" />
		<line x1="260.34" y1="29.00" x2="260.34" y2="27.00" stroke="#7f7f7f" stroke-width="1.00" clip-path="url('#clipping-rect1')" />
		<line x1="250.52" y1="29.00" x2="250.52" y2="26.00" stroke="#7f7f7f" stroke-width="1.00" clip-path="url('#clipping-rect1')" />
		<line x1="240.70" y1="29.00" x2="240.70" y2="27.00" stroke="#7f7f7f" stroke-width="1.00" clip-path="url('#clipping-rect1')" />
		<line x1="230.88" y1="29.00" x2="230.88" y2="26.00" stroke="#7f7f7f" stroke-width="1.00" clip-path="url('#clipping-rect1')" />
		<line x1="221.06" y1="29.00" x2="221.06" y2="27.00" stroke="#7f7f7f" stroke-width="1.00" clip-path="url('#clipping-rect1')" />
		<line x1="211.24" y1="29.00" x2="211.24" y2="26.00" stroke="#7f7f7f" stroke-width="1.00" clip-path="url('#clipping-rect1')" />
		<line x1="201.42" y1="29.00" x2="201.42" y2="27.00" stroke="#7f7f7f" stroke-width="1.00" clip-path="url('#clipping-rect1')" />
		<line x1="191.60" y1="29.00" x2="191.60" y2="26.00" stroke="#7f7f7f" stroke-width="1.00" clip-path="url('#clipping-rect1')" />
		<line x1="181.78" y1="29.00" x2="181.78" y2="27.00" stroke="#7f7f7f" stroke-width="1.00" clip-path="url('#clipping-rect1')" />
		<line x1="171.96" y1="29.00" x2="171.96" y2="26.00" stroke="#7f7f7f" stroke-width="1.00" clip-path="url('#clipping-rect1')" />
		<line x1="162.14" y1="29.00" x2="162.14" y2="27.00" stroke="#7f7f7f" stroke-width="1.00" clip-path="url('#clipping-rect1')" />
		<line x1="152.32" y1="29.00" x2="152.32" y2="26.00" stroke="#7f7f7f" stroke-width="1.00" clip-path="url('#clipping-rect1')" />
		<line x1="142.50" y1="29.00" x2="142.50" y2="27.00" stroke="#7f7f7f" stroke-width="1.00" clip-path="url('#clipping-rect1')" />
		<line x1="132.68" y1="29.00" x2="132.68" y2="26.00" stroke="#7f7f7f" stroke-width="1.00" clip-path="url('#clipping-rect1')" />
		<line x1="122.86" y1="29.00" x2="122.86" y2="27.00" stroke="#7f7f7f" stroke-width="1.00" clip-path="url('#clipping-rect1')" />
		<line x1="113.04" y1="29.00" x2="113.04" y2="26.00" stroke="#7f7f7f" stroke-width="1.00" clip-path="url('#clipping-rect1')" />
		<line x1="103.22" y1="29.00" x2="103.22" y2="27.00" stroke="#7f7f7f" stroke-width="1.00" clip-path="url('#clipping-rect1')" />
		<line x1="93.40" y1="29.00" x2="93.40" y2="26.00" stroke="#7f7f7f" stroke-width="1.00" clip-path="url('#clipping-rect1')" />
		<line x1="83.58" y1="29.00" x2="83.58" y2="27.00" stroke="#7f7f7f" stroke-width="1.00" clip-path="url('#clipping-rect1')" />
		<line x1="73.76" y1="29.00" x2="73.76" y2="26.00" stroke="#7f7f7f" stroke-width="1.00" clip-path="url('#clipping-rect1')" />
		<line x1="63.94" y1="29.00" x2="63.94" y2="27.00" stroke="#7f7f7f" stroke-width="1.00" clip-path="url('#clipping-rect1')" />
		<line x1="54.12" y1="29.00" x2="54.12" y2="26.00" stroke="#7f7f7f" stroke-width="1.00" clip-path="url('#clipping-rect1')" />
		<line x1="44.30" y1="29.00" x2="44.30" y2="27.00" stroke="#7f7f7f" stroke-width="1.00" clip-path="url('#clipping-rect1')" />
		<line x1="34.48" y1="29.00" x2="34.48" y2="26.00" stroke="#7f7f7f" stroke-width="1.00" clip-path="url('#clipping-rect1')" />
		<line x1="24.66" y1="29.00" x2="24.66" y2="27.00" stroke="#7f7f7f" stroke-width="1.00" clip-path="url('#clipping-rect1')" />
		<line x1="14.84" y1="29.00" x2="14.84" y2="26.00" stroke="#7f7f7f" stroke-width="1.00" clip-path="url('#clipping-rect1')" />
		<line x1="5.02" y1="29.00" x2="5.02" y2="27.00" stroke="#7f7f7f" stroke-width="1.00" clip-path="url('#clipping-rect1')" />
		<text x="876.55" y="24.00" font-family="Helvetica" font-size="10" fill="#333333" clip-path="url('#clipping-rect1')" >1</text>
		<line x1="879.00" y1="31.00" x2="879.00" y2="16.00" stroke="#7f7f7f" stroke-width="1.00" clip-path="url('#clipping-rect1')" />
		<text x="782.80" y="24.00" font-family="Helvetica" font-size="10" fill="#333333" clip-path="url('#clipping-rect1')" >50 K</text>
		<line x1="780.80" y1="31.00" x2="780.80" y2="16.00" stroke="#7f7f7f" stroke-width="1.00" clip-path="url('#clipping-rect1')" />
		<text x="684.60" y="24.00" font-family="Helvetica" font-size="10" fill="#333333" clip-path="url('#clipping-rect1')" >100 K</text>
		<line x1="682.60" y1="31.00" x2="682.60" y2="16.00" stroke="#7f7f7f" stroke-width="1.00" clip-path="url('#clipping-rect1')" />
		<text x="586.40" y="24.00" font-family="Helvetica" font-size="10" fill="#333333" clip-path="url('#clipping-rect1')" >150 K</text>
		<line x1="584.40" y1="31.00" x2="584.40" y2="16.00" stroke="#7f7f7f" stroke-width="1.00" clip-path="url('#clipping-rect1')" />
		<text x="488.20" y="24.00" font-family="Helvetica" font-size="10" fill="#333333" clip-path="url('#clipping-rect1')" >200 K</text>
		<line x1="486.20" y1="31.00" x2="486.20" y2="16.00" stroke="#7f7f7f" stroke-width="1.00" clip-path="url('#clipping-rect1')" />
		<text x="390.00" y="24.00" font-family="Helvetica" font-size="10" fill="#333333" clip-path="url('#clipping-rect1')" >250 K</text>
		<line x1="388.00" y1="31.00" x2="388.00" y2="16.00" stroke="#7f7f7f" stroke-width="1.00" clip-path="url('#clipping-rect1')" />
		<text x="291.80" y="24.00" font-family="Helvetica" font-size="10" fill="#333333" clip-path="url('#clipping-rect1')" >300 K</text>
		<line x1="289.80" y1="31.00" x2="289.80" y2="16.00" stroke="#7f7f7f" stroke-width="1.00" clip-path="url('#clipping-rect1')" />
		<text x="193.60" y="24.00" font-family="Helvetica" font-size="10" fill="#333333" clip-path="url('#clipping-rect1')" >350 K</text>
		<line x1="191.60" y1="31.00" x2="191.60" y2="16.00" stroke="#7f7f7f" stroke-width="1.00" clip-path="url('#clipping-rect1')" />
		<text x="95.40" y="24.00" font-family="Helvetica" font-size="10" fill="#333333" clip-path="url('#clipping-rect1')" >400 K</text>
		<line x1="93.40" y1="31.00" x2="93.40" y2="16.00" stroke="#7f7f7f" stroke-width="1.00" clip-path="url('#clipping-rect1')" />
		<line x1="879.00" y1="227.00" x2="879.00" y2="31.00" stroke="#ebebeb" stroke-width="1.00" />
		<line x1="780.89" y1="227.00" x2="780.89" y2="31.00" stroke="#ebebeb" stroke-width="1.00" />
		<line x1="682.78" y1="227.00" x2="682.78" y2="31.00" stroke="#ebebeb" stroke-width="1.00" />
		<line x1="584.67" y1="227.00" x2="584.67" y2="31.00" stroke="#ebebeb" stroke-width="1.00" />
		<line x1="486.55" y1="227.00" x2="486.55" y2="31.00" stroke="#ebebeb" stroke-width="1.00" />
		<line x1="388.44" y1="227.00" x2="388.44" y2="31.00" stroke="#ebebeb" stroke-width="1.00" />
		<line x1="289.33" y1="227.00" x2="289.33" y2="31.00" stroke="#ebebeb" stroke-width="1.00" />
		<line x1="191.22" y1="227.00" x2="191.22" y2="31.00" stroke="#ebebeb" stroke-width="1.00" />
		<line x1="93.11" y1="227.00" x2="93.11" y2="31.00" stroke="#ebebeb" stroke-width="1.00" />
		<polygon fill="url('#gradient1')" shape-rendering="crispEdges" points="0.00,37.50 0.00,33.00 879.00,33.00 879.00,37.50 879.00,42.00 0.00,42.00 " />
		<line x1="879.00" y1="42.00" x2="879.00" y2="33.00" stroke="#6c6c6c" stroke-width="1.00" stroke-linejoin="round" />
		<line x1="879.00" y1="33.00" x2="0.00" y2="33.00" stroke="#6c6c6c" stroke-width="1.00" stroke-linejoin="round" />
		<line x1="0.00" y1="33.00" x2="0.00" y2="42.00" stroke="#6c6c6c" stroke-width="1.00" stroke-linejoin="round" />
		<line x1="879.00" y1="42.00" x2="0.00" y2="42.00" stroke="#6c6c6c" stroke-width="1.00" stroke-linejoin="round" />
		<line x1="879.00" y1="63.00" x2="879.00" y2="78.00" stroke="#009900" stroke-opacity="0.10" stroke-width="1.00" stroke-linejoin="round" />
		<line x1="879.00" y1="78.00" x2="602.89" y2="78.00" stroke="#009900" stroke-opacity="0.10" stroke-width="1.00" stroke-linejoin="round" />
		<line x1="602.89" y1="78.00" x2="602.89" y2="63.00" stroke="#009900" stroke-opacity="0.10" stroke-width="1.00" stroke-linejoin="round" />
		<line x1="879.00" y1="63.00" x2="602.89" y2="63.00" stroke="#009900" stroke-opacity="0.10" stroke-width="1.00" stroke-linejoin="round" />
		<polygon fill="#ffffff" shape-rendering="crispEdges" points="745.75,70.50 745.75,59.50 878.00,59.50 878.00,70.50 " />
		<text x="749.75" y="72.00" font-family="Helvetica" font-size="10" fill="#124d94" >ENSSPUG00000002077 [+4]</text>
		<polygon fill="#a5d1a5" shape-rendering="crispEdges" points="787.44,74.00 787.44,85.00 788.44,85.00 788.44,74.00 " />
		<polygon fill="#77b977" shape-rendering="crispEdges" points="787.35,74.00 787.35,85.00 788.35,85.00 788.35,74.00 " />
		<line x1="787.82" y1="79.50" x2="685.05" y2="79.50" stroke="#4ba34b" stroke-width="2.00" />
		<polygon fill="#b2b2b2" shape-rendering="crispEdges" points="732.04,79.50 740.84,75.10 738.64,79.50 740.84,83.90 " />
		<polygon fill="#77b977" shape-rendering="crispEdges" points="684.37,74.00 684.37,85.00 685.37,85.00 685.37,74.00 " />
		<line x1="684.69" y1="79.50" x2="665.56" y2="79.50" stroke="#4ba34b" stroke-width="2.00" />
		<polygon fill="#b2b2b2" shape-rendering="crispEdges" points="670.73,79.50 679.53,75.10 677.33,79.50 679.53,83.90 " />
		<polygon fill="#a5d1a5" shape-rendering="crispEdges" points="665.05,74.00 665.05,85.00 666.05,85.00 666.05,74.00 " />
		<polygon fill="#77b977" shape-rendering="crispEdges" points="664.87,74.00 664.87,85.00 665.87,85.00 665.87,74.00 " />
		<line x1="665.20" y1="79.50" x2="637.24" y2="79.50" stroke="#4ba34b" stroke-width="2.00" />
		<polygon fill="#b2b2b2" shape-rendering="crispEdges" points="646.82,79.50 655.62,75.10 653.42,79.50 655.62,83.90 " />
		<polygon fill="#1e8c1e" shape-rendering="crispEdges" points="636.64,74.00 636.64,85.00 637.64,85.00 637.64,74.00 " />
		<line x1="637.03" y1="79.50" x2="631.12" y2="79.50" stroke="#4ba34b" stroke-width="2.00" />
		<polygon fill="#1e8c1e" shape-rendering="crispEdges" points="630.46,74.00 630.46,85.00 631.46,85.00 631.46,74.00 " />
		<line x1="630.81" y1="79.50" x2="615.96" y2="79.50" stroke="#4ba34b" stroke-width="2.00" />
		<polygon fill="#1e8c1e" shape-rendering="crispEdges" points="615.24,74.00 615.24,85.00 616.24,85.00 616.24,74.00 " />
		<line x1="615.52" y1="79.50" x2="607.49" y2="79.50" stroke="#4ba34b" stroke-width="2.00" />
		<polygon fill="#1e8c1e" shape-rendering="crispEdges" points="606.67,74.00 606.67,85.00 607.67,85.00 607.67,74.00 " />
		<polygon fill="#a5d1a5" shape-rendering="crispEdges" points="604.89,74.00 604.89,85.00 606.85,85.00 606.85,74.00 " />
		<line x1="545.27" y1="63.00" x2="545.27" y2="78.00" stroke="#009900" stroke-opacity="0.10" stroke-width="1.00" stroke-linejoin="round" />
		<line x1="545.27" y1="78.00" x2="311.06" y2="78.00" stroke="#009900" stroke-opacity="0.10" stroke-width="1.00" stroke-linejoin="round" />
		<line x1="311.06" y1="78.00" x2="311.06" y2="63.00" stroke="#009900" stroke-opacity="0.10" stroke-width="1.00" stroke-linejoin="round" />
		<line x1="545.27" y1="63.00" x2="311.06" y2="63.00" stroke="#009900" stroke-opacity="0.10" stroke-width="1.00" stroke-linejoin="round" />
		<polygon fill="#8ac38a" shape-rendering="crispEdges" points="542.63,65.00 542.63,76.00 543.63,76.00 543.63,65.00 " />
		<line x1="543.00" y1="70.50" x2="542.96" y2="70.50" stroke="#4ba34b" stroke-width="2.00" />
		<polygon fill="#53a753" shape-rendering="crispEdges" points="542.43,65.00 542.43,76.00 543.43,76.00 543.43,65.00 " />
		<polygon fill="#8ac38a" shape-rendering="crispEdges" points="542.33,65.00 542.33,76.00 543.33,76.00 543.33,65.00 " />
		<polygon fill="#53a753" shape-rendering="crispEdges" points="542.23,65.00 542.23,76.00 543.23,76.00 543.23,65.00 " />
		<polygon fill="#1e8c1e" shape-rendering="crispEdges" points="542.14,65.00 542.14,76.00 543.14,76.00 543.14,65.00 " />
		<line x1="542.55" y1="70.50" x2="520.47" y2="70.50" stroke="#4ba34b" stroke-width="2.00" />
		<polygon fill="#b2b2b2" shape-rendering="crispEdges" points="535.91,70.50 527.11,66.10 529.31,70.50 527.11,74.90 " />
		<polygon fill="#53a753" shape-rendering="crispEdges" points="519.83,65.00 519.83,76.00 520.83,76.00 520.83,65.00 " />
		<line x1="520.20" y1="70.50" x2="518.59" y2="70.50" stroke="#4ba34b" stroke-width="2.00" />
		<polygon fill="#8ac38a" shape-rendering="crispEdges" points="518.03,65.00 518.03,76.00 519.03,76.00 519.03,65.00 " />
		<line x1="518.46" y1="70.50" x2="518.33" y2="70.50" stroke="#4ba34b" stroke-width="2.00" />
		<polygon fill="#53a753" shape-rendering="crispEdges" points="517.78,65.00 517.78,76.00 518.78,76.00 518.78,65.00 " />
		<polygon fill="#1e8c1e" shape-rendering="crispEdges" points="517.59,65.00 517.59,76.00 518.59,76.00 518.59,65.00 " />
		<line x1="517.94" y1="70.50" x2="504.64" y2="70.50" stroke="#4ba34b" stroke-width="2.00" />
		<polygon fill="#1e8c1e" shape-rendering="crispEdges" points="503.91,65.00 503.91,76.00 504.91,76.00 504.91,65.00 " />
		<line x1="504.18" y1="70.50" x2="501.92" y2="70.50" stroke="#4ba34b" stroke-width="2.00" />
		<polygon fill="#1e8c1e" shape-rendering="crispEdges" points="501.32,65.00 501.32,76.00 502.32,76.00 502.32,65.00 " />
		<line x1="501.73" y1="70.50" x2="495.77" y2="70.50" stroke="#4ba34b" stroke-width="2.00" />
		<polygon fill="#1e8c1e" shape-rendering="crispEdges" points="495.05,65.00 495.05,76.00 496.05,76.00 496.05,65.00 " />
		<polygon fill="#53a753" shape-rendering="crispEdges" points="494.80,65.00 494.80,76.00 495.80,76.00 495.80,65.00 " />
		<polygon fill="#8ac38a" shape-rendering="crispEdges" points="494.76,65.00 494.76,76.00 495.76,76.00 495.76,65.00 " />
		<line x1="495.25" y1="70.50" x2="491.31" y2="70.50" stroke="#4ba34b" stroke-width="2.00" />
		<polygon fill="#8ac38a" shape-rendering="crispEdges" points="490.77,65.00 490.77,76.00 491.77,76.00 491.77,65.00 " />
		<line x1="491.23" y1="70.50" x2="485.99" y2="70.50" stroke="#4ba34b" stroke-width="2.00" />
		<polygon fill="#8ac38a" shape-rendering="crispEdges" points="485.49,65.00 485.49,76.00 486.49,76.00 486.49,65.00 " />
		<polygon fill="#1e8c1e" shape-rendering="crispEdges" points="485.27,65.00 485.27,76.00 486.27,76.00 486.27,65.00 " />
		<line x1="485.57" y1="70.50" x2="477.57" y2="70.50" stroke="#4ba34b" stroke-width="2.00" />
		<polygon fill="#1e8c1e" shape-rendering="crispEdges" points="476.99,65.00 476.99,76.00 477.99,76.00 477.99,65.00 " />
		<line x1="477.42" y1="70.50" x2="450.97" y2="70.50" stroke="#4ba34b" stroke-width="2.00" />
		<polygon fill="#b2b2b2" shape-rendering="crispEdges" points="468.59,70.50 459.79,66.10 461.99,70.50 459.79,74.90 " />
		<polygon fill="#1e8c1e" shape-rendering="crispEdges" points="450.38,65.00 450.38,76.00 451.38,76.00 451.38,65.00 " />
		<polygon fill="#53a753" shape-rendering="crispEdges" points="450.20,65.00 450.20,76.00 451.20,76.00 451.20,65.00 " />
		<line x1="450.62" y1="70.50" x2="446.36" y2="70.50" stroke="#4ba34b" stroke-width="2.00" />
		<polygon fill="#8ac38a" shape-rendering="crispEdges" points="445.84,65.00 445.84,76.00 446.84,76.00 446.84,65.00 " />
		<polygon fill="#ffffff" shape-rendering="crispEdges" points="313.06,76.00 313.06,65.00 442.31,65.00 442.31,76.00 " />
		<text x="314.06" y="74.00" font-family="Helvetica" font-size="10" fill="#124d94" >ENSSPUG00000002093 [+6]</text>
		<line x1="546.65" y1="96.00" x2="546.65" y2="124.00" stroke="#009900" stroke-opacity="0.10" stroke-width="1.00" stroke-linejoin="round" />
		<line x1="546.65" y1="124.00" x2="241.58" y2="124.00" stroke="#009900" stroke-opacity="0.10" stroke-width="1.00" stroke-linejoin="round" />
		<line x1="241.58" y1="124.00" x2="241.58" y2="96.00" stroke="#009900" stroke-opacity="0.10" stroke-width="1.00" stroke-linejoin="round" />
		<line x1="546.65" y1="96.00" x2="241.58" y2="96.00" stroke="#009900" stroke-opacity="0.10" stroke-width="1.00" stroke-linejoin="round" />
		<text x="339.74" y="105.00" font-family="Helvetica" font-size="10" fill="#124d94" >ENSSPUG00000002156</text>
		<polygon fill="#a5d1a5" shape-rendering="crispEdges" points="422.59,111.00 422.59,122.00 425.32,122.00 425.32,111.00 " />
		<polygon fill="#1e8c1e" shape-rendering="crispEdges" points="422.07,111.00 422.07,122.00 423.07,122.00 423.07,111.00 " />
		<line x1="422.55" y1="116.50" x2="420.95" y2="116.50" stroke="#4ba34b" stroke-width="2.00" />
		<polygon fill="#1e8c1e" shape-rendering="crispEdges" points="420.41,111.00 420.41,122.00 421.41,122.00 421.41,111.00 " />
		<line x1="420.88" y1="116.50" x2="414.46" y2="116.50" stroke="#4ba34b" stroke-width="2.00" />
		<polygon fill="#1e8c1e" shape-rendering="crispEdges" points="413.93,111.00 413.93,122.00 414.93,122.00 414.93,111.00 " />
		<line x1="414.39" y1="116.50" x2="411.98" y2="116.50" stroke="#4ba34b" stroke-width="2.00" />
		<polygon fill="#1e8c1e" shape-rendering="crispEdges" points="411.32,111.00 411.32,122.00 412.32,122.00 412.32,111.00 " />
		<line x1="411.66" y1="116.50" x2="405.36" y2="116.50" stroke="#4ba34b" stroke-width="2.00" />
		<polygon fill="#1e8c1e" shape-rendering="crispEdges" points="404.76,111.00 404.76,122.00 405.76,122.00 405.76,111.00 " />
		<line x1="405.16" y1="116.50" x2="400.17" y2="116.50" stroke="#4ba34b" stroke-width="2.00" />
		<polygon fill="#1e8c1e" shape-rendering="crispEdges" points="399.61,111.00 399.61,122.00 400.61,122.00 400.61,111.00 " />
		<line x1="400.06" y1="116.50" x2="385.62" y2="116.50" stroke="#4ba34b" stroke-width="2.00" />
		<polygon fill="#1e8c1e" shape-rendering="crispEdges" points="385.03,111.00 385.03,122.00 386.03,122.00 386.03,111.00 " />
		<line x1="385.44" y1="116.50" x2="379.64" y2="116.50" stroke="#4ba34b" stroke-width="2.00" />
		<polygon fill="#1e8c1e" shape-rendering="crispEdges" points="379.09,111.00 379.09,122.00 380.09,122.00 380.09,111.00 " />
		<polygon fill="#a5d1a5" shape-rendering="crispEdges" points="379.00,111.00 379.00,122.00 380.00,122.00 380.00,111.00 " />
		<line x1="379.46" y1="116.50" x2="362.63" y2="116.50" stroke="#4ba34b" stroke-width="2.00" />
		<polygon fill="#b2b2b2" shape-rendering="crispEdges" points="375.45,116.50 366.65,112.10 368.85,116.50 366.65,120.90 " />
		<polygon fill="#a5d1a5" shape-rendering="crispEdges" points="361.99,111.00 361.99,122.00 362.99,122.00 362.99,111.00 " />
		<polygon fill="#ffffff" shape-rendering="crispEdges" points="425.32,122.00 425.32,111.00 543.65,111.00 543.65,122.00 " />
		<text x="429.32" y="120.00" font-family="Helvetica" font-size="10" fill="#124d94" >ENSSPUP00000002787.1</text>
		<polygon fill="#ffffff" shape-rendering="crispEdges" points="243.58,122.00 243.58,111.00 358.35,111.00 358.35,122.00 " />
		<text x="244.58" y="120.00" font-family="Helvetica" font-size="10" fill="#124d94" >ENSSPUT00000002954.1</text>
		<line x1="371.34" y1="129.00" x2="371.34" y2="157.00" stroke="#009900" stroke-opacity="0.10" stroke-width="1.00" stroke-linejoin="round" />
		<line x1="371.34" y1="157.00" x2="113.70" y2="157.00" stroke="#009900" stroke-opacity="0.10" stroke-width="1.00" stroke-linejoin="round" />
		<line x1="113.70" y1="157.00" x2="113.70" y2="129.00" stroke="#009900" stroke-opacity="0.10" stroke-width="1.00" stroke-linejoin="round" />
		<line x1="371.34" y1="129.00" x2="113.70" y2="129.00" stroke="#009900" stroke-opacity="0.10" stroke-width="1.00" stroke-linejoin="round" />
		<text x="188.14" y="138.00" font-family="Helvetica" font-size="10" fill="#124d94" >ENSSPUG00000002165</text>
		<polygon fill="#1e8c1e" shape-rendering="crispEdges" points="250.01,144.00 250.01,155.00 251.01,155.00 251.01,144.00 " />
		<line x1="250.45" y1="149.50" x2="243.76" y2="149.50" stroke="#4ba34b" stroke-width="2.00" />
		<polygon fill="#1e8c1e" shape-rendering="crispEdges" points="243.08,144.00 243.08,155.00 244.08,155.00 244.08,144.00 " />
		<line x1="243.40" y1="149.50" x2="242.87" y2="149.50" stroke="#4ba34b" stroke-width="2.00" />
		<polygon fill="#1e8c1e" shape-rendering="crispEdges" points="242.23,144.00 242.23,155.00 243.23,155.00 243.23,144.00 " />
		<line x1="242.59" y1="149.50" x2="239.76" y2="149.50" stroke="#4ba34b" stroke-width="2.00" />
		<polygon fill="#1e8c1e" shape-rendering="crispEdges" points="239.14,144.00 239.14,155.00 240.14,155.00 240.14,144.00 " />
		<line x1="239.52" y1="149.50" x2="238.87" y2="149.50" stroke="#4ba34b" stroke-width="2.00" />
		<polygon fill="#1e8c1e" shape-rendering="crispEdges" points="238.21,144.00 238.21,155.00 239.21,155.00 239.21,144.00 " />
		<line x1="238.55" y1="149.50" x2="235.78" y2="149.50" stroke="#4ba34b" stroke-width="2.00" />
		<polygon fill="#1e8c1e" shape-rendering="crispEdges" points="234.90,144.00 234.90,155.00 235.90,155.00 235.90,144.00 " />
		<polygon fill="#ffffff" shape-rendering="crispEdges" points="250.57,155.00 250.57,144.00 368.34,144.00 368.34,155.00 " />
		<text x="254.57" y="153.00" font-family="Helvetica" font-size="10" fill="#124d94" >ENSSPUT00000002976.1</text>
		<polygon fill="#ffffff" shape-rendering="crispEdges" points="115.70,155.00 115.70,144.00 231.02,144.00 231.02,155.00 " />
		<text x="116.70" y="153.00" font-family="Helvetica" font-size="10" fill="#124d94" >ENSSPUP00000002809.1</text>
		<line x1="290.88" y1="162.00" x2="290.88" y2="190.00" stroke="#009900" stroke-opacity="0.10" stroke-width="1.00" stroke-linejoin="round" />
		<line x1="290.88" y1="190.00" x2="39.04" y2="190.00" stroke="#009900" stroke-opacity="0.10" stroke-width="1.00" stroke-linejoin="round" />
		<line x1="39.04" y1="190.00" x2="39.04" y2="162.00" stroke="#009900" stroke-opacity="0.10" stroke-width="1.00" stroke-linejoin="round" />
		<line x1="290.88" y1="162.00" x2="39.04" y2="162.00" stroke="#009900" stroke-opacity="0.10" stroke-width="1.00" stroke-linejoin="round" />
		<text x="110.59" y="171.00" font-family="Helvetica" font-size="10" fill="#124d94" >ENSSPUG00000002182</text>
		<polygon fill="#a5d1a5" shape-rendering="crispEdges" points="168.72,177.00 168.72,188.00 169.72,188.00 169.72,177.00 " />
		<polygon fill="#1e8c1e" shape-rendering="crispEdges" points="168.29,177.00 168.29,188.00 169.29,188.00 169.29,177.00 " />
		<line x1="168.70" y1="182.50" x2="168.05" y2="182.50" stroke="#4ba34b" stroke-width="2.00" />
		<polygon fill="#1e8c1e" shape-rendering="crispEdges" points="167.40,177.00 167.40,188.00 168.40,188.00 168.40,177.00 " />
		<line x1="167.75" y1="182.50" x2="161.39" y2="182.50" stroke="#4ba34b" stroke-width="2.00" />
		<polygon fill="#1e8c1e" shape-rendering="crispEdges" points="160.84,177.00 160.84,188.00 161.84,188.00 161.84,177.00 " />
		<line x1="161.29" y1="182.50" x2="159.96" y2="182.50" stroke="#4ba34b" stroke-width="2.00" />
		<polygon fill="#1e8c1e" shape-rendering="crispEdges" points="159.41,177.00 159.41,188.00 160.41,188.00 160.41,177.00 " />
		<polygon fill="#a5d1a5" shape-rendering="crispEdges" points="159.34,177.00 159.34,188.00 160.34,188.00 160.34,177.00 " />
		<polygon fill="#ffffff" shape-rendering="crispEdges" points="169.55,188.00 169.55,177.00 287.88,177.00 287.88,188.00 " />
		<text x="173.55" y="186.00" font-family="Helvetica" font-size="10" fill="#124d94" >ENSSPUP00000002813.1</text>
		<polygon fill="#ffffff" shape-rendering="crispEdges" points="41.04,188.00 41.04,177.00 155.81,177.00 155.81,188.00 " />
		<text x="42.04" y="186.00" font-family="Helvetica" font-size="10" fill="#124d94" >ENSSPUT00000002980.1</text>
		<line x1="280.46" y1="195.00" x2="280.46" y2="223.00" stroke="#009900" stroke-opacity="0.10" stroke-width="1.00" stroke-linejoin="round" />
		<line x1="280.46" y1="223.00" x2="30.53" y2="223.00" stroke="#009900" stroke-opacity="0.10" stroke-width="1.00" stroke-linejoin="round" />
		<line x1="30.53" y1="223.00" x2="30.53" y2="195.00" stroke="#009900" stroke-opacity="0.10" stroke-width="1.00" stroke-linejoin="round" />
		<line x1="280.46" y1="195.00" x2="30.53" y2="195.00" stroke="#009900" stroke-opacity="0.10" stroke-width="1.00" stroke-linejoin="round" />
		<text x="101.12" y="204.00" font-family="Helvetica" font-size="10" fill="#124d94" >ENSSPUG00000002186</text>
		<polygon fill="#a5d1a5" shape-rendering="crispEdges" points="159.13,210.00 159.13,221.00 160.13,221.00 160.13,210.00 " />
		<polygon fill="#1e8c1e" shape-rendering="crispEdges" points="158.97,210.00 158.97,221.00 159.97,221.00 159.97,210.00 " />
		<line x1="159.38" y1="215.50" x2="159.14" y2="215.50" stroke="#4ba34b" stroke-width="2.00" />
		<polygon fill="#1e8c1e" shape-rendering="crispEdges" points="158.52,210.00 158.52,221.00 159.52,221.00 159.52,210.00 " />
		<polygon fill="#a5d1a5" shape-rendering="crispEdges" points="158.39,210.00 158.39,221.00 159.39,221.00 159.39,210.00 " />
		<line x1="158.88" y1="215.50" x2="152.12" y2="215.50" stroke="#4ba34b" stroke-width="2.00" />
		<polygon fill="#a5d1a5" shape-rendering="crispEdges" points="151.49,210.00 151.49,221.00 152.49,221.00 152.49,210.00 " />
		<polygon fill="#ffffff" shape-rendering="crispEdges" points="159.70,221.00 159.70,210.00 277.46,210.00 277.46,221.00 " />
		<text x="163.70" y="219.00" font-family="Helvetica" font-size="10" fill="#124d94" >ENSSPUT00000002993.1</text>
		<polygon fill="#ffffff" shape-rendering="crispEdges" points="32.53,221.00 32.53,210.00 147.86,210.00 147.86,221.00 " />
		<text x="33.53" y="219.00" font-family="Helvetica" font-size="10" fill="#124d94" >ENSSPUP00000002825.1</text>
		<line x1="260.13" y1="63.00" x2="260.13" y2="91.00" stroke="#009900" stroke-opacity="0.10" stroke-width="1.00" stroke-linejoin="round" />
		<line x1="260.13" y1="91.00" x2="0.00" y2="91.00" stroke="#009900" stroke-opacity="0.10" stroke-width="1.00" stroke-linejoin="round" />
		<line x1="0.00" y1="91.00" x2="0.00" y2="63.00" stroke="#009900" stroke-opacity="0.10" stroke-width="1.00" stroke-linejoin="round" />
		<line x1="260.13" y1="63.00" x2="0.00" y2="63.00" stroke="#009900" stroke-opacity="0.10" stroke-width="1.00" stroke-linejoin="round" />
		<text x="67.58" y="72.00" font-family="Helvetica" font-size="10" fill="#124d94" >ENSSPUG00000002196</text>
		<polygon fill="#1e8c1e" shape-rendering="crispEdges" points="138.03,78.00 138.03,89.00 139.03,89.00 139.03,78.00 " />
		<line x1="138.26" y1="83.50" x2="137.78" y2="83.50" stroke="#4ba34b" stroke-width="2.00" />
		<polygon fill="#1e8c1e" shape-rendering="crispEdges" points="137.14,78.00 137.14,89.00 138.14,89.00 138.14,78.00 " />
		<line x1="137.50" y1="83.50" x2="122.09" y2="83.50" stroke="#4ba34b" stroke-width="2.00" />
		<polygon fill="#b2b2b2" shape-rendering="crispEdges" points="134.19,83.50 125.39,79.10 127.59,83.50 125.39,87.90 " />
		<polygon fill="#1e8c1e" shape-rendering="crispEdges" points="121.37,78.00 121.37,89.00 122.37,89.00 122.37,78.00 " />
		<line x1="121.65" y1="83.50" x2="117.48" y2="83.50" stroke="#4ba34b" stroke-width="2.00" />
		<polygon fill="#1e8c1e" shape-rendering="crispEdges" points="116.84,78.00 116.84,89.00 117.84,89.00 117.84,78.00 " />
		<line x1="117.19" y1="83.50" x2="114.61" y2="83.50" stroke="#4ba34b" stroke-width="2.00" />
		<polygon fill="#1e8c1e" shape-rendering="crispEdges" points="113.96,78.00 113.96,89.00 114.96,89.00 114.96,78.00 " />
		<line x1="114.31" y1="83.50" x2="110.05" y2="83.50" stroke="#4ba34b" stroke-width="2.00" />
		<polygon fill="#1e8c1e" shape-rendering="crispEdges" points="109.06,78.00 109.06,89.00 110.06,89.00 110.06,78.00 " />
		<line x1="109.07" y1="83.50" x2="108.86" y2="83.50" stroke="#4ba34b" stroke-width="2.00" />
		<polygon fill="#1e8c1e" shape-rendering="crispEdges" points="108.35,78.00 108.35,89.00 109.35,89.00 109.35,78.00 " />
		<line x1="108.85" y1="83.50" x2="108.67" y2="83.50" stroke="#4ba34b" stroke-width="2.00" />
		<polygon fill="#1e8c1e" shape-rendering="crispEdges" points="108.09,78.00 108.09,89.00 109.09,89.00 109.09,78.00 " />
		<line x1="108.50" y1="83.50" x2="108.03" y2="83.50" stroke="#4ba34b" stroke-width="2.00" />
		<polygon fill="#1e8c1e" shape-rendering="crispEdges" points="107.39,78.00 107.39,89.00 108.39,89.00 108.39,78.00 " />
		<line x1="107.75" y1="83.50" x2="107.54" y2="83.50" stroke="#4ba34b" stroke-width="2.00" />
		<polygon fill="#1e8c1e" shape-rendering="crispEdges" points="106.83,78.00 106.83,89.00 107.83,89.00 107.83,78.00 " />
		<line x1="107.13" y1="83.50" x2="104.63" y2="83.50" stroke="#4ba34b" stroke-width="2.00" />
		<polygon fill="#1e8c1e" shape-rendering="crispEdges" points="104.09,78.00 104.09,89.00 105.09,89.00 105.09,78.00 " />
		<polygon fill="#ffffff" shape-rendering="crispEdges" points="138.80,89.00 138.80,78.00 257.13,78.00 257.13,89.00 " />
		<text x="142.80" y="87.00" font-family="Helvetica" font-size="10" fill="#124d94" >ENSSPUP00000002868.1</text>
		<polygon fill="#ffffff" shape-rendering="crispEdges" points="-0.00,89.00 -0.00,78.00 114.76,78.00 114.76,89.00 " />
		<text x="1.00" y="87.00" font-family="Helvetica" font-size="10" fill="#124d94" >ENSSPUT00000003042.1</text>
		<polygon fill="url('#gradient2')" shape-rendering="crispEdges" points="0.00,58.00 879.00,58.00 879.00,44.00 0.00,44.00 " clip-path="url('#clipping-rect2')" />
		<text x="0.00" y="54.00" font-family="Helvetica" font-size="12" fill="#333333" >Genes, Ensembl release 114</text>
		<polygon fill="#0000ff" fill-opacity="0.20" shape-rendering="crispEdges" points="696.50,31.50 696.50,23.10 696.50,23.10 " />
		<polygon fill="#0000ff" fill-opacity="0.20" shape-rendering="crispEdges" points="696.50,31.50 696.50,31.50 696.50,23.10 " />
		<line x1="696.50" y1="30.50" x2="696.50" y2="23.10" stroke="#0000ff" stroke-opacity="0.40" stroke-width="1.00" />
		<line x1="696.50" y1="30.50" x2="696.50" y2="23.10" stroke="#0000ff" stroke-opacity="0.40" stroke-width="1.00" />
		<polygon fill="#0000ff" shape-rendering="crispEdges" points="690.79,22.35 690.50,20.50 690.79,18.65 691.65,16.97 692.97,15.65 694.65,14.79 696.50,14.50 696.50,26.50 694.65,26.21 692.97,25.35 691.65,24.03 " />
		<polygon fill="#0000ff" fill-opacity="0.60" shape-rendering="crispEdges" points="736.20,26.50 736.20,14.50 696.50,14.50 696.50,26.50 " />
		<text x="698.50" y="23.50" font-family="Helvetica" font-size="10" fill="#ffffff" >ELAVL1</text>
		<polygon fill="#0000ff" fill-opacity="0.20" shape-rendering="crispEdges" points="696.79,228.01 696.79,31.00 696.79,31.00 " />
		<polygon fill="#0000ff" fill-opacity="0.20" shape-rendering="crispEdges" points="696.79,228.01 696.79,228.01 696.79,31.00 " />
		<line x1="696.79" y1="227.00" x2="696.79" y2="31.00" stroke="#0000ff" stroke-opacity="0.40" stroke-width="1.00" />
		<line x1="696.79" y1="227.00" x2="696.79" y2="31.00" stroke="#0000ff" stroke-opacity="0.40" stroke-width="1.00" />
		<polygon fill="#e5e5e5" shape-rendering="crispEdges" points="879.00,13.00 879.00,-1.00 0.00,-1.00 0.00,13.00 " />
		<text x="0.00" y="10.00" font-family="Helvetica Bold" font-size="12" text-anchor="start" fill="#000000" >QEPC01006745.1:0..447556 Sphenodon punctatus isolate mauimua-1 ScrUdWx_5970, whole genome shotgun sequence</text>
	</g>
</svg>
