<?xml version="1.0" standalone="no" ?>
<!DOCTYPE svg PUBLIC "-//W3C//DTD SVG 1.1//EN" "http://www.w3.org/Graphics/SVG/1.1/DTD/svg11.dtd">
<svg width="879px" height="282px" xmlns="http://www.w3.org/2000/svg" version="1.1" viewBox="0 0 879 282" >
	<style type="text/css" > <![CDATA[
		@import url("https://www.ncbi.nlm.nih.gov/projects/sviewer/css/svg_fonts.css");
	]]>
	</style>
	<desc >Generated by NCBI Genome Workbench http://www.ncbi.nlm.nih.gov/tools/gbench/</desc>
	<defs >
		<clipPath id="clipping-rect1" >
			<rect x="0" y="14" width="879" height="18" />
		</clipPath>
		<linearGradient id="gradient1" gradientTransform="rotate(90)" >
			<stop offset="0%" stop-color="#6c6c6c" />
			<stop offset="50%" stop-color="#b5b5b5" />
			<stop offset="100%" stop-color="#6c6c6c" />
		</linearGradient>
		<clipPath id="clipping-rect2" >
			<rect x="0" y="32" width="879" height="250" />
		</clipPath>
		<linearGradient id="gradient2" gradientTransform="rotate(90)" >
			<stop offset="0%" stop-color="#b6dead" />
			<stop offset="100%" stop-color="#ffffff" stop-opacity="0.00" />
		</linearGradient>
		<linearGradient id="gradient3" gradientTransform="rotate(90)" >
			<stop offset="0%" stop-color="#e6e6e6" stop-opacity="0.71" />
			<stop offset="100%" stop-color="#ffffff" stop-opacity="0.00" />
		</linearGradient>
	</defs>
	<g >
		<polygon fill="#ffffff" shape-rendering="crispEdges" points="879.00,31.00 879.00,13.00 0.00,13.00 0.00,31.00 " />
		<line x1="0.00" y1="29.00" x2="879.00" y2="29.00" stroke="#7f7f7f" stroke-width="1.00" clip-path="url('#clipping-rect1')" />
		<line x1="877.82" y1="29.00" x2="877.82" y2="27.00" stroke="#7f7f7f" stroke-width="1.00" clip-path="url('#clipping-rect1')" />
		<line x1="871.37" y1="29.00" x2="871.37" y2="27.00" stroke="#7f7f7f" stroke-width="1.00" clip-path="url('#clipping-rect1')" />
		<line x1="864.92" y1="29.00" x2="864.92" y2="27.00" stroke="#7f7f7f" stroke-width="1.00" clip-path="url('#clipping-rect1')" />
		<line x1="858.47" y1="29.00" x2="858.47" y2="27.00" stroke="#7f7f7f" stroke-width="1.00" clip-path="url('#clipping-rect1')" />
		<line x1="852.01" y1="29.00" x2="852.01" y2="26.00" stroke="#7f7f7f" stroke-width="1.00" clip-path="url('#clipping-rect1')" />
		<line x1="845.56" y1="29.00" x2="845.56" y2="27.00" stroke="#7f7f7f" stroke-width="1.00" clip-path="url('#clipping-rect1')" />
		<line x1="839.11" y1="29.00" x2="839.11" y2="27.00" stroke="#7f7f7f" stroke-width="1.00" clip-path="url('#clipping-rect1')" />
		<line x1="832.66" y1="29.00" x2="832.66" y2="27.00" stroke="#7f7f7f" stroke-width="1.00" clip-path="url('#clipping-rect1')" />
		<line x1="826.20" y1="29.00" x2="826.20" y2="27.00" stroke="#7f7f7f" stroke-width="1.00" clip-path="url('#clipping-rect1')" />
		<line x1="819.75" y1="29.00" x2="819.75" y2="26.00" stroke="#7f7f7f" stroke-width="1.00" clip-path="url('#clipping-rect1')" />
		<line x1="813.30" y1="29.00" x2="813.30" y2="27.00" stroke="#7f7f7f" stroke-width="1.00" clip-path="url('#clipping-rect1')" />
		<line x1="806.85" y1="29.00" x2="806.85" y2="27.00" stroke="#7f7f7f" stroke-width="1.00" clip-path="url('#clipping-rect1')" />
		<line x1="800.39" y1="29.00" x2="800.39" y2="27.00" stroke="#7f7f7f" stroke-width="1.00" clip-path="url('#clipping-rect1')" />
		<line x1="793.94" y1="29.00" x2="793.94" y2="27.00" stroke="#7f7f7f" stroke-width="1.00" clip-path="url('#clipping-rect1')" />
		<line x1="787.49" y1="29.00" x2="787.49" y2="26.00" stroke="#7f7f7f" stroke-width="1.00" clip-path="url('#clipping-rect1')" />
		<line x1="781.04" y1="29.00" x2="781.04" y2="27.00" stroke="#7f7f7f" stroke-width="1.00" clip-path="url('#clipping-rect1')" />
		<line x1="774.58" y1="29.00" x2="774.58" y2="27.00" stroke="#7f7f7f" stroke-width="1.00" clip-path="url('#clipping-rect1')" />
		<line x1="768.13" y1="29.00" x2="768.13" y2="27.00" stroke="#7f7f7f" stroke-width="1.00" clip-path="url('#clipping-rect1')" />
		<line x1="761.68" y1="29.00" x2="761.68" y2="27.00" stroke="#7f7f7f" stroke-width="1.00" clip-path="url('#clipping-rect1')" />
		<line x1="755.23" y1="29.00" x2="755.23" y2="26.00" stroke="#7f7f7f" stroke-width="1.00" clip-path="url('#clipping-rect1')" />
		<line x1="748.77" y1="29.00" x2="748.77" y2="27.00" stroke="#7f7f7f" stroke-width="1.00" clip-path="url('#clipping-rect1')" />
		<line x1="742.32" y1="29.00" x2="742.32" y2="27.00" stroke="#7f7f7f" stroke-width="1.00" clip-path="url('#clipping-rect1')" />
		<line x1="735.87" y1="29.00" x2="735.87" y2="27.00" stroke="#7f7f7f" stroke-width="1.00" clip-path="url('#clipping-rect1')" />
		<line x1="729.42" y1="29.00" x2="729.42" y2="27.00" stroke="#7f7f7f" stroke-width="1.00" clip-path="url('#clipping-rect1')" />
		<line x1="722.96" y1="29.00" x2="722.96" y2="26.00" stroke="#7f7f7f" stroke-width="1.00" clip-path="url('#clipping-rect1')" />
		<line x1="716.51" y1="29.00" x2="716.51" y2="27.00" stroke="#7f7f7f" stroke-width="1.00" clip-path="url('#clipping-rect1')" />
		<line x1="710.06" y1="29.00" x2="710.06" y2="27.00" stroke="#7f7f7f" stroke-width="1.00" clip-path="url('#clipping-rect1')" />
		<line x1="703.61" y1="29.00" x2="703.61" y2="27.00" stroke="#7f7f7f" stroke-width="1.00" clip-path="url('#clipping-rect1')" />
		<line x1="697.15" y1="29.00" x2="697.15" y2="27.00" stroke="#7f7f7f" stroke-width="1.00" clip-path="url('#clipping-rect1')" />
		<line x1="690.70" y1="29.00" x2="690.70" y2="26.00" stroke="#7f7f7f" stroke-width="1.00" clip-path="url('#clipping-rect1')" />
		<line x1="684.25" y1="29.00" x2="684.25" y2="27.00" stroke="#7f7f7f" stroke-width="1.00" clip-path="url('#clipping-rect1')" />
		<line x1="677.80" y1="29.00" x2="677.80" y2="27.00" stroke="#7f7f7f" stroke-width="1.00" clip-path="url('#clipping-rect1')" />
		<line x1="671.34" y1="29.00" x2="671.34" y2="27.00" stroke="#7f7f7f" stroke-width="1.00" clip-path="url('#clipping-rect1')" />
		<line x1="664.89" y1="29.00" x2="664.89" y2="27.00" stroke="#7f7f7f" stroke-width="1.00" clip-path="url('#clipping-rect1')" />
		<line x1="658.44" y1="29.00" x2="658.44" y2="26.00" stroke="#7f7f7f" stroke-width="1.00" clip-path="url('#clipping-rect1')" />
		<line x1="651.99" y1="29.00" x2="651.99" y2="27.00" stroke="#7f7f7f" stroke-width="1.00" clip-path="url('#clipping-rect1')" />
		<line x1="645.53" y1="29.00" x2="645.53" y2="27.00" stroke="#7f7f7f" stroke-width="1.00" clip-path="url('#clipping-rect1')" />
		<line x1="639.08" y1="29.00" x2="639.08" y2="27.00" stroke="#7f7f7f" stroke-width="1.00" clip-path="url('#clipping-rect1')" />
		<line x1="632.63" y1="29.00" x2="632.63" y2="27.00" stroke="#7f7f7f" stroke-width="1.00" clip-path="url('#clipping-rect1')" />
		<line x1="626.18" y1="29.00" x2="626.18" y2="26.00" stroke="#7f7f7f" stroke-width="1.00" clip-path="url('#clipping-rect1')" />
		<line x1="619.72" y1="29.00" x2="619.72" y2="27.00" stroke="#7f7f7f" stroke-width="1.00" clip-path="url('#clipping-rect1')" />
		<line x1="613.27" y1="29.00" x2="613.27" y2="27.00" stroke="#7f7f7f" stroke-width="1.00" clip-path="url('#clipping-rect1')" />
		<line x1="606.82" y1="29.00" x2="606.82" y2="27.00" stroke="#7f7f7f" stroke-width="1.00" clip-path="url('#clipping-rect1')" />
		<line x1="600.36" y1="29.00" x2="600.36" y2="27.00" stroke="#7f7f7f" stroke-width="1.00" clip-path="url('#clipping-rect1')" />
		<line x1="593.91" y1="29.00" x2="593.91" y2="26.00" stroke="#7f7f7f" stroke-width="1.00" clip-path="url('#clipping-rect1')" />
		<line x1="587.46" y1="29.00" x2="587.46" y2="27.00" stroke="#7f7f7f" stroke-width="1.00" clip-path="url('#clipping-rect1')" />
		<line x1="581.01" y1="29.00" x2="581.01" y2="27.00" stroke="#7f7f7f" stroke-width="1.00" clip-path="url('#clipping-rect1')" />
		<line x1="574.55" y1="29.00" x2="574.55" y2="27.00" stroke="#7f7f7f" stroke-width="1.00" clip-path="url('#clipping-rect1')" />
		<line x1="568.10" y1="29.00" x2="568.10" y2="27.00" stroke="#7f7f7f" stroke-width="1.00" clip-path="url('#clipping-rect1')" />
		<line x1="561.65" y1="29.00" x2="561.65" y2="26.00" stroke="#7f7f7f" stroke-width="1.00" clip-path="url('#clipping-rect1')" />
		<line x1="555.20" y1="29.00" x2="555.20" y2="27.00" stroke="#7f7f7f" stroke-width="1.00" clip-path="url('#clipping-rect1')" />
		<line x1="548.74" y1="29.00" x2="548.74" y2="27.00" stroke="#7f7f7f" stroke-width="1.00" clip-path="url('#clipping-rect1')" />
		<line x1="542.29" y1="29.00" x2="542.29" y2="27.00" stroke="#7f7f7f" stroke-width="1.00" clip-path="url('#clipping-rect1')" />
		<line x1="535.84" y1="29.00" x2="535.84" y2="27.00" stroke="#7f7f7f" stroke-width="1.00" clip-path="url('#clipping-rect1')" />
		<line x1="529.39" y1="29.00" x2="529.39" y2="26.00" stroke="#7f7f7f" stroke-width="1.00" clip-path="url('#clipping-rect1')" />
		<line x1="522.93" y1="29.00" x2="522.93" y2="27.00" stroke="#7f7f7f" stroke-width="1.00" clip-path="url('#clipping-rect1')" />
		<line x1="516.48" y1="29.00" x2="516.48" y2="27.00" stroke="#7f7f7f" stroke-width="1.00" clip-path="url('#clipping-rect1')" />
		<line x1="510.03" y1="29.00" x2="510.03" y2="27.00" stroke="#7f7f7f" stroke-width="1.00" clip-path="url('#clipping-rect1')" />
		<line x1="503.58" y1="29.00" x2="503.58" y2="27.00" stroke="#7f7f7f" stroke-width="1.00" clip-path="url('#clipping-rect1')" />
		<line x1="497.12" y1="29.00" x2="497.12" y2="26.00" stroke="#7f7f7f" stroke-width="1.00" clip-path="url('#clipping-rect1')" />
		<line x1="490.67" y1="29.00" x2="490.67" y2="27.00" stroke="#7f7f7f" stroke-width="1.00" clip-path="url('#clipping-rect1')" />
		<line x1="484.22" y1="29.00" x2="484.22" y2="27.00" stroke="#7f7f7f" stroke-width="1.00" clip-path="url('#clipping-rect1')" />
		<line x1="477.77" y1="29.00" x2="477.77" y2="27.00" stroke="#7f7f7f" stroke-width="1.00" clip-path="url('#clipping-rect1')" />
		<line x1="471.31" y1="29.00" x2="471.31" y2="27.00" stroke="#7f7f7f" stroke-width="1.00" clip-path="url('#clipping-rect1')" />
		<line x1="464.86" y1="29.00" x2="464.86" y2="26.00" stroke="#7f7f7f" stroke-width="1.00" clip-path="url('#clipping-rect1')" />
		<line x1="458.41" y1="29.00" x2="458.41" y2="27.00" stroke="#7f7f7f" stroke-width="1.00" clip-path="url('#clipping-rect1')" />
		<line x1="451.96" y1="29.00" x2="451.96" y2="27.00" stroke="#7f7f7f" stroke-width="1.00" clip-path="url('#clipping-rect1')" />
		<line x1="445.50" y1="29.00" x2="445.50" y2="27.00" stroke="#7f7f7f" stroke-width="1.00" clip-path="url('#clipping-rect1')" />
		<line x1="439.05" y1="29.00" x2="439.05" y2="27.00" stroke="#7f7f7f" stroke-width="1.00" clip-path="url('#clipping-rect1')" />
		<line x1="432.60" y1="29.00" x2="432.60" y2="26.00" stroke="#7f7f7f" stroke-width="1.00" clip-path="url('#clipping-rect1')" />
		<line x1="426.15" y1="29.00" x2="426.15" y2="27.00" stroke="#7f7f7f" stroke-width="1.00" clip-path="url('#clipping-rect1')" />
		<line x1="419.69" y1="29.00" x2="419.69" y2="27.00" stroke="#7f7f7f" stroke-width="1.00" clip-path="url('#clipping-rect1')" />
		<line x1="413.24" y1="29.00" x2="413.24" y2="27.00" stroke="#7f7f7f" stroke-width="1.00" clip-path="url('#clipping-rect1')" />
		<line x1="406.79" y1="29.00" x2="406.79" y2="27.00" stroke="#7f7f7f" stroke-width="1.00" clip-path="url('#clipping-rect1')" />
		<line x1="400.34" y1="29.00" x2="400.34" y2="26.00" stroke="#7f7f7f" stroke-width="1.00" clip-path="url('#clipping-rect1')" />
		<line x1="393.88" y1="29.00" x2="393.88" y2="27.00" stroke="#7f7f7f" stroke-width="1.00" clip-path="url('#clipping-rect1')" />
		<line x1="387.43" y1="29.00" x2="387.43" y2="27.00" stroke="#7f7f7f" stroke-width="1.00" clip-path="url('#clipping-rect1')" />
		<line x1="380.98" y1="29.00" x2="380.98" y2="27.00" stroke="#7f7f7f" stroke-width="1.00" clip-path="url('#clipping-rect1')" />
		<line x1="374.53" y1="29.00" x2="374.53" y2="27.00" stroke="#7f7f7f" stroke-width="1.00" clip-path="url('#clipping-rect1')" />
		<line x1="368.07" y1="29.00" x2="368.07" y2="26.00" stroke="#7f7f7f" stroke-width="1.00" clip-path="url('#clipping-rect1')" />
		<line x1="361.62" y1="29.00" x2="361.62" y2="27.00" stroke="#7f7f7f" stroke-width="1.00" clip-path="url('#clipping-rect1')" />
		<line x1="355.17" y1="29.00" x2="355.17" y2="27.00" stroke="#7f7f7f" stroke-width="1.00" clip-path="url('#clipping-rect1')" />
		<line x1="348.72" y1="29.00" x2="348.72" y2="27.00" stroke="#7f7f7f" stroke-width="1.00" clip-path="url('#clipping-rect1')" />
		<line x1="342.26" y1="29.00" x2="342.26" y2="27.00" stroke="#7f7f7f" stroke-width="1.00" clip-path="url('#clipping-rect1')" />
		<line x1="335.81" y1="29.00" x2="335.81" y2="26.00" stroke="#7f7f7f" stroke-width="1.00" clip-path="url('#clipping-rect1')" />
		<line x1="329.36" y1="29.00" x2="329.36" y2="27.00" stroke="#7f7f7f" stroke-width="1.00" clip-path="url('#clipping-rect1')" />
		<line x1="322.91" y1="29.00" x2="322.91" y2="27.00" stroke="#7f7f7f" stroke-width="1.00" clip-path="url('#clipping-rect1')" />
		<line x1="316.45" y1="29.00" x2="316.45" y2="27.00" stroke="#7f7f7f" stroke-width="1.00" clip-path="url('#clipping-rect1')" />
		<line x1="310.00" y1="29.00" x2="310.00" y2="27.00" stroke="#7f7f7f" stroke-width="1.00" clip-path="url('#clipping-rect1')" />
		<line x1="303.55" y1="29.00" x2="303.55" y2="26.00" stroke="#7f7f7f" stroke-width="1.00" clip-path="url('#clipping-rect1')" />
		<line x1="297.10" y1="29.00" x2="297.10" y2="27.00" stroke="#7f7f7f" stroke-width="1.00" clip-path="url('#clipping-rect1')" />
		<line x1="290.64" y1="29.00" x2="290.64" y2="27.00" stroke="#7f7f7f" stroke-width="1.00" clip-path="url('#clipping-rect1')" />
		<line x1="284.19" y1="29.00" x2="284.19" y2="27.00" stroke="#7f7f7f" stroke-width="1.00" clip-path="url('#clipping-rect1')" />
		<line x1="277.74" y1="29.00" x2="277.74" y2="27.00" stroke="#7f7f7f" stroke-width="1.00" clip-path="url('#clipping-rect1')" />
		<line x1="271.29" y1="29.00" x2="271.29" y2="26.00" stroke="#7f7f7f" stroke-width="1.00" clip-path="url('#clipping-rect1')" />
		<line x1="264.83" y1="29.00" x2="264.83" y2="27.00" stroke="#7f7f7f" stroke-width="1.00" clip-path="url('#clipping-rect1')" />
		<line x1="258.38" y1="29.00" x2="258.38" y2="27.00" stroke="#7f7f7f" stroke-width="1.00" clip-path="url('#clipping-rect1')" />
		<line x1="251.93" y1="29.00" x2="251.93" y2="27.00" stroke="#7f7f7f" stroke-width="1.00" clip-path="url('#clipping-rect1')" />
		<line x1="245.48" y1="29.00" x2="245.48" y2="27.00" stroke="#7f7f7f" stroke-width="1.00" clip-path="url('#clipping-rect1')" />
		<line x1="239.02" y1="29.00" x2="239.02" y2="26.00" stroke="#7f7f7f" stroke-width="1.00" clip-path="url('#clipping-rect1')" />
		<line x1="232.57" y1="29.00" x2="232.57" y2="27.00" stroke="#7f7f7f" stroke-width="1.00" clip-path="url('#clipping-rect1')" />
		<line x1="226.12" y1="29.00" x2="226.12" y2="27.00" stroke="#7f7f7f" stroke-width="1.00" clip-path="url('#clipping-rect1')" />
		<line x1="219.67" y1="29.00" x2="219.67" y2="27.00" stroke="#7f7f7f" stroke-width="1.00" clip-path="url('#clipping-rect1')" />
		<line x1="213.21" y1="29.00" x2="213.21" y2="27.00" stroke="#7f7f7f" stroke-width="1.00" clip-path="url('#clipping-rect1')" />
		<line x1="206.76" y1="29.00" x2="206.76" y2="26.00" stroke="#7f7f7f" stroke-width="1.00" clip-path="url('#clipping-rect1')" />
		<line x1="200.31" y1="29.00" x2="200.31" y2="27.00" stroke="#7f7f7f" stroke-width="1.00" clip-path="url('#clipping-rect1')" />
		<line x1="193.86" y1="29.00" x2="193.86" y2="27.00" stroke="#7f7f7f" stroke-width="1.00" clip-path="url('#clipping-rect1')" />
		<line x1="187.40" y1="29.00" x2="187.40" y2="27.00" stroke="#7f7f7f" stroke-width="1.00" clip-path="url('#clipping-rect1')" />
		<line x1="180.95" y1="29.00" x2="180.95" y2="27.00" stroke="#7f7f7f" stroke-width="1.00" clip-path="url('#clipping-rect1')" />
		<line x1="174.50" y1="29.00" x2="174.50" y2="26.00" stroke="#7f7f7f" stroke-width="1.00" clip-path="url('#clipping-rect1')" />
		<line x1="168.05" y1="29.00" x2="168.05" y2="27.00" stroke="#7f7f7f" stroke-width="1.00" clip-path="url('#clipping-rect1')" />
		<line x1="161.59" y1="29.00" x2="161.59" y2="27.00" stroke="#7f7f7f" stroke-width="1.00" clip-path="url('#clipping-rect1')" />
		<line x1="155.14" y1="29.00" x2="155.14" y2="27.00" stroke="#7f7f7f" stroke-width="1.00" clip-path="url('#clipping-rect1')" />
		<line x1="148.69" y1="29.00" x2="148.69" y2="27.00" stroke="#7f7f7f" stroke-width="1.00" clip-path="url('#clipping-rect1')" />
		<line x1="142.23" y1="29.00" x2="142.23" y2="26.00" stroke="#7f7f7f" stroke-width="1.00" clip-path="url('#clipping-rect1')" />
		<line x1="135.78" y1="29.00" x2="135.78" y2="27.00" stroke="#7f7f7f" stroke-width="1.00" clip-path="url('#clipping-rect1')" />
		<line x1="129.33" y1="29.00" x2="129.33" y2="27.00" stroke="#7f7f7f" stroke-width="1.00" clip-path="url('#clipping-rect1')" />
		<line x1="122.88" y1="29.00" x2="122.88" y2="27.00" stroke="#7f7f7f" stroke-width="1.00" clip-path="url('#clipping-rect1')" />
		<line x1="116.42" y1="29.00" x2="116.42" y2="27.00" stroke="#7f7f7f" stroke-width="1.00" clip-path="url('#clipping-rect1')" />
		<line x1="109.97" y1="29.00" x2="109.97" y2="26.00" stroke="#7f7f7f" stroke-width="1.00" clip-path="url('#clipping-rect1')" />
		<line x1="103.52" y1="29.00" x2="103.52" y2="27.00" stroke="#7f7f7f" stroke-width="1.00" clip-path="url('#clipping-rect1')" />
		<line x1="97.07" y1="29.00" x2="97.07" y2="27.00" stroke="#7f7f7f" stroke-width="1.00" clip-path="url('#clipping-rect1')" />
		<line x1="90.61" y1="29.00" x2="90.61" y2="27.00" stroke="#7f7f7f" stroke-width="1.00" clip-path="url('#clipping-rect1')" />
		<line x1="84.16" y1="29.00" x2="84.16" y2="27.00" stroke="#7f7f7f" stroke-width="1.00" clip-path="url('#clipping-rect1')" />
		<line x1="77.71" y1="29.00" x2="77.71" y2="26.00" stroke="#7f7f7f" stroke-width="1.00" clip-path="url('#clipping-rect1')" />
		<line x1="71.26" y1="29.00" x2="71.26" y2="27.00" stroke="#7f7f7f" stroke-width="1.00" clip-path="url('#clipping-rect1')" />
		<line x1="64.80" y1="29.00" x2="64.80" y2="27.00" stroke="#7f7f7f" stroke-width="1.00" clip-path="url('#clipping-rect1')" />
		<line x1="58.35" y1="29.00" x2="58.35" y2="27.00" stroke="#7f7f7f" stroke-width="1.00" clip-path="url('#clipping-rect1')" />
		<line x1="51.90" y1="29.00" x2="51.90" y2="27.00" stroke="#7f7f7f" stroke-width="1.00" clip-path="url('#clipping-rect1')" />
		<line x1="45.45" y1="29.00" x2="45.45" y2="26.00" stroke="#7f7f7f" stroke-width="1.00" clip-path="url('#clipping-rect1')" />
		<line x1="38.99" y1="29.00" x2="38.99" y2="27.00" stroke="#7f7f7f" stroke-width="1.00" clip-path="url('#clipping-rect1')" />
		<line x1="32.54" y1="29.00" x2="32.54" y2="27.00" stroke="#7f7f7f" stroke-width="1.00" clip-path="url('#clipping-rect1')" />
		<line x1="26.09" y1="29.00" x2="26.09" y2="27.00" stroke="#7f7f7f" stroke-width="1.00" clip-path="url('#clipping-rect1')" />
		<line x1="19.64" y1="29.00" x2="19.64" y2="27.00" stroke="#7f7f7f" stroke-width="1.00" clip-path="url('#clipping-rect1')" />
		<line x1="13.18" y1="29.00" x2="13.18" y2="26.00" stroke="#7f7f7f" stroke-width="1.00" clip-path="url('#clipping-rect1')" />
		<line x1="6.73" y1="29.00" x2="6.73" y2="27.00" stroke="#7f7f7f" stroke-width="1.00" clip-path="url('#clipping-rect1')" />
		<line x1="0.28" y1="29.00" x2="0.28" y2="27.00" stroke="#7f7f7f" stroke-width="1.00" clip-path="url('#clipping-rect1')" />
		<text x="821.75" y="24.00" font-family="Helvetica" font-size="10" fill="#333333" clip-path="url('#clipping-rect1')" >200 K</text>
		<line x1="819.75" y1="31.00" x2="819.75" y2="16.00" stroke="#7f7f7f" stroke-width="1.00" clip-path="url('#clipping-rect1')" />
		<text x="757.23" y="24.00" font-family="Helvetica" font-size="10" fill="#333333" clip-path="url('#clipping-rect1')" >220 K</text>
		<line x1="755.23" y1="31.00" x2="755.23" y2="16.00" stroke="#7f7f7f" stroke-width="1.00" clip-path="url('#clipping-rect1')" />
		<text x="692.70" y="24.00" font-family="Helvetica" font-size="10" fill="#333333" clip-path="url('#clipping-rect1')" >240 K</text>
		<line x1="690.70" y1="31.00" x2="690.70" y2="16.00" stroke="#7f7f7f" stroke-width="1.00" clip-path="url('#clipping-rect1')" />
		<text x="628.18" y="24.00" font-family="Helvetica" font-size="10" fill="#333333" clip-path="url('#clipping-rect1')" >260 K</text>
		<line x1="626.18" y1="31.00" x2="626.18" y2="16.00" stroke="#7f7f7f" stroke-width="1.00" clip-path="url('#clipping-rect1')" />
		<text x="563.65" y="24.00" font-family="Helvetica" font-size="10" fill="#333333" clip-path="url('#clipping-rect1')" >280 K</text>
		<line x1="561.65" y1="31.00" x2="561.65" y2="16.00" stroke="#7f7f7f" stroke-width="1.00" clip-path="url('#clipping-rect1')" />
		<text x="499.12" y="24.00" font-family="Helvetica" font-size="10" fill="#333333" clip-path="url('#clipping-rect1')" >300 K</text>
		<line x1="497.12" y1="31.00" x2="497.12" y2="16.00" stroke="#7f7f7f" stroke-width="1.00" clip-path="url('#clipping-rect1')" />
		<text x="434.60" y="24.00" font-family="Helvetica" font-size="10" fill="#333333" clip-path="url('#clipping-rect1')" >320 K</text>
		<line x1="432.60" y1="31.00" x2="432.60" y2="16.00" stroke="#7f7f7f" stroke-width="1.00" clip-path="url('#clipping-rect1')" />
		<text x="370.07" y="24.00" font-family="Helvetica" font-size="10" fill="#333333" clip-path="url('#clipping-rect1')" >340 K</text>
		<line x1="368.07" y1="31.00" x2="368.07" y2="16.00" stroke="#7f7f7f" stroke-width="1.00" clip-path="url('#clipping-rect1')" />
		<text x="305.55" y="24.00" font-family="Helvetica" font-size="10" fill="#333333" clip-path="url('#clipping-rect1')" >360 K</text>
		<line x1="303.55" y1="31.00" x2="303.55" y2="16.00" stroke="#7f7f7f" stroke-width="1.00" clip-path="url('#clipping-rect1')" />
		<text x="241.02" y="24.00" font-family="Helvetica" font-size="10" fill="#333333" clip-path="url('#clipping-rect1')" >380 K</text>
		<line x1="239.02" y1="31.00" x2="239.02" y2="16.00" stroke="#7f7f7f" stroke-width="1.00" clip-path="url('#clipping-rect1')" />
		<text x="176.50" y="24.00" font-family="Helvetica" font-size="10" fill="#333333" clip-path="url('#clipping-rect1')" >400 K</text>
		<line x1="174.50" y1="31.00" x2="174.50" y2="16.00" stroke="#7f7f7f" stroke-width="1.00" clip-path="url('#clipping-rect1')" />
		<text x="111.97" y="24.00" font-family="Helvetica" font-size="10" fill="#333333" clip-path="url('#clipping-rect1')" >420 K</text>
		<line x1="109.97" y1="31.00" x2="109.97" y2="16.00" stroke="#7f7f7f" stroke-width="1.00" clip-path="url('#clipping-rect1')" />
		<text x="47.45" y="24.00" font-family="Helvetica" font-size="10" fill="#333333" clip-path="url('#clipping-rect1')" >440 K</text>
		<line x1="45.45" y1="31.00" x2="45.45" y2="16.00" stroke="#7f7f7f" stroke-width="1.00" clip-path="url('#clipping-rect1')" />
		<line x1="819.93" y1="281.00" x2="819.93" y2="31.00" stroke="#ebebeb" stroke-width="1.00" />
		<line x1="755.86" y1="281.00" x2="755.86" y2="31.00" stroke="#ebebeb" stroke-width="1.00" />
		<line x1="690.79" y1="281.00" x2="690.79" y2="31.00" stroke="#ebebeb" stroke-width="1.00" />
		<line x1="626.71" y1="281.00" x2="626.71" y2="31.00" stroke="#ebebeb" stroke-width="1.00" />
		<line x1="561.64" y1="281.00" x2="561.64" y2="31.00" stroke="#ebebeb" stroke-width="1.00" />
		<line x1="497.57" y1="281.00" x2="497.57" y2="31.00" stroke="#ebebeb" stroke-width="1.00" />
		<line x1="432.49" y1="281.00" x2="432.49" y2="31.00" stroke="#ebebeb" stroke-width="1.00" />
		<line x1="368.42" y1="281.00" x2="368.42" y2="31.00" stroke="#ebebeb" stroke-width="1.00" />
		<line x1="303.35" y1="281.00" x2="303.35" y2="31.00" stroke="#ebebeb" stroke-width="1.00" />
		<line x1="239.27" y1="281.00" x2="239.27" y2="31.00" stroke="#ebebeb" stroke-width="1.00" />
		<line x1="174.20" y1="281.00" x2="174.20" y2="31.00" stroke="#ebebeb" stroke-width="1.00" />
		<line x1="109.12" y1="281.00" x2="109.12" y2="31.00" stroke="#ebebeb" stroke-width="1.00" />
		<line x1="45.05" y1="281.00" x2="45.05" y2="31.00" stroke="#ebebeb" stroke-width="1.00" />
		<polygon fill="url('#gradient1')" shape-rendering="crispEdges" points="0.00,37.50 0.00,33.00 879.00,33.00 879.00,37.50 879.00,42.00 0.00,42.00 " />
		<line x1="879.00" y1="42.00" x2="879.00" y2="33.00" stroke="#6c6c6c" stroke-width="1.00" stroke-linejoin="round" />
		<line x1="879.00" y1="33.00" x2="0.00" y2="33.00" stroke="#6c6c6c" stroke-width="1.00" stroke-linejoin="round" />
		<line x1="0.00" y1="33.00" x2="0.00" y2="42.00" stroke="#6c6c6c" stroke-width="1.00" stroke-linejoin="round" />
		<line x1="879.00" y1="42.00" x2="0.00" y2="42.00" stroke="#6c6c6c" stroke-width="1.00" stroke-linejoin="round" />
		<polygon fill="#c6c6c6" shape-rendering="crispEdges" points="532.47,61.00 532.47,71.00 533.47,71.00 533.47,61.00 " />
		<polygon fill="url('#gradient2')" shape-rendering="crispEdges" points="0.00,58.00 879.00,58.00 879.00,44.00 0.00,44.00 " clip-path="url('#clipping-rect2')" />
		<text x="0.00" y="54.00" font-family="Helvetica" font-size="12" fill="#333333" >(U) Alignment for group templates, BLAST Results for: ref|NM_004727.3|</text>
		<polygon fill="#e16868" shape-rendering="crispEdges" points="532.47,91.00 532.47,101.00 533.47,101.00 533.47,91.00 " />
		<polygon fill="url('#gradient2')" shape-rendering="crispEdges" points="0.00,88.00 879.00,88.00 879.00,74.00 0.00,74.00 " clip-path="url('#clipping-rect2')" />
		<text x="0.00" y="84.00" font-family="Helvetica" font-size="12" fill="#333333" >(U) BLAST Results for: ref|NM_004727.3|</text>
		<polygon fill="#c6c6c6" shape-rendering="crispEdges" points="675.90,121.00 675.90,131.00 677.71,131.00 677.71,121.00 " />
		<polygon fill="url('#gradient2')" shape-rendering="crispEdges" points="0.00,118.00 879.00,118.00 879.00,104.00 0.00,104.00 " clip-path="url('#clipping-rect2')" />
		<text x="0.00" y="114.00" font-family="Helvetica" font-size="12" fill="#333333" >(U) Alignment for group templates, BLAST Results for: ref|NM_004727.3|</text>
		<polygon fill="#e85050" shape-rendering="crispEdges" points="675.90,151.00 675.90,161.00 677.71,161.00 677.71,151.00 " />
		<polygon fill="url('#gradient2')" shape-rendering="crispEdges" points="0.00,148.00 879.00,148.00 879.00,134.00 0.00,134.00 " clip-path="url('#clipping-rect2')" />
		<text x="0.00" y="144.00" font-family="Helvetica" font-size="12" fill="#333333" >(U) BLAST Results for: ref|NM_004727.3|</text>
		<line x1="879.00" y1="183.00" x2="879.00" y2="211.00" stroke="#009900" stroke-opacity="0.10" stroke-width="1.00" stroke-linejoin="round" />
		<line x1="879.00" y1="211.00" x2="568.21" y2="211.00" stroke="#009900" stroke-opacity="0.10" stroke-width="1.00" stroke-linejoin="round" />
		<line x1="568.21" y1="211.00" x2="568.21" y2="183.00" stroke="#009900" stroke-opacity="0.10" stroke-width="1.00" stroke-linejoin="round" />
		<line x1="879.00" y1="183.00" x2="568.21" y2="183.00" stroke="#009900" stroke-opacity="0.10" stroke-width="1.00" stroke-linejoin="round" />
		<text x="736.69" y="192.00" font-family="Helvetica" font-size="10" fill="#124d94" >ENSSPUG00000018356</text>
		<line x1="879.00" y1="203.50" x2="850.14" y2="203.50" stroke="#4ba34b" stroke-width="2.00" />
		<polygon fill="#b2b2b2" shape-rendering="crispEdges" points="860.17,203.50 868.97,199.10 866.77,203.50 868.97,207.90 " />
		<polygon fill="#1e8c1e" shape-rendering="crispEdges" points="849.42,198.00 849.42,209.00 850.42,209.00 850.42,198.00 " />
		<line x1="849.70" y1="203.50" x2="750.03" y2="203.50" stroke="#4ba34b" stroke-width="2.00" />
		<polygon fill="#b2b2b2" shape-rendering="crispEdges" points="795.46,203.50 804.26,199.10 802.06,203.50 804.26,207.90 " />
		<polygon fill="#1e8c1e" shape-rendering="crispEdges" points="749.30,198.00 749.30,209.00 750.30,209.00 750.30,198.00 " />
		<line x1="749.56" y1="203.50" x2="735.20" y2="203.50" stroke="#4ba34b" stroke-width="2.00" />
		<polygon fill="#1e8c1e" shape-rendering="crispEdges" points="734.51,198.00 734.51,209.00 735.51,209.00 735.51,198.00 " />
		<line x1="734.81" y1="203.50" x2="734.51" y2="203.50" stroke="#4ba34b" stroke-width="2.00" />
		<polygon fill="#1e8c1e" shape-rendering="crispEdges" points="733.87,198.00 733.87,209.00 734.87,209.00 734.87,198.00 " />
		<line x1="734.22" y1="203.50" x2="733.90" y2="203.50" stroke="#4ba34b" stroke-width="2.00" />
		<polygon fill="#1e8c1e" shape-rendering="crispEdges" points="733.21,198.00 733.21,209.00 734.21,209.00 734.21,198.00 " />
		<line x1="733.52" y1="203.50" x2="729.99" y2="203.50" stroke="#4ba34b" stroke-width="2.00" />
		<polygon fill="#1e8c1e" shape-rendering="crispEdges" points="729.22,198.00 729.22,209.00 730.22,209.00 730.22,198.00 " />
		<line x1="729.44" y1="203.50" x2="720.15" y2="203.50" stroke="#4ba34b" stroke-width="2.00" />
		<polygon fill="#1e8c1e" shape-rendering="crispEdges" points="719.47,198.00 719.47,209.00 720.47,209.00 720.47,198.00 " />
		<line x1="719.80" y1="203.50" x2="710.27" y2="203.50" stroke="#4ba34b" stroke-width="2.00" />
		<polygon fill="#1e8c1e" shape-rendering="crispEdges" points="709.50,198.00 709.50,209.00 710.50,209.00 710.50,198.00 " />
		<line x1="709.72" y1="203.50" x2="698.42" y2="203.50" stroke="#4ba34b" stroke-width="2.00" />
		<polygon fill="#1e8c1e" shape-rendering="crispEdges" points="697.65,198.00 697.65,209.00 698.65,209.00 698.65,198.00 " />
		<line x1="697.87" y1="203.50" x2="690.66" y2="203.50" stroke="#4ba34b" stroke-width="2.00" />
		<polygon fill="#1e8c1e" shape-rendering="crispEdges" points="689.94,198.00 689.94,209.00 690.94,209.00 690.94,198.00 " />
		<line x1="690.22" y1="203.50" x2="689.61" y2="203.50" stroke="#4ba34b" stroke-width="2.00" />
		<polygon fill="#1e8c1e" shape-rendering="crispEdges" points="689.07,198.00 689.07,209.00 690.07,209.00 690.07,198.00 " />
		<polygon fill="#ffffff" shape-rendering="crispEdges" points="760.23,209.00 760.23,198.00 878.00,198.00 878.00,209.00 " />
		<text x="764.23" y="207.00" font-family="Helvetica" font-size="10" fill="#124d94" >ENSSPUT00000025535.1</text>
		<polygon fill="#ffffff" shape-rendering="crispEdges" points="570.21,209.00 570.21,198.00 685.54,198.00 685.54,209.00 " />
		<text x="571.21" y="207.00" font-family="Helvetica" font-size="10" fill="#124d94" >ENSSPUP00000023937.1</text>
		<line x1="799.03" y1="216.00" x2="799.03" y2="244.00" stroke="#009900" stroke-opacity="0.10" stroke-width="1.00" stroke-linejoin="round" />
		<line x1="799.03" y1="244.00" x2="544.24" y2="244.00" stroke="#009900" stroke-opacity="0.10" stroke-width="1.00" stroke-linejoin="round" />
		<line x1="544.24" y1="244.00" x2="544.24" y2="216.00" stroke="#009900" stroke-opacity="0.10" stroke-width="1.00" stroke-linejoin="round" />
		<line x1="799.03" y1="216.00" x2="544.24" y2="216.00" stroke="#009900" stroke-opacity="0.10" stroke-width="1.00" stroke-linejoin="round" />
		<text x="617.29" y="225.00" font-family="Helvetica" font-size="10" fill="#124d94" >ENSSPUG00000018363</text>
		<polygon fill="#1e8c1e" shape-rendering="crispEdges" points="674.97,231.00 674.97,242.00 677.70,242.00 677.70,231.00 " />
		<line x1="674.97" y1="236.50" x2="665.02" y2="236.50" stroke="#4ba34b" stroke-width="2.00" />
		<polygon fill="#1e8c1e" shape-rendering="crispEdges" points="664.51,231.00 664.51,242.00 665.51,242.00 665.51,231.00 " />
		<polygon fill="#ffffff" shape-rendering="crispEdges" points="677.70,242.00 677.70,231.00 796.03,231.00 796.03,242.00 " />
		<text x="681.70" y="240.00" font-family="Helvetica" font-size="10" fill="#124d94" >ENSSPUP00000023944.1</text>
		<polygon fill="#ffffff" shape-rendering="crispEdges" points="546.24,242.00 546.24,231.00 661.00,231.00 661.00,242.00 " />
		<text x="547.24" y="240.00" font-family="Helvetica" font-size="10" fill="#124d94" >ENSSPUT00000025542.1</text>
		<line x1="670.78" y1="249.00" x2="670.78" y2="277.00" stroke="#009900" stroke-opacity="0.10" stroke-width="1.00" stroke-linejoin="round" />
		<line x1="670.78" y1="277.00" x2="427.25" y2="277.00" stroke="#009900" stroke-opacity="0.10" stroke-width="1.00" stroke-linejoin="round" />
		<line x1="427.25" y1="277.00" x2="427.25" y2="249.00" stroke="#009900" stroke-opacity="0.10" stroke-width="1.00" stroke-linejoin="round" />
		<line x1="670.78" y1="249.00" x2="427.25" y2="249.00" stroke="#009900" stroke-opacity="0.10" stroke-width="1.00" stroke-linejoin="round" />
		<text x="494.64" y="258.00" font-family="Helvetica" font-size="10" fill="#124d94" >ENSSPUG00000018368</text>
		<polygon fill="#1e8c1e" shape-rendering="crispEdges" points="549.32,264.00 549.32,275.00 550.32,275.00 550.32,264.00 " />
		<line x1="549.63" y1="269.50" x2="549.31" y2="269.50" stroke="#4ba34b" stroke-width="2.00" />
		<polygon fill="#1e8c1e" shape-rendering="crispEdges" points="548.71,264.00 548.71,275.00 549.71,275.00 549.71,264.00 " />
		<line x1="549.10" y1="269.50" x2="548.82" y2="269.50" stroke="#4ba34b" stroke-width="2.00" />
		<polygon fill="#1e8c1e" shape-rendering="crispEdges" points="548.20,264.00 548.20,275.00 549.20,275.00 549.20,264.00 " />
		<polygon fill="#ffffff" shape-rendering="crispEdges" points="550.01,275.00 550.01,264.00 667.78,264.00 667.78,275.00 " />
		<text x="554.01" y="273.00" font-family="Helvetica" font-size="10" fill="#124d94" >ENSSPUT00000025548.1</text>
		<polygon fill="#ffffff" shape-rendering="crispEdges" points="429.25,275.00 429.25,264.00 544.58,264.00 544.58,275.00 " />
		<text x="430.25" y="273.00" font-family="Helvetica" font-size="10" fill="#124d94" >ENSSPUP00000023949.1</text>
		<line x1="493.85" y1="216.00" x2="493.85" y2="244.00" stroke="#009900" stroke-opacity="0.10" stroke-width="1.00" stroke-linejoin="round" />
		<line x1="493.85" y1="244.00" x2="0.00" y2="244.00" stroke="#009900" stroke-opacity="0.10" stroke-width="1.00" stroke-linejoin="round" />
		<line x1="0.00" y1="244.00" x2="0.00" y2="216.00" stroke="#009900" stroke-opacity="0.10" stroke-width="1.00" stroke-linejoin="round" />
		<line x1="493.85" y1="216.00" x2="0.00" y2="216.00" stroke="#009900" stroke-opacity="0.10" stroke-width="1.00" stroke-linejoin="round" />
		<text x="165.58" y="225.00" font-family="Helvetica" font-size="10" fill="#124d94" >ENSSPUG00000018371</text>
		<polygon fill="#a5d1a5" shape-rendering="crispEdges" points="371.80,231.00 371.80,242.00 373.08,242.00 373.08,231.00 " />
		<line x1="371.80" y1="236.50" x2="358.18" y2="236.50" stroke="#4ba34b" stroke-width="2.00" />
		<polygon fill="#a5d1a5" shape-rendering="crispEdges" points="357.66,231.00 357.66,242.00 358.66,242.00 358.66,231.00 " />
		<polygon fill="#1e8c1e" shape-rendering="crispEdges" points="357.46,231.00 357.46,242.00 358.46,242.00 358.46,231.00 " />
		<line x1="357.78" y1="236.50" x2="245.75" y2="236.50" stroke="#4ba34b" stroke-width="2.00" />
		<polygon fill="#b2b2b2" shape-rendering="crispEdges" points="297.36,236.50 306.16,232.10 303.96,236.50 306.16,240.90 " />
		<polygon fill="#1e8c1e" shape-rendering="crispEdges" points="245.05,231.00 245.05,242.00 246.05,242.00 246.05,231.00 " />
		<line x1="245.34" y1="236.50" x2="202.64" y2="236.50" stroke="#4ba34b" stroke-width="2.00" />
		<polygon fill="#b2b2b2" shape-rendering="crispEdges" points="219.59,236.50 228.39,232.10 226.19,236.50 228.39,240.90 " />
		<polygon fill="#1e8c1e" shape-rendering="crispEdges" points="201.85,231.00 201.85,242.00 202.85,242.00 202.85,231.00 " />
		<line x1="202.05" y1="236.50" x2="201.39" y2="236.50" stroke="#4ba34b" stroke-width="2.00" />
		<polygon fill="#1e8c1e" shape-rendering="crispEdges" points="200.69,231.00 200.69,242.00 201.69,242.00 201.69,231.00 " />
		<line x1="200.98" y1="236.50" x2="187.28" y2="236.50" stroke="#4ba34b" stroke-width="2.00" />
		<polygon fill="#1e8c1e" shape-rendering="crispEdges" points="186.61,231.00 186.61,242.00 187.61,242.00 187.61,231.00 " />
		<line x1="186.93" y1="236.50" x2="174.31" y2="236.50" stroke="#4ba34b" stroke-width="2.00" />
		<polygon fill="#1e8c1e" shape-rendering="crispEdges" points="173.65,231.00 173.65,242.00 174.65,242.00 174.65,231.00 " />
		<line x1="174.00" y1="236.50" x2="173.71" y2="236.50" stroke="#4ba34b" stroke-width="2.00" />
		<polygon fill="#1e8c1e" shape-rendering="crispEdges" points="173.00,231.00 173.00,242.00 174.00,242.00 174.00,231.00 " />
		<line x1="173.30" y1="236.50" x2="133.39" y2="236.50" stroke="#4ba34b" stroke-width="2.00" />
		<polygon fill="#b2b2b2" shape-rendering="crispEdges" points="148.94,236.50 157.74,232.10 155.54,236.50 157.74,240.90 " />
		<polygon fill="#1e8c1e" shape-rendering="crispEdges" points="132.73,231.00 132.73,242.00 133.73,242.00 133.73,231.00 " />
		<line x1="133.06" y1="236.50" x2="125.72" y2="236.50" stroke="#4ba34b" stroke-width="2.00" />
		<polygon fill="#1e8c1e" shape-rendering="crispEdges" points="125.09,231.00 125.09,242.00 126.09,242.00 126.09,231.00 " />
		<line x1="125.45" y1="236.50" x2="125.12" y2="236.50" stroke="#4ba34b" stroke-width="2.00" />
		<polygon fill="#1e8c1e" shape-rendering="crispEdges" points="124.45,231.00 124.45,242.00 125.45,242.00 125.45,231.00 " />
		<line x1="124.78" y1="236.50" x2="118.51" y2="236.50" stroke="#4ba34b" stroke-width="2.00" />
		<polygon fill="#1e8c1e" shape-rendering="crispEdges" points="117.80,231.00 117.80,242.00 118.80,242.00 118.80,231.00 " />
		<line x1="118.09" y1="236.50" x2="79.21" y2="236.50" stroke="#4ba34b" stroke-width="2.00" />
		<polygon fill="#b2b2b2" shape-rendering="crispEdges" points="94.25,236.50 103.05,232.10 100.85,236.50 103.05,240.90 " />
		<polygon fill="#1e8c1e" shape-rendering="crispEdges" points="78.51,231.00 78.51,242.00 79.51,242.00 79.51,231.00 " />
		<line x1="78.81" y1="236.50" x2="72.18" y2="236.50" stroke="#4ba34b" stroke-width="2.00" />
		<polygon fill="#1e8c1e" shape-rendering="crispEdges" points="71.55,231.00 71.55,242.00 72.55,242.00 72.55,231.00 " />
		<line x1="71.93" y1="236.50" x2="67.56" y2="236.50" stroke="#4ba34b" stroke-width="2.00" />
		<polygon fill="#1e8c1e" shape-rendering="crispEdges" points="66.91,231.00 66.91,242.00 67.91,242.00 67.91,231.00 " />
		<line x1="67.26" y1="236.50" x2="66.66" y2="236.50" stroke="#4ba34b" stroke-width="2.00" />
		<polygon fill="#1e8c1e" shape-rendering="crispEdges" points="65.96,231.00 65.96,242.00 66.96,242.00 66.96,231.00 " />
		<polygon fill="#a5d1a5" shape-rendering="crispEdges" points="65.49,231.00 65.49,242.00 66.49,242.00 66.49,231.00 " />
		<polygon fill="#ffffff" shape-rendering="crispEdges" points="373.08,242.00 373.08,231.00 490.85,231.00 490.85,242.00 " />
		<text x="377.08" y="240.00" font-family="Helvetica" font-size="10" fill="#124d94" >ENSSPUT00000025556.1</text>
		<polygon fill="#ffffff" shape-rendering="crispEdges" points="-0.00,242.00 -0.00,231.00 115.32,231.00 115.32,242.00 " />
		<text x="1.00" y="240.00" font-family="Helvetica" font-size="10" fill="#124d94" >ENSSPUP00000023957.1</text>
		<line x1="148.51" y1="183.00" x2="148.51" y2="211.00" stroke="#009900" stroke-opacity="0.10" stroke-width="1.00" stroke-linejoin="round" />
		<line x1="148.51" y1="211.00" x2="0.00" y2="211.00" stroke="#009900" stroke-opacity="0.10" stroke-width="1.00" stroke-linejoin="round" />
		<line x1="0.00" y1="211.00" x2="0.00" y2="183.00" stroke="#009900" stroke-opacity="0.10" stroke-width="1.00" stroke-linejoin="round" />
		<line x1="148.51" y1="183.00" x2="0.00" y2="183.00" stroke="#009900" stroke-opacity="0.10" stroke-width="1.00" stroke-linejoin="round" />
		<text x="-337.17" y="192.00" font-family="Helvetica" font-size="10" fill="#124d94" >ENSSPUG00000018385</text>
		<polygon fill="#1e8c1e" shape-rendering="crispEdges" points="26.38,198.00 26.38,209.00 27.38,209.00 27.38,198.00 " />
		<line x1="26.58" y1="203.50" x2="0.00" y2="203.50" stroke="#4ba34b" stroke-width="2.00" />
		<polygon fill="#b2b2b2" shape-rendering="crispEdges" points="17.69,203.50 8.89,199.10 11.09,203.50 8.89,207.90 " />
		<polygon fill="#ffffff" shape-rendering="crispEdges" points="27.18,209.00 27.18,198.00 145.51,198.00 145.51,209.00 " />
		<text x="31.18" y="207.00" font-family="Helvetica" font-size="10" fill="#124d94" >ENSSPUP00000024010.1</text>
		<polygon fill="url('#gradient3')" shape-rendering="crispEdges" points="0.00,178.00 879.00,178.00 879.00,164.00 0.00,164.00 " clip-path="url('#clipping-rect2')" />
		<text x="0.00" y="174.00" font-family="Helvetica" font-size="12" fill="#333333" >Genes, Ensembl release 114</text>
		<polygon fill="#0000ff" fill-opacity="0.20" shape-rendering="crispEdges" points="676.50,31.50 676.50,23.10 676.50,23.10 " />
		<polygon fill="#0000ff" fill-opacity="0.20" shape-rendering="crispEdges" points="676.50,31.50 676.50,31.50 676.50,23.10 " />
		<line x1="676.50" y1="30.50" x2="676.50" y2="23.10" stroke="#0000ff" stroke-opacity="0.40" stroke-width="1.00" />
		<line x1="676.50" y1="30.50" x2="676.50" y2="23.10" stroke="#0000ff" stroke-opacity="0.40" stroke-width="1.00" />
		<polygon fill="#0000ff" shape-rendering="crispEdges" points="670.79,22.35 670.50,20.50 670.79,18.65 671.65,16.97 672.97,15.65 674.65,14.79 676.50,14.50 676.50,26.50 674.65,26.21 672.97,25.35 671.65,24.03 " />
		<polygon fill="#0000ff" fill-opacity="0.60" shape-rendering="crispEdges" points="706.95,26.50 706.95,14.50 676.50,14.50 676.50,26.50 " />
		<text x="678.50" y="23.50" font-family="Helvetica" font-size="10" fill="#ffffff" >rpp38</text>
		<polygon fill="#0000ff" fill-opacity="0.20" shape-rendering="crispEdges" points="676.77,282.00 676.77,31.00 676.77,31.00 " />
		<polygon fill="#0000ff" fill-opacity="0.20" shape-rendering="crispEdges" points="676.77,282.00 676.77,282.00 676.77,31.00 " />
		<line x1="676.77" y1="281.00" x2="676.77" y2="31.00" stroke="#0000ff" stroke-opacity="0.40" stroke-width="1.00" />
		<line x1="676.77" y1="281.00" x2="676.77" y2="31.00" stroke="#0000ff" stroke-opacity="0.40" stroke-width="1.00" />
		<polygon fill="#0000ff" fill-opacity="0.20" shape-rendering="crispEdges" points="523.50,23.10 523.50,31.50 522.50,31.50 522.50,23.10 " />
		<line x1="522.50" y1="30.50" x2="522.50" y2="23.10" stroke="#0000ff" stroke-opacity="0.40" stroke-width="1.00" />
		<line x1="523.50" y1="30.50" x2="523.50" y2="23.10" stroke="#0000ff" stroke-opacity="0.40" stroke-width="1.00" />
		<polygon fill="#0000ff" shape-rendering="crispEdges" points="516.79,22.35 516.50,20.50 516.79,18.65 517.65,16.97 518.97,15.65 520.65,14.79 522.50,14.50 522.50,26.50 520.65,26.21 518.97,25.35 517.65,24.03 " />
		<polygon fill="#0000ff" fill-opacity="0.60" shape-rendering="crispEdges" points="546.34,26.50 546.34,14.50 522.50,14.50 522.50,26.50 " />
		<text x="524.50" y="23.50" font-family="Helvetica" font-size="10" fill="#ffffff" >olah</text>
		<polygon fill="#0000ff" fill-opacity="0.20" shape-rendering="crispEdges" points="523.60,31.00 523.60,282.00 522.59,282.00 522.59,31.00 " />
		<line x1="522.59" y1="281.00" x2="522.59" y2="31.00" stroke="#0000ff" stroke-opacity="0.40" stroke-width="1.00" />
		<line x1="523.60" y1="281.00" x2="523.60" y2="31.00" stroke="#0000ff" stroke-opacity="0.40" stroke-width="1.00" />
		<polygon fill="#0000ff" fill-opacity="0.20" shape-rendering="crispEdges" points="548.50,31.50 548.50,23.10 548.50,23.10 " />
		<polygon fill="#0000ff" fill-opacity="0.20" shape-rendering="crispEdges" points="548.50,31.50 548.50,31.50 548.50,23.10 " />
		<line x1="548.50" y1="30.50" x2="548.50" y2="23.10" stroke="#0000ff" stroke-opacity="0.40" stroke-width="1.00" />
		<line x1="548.50" y1="30.50" x2="548.50" y2="23.10" stroke="#0000ff" stroke-opacity="0.40" stroke-width="1.00" />
		<polygon fill="#0000ff" shape-rendering="crispEdges" points="542.79,22.35 542.50,20.50 542.79,18.65 543.65,16.97 544.97,15.65 546.65,14.79 548.50,14.50 548.50,26.50 546.65,26.21 544.97,25.35 543.65,24.03 " />
		<polygon fill="#0000ff" fill-opacity="0.60" shape-rendering="crispEdges" points="587.31,26.50 587.31,14.50 548.50,14.50 548.50,26.50 " />
		<text x="550.50" y="23.50" font-family="Helvetica" font-size="10" fill="#ffffff" >ACBD7</text>
		<polygon fill="#0000ff" fill-opacity="0.20" shape-rendering="crispEdges" points="548.62,282.00 548.62,31.00 548.62,31.00 " />
		<polygon fill="#0000ff" fill-opacity="0.20" shape-rendering="crispEdges" points="548.62,282.00 548.62,282.00 548.62,31.00 " />
		<line x1="548.62" y1="281.00" x2="548.62" y2="31.00" stroke="#0000ff" stroke-opacity="0.40" stroke-width="1.00" />
		<line x1="548.62" y1="281.00" x2="548.62" y2="31.00" stroke="#0000ff" stroke-opacity="0.40" stroke-width="1.00" />
		<polygon fill="#0000ff" fill-opacity="0.20" shape-rendering="crispEdges" points="276.50,31.50 276.50,23.10 276.50,23.10 " />
		<polygon fill="#0000ff" fill-opacity="0.20" shape-rendering="crispEdges" points="276.50,31.50 276.50,31.50 276.50,23.10 " />
		<line x1="276.50" y1="30.50" x2="276.50" y2="23.10" stroke="#0000ff" stroke-opacity="0.40" stroke-width="1.00" />
		<line x1="276.50" y1="30.50" x2="276.50" y2="23.10" stroke="#0000ff" stroke-opacity="0.40" stroke-width="1.00" />
		<polygon fill="#0000ff" shape-rendering="crispEdges" points="270.79,22.35 270.50,20.50 270.79,18.65 271.65,16.97 272.97,15.65 274.65,14.79 276.50,14.50 276.50,26.50 274.65,26.21 272.97,25.35 271.65,24.03 " />
		<polygon fill="#0000ff" fill-opacity="0.60" shape-rendering="crispEdges" points="310.16,26.50 310.16,14.50 276.50,14.50 276.50,26.50 " />
		<text x="278.50" y="23.50" font-family="Helvetica" font-size="10" fill="#ffffff" >CROT</text>
		<polygon fill="#0000ff" fill-opacity="0.20" shape-rendering="crispEdges" points="276.31,282.00 276.31,31.00 276.31,31.00 " />
		<polygon fill="#0000ff" fill-opacity="0.20" shape-rendering="crispEdges" points="276.31,282.00 276.31,282.00 276.31,31.00 " />
		<line x1="276.31" y1="281.00" x2="276.31" y2="31.00" stroke="#0000ff" stroke-opacity="0.40" stroke-width="1.00" />
		<line x1="276.31" y1="281.00" x2="276.31" y2="31.00" stroke="#0000ff" stroke-opacity="0.40" stroke-width="1.00" />
		<polygon fill="#0000ff" fill-opacity="0.20" shape-rendering="crispEdges" points="792.50,31.50 792.50,23.10 792.50,23.10 " />
		<polygon fill="#0000ff" fill-opacity="0.20" shape-rendering="crispEdges" points="792.50,31.50 792.50,31.50 792.50,23.10 " />
		<line x1="792.50" y1="30.50" x2="792.50" y2="23.10" stroke="#0000ff" stroke-opacity="0.40" stroke-width="1.00" />
		<line x1="792.50" y1="30.50" x2="792.50" y2="23.10" stroke="#0000ff" stroke-opacity="0.40" stroke-width="1.00" />
		<polygon fill="#0000ff" shape-rendering="crispEdges" points="786.79,22.35 786.50,20.50 786.79,18.65 787.65,16.97 788.97,15.65 790.65,14.79 792.50,14.50 792.50,26.50 790.65,26.21 788.97,25.35 787.65,24.03 " />
		<polygon fill="#0000ff" fill-opacity="0.60" shape-rendering="crispEdges" points="824.50,26.50 824.50,14.50 792.50,14.50 792.50,26.50 " />
		<text x="794.50" y="23.50" font-family="Helvetica" font-size="10" fill="#ffffff" >NMT2</text>
		<polygon fill="#0000ff" fill-opacity="0.20" shape-rendering="crispEdges" points="792.90,282.00 792.90,31.00 792.90,31.00 " />
		<polygon fill="#0000ff" fill-opacity="0.20" shape-rendering="crispEdges" points="792.90,282.00 792.90,282.00 792.90,31.00 " />
		<line x1="792.90" y1="281.00" x2="792.90" y2="31.00" stroke="#0000ff" stroke-opacity="0.40" stroke-width="1.00" />
		<line x1="792.90" y1="281.00" x2="792.90" y2="31.00" stroke="#0000ff" stroke-opacity="0.40" stroke-width="1.00" />
		<polygon fill="#0000ff" fill-opacity="0.20" shape-rendering="crispEdges" points="24.50,31.50 24.50,23.10 24.50,23.10 " />
		<polygon fill="#0000ff" fill-opacity="0.20" shape-rendering="crispEdges" points="24.50,31.50 24.50,31.50 24.50,23.10 " />
		<line x1="24.50" y1="30.50" x2="24.50" y2="23.10" stroke="#0000ff" stroke-opacity="0.40" stroke-width="1.00" />
		<line x1="24.50" y1="30.50" x2="24.50" y2="23.10" stroke="#0000ff" stroke-opacity="0.40" stroke-width="1.00" />
		<polygon fill="#0000ff" shape-rendering="crispEdges" points="18.79,22.35 18.50,20.50 18.79,18.65 19.65,16.97 20.97,15.65 22.65,14.79 24.50,14.50 24.50,26.50 22.65,26.21 20.97,25.35 19.65,24.03 " />
		<polygon fill="#0000ff" fill-opacity="0.60" shape-rendering="crispEdges" points="62.77,26.50 62.77,14.50 24.50,14.50 24.50,26.50 " />
		<text x="26.50" y="23.50" font-family="Helvetica" font-size="10" fill="#ffffff" >ABCB4</text>
		<polygon fill="#0000ff" fill-opacity="0.20" shape-rendering="crispEdges" points="24.03,282.00 24.03,31.00 24.03,31.00 " />
		<polygon fill="#0000ff" fill-opacity="0.20" shape-rendering="crispEdges" points="24.03,282.00 24.03,282.00 24.03,31.00 " />
		<line x1="24.03" y1="281.00" x2="24.03" y2="31.00" stroke="#0000ff" stroke-opacity="0.40" stroke-width="1.00" />
		<line x1="24.03" y1="281.00" x2="24.03" y2="31.00" stroke="#0000ff" stroke-opacity="0.40" stroke-width="1.00" />
		<polygon fill="#e5e5e5" shape-rendering="crispEdges" points="879.00,13.00 879.00,-1.00 0.00,-1.00 0.00,13.00 " />
		<text x="0.00" y="10.00" font-family="Helvetica Bold" font-size="12" text-anchor="start" fill="#000000" >QEPC01001049.1:181635..454086 Sphenodon punctatus isolate mauimua-1 ScrUdWx_508, whole genome shotgun sequence</text>
	</g>
</svg>
