<?xml version="1.0" standalone="no" ?>
<!DOCTYPE svg PUBLIC "-//W3C//DTD SVG 1.1//EN" "http://www.w3.org/Graphics/SVG/1.1/DTD/svg11.dtd">
<svg width="879px" height="162px" xmlns="http://www.w3.org/2000/svg" version="1.1" viewBox="0 0 879 162" >
	<style type="text/css" > <![CDATA[
		@import url("https://www.ncbi.nlm.nih.gov/projects/sviewer/css/svg_fonts.css");
	]]>
	</style>
	<desc >Generated by NCBI Genome Workbench http://www.ncbi.nlm.nih.gov/tools/gbench/</desc>
	<defs >
		<clipPath id="clipping-rect1" >
			<rect x="0" y="14" width="879" height="18" />
		</clipPath>
		<linearGradient id="gradient1" gradientTransform="rotate(90)" >
			<stop offset="0%" stop-color="#6c6c6c" />
			<stop offset="50%" stop-color="#b5b5b5" />
			<stop offset="100%" stop-color="#6c6c6c" />
		</linearGradient>
		<clipPath id="clipping-rect2" >
			<rect x="0" y="32" width="879" height="130" />
		</clipPath>
		<linearGradient id="gradient2" gradientTransform="rotate(90)" >
			<stop offset="0%" stop-color="#e6e6e6" stop-opacity="0.71" />
			<stop offset="100%" stop-color="#ffffff" stop-opacity="0.00" />
		</linearGradient>
	</defs>
	<g >
		<polygon fill="#ffffff" shape-rendering="crispEdges" points="879.00,31.00 879.00,13.00 0.00,13.00 0.00,31.00 " />
		<line x1="0.00" y1="28.88" x2="879.00" y2="28.88" stroke="#7f7f7f" stroke-width="1.00" clip-path="url('#clipping-rect1')" />
		<line x1="10.35" y1="28.88" x2="10.35" y2="26.76" stroke="#7f7f7f" stroke-width="1.00" clip-path="url('#clipping-rect1')" />
		<line x1="21.72" y1="28.88" x2="21.72" y2="25.71" stroke="#7f7f7f" stroke-width="1.00" clip-path="url('#clipping-rect1')" />
		<line x1="33.09" y1="28.88" x2="33.09" y2="26.76" stroke="#7f7f7f" stroke-width="1.00" clip-path="url('#clipping-rect1')" />
		<line x1="44.46" y1="28.88" x2="44.46" y2="25.71" stroke="#7f7f7f" stroke-width="1.00" clip-path="url('#clipping-rect1')" />
		<line x1="55.82" y1="28.88" x2="55.82" y2="26.76" stroke="#7f7f7f" stroke-width="1.00" clip-path="url('#clipping-rect1')" />
		<line x1="67.19" y1="28.88" x2="67.19" y2="25.71" stroke="#7f7f7f" stroke-width="1.00" clip-path="url('#clipping-rect1')" />
		<line x1="78.56" y1="28.88" x2="78.56" y2="26.76" stroke="#7f7f7f" stroke-width="1.00" clip-path="url('#clipping-rect1')" />
		<line x1="89.93" y1="28.88" x2="89.93" y2="25.71" stroke="#7f7f7f" stroke-width="1.00" clip-path="url('#clipping-rect1')" />
		<line x1="101.29" y1="28.88" x2="101.29" y2="26.76" stroke="#7f7f7f" stroke-width="1.00" clip-path="url('#clipping-rect1')" />
		<line x1="112.66" y1="28.88" x2="112.66" y2="25.71" stroke="#7f7f7f" stroke-width="1.00" clip-path="url('#clipping-rect1')" />
		<line x1="124.03" y1="28.88" x2="124.03" y2="26.76" stroke="#7f7f7f" stroke-width="1.00" clip-path="url('#clipping-rect1')" />
		<line x1="135.40" y1="28.88" x2="135.40" y2="25.71" stroke="#7f7f7f" stroke-width="1.00" clip-path="url('#clipping-rect1')" />
		<line x1="146.77" y1="28.88" x2="146.77" y2="26.76" stroke="#7f7f7f" stroke-width="1.00" clip-path="url('#clipping-rect1')" />
		<line x1="158.13" y1="28.88" x2="158.13" y2="25.71" stroke="#7f7f7f" stroke-width="1.00" clip-path="url('#clipping-rect1')" />
		<line x1="169.50" y1="28.88" x2="169.50" y2="26.76" stroke="#7f7f7f" stroke-width="1.00" clip-path="url('#clipping-rect1')" />
		<line x1="180.87" y1="28.88" x2="180.87" y2="25.71" stroke="#7f7f7f" stroke-width="1.00" clip-path="url('#clipping-rect1')" />
		<line x1="192.24" y1="28.88" x2="192.24" y2="26.76" stroke="#7f7f7f" stroke-width="1.00" clip-path="url('#clipping-rect1')" />
		<line x1="203.60" y1="28.88" x2="203.60" y2="25.71" stroke="#7f7f7f" stroke-width="1.00" clip-path="url('#clipping-rect1')" />
		<line x1="214.97" y1="28.88" x2="214.97" y2="26.76" stroke="#7f7f7f" stroke-width="1.00" clip-path="url('#clipping-rect1')" />
		<line x1="226.34" y1="28.88" x2="226.34" y2="25.71" stroke="#7f7f7f" stroke-width="1.00" clip-path="url('#clipping-rect1')" />
		<line x1="237.71" y1="28.88" x2="237.71" y2="26.76" stroke="#7f7f7f" stroke-width="1.00" clip-path="url('#clipping-rect1')" />
		<line x1="249.08" y1="28.88" x2="249.08" y2="25.71" stroke="#7f7f7f" stroke-width="1.00" clip-path="url('#clipping-rect1')" />
		<line x1="260.44" y1="28.88" x2="260.44" y2="26.76" stroke="#7f7f7f" stroke-width="1.00" clip-path="url('#clipping-rect1')" />
		<line x1="271.81" y1="28.88" x2="271.81" y2="25.71" stroke="#7f7f7f" stroke-width="1.00" clip-path="url('#clipping-rect1')" />
		<line x1="283.18" y1="28.88" x2="283.18" y2="26.76" stroke="#7f7f7f" stroke-width="1.00" clip-path="url('#clipping-rect1')" />
		<line x1="294.55" y1="28.88" x2="294.55" y2="25.71" stroke="#7f7f7f" stroke-width="1.00" clip-path="url('#clipping-rect1')" />
		<line x1="305.91" y1="28.88" x2="305.91" y2="26.76" stroke="#7f7f7f" stroke-width="1.00" clip-path="url('#clipping-rect1')" />
		<line x1="317.28" y1="28.88" x2="317.28" y2="25.71" stroke="#7f7f7f" stroke-width="1.00" clip-path="url('#clipping-rect1')" />
		<line x1="328.65" y1="28.88" x2="328.65" y2="26.76" stroke="#7f7f7f" stroke-width="1.00" clip-path="url('#clipping-rect1')" />
		<line x1="340.02" y1="28.88" x2="340.02" y2="25.71" stroke="#7f7f7f" stroke-width="1.00" clip-path="url('#clipping-rect1')" />
		<line x1="351.39" y1="28.88" x2="351.39" y2="26.76" stroke="#7f7f7f" stroke-width="1.00" clip-path="url('#clipping-rect1')" />
		<line x1="362.75" y1="28.88" x2="362.75" y2="25.71" stroke="#7f7f7f" stroke-width="1.00" clip-path="url('#clipping-rect1')" />
		<line x1="374.12" y1="28.88" x2="374.12" y2="26.76" stroke="#7f7f7f" stroke-width="1.00" clip-path="url('#clipping-rect1')" />
		<line x1="385.49" y1="28.88" x2="385.49" y2="25.71" stroke="#7f7f7f" stroke-width="1.00" clip-path="url('#clipping-rect1')" />
		<line x1="396.86" y1="28.88" x2="396.86" y2="26.76" stroke="#7f7f7f" stroke-width="1.00" clip-path="url('#clipping-rect1')" />
		<line x1="408.22" y1="28.88" x2="408.22" y2="25.71" stroke="#7f7f7f" stroke-width="1.00" clip-path="url('#clipping-rect1')" />
		<line x1="419.59" y1="28.88" x2="419.59" y2="26.76" stroke="#7f7f7f" stroke-width="1.00" clip-path="url('#clipping-rect1')" />
		<line x1="430.96" y1="28.88" x2="430.96" y2="25.71" stroke="#7f7f7f" stroke-width="1.00" clip-path="url('#clipping-rect1')" />
		<line x1="442.33" y1="28.88" x2="442.33" y2="26.76" stroke="#7f7f7f" stroke-width="1.00" clip-path="url('#clipping-rect1')" />
		<line x1="453.69" y1="28.88" x2="453.69" y2="25.71" stroke="#7f7f7f" stroke-width="1.00" clip-path="url('#clipping-rect1')" />
		<line x1="465.06" y1="28.88" x2="465.06" y2="26.76" stroke="#7f7f7f" stroke-width="1.00" clip-path="url('#clipping-rect1')" />
		<line x1="476.43" y1="28.88" x2="476.43" y2="25.71" stroke="#7f7f7f" stroke-width="1.00" clip-path="url('#clipping-rect1')" />
		<line x1="487.80" y1="28.88" x2="487.80" y2="26.76" stroke="#7f7f7f" stroke-width="1.00" clip-path="url('#clipping-rect1')" />
		<line x1="499.17" y1="28.88" x2="499.17" y2="25.71" stroke="#7f7f7f" stroke-width="1.00" clip-path="url('#clipping-rect1')" />
		<line x1="510.53" y1="28.88" x2="510.53" y2="26.76" stroke="#7f7f7f" stroke-width="1.00" clip-path="url('#clipping-rect1')" />
		<line x1="521.90" y1="28.88" x2="521.90" y2="25.71" stroke="#7f7f7f" stroke-width="1.00" clip-path="url('#clipping-rect1')" />
		<line x1="533.27" y1="28.88" x2="533.27" y2="26.76" stroke="#7f7f7f" stroke-width="1.00" clip-path="url('#clipping-rect1')" />
		<line x1="544.64" y1="28.88" x2="544.64" y2="25.71" stroke="#7f7f7f" stroke-width="1.00" clip-path="url('#clipping-rect1')" />
		<line x1="556.00" y1="28.88" x2="556.00" y2="26.76" stroke="#7f7f7f" stroke-width="1.00" clip-path="url('#clipping-rect1')" />
		<line x1="567.37" y1="28.88" x2="567.37" y2="25.71" stroke="#7f7f7f" stroke-width="1.00" clip-path="url('#clipping-rect1')" />
		<line x1="578.74" y1="28.88" x2="578.74" y2="26.76" stroke="#7f7f7f" stroke-width="1.00" clip-path="url('#clipping-rect1')" />
		<line x1="590.11" y1="28.88" x2="590.11" y2="25.71" stroke="#7f7f7f" stroke-width="1.00" clip-path="url('#clipping-rect1')" />
		<line x1="601.48" y1="28.88" x2="601.48" y2="26.76" stroke="#7f7f7f" stroke-width="1.00" clip-path="url('#clipping-rect1')" />
		<line x1="612.84" y1="28.88" x2="612.84" y2="25.71" stroke="#7f7f7f" stroke-width="1.00" clip-path="url('#clipping-rect1')" />
		<line x1="624.21" y1="28.88" x2="624.21" y2="26.76" stroke="#7f7f7f" stroke-width="1.00" clip-path="url('#clipping-rect1')" />
		<line x1="635.58" y1="28.88" x2="635.58" y2="25.71" stroke="#7f7f7f" stroke-width="1.00" clip-path="url('#clipping-rect1')" />
		<line x1="646.95" y1="28.88" x2="646.95" y2="26.76" stroke="#7f7f7f" stroke-width="1.00" clip-path="url('#clipping-rect1')" />
		<line x1="658.31" y1="28.88" x2="658.31" y2="25.71" stroke="#7f7f7f" stroke-width="1.00" clip-path="url('#clipping-rect1')" />
		<line x1="669.68" y1="28.88" x2="669.68" y2="26.76" stroke="#7f7f7f" stroke-width="1.00" clip-path="url('#clipping-rect1')" />
		<line x1="681.05" y1="28.88" x2="681.05" y2="25.71" stroke="#7f7f7f" stroke-width="1.00" clip-path="url('#clipping-rect1')" />
		<line x1="692.42" y1="28.88" x2="692.42" y2="26.76" stroke="#7f7f7f" stroke-width="1.00" clip-path="url('#clipping-rect1')" />
		<line x1="703.79" y1="28.88" x2="703.79" y2="25.71" stroke="#7f7f7f" stroke-width="1.00" clip-path="url('#clipping-rect1')" />
		<line x1="715.15" y1="28.88" x2="715.15" y2="26.76" stroke="#7f7f7f" stroke-width="1.00" clip-path="url('#clipping-rect1')" />
		<line x1="726.52" y1="28.88" x2="726.52" y2="25.71" stroke="#7f7f7f" stroke-width="1.00" clip-path="url('#clipping-rect1')" />
		<line x1="737.89" y1="28.88" x2="737.89" y2="26.76" stroke="#7f7f7f" stroke-width="1.00" clip-path="url('#clipping-rect1')" />
		<line x1="749.26" y1="28.88" x2="749.26" y2="25.71" stroke="#7f7f7f" stroke-width="1.00" clip-path="url('#clipping-rect1')" />
		<line x1="760.62" y1="28.88" x2="760.62" y2="26.76" stroke="#7f7f7f" stroke-width="1.00" clip-path="url('#clipping-rect1')" />
		<line x1="771.99" y1="28.88" x2="771.99" y2="25.71" stroke="#7f7f7f" stroke-width="1.00" clip-path="url('#clipping-rect1')" />
		<line x1="783.36" y1="28.88" x2="783.36" y2="26.76" stroke="#7f7f7f" stroke-width="1.00" clip-path="url('#clipping-rect1')" />
		<line x1="794.73" y1="28.88" x2="794.73" y2="25.71" stroke="#7f7f7f" stroke-width="1.00" clip-path="url('#clipping-rect1')" />
		<line x1="806.10" y1="28.88" x2="806.10" y2="26.76" stroke="#7f7f7f" stroke-width="1.00" clip-path="url('#clipping-rect1')" />
		<line x1="817.46" y1="28.88" x2="817.46" y2="25.71" stroke="#7f7f7f" stroke-width="1.00" clip-path="url('#clipping-rect1')" />
		<line x1="828.83" y1="28.88" x2="828.83" y2="26.76" stroke="#7f7f7f" stroke-width="1.00" clip-path="url('#clipping-rect1')" />
		<line x1="840.20" y1="28.88" x2="840.20" y2="25.71" stroke="#7f7f7f" stroke-width="1.00" clip-path="url('#clipping-rect1')" />
		<line x1="851.57" y1="28.88" x2="851.57" y2="26.76" stroke="#7f7f7f" stroke-width="1.00" clip-path="url('#clipping-rect1')" />
		<line x1="862.93" y1="28.88" x2="862.93" y2="25.71" stroke="#7f7f7f" stroke-width="1.00" clip-path="url('#clipping-rect1')" />
		<line x1="874.30" y1="28.88" x2="874.30" y2="26.76" stroke="#7f7f7f" stroke-width="1.00" clip-path="url('#clipping-rect1')" />
		<text x="773.99" y="23.59" font-family="Helvetica" font-size="10" fill="#333333" clip-path="url('#clipping-rect1')" >350 K</text>
		<line x1="771.99" y1="31.00" x2="771.99" y2="15.12" stroke="#7f7f7f" stroke-width="1.00" clip-path="url('#clipping-rect1')" />
		<text x="660.31" y="23.59" font-family="Helvetica" font-size="10" fill="#333333" clip-path="url('#clipping-rect1')" >300 K</text>
		<line x1="658.31" y1="31.00" x2="658.31" y2="15.12" stroke="#7f7f7f" stroke-width="1.00" clip-path="url('#clipping-rect1')" />
		<text x="546.64" y="23.59" font-family="Helvetica" font-size="10" fill="#333333" clip-path="url('#clipping-rect1')" >250 K</text>
		<line x1="544.64" y1="31.00" x2="544.64" y2="15.12" stroke="#7f7f7f" stroke-width="1.00" clip-path="url('#clipping-rect1')" />
		<text x="432.96" y="23.59" font-family="Helvetica" font-size="10" fill="#333333" clip-path="url('#clipping-rect1')" >200 K</text>
		<line x1="430.96" y1="31.00" x2="430.96" y2="15.12" stroke="#7f7f7f" stroke-width="1.00" clip-path="url('#clipping-rect1')" />
		<text x="319.28" y="23.59" font-family="Helvetica" font-size="10" fill="#333333" clip-path="url('#clipping-rect1')" >150 K</text>
		<line x1="317.28" y1="31.00" x2="317.28" y2="15.12" stroke="#7f7f7f" stroke-width="1.00" clip-path="url('#clipping-rect1')" />
		<text x="205.60" y="23.59" font-family="Helvetica" font-size="10" fill="#333333" clip-path="url('#clipping-rect1')" >100 K</text>
		<line x1="203.60" y1="31.00" x2="203.60" y2="15.12" stroke="#7f7f7f" stroke-width="1.00" clip-path="url('#clipping-rect1')" />
		<text x="91.93" y="23.59" font-family="Helvetica" font-size="10" fill="#333333" clip-path="url('#clipping-rect1')" >50 K</text>
		<line x1="89.93" y1="31.00" x2="89.93" y2="15.12" stroke="#7f7f7f" stroke-width="1.00" clip-path="url('#clipping-rect1')" />
		<line x1="89.10" y1="161.00" x2="89.10" y2="31.00" stroke="#ebebeb" stroke-width="1.00" />
		<line x1="203.23" y1="161.00" x2="203.23" y2="31.00" stroke="#ebebeb" stroke-width="1.00" />
		<line x1="317.36" y1="161.00" x2="317.36" y2="31.00" stroke="#ebebeb" stroke-width="1.00" />
		<line x1="430.49" y1="161.00" x2="430.49" y2="31.00" stroke="#ebebeb" stroke-width="1.00" />
		<line x1="544.62" y1="161.00" x2="544.62" y2="31.00" stroke="#ebebeb" stroke-width="1.00" />
		<line x1="658.75" y1="161.00" x2="658.75" y2="31.00" stroke="#ebebeb" stroke-width="1.00" />
		<line x1="771.88" y1="161.00" x2="771.88" y2="31.00" stroke="#ebebeb" stroke-width="1.00" />
		<polygon fill="url('#gradient1')" shape-rendering="crispEdges" points="879.00,37.50 879.00,33.00 0.00,33.00 0.00,37.50 0.00,42.00 879.00,42.00 " />
		<line x1="0.00" y1="42.00" x2="0.00" y2="33.00" stroke="#6c6c6c" stroke-width="1.00" stroke-linejoin="round" />
		<line x1="0.00" y1="33.00" x2="879.00" y2="33.00" stroke="#6c6c6c" stroke-width="1.00" stroke-linejoin="round" />
		<line x1="879.00" y1="33.00" x2="879.00" y2="42.00" stroke="#6c6c6c" stroke-width="1.00" stroke-linejoin="round" />
		<line x1="0.00" y1="42.00" x2="879.00" y2="42.00" stroke="#6c6c6c" stroke-width="1.00" stroke-linejoin="round" />
		<line x1="0.00" y1="129.00" x2="0.00" y2="157.00" stroke="#009900" stroke-opacity="0.10" stroke-width="1.00" stroke-linejoin="round" />
		<line x1="0.00" y1="157.00" x2="237.48" y2="157.00" stroke="#009900" stroke-opacity="0.10" stroke-width="1.00" stroke-linejoin="round" />
		<line x1="237.48" y1="157.00" x2="237.48" y2="129.00" stroke="#009900" stroke-opacity="0.10" stroke-width="1.00" stroke-linejoin="round" />
		<line x1="0.00" y1="129.00" x2="237.48" y2="129.00" stroke="#009900" stroke-opacity="0.10" stroke-width="1.00" stroke-linejoin="round" />
		<text x="59.20" y="138.00" font-family="Helvetica" font-size="10" fill="#124d94" >ENSSPUG00000016165</text>
		<polygon fill="#1e8c1e" shape-rendering="crispEdges" points="111.09,144.00 111.09,155.00 110.09,155.00 110.09,144.00 " />
		<line x1="110.75" y1="149.50" x2="115.41" y2="149.50" stroke="#4ba34b" stroke-width="2.00" />
		<polygon fill="#1e8c1e" shape-rendering="crispEdges" points="116.28,144.00 116.28,155.00 115.28,155.00 115.28,144.00 " />
		<polygon fill="#ffffff" shape-rendering="crispEdges" points="235.48,155.00 235.48,144.00 120.15,144.00 120.15,155.00 " />
		<text x="120.15" y="153.00" font-family="Helvetica" font-size="10" fill="#124d94" >ENSSPUP00000021018.1</text>
		<line x1="7.33" y1="96.00" x2="7.33" y2="124.00" stroke="#009900" stroke-opacity="0.10" stroke-width="1.00" stroke-linejoin="round" />
		<line x1="7.33" y1="124.00" x2="385.82" y2="124.00" stroke="#009900" stroke-opacity="0.10" stroke-width="1.00" stroke-linejoin="round" />
		<line x1="385.82" y1="124.00" x2="385.82" y2="96.00" stroke="#009900" stroke-opacity="0.10" stroke-width="1.00" stroke-linejoin="round" />
		<line x1="7.33" y1="96.00" x2="385.82" y2="96.00" stroke="#009900" stroke-opacity="0.10" stroke-width="1.00" stroke-linejoin="round" />
		<text x="142.20" y="105.00" font-family="Helvetica" font-size="10" fill="#124d94" >ENSSPUG00000016178</text>
		<polygon fill="#1e8c1e" shape-rendering="crispEdges" points="129.20,111.00 129.20,122.00 128.20,122.00 128.20,111.00 " />
		<line x1="128.74" y1="116.50" x2="130.37" y2="116.50" stroke="#4ba34b" stroke-width="2.00" />
		<polygon fill="#1e8c1e" shape-rendering="crispEdges" points="131.17,111.00 131.17,122.00 130.17,122.00 130.17,111.00 " />
		<line x1="130.98" y1="116.50" x2="133.52" y2="116.50" stroke="#4ba34b" stroke-width="2.00" />
		<polygon fill="#1e8c1e" shape-rendering="crispEdges" points="134.10,111.00 134.10,122.00 133.10,122.00 133.10,111.00 " />
		<line x1="133.68" y1="116.50" x2="140.23" y2="116.50" stroke="#4ba34b" stroke-width="2.00" />
		<polygon fill="#1e8c1e" shape-rendering="crispEdges" points="140.93,111.00 140.93,122.00 139.93,122.00 139.93,111.00 " />
		<line x1="140.63" y1="116.50" x2="154.51" y2="116.50" stroke="#4ba34b" stroke-width="2.00" />
		<polygon fill="#1e8c1e" shape-rendering="crispEdges" points="155.20,111.00 155.20,122.00 154.20,122.00 154.20,111.00 " />
		<line x1="154.90" y1="116.50" x2="156.40" y2="116.50" stroke="#4ba34b" stroke-width="2.00" />
		<polygon fill="#1e8c1e" shape-rendering="crispEdges" points="156.92,111.00 156.92,122.00 155.92,122.00 155.92,111.00 " />
		<line x1="156.44" y1="116.50" x2="161.67" y2="116.50" stroke="#4ba34b" stroke-width="2.00" />
		<polygon fill="#1e8c1e" shape-rendering="crispEdges" points="162.37,111.00 162.37,122.00 161.37,122.00 161.37,111.00 " />
		<line x1="162.07" y1="116.50" x2="166.62" y2="116.50" stroke="#4ba34b" stroke-width="2.00" />
		<polygon fill="#1e8c1e" shape-rendering="crispEdges" points="167.24,111.00 167.24,122.00 166.24,122.00 166.24,111.00 " />
		<line x1="166.87" y1="116.50" x2="171.46" y2="116.50" stroke="#4ba34b" stroke-width="2.00" />
		<polygon fill="#1e8c1e" shape-rendering="crispEdges" points="172.01,111.00 172.01,122.00 171.01,122.00 171.01,111.00 " />
		<line x1="171.56" y1="116.50" x2="173.57" y2="116.50" stroke="#4ba34b" stroke-width="2.00" />
		<polygon fill="#1e8c1e" shape-rendering="crispEdges" points="174.16,111.00 174.16,122.00 173.16,122.00 173.16,111.00 " />
		<line x1="173.75" y1="116.50" x2="176.17" y2="116.50" stroke="#4ba34b" stroke-width="2.00" />
		<polygon fill="#1e8c1e" shape-rendering="crispEdges" points="176.78,111.00 176.78,122.00 175.78,122.00 175.78,111.00 " />
		<line x1="176.39" y1="116.50" x2="176.48" y2="116.50" stroke="#4ba34b" stroke-width="2.00" />
		<polygon fill="#1e8c1e" shape-rendering="crispEdges" points="176.99,111.00 176.99,122.00 175.99,122.00 175.99,111.00 " />
		<line x1="176.50" y1="116.50" x2="178.63" y2="116.50" stroke="#4ba34b" stroke-width="2.00" />
		<polygon fill="#1e8c1e" shape-rendering="crispEdges" points="179.28,111.00 179.28,122.00 178.28,122.00 178.28,111.00 " />
		<line x1="178.94" y1="116.50" x2="180.82" y2="116.50" stroke="#4ba34b" stroke-width="2.00" />
		<polygon fill="#1e8c1e" shape-rendering="crispEdges" points="181.46,111.00 181.46,122.00 180.46,122.00 180.46,111.00 " />
		<line x1="181.11" y1="116.50" x2="181.98" y2="116.50" stroke="#4ba34b" stroke-width="2.00" />
		<polygon fill="#1e8c1e" shape-rendering="crispEdges" points="182.58,111.00 182.58,122.00 181.58,122.00 181.58,111.00 " />
		<line x1="182.18" y1="116.50" x2="188.43" y2="116.50" stroke="#4ba34b" stroke-width="2.00" />
		<polygon fill="#1e8c1e" shape-rendering="crispEdges" points="189.11,111.00 189.11,122.00 188.11,122.00 188.11,111.00 " />
		<line x1="188.79" y1="116.50" x2="199.74" y2="116.50" stroke="#4ba34b" stroke-width="2.00" />
		<polygon fill="#1e8c1e" shape-rendering="crispEdges" points="200.31,111.00 200.31,122.00 199.31,122.00 199.31,111.00 " />
		<line x1="199.88" y1="116.50" x2="201.28" y2="116.50" stroke="#4ba34b" stroke-width="2.00" />
		<polygon fill="#1e8c1e" shape-rendering="crispEdges" points="201.95,111.00 201.95,122.00 200.95,122.00 200.95,111.00 " />
		<line x1="201.63" y1="116.50" x2="217.14" y2="116.50" stroke="#4ba34b" stroke-width="2.00" />
		<polygon fill="#b2b2b2" shape-rendering="crispEdges" points="204.98,116.50 213.78,112.10 211.58,116.50 213.78,120.90 " />
		<polygon fill="#1e8c1e" shape-rendering="crispEdges" points="217.71,111.00 217.71,122.00 216.71,122.00 216.71,111.00 " />
		<line x1="217.28" y1="116.50" x2="220.40" y2="116.50" stroke="#4ba34b" stroke-width="2.00" />
		<polygon fill="#1e8c1e" shape-rendering="crispEdges" points="221.12,111.00 221.12,122.00 220.12,122.00 220.12,111.00 " />
		<line x1="220.83" y1="116.50" x2="224.91" y2="116.50" stroke="#4ba34b" stroke-width="2.00" />
		<polygon fill="#1e8c1e" shape-rendering="crispEdges" points="225.52,111.00 225.52,122.00 224.52,122.00 224.52,111.00 " />
		<line x1="225.14" y1="116.50" x2="227.35" y2="116.50" stroke="#4ba34b" stroke-width="2.00" />
		<polygon fill="#1e8c1e" shape-rendering="crispEdges" points="228.04,111.00 228.04,122.00 227.04,122.00 227.04,111.00 " />
		<line x1="227.73" y1="116.50" x2="232.75" y2="116.50" stroke="#4ba34b" stroke-width="2.00" />
		<polygon fill="#1e8c1e" shape-rendering="crispEdges" points="233.39,111.00 233.39,122.00 232.39,122.00 232.39,111.00 " />
		<line x1="233.03" y1="116.50" x2="235.56" y2="116.50" stroke="#4ba34b" stroke-width="2.00" />
		<polygon fill="#1e8c1e" shape-rendering="crispEdges" points="236.11,111.00 236.11,122.00 235.11,122.00 235.11,111.00 " />
		<line x1="235.66" y1="116.50" x2="239.01" y2="116.50" stroke="#4ba34b" stroke-width="2.00" />
		<polygon fill="#1e8c1e" shape-rendering="crispEdges" points="239.66,111.00 239.66,122.00 238.66,122.00 238.66,111.00 " />
		<line x1="239.31" y1="116.50" x2="251.34" y2="116.50" stroke="#4ba34b" stroke-width="2.00" />
		<polygon fill="#1e8c1e" shape-rendering="crispEdges" points="251.92,111.00 251.92,122.00 250.92,122.00 250.92,111.00 " />
		<line x1="251.50" y1="116.50" x2="253.57" y2="116.50" stroke="#4ba34b" stroke-width="2.00" />
		<polygon fill="#1e8c1e" shape-rendering="crispEdges" points="254.17,111.00 254.17,122.00 253.17,122.00 253.17,111.00 " />
		<line x1="253.76" y1="116.50" x2="253.95" y2="116.50" stroke="#4ba34b" stroke-width="2.00" />
		<polygon fill="#1e8c1e" shape-rendering="crispEdges" points="254.53,111.00 254.53,122.00 253.53,122.00 253.53,111.00 " />
		<line x1="254.11" y1="116.50" x2="254.62" y2="116.50" stroke="#4ba34b" stroke-width="2.00" />
		<polygon fill="#1e8c1e" shape-rendering="crispEdges" points="255.29,111.00 255.29,122.00 254.29,122.00 254.29,111.00 " />
		<line x1="254.95" y1="116.50" x2="258.03" y2="116.50" stroke="#4ba34b" stroke-width="2.00" />
		<polygon fill="#1e8c1e" shape-rendering="crispEdges" points="258.75,111.00 258.75,122.00 257.75,122.00 257.75,111.00 " />
		<line x1="258.48" y1="116.50" x2="265.01" y2="116.50" stroke="#4ba34b" stroke-width="2.00" />
		<polygon fill="#1e8c1e" shape-rendering="crispEdges" points="265.54,111.00 265.54,122.00 264.54,122.00 264.54,111.00 " />
		<polygon fill="#ffffff" shape-rendering="crispEdges" points="128.66,122.00 128.66,111.00 10.33,111.00 10.33,122.00 " />
		<text x="10.33" y="120.00" font-family="Helvetica" font-size="10" fill="#124d94" >ENSSPUP00000021044.1</text>
		<polygon fill="#ffffff" shape-rendering="crispEdges" points="383.82,122.00 383.82,111.00 269.06,111.00 269.06,122.00 " />
		<text x="269.06" y="120.00" font-family="Helvetica" font-size="10" fill="#124d94" >ENSSPUT00000022444.1</text>
		<line x1="230.81" y1="63.00" x2="230.81" y2="91.00" stroke="#009900" stroke-opacity="0.10" stroke-width="1.00" stroke-linejoin="round" />
		<line x1="230.81" y1="91.00" x2="657.99" y2="91.00" stroke="#009900" stroke-opacity="0.10" stroke-width="1.00" stroke-linejoin="round" />
		<line x1="657.99" y1="91.00" x2="657.99" y2="63.00" stroke="#009900" stroke-opacity="0.10" stroke-width="1.00" stroke-linejoin="round" />
		<line x1="230.81" y1="63.00" x2="657.99" y2="63.00" stroke="#009900" stroke-opacity="0.10" stroke-width="1.00" stroke-linejoin="round" />
		<text x="390.04" y="72.00" font-family="Helvetica" font-size="10" fill="#124d94" >ENSSPUG00000016209</text>
		<polygon fill="#1e8c1e" shape-rendering="crispEdges" points="352.89,78.00 352.89,89.00 351.89,89.00 351.89,78.00 " />
		<line x1="352.65" y1="83.50" x2="357.32" y2="83.50" stroke="#4ba34b" stroke-width="2.00" />
		<polygon fill="#1e8c1e" shape-rendering="crispEdges" points="357.91,78.00 357.91,89.00 356.91,89.00 356.91,78.00 " />
		<line x1="357.50" y1="83.50" x2="361.49" y2="83.50" stroke="#4ba34b" stroke-width="2.00" />
		<polygon fill="#1e8c1e" shape-rendering="crispEdges" points="362.09,78.00 362.09,89.00 361.09,89.00 361.09,78.00 " />
		<line x1="361.69" y1="83.50" x2="362.51" y2="83.50" stroke="#4ba34b" stroke-width="2.00" />
		<polygon fill="#1e8c1e" shape-rendering="crispEdges" points="363.25,78.00 363.25,89.00 362.25,89.00 362.25,78.00 " />
		<line x1="362.99" y1="83.50" x2="365.00" y2="83.50" stroke="#4ba34b" stroke-width="2.00" />
		<polygon fill="#1e8c1e" shape-rendering="crispEdges" points="365.70,78.00 365.70,89.00 364.70,89.00 364.70,78.00 " />
		<line x1="365.40" y1="83.50" x2="370.66" y2="83.50" stroke="#4ba34b" stroke-width="2.00" />
		<polygon fill="#1e8c1e" shape-rendering="crispEdges" points="371.24,78.00 371.24,89.00 370.24,89.00 370.24,78.00 " />
		<line x1="370.83" y1="83.50" x2="374.60" y2="83.50" stroke="#4ba34b" stroke-width="2.00" />
		<polygon fill="#1e8c1e" shape-rendering="crispEdges" points="375.21,78.00 375.21,89.00 374.21,89.00 374.21,78.00 " />
		<line x1="374.82" y1="83.50" x2="375.97" y2="83.50" stroke="#4ba34b" stroke-width="2.00" />
		<polygon fill="#1e8c1e" shape-rendering="crispEdges" points="376.59,78.00 376.59,89.00 375.59,89.00 375.59,78.00 " />
		<line x1="376.22" y1="83.50" x2="377.53" y2="83.50" stroke="#4ba34b" stroke-width="2.00" />
		<polygon fill="#1e8c1e" shape-rendering="crispEdges" points="378.08,78.00 378.08,89.00 377.08,89.00 377.08,78.00 " />
		<line x1="377.63" y1="83.50" x2="380.25" y2="83.50" stroke="#4ba34b" stroke-width="2.00" />
		<polygon fill="#1e8c1e" shape-rendering="crispEdges" points="380.84,78.00 380.84,89.00 379.84,89.00 379.84,78.00 " />
		<line x1="380.43" y1="83.50" x2="381.29" y2="83.50" stroke="#4ba34b" stroke-width="2.00" />
		<polygon fill="#1e8c1e" shape-rendering="crispEdges" points="381.87,78.00 381.87,89.00 380.87,89.00 380.87,78.00 " />
		<line x1="381.45" y1="83.50" x2="386.19" y2="83.50" stroke="#4ba34b" stroke-width="2.00" />
		<polygon fill="#1e8c1e" shape-rendering="crispEdges" points="386.93,78.00 386.93,89.00 385.93,89.00 385.93,78.00 " />
		<line x1="386.68" y1="83.50" x2="392.16" y2="83.50" stroke="#4ba34b" stroke-width="2.00" />
		<polygon fill="#1e8c1e" shape-rendering="crispEdges" points="392.80,78.00 392.80,89.00 391.80,89.00 391.80,78.00 " />
		<line x1="392.44" y1="83.50" x2="403.41" y2="83.50" stroke="#4ba34b" stroke-width="2.00" />
		<polygon fill="#1e8c1e" shape-rendering="crispEdges" points="404.04,78.00 404.04,89.00 403.04,89.00 403.04,78.00 " />
		<line x1="403.66" y1="83.50" x2="405.77" y2="83.50" stroke="#4ba34b" stroke-width="2.00" />
		<polygon fill="#1e8c1e" shape-rendering="crispEdges" points="406.44,78.00 406.44,89.00 405.44,89.00 405.44,78.00 " />
		<line x1="406.12" y1="83.50" x2="409.14" y2="83.50" stroke="#4ba34b" stroke-width="2.00" />
		<polygon fill="#1e8c1e" shape-rendering="crispEdges" points="409.74,78.00 409.74,89.00 408.74,89.00 408.74,78.00 " />
		<line x1="409.33" y1="83.50" x2="413.90" y2="83.50" stroke="#4ba34b" stroke-width="2.00" />
		<polygon fill="#1e8c1e" shape-rendering="crispEdges" points="414.57,78.00 414.57,89.00 413.57,89.00 413.57,78.00 " />
		<line x1="414.25" y1="83.50" x2="417.90" y2="83.50" stroke="#4ba34b" stroke-width="2.00" />
		<polygon fill="#1e8c1e" shape-rendering="crispEdges" points="418.47,78.00 418.47,89.00 417.47,89.00 417.47,78.00 " />
		<line x1="418.04" y1="83.50" x2="422.12" y2="83.50" stroke="#4ba34b" stroke-width="2.00" />
		<polygon fill="#1e8c1e" shape-rendering="crispEdges" points="422.84,78.00 422.84,89.00 421.84,89.00 421.84,78.00 " />
		<line x1="422.55" y1="83.50" x2="431.26" y2="83.50" stroke="#4ba34b" stroke-width="2.00" />
		<polygon fill="#1e8c1e" shape-rendering="crispEdges" points="431.94,78.00 431.94,89.00 430.94,89.00 430.94,78.00 " />
		<line x1="431.62" y1="83.50" x2="435.50" y2="83.50" stroke="#4ba34b" stroke-width="2.00" />
		<polygon fill="#1e8c1e" shape-rendering="crispEdges" points="436.19,78.00 436.19,89.00 435.19,89.00 435.19,78.00 " />
		<line x1="435.89" y1="83.50" x2="439.34" y2="83.50" stroke="#4ba34b" stroke-width="2.00" />
		<polygon fill="#1e8c1e" shape-rendering="crispEdges" points="439.99,78.00 439.99,89.00 438.99,89.00 438.99,78.00 " />
		<line x1="439.64" y1="83.50" x2="442.66" y2="83.50" stroke="#4ba34b" stroke-width="2.00" />
		<polygon fill="#1e8c1e" shape-rendering="crispEdges" points="443.24,78.00 443.24,89.00 442.24,89.00 442.24,78.00 " />
		<line x1="442.83" y1="83.50" x2="462.07" y2="83.50" stroke="#4ba34b" stroke-width="2.00" />
		<polygon fill="#b2b2b2" shape-rendering="crispEdges" points="448.05,83.50 456.85,79.10 454.65,83.50 456.85,87.90 " />
		<polygon fill="#1e8c1e" shape-rendering="crispEdges" points="462.73,78.00 462.73,89.00 461.73,89.00 461.73,78.00 " />
		<line x1="462.38" y1="83.50" x2="472.52" y2="83.50" stroke="#4ba34b" stroke-width="2.00" />
		<polygon fill="#1e8c1e" shape-rendering="crispEdges" points="473.10,78.00 473.10,89.00 472.10,89.00 472.10,78.00 " />
		<line x1="472.68" y1="83.50" x2="485.13" y2="83.50" stroke="#4ba34b" stroke-width="2.00" />
		<polygon fill="#1e8c1e" shape-rendering="crispEdges" points="485.72,78.00 485.72,89.00 484.72,89.00 484.72,78.00 " />
		<line x1="485.32" y1="83.50" x2="485.54" y2="83.50" stroke="#4ba34b" stroke-width="2.00" />
		<polygon fill="#1e8c1e" shape-rendering="crispEdges" points="486.12,78.00 486.12,89.00 485.12,89.00 485.12,78.00 " />
		<line x1="485.70" y1="83.50" x2="498.79" y2="83.50" stroke="#4ba34b" stroke-width="2.00" />
		<polygon fill="#1e8c1e" shape-rendering="crispEdges" points="499.45,78.00 499.45,89.00 498.45,89.00 498.45,78.00 " />
		<line x1="499.11" y1="83.50" x2="533.93" y2="83.50" stroke="#4ba34b" stroke-width="2.00" />
		<polygon fill="#b2b2b2" shape-rendering="crispEdges" points="512.12,83.50 520.92,79.10 518.72,83.50 520.92,87.90 " />
		<polygon fill="#1e8c1e" shape-rendering="crispEdges" points="534.63,78.00 534.63,89.00 533.63,89.00 533.63,78.00 " />
		<line x1="534.33" y1="83.50" x2="537.21" y2="83.50" stroke="#4ba34b" stroke-width="2.00" />
		<polygon fill="#1e8c1e" shape-rendering="crispEdges" points="537.71,78.00 537.71,89.00 536.71,89.00 536.71,78.00 " />
		<polygon fill="#ffffff" shape-rendering="crispEdges" points="352.14,89.00 352.14,78.00 233.81,78.00 233.81,89.00 " />
		<text x="233.81" y="87.00" font-family="Helvetica" font-size="10" fill="#124d94" >ENSSPUP00000021085.1</text>
		<polygon fill="#ffffff" shape-rendering="crispEdges" points="655.99,89.00 655.99,78.00 541.22,78.00 541.22,89.00 " />
		<text x="541.22" y="87.00" font-family="Helvetica" font-size="10" fill="#124d94" >ENSSPUT00000022486.1</text>
		<line x1="478.14" y1="96.00" x2="478.14" y2="124.00" stroke="#009900" stroke-opacity="0.10" stroke-width="1.00" stroke-linejoin="round" />
		<line x1="478.14" y1="124.00" x2="879.00" y2="124.00" stroke="#009900" stroke-opacity="0.10" stroke-width="1.00" stroke-linejoin="round" />
		<line x1="879.00" y1="124.00" x2="879.00" y2="96.00" stroke="#009900" stroke-opacity="0.10" stroke-width="1.00" stroke-linejoin="round" />
		<line x1="478.14" y1="96.00" x2="879.00" y2="96.00" stroke="#009900" stroke-opacity="0.10" stroke-width="1.00" stroke-linejoin="round" />
		<text x="632.52" y="105.00" font-family="Helvetica" font-size="10" fill="#124d94" >ENSSPUG00000016237</text>
		<polygon fill="#1e8c1e" shape-rendering="crispEdges" points="599.73,111.00 599.73,122.00 598.73,122.00 598.73,111.00 " />
		<line x1="599.55" y1="116.50" x2="600.20" y2="116.50" stroke="#4ba34b" stroke-width="2.00" />
		<polygon fill="#1e8c1e" shape-rendering="crispEdges" points="600.81,111.00 600.81,122.00 599.81,122.00 599.81,111.00 " />
		<line x1="600.42" y1="116.50" x2="606.57" y2="116.50" stroke="#4ba34b" stroke-width="2.00" />
		<polygon fill="#1e8c1e" shape-rendering="crispEdges" points="607.19,111.00 607.19,122.00 606.19,122.00 606.19,111.00 " />
		<line x1="606.82" y1="116.50" x2="609.95" y2="116.50" stroke="#4ba34b" stroke-width="2.00" />
		<polygon fill="#1e8c1e" shape-rendering="crispEdges" points="610.51,111.00 610.51,122.00 609.51,122.00 609.51,111.00 " />
		<line x1="610.07" y1="116.50" x2="611.42" y2="116.50" stroke="#4ba34b" stroke-width="2.00" />
		<polygon fill="#1e8c1e" shape-rendering="crispEdges" points="612.00,111.00 612.00,122.00 611.00,122.00 611.00,111.00 " />
		<line x1="611.57" y1="116.50" x2="671.64" y2="116.50" stroke="#4ba34b" stroke-width="2.00" />
		<polygon fill="#b2b2b2" shape-rendering="crispEdges" points="646.01,116.50 637.20,112.10 639.40,116.50 637.20,120.90 " />
		<polygon fill="#1e8c1e" shape-rendering="crispEdges" points="672.26,111.00 672.26,122.00 671.26,122.00 671.26,111.00 " />
		<line x1="671.88" y1="116.50" x2="678.35" y2="116.50" stroke="#4ba34b" stroke-width="2.00" />
		<polygon fill="#1e8c1e" shape-rendering="crispEdges" points="678.95,111.00 678.95,122.00 677.95,122.00 677.95,111.00 " />
		<line x1="678.55" y1="116.50" x2="680.25" y2="116.50" stroke="#4ba34b" stroke-width="2.00" />
		<polygon fill="#1e8c1e" shape-rendering="crispEdges" points="680.88,111.00 680.88,122.00 679.88,122.00 679.88,111.00 " />
		<line x1="680.51" y1="116.50" x2="683.75" y2="116.50" stroke="#4ba34b" stroke-width="2.00" />
		<polygon fill="#1e8c1e" shape-rendering="crispEdges" points="684.34,111.00 684.34,122.00 683.34,122.00 683.34,111.00 " />
		<line x1="683.93" y1="116.50" x2="684.87" y2="116.50" stroke="#4ba34b" stroke-width="2.00" />
		<polygon fill="#1e8c1e" shape-rendering="crispEdges" points="685.46,111.00 685.46,122.00 684.46,122.00 684.46,111.00 " />
		<line x1="685.04" y1="116.50" x2="685.55" y2="116.50" stroke="#4ba34b" stroke-width="2.00" />
		<polygon fill="#1e8c1e" shape-rendering="crispEdges" points="686.13,111.00 686.13,122.00 685.13,122.00 685.13,111.00 " />
		<line x1="685.71" y1="116.50" x2="685.91" y2="116.50" stroke="#4ba34b" stroke-width="2.00" />
		<polygon fill="#1e8c1e" shape-rendering="crispEdges" points="686.53,111.00 686.53,122.00 685.53,122.00 685.53,111.00 " />
		<line x1="686.14" y1="116.50" x2="694.06" y2="116.50" stroke="#4ba34b" stroke-width="2.00" />
		<polygon fill="#1e8c1e" shape-rendering="crispEdges" points="694.71,111.00 694.71,122.00 693.71,122.00 693.71,111.00 " />
		<line x1="694.36" y1="116.50" x2="699.90" y2="116.50" stroke="#4ba34b" stroke-width="2.00" />
		<polygon fill="#1e8c1e" shape-rendering="crispEdges" points="700.52,111.00 700.52,122.00 699.52,122.00 699.52,111.00 " />
		<line x1="700.14" y1="116.50" x2="701.38" y2="116.50" stroke="#4ba34b" stroke-width="2.00" />
		<polygon fill="#1e8c1e" shape-rendering="crispEdges" points="702.04,111.00 702.04,122.00 701.04,122.00 701.04,111.00 " />
		<line x1="701.69" y1="116.50" x2="711.30" y2="116.50" stroke="#4ba34b" stroke-width="2.00" />
		<polygon fill="#1e8c1e" shape-rendering="crispEdges" points="711.87,111.00 711.87,122.00 710.87,122.00 710.87,111.00 " />
		<line x1="711.45" y1="116.50" x2="712.42" y2="116.50" stroke="#4ba34b" stroke-width="2.00" />
		<polygon fill="#1e8c1e" shape-rendering="crispEdges" points="713.01,111.00 713.01,122.00 712.01,122.00 712.01,111.00 " />
		<line x1="712.60" y1="116.50" x2="724.18" y2="116.50" stroke="#4ba34b" stroke-width="2.00" />
		<polygon fill="#1e8c1e" shape-rendering="crispEdges" points="724.87,111.00 724.87,122.00 723.87,122.00 723.87,111.00 " />
		<line x1="724.56" y1="116.50" x2="727.81" y2="116.50" stroke="#4ba34b" stroke-width="2.00" />
		<polygon fill="#1e8c1e" shape-rendering="crispEdges" points="728.48,111.00 728.48,122.00 727.48,122.00 727.48,111.00 " />
		<line x1="728.16" y1="116.50" x2="731.89" y2="116.50" stroke="#4ba34b" stroke-width="2.00" />
		<polygon fill="#1e8c1e" shape-rendering="crispEdges" points="732.52,111.00 732.52,122.00 731.52,122.00 731.52,111.00 " />
		<line x1="732.14" y1="116.50" x2="733.99" y2="116.50" stroke="#4ba34b" stroke-width="2.00" />
		<polygon fill="#1e8c1e" shape-rendering="crispEdges" points="734.58,111.00 734.58,122.00 733.58,122.00 733.58,111.00 " />
		<line x1="734.17" y1="116.50" x2="755.78" y2="116.50" stroke="#4ba34b" stroke-width="2.00" />
		<polygon fill="#b2b2b2" shape-rendering="crispEdges" points="749.38,116.50 740.58,112.10 742.78,116.50 740.58,120.90 " />
		<polygon fill="#1e8c1e" shape-rendering="crispEdges" points="756.44,111.00 756.44,122.00 755.44,122.00 755.44,111.00 " />
		<line x1="756.10" y1="116.50" x2="759.21" y2="116.50" stroke="#4ba34b" stroke-width="2.00" />
		<polygon fill="#1e8c1e" shape-rendering="crispEdges" points="759.84,111.00 759.84,122.00 758.84,122.00 758.84,111.00 " />
		<line x1="759.47" y1="116.50" x2="770.16" y2="116.50" stroke="#4ba34b" stroke-width="2.00" />
		<polygon fill="#1e8c1e" shape-rendering="crispEdges" points="770.76,111.00 770.76,122.00 769.76,122.00 769.76,111.00 " />
		<line x1="770.37" y1="116.50" x2="774.09" y2="116.50" stroke="#4ba34b" stroke-width="2.00" />
		<polygon fill="#1e8c1e" shape-rendering="crispEdges" points="774.74,111.00 774.74,122.00 773.74,122.00 773.74,111.00 " />
		<polygon fill="#ffffff" shape-rendering="crispEdges" points="598.90,122.00 598.90,111.00 481.14,111.00 481.14,122.00 " />
		<text x="481.14" y="120.00" font-family="Helvetica" font-size="10" fill="#124d94" >ENSSPUT00000022515.1</text>
		<polygon fill="#ffffff" shape-rendering="crispEdges" points="879.00,122.00 879.00,111.00 763.67,111.00 763.67,122.00 " />
		<text x="763.67" y="120.00" font-family="Helvetica" font-size="10" fill="#124d94" >ENSSPUP00000021112.1</text>
		<polygon fill="url('#gradient2')" shape-rendering="crispEdges" points="0.00,58.00 879.00,58.00 879.00,44.00 0.00,44.00 " clip-path="url('#clipping-rect2')" />
		<text x="0.00" y="54.00" font-family="Helvetica" font-size="12" fill="#333333" >Genes, Ensembl release 114</text>
		<polygon fill="#0000ff" fill-opacity="0.20" shape-rendering="crispEdges" points="113.50,31.50 113.50,23.10 113.50,23.10 " />
		<polygon fill="#0000ff" fill-opacity="0.20" shape-rendering="crispEdges" points="113.50,31.50 113.50,31.50 113.50,23.10 " />
		<line x1="113.50" y1="30.50" x2="113.50" y2="23.10" stroke="#0000ff" stroke-opacity="0.40" stroke-width="1.00" />
		<line x1="113.50" y1="30.50" x2="113.50" y2="23.10" stroke="#0000ff" stroke-opacity="0.40" stroke-width="1.00" />
		<polygon fill="#0000ff" shape-rendering="crispEdges" points="107.79,22.35 107.50,20.50 107.79,18.65 108.65,16.97 109.97,15.65 111.65,14.79 113.50,14.50 113.50,26.50 111.65,26.21 109.97,25.35 108.65,24.03 " />
		<polygon fill="#0000ff" fill-opacity="0.60" shape-rendering="crispEdges" points="198.19,26.50 198.19,14.50 113.50,14.50 113.50,26.50 " />
		<text x="115.50" y="23.50" font-family="Helvetica" font-size="10" fill="#ffffff" >PLAAT1/HRASLS</text>
		<polygon fill="#0000ff" fill-opacity="0.20" shape-rendering="crispEdges" points="113.13,162.01 113.13,31.00 113.13,31.00 " />
		<polygon fill="#0000ff" fill-opacity="0.20" shape-rendering="crispEdges" points="113.13,162.01 113.13,162.01 113.13,31.00 " />
		<line x1="113.13" y1="161.00" x2="113.13" y2="31.00" stroke="#0000ff" stroke-opacity="0.40" stroke-width="1.00" />
		<line x1="113.13" y1="161.00" x2="113.13" y2="31.00" stroke="#0000ff" stroke-opacity="0.40" stroke-width="1.00" />
		<polygon fill="#0000ff" fill-opacity="0.20" shape-rendering="crispEdges" points="185.50,31.50 185.50,23.10 185.50,23.10 " />
		<polygon fill="#0000ff" fill-opacity="0.20" shape-rendering="crispEdges" points="185.50,31.50 185.50,31.50 185.50,23.10 " />
		<line x1="185.50" y1="30.50" x2="185.50" y2="23.10" stroke="#0000ff" stroke-opacity="0.40" stroke-width="1.00" />
		<line x1="185.50" y1="30.50" x2="185.50" y2="23.10" stroke="#0000ff" stroke-opacity="0.40" stroke-width="1.00" />
		<polygon fill="#0000ff" shape-rendering="crispEdges" points="179.79,22.35 179.50,20.50 179.79,18.65 180.65,16.97 181.97,15.65 183.65,14.79 185.50,14.50 185.50,26.50 183.65,26.21 181.97,25.35 180.65,24.03 " />
		<polygon fill="#0000ff" fill-opacity="0.60" shape-rendering="crispEdges" points="233.70,26.50 233.70,14.50 185.50,14.50 185.50,26.50 " />
		<text x="187.50" y="23.50" font-family="Helvetica" font-size="10" fill="#ffffff" >ATP13A5</text>
		<polygon fill="#0000ff" fill-opacity="0.20" shape-rendering="crispEdges" points="185.21,162.01 185.21,31.00 185.21,31.00 " />
		<polygon fill="#0000ff" fill-opacity="0.20" shape-rendering="crispEdges" points="185.21,162.01 185.21,162.01 185.21,31.00 " />
		<line x1="185.21" y1="161.00" x2="185.21" y2="31.00" stroke="#0000ff" stroke-opacity="0.40" stroke-width="1.00" />
		<line x1="185.21" y1="161.00" x2="185.21" y2="31.00" stroke="#0000ff" stroke-opacity="0.40" stroke-width="1.00" />
		<polygon fill="#0000ff" fill-opacity="0.20" shape-rendering="crispEdges" points="373.50,31.50 373.50,23.10 373.50,23.10 " />
		<polygon fill="#0000ff" fill-opacity="0.20" shape-rendering="crispEdges" points="373.50,31.50 373.50,31.50 373.50,23.10 " />
		<line x1="373.50" y1="30.50" x2="373.50" y2="23.10" stroke="#0000ff" stroke-opacity="0.40" stroke-width="1.00" />
		<line x1="373.50" y1="30.50" x2="373.50" y2="23.10" stroke="#0000ff" stroke-opacity="0.40" stroke-width="1.00" />
		<polygon fill="#0000ff" shape-rendering="crispEdges" points="367.79,22.35 367.50,20.50 367.79,18.65 368.65,16.97 369.97,15.65 371.65,14.79 373.50,14.50 373.50,26.50 371.65,26.21 369.97,25.35 368.65,24.03 " />
		<polygon fill="#0000ff" fill-opacity="0.60" shape-rendering="crispEdges" points="421.78,26.50 421.78,14.50 373.50,14.50 373.50,26.50 " />
		<text x="375.50" y="23.50" font-family="Helvetica" font-size="10" fill="#ffffff" >ATP13A4</text>
		<polygon fill="#0000ff" fill-opacity="0.20" shape-rendering="crispEdges" points="373.42,162.01 373.42,31.00 373.42,31.00 " />
		<polygon fill="#0000ff" fill-opacity="0.20" shape-rendering="crispEdges" points="373.42,162.01 373.42,162.01 373.42,31.00 " />
		<line x1="373.42" y1="161.00" x2="373.42" y2="31.00" stroke="#0000ff" stroke-opacity="0.40" stroke-width="1.00" />
		<line x1="373.42" y1="161.00" x2="373.42" y2="31.00" stroke="#0000ff" stroke-opacity="0.40" stroke-width="1.00" />
		<polygon fill="#0000ff" fill-opacity="0.20" shape-rendering="crispEdges" points="609.50,31.50 609.50,23.10 609.50,23.10 " />
		<polygon fill="#0000ff" fill-opacity="0.20" shape-rendering="crispEdges" points="609.50,31.50 609.50,31.50 609.50,23.10 " />
		<line x1="609.50" y1="30.50" x2="609.50" y2="23.10" stroke="#0000ff" stroke-opacity="0.40" stroke-width="1.00" />
		<line x1="609.50" y1="30.50" x2="609.50" y2="23.10" stroke="#0000ff" stroke-opacity="0.40" stroke-width="1.00" />
		<polygon fill="#0000ff" shape-rendering="crispEdges" points="603.79,22.35 603.50,20.50 603.79,18.65 604.65,16.97 605.97,15.65 607.65,14.79 609.50,14.50 609.50,26.50 607.65,26.21 605.97,25.35 604.65,24.03 " />
		<polygon fill="#0000ff" fill-opacity="0.60" shape-rendering="crispEdges" points="639.72,26.50 639.72,14.50 609.50,14.50 609.50,26.50 " />
		<text x="611.50" y="23.50" font-family="Helvetica" font-size="10" fill="#ffffff" >OPA1</text>
		<polygon fill="#0000ff" fill-opacity="0.20" shape-rendering="crispEdges" points="609.69,162.01 609.69,31.00 609.69,31.00 " />
		<polygon fill="#0000ff" fill-opacity="0.20" shape-rendering="crispEdges" points="609.69,162.01 609.69,162.01 609.69,31.00 " />
		<line x1="609.69" y1="161.00" x2="609.69" y2="31.00" stroke="#0000ff" stroke-opacity="0.40" stroke-width="1.00" />
		<line x1="609.69" y1="161.00" x2="609.69" y2="31.00" stroke="#0000ff" stroke-opacity="0.40" stroke-width="1.00" />
		<polygon fill="#e5e5e5" shape-rendering="crispEdges" points="879.00,13.00 879.00,-1.00 0.00,-1.00 0.00,13.00 " />
		<text x="0.00" y="10.00" font-family="Helvetica Bold" font-size="12" text-anchor="start" fill="#000000" >QEPC01006697.1:10446..397066 Sphenodon punctatus isolate mauimua-1 ScrUdWx_1933, whole genome shotgun sequence</text>
	</g>
</svg>
