<?xml version="1.0" standalone="no" ?>
<!DOCTYPE svg PUBLIC "-//W3C//DTD SVG 1.1//EN" "http://www.w3.org/Graphics/SVG/1.1/DTD/svg11.dtd">
<svg width="879px" height="96px" xmlns="http://www.w3.org/2000/svg" version="1.1" viewBox="0 0 879 96" >
	<style type="text/css" > <![CDATA[
		@import url("https://www.ncbi.nlm.nih.gov/projects/sviewer/css/svg_fonts.css");
	]]>
	</style>
	<desc >Generated by NCBI Genome Workbench http://www.ncbi.nlm.nih.gov/tools/gbench/</desc>
	<defs >
		<clipPath id="clipping-rect1" >
			<rect x="0" y="14" width="879" height="18" />
		</clipPath>
		<linearGradient id="gradient1" gradientTransform="rotate(90)" >
			<stop offset="0%" stop-color="#6c6c6c" />
			<stop offset="50%" stop-color="#b5b5b5" />
			<stop offset="100%" stop-color="#6c6c6c" />
		</linearGradient>
		<clipPath id="clipping-rect2" >
			<rect x="0" y="32" width="879" height="64" />
		</clipPath>
		<linearGradient id="gradient2" gradientTransform="rotate(90)" >
			<stop offset="0%" stop-color="#e6e6e6" stop-opacity="0.71" />
			<stop offset="100%" stop-color="#ffffff" stop-opacity="0.00" />
		</linearGradient>
	</defs>
	<g >
		<polygon fill="#ffffff" shape-rendering="crispEdges" points="879.00,31.00 879.00,13.00 0.00,13.00 0.00,31.00 " />
		<line x1="0.00" y1="29.00" x2="879.00" y2="29.00" stroke="#7f7f7f" stroke-width="1.00" clip-path="url('#clipping-rect1')" />
		<line x1="871.98" y1="29.00" x2="871.98" y2="27.00" stroke="#7f7f7f" stroke-width="1.00" clip-path="url('#clipping-rect1')" />
		<line x1="862.73" y1="29.00" x2="862.73" y2="27.00" stroke="#7f7f7f" stroke-width="1.00" clip-path="url('#clipping-rect1')" />
		<line x1="853.48" y1="29.00" x2="853.48" y2="27.00" stroke="#7f7f7f" stroke-width="1.00" clip-path="url('#clipping-rect1')" />
		<line x1="844.22" y1="29.00" x2="844.22" y2="27.00" stroke="#7f7f7f" stroke-width="1.00" clip-path="url('#clipping-rect1')" />
		<line x1="834.97" y1="29.00" x2="834.97" y2="26.00" stroke="#7f7f7f" stroke-width="1.00" clip-path="url('#clipping-rect1')" />
		<line x1="825.72" y1="29.00" x2="825.72" y2="27.00" stroke="#7f7f7f" stroke-width="1.00" clip-path="url('#clipping-rect1')" />
		<line x1="816.47" y1="29.00" x2="816.47" y2="27.00" stroke="#7f7f7f" stroke-width="1.00" clip-path="url('#clipping-rect1')" />
		<line x1="807.22" y1="29.00" x2="807.22" y2="27.00" stroke="#7f7f7f" stroke-width="1.00" clip-path="url('#clipping-rect1')" />
		<line x1="797.97" y1="29.00" x2="797.97" y2="27.00" stroke="#7f7f7f" stroke-width="1.00" clip-path="url('#clipping-rect1')" />
		<line x1="788.72" y1="29.00" x2="788.72" y2="27.00" stroke="#7f7f7f" stroke-width="1.00" clip-path="url('#clipping-rect1')" />
		<line x1="779.46" y1="29.00" x2="779.46" y2="27.00" stroke="#7f7f7f" stroke-width="1.00" clip-path="url('#clipping-rect1')" />
		<line x1="770.21" y1="29.00" x2="770.21" y2="27.00" stroke="#7f7f7f" stroke-width="1.00" clip-path="url('#clipping-rect1')" />
		<line x1="760.96" y1="29.00" x2="760.96" y2="27.00" stroke="#7f7f7f" stroke-width="1.00" clip-path="url('#clipping-rect1')" />
		<line x1="751.71" y1="29.00" x2="751.71" y2="27.00" stroke="#7f7f7f" stroke-width="1.00" clip-path="url('#clipping-rect1')" />
		<line x1="742.46" y1="29.00" x2="742.46" y2="26.00" stroke="#7f7f7f" stroke-width="1.00" clip-path="url('#clipping-rect1')" />
		<line x1="733.21" y1="29.00" x2="733.21" y2="27.00" stroke="#7f7f7f" stroke-width="1.00" clip-path="url('#clipping-rect1')" />
		<line x1="723.96" y1="29.00" x2="723.96" y2="27.00" stroke="#7f7f7f" stroke-width="1.00" clip-path="url('#clipping-rect1')" />
		<line x1="714.70" y1="29.00" x2="714.70" y2="27.00" stroke="#7f7f7f" stroke-width="1.00" clip-path="url('#clipping-rect1')" />
		<line x1="705.45" y1="29.00" x2="705.45" y2="27.00" stroke="#7f7f7f" stroke-width="1.00" clip-path="url('#clipping-rect1')" />
		<line x1="696.20" y1="29.00" x2="696.20" y2="27.00" stroke="#7f7f7f" stroke-width="1.00" clip-path="url('#clipping-rect1')" />
		<line x1="686.95" y1="29.00" x2="686.95" y2="27.00" stroke="#7f7f7f" stroke-width="1.00" clip-path="url('#clipping-rect1')" />
		<line x1="677.70" y1="29.00" x2="677.70" y2="27.00" stroke="#7f7f7f" stroke-width="1.00" clip-path="url('#clipping-rect1')" />
		<line x1="668.45" y1="29.00" x2="668.45" y2="27.00" stroke="#7f7f7f" stroke-width="1.00" clip-path="url('#clipping-rect1')" />
		<line x1="659.20" y1="29.00" x2="659.20" y2="27.00" stroke="#7f7f7f" stroke-width="1.00" clip-path="url('#clipping-rect1')" />
		<line x1="649.94" y1="29.00" x2="649.94" y2="26.00" stroke="#7f7f7f" stroke-width="1.00" clip-path="url('#clipping-rect1')" />
		<line x1="640.69" y1="29.00" x2="640.69" y2="27.00" stroke="#7f7f7f" stroke-width="1.00" clip-path="url('#clipping-rect1')" />
		<line x1="631.44" y1="29.00" x2="631.44" y2="27.00" stroke="#7f7f7f" stroke-width="1.00" clip-path="url('#clipping-rect1')" />
		<line x1="622.19" y1="29.00" x2="622.19" y2="27.00" stroke="#7f7f7f" stroke-width="1.00" clip-path="url('#clipping-rect1')" />
		<line x1="612.94" y1="29.00" x2="612.94" y2="27.00" stroke="#7f7f7f" stroke-width="1.00" clip-path="url('#clipping-rect1')" />
		<line x1="603.69" y1="29.00" x2="603.69" y2="27.00" stroke="#7f7f7f" stroke-width="1.00" clip-path="url('#clipping-rect1')" />
		<line x1="594.44" y1="29.00" x2="594.44" y2="27.00" stroke="#7f7f7f" stroke-width="1.00" clip-path="url('#clipping-rect1')" />
		<line x1="585.18" y1="29.00" x2="585.18" y2="27.00" stroke="#7f7f7f" stroke-width="1.00" clip-path="url('#clipping-rect1')" />
		<line x1="575.93" y1="29.00" x2="575.93" y2="27.00" stroke="#7f7f7f" stroke-width="1.00" clip-path="url('#clipping-rect1')" />
		<line x1="566.68" y1="29.00" x2="566.68" y2="27.00" stroke="#7f7f7f" stroke-width="1.00" clip-path="url('#clipping-rect1')" />
		<line x1="557.43" y1="29.00" x2="557.43" y2="26.00" stroke="#7f7f7f" stroke-width="1.00" clip-path="url('#clipping-rect1')" />
		<line x1="548.18" y1="29.00" x2="548.18" y2="27.00" stroke="#7f7f7f" stroke-width="1.00" clip-path="url('#clipping-rect1')" />
		<line x1="538.93" y1="29.00" x2="538.93" y2="27.00" stroke="#7f7f7f" stroke-width="1.00" clip-path="url('#clipping-rect1')" />
		<line x1="529.68" y1="29.00" x2="529.68" y2="27.00" stroke="#7f7f7f" stroke-width="1.00" clip-path="url('#clipping-rect1')" />
		<line x1="520.42" y1="29.00" x2="520.42" y2="27.00" stroke="#7f7f7f" stroke-width="1.00" clip-path="url('#clipping-rect1')" />
		<line x1="511.17" y1="29.00" x2="511.17" y2="27.00" stroke="#7f7f7f" stroke-width="1.00" clip-path="url('#clipping-rect1')" />
		<line x1="501.92" y1="29.00" x2="501.92" y2="27.00" stroke="#7f7f7f" stroke-width="1.00" clip-path="url('#clipping-rect1')" />
		<line x1="492.67" y1="29.00" x2="492.67" y2="27.00" stroke="#7f7f7f" stroke-width="1.00" clip-path="url('#clipping-rect1')" />
		<line x1="483.42" y1="29.00" x2="483.42" y2="27.00" stroke="#7f7f7f" stroke-width="1.00" clip-path="url('#clipping-rect1')" />
		<line x1="474.17" y1="29.00" x2="474.17" y2="27.00" stroke="#7f7f7f" stroke-width="1.00" clip-path="url('#clipping-rect1')" />
		<line x1="464.92" y1="29.00" x2="464.92" y2="26.00" stroke="#7f7f7f" stroke-width="1.00" clip-path="url('#clipping-rect1')" />
		<line x1="455.67" y1="29.00" x2="455.67" y2="27.00" stroke="#7f7f7f" stroke-width="1.00" clip-path="url('#clipping-rect1')" />
		<line x1="446.41" y1="29.00" x2="446.41" y2="27.00" stroke="#7f7f7f" stroke-width="1.00" clip-path="url('#clipping-rect1')" />
		<line x1="437.16" y1="29.00" x2="437.16" y2="27.00" stroke="#7f7f7f" stroke-width="1.00" clip-path="url('#clipping-rect1')" />
		<line x1="427.91" y1="29.00" x2="427.91" y2="27.00" stroke="#7f7f7f" stroke-width="1.00" clip-path="url('#clipping-rect1')" />
		<line x1="418.66" y1="29.00" x2="418.66" y2="27.00" stroke="#7f7f7f" stroke-width="1.00" clip-path="url('#clipping-rect1')" />
		<line x1="409.41" y1="29.00" x2="409.41" y2="27.00" stroke="#7f7f7f" stroke-width="1.00" clip-path="url('#clipping-rect1')" />
		<line x1="400.16" y1="29.00" x2="400.16" y2="27.00" stroke="#7f7f7f" stroke-width="1.00" clip-path="url('#clipping-rect1')" />
		<line x1="390.91" y1="29.00" x2="390.91" y2="27.00" stroke="#7f7f7f" stroke-width="1.00" clip-path="url('#clipping-rect1')" />
		<line x1="381.65" y1="29.00" x2="381.65" y2="27.00" stroke="#7f7f7f" stroke-width="1.00" clip-path="url('#clipping-rect1')" />
		<line x1="372.40" y1="29.00" x2="372.40" y2="26.00" stroke="#7f7f7f" stroke-width="1.00" clip-path="url('#clipping-rect1')" />
		<line x1="363.15" y1="29.00" x2="363.15" y2="27.00" stroke="#7f7f7f" stroke-width="1.00" clip-path="url('#clipping-rect1')" />
		<line x1="353.90" y1="29.00" x2="353.90" y2="27.00" stroke="#7f7f7f" stroke-width="1.00" clip-path="url('#clipping-rect1')" />
		<line x1="344.65" y1="29.00" x2="344.65" y2="27.00" stroke="#7f7f7f" stroke-width="1.00" clip-path="url('#clipping-rect1')" />
		<line x1="335.40" y1="29.00" x2="335.40" y2="27.00" stroke="#7f7f7f" stroke-width="1.00" clip-path="url('#clipping-rect1')" />
		<line x1="326.15" y1="29.00" x2="326.15" y2="27.00" stroke="#7f7f7f" stroke-width="1.00" clip-path="url('#clipping-rect1')" />
		<line x1="316.89" y1="29.00" x2="316.89" y2="27.00" stroke="#7f7f7f" stroke-width="1.00" clip-path="url('#clipping-rect1')" />
		<line x1="307.64" y1="29.00" x2="307.64" y2="27.00" stroke="#7f7f7f" stroke-width="1.00" clip-path="url('#clipping-rect1')" />
		<line x1="298.39" y1="29.00" x2="298.39" y2="27.00" stroke="#7f7f7f" stroke-width="1.00" clip-path="url('#clipping-rect1')" />
		<line x1="289.14" y1="29.00" x2="289.14" y2="27.00" stroke="#7f7f7f" stroke-width="1.00" clip-path="url('#clipping-rect1')" />
		<line x1="279.89" y1="29.00" x2="279.89" y2="26.00" stroke="#7f7f7f" stroke-width="1.00" clip-path="url('#clipping-rect1')" />
		<line x1="270.64" y1="29.00" x2="270.64" y2="27.00" stroke="#7f7f7f" stroke-width="1.00" clip-path="url('#clipping-rect1')" />
		<line x1="261.39" y1="29.00" x2="261.39" y2="27.00" stroke="#7f7f7f" stroke-width="1.00" clip-path="url('#clipping-rect1')" />
		<line x1="252.13" y1="29.00" x2="252.13" y2="27.00" stroke="#7f7f7f" stroke-width="1.00" clip-path="url('#clipping-rect1')" />
		<line x1="242.88" y1="29.00" x2="242.88" y2="27.00" stroke="#7f7f7f" stroke-width="1.00" clip-path="url('#clipping-rect1')" />
		<line x1="233.63" y1="29.00" x2="233.63" y2="27.00" stroke="#7f7f7f" stroke-width="1.00" clip-path="url('#clipping-rect1')" />
		<line x1="224.38" y1="29.00" x2="224.38" y2="27.00" stroke="#7f7f7f" stroke-width="1.00" clip-path="url('#clipping-rect1')" />
		<line x1="215.13" y1="29.00" x2="215.13" y2="27.00" stroke="#7f7f7f" stroke-width="1.00" clip-path="url('#clipping-rect1')" />
		<line x1="205.88" y1="29.00" x2="205.88" y2="27.00" stroke="#7f7f7f" stroke-width="1.00" clip-path="url('#clipping-rect1')" />
		<line x1="196.63" y1="29.00" x2="196.63" y2="27.00" stroke="#7f7f7f" stroke-width="1.00" clip-path="url('#clipping-rect1')" />
		<line x1="187.37" y1="29.00" x2="187.37" y2="26.00" stroke="#7f7f7f" stroke-width="1.00" clip-path="url('#clipping-rect1')" />
		<line x1="178.12" y1="29.00" x2="178.12" y2="27.00" stroke="#7f7f7f" stroke-width="1.00" clip-path="url('#clipping-rect1')" />
		<line x1="168.87" y1="29.00" x2="168.87" y2="27.00" stroke="#7f7f7f" stroke-width="1.00" clip-path="url('#clipping-rect1')" />
		<line x1="159.62" y1="29.00" x2="159.62" y2="27.00" stroke="#7f7f7f" stroke-width="1.00" clip-path="url('#clipping-rect1')" />
		<line x1="150.37" y1="29.00" x2="150.37" y2="27.00" stroke="#7f7f7f" stroke-width="1.00" clip-path="url('#clipping-rect1')" />
		<line x1="141.12" y1="29.00" x2="141.12" y2="27.00" stroke="#7f7f7f" stroke-width="1.00" clip-path="url('#clipping-rect1')" />
		<line x1="131.87" y1="29.00" x2="131.87" y2="27.00" stroke="#7f7f7f" stroke-width="1.00" clip-path="url('#clipping-rect1')" />
		<line x1="122.61" y1="29.00" x2="122.61" y2="27.00" stroke="#7f7f7f" stroke-width="1.00" clip-path="url('#clipping-rect1')" />
		<line x1="113.36" y1="29.00" x2="113.36" y2="27.00" stroke="#7f7f7f" stroke-width="1.00" clip-path="url('#clipping-rect1')" />
		<line x1="104.11" y1="29.00" x2="104.11" y2="27.00" stroke="#7f7f7f" stroke-width="1.00" clip-path="url('#clipping-rect1')" />
		<line x1="94.86" y1="29.00" x2="94.86" y2="26.00" stroke="#7f7f7f" stroke-width="1.00" clip-path="url('#clipping-rect1')" />
		<line x1="85.61" y1="29.00" x2="85.61" y2="27.00" stroke="#7f7f7f" stroke-width="1.00" clip-path="url('#clipping-rect1')" />
		<line x1="76.36" y1="29.00" x2="76.36" y2="27.00" stroke="#7f7f7f" stroke-width="1.00" clip-path="url('#clipping-rect1')" />
		<line x1="67.11" y1="29.00" x2="67.11" y2="27.00" stroke="#7f7f7f" stroke-width="1.00" clip-path="url('#clipping-rect1')" />
		<line x1="57.85" y1="29.00" x2="57.85" y2="27.00" stroke="#7f7f7f" stroke-width="1.00" clip-path="url('#clipping-rect1')" />
		<line x1="48.60" y1="29.00" x2="48.60" y2="27.00" stroke="#7f7f7f" stroke-width="1.00" clip-path="url('#clipping-rect1')" />
		<line x1="39.35" y1="29.00" x2="39.35" y2="27.00" stroke="#7f7f7f" stroke-width="1.00" clip-path="url('#clipping-rect1')" />
		<line x1="30.10" y1="29.00" x2="30.10" y2="27.00" stroke="#7f7f7f" stroke-width="1.00" clip-path="url('#clipping-rect1')" />
		<line x1="20.85" y1="29.00" x2="20.85" y2="27.00" stroke="#7f7f7f" stroke-width="1.00" clip-path="url('#clipping-rect1')" />
		<line x1="11.60" y1="29.00" x2="11.60" y2="27.00" stroke="#7f7f7f" stroke-width="1.00" clip-path="url('#clipping-rect1')" />
		<line x1="2.35" y1="29.00" x2="2.35" y2="26.00" stroke="#7f7f7f" stroke-width="1.00" clip-path="url('#clipping-rect1')" />
		<text x="836.97" y="24.00" font-family="Helvetica" font-size="10" fill="#333333" clip-path="url('#clipping-rect1')" >200 K</text>
		<line x1="834.97" y1="31.00" x2="834.97" y2="16.00" stroke="#7f7f7f" stroke-width="1.00" clip-path="url('#clipping-rect1')" />
		<text x="744.46" y="24.00" font-family="Helvetica" font-size="10" fill="#333333" clip-path="url('#clipping-rect1')" >300 K</text>
		<line x1="742.46" y1="31.00" x2="742.46" y2="16.00" stroke="#7f7f7f" stroke-width="1.00" clip-path="url('#clipping-rect1')" />
		<text x="651.94" y="24.00" font-family="Helvetica" font-size="10" fill="#333333" clip-path="url('#clipping-rect1')" >400 K</text>
		<line x1="649.94" y1="31.00" x2="649.94" y2="16.00" stroke="#7f7f7f" stroke-width="1.00" clip-path="url('#clipping-rect1')" />
		<text x="559.43" y="24.00" font-family="Helvetica" font-size="10" fill="#333333" clip-path="url('#clipping-rect1')" >500 K</text>
		<line x1="557.43" y1="31.00" x2="557.43" y2="16.00" stroke="#7f7f7f" stroke-width="1.00" clip-path="url('#clipping-rect1')" />
		<text x="466.92" y="24.00" font-family="Helvetica" font-size="10" fill="#333333" clip-path="url('#clipping-rect1')" >600 K</text>
		<line x1="464.92" y1="31.00" x2="464.92" y2="16.00" stroke="#7f7f7f" stroke-width="1.00" clip-path="url('#clipping-rect1')" />
		<text x="374.40" y="24.00" font-family="Helvetica" font-size="10" fill="#333333" clip-path="url('#clipping-rect1')" >700 K</text>
		<line x1="372.40" y1="31.00" x2="372.40" y2="16.00" stroke="#7f7f7f" stroke-width="1.00" clip-path="url('#clipping-rect1')" />
		<text x="281.89" y="24.00" font-family="Helvetica" font-size="10" fill="#333333" clip-path="url('#clipping-rect1')" >800 K</text>
		<line x1="279.89" y1="31.00" x2="279.89" y2="16.00" stroke="#7f7f7f" stroke-width="1.00" clip-path="url('#clipping-rect1')" />
		<text x="189.37" y="24.00" font-family="Helvetica" font-size="10" fill="#333333" clip-path="url('#clipping-rect1')" >900 K</text>
		<line x1="187.37" y1="31.00" x2="187.37" y2="16.00" stroke="#7f7f7f" stroke-width="1.00" clip-path="url('#clipping-rect1')" />
		<text x="96.86" y="24.00" font-family="Helvetica" font-size="10" fill="#333333" clip-path="url('#clipping-rect1')" >1 M</text>
		<line x1="94.86" y1="31.00" x2="94.86" y2="16.00" stroke="#7f7f7f" stroke-width="1.00" clip-path="url('#clipping-rect1')" />
		<text x="4.35" y="24.00" font-family="Helvetica" font-size="10" fill="#333333" clip-path="url('#clipping-rect1')" >1,100 K</text>
		<line x1="2.35" y1="31.00" x2="2.35" y2="16.00" stroke="#7f7f7f" stroke-width="1.00" clip-path="url('#clipping-rect1')" />
		<line x1="834.95" y1="95.00" x2="834.95" y2="31.00" stroke="#ebebeb" stroke-width="1.00" />
		<line x1="742.85" y1="95.00" x2="742.85" y2="31.00" stroke="#ebebeb" stroke-width="1.00" />
		<line x1="649.74" y1="95.00" x2="649.74" y2="31.00" stroke="#ebebeb" stroke-width="1.00" />
		<line x1="557.63" y1="95.00" x2="557.63" y2="31.00" stroke="#ebebeb" stroke-width="1.00" />
		<line x1="464.53" y1="95.00" x2="464.53" y2="31.00" stroke="#ebebeb" stroke-width="1.00" />
		<line x1="372.42" y1="95.00" x2="372.42" y2="31.00" stroke="#ebebeb" stroke-width="1.00" />
		<line x1="279.32" y1="95.00" x2="279.32" y2="31.00" stroke="#ebebeb" stroke-width="1.00" />
		<line x1="187.21" y1="95.00" x2="187.21" y2="31.00" stroke="#ebebeb" stroke-width="1.00" />
		<line x1="94.11" y1="95.00" x2="94.11" y2="31.00" stroke="#ebebeb" stroke-width="1.00" />
		<line x1="2.00" y1="95.00" x2="2.00" y2="31.00" stroke="#ebebeb" stroke-width="1.00" />
		<polygon fill="url('#gradient1')" shape-rendering="crispEdges" points="0.00,37.50 0.00,33.00 879.00,33.00 879.00,37.50 879.00,42.00 0.00,42.00 " />
		<line x1="879.00" y1="42.00" x2="879.00" y2="33.00" stroke="#6c6c6c" stroke-width="1.00" stroke-linejoin="round" />
		<line x1="879.00" y1="33.00" x2="0.00" y2="33.00" stroke="#6c6c6c" stroke-width="1.00" stroke-linejoin="round" />
		<line x1="0.00" y1="33.00" x2="0.00" y2="42.00" stroke="#6c6c6c" stroke-width="1.00" stroke-linejoin="round" />
		<line x1="879.00" y1="42.00" x2="0.00" y2="42.00" stroke="#6c6c6c" stroke-width="1.00" stroke-linejoin="round" />
		<line x1="879.00" y1="63.00" x2="879.00" y2="91.00" stroke="#009900" stroke-opacity="0.10" stroke-width="1.00" stroke-linejoin="round" />
		<line x1="879.00" y1="91.00" x2="694.75" y2="91.00" stroke="#009900" stroke-opacity="0.10" stroke-width="1.00" stroke-linejoin="round" />
		<line x1="694.75" y1="91.00" x2="694.75" y2="63.00" stroke="#009900" stroke-opacity="0.10" stroke-width="1.00" stroke-linejoin="round" />
		<line x1="879.00" y1="63.00" x2="694.75" y2="63.00" stroke="#009900" stroke-opacity="0.10" stroke-width="1.00" stroke-linejoin="round" />
		<text x="762.10" y="72.00" font-family="Helvetica" font-size="10" fill="#124d94" >ENSSPUG00000010624</text>
		<polygon fill="#1e8c1e" shape-rendering="crispEdges" points="817.00,78.00 817.00,89.00 818.00,89.00 818.00,78.00 " />
		<line x1="817.49" y1="83.50" x2="817.25" y2="83.50" stroke="#4ba34b" stroke-width="2.00" />
		<polygon fill="#1e8c1e" shape-rendering="crispEdges" points="816.08,78.00 816.08,89.00 817.25,89.00 817.25,78.00 " />
		<polygon fill="#ffffff" shape-rendering="crispEdges" points="696.75,89.00 696.75,78.00 812.08,78.00 812.08,89.00 " />
		<text x="697.75" y="87.00" font-family="Helvetica" font-size="10" fill="#124d94" >ENSSPUP00000013784.1</text>
		<line x1="663.22" y1="63.00" x2="663.22" y2="78.00" stroke="#009900" stroke-opacity="0.10" stroke-width="1.00" stroke-linejoin="round" />
		<line x1="663.22" y1="78.00" x2="379.07" y2="78.00" stroke="#009900" stroke-opacity="0.10" stroke-width="1.00" stroke-linejoin="round" />
		<line x1="379.07" y1="78.00" x2="379.07" y2="63.00" stroke="#009900" stroke-opacity="0.10" stroke-width="1.00" stroke-linejoin="round" />
		<line x1="663.22" y1="63.00" x2="379.07" y2="63.00" stroke="#009900" stroke-opacity="0.10" stroke-width="1.00" stroke-linejoin="round" />
		<polygon fill="#77b977" shape-rendering="crispEdges" points="527.38,65.00 527.38,76.00 528.38,76.00 528.38,65.00 " />
		<line x1="527.78" y1="70.50" x2="502.14" y2="70.50" stroke="#4ba34b" stroke-width="2.00" />
		<polygon fill="#b2b2b2" shape-rendering="crispEdges" points="510.56,70.50 519.36,66.10 517.16,70.50 519.36,74.90 " />
		<polygon fill="#77b977" shape-rendering="crispEdges" points="501.63,65.00 501.63,76.00 502.63,76.00 502.63,65.00 " />
		<line x1="502.12" y1="70.50" x2="499.40" y2="70.50" stroke="#4ba34b" stroke-width="2.00" />
		<polygon fill="#77b977" shape-rendering="crispEdges" points="498.89,65.00 498.89,76.00 499.89,76.00 499.89,65.00 " />
		<polygon fill="#1e8c1e" shape-rendering="crispEdges" points="498.84,65.00 498.84,76.00 499.84,76.00 499.84,65.00 " />
		<line x1="499.29" y1="70.50" x2="477.80" y2="70.50" stroke="#4ba34b" stroke-width="2.00" />
		<polygon fill="#b2b2b2" shape-rendering="crispEdges" points="484.15,70.50 492.95,66.10 490.75,70.50 492.95,74.90 " />
		<polygon fill="#1e8c1e" shape-rendering="crispEdges" points="477.25,65.00 477.25,76.00 478.25,76.00 478.25,65.00 " />
		<line x1="477.71" y1="70.50" x2="388.88" y2="70.50" stroke="#4ba34b" stroke-width="2.00" />
		<polygon fill="#b2b2b2" shape-rendering="crispEdges" points="428.89,70.50 437.69,66.10 435.49,70.50 437.69,74.90 " />
		<polygon fill="#1e8c1e" shape-rendering="crispEdges" points="388.29,65.00 388.29,76.00 389.29,76.00 389.29,65.00 " />
		<line x1="388.69" y1="70.50" x2="381.18" y2="70.50" stroke="#4ba34b" stroke-width="2.00" />
		<polygon fill="#1e8c1e" shape-rendering="crispEdges" points="380.62,65.00 380.62,76.00 381.62,76.00 381.62,65.00 " />
		<polygon fill="#ffffff" shape-rendering="crispEdges" points="527.97,76.00 527.97,65.00 660.22,65.00 660.22,76.00 " />
		<text x="531.97" y="74.00" font-family="Helvetica" font-size="10" fill="#124d94" >ENSSPUG00000010637 [+4]</text>
		<line x1="174.55" y1="63.00" x2="174.55" y2="91.00" stroke="#009900" stroke-opacity="0.10" stroke-width="1.00" stroke-linejoin="round" />
		<line x1="174.55" y1="91.00" x2="0.00" y2="91.00" stroke="#009900" stroke-opacity="0.10" stroke-width="1.00" stroke-linejoin="round" />
		<line x1="0.00" y1="91.00" x2="0.00" y2="63.00" stroke="#009900" stroke-opacity="0.10" stroke-width="1.00" stroke-linejoin="round" />
		<line x1="174.55" y1="63.00" x2="0.00" y2="63.00" stroke="#009900" stroke-opacity="0.10" stroke-width="1.00" stroke-linejoin="round" />
		<text x="-27.87" y="72.00" font-family="Helvetica" font-size="10" fill="#124d94" >ENSSPUG00000010663</text>
		<polygon fill="#1e8c1e" shape-rendering="crispEdges" points="52.71,78.00 52.71,89.00 53.71,89.00 53.71,78.00 " />
		<line x1="53.20" y1="83.50" x2="51.67" y2="83.50" stroke="#4ba34b" stroke-width="2.00" />
		<polygon fill="#1e8c1e" shape-rendering="crispEdges" points="51.12,78.00 51.12,89.00 52.12,89.00 52.12,78.00 " />
		<line x1="51.57" y1="83.50" x2="50.09" y2="83.50" stroke="#4ba34b" stroke-width="2.00" />
		<polygon fill="#1e8c1e" shape-rendering="crispEdges" points="49.55,78.00 49.55,89.00 50.55,89.00 50.55,78.00 " />
		<line x1="50.01" y1="83.50" x2="49.52" y2="83.50" stroke="#4ba34b" stroke-width="2.00" />
		<polygon fill="#1e8c1e" shape-rendering="crispEdges" points="48.97,78.00 48.97,89.00 49.97,89.00 49.97,78.00 " />
		<line x1="49.42" y1="83.50" x2="48.91" y2="83.50" stroke="#4ba34b" stroke-width="2.00" />
		<polygon fill="#1e8c1e" shape-rendering="crispEdges" points="48.38,78.00 48.38,89.00 49.38,89.00 49.38,78.00 " />
		<line x1="48.86" y1="83.50" x2="46.60" y2="83.50" stroke="#4ba34b" stroke-width="2.00" />
		<polygon fill="#1e8c1e" shape-rendering="crispEdges" points="46.05,78.00 46.05,89.00 47.05,89.00 47.05,78.00 " />
		<line x1="46.49" y1="83.50" x2="38.92" y2="83.50" stroke="#4ba34b" stroke-width="2.00" />
		<polygon fill="#1e8c1e" shape-rendering="crispEdges" points="38.37,78.00 38.37,89.00 39.37,89.00 39.37,78.00 " />
		<line x1="38.81" y1="83.50" x2="34.34" y2="83.50" stroke="#4ba34b" stroke-width="2.00" />
		<polygon fill="#1e8c1e" shape-rendering="crispEdges" points="33.80,78.00 33.80,89.00 34.80,89.00 34.80,78.00 " />
		<line x1="34.26" y1="83.50" x2="28.49" y2="83.50" stroke="#4ba34b" stroke-width="2.00" />
		<polygon fill="#1e8c1e" shape-rendering="crispEdges" points="27.93,78.00 27.93,89.00 28.93,89.00 28.93,78.00 " />
		<line x1="28.37" y1="83.50" x2="25.95" y2="83.50" stroke="#4ba34b" stroke-width="2.00" />
		<polygon fill="#1e8c1e" shape-rendering="crispEdges" points="25.42,78.00 25.42,89.00 26.42,89.00 26.42,78.00 " />
		<line x1="25.89" y1="83.50" x2="0.00" y2="83.50" stroke="#4ba34b" stroke-width="2.00" />
		<polygon fill="#b2b2b2" shape-rendering="crispEdges" points="17.34,83.50 8.54,79.10 10.74,83.50 8.54,87.90 " />
		<polygon fill="#ffffff" shape-rendering="crispEdges" points="53.22,89.00 53.22,78.00 171.55,78.00 171.55,89.00 " />
		<text x="57.22" y="87.00" font-family="Helvetica" font-size="10" fill="#124d94" >ENSSPUP00000013837.1</text>
		<polygon fill="url('#gradient2')" shape-rendering="crispEdges" points="0.00,58.00 879.00,58.00 879.00,44.00 0.00,44.00 " clip-path="url('#clipping-rect2')" />
		<text x="0.00" y="54.00" font-family="Helvetica" font-size="12" fill="#333333" >Genes, Ensembl release 114</text>
		<polygon fill="#0000ff" fill-opacity="0.20" shape-rendering="crispEdges" points="26.50,31.50 26.50,23.10 26.50,23.10 " />
		<polygon fill="#0000ff" fill-opacity="0.20" shape-rendering="crispEdges" points="26.50,31.50 26.50,31.50 26.50,23.10 " />
		<line x1="26.50" y1="30.50" x2="26.50" y2="23.10" stroke="#0000ff" stroke-opacity="0.40" stroke-width="1.00" />
		<line x1="26.50" y1="30.50" x2="26.50" y2="23.10" stroke="#0000ff" stroke-opacity="0.40" stroke-width="1.00" />
		<polygon fill="#0000ff" shape-rendering="crispEdges" points="20.79,22.35 20.50,20.50 20.79,18.65 21.65,16.97 22.97,15.65 24.65,14.79 26.50,14.50 26.50,26.50 24.65,26.21 22.97,25.35 21.65,24.03 " />
		<polygon fill="#0000ff" fill-opacity="0.60" shape-rendering="crispEdges" points="71.52,26.50 71.52,14.50 26.50,14.50 26.50,26.50 " />
		<text x="28.50" y="23.50" font-family="Helvetica" font-size="10" fill="#ffffff" >CCDC50</text>
		<polygon fill="#0000ff" fill-opacity="0.20" shape-rendering="crispEdges" points="26.03,96.02 26.03,31.00 26.03,31.00 " />
		<polygon fill="#0000ff" fill-opacity="0.20" shape-rendering="crispEdges" points="26.03,96.02 26.03,96.02 26.03,31.00 " />
		<line x1="26.03" y1="95.00" x2="26.03" y2="31.00" stroke="#0000ff" stroke-opacity="0.40" stroke-width="1.00" />
		<line x1="26.03" y1="95.00" x2="26.03" y2="31.00" stroke="#0000ff" stroke-opacity="0.40" stroke-width="1.00" />
		<polygon fill="#ff0000" fill-opacity="0.20" shape-rendering="crispEdges" points="-47.50,31.50 -47.50,23.10 -47.50,23.10 " />
		<polygon fill="#ff0000" fill-opacity="0.20" shape-rendering="crispEdges" points="-47.50,31.50 -47.50,31.50 -47.50,23.10 " />
		<line x1="-47.50" y1="30.50" x2="-47.50" y2="23.10" stroke="#ff0000" stroke-opacity="0.40" stroke-width="1.00" />
		<line x1="-47.50" y1="30.50" x2="-47.50" y2="23.10" stroke="#ff0000" stroke-opacity="0.40" stroke-width="1.00" />
		<polygon fill="#ff0000" shape-rendering="crispEdges" points="-53.21,22.35 -53.50,20.50 -53.21,18.65 -52.35,16.97 -51.03,15.65 -49.35,14.79 -47.50,14.50 -47.50,26.50 -49.35,26.21 -51.03,25.35 -52.35,24.03 " />
		<polygon fill="#ff0000" fill-opacity="0.60" shape-rendering="crispEdges" points="-14.86,26.50 -14.86,14.50 -47.50,14.50 -47.50,26.50 " />
		<text x="-45.50" y="23.50" font-family="Helvetica" font-size="10" fill="#ffffff" >OSTN</text>
		<polygon fill="#ff0000" fill-opacity="0.20" shape-rendering="crispEdges" points="-48.05,96.02 -48.05,31.00 -48.05,31.00 " />
		<polygon fill="#ff0000" fill-opacity="0.20" shape-rendering="crispEdges" points="-48.05,96.02 -48.05,96.02 -48.05,31.00 " />
		<line x1="-48.05" y1="95.00" x2="-48.05" y2="31.00" stroke="#ff0000" stroke-opacity="0.40" stroke-width="1.00" />
		<line x1="-48.05" y1="95.00" x2="-48.05" y2="31.00" stroke="#ff0000" stroke-opacity="0.40" stroke-width="1.00" />
		<polygon fill="#0000ff" fill-opacity="0.20" shape-rendering="crispEdges" points="-378.50,31.50 -378.50,23.10 -378.50,23.10 " />
		<polygon fill="#0000ff" fill-opacity="0.20" shape-rendering="crispEdges" points="-378.50,31.50 -378.50,31.50 -378.50,23.10 " />
		<line x1="-378.50" y1="30.50" x2="-378.50" y2="23.10" stroke="#0000ff" stroke-opacity="0.40" stroke-width="1.00" />
		<line x1="-378.50" y1="30.50" x2="-378.50" y2="23.10" stroke="#0000ff" stroke-opacity="0.40" stroke-width="1.00" />
		<polygon fill="#0000ff" shape-rendering="crispEdges" points="-384.21,22.35 -384.50,20.50 -384.21,18.65 -383.35,16.97 -382.03,15.65 -380.35,14.79 -378.50,14.50 -378.50,26.50 -380.35,26.21 -382.03,25.35 -383.35,24.03 " />
		<polygon fill="#0000ff" fill-opacity="0.60" shape-rendering="crispEdges" points="-339.53,26.50 -339.53,14.50 -378.50,14.50 -378.50,26.50 " />
		<text x="-376.50" y="23.50" font-family="Helvetica" font-size="10" fill="#ffffff" >IL1RAP</text>
		<polygon fill="#0000ff" fill-opacity="0.20" shape-rendering="crispEdges" points="-379.43,96.02 -379.43,31.00 -379.43,31.00 " />
		<polygon fill="#0000ff" fill-opacity="0.20" shape-rendering="crispEdges" points="-379.43,96.02 -379.43,96.02 -379.43,31.00 " />
		<line x1="-379.43" y1="95.00" x2="-379.43" y2="31.00" stroke="#0000ff" stroke-opacity="0.40" stroke-width="1.00" />
		<line x1="-379.43" y1="95.00" x2="-379.43" y2="31.00" stroke="#0000ff" stroke-opacity="0.40" stroke-width="1.00" />
		<polygon fill="#0000ff" fill-opacity="0.20" shape-rendering="crispEdges" points="-477.50,31.50 -477.50,23.10 -477.50,23.10 " />
		<polygon fill="#0000ff" fill-opacity="0.20" shape-rendering="crispEdges" points="-477.50,31.50 -477.50,31.50 -477.50,23.10 " />
		<line x1="-477.50" y1="30.50" x2="-477.50" y2="23.10" stroke="#0000ff" stroke-opacity="0.40" stroke-width="1.00" />
		<line x1="-477.50" y1="30.50" x2="-477.50" y2="23.10" stroke="#0000ff" stroke-opacity="0.40" stroke-width="1.00" />
		<polygon fill="#0000ff" shape-rendering="crispEdges" points="-483.21,22.35 -483.50,20.50 -483.21,18.65 -482.35,16.97 -481.03,15.65 -479.35,14.79 -477.50,14.50 -477.50,26.50 -479.35,26.21 -481.03,25.35 -482.35,24.03 " />
		<polygon fill="#0000ff" fill-opacity="0.60" shape-rendering="crispEdges" points="-434.08,26.50 -434.08,14.50 -477.50,14.50 -477.50,26.50 " />
		<text x="-475.50" y="23.50" font-family="Helvetica" font-size="10" fill="#ffffff" >CLDN16</text>
		<polygon fill="#0000ff" fill-opacity="0.20" shape-rendering="crispEdges" points="-478.54,96.02 -478.54,31.00 -478.54,31.00 " />
		<polygon fill="#0000ff" fill-opacity="0.20" shape-rendering="crispEdges" points="-478.54,96.02 -478.54,96.02 -478.54,31.00 " />
		<line x1="-478.54" y1="95.00" x2="-478.54" y2="31.00" stroke="#0000ff" stroke-opacity="0.40" stroke-width="1.00" />
		<line x1="-478.54" y1="95.00" x2="-478.54" y2="31.00" stroke="#0000ff" stroke-opacity="0.40" stroke-width="1.00" />
		<polygon fill="#0000ff" fill-opacity="0.20" shape-rendering="crispEdges" points="453.50,31.50 453.50,23.10 453.50,23.10 " />
		<polygon fill="#0000ff" fill-opacity="0.20" shape-rendering="crispEdges" points="453.50,31.50 453.50,31.50 453.50,23.10 " />
		<line x1="453.50" y1="30.50" x2="453.50" y2="23.10" stroke="#0000ff" stroke-opacity="0.40" stroke-width="1.00" />
		<line x1="453.50" y1="30.50" x2="453.50" y2="23.10" stroke="#0000ff" stroke-opacity="0.40" stroke-width="1.00" />
		<polygon fill="#0000ff" shape-rendering="crispEdges" points="447.79,22.35 447.50,20.50 447.79,18.65 448.65,16.97 449.97,15.65 451.65,14.79 453.50,14.50 453.50,26.50 451.65,26.21 449.97,25.35 448.65,24.03 " />
		<polygon fill="#0000ff" fill-opacity="0.60" shape-rendering="crispEdges" points="489.27,26.50 489.27,14.50 453.50,14.50 453.50,26.50 " />
		<text x="455.50" y="23.50" font-family="Helvetica" font-size="10" fill="#ffffff" >FGF12</text>
		<polygon fill="#0000ff" fill-opacity="0.20" shape-rendering="crispEdges" points="453.52,96.02 453.52,31.00 453.52,31.00 " />
		<polygon fill="#0000ff" fill-opacity="0.20" shape-rendering="crispEdges" points="453.52,96.02 453.52,96.02 453.52,31.00 " />
		<line x1="453.52" y1="95.00" x2="453.52" y2="31.00" stroke="#0000ff" stroke-opacity="0.40" stroke-width="1.00" />
		<line x1="453.52" y1="95.00" x2="453.52" y2="31.00" stroke="#0000ff" stroke-opacity="0.40" stroke-width="1.00" />
		<polygon fill="#0000ff" fill-opacity="0.20" shape-rendering="crispEdges" points="816.50,31.50 816.50,23.10 816.50,23.10 " />
		<polygon fill="#0000ff" fill-opacity="0.20" shape-rendering="crispEdges" points="816.50,31.50 816.50,31.50 816.50,23.10 " />
		<line x1="816.50" y1="30.50" x2="816.50" y2="23.10" stroke="#0000ff" stroke-opacity="0.40" stroke-width="1.00" />
		<line x1="816.50" y1="30.50" x2="816.50" y2="23.10" stroke="#0000ff" stroke-opacity="0.40" stroke-width="1.00" />
		<polygon fill="#0000ff" shape-rendering="crispEdges" points="810.79,22.35 810.50,20.50 810.79,18.65 811.65,16.97 812.97,15.65 814.65,14.79 816.50,14.50 816.50,26.50 814.65,26.21 812.97,25.35 811.65,24.03 " />
		<polygon fill="#0000ff" fill-opacity="0.60" shape-rendering="crispEdges" points="860.20,26.50 860.20,14.50 816.50,14.50 816.50,26.50 " />
		<text x="818.50" y="23.50" font-family="Helvetica" font-size="10" fill="#ffffff" >MB21D2</text>
		<polygon fill="#0000ff" fill-opacity="0.20" shape-rendering="crispEdges" points="816.93,96.02 816.93,31.00 816.93,31.00 " />
		<polygon fill="#0000ff" fill-opacity="0.20" shape-rendering="crispEdges" points="816.93,96.02 816.93,96.02 816.93,31.00 " />
		<line x1="816.93" y1="95.00" x2="816.93" y2="31.00" stroke="#0000ff" stroke-opacity="0.40" stroke-width="1.00" />
		<line x1="816.93" y1="95.00" x2="816.93" y2="31.00" stroke="#0000ff" stroke-opacity="0.40" stroke-width="1.00" />
		<polygon fill="#e5e5e5" shape-rendering="crispEdges" points="879.00,13.00 879.00,-1.00 0.00,-1.00 0.00,13.00 " />
		<text x="0.00" y="10.00" font-family="Helvetica Bold" font-size="12" text-anchor="start" fill="#000000" >QEPC01009702.1:152410..1102535 Sphenodon punctatus isolate mauimua-1 ScrUdWx_1006.1, whole genome shotgun sequence</text>
	</g>
</svg>
