<?xml version="1.0" standalone="no" ?>
<!DOCTYPE svg PUBLIC "-//W3C//DTD SVG 1.1//EN" "http://www.w3.org/Graphics/SVG/1.1/DTD/svg11.dtd">
<svg width="879px" height="283px" xmlns="http://www.w3.org/2000/svg" version="1.1" viewBox="0 0 879 283" >
	<style type="text/css" > <![CDATA[
		@import url("https://www.ncbi.nlm.nih.gov/projects/sviewer/css/svg_fonts.css");
	]]>
	</style>
	<desc >Generated by NCBI Genome Workbench http://www.ncbi.nlm.nih.gov/tools/gbench/</desc>
	<defs >
		<clipPath id="clipping-rect1" >
			<rect x="0" y="14" width="879" height="18" />
		</clipPath>
		<linearGradient id="gradient1" gradientTransform="rotate(90)" >
			<stop offset="0%" stop-color="#6c6c6c" />
			<stop offset="50%" stop-color="#b5b5b5" />
			<stop offset="100%" stop-color="#6c6c6c" />
		</linearGradient>
		<clipPath id="clipping-rect2" >
			<rect x="0" y="32" width="879" height="251" />
		</clipPath>
		<linearGradient id="gradient2" gradientTransform="rotate(90)" >
			<stop offset="0%" stop-color="#b6dead" />
			<stop offset="100%" stop-color="#ffffff" stop-opacity="0.00" />
		</linearGradient>
		<linearGradient id="gradient3" gradientTransform="rotate(90)" >
			<stop offset="0%" stop-color="#e6e6e6" stop-opacity="0.71" />
			<stop offset="100%" stop-color="#ffffff" stop-opacity="0.00" />
		</linearGradient>
	</defs>
	<g >
		<polygon fill="#ffffff" shape-rendering="crispEdges" points="879.00,31.00 879.00,13.00 0.00,13.00 0.00,31.00 " />
		<line x1="0.00" y1="28.88" x2="879.00" y2="28.88" stroke="#7f7f7f" stroke-width="1.00" clip-path="url('#clipping-rect1')" />
		<line x1="7.51" y1="28.88" x2="7.51" y2="26.76" stroke="#7f7f7f" stroke-width="1.00" clip-path="url('#clipping-rect1')" />
		<line x1="15.02" y1="28.88" x2="15.02" y2="25.71" stroke="#7f7f7f" stroke-width="1.00" clip-path="url('#clipping-rect1')" />
		<line x1="22.53" y1="28.88" x2="22.53" y2="26.76" stroke="#7f7f7f" stroke-width="1.00" clip-path="url('#clipping-rect1')" />
		<line x1="30.03" y1="28.88" x2="30.03" y2="25.71" stroke="#7f7f7f" stroke-width="1.00" clip-path="url('#clipping-rect1')" />
		<line x1="37.54" y1="28.88" x2="37.54" y2="26.76" stroke="#7f7f7f" stroke-width="1.00" clip-path="url('#clipping-rect1')" />
		<line x1="45.05" y1="28.88" x2="45.05" y2="25.71" stroke="#7f7f7f" stroke-width="1.00" clip-path="url('#clipping-rect1')" />
		<line x1="52.56" y1="28.88" x2="52.56" y2="26.76" stroke="#7f7f7f" stroke-width="1.00" clip-path="url('#clipping-rect1')" />
		<line x1="60.07" y1="28.88" x2="60.07" y2="25.71" stroke="#7f7f7f" stroke-width="1.00" clip-path="url('#clipping-rect1')" />
		<line x1="67.58" y1="28.88" x2="67.58" y2="26.76" stroke="#7f7f7f" stroke-width="1.00" clip-path="url('#clipping-rect1')" />
		<line x1="75.09" y1="28.88" x2="75.09" y2="25.71" stroke="#7f7f7f" stroke-width="1.00" clip-path="url('#clipping-rect1')" />
		<line x1="82.59" y1="28.88" x2="82.59" y2="26.76" stroke="#7f7f7f" stroke-width="1.00" clip-path="url('#clipping-rect1')" />
		<line x1="90.10" y1="28.88" x2="90.10" y2="25.71" stroke="#7f7f7f" stroke-width="1.00" clip-path="url('#clipping-rect1')" />
		<line x1="97.61" y1="28.88" x2="97.61" y2="26.76" stroke="#7f7f7f" stroke-width="1.00" clip-path="url('#clipping-rect1')" />
		<line x1="105.12" y1="28.88" x2="105.12" y2="25.71" stroke="#7f7f7f" stroke-width="1.00" clip-path="url('#clipping-rect1')" />
		<line x1="112.63" y1="28.88" x2="112.63" y2="26.76" stroke="#7f7f7f" stroke-width="1.00" clip-path="url('#clipping-rect1')" />
		<line x1="120.14" y1="28.88" x2="120.14" y2="25.71" stroke="#7f7f7f" stroke-width="1.00" clip-path="url('#clipping-rect1')" />
		<line x1="127.65" y1="28.88" x2="127.65" y2="26.76" stroke="#7f7f7f" stroke-width="1.00" clip-path="url('#clipping-rect1')" />
		<line x1="135.15" y1="28.88" x2="135.15" y2="25.71" stroke="#7f7f7f" stroke-width="1.00" clip-path="url('#clipping-rect1')" />
		<line x1="142.66" y1="28.88" x2="142.66" y2="26.76" stroke="#7f7f7f" stroke-width="1.00" clip-path="url('#clipping-rect1')" />
		<line x1="150.17" y1="28.88" x2="150.17" y2="25.71" stroke="#7f7f7f" stroke-width="1.00" clip-path="url('#clipping-rect1')" />
		<line x1="157.68" y1="28.88" x2="157.68" y2="26.76" stroke="#7f7f7f" stroke-width="1.00" clip-path="url('#clipping-rect1')" />
		<line x1="165.19" y1="28.88" x2="165.19" y2="25.71" stroke="#7f7f7f" stroke-width="1.00" clip-path="url('#clipping-rect1')" />
		<line x1="172.70" y1="28.88" x2="172.70" y2="26.76" stroke="#7f7f7f" stroke-width="1.00" clip-path="url('#clipping-rect1')" />
		<line x1="180.21" y1="28.88" x2="180.21" y2="25.71" stroke="#7f7f7f" stroke-width="1.00" clip-path="url('#clipping-rect1')" />
		<line x1="187.71" y1="28.88" x2="187.71" y2="26.76" stroke="#7f7f7f" stroke-width="1.00" clip-path="url('#clipping-rect1')" />
		<line x1="195.22" y1="28.88" x2="195.22" y2="25.71" stroke="#7f7f7f" stroke-width="1.00" clip-path="url('#clipping-rect1')" />
		<line x1="202.73" y1="28.88" x2="202.73" y2="26.76" stroke="#7f7f7f" stroke-width="1.00" clip-path="url('#clipping-rect1')" />
		<line x1="210.24" y1="28.88" x2="210.24" y2="25.71" stroke="#7f7f7f" stroke-width="1.00" clip-path="url('#clipping-rect1')" />
		<line x1="217.75" y1="28.88" x2="217.75" y2="26.76" stroke="#7f7f7f" stroke-width="1.00" clip-path="url('#clipping-rect1')" />
		<line x1="225.26" y1="28.88" x2="225.26" y2="25.71" stroke="#7f7f7f" stroke-width="1.00" clip-path="url('#clipping-rect1')" />
		<line x1="232.77" y1="28.88" x2="232.77" y2="26.76" stroke="#7f7f7f" stroke-width="1.00" clip-path="url('#clipping-rect1')" />
		<line x1="240.28" y1="28.88" x2="240.28" y2="25.71" stroke="#7f7f7f" stroke-width="1.00" clip-path="url('#clipping-rect1')" />
		<line x1="247.78" y1="28.88" x2="247.78" y2="26.76" stroke="#7f7f7f" stroke-width="1.00" clip-path="url('#clipping-rect1')" />
		<line x1="255.29" y1="28.88" x2="255.29" y2="25.71" stroke="#7f7f7f" stroke-width="1.00" clip-path="url('#clipping-rect1')" />
		<line x1="262.80" y1="28.88" x2="262.80" y2="26.76" stroke="#7f7f7f" stroke-width="1.00" clip-path="url('#clipping-rect1')" />
		<line x1="270.31" y1="28.88" x2="270.31" y2="25.71" stroke="#7f7f7f" stroke-width="1.00" clip-path="url('#clipping-rect1')" />
		<line x1="277.82" y1="28.88" x2="277.82" y2="26.76" stroke="#7f7f7f" stroke-width="1.00" clip-path="url('#clipping-rect1')" />
		<line x1="285.33" y1="28.88" x2="285.33" y2="25.71" stroke="#7f7f7f" stroke-width="1.00" clip-path="url('#clipping-rect1')" />
		<line x1="292.84" y1="28.88" x2="292.84" y2="26.76" stroke="#7f7f7f" stroke-width="1.00" clip-path="url('#clipping-rect1')" />
		<line x1="300.34" y1="28.88" x2="300.34" y2="25.71" stroke="#7f7f7f" stroke-width="1.00" clip-path="url('#clipping-rect1')" />
		<line x1="307.85" y1="28.88" x2="307.85" y2="26.76" stroke="#7f7f7f" stroke-width="1.00" clip-path="url('#clipping-rect1')" />
		<line x1="315.36" y1="28.88" x2="315.36" y2="25.71" stroke="#7f7f7f" stroke-width="1.00" clip-path="url('#clipping-rect1')" />
		<line x1="322.87" y1="28.88" x2="322.87" y2="26.76" stroke="#7f7f7f" stroke-width="1.00" clip-path="url('#clipping-rect1')" />
		<line x1="330.38" y1="28.88" x2="330.38" y2="25.71" stroke="#7f7f7f" stroke-width="1.00" clip-path="url('#clipping-rect1')" />
		<line x1="337.89" y1="28.88" x2="337.89" y2="26.76" stroke="#7f7f7f" stroke-width="1.00" clip-path="url('#clipping-rect1')" />
		<line x1="345.40" y1="28.88" x2="345.40" y2="25.71" stroke="#7f7f7f" stroke-width="1.00" clip-path="url('#clipping-rect1')" />
		<line x1="352.90" y1="28.88" x2="352.90" y2="26.76" stroke="#7f7f7f" stroke-width="1.00" clip-path="url('#clipping-rect1')" />
		<line x1="360.41" y1="28.88" x2="360.41" y2="25.71" stroke="#7f7f7f" stroke-width="1.00" clip-path="url('#clipping-rect1')" />
		<line x1="367.92" y1="28.88" x2="367.92" y2="26.76" stroke="#7f7f7f" stroke-width="1.00" clip-path="url('#clipping-rect1')" />
		<line x1="375.43" y1="28.88" x2="375.43" y2="25.71" stroke="#7f7f7f" stroke-width="1.00" clip-path="url('#clipping-rect1')" />
		<line x1="382.94" y1="28.88" x2="382.94" y2="26.76" stroke="#7f7f7f" stroke-width="1.00" clip-path="url('#clipping-rect1')" />
		<line x1="390.45" y1="28.88" x2="390.45" y2="25.71" stroke="#7f7f7f" stroke-width="1.00" clip-path="url('#clipping-rect1')" />
		<line x1="397.96" y1="28.88" x2="397.96" y2="26.76" stroke="#7f7f7f" stroke-width="1.00" clip-path="url('#clipping-rect1')" />
		<line x1="405.46" y1="28.88" x2="405.46" y2="25.71" stroke="#7f7f7f" stroke-width="1.00" clip-path="url('#clipping-rect1')" />
		<line x1="412.97" y1="28.88" x2="412.97" y2="26.76" stroke="#7f7f7f" stroke-width="1.00" clip-path="url('#clipping-rect1')" />
		<line x1="420.48" y1="28.88" x2="420.48" y2="25.71" stroke="#7f7f7f" stroke-width="1.00" clip-path="url('#clipping-rect1')" />
		<line x1="427.99" y1="28.88" x2="427.99" y2="26.76" stroke="#7f7f7f" stroke-width="1.00" clip-path="url('#clipping-rect1')" />
		<line x1="435.50" y1="28.88" x2="435.50" y2="25.71" stroke="#7f7f7f" stroke-width="1.00" clip-path="url('#clipping-rect1')" />
		<line x1="443.01" y1="28.88" x2="443.01" y2="26.76" stroke="#7f7f7f" stroke-width="1.00" clip-path="url('#clipping-rect1')" />
		<line x1="450.52" y1="28.88" x2="450.52" y2="25.71" stroke="#7f7f7f" stroke-width="1.00" clip-path="url('#clipping-rect1')" />
		<line x1="458.03" y1="28.88" x2="458.03" y2="26.76" stroke="#7f7f7f" stroke-width="1.00" clip-path="url('#clipping-rect1')" />
		<line x1="465.53" y1="28.88" x2="465.53" y2="25.71" stroke="#7f7f7f" stroke-width="1.00" clip-path="url('#clipping-rect1')" />
		<line x1="473.04" y1="28.88" x2="473.04" y2="26.76" stroke="#7f7f7f" stroke-width="1.00" clip-path="url('#clipping-rect1')" />
		<line x1="480.55" y1="28.88" x2="480.55" y2="25.71" stroke="#7f7f7f" stroke-width="1.00" clip-path="url('#clipping-rect1')" />
		<line x1="488.06" y1="28.88" x2="488.06" y2="26.76" stroke="#7f7f7f" stroke-width="1.00" clip-path="url('#clipping-rect1')" />
		<line x1="495.57" y1="28.88" x2="495.57" y2="25.71" stroke="#7f7f7f" stroke-width="1.00" clip-path="url('#clipping-rect1')" />
		<line x1="503.08" y1="28.88" x2="503.08" y2="26.76" stroke="#7f7f7f" stroke-width="1.00" clip-path="url('#clipping-rect1')" />
		<line x1="510.59" y1="28.88" x2="510.59" y2="25.71" stroke="#7f7f7f" stroke-width="1.00" clip-path="url('#clipping-rect1')" />
		<line x1="518.09" y1="28.88" x2="518.09" y2="26.76" stroke="#7f7f7f" stroke-width="1.00" clip-path="url('#clipping-rect1')" />
		<line x1="525.60" y1="28.88" x2="525.60" y2="25.71" stroke="#7f7f7f" stroke-width="1.00" clip-path="url('#clipping-rect1')" />
		<line x1="533.11" y1="28.88" x2="533.11" y2="26.76" stroke="#7f7f7f" stroke-width="1.00" clip-path="url('#clipping-rect1')" />
		<line x1="540.62" y1="28.88" x2="540.62" y2="25.71" stroke="#7f7f7f" stroke-width="1.00" clip-path="url('#clipping-rect1')" />
		<line x1="548.13" y1="28.88" x2="548.13" y2="26.76" stroke="#7f7f7f" stroke-width="1.00" clip-path="url('#clipping-rect1')" />
		<line x1="555.64" y1="28.88" x2="555.64" y2="25.71" stroke="#7f7f7f" stroke-width="1.00" clip-path="url('#clipping-rect1')" />
		<line x1="563.15" y1="28.88" x2="563.15" y2="26.76" stroke="#7f7f7f" stroke-width="1.00" clip-path="url('#clipping-rect1')" />
		<line x1="570.65" y1="28.88" x2="570.65" y2="25.71" stroke="#7f7f7f" stroke-width="1.00" clip-path="url('#clipping-rect1')" />
		<line x1="578.16" y1="28.88" x2="578.16" y2="26.76" stroke="#7f7f7f" stroke-width="1.00" clip-path="url('#clipping-rect1')" />
		<line x1="585.67" y1="28.88" x2="585.67" y2="25.71" stroke="#7f7f7f" stroke-width="1.00" clip-path="url('#clipping-rect1')" />
		<line x1="593.18" y1="28.88" x2="593.18" y2="26.76" stroke="#7f7f7f" stroke-width="1.00" clip-path="url('#clipping-rect1')" />
		<line x1="600.69" y1="28.88" x2="600.69" y2="25.71" stroke="#7f7f7f" stroke-width="1.00" clip-path="url('#clipping-rect1')" />
		<line x1="608.20" y1="28.88" x2="608.20" y2="26.76" stroke="#7f7f7f" stroke-width="1.00" clip-path="url('#clipping-rect1')" />
		<line x1="615.71" y1="28.88" x2="615.71" y2="25.71" stroke="#7f7f7f" stroke-width="1.00" clip-path="url('#clipping-rect1')" />
		<line x1="623.21" y1="28.88" x2="623.21" y2="26.76" stroke="#7f7f7f" stroke-width="1.00" clip-path="url('#clipping-rect1')" />
		<line x1="630.72" y1="28.88" x2="630.72" y2="25.71" stroke="#7f7f7f" stroke-width="1.00" clip-path="url('#clipping-rect1')" />
		<line x1="638.23" y1="28.88" x2="638.23" y2="26.76" stroke="#7f7f7f" stroke-width="1.00" clip-path="url('#clipping-rect1')" />
		<line x1="645.74" y1="28.88" x2="645.74" y2="25.71" stroke="#7f7f7f" stroke-width="1.00" clip-path="url('#clipping-rect1')" />
		<line x1="653.25" y1="28.88" x2="653.25" y2="26.76" stroke="#7f7f7f" stroke-width="1.00" clip-path="url('#clipping-rect1')" />
		<line x1="660.76" y1="28.88" x2="660.76" y2="25.71" stroke="#7f7f7f" stroke-width="1.00" clip-path="url('#clipping-rect1')" />
		<line x1="668.27" y1="28.88" x2="668.27" y2="26.76" stroke="#7f7f7f" stroke-width="1.00" clip-path="url('#clipping-rect1')" />
		<line x1="675.78" y1="28.88" x2="675.78" y2="25.71" stroke="#7f7f7f" stroke-width="1.00" clip-path="url('#clipping-rect1')" />
		<line x1="683.28" y1="28.88" x2="683.28" y2="26.76" stroke="#7f7f7f" stroke-width="1.00" clip-path="url('#clipping-rect1')" />
		<line x1="690.79" y1="28.88" x2="690.79" y2="25.71" stroke="#7f7f7f" stroke-width="1.00" clip-path="url('#clipping-rect1')" />
		<line x1="698.30" y1="28.88" x2="698.30" y2="26.76" stroke="#7f7f7f" stroke-width="1.00" clip-path="url('#clipping-rect1')" />
		<line x1="705.81" y1="28.88" x2="705.81" y2="25.71" stroke="#7f7f7f" stroke-width="1.00" clip-path="url('#clipping-rect1')" />
		<line x1="713.32" y1="28.88" x2="713.32" y2="26.76" stroke="#7f7f7f" stroke-width="1.00" clip-path="url('#clipping-rect1')" />
		<line x1="720.83" y1="28.88" x2="720.83" y2="25.71" stroke="#7f7f7f" stroke-width="1.00" clip-path="url('#clipping-rect1')" />
		<line x1="728.34" y1="28.88" x2="728.34" y2="26.76" stroke="#7f7f7f" stroke-width="1.00" clip-path="url('#clipping-rect1')" />
		<line x1="735.84" y1="28.88" x2="735.84" y2="25.71" stroke="#7f7f7f" stroke-width="1.00" clip-path="url('#clipping-rect1')" />
		<line x1="743.35" y1="28.88" x2="743.35" y2="26.76" stroke="#7f7f7f" stroke-width="1.00" clip-path="url('#clipping-rect1')" />
		<line x1="750.86" y1="28.88" x2="750.86" y2="25.71" stroke="#7f7f7f" stroke-width="1.00" clip-path="url('#clipping-rect1')" />
		<line x1="758.37" y1="28.88" x2="758.37" y2="26.76" stroke="#7f7f7f" stroke-width="1.00" clip-path="url('#clipping-rect1')" />
		<line x1="765.88" y1="28.88" x2="765.88" y2="25.71" stroke="#7f7f7f" stroke-width="1.00" clip-path="url('#clipping-rect1')" />
		<line x1="773.39" y1="28.88" x2="773.39" y2="26.76" stroke="#7f7f7f" stroke-width="1.00" clip-path="url('#clipping-rect1')" />
		<line x1="780.90" y1="28.88" x2="780.90" y2="25.71" stroke="#7f7f7f" stroke-width="1.00" clip-path="url('#clipping-rect1')" />
		<line x1="788.40" y1="28.88" x2="788.40" y2="26.76" stroke="#7f7f7f" stroke-width="1.00" clip-path="url('#clipping-rect1')" />
		<line x1="795.91" y1="28.88" x2="795.91" y2="25.71" stroke="#7f7f7f" stroke-width="1.00" clip-path="url('#clipping-rect1')" />
		<line x1="803.42" y1="28.88" x2="803.42" y2="26.76" stroke="#7f7f7f" stroke-width="1.00" clip-path="url('#clipping-rect1')" />
		<line x1="810.93" y1="28.88" x2="810.93" y2="25.71" stroke="#7f7f7f" stroke-width="1.00" clip-path="url('#clipping-rect1')" />
		<line x1="818.44" y1="28.88" x2="818.44" y2="26.76" stroke="#7f7f7f" stroke-width="1.00" clip-path="url('#clipping-rect1')" />
		<line x1="825.95" y1="28.88" x2="825.95" y2="25.71" stroke="#7f7f7f" stroke-width="1.00" clip-path="url('#clipping-rect1')" />
		<line x1="833.46" y1="28.88" x2="833.46" y2="26.76" stroke="#7f7f7f" stroke-width="1.00" clip-path="url('#clipping-rect1')" />
		<line x1="840.97" y1="28.88" x2="840.97" y2="25.71" stroke="#7f7f7f" stroke-width="1.00" clip-path="url('#clipping-rect1')" />
		<line x1="848.47" y1="28.88" x2="848.47" y2="26.76" stroke="#7f7f7f" stroke-width="1.00" clip-path="url('#clipping-rect1')" />
		<line x1="855.98" y1="28.88" x2="855.98" y2="25.71" stroke="#7f7f7f" stroke-width="1.00" clip-path="url('#clipping-rect1')" />
		<line x1="863.49" y1="28.88" x2="863.49" y2="26.76" stroke="#7f7f7f" stroke-width="1.00" clip-path="url('#clipping-rect1')" />
		<line x1="871.00" y1="28.88" x2="871.00" y2="25.71" stroke="#7f7f7f" stroke-width="1.00" clip-path="url('#clipping-rect1')" />
		<line x1="878.51" y1="28.88" x2="878.51" y2="26.76" stroke="#7f7f7f" stroke-width="1.00" clip-path="url('#clipping-rect1')" />
		<text x="0.00" y="23.59" font-family="Helvetica" font-size="10" fill="#333333" clip-path="url('#clipping-rect1')" >1</text>
		<line x1="0.00" y1="31.00" x2="0.00" y2="15.12" stroke="#7f7f7f" stroke-width="1.00" clip-path="url('#clipping-rect1')" />
		<text x="843.56" y="23.59" font-family="Helvetica" font-size="10" fill="#333333" clip-path="url('#clipping-rect1')" >585,327</text>
		<line x1="879.00" y1="31.00" x2="879.00" y2="15.12" stroke="#7f7f7f" stroke-width="1.00" clip-path="url('#clipping-rect1')" />
		<line x1="825.95" y1="31.00" x2="825.95" y2="15.12" stroke="#7f7f7f" stroke-width="1.00" clip-path="url('#clipping-rect1')" />
		<text x="752.86" y="23.59" font-family="Helvetica" font-size="10" fill="#333333" clip-path="url('#clipping-rect1')" >500 K</text>
		<line x1="750.86" y1="31.00" x2="750.86" y2="15.12" stroke="#7f7f7f" stroke-width="1.00" clip-path="url('#clipping-rect1')" />
		<text x="677.78" y="23.59" font-family="Helvetica" font-size="10" fill="#333333" clip-path="url('#clipping-rect1')" >450 K</text>
		<line x1="675.78" y1="31.00" x2="675.78" y2="15.12" stroke="#7f7f7f" stroke-width="1.00" clip-path="url('#clipping-rect1')" />
		<text x="602.69" y="23.59" font-family="Helvetica" font-size="10" fill="#333333" clip-path="url('#clipping-rect1')" >400 K</text>
		<line x1="600.69" y1="31.00" x2="600.69" y2="15.12" stroke="#7f7f7f" stroke-width="1.00" clip-path="url('#clipping-rect1')" />
		<text x="527.60" y="23.59" font-family="Helvetica" font-size="10" fill="#333333" clip-path="url('#clipping-rect1')" >350 K</text>
		<line x1="525.60" y1="31.00" x2="525.60" y2="15.12" stroke="#7f7f7f" stroke-width="1.00" clip-path="url('#clipping-rect1')" />
		<text x="452.52" y="23.59" font-family="Helvetica" font-size="10" fill="#333333" clip-path="url('#clipping-rect1')" >300 K</text>
		<line x1="450.52" y1="31.00" x2="450.52" y2="15.12" stroke="#7f7f7f" stroke-width="1.00" clip-path="url('#clipping-rect1')" />
		<text x="377.43" y="23.59" font-family="Helvetica" font-size="10" fill="#333333" clip-path="url('#clipping-rect1')" >250 K</text>
		<line x1="375.43" y1="31.00" x2="375.43" y2="15.12" stroke="#7f7f7f" stroke-width="1.00" clip-path="url('#clipping-rect1')" />
		<text x="302.34" y="23.59" font-family="Helvetica" font-size="10" fill="#333333" clip-path="url('#clipping-rect1')" >200 K</text>
		<line x1="300.34" y1="31.00" x2="300.34" y2="15.12" stroke="#7f7f7f" stroke-width="1.00" clip-path="url('#clipping-rect1')" />
		<text x="227.26" y="23.59" font-family="Helvetica" font-size="10" fill="#333333" clip-path="url('#clipping-rect1')" >150 K</text>
		<line x1="225.26" y1="31.00" x2="225.26" y2="15.12" stroke="#7f7f7f" stroke-width="1.00" clip-path="url('#clipping-rect1')" />
		<text x="152.17" y="23.59" font-family="Helvetica" font-size="10" fill="#333333" clip-path="url('#clipping-rect1')" >100 K</text>
		<line x1="150.17" y1="31.00" x2="150.17" y2="15.12" stroke="#7f7f7f" stroke-width="1.00" clip-path="url('#clipping-rect1')" />
		<text x="77.09" y="23.59" font-family="Helvetica" font-size="10" fill="#333333" clip-path="url('#clipping-rect1')" >50 K</text>
		<line x1="75.09" y1="31.00" x2="75.09" y2="15.12" stroke="#7f7f7f" stroke-width="1.00" clip-path="url('#clipping-rect1')" />
		<line x1="0.00" y1="282.00" x2="0.00" y2="31.00" stroke="#ebebeb" stroke-width="1.00" />
		<line x1="75.09" y1="282.00" x2="75.09" y2="31.00" stroke="#ebebeb" stroke-width="1.00" />
		<line x1="150.17" y1="282.00" x2="150.17" y2="31.00" stroke="#ebebeb" stroke-width="1.00" />
		<line x1="225.26" y1="282.00" x2="225.26" y2="31.00" stroke="#ebebeb" stroke-width="1.00" />
		<line x1="300.34" y1="282.00" x2="300.34" y2="31.00" stroke="#ebebeb" stroke-width="1.00" />
		<line x1="375.43" y1="282.00" x2="375.43" y2="31.00" stroke="#ebebeb" stroke-width="1.00" />
		<line x1="450.51" y1="282.00" x2="450.51" y2="31.00" stroke="#ebebeb" stroke-width="1.00" />
		<line x1="525.60" y1="282.00" x2="525.60" y2="31.00" stroke="#ebebeb" stroke-width="1.00" />
		<line x1="600.68" y1="282.00" x2="600.68" y2="31.00" stroke="#ebebeb" stroke-width="1.00" />
		<line x1="675.77" y1="282.00" x2="675.77" y2="31.00" stroke="#ebebeb" stroke-width="1.00" />
		<line x1="750.85" y1="282.00" x2="750.85" y2="31.00" stroke="#ebebeb" stroke-width="1.00" />
		<line x1="825.94" y1="282.00" x2="825.94" y2="31.00" stroke="#ebebeb" stroke-width="1.00" />
		<polygon fill="url('#gradient1')" shape-rendering="crispEdges" points="879.00,37.50 879.00,33.00 0.00,33.00 0.00,37.50 0.00,42.00 879.00,42.00 " />
		<line x1="0.00" y1="42.00" x2="0.00" y2="33.00" stroke="#6c6c6c" stroke-width="1.00" stroke-linejoin="round" />
		<line x1="0.00" y1="33.00" x2="879.00" y2="33.00" stroke="#6c6c6c" stroke-width="1.00" stroke-linejoin="round" />
		<line x1="879.00" y1="33.00" x2="879.00" y2="42.00" stroke="#6c6c6c" stroke-width="1.00" stroke-linejoin="round" />
		<line x1="0.00" y1="42.00" x2="879.00" y2="42.00" stroke="#6c6c6c" stroke-width="1.00" stroke-linejoin="round" />
		<polygon fill="url('#gradient2')" shape-rendering="crispEdges" points="0.00,58.00 879.00,58.00 879.00,44.00 0.00,44.00 " clip-path="url('#clipping-rect2')" />
		<text x="0.00" y="54.00" font-family="Helvetica" font-size="12" fill="#333333" >(U) Alignment for group templates, BLAST Results for: ref|NM_004727.3|</text>
		<polygon fill="url('#gradient2')" shape-rendering="crispEdges" points="0.00,74.00 879.00,74.00 879.00,60.00 0.00,60.00 " clip-path="url('#clipping-rect2')" />
		<text x="0.00" y="70.00" font-family="Helvetica" font-size="12" fill="#333333" >(U) BLAST Results for: ref|NM_004727.3|</text>
		<polygon fill="url('#gradient2')" shape-rendering="crispEdges" points="0.00,90.00 879.00,90.00 879.00,76.00 0.00,76.00 " clip-path="url('#clipping-rect2')" />
		<text x="0.00" y="86.00" font-family="Helvetica" font-size="12" fill="#333333" >(U) Alignment for group templates, BLAST Results for: ref|NM_004727.3|</text>
		<polygon fill="url('#gradient2')" shape-rendering="crispEdges" points="0.00,106.00 879.00,106.00 879.00,92.00 0.00,92.00 " clip-path="url('#clipping-rect2')" />
		<text x="0.00" y="102.00" font-family="Helvetica" font-size="12" fill="#333333" >(U) BLAST Results for: ref|NM_004727.3|</text>
		<polygon fill="url('#gradient2')" shape-rendering="crispEdges" points="0.00,122.00 879.00,122.00 879.00,108.00 0.00,108.00 " clip-path="url('#clipping-rect2')" />
		<text x="0.00" y="118.00" font-family="Helvetica" font-size="12" fill="#333333" >(U) BLAST Results for: ref|NM_004727.3|</text>
		<polygon fill="url('#gradient2')" shape-rendering="crispEdges" points="0.00,138.00 879.00,138.00 879.00,124.00 0.00,124.00 " clip-path="url('#clipping-rect2')" />
		<text x="0.00" y="134.00" font-family="Helvetica" font-size="12" fill="#333333" >(U) Alignment for group templates, BLAST Results for: ref|NM_004727.3|</text>
		<polygon fill="url('#gradient2')" shape-rendering="crispEdges" points="0.00,154.00 879.00,154.00 879.00,140.00 0.00,140.00 " clip-path="url('#clipping-rect2')" />
		<text x="0.00" y="150.00" font-family="Helvetica" font-size="12" fill="#333333" >(U) BLAST Results for: ref|NM_004727.3|</text>
		<line x1="0.00" y1="208.00" x2="0.00" y2="245.00" stroke="#009900" stroke-opacity="0.10" stroke-width="1.00" stroke-linejoin="round" />
		<line x1="0.00" y1="245.00" x2="361.45" y2="245.00" stroke="#009900" stroke-opacity="0.10" stroke-width="1.00" stroke-linejoin="round" />
		<line x1="361.45" y1="245.00" x2="361.45" y2="208.00" stroke="#009900" stroke-opacity="0.10" stroke-width="1.00" stroke-linejoin="round" />
		<line x1="0.00" y1="208.00" x2="361.45" y2="208.00" stroke="#009900" stroke-opacity="0.10" stroke-width="1.00" stroke-linejoin="round" />
		<text x="123.33" y="217.00" font-family="Helvetica" font-size="10" fill="#124d94" >ENSSPUG00000014007</text>
		<polygon fill="#ffffff" shape-rendering="crispEdges" points="118.77,228.50 118.77,217.50 1.00,217.50 1.00,228.50 " />
		<text x="1.00" y="230.00" font-family="Helvetica" font-size="10" fill="#124d94" >ENSSPUT00000019314.1</text>
		<polygon fill="#a5d1a5" shape-rendering="crispEdges" points="115.53,232.00 115.53,243.00 114.53,243.00 114.53,232.00 " />
		<line x1="115.27" y1="237.50" x2="116.36" y2="237.50" stroke="#4ba34b" stroke-width="2.00" />
		<polygon fill="#a5d1a5" shape-rendering="crispEdges" points="116.87,232.00 116.87,243.00 115.87,243.00 115.87,232.00 " />
		<polygon fill="#1e8c1e" shape-rendering="crispEdges" points="117.19,232.00 117.19,243.00 116.19,243.00 116.19,232.00 " />
		<line x1="117.00" y1="237.50" x2="127.22" y2="237.50" stroke="#4ba34b" stroke-width="2.00" />
		<polygon fill="#1e8c1e" shape-rendering="crispEdges" points="127.87,232.00 127.87,243.00 126.87,243.00 126.87,232.00 " />
		<line x1="127.52" y1="237.50" x2="238.38" y2="237.50" stroke="#4ba34b" stroke-width="2.00" />
		<polygon fill="#b2b2b2" shape-rendering="crispEdges" points="187.35,237.50 178.55,233.10 180.75,237.50 178.55,241.90 " />
		<polygon fill="#1e8c1e" shape-rendering="crispEdges" points="239.58,232.00 239.58,243.00 238.38,243.00 238.38,232.00 " />
		<polygon fill="#a5d1a5" shape-rendering="crispEdges" points="240.35,232.00 240.35,243.00 239.35,243.00 239.35,232.00 " />
		<polygon fill="#ffffff" shape-rendering="crispEdges" points="359.45,243.00 359.45,232.00 244.12,232.00 244.12,243.00 " />
		<text x="244.12" y="241.00" font-family="Helvetica" font-size="10" fill="#124d94" >ENSSPUP00000018135.1</text>
		<line x1="176.07" y1="250.00" x2="176.07" y2="278.00" stroke="#009900" stroke-opacity="0.10" stroke-width="1.00" stroke-linejoin="round" />
		<line x1="176.07" y1="278.00" x2="466.27" y2="278.00" stroke="#009900" stroke-opacity="0.10" stroke-width="1.00" stroke-linejoin="round" />
		<line x1="466.27" y1="278.00" x2="466.27" y2="250.00" stroke="#009900" stroke-opacity="0.10" stroke-width="1.00" stroke-linejoin="round" />
		<line x1="176.07" y1="250.00" x2="466.27" y2="250.00" stroke="#009900" stroke-opacity="0.10" stroke-width="1.00" stroke-linejoin="round" />
		<text x="266.75" y="259.00" font-family="Helvetica" font-size="10" fill="#124d94" >ENSSPUG00000014017</text>
		<polygon fill="#a5d1a5" shape-rendering="crispEdges" points="297.43,265.00 297.43,276.00 296.43,276.00 296.43,265.00 " />
		<polygon fill="#1e8c1e" shape-rendering="crispEdges" points="297.59,265.00 297.59,276.00 296.59,276.00 296.59,265.00 " />
		<line x1="297.16" y1="270.50" x2="300.96" y2="270.50" stroke="#4ba34b" stroke-width="2.00" />
		<polygon fill="#1e8c1e" shape-rendering="crispEdges" points="301.50,265.00 301.50,276.00 300.50,276.00 300.50,265.00 " />
		<line x1="301.03" y1="270.50" x2="317.49" y2="270.50" stroke="#4ba34b" stroke-width="2.00" />
		<polygon fill="#b2b2b2" shape-rendering="crispEdges" points="313.66,270.50 304.86,266.10 307.06,270.50 304.86,274.90 " />
		<polygon fill="#1e8c1e" shape-rendering="crispEdges" points="318.05,265.00 318.05,276.00 317.05,276.00 317.05,265.00 " />
		<line x1="317.60" y1="270.50" x2="324.67" y2="270.50" stroke="#4ba34b" stroke-width="2.00" />
		<polygon fill="#1e8c1e" shape-rendering="crispEdges" points="325.23,265.00 325.23,276.00 324.23,276.00 324.23,265.00 " />
		<line x1="324.80" y1="270.50" x2="329.89" y2="270.50" stroke="#4ba34b" stroke-width="2.00" />
		<polygon fill="#1e8c1e" shape-rendering="crispEdges" points="330.46,265.00 330.46,276.00 329.46,276.00 329.46,265.00 " />
		<line x1="330.04" y1="270.50" x2="334.63" y2="270.50" stroke="#4ba34b" stroke-width="2.00" />
		<polygon fill="#1e8c1e" shape-rendering="crispEdges" points="335.22,265.00 335.22,276.00 334.22,276.00 334.22,265.00 " />
		<line x1="334.82" y1="270.50" x2="336.33" y2="270.50" stroke="#4ba34b" stroke-width="2.00" />
		<polygon fill="#1e8c1e" shape-rendering="crispEdges" points="336.92,265.00 336.92,276.00 335.92,276.00 335.92,265.00 " />
		<line x1="336.51" y1="270.50" x2="340.41" y2="270.50" stroke="#4ba34b" stroke-width="2.00" />
		<polygon fill="#1e8c1e" shape-rendering="crispEdges" points="340.98,265.00 340.98,276.00 339.98,276.00 339.98,265.00 " />
		<line x1="340.56" y1="270.50" x2="343.00" y2="270.50" stroke="#4ba34b" stroke-width="2.00" />
		<polygon fill="#1e8c1e" shape-rendering="crispEdges" points="343.63,265.00 343.63,276.00 342.63,276.00 342.63,265.00 " />
		<line x1="343.25" y1="270.50" x2="344.58" y2="270.50" stroke="#4ba34b" stroke-width="2.00" />
		<polygon fill="#1e8c1e" shape-rendering="crispEdges" points="345.14,265.00 345.14,276.00 344.14,276.00 344.14,265.00 " />
		<polygon fill="#a5d1a5" shape-rendering="crispEdges" points="345.32,265.00 345.32,276.00 344.32,276.00 344.32,265.00 " />
		<polygon fill="#ffffff" shape-rendering="crispEdges" points="296.84,276.00 296.84,265.00 179.07,265.00 179.07,276.00 " />
		<text x="179.07" y="274.00" font-family="Helvetica" font-size="10" fill="#124d94" >ENSSPUT00000019327.1</text>
		<polygon fill="#ffffff" shape-rendering="crispEdges" points="464.27,276.00 464.27,265.00 348.94,265.00 348.94,276.00 " />
		<text x="348.94" y="274.00" font-family="Helvetica" font-size="10" fill="#124d94" >ENSSPUP00000018148.1</text>
		<line x1="285.36" y1="175.00" x2="285.36" y2="203.00" stroke="#009900" stroke-opacity="0.10" stroke-width="1.00" stroke-linejoin="round" />
		<line x1="285.36" y1="203.00" x2="879.00" y2="203.00" stroke="#009900" stroke-opacity="0.10" stroke-width="1.00" stroke-linejoin="round" />
		<line x1="879.00" y1="203.00" x2="879.00" y2="175.00" stroke="#009900" stroke-opacity="0.10" stroke-width="1.00" stroke-linejoin="round" />
		<line x1="285.36" y1="175.00" x2="879.00" y2="175.00" stroke="#009900" stroke-opacity="0.10" stroke-width="1.00" stroke-linejoin="round" />
		<text x="566.07" y="184.00" font-family="Helvetica" font-size="10" fill="#124d94" >ENSSPUG00000014032</text>
		<polygon fill="#1e8c1e" shape-rendering="crispEdges" points="407.34,190.00 407.34,201.00 406.34,201.00 406.34,190.00 " />
		<line x1="407.00" y1="195.50" x2="430.00" y2="195.50" stroke="#4ba34b" stroke-width="2.00" />
		<polygon fill="#b2b2b2" shape-rendering="crispEdges" points="414.10,195.50 422.90,191.10 420.70,195.50 422.90,199.90 " />
		<polygon fill="#1e8c1e" shape-rendering="crispEdges" points="430.56,190.00 430.56,201.00 429.56,201.00 429.56,190.00 " />
		<line x1="430.12" y1="195.50" x2="437.77" y2="195.50" stroke="#4ba34b" stroke-width="2.00" />
		<polygon fill="#1e8c1e" shape-rendering="crispEdges" points="438.38,190.00 438.38,201.00 437.38,201.00 437.38,190.00 " />
		<line x1="437.98" y1="195.50" x2="444.49" y2="195.50" stroke="#4ba34b" stroke-width="2.00" />
		<polygon fill="#1e8c1e" shape-rendering="crispEdges" points="445.08,190.00 445.08,201.00 444.08,201.00 444.08,190.00 " />
		<line x1="444.66" y1="195.50" x2="511.47" y2="195.50" stroke="#4ba34b" stroke-width="2.00" />
		<polygon fill="#b2b2b2" shape-rendering="crispEdges" points="473.66,195.50 482.46,191.10 480.26,195.50 482.46,199.90 " />
		<polygon fill="#1e8c1e" shape-rendering="crispEdges" points="512.06,190.00 512.06,201.00 511.06,201.00 511.06,190.00 " />
		<line x1="511.65" y1="195.50" x2="532.60" y2="195.50" stroke="#4ba34b" stroke-width="2.00" />
		<polygon fill="#b2b2b2" shape-rendering="crispEdges" points="517.72,195.50 526.52,191.10 524.32,195.50 526.52,199.90 " />
		<polygon fill="#1e8c1e" shape-rendering="crispEdges" points="533.26,190.00 533.26,201.00 532.26,201.00 532.26,190.00 " />
		<line x1="532.91" y1="195.50" x2="559.44" y2="195.50" stroke="#4ba34b" stroke-width="2.00" />
		<polygon fill="#b2b2b2" shape-rendering="crispEdges" points="541.77,195.50 550.57,191.10 548.37,195.50 550.57,199.90 " />
		<polygon fill="#1e8c1e" shape-rendering="crispEdges" points="560.00,190.00 560.00,201.00 559.00,201.00 559.00,190.00 " />
		<line x1="559.57" y1="195.50" x2="560.96" y2="195.50" stroke="#4ba34b" stroke-width="2.00" />
		<polygon fill="#1e8c1e" shape-rendering="crispEdges" points="561.54,190.00 561.54,201.00 560.54,201.00 560.54,190.00 " />
		<line x1="561.13" y1="195.50" x2="562.86" y2="195.50" stroke="#4ba34b" stroke-width="2.00" />
		<polygon fill="#1e8c1e" shape-rendering="crispEdges" points="563.46,190.00 563.46,201.00 562.46,201.00 562.46,190.00 " />
		<line x1="563.07" y1="195.50" x2="586.44" y2="195.50" stroke="#4ba34b" stroke-width="2.00" />
		<polygon fill="#b2b2b2" shape-rendering="crispEdges" points="570.36,195.50 579.16,191.10 576.96,195.50 579.16,199.90 " />
		<polygon fill="#1e8c1e" shape-rendering="crispEdges" points="587.02,190.00 587.02,201.00 586.02,201.00 586.02,190.00 " />
		<line x1="586.60" y1="195.50" x2="589.49" y2="195.50" stroke="#4ba34b" stroke-width="2.00" />
		<polygon fill="#1e8c1e" shape-rendering="crispEdges" points="590.09,190.00 590.09,201.00 589.09,201.00 589.09,190.00 " />
		<line x1="589.68" y1="195.50" x2="607.49" y2="195.50" stroke="#4ba34b" stroke-width="2.00" />
		<polygon fill="#b2b2b2" shape-rendering="crispEdges" points="594.19,195.50 602.99,191.10 600.79,195.50 602.99,199.90 " />
		<polygon fill="#1e8c1e" shape-rendering="crispEdges" points="608.10,190.00 608.10,201.00 607.10,201.00 607.10,190.00 " />
		<line x1="607.71" y1="195.50" x2="834.34" y2="195.50" stroke="#4ba34b" stroke-width="2.00" />
		<polygon fill="#b2b2b2" shape-rendering="crispEdges" points="616.63,195.50 625.43,191.10 623.23,195.50 625.43,199.90 " />
		<polygon fill="#9d9d9d" shape-rendering="crispEdges" points="716.63,195.50 725.43,191.10 723.23,195.50 725.43,199.90 " />
		<polygon fill="#878787" shape-rendering="crispEdges" points="816.63,195.50 825.43,191.10 823.23,195.50 825.43,199.90 " />
		<polygon fill="#1e8c1e" shape-rendering="crispEdges" points="834.87,190.00 834.87,201.00 833.87,201.00 833.87,190.00 " />
		<line x1="834.41" y1="195.50" x2="834.48" y2="195.50" stroke="#4ba34b" stroke-width="2.00" />
		<polygon fill="#1e8c1e" shape-rendering="crispEdges" points="835.12,190.00 835.12,201.00 834.12,201.00 834.12,190.00 " />
		<polygon fill="#ffffff" shape-rendering="crispEdges" points="406.68,201.00 406.68,190.00 288.36,190.00 288.36,201.00 " />
		<text x="288.36" y="199.00" font-family="Helvetica" font-size="10" fill="#124d94" >ENSSPUP00000018176.1</text>
		<polygon fill="#ffffff" shape-rendering="crispEdges" points="879.00,201.00 879.00,190.00 764.24,190.00 764.24,201.00 " />
		<text x="764.24" y="199.00" font-family="Helvetica" font-size="10" fill="#124d94" >ENSSPUT00000019355.1</text>
		<polygon fill="url('#gradient3')" shape-rendering="crispEdges" points="0.00,170.00 879.00,170.00 879.00,156.00 0.00,156.00 " clip-path="url('#clipping-rect2')" />
		<text x="0.00" y="166.00" font-family="Helvetica" font-size="12" fill="#333333" >Genes, Ensembl release 114</text>
		<polygon fill="#0000ff" fill-opacity="0.20" shape-rendering="crispEdges" points="320.50,31.50 320.50,23.10 320.50,23.10 " />
		<polygon fill="#0000ff" fill-opacity="0.20" shape-rendering="crispEdges" points="320.50,31.50 320.50,31.50 320.50,23.10 " />
		<line x1="320.50" y1="30.50" x2="320.50" y2="23.10" stroke="#0000ff" stroke-opacity="0.40" stroke-width="1.00" />
		<line x1="320.50" y1="30.50" x2="320.50" y2="23.10" stroke="#0000ff" stroke-opacity="0.40" stroke-width="1.00" />
		<polygon fill="#0000ff" shape-rendering="crispEdges" points="314.79,22.35 314.50,20.50 314.79,18.65 315.65,16.97 316.97,15.65 318.65,14.79 320.50,14.50 320.50,26.50 318.65,26.21 316.97,25.35 315.65,24.03 " />
		<polygon fill="#0000ff" fill-opacity="0.60" shape-rendering="crispEdges" points="341.61,26.50 341.61,14.50 320.50,14.50 320.50,26.50 " />
		<text x="322.50" y="23.50" font-family="Helvetica" font-size="10" fill="#ffffff" >esd</text>
		<polygon fill="#0000ff" fill-opacity="0.20" shape-rendering="crispEdges" points="320.36,283.00 320.36,31.00 320.36,31.00 " />
		<polygon fill="#0000ff" fill-opacity="0.20" shape-rendering="crispEdges" points="320.36,283.00 320.36,283.00 320.36,31.00 " />
		<line x1="320.36" y1="282.00" x2="320.36" y2="31.00" stroke="#0000ff" stroke-opacity="0.40" stroke-width="1.00" />
		<line x1="320.36" y1="282.00" x2="320.36" y2="31.00" stroke="#0000ff" stroke-opacity="0.40" stroke-width="1.00" />
		<polygon fill="#0000ff" fill-opacity="0.20" shape-rendering="crispEdges" points="166.50,23.10 166.50,31.50 165.50,31.50 165.50,23.10 " />
		<line x1="165.50" y1="30.50" x2="165.50" y2="23.10" stroke="#0000ff" stroke-opacity="0.40" stroke-width="1.00" />
		<line x1="166.50" y1="30.50" x2="166.50" y2="23.10" stroke="#0000ff" stroke-opacity="0.40" stroke-width="1.00" />
		<polygon fill="#0000ff" shape-rendering="crispEdges" points="159.79,22.35 159.50,20.50 159.79,18.65 160.65,16.97 161.97,15.65 163.65,14.79 165.50,14.50 165.50,26.50 163.65,26.21 161.97,25.35 160.65,24.03 " />
		<polygon fill="#0000ff" fill-opacity="0.60" shape-rendering="crispEdges" points="203.31,26.50 203.31,14.50 165.50,14.50 165.50,26.50 " />
		<text x="167.50" y="23.50" font-family="Helvetica" font-size="10" fill="#ffffff" >HTR2A</text>
		<polygon fill="#0000ff" fill-opacity="0.20" shape-rendering="crispEdges" points="166.19,31.00 166.19,283.00 165.19,283.00 165.19,31.00 " />
		<line x1="165.19" y1="282.00" x2="165.19" y2="31.00" stroke="#0000ff" stroke-opacity="0.40" stroke-width="1.00" />
		<line x1="166.19" y1="282.00" x2="166.19" y2="31.00" stroke="#0000ff" stroke-opacity="0.40" stroke-width="1.00" />
		<polygon fill="#008000" fill-opacity="0.20" shape-rendering="crispEdges" points="439.50,23.10 439.50,31.50 438.50,31.50 438.50,23.10 " />
		<line x1="438.50" y1="30.50" x2="438.50" y2="23.10" stroke="#008000" stroke-opacity="0.40" stroke-width="1.00" />
		<line x1="439.50" y1="30.50" x2="439.50" y2="23.10" stroke="#008000" stroke-opacity="0.40" stroke-width="1.00" />
		<polygon fill="#008000" shape-rendering="crispEdges" points="432.79,22.35 432.50,20.50 432.79,18.65 433.65,16.97 434.97,15.65 436.65,14.79 438.50,14.50 438.50,26.50 436.65,26.21 434.97,25.35 433.65,24.03 " />
		<polygon fill="#008000" fill-opacity="0.60" shape-rendering="crispEdges" points="474.39,26.50 474.39,14.50 438.50,14.50 438.50,26.50 " />
		<text x="440.50" y="23.50" font-family="Helvetica" font-size="10" fill="#ffffff" >LRCH1</text>
		<polygon fill="#008000" fill-opacity="0.20" shape-rendering="crispEdges" points="439.50,31.00 439.50,283.00 438.50,283.00 438.50,31.00 " />
		<line x1="438.50" y1="282.00" x2="438.50" y2="31.00" stroke="#008000" stroke-opacity="0.40" stroke-width="1.00" />
		<line x1="439.50" y1="282.00" x2="439.50" y2="31.00" stroke="#008000" stroke-opacity="0.40" stroke-width="1.00" />
		<polygon fill="#e5e5e5" shape-rendering="crispEdges" points="879.00,13.00 879.00,-1.00 0.00,-1.00 0.00,13.00 " />
		<text x="0.00" y="10.00" font-family="Helvetica Bold" font-size="12" text-anchor="start" fill="#000000" >QEPC01000608.1:0..585327 Sphenodon punctatus isolate mauimua-1 ScrUdWx_2607, whole genome shotgun sequence</text>
	</g>
</svg>
