<?xml version="1.0" standalone="no" ?>
<!DOCTYPE svg PUBLIC "-//W3C//DTD SVG 1.1//EN" "http://www.w3.org/Graphics/SVG/1.1/DTD/svg11.dtd">
<svg width="879px" height="359px" xmlns="http://www.w3.org/2000/svg" version="1.1" viewBox="0 0 879 359" >
	<style type="text/css" > <![CDATA[
		@import url("https://www.ncbi.nlm.nih.gov/projects/sviewer/css/svg_fonts.css");
	]]>
	</style>
	<desc >Generated by NCBI Genome Workbench http://www.ncbi.nlm.nih.gov/tools/gbench/</desc>
	<defs >
		<clipPath id="clipping-rect1" >
			<rect x="0" y="14" width="879" height="18" />
		</clipPath>
		<linearGradient id="gradient1" gradientTransform="rotate(90)" >
			<stop offset="0%" stop-color="#6c6c6c" />
			<stop offset="50%" stop-color="#b5b5b5" />
			<stop offset="100%" stop-color="#6c6c6c" />
		</linearGradient>
		<clipPath id="clipping-rect2" >
			<rect x="0" y="32" width="879" height="327" />
		</clipPath>
		<linearGradient id="gradient2" gradientTransform="rotate(90)" >
			<stop offset="0%" stop-color="#b6dead" />
			<stop offset="100%" stop-color="#ffffff" stop-opacity="0.00" />
		</linearGradient>
		<linearGradient id="gradient3" gradientTransform="rotate(90)" >
			<stop offset="0%" stop-color="#e6e6e6" stop-opacity="0.71" />
			<stop offset="100%" stop-color="#ffffff" stop-opacity="0.00" />
		</linearGradient>
	</defs>
	<g >
		<polygon fill="#ffffff" shape-rendering="crispEdges" points="879.00,31.00 879.00,13.00 0.00,13.00 0.00,31.00 " />
		<line x1="0.00" y1="29.00" x2="879.00" y2="29.00" stroke="#7f7f7f" stroke-width="1.00" clip-path="url('#clipping-rect1')" />
		<line x1="879.00" y1="29.00" x2="879.00" y2="26.00" stroke="#7f7f7f" stroke-width="1.00" clip-path="url('#clipping-rect1')" />
		<line x1="872.68" y1="29.00" x2="872.68" y2="27.00" stroke="#7f7f7f" stroke-width="1.00" clip-path="url('#clipping-rect1')" />
		<line x1="866.35" y1="29.00" x2="866.35" y2="27.00" stroke="#7f7f7f" stroke-width="1.00" clip-path="url('#clipping-rect1')" />
		<line x1="860.03" y1="29.00" x2="860.03" y2="27.00" stroke="#7f7f7f" stroke-width="1.00" clip-path="url('#clipping-rect1')" />
		<line x1="853.71" y1="29.00" x2="853.71" y2="27.00" stroke="#7f7f7f" stroke-width="1.00" clip-path="url('#clipping-rect1')" />
		<line x1="847.38" y1="29.00" x2="847.38" y2="26.00" stroke="#7f7f7f" stroke-width="1.00" clip-path="url('#clipping-rect1')" />
		<line x1="841.06" y1="29.00" x2="841.06" y2="27.00" stroke="#7f7f7f" stroke-width="1.00" clip-path="url('#clipping-rect1')" />
		<line x1="834.74" y1="29.00" x2="834.74" y2="27.00" stroke="#7f7f7f" stroke-width="1.00" clip-path="url('#clipping-rect1')" />
		<line x1="828.41" y1="29.00" x2="828.41" y2="27.00" stroke="#7f7f7f" stroke-width="1.00" clip-path="url('#clipping-rect1')" />
		<line x1="822.09" y1="29.00" x2="822.09" y2="27.00" stroke="#7f7f7f" stroke-width="1.00" clip-path="url('#clipping-rect1')" />
		<line x1="815.77" y1="29.00" x2="815.77" y2="26.00" stroke="#7f7f7f" stroke-width="1.00" clip-path="url('#clipping-rect1')" />
		<line x1="809.44" y1="29.00" x2="809.44" y2="27.00" stroke="#7f7f7f" stroke-width="1.00" clip-path="url('#clipping-rect1')" />
		<line x1="803.12" y1="29.00" x2="803.12" y2="27.00" stroke="#7f7f7f" stroke-width="1.00" clip-path="url('#clipping-rect1')" />
		<line x1="796.80" y1="29.00" x2="796.80" y2="27.00" stroke="#7f7f7f" stroke-width="1.00" clip-path="url('#clipping-rect1')" />
		<line x1="790.47" y1="29.00" x2="790.47" y2="27.00" stroke="#7f7f7f" stroke-width="1.00" clip-path="url('#clipping-rect1')" />
		<line x1="784.15" y1="29.00" x2="784.15" y2="26.00" stroke="#7f7f7f" stroke-width="1.00" clip-path="url('#clipping-rect1')" />
		<line x1="777.83" y1="29.00" x2="777.83" y2="27.00" stroke="#7f7f7f" stroke-width="1.00" clip-path="url('#clipping-rect1')" />
		<line x1="771.50" y1="29.00" x2="771.50" y2="27.00" stroke="#7f7f7f" stroke-width="1.00" clip-path="url('#clipping-rect1')" />
		<line x1="765.18" y1="29.00" x2="765.18" y2="27.00" stroke="#7f7f7f" stroke-width="1.00" clip-path="url('#clipping-rect1')" />
		<line x1="758.86" y1="29.00" x2="758.86" y2="27.00" stroke="#7f7f7f" stroke-width="1.00" clip-path="url('#clipping-rect1')" />
		<line x1="752.53" y1="29.00" x2="752.53" y2="26.00" stroke="#7f7f7f" stroke-width="1.00" clip-path="url('#clipping-rect1')" />
		<line x1="746.21" y1="29.00" x2="746.21" y2="27.00" stroke="#7f7f7f" stroke-width="1.00" clip-path="url('#clipping-rect1')" />
		<line x1="739.89" y1="29.00" x2="739.89" y2="27.00" stroke="#7f7f7f" stroke-width="1.00" clip-path="url('#clipping-rect1')" />
		<line x1="733.56" y1="29.00" x2="733.56" y2="27.00" stroke="#7f7f7f" stroke-width="1.00" clip-path="url('#clipping-rect1')" />
		<line x1="727.24" y1="29.00" x2="727.24" y2="27.00" stroke="#7f7f7f" stroke-width="1.00" clip-path="url('#clipping-rect1')" />
		<line x1="720.92" y1="29.00" x2="720.92" y2="26.00" stroke="#7f7f7f" stroke-width="1.00" clip-path="url('#clipping-rect1')" />
		<line x1="714.59" y1="29.00" x2="714.59" y2="27.00" stroke="#7f7f7f" stroke-width="1.00" clip-path="url('#clipping-rect1')" />
		<line x1="708.27" y1="29.00" x2="708.27" y2="27.00" stroke="#7f7f7f" stroke-width="1.00" clip-path="url('#clipping-rect1')" />
		<line x1="701.95" y1="29.00" x2="701.95" y2="27.00" stroke="#7f7f7f" stroke-width="1.00" clip-path="url('#clipping-rect1')" />
		<line x1="695.62" y1="29.00" x2="695.62" y2="27.00" stroke="#7f7f7f" stroke-width="1.00" clip-path="url('#clipping-rect1')" />
		<line x1="689.30" y1="29.00" x2="689.30" y2="26.00" stroke="#7f7f7f" stroke-width="1.00" clip-path="url('#clipping-rect1')" />
		<line x1="682.98" y1="29.00" x2="682.98" y2="27.00" stroke="#7f7f7f" stroke-width="1.00" clip-path="url('#clipping-rect1')" />
		<line x1="676.65" y1="29.00" x2="676.65" y2="27.00" stroke="#7f7f7f" stroke-width="1.00" clip-path="url('#clipping-rect1')" />
		<line x1="670.33" y1="29.00" x2="670.33" y2="27.00" stroke="#7f7f7f" stroke-width="1.00" clip-path="url('#clipping-rect1')" />
		<line x1="664.01" y1="29.00" x2="664.01" y2="27.00" stroke="#7f7f7f" stroke-width="1.00" clip-path="url('#clipping-rect1')" />
		<line x1="657.68" y1="29.00" x2="657.68" y2="26.00" stroke="#7f7f7f" stroke-width="1.00" clip-path="url('#clipping-rect1')" />
		<line x1="651.36" y1="29.00" x2="651.36" y2="27.00" stroke="#7f7f7f" stroke-width="1.00" clip-path="url('#clipping-rect1')" />
		<line x1="645.04" y1="29.00" x2="645.04" y2="27.00" stroke="#7f7f7f" stroke-width="1.00" clip-path="url('#clipping-rect1')" />
		<line x1="638.71" y1="29.00" x2="638.71" y2="27.00" stroke="#7f7f7f" stroke-width="1.00" clip-path="url('#clipping-rect1')" />
		<line x1="632.39" y1="29.00" x2="632.39" y2="27.00" stroke="#7f7f7f" stroke-width="1.00" clip-path="url('#clipping-rect1')" />
		<line x1="626.07" y1="29.00" x2="626.07" y2="26.00" stroke="#7f7f7f" stroke-width="1.00" clip-path="url('#clipping-rect1')" />
		<line x1="619.74" y1="29.00" x2="619.74" y2="27.00" stroke="#7f7f7f" stroke-width="1.00" clip-path="url('#clipping-rect1')" />
		<line x1="613.42" y1="29.00" x2="613.42" y2="27.00" stroke="#7f7f7f" stroke-width="1.00" clip-path="url('#clipping-rect1')" />
		<line x1="607.10" y1="29.00" x2="607.10" y2="27.00" stroke="#7f7f7f" stroke-width="1.00" clip-path="url('#clipping-rect1')" />
		<line x1="600.77" y1="29.00" x2="600.77" y2="27.00" stroke="#7f7f7f" stroke-width="1.00" clip-path="url('#clipping-rect1')" />
		<line x1="594.45" y1="29.00" x2="594.45" y2="26.00" stroke="#7f7f7f" stroke-width="1.00" clip-path="url('#clipping-rect1')" />
		<line x1="588.13" y1="29.00" x2="588.13" y2="27.00" stroke="#7f7f7f" stroke-width="1.00" clip-path="url('#clipping-rect1')" />
		<line x1="581.80" y1="29.00" x2="581.80" y2="27.00" stroke="#7f7f7f" stroke-width="1.00" clip-path="url('#clipping-rect1')" />
		<line x1="575.48" y1="29.00" x2="575.48" y2="27.00" stroke="#7f7f7f" stroke-width="1.00" clip-path="url('#clipping-rect1')" />
		<line x1="569.16" y1="29.00" x2="569.16" y2="27.00" stroke="#7f7f7f" stroke-width="1.00" clip-path="url('#clipping-rect1')" />
		<line x1="562.83" y1="29.00" x2="562.83" y2="26.00" stroke="#7f7f7f" stroke-width="1.00" clip-path="url('#clipping-rect1')" />
		<line x1="556.51" y1="29.00" x2="556.51" y2="27.00" stroke="#7f7f7f" stroke-width="1.00" clip-path="url('#clipping-rect1')" />
		<line x1="550.19" y1="29.00" x2="550.19" y2="27.00" stroke="#7f7f7f" stroke-width="1.00" clip-path="url('#clipping-rect1')" />
		<line x1="543.86" y1="29.00" x2="543.86" y2="27.00" stroke="#7f7f7f" stroke-width="1.00" clip-path="url('#clipping-rect1')" />
		<line x1="537.54" y1="29.00" x2="537.54" y2="27.00" stroke="#7f7f7f" stroke-width="1.00" clip-path="url('#clipping-rect1')" />
		<line x1="531.22" y1="29.00" x2="531.22" y2="26.00" stroke="#7f7f7f" stroke-width="1.00" clip-path="url('#clipping-rect1')" />
		<line x1="524.89" y1="29.00" x2="524.89" y2="27.00" stroke="#7f7f7f" stroke-width="1.00" clip-path="url('#clipping-rect1')" />
		<line x1="518.57" y1="29.00" x2="518.57" y2="27.00" stroke="#7f7f7f" stroke-width="1.00" clip-path="url('#clipping-rect1')" />
		<line x1="512.25" y1="29.00" x2="512.25" y2="27.00" stroke="#7f7f7f" stroke-width="1.00" clip-path="url('#clipping-rect1')" />
		<line x1="505.92" y1="29.00" x2="505.92" y2="27.00" stroke="#7f7f7f" stroke-width="1.00" clip-path="url('#clipping-rect1')" />
		<line x1="499.60" y1="29.00" x2="499.60" y2="26.00" stroke="#7f7f7f" stroke-width="1.00" clip-path="url('#clipping-rect1')" />
		<line x1="493.28" y1="29.00" x2="493.28" y2="27.00" stroke="#7f7f7f" stroke-width="1.00" clip-path="url('#clipping-rect1')" />
		<line x1="486.95" y1="29.00" x2="486.95" y2="27.00" stroke="#7f7f7f" stroke-width="1.00" clip-path="url('#clipping-rect1')" />
		<line x1="480.63" y1="29.00" x2="480.63" y2="27.00" stroke="#7f7f7f" stroke-width="1.00" clip-path="url('#clipping-rect1')" />
		<line x1="474.31" y1="29.00" x2="474.31" y2="27.00" stroke="#7f7f7f" stroke-width="1.00" clip-path="url('#clipping-rect1')" />
		<line x1="467.98" y1="29.00" x2="467.98" y2="26.00" stroke="#7f7f7f" stroke-width="1.00" clip-path="url('#clipping-rect1')" />
		<line x1="461.66" y1="29.00" x2="461.66" y2="27.00" stroke="#7f7f7f" stroke-width="1.00" clip-path="url('#clipping-rect1')" />
		<line x1="455.34" y1="29.00" x2="455.34" y2="27.00" stroke="#7f7f7f" stroke-width="1.00" clip-path="url('#clipping-rect1')" />
		<line x1="449.01" y1="29.00" x2="449.01" y2="27.00" stroke="#7f7f7f" stroke-width="1.00" clip-path="url('#clipping-rect1')" />
		<line x1="442.69" y1="29.00" x2="442.69" y2="27.00" stroke="#7f7f7f" stroke-width="1.00" clip-path="url('#clipping-rect1')" />
		<line x1="436.37" y1="29.00" x2="436.37" y2="26.00" stroke="#7f7f7f" stroke-width="1.00" clip-path="url('#clipping-rect1')" />
		<line x1="430.04" y1="29.00" x2="430.04" y2="27.00" stroke="#7f7f7f" stroke-width="1.00" clip-path="url('#clipping-rect1')" />
		<line x1="423.72" y1="29.00" x2="423.72" y2="27.00" stroke="#7f7f7f" stroke-width="1.00" clip-path="url('#clipping-rect1')" />
		<line x1="417.40" y1="29.00" x2="417.40" y2="27.00" stroke="#7f7f7f" stroke-width="1.00" clip-path="url('#clipping-rect1')" />
		<line x1="411.07" y1="29.00" x2="411.07" y2="27.00" stroke="#7f7f7f" stroke-width="1.00" clip-path="url('#clipping-rect1')" />
		<line x1="404.75" y1="29.00" x2="404.75" y2="26.00" stroke="#7f7f7f" stroke-width="1.00" clip-path="url('#clipping-rect1')" />
		<line x1="398.42" y1="29.00" x2="398.42" y2="27.00" stroke="#7f7f7f" stroke-width="1.00" clip-path="url('#clipping-rect1')" />
		<line x1="392.10" y1="29.00" x2="392.10" y2="27.00" stroke="#7f7f7f" stroke-width="1.00" clip-path="url('#clipping-rect1')" />
		<line x1="385.78" y1="29.00" x2="385.78" y2="27.00" stroke="#7f7f7f" stroke-width="1.00" clip-path="url('#clipping-rect1')" />
		<line x1="379.45" y1="29.00" x2="379.45" y2="27.00" stroke="#7f7f7f" stroke-width="1.00" clip-path="url('#clipping-rect1')" />
		<line x1="373.13" y1="29.00" x2="373.13" y2="26.00" stroke="#7f7f7f" stroke-width="1.00" clip-path="url('#clipping-rect1')" />
		<line x1="366.81" y1="29.00" x2="366.81" y2="27.00" stroke="#7f7f7f" stroke-width="1.00" clip-path="url('#clipping-rect1')" />
		<line x1="360.48" y1="29.00" x2="360.48" y2="27.00" stroke="#7f7f7f" stroke-width="1.00" clip-path="url('#clipping-rect1')" />
		<line x1="354.16" y1="29.00" x2="354.16" y2="27.00" stroke="#7f7f7f" stroke-width="1.00" clip-path="url('#clipping-rect1')" />
		<line x1="347.84" y1="29.00" x2="347.84" y2="27.00" stroke="#7f7f7f" stroke-width="1.00" clip-path="url('#clipping-rect1')" />
		<line x1="341.51" y1="29.00" x2="341.51" y2="26.00" stroke="#7f7f7f" stroke-width="1.00" clip-path="url('#clipping-rect1')" />
		<line x1="335.19" y1="29.00" x2="335.19" y2="27.00" stroke="#7f7f7f" stroke-width="1.00" clip-path="url('#clipping-rect1')" />
		<line x1="328.87" y1="29.00" x2="328.87" y2="27.00" stroke="#7f7f7f" stroke-width="1.00" clip-path="url('#clipping-rect1')" />
		<line x1="322.54" y1="29.00" x2="322.54" y2="27.00" stroke="#7f7f7f" stroke-width="1.00" clip-path="url('#clipping-rect1')" />
		<line x1="316.22" y1="29.00" x2="316.22" y2="27.00" stroke="#7f7f7f" stroke-width="1.00" clip-path="url('#clipping-rect1')" />
		<line x1="309.90" y1="29.00" x2="309.90" y2="26.00" stroke="#7f7f7f" stroke-width="1.00" clip-path="url('#clipping-rect1')" />
		<line x1="303.57" y1="29.00" x2="303.57" y2="27.00" stroke="#7f7f7f" stroke-width="1.00" clip-path="url('#clipping-rect1')" />
		<line x1="297.25" y1="29.00" x2="297.25" y2="27.00" stroke="#7f7f7f" stroke-width="1.00" clip-path="url('#clipping-rect1')" />
		<line x1="290.93" y1="29.00" x2="290.93" y2="27.00" stroke="#7f7f7f" stroke-width="1.00" clip-path="url('#clipping-rect1')" />
		<line x1="284.60" y1="29.00" x2="284.60" y2="27.00" stroke="#7f7f7f" stroke-width="1.00" clip-path="url('#clipping-rect1')" />
		<line x1="278.28" y1="29.00" x2="278.28" y2="26.00" stroke="#7f7f7f" stroke-width="1.00" clip-path="url('#clipping-rect1')" />
		<line x1="271.96" y1="29.00" x2="271.96" y2="27.00" stroke="#7f7f7f" stroke-width="1.00" clip-path="url('#clipping-rect1')" />
		<line x1="265.63" y1="29.00" x2="265.63" y2="27.00" stroke="#7f7f7f" stroke-width="1.00" clip-path="url('#clipping-rect1')" />
		<line x1="259.31" y1="29.00" x2="259.31" y2="27.00" stroke="#7f7f7f" stroke-width="1.00" clip-path="url('#clipping-rect1')" />
		<line x1="252.99" y1="29.00" x2="252.99" y2="27.00" stroke="#7f7f7f" stroke-width="1.00" clip-path="url('#clipping-rect1')" />
		<line x1="246.66" y1="29.00" x2="246.66" y2="26.00" stroke="#7f7f7f" stroke-width="1.00" clip-path="url('#clipping-rect1')" />
		<line x1="240.34" y1="29.00" x2="240.34" y2="27.00" stroke="#7f7f7f" stroke-width="1.00" clip-path="url('#clipping-rect1')" />
		<line x1="234.02" y1="29.00" x2="234.02" y2="27.00" stroke="#7f7f7f" stroke-width="1.00" clip-path="url('#clipping-rect1')" />
		<line x1="227.69" y1="29.00" x2="227.69" y2="27.00" stroke="#7f7f7f" stroke-width="1.00" clip-path="url('#clipping-rect1')" />
		<line x1="221.37" y1="29.00" x2="221.37" y2="27.00" stroke="#7f7f7f" stroke-width="1.00" clip-path="url('#clipping-rect1')" />
		<line x1="215.05" y1="29.00" x2="215.05" y2="26.00" stroke="#7f7f7f" stroke-width="1.00" clip-path="url('#clipping-rect1')" />
		<line x1="208.72" y1="29.00" x2="208.72" y2="27.00" stroke="#7f7f7f" stroke-width="1.00" clip-path="url('#clipping-rect1')" />
		<line x1="202.40" y1="29.00" x2="202.40" y2="27.00" stroke="#7f7f7f" stroke-width="1.00" clip-path="url('#clipping-rect1')" />
		<line x1="196.08" y1="29.00" x2="196.08" y2="27.00" stroke="#7f7f7f" stroke-width="1.00" clip-path="url('#clipping-rect1')" />
		<line x1="189.75" y1="29.00" x2="189.75" y2="27.00" stroke="#7f7f7f" stroke-width="1.00" clip-path="url('#clipping-rect1')" />
		<line x1="183.43" y1="29.00" x2="183.43" y2="26.00" stroke="#7f7f7f" stroke-width="1.00" clip-path="url('#clipping-rect1')" />
		<line x1="177.11" y1="29.00" x2="177.11" y2="27.00" stroke="#7f7f7f" stroke-width="1.00" clip-path="url('#clipping-rect1')" />
		<line x1="170.78" y1="29.00" x2="170.78" y2="27.00" stroke="#7f7f7f" stroke-width="1.00" clip-path="url('#clipping-rect1')" />
		<line x1="164.46" y1="29.00" x2="164.46" y2="27.00" stroke="#7f7f7f" stroke-width="1.00" clip-path="url('#clipping-rect1')" />
		<line x1="158.14" y1="29.00" x2="158.14" y2="27.00" stroke="#7f7f7f" stroke-width="1.00" clip-path="url('#clipping-rect1')" />
		<line x1="151.81" y1="29.00" x2="151.81" y2="26.00" stroke="#7f7f7f" stroke-width="1.00" clip-path="url('#clipping-rect1')" />
		<line x1="145.49" y1="29.00" x2="145.49" y2="27.00" stroke="#7f7f7f" stroke-width="1.00" clip-path="url('#clipping-rect1')" />
		<line x1="139.17" y1="29.00" x2="139.17" y2="27.00" stroke="#7f7f7f" stroke-width="1.00" clip-path="url('#clipping-rect1')" />
		<line x1="132.84" y1="29.00" x2="132.84" y2="27.00" stroke="#7f7f7f" stroke-width="1.00" clip-path="url('#clipping-rect1')" />
		<line x1="126.52" y1="29.00" x2="126.52" y2="27.00" stroke="#7f7f7f" stroke-width="1.00" clip-path="url('#clipping-rect1')" />
		<line x1="120.20" y1="29.00" x2="120.20" y2="26.00" stroke="#7f7f7f" stroke-width="1.00" clip-path="url('#clipping-rect1')" />
		<line x1="113.87" y1="29.00" x2="113.87" y2="27.00" stroke="#7f7f7f" stroke-width="1.00" clip-path="url('#clipping-rect1')" />
		<line x1="107.55" y1="29.00" x2="107.55" y2="27.00" stroke="#7f7f7f" stroke-width="1.00" clip-path="url('#clipping-rect1')" />
		<line x1="101.23" y1="29.00" x2="101.23" y2="27.00" stroke="#7f7f7f" stroke-width="1.00" clip-path="url('#clipping-rect1')" />
		<line x1="94.90" y1="29.00" x2="94.90" y2="27.00" stroke="#7f7f7f" stroke-width="1.00" clip-path="url('#clipping-rect1')" />
		<line x1="88.58" y1="29.00" x2="88.58" y2="26.00" stroke="#7f7f7f" stroke-width="1.00" clip-path="url('#clipping-rect1')" />
		<line x1="82.26" y1="29.00" x2="82.26" y2="27.00" stroke="#7f7f7f" stroke-width="1.00" clip-path="url('#clipping-rect1')" />
		<line x1="75.93" y1="29.00" x2="75.93" y2="27.00" stroke="#7f7f7f" stroke-width="1.00" clip-path="url('#clipping-rect1')" />
		<line x1="69.61" y1="29.00" x2="69.61" y2="27.00" stroke="#7f7f7f" stroke-width="1.00" clip-path="url('#clipping-rect1')" />
		<line x1="63.29" y1="29.00" x2="63.29" y2="27.00" stroke="#7f7f7f" stroke-width="1.00" clip-path="url('#clipping-rect1')" />
		<line x1="56.96" y1="29.00" x2="56.96" y2="26.00" stroke="#7f7f7f" stroke-width="1.00" clip-path="url('#clipping-rect1')" />
		<line x1="50.64" y1="29.00" x2="50.64" y2="27.00" stroke="#7f7f7f" stroke-width="1.00" clip-path="url('#clipping-rect1')" />
		<line x1="44.32" y1="29.00" x2="44.32" y2="27.00" stroke="#7f7f7f" stroke-width="1.00" clip-path="url('#clipping-rect1')" />
		<line x1="37.99" y1="29.00" x2="37.99" y2="27.00" stroke="#7f7f7f" stroke-width="1.00" clip-path="url('#clipping-rect1')" />
		<line x1="31.67" y1="29.00" x2="31.67" y2="27.00" stroke="#7f7f7f" stroke-width="1.00" clip-path="url('#clipping-rect1')" />
		<line x1="25.35" y1="29.00" x2="25.35" y2="26.00" stroke="#7f7f7f" stroke-width="1.00" clip-path="url('#clipping-rect1')" />
		<line x1="19.02" y1="29.00" x2="19.02" y2="27.00" stroke="#7f7f7f" stroke-width="1.00" clip-path="url('#clipping-rect1')" />
		<line x1="12.70" y1="29.00" x2="12.70" y2="27.00" stroke="#7f7f7f" stroke-width="1.00" clip-path="url('#clipping-rect1')" />
		<line x1="6.38" y1="29.00" x2="6.38" y2="27.00" stroke="#7f7f7f" stroke-width="1.00" clip-path="url('#clipping-rect1')" />
		<line x1="0.05" y1="29.00" x2="0.05" y2="27.00" stroke="#7f7f7f" stroke-width="1.00" clip-path="url('#clipping-rect1')" />
		<text x="876.55" y="24.00" font-family="Helvetica" font-size="10" fill="#333333" clip-path="url('#clipping-rect1')" >1</text>
		<line x1="879.00" y1="31.00" x2="879.00" y2="16.00" stroke="#7f7f7f" stroke-width="1.00" clip-path="url('#clipping-rect1')" />
		<text x="817.77" y="24.00" font-family="Helvetica" font-size="10" fill="#333333" clip-path="url('#clipping-rect1')" >20 K</text>
		<line x1="815.77" y1="31.00" x2="815.77" y2="16.00" stroke="#7f7f7f" stroke-width="1.00" clip-path="url('#clipping-rect1')" />
		<text x="754.53" y="24.00" font-family="Helvetica" font-size="10" fill="#333333" clip-path="url('#clipping-rect1')" >40 K</text>
		<line x1="752.53" y1="31.00" x2="752.53" y2="16.00" stroke="#7f7f7f" stroke-width="1.00" clip-path="url('#clipping-rect1')" />
		<text x="691.30" y="24.00" font-family="Helvetica" font-size="10" fill="#333333" clip-path="url('#clipping-rect1')" >60 K</text>
		<line x1="689.30" y1="31.00" x2="689.30" y2="16.00" stroke="#7f7f7f" stroke-width="1.00" clip-path="url('#clipping-rect1')" />
		<text x="628.07" y="24.00" font-family="Helvetica" font-size="10" fill="#333333" clip-path="url('#clipping-rect1')" >80 K</text>
		<line x1="626.07" y1="31.00" x2="626.07" y2="16.00" stroke="#7f7f7f" stroke-width="1.00" clip-path="url('#clipping-rect1')" />
		<text x="564.83" y="24.00" font-family="Helvetica" font-size="10" fill="#333333" clip-path="url('#clipping-rect1')" >100 K</text>
		<line x1="562.83" y1="31.00" x2="562.83" y2="16.00" stroke="#7f7f7f" stroke-width="1.00" clip-path="url('#clipping-rect1')" />
		<text x="501.60" y="24.00" font-family="Helvetica" font-size="10" fill="#333333" clip-path="url('#clipping-rect1')" >120 K</text>
		<line x1="499.60" y1="31.00" x2="499.60" y2="16.00" stroke="#7f7f7f" stroke-width="1.00" clip-path="url('#clipping-rect1')" />
		<text x="438.37" y="24.00" font-family="Helvetica" font-size="10" fill="#333333" clip-path="url('#clipping-rect1')" >140 K</text>
		<line x1="436.37" y1="31.00" x2="436.37" y2="16.00" stroke="#7f7f7f" stroke-width="1.00" clip-path="url('#clipping-rect1')" />
		<text x="375.13" y="24.00" font-family="Helvetica" font-size="10" fill="#333333" clip-path="url('#clipping-rect1')" >160 K</text>
		<line x1="373.13" y1="31.00" x2="373.13" y2="16.00" stroke="#7f7f7f" stroke-width="1.00" clip-path="url('#clipping-rect1')" />
		<text x="311.90" y="24.00" font-family="Helvetica" font-size="10" fill="#333333" clip-path="url('#clipping-rect1')" >180 K</text>
		<line x1="309.90" y1="31.00" x2="309.90" y2="16.00" stroke="#7f7f7f" stroke-width="1.00" clip-path="url('#clipping-rect1')" />
		<text x="248.66" y="24.00" font-family="Helvetica" font-size="10" fill="#333333" clip-path="url('#clipping-rect1')" >200 K</text>
		<line x1="246.66" y1="31.00" x2="246.66" y2="16.00" stroke="#7f7f7f" stroke-width="1.00" clip-path="url('#clipping-rect1')" />
		<text x="185.43" y="24.00" font-family="Helvetica" font-size="10" fill="#333333" clip-path="url('#clipping-rect1')" >220 K</text>
		<line x1="183.43" y1="31.00" x2="183.43" y2="16.00" stroke="#7f7f7f" stroke-width="1.00" clip-path="url('#clipping-rect1')" />
		<text x="122.20" y="24.00" font-family="Helvetica" font-size="10" fill="#333333" clip-path="url('#clipping-rect1')" >240 K</text>
		<line x1="120.20" y1="31.00" x2="120.20" y2="16.00" stroke="#7f7f7f" stroke-width="1.00" clip-path="url('#clipping-rect1')" />
		<text x="58.96" y="24.00" font-family="Helvetica" font-size="10" fill="#333333" clip-path="url('#clipping-rect1')" >260 K</text>
		<line x1="56.96" y1="31.00" x2="56.96" y2="16.00" stroke="#7f7f7f" stroke-width="1.00" clip-path="url('#clipping-rect1')" />
		<line x1="879.00" y1="358.00" x2="879.00" y2="31.00" stroke="#ebebeb" stroke-width="1.00" />
		<line x1="815.93" y1="358.00" x2="815.93" y2="31.00" stroke="#ebebeb" stroke-width="1.00" />
		<line x1="752.86" y1="358.00" x2="752.86" y2="31.00" stroke="#ebebeb" stroke-width="1.00" />
		<line x1="689.78" y1="358.00" x2="689.78" y2="31.00" stroke="#ebebeb" stroke-width="1.00" />
		<line x1="626.71" y1="358.00" x2="626.71" y2="31.00" stroke="#ebebeb" stroke-width="1.00" />
		<line x1="562.64" y1="358.00" x2="562.64" y2="31.00" stroke="#ebebeb" stroke-width="1.00" />
		<line x1="499.57" y1="358.00" x2="499.57" y2="31.00" stroke="#ebebeb" stroke-width="1.00" />
		<line x1="436.50" y1="358.00" x2="436.50" y2="31.00" stroke="#ebebeb" stroke-width="1.00" />
		<line x1="373.42" y1="358.00" x2="373.42" y2="31.00" stroke="#ebebeb" stroke-width="1.00" />
		<line x1="309.35" y1="358.00" x2="309.35" y2="31.00" stroke="#ebebeb" stroke-width="1.00" />
		<line x1="246.28" y1="358.00" x2="246.28" y2="31.00" stroke="#ebebeb" stroke-width="1.00" />
		<line x1="183.21" y1="358.00" x2="183.21" y2="31.00" stroke="#ebebeb" stroke-width="1.00" />
		<line x1="120.14" y1="358.00" x2="120.14" y2="31.00" stroke="#ebebeb" stroke-width="1.00" />
		<line x1="56.06" y1="358.00" x2="56.06" y2="31.00" stroke="#ebebeb" stroke-width="1.00" />
		<polygon fill="url('#gradient1')" shape-rendering="crispEdges" points="0.00,37.50 0.00,33.00 879.00,33.00 879.00,37.50 879.00,42.00 0.00,42.00 " />
		<line x1="879.00" y1="42.00" x2="879.00" y2="33.00" stroke="#6c6c6c" stroke-width="1.00" stroke-linejoin="round" />
		<line x1="879.00" y1="33.00" x2="0.00" y2="33.00" stroke="#6c6c6c" stroke-width="1.00" stroke-linejoin="round" />
		<line x1="0.00" y1="33.00" x2="0.00" y2="42.00" stroke="#6c6c6c" stroke-width="1.00" stroke-linejoin="round" />
		<line x1="879.00" y1="42.00" x2="0.00" y2="42.00" stroke="#6c6c6c" stroke-width="1.00" stroke-linejoin="round" />
		<polygon fill="url('#gradient2')" shape-rendering="crispEdges" points="0.00,58.00 879.00,58.00 879.00,44.00 0.00,44.00 " clip-path="url('#clipping-rect2')" />
		<text x="0.00" y="54.00" font-family="Helvetica" font-size="12" fill="#333333" >(U) Alignment for group templates, BLAST Results for: NM_001052:Homo sapiens somatostatin receptor...</text>
		<polygon fill="url('#gradient2')" shape-rendering="crispEdges" points="0.00,74.00 879.00,74.00 879.00,60.00 0.00,60.00 " clip-path="url('#clipping-rect2')" />
		<text x="0.00" y="70.00" font-family="Helvetica" font-size="12" fill="#333333" >(U) BLAST Results for: NM_001052:Homo sapiens somatostatin receptor...</text>
		<polygon fill="url('#gradient2')" shape-rendering="crispEdges" points="0.00,90.00 879.00,90.00 879.00,76.00 0.00,76.00 " clip-path="url('#clipping-rect2')" />
		<text x="0.00" y="86.00" font-family="Helvetica" font-size="12" fill="#333333" >(U) Alignment for group templates, BLAST Results for: NM_004594:Homo sapiens solute carrier family...</text>
		<polygon fill="url('#gradient2')" shape-rendering="crispEdges" points="0.00,106.00 879.00,106.00 879.00,92.00 0.00,92.00 " clip-path="url('#clipping-rect2')" />
		<text x="0.00" y="102.00" font-family="Helvetica" font-size="12" fill="#333333" >(U) BLAST Results for: NM_004594:Homo sapiens solute carrier family...</text>
		<polygon fill="#c6c6c6" shape-rendering="crispEdges" points="825.52,125.00 825.52,135.00 827.19,135.00 827.19,125.00 " />
		<polygon fill="url('#gradient2')" shape-rendering="crispEdges" points="0.00,122.00 879.00,122.00 879.00,108.00 0.00,108.00 " clip-path="url('#clipping-rect2')" />
		<text x="0.00" y="118.00" font-family="Helvetica" font-size="12" fill="#333333" >(U) Alignment for group templates, BLAST Results for: ref|NM_004727.3|  </text>
		<polygon fill="#e16868" shape-rendering="crispEdges" points="825.52,155.00 825.52,165.00 827.19,165.00 827.19,155.00 " />
		<polygon fill="url('#gradient2')" shape-rendering="crispEdges" points="0.00,152.00 879.00,152.00 879.00,138.00 0.00,138.00 " clip-path="url('#clipping-rect2')" />
		<text x="0.00" y="148.00" font-family="Helvetica" font-size="12" fill="#333333" >(U) BLAST Results for: ref|NM_004727.3|  </text>
		<polygon fill="url('#gradient2')" shape-rendering="crispEdges" points="0.00,182.00 879.00,182.00 879.00,168.00 0.00,168.00 " clip-path="url('#clipping-rect2')" />
		<text x="0.00" y="178.00" font-family="Helvetica" font-size="12" fill="#333333" >(U) Alignment for group templates, BLAST Results for: ref|NM_014743.3|  </text>
		<polygon fill="url('#gradient2')" shape-rendering="crispEdges" points="0.00,198.00 879.00,198.00 879.00,184.00 0.00,184.00 " clip-path="url('#clipping-rect2')" />
		<text x="0.00" y="194.00" font-family="Helvetica" font-size="12" fill="#333333" >(U) BLAST Results for: ref|NM_014743.3|  </text>
		<polygon fill="url('#gradient2')" shape-rendering="crispEdges" points="0.00,214.00 879.00,214.00 879.00,200.00 0.00,200.00 " clip-path="url('#clipping-rect2')" />
		<text x="0.00" y="210.00" font-family="Helvetica" font-size="12" fill="#333333" >(U) Alignment for group templates, BLAST Results for: NM_001362481:Homo sapiens centromere protein...</text>
		<polygon fill="url('#gradient2')" shape-rendering="crispEdges" points="0.00,230.00 879.00,230.00 879.00,216.00 0.00,216.00 " clip-path="url('#clipping-rect2')" />
		<text x="0.00" y="226.00" font-family="Helvetica" font-size="12" fill="#333333" >(U) BLAST Results for: NM_001362481:Homo sapiens centromere protein...</text>
		<line x1="879.00" y1="317.00" x2="879.00" y2="354.00" stroke="#009900" stroke-opacity="0.10" stroke-width="1.00" stroke-linejoin="round" />
		<line x1="879.00" y1="354.00" x2="601.95" y2="354.00" stroke="#009900" stroke-opacity="0.10" stroke-width="1.00" stroke-linejoin="round" />
		<line x1="601.95" y1="354.00" x2="601.95" y2="317.00" stroke="#009900" stroke-opacity="0.10" stroke-width="1.00" stroke-linejoin="round" />
		<line x1="879.00" y1="317.00" x2="601.95" y2="317.00" stroke="#009900" stroke-opacity="0.10" stroke-width="1.00" stroke-linejoin="round" />
		<text x="700.72" y="326.00" font-family="Helvetica" font-size="10" fill="#124d94" >ENSSPUG00000009616</text>
		<polygon fill="#ffffff" shape-rendering="crispEdges" points="760.23,337.50 760.23,326.50 878.00,326.50 878.00,337.50 " />
		<text x="764.23" y="339.00" font-family="Helvetica" font-size="10" fill="#124d94" >ENSSPUT00000013357.1</text>
		<polygon fill="#1e8c1e" shape-rendering="crispEdges" points="786.62,341.00 786.62,352.00 787.62,352.00 787.62,341.00 " />
		<line x1="786.77" y1="346.50" x2="776.41" y2="346.50" stroke="#4ba34b" stroke-width="2.00" />
		<polygon fill="#1e8c1e" shape-rendering="crispEdges" points="775.74,341.00 775.74,352.00 776.74,352.00 776.74,341.00 " />
		<line x1="776.06" y1="346.50" x2="763.14" y2="346.50" stroke="#4ba34b" stroke-width="2.00" />
		<polygon fill="#1e8c1e" shape-rendering="crispEdges" points="762.39,341.00 762.39,352.00 763.39,352.00 763.39,341.00 " />
		<line x1="762.64" y1="346.50" x2="752.75" y2="346.50" stroke="#4ba34b" stroke-width="2.00" />
		<polygon fill="#1e8c1e" shape-rendering="crispEdges" points="752.06,341.00 752.06,352.00 753.06,352.00 753.06,341.00 " />
		<line x1="752.37" y1="346.50" x2="750.07" y2="346.50" stroke="#4ba34b" stroke-width="2.00" />
		<polygon fill="#1e8c1e" shape-rendering="crispEdges" points="749.34,341.00 749.34,352.00 750.34,352.00 750.34,341.00 " />
		<line x1="749.62" y1="346.50" x2="736.73" y2="346.50" stroke="#4ba34b" stroke-width="2.00" />
		<polygon fill="#1e8c1e" shape-rendering="crispEdges" points="736.08,341.00 736.08,352.00 737.08,352.00 737.08,341.00 " />
		<line x1="736.44" y1="346.50" x2="732.78" y2="346.50" stroke="#4ba34b" stroke-width="2.00" />
		<polygon fill="#1e8c1e" shape-rendering="crispEdges" points="732.06,341.00 732.06,352.00 733.06,352.00 733.06,341.00 " />
		<line x1="732.33" y1="346.50" x2="730.90" y2="346.50" stroke="#4ba34b" stroke-width="2.00" />
		<polygon fill="#1e8c1e" shape-rendering="crispEdges" points="730.19,341.00 730.19,352.00 731.19,352.00 731.19,341.00 " />
		<line x1="730.48" y1="346.50" x2="730.20" y2="346.50" stroke="#4ba34b" stroke-width="2.00" />
		<polygon fill="#1e8c1e" shape-rendering="crispEdges" points="729.51,341.00 729.51,352.00 730.51,352.00 730.51,341.00 " />
		<line x1="729.82" y1="346.50" x2="726.73" y2="346.50" stroke="#4ba34b" stroke-width="2.00" />
		<polygon fill="#1e8c1e" shape-rendering="crispEdges" points="726.13,341.00 726.13,352.00 727.13,352.00 727.13,341.00 " />
		<line x1="726.52" y1="346.50" x2="724.07" y2="346.50" stroke="#4ba34b" stroke-width="2.00" />
		<polygon fill="#1e8c1e" shape-rendering="crispEdges" points="723.18,341.00 723.18,352.00 724.18,352.00 724.18,341.00 " />
		<polygon fill="#ffffff" shape-rendering="crispEdges" points="603.95,352.00 603.95,341.00 719.28,341.00 719.28,352.00 " />
		<text x="604.95" y="350.00" font-family="Helvetica" font-size="10" fill="#124d94" >ENSSPUP00000012532.1</text>
		<line x1="834.25" y1="284.00" x2="834.25" y2="312.00" stroke="#009900" stroke-opacity="0.10" stroke-width="1.00" stroke-linejoin="round" />
		<line x1="834.25" y1="312.00" x2="494.52" y2="312.00" stroke="#009900" stroke-opacity="0.10" stroke-width="1.00" stroke-linejoin="round" />
		<line x1="494.52" y1="312.00" x2="494.52" y2="284.00" stroke="#009900" stroke-opacity="0.10" stroke-width="1.00" stroke-linejoin="round" />
		<line x1="834.25" y1="284.00" x2="494.52" y2="284.00" stroke="#009900" stroke-opacity="0.10" stroke-width="1.00" stroke-linejoin="round" />
		<text x="610.01" y="293.00" font-family="Helvetica" font-size="10" fill="#124d94" >ENSSPUG00000009636</text>
		<polygon fill="#a5d1a5" shape-rendering="crispEdges" points="712.21,299.00 712.21,310.00 713.21,310.00 713.21,299.00 " />
		<polygon fill="#1e8c1e" shape-rendering="crispEdges" points="711.87,299.00 711.87,310.00 712.87,310.00 712.87,299.00 " />
		<line x1="712.25" y1="304.50" x2="707.77" y2="304.50" stroke="#4ba34b" stroke-width="2.00" />
		<polygon fill="#1e8c1e" shape-rendering="crispEdges" points="707.06,299.00 707.06,310.00 708.06,310.00 708.06,299.00 " />
		<line x1="707.36" y1="304.50" x2="700.47" y2="304.50" stroke="#4ba34b" stroke-width="2.00" />
		<polygon fill="#1e8c1e" shape-rendering="crispEdges" points="699.80,299.00 699.80,310.00 700.80,310.00 700.80,299.00 " />
		<line x1="700.13" y1="304.50" x2="697.47" y2="304.50" stroke="#4ba34b" stroke-width="2.00" />
		<polygon fill="#1e8c1e" shape-rendering="crispEdges" points="696.80,299.00 696.80,310.00 697.80,310.00 697.80,299.00 " />
		<line x1="697.12" y1="304.50" x2="691.02" y2="304.50" stroke="#4ba34b" stroke-width="2.00" />
		<polygon fill="#1e8c1e" shape-rendering="crispEdges" points="690.32,299.00 690.32,310.00 691.32,310.00 691.32,299.00 " />
		<line x1="690.62" y1="304.50" x2="682.17" y2="304.50" stroke="#4ba34b" stroke-width="2.00" />
		<polygon fill="#1e8c1e" shape-rendering="crispEdges" points="681.50,299.00 681.50,310.00 682.50,310.00 682.50,299.00 " />
		<line x1="681.82" y1="304.50" x2="675.86" y2="304.50" stroke="#4ba34b" stroke-width="2.00" />
		<polygon fill="#1e8c1e" shape-rendering="crispEdges" points="675.28,299.00 675.28,310.00 676.28,310.00 676.28,299.00 " />
		<line x1="675.70" y1="304.50" x2="668.80" y2="304.50" stroke="#4ba34b" stroke-width="2.00" />
		<polygon fill="#1e8c1e" shape-rendering="crispEdges" points="668.04,299.00 668.04,310.00 669.04,310.00 669.04,299.00 " />
		<line x1="668.28" y1="304.50" x2="628.75" y2="304.50" stroke="#4ba34b" stroke-width="2.00" />
		<polygon fill="#b2b2b2" shape-rendering="crispEdges" points="652.92,304.50 644.12,300.10 646.32,304.50 644.12,308.90 " />
		<polygon fill="#1e8c1e" shape-rendering="crispEdges" points="628.14,299.00 628.14,310.00 629.14,310.00 629.14,299.00 " />
		<line x1="628.52" y1="304.50" x2="621.01" y2="304.50" stroke="#4ba34b" stroke-width="2.00" />
		<polygon fill="#1e8c1e" shape-rendering="crispEdges" points="620.44,299.00 620.44,310.00 621.44,310.00 621.44,299.00 " />
		<line x1="620.87" y1="304.50" x2="615.82" y2="304.50" stroke="#4ba34b" stroke-width="2.00" />
		<polygon fill="#1e8c1e" shape-rendering="crispEdges" points="615.19,299.00 615.19,310.00 616.19,310.00 616.19,299.00 " />
		<polygon fill="#a5d1a5" shape-rendering="crispEdges" points="614.92,299.00 614.92,310.00 615.92,310.00 615.92,299.00 " />
		<polygon fill="#ffffff" shape-rendering="crispEdges" points="712.92,310.00 712.92,299.00 831.25,299.00 831.25,310.00 " />
		<text x="716.92" y="308.00" font-family="Helvetica" font-size="10" fill="#124d94" >ENSSPUP00000012550.1</text>
		<polygon fill="#ffffff" shape-rendering="crispEdges" points="496.52,310.00 496.52,299.00 611.29,299.00 611.29,310.00 " />
		<text x="497.52" y="308.00" font-family="Helvetica" font-size="10" fill="#124d94" >ENSSPUT00000013376.1</text>
		<line x1="717.35" y1="251.00" x2="717.35" y2="279.00" stroke="#009900" stroke-opacity="0.10" stroke-width="1.00" stroke-linejoin="round" />
		<line x1="717.35" y1="279.00" x2="341.10" y2="279.00" stroke="#009900" stroke-opacity="0.10" stroke-width="1.00" stroke-linejoin="round" />
		<line x1="341.10" y1="279.00" x2="341.10" y2="251.00" stroke="#009900" stroke-opacity="0.10" stroke-width="1.00" stroke-linejoin="round" />
		<line x1="717.35" y1="251.00" x2="341.10" y2="251.00" stroke="#009900" stroke-opacity="0.10" stroke-width="1.00" stroke-linejoin="round" />
		<text x="474.81" y="260.00" font-family="Helvetica" font-size="10" fill="#124d94" >ENSSPUG00000009654</text>
		<polygon fill="#a5d1a5" shape-rendering="crispEdges" points="595.88,266.00 595.88,277.00 596.88,277.00 596.88,266.00 " />
		<line x1="596.18" y1="271.50" x2="585.64" y2="271.50" stroke="#4ba34b" stroke-width="2.00" />
		<polygon fill="#a5d1a5" shape-rendering="crispEdges" points="585.13,266.00 585.13,277.00 586.13,277.00 586.13,266.00 " />
		<polygon fill="#1e8c1e" shape-rendering="crispEdges" points="584.70,266.00 584.70,277.00 585.70,277.00 585.70,266.00 " />
		<line x1="584.79" y1="271.50" x2="581.87" y2="271.50" stroke="#4ba34b" stroke-width="2.00" />
		<polygon fill="#1e8c1e" shape-rendering="crispEdges" points="581.20,266.00 581.20,277.00 582.20,277.00 582.20,266.00 " />
		<line x1="581.52" y1="271.50" x2="573.16" y2="271.50" stroke="#4ba34b" stroke-width="2.00" />
		<polygon fill="#1e8c1e" shape-rendering="crispEdges" points="572.39,266.00 572.39,277.00 573.39,277.00 573.39,266.00 " />
		<line x1="572.61" y1="271.50" x2="567.80" y2="271.50" stroke="#4ba34b" stroke-width="2.00" />
		<polygon fill="#1e8c1e" shape-rendering="crispEdges" points="567.03,266.00 567.03,277.00 568.03,277.00 568.03,266.00 " />
		<line x1="567.26" y1="271.50" x2="561.84" y2="271.50" stroke="#4ba34b" stroke-width="2.00" />
		<polygon fill="#1e8c1e" shape-rendering="crispEdges" points="561.16,266.00 561.16,277.00 562.16,277.00 562.16,266.00 " />
		<line x1="561.48" y1="271.50" x2="558.41" y2="271.50" stroke="#4ba34b" stroke-width="2.00" />
		<polygon fill="#1e8c1e" shape-rendering="crispEdges" points="557.70,266.00 557.70,277.00 558.70,277.00 558.70,266.00 " />
		<line x1="558.00" y1="271.50" x2="554.25" y2="271.50" stroke="#4ba34b" stroke-width="2.00" />
		<polygon fill="#1e8c1e" shape-rendering="crispEdges" points="553.66,266.00 553.66,277.00 554.66,277.00 554.66,266.00 " />
		<line x1="554.06" y1="271.50" x2="551.61" y2="271.50" stroke="#4ba34b" stroke-width="2.00" />
		<polygon fill="#1e8c1e" shape-rendering="crispEdges" points="550.95,266.00 550.95,277.00 551.95,277.00 551.95,266.00 " />
		<line x1="551.29" y1="271.50" x2="546.78" y2="271.50" stroke="#4ba34b" stroke-width="2.00" />
		<polygon fill="#1e8c1e" shape-rendering="crispEdges" points="546.00,266.00 546.00,277.00 547.00,277.00 547.00,266.00 " />
		<line x1="546.22" y1="271.50" x2="517.13" y2="271.50" stroke="#4ba34b" stroke-width="2.00" />
		<polygon fill="#b2b2b2" shape-rendering="crispEdges" points="527.27,271.50 536.07,267.10 533.87,271.50 536.07,275.90 " />
		<polygon fill="#1e8c1e" shape-rendering="crispEdges" points="516.37,266.00 516.37,277.00 517.37,277.00 517.37,266.00 " />
		<line x1="516.62" y1="271.50" x2="511.14" y2="271.50" stroke="#4ba34b" stroke-width="2.00" />
		<polygon fill="#1e8c1e" shape-rendering="crispEdges" points="510.52,266.00 510.52,277.00 511.52,277.00 511.52,266.00 " />
		<line x1="510.89" y1="271.50" x2="508.21" y2="271.50" stroke="#4ba34b" stroke-width="2.00" />
		<polygon fill="#1e8c1e" shape-rendering="crispEdges" points="507.47,266.00 507.47,277.00 508.47,277.00 508.47,266.00 " />
		<line x1="507.73" y1="271.50" x2="505.05" y2="271.50" stroke="#4ba34b" stroke-width="2.00" />
		<polygon fill="#1e8c1e" shape-rendering="crispEdges" points="504.33,266.00 504.33,277.00 505.33,277.00 505.33,266.00 " />
		<line x1="504.62" y1="271.50" x2="496.70" y2="271.50" stroke="#4ba34b" stroke-width="2.00" />
		<polygon fill="#1e8c1e" shape-rendering="crispEdges" points="495.97,266.00 495.97,277.00 496.97,277.00 496.97,266.00 " />
		<line x1="496.24" y1="271.50" x2="490.23" y2="271.50" stroke="#4ba34b" stroke-width="2.00" />
		<polygon fill="#1e8c1e" shape-rendering="crispEdges" points="489.49,266.00 489.49,277.00 490.49,277.00 490.49,266.00 " />
		<line x1="489.76" y1="271.50" x2="486.44" y2="271.50" stroke="#4ba34b" stroke-width="2.00" />
		<polygon fill="#1e8c1e" shape-rendering="crispEdges" points="485.70,266.00 485.70,277.00 486.70,277.00 486.70,266.00 " />
		<line x1="485.96" y1="271.50" x2="475.00" y2="271.50" stroke="#4ba34b" stroke-width="2.00" />
		<polygon fill="#1e8c1e" shape-rendering="crispEdges" points="474.28,266.00 474.28,277.00 475.28,277.00 475.28,266.00 " />
		<line x1="474.55" y1="271.50" x2="471.22" y2="271.50" stroke="#4ba34b" stroke-width="2.00" />
		<polygon fill="#1e8c1e" shape-rendering="crispEdges" points="470.55,266.00 470.55,277.00 471.55,277.00 471.55,266.00 " />
		<line x1="470.87" y1="271.50" x2="463.22" y2="271.50" stroke="#4ba34b" stroke-width="2.00" />
		<polygon fill="#1e8c1e" shape-rendering="crispEdges" points="462.52,266.00 462.52,277.00 463.52,277.00 463.52,266.00 " />
		<polygon fill="#a5d1a5" shape-rendering="crispEdges" points="462.12,266.00 462.12,277.00 463.12,277.00 463.12,266.00 " />
		<polygon fill="#ffffff" shape-rendering="crispEdges" points="596.58,277.00 596.58,266.00 714.35,266.00 714.35,277.00 " />
		<text x="600.58" y="275.00" font-family="Helvetica" font-size="10" fill="#124d94" >ENSSPUT00000013402.1</text>
		<polygon fill="#ffffff" shape-rendering="crispEdges" points="343.10,277.00 343.10,266.00 458.43,266.00 458.43,277.00 " />
		<text x="344.10" y="275.00" font-family="Helvetica" font-size="10" fill="#124d94" >ENSSPUP00000012574.1</text>
		<polygon fill="url('#gradient3')" shape-rendering="crispEdges" points="0.00,246.00 879.00,246.00 879.00,232.00 0.00,232.00 " clip-path="url('#clipping-rect2')" />
		<text x="0.00" y="242.00" font-family="Helvetica" font-size="12" fill="#333333" >Genes, Ensembl release 114</text>
		<polygon fill="#0000ff" fill-opacity="0.20" shape-rendering="crispEdges" points="-2049.50,31.50 -2049.50,23.10 -2049.50,23.10 " />
		<polygon fill="#0000ff" fill-opacity="0.20" shape-rendering="crispEdges" points="-2049.50,31.50 -2049.50,31.50 -2049.50,23.10 " />
		<line x1="-2049.50" y1="30.50" x2="-2049.50" y2="23.10" stroke="#0000ff" stroke-opacity="0.40" stroke-width="1.00" />
		<line x1="-2049.50" y1="30.50" x2="-2049.50" y2="23.10" stroke="#0000ff" stroke-opacity="0.40" stroke-width="1.00" />
		<polygon fill="#0000ff" shape-rendering="crispEdges" points="-2055.21,22.35 -2055.50,20.50 -2055.21,18.65 -2054.35,16.97 -2053.03,15.65 -2051.35,14.79 -2049.50,14.50 -2049.50,26.50 -2051.35,26.21 -2053.03,25.35 -2054.35,24.03 " />
		<polygon fill="#0000ff" fill-opacity="0.60" shape-rendering="crispEdges" points="-2007.72,26.50 -2007.72,14.50 -2049.50,14.50 -2049.50,26.50 " />
		<text x="-2047.50" y="23.50" font-family="Helvetica" font-size="10" fill="#ffffff" >GNRHR</text>
		<polygon fill="#0000ff" fill-opacity="0.20" shape-rendering="crispEdges" points="-2052.33,359.00 -2052.33,31.00 -2052.33,31.00 " />
		<polygon fill="#0000ff" fill-opacity="0.20" shape-rendering="crispEdges" points="-2052.33,359.00 -2052.33,359.00 -2052.33,31.00 " />
		<line x1="-2052.33" y1="358.00" x2="-2052.33" y2="31.00" stroke="#0000ff" stroke-opacity="0.40" stroke-width="1.00" />
		<line x1="-2052.33" y1="358.00" x2="-2052.33" y2="31.00" stroke="#0000ff" stroke-opacity="0.40" stroke-width="1.00" />
		<polygon fill="#0000ff" fill-opacity="0.20" shape-rendering="crispEdges" points="755.50,31.50 755.50,23.10 755.50,23.10 " />
		<polygon fill="#0000ff" fill-opacity="0.20" shape-rendering="crispEdges" points="755.50,31.50 755.50,31.50 755.50,23.10 " />
		<line x1="755.50" y1="30.50" x2="755.50" y2="23.10" stroke="#0000ff" stroke-opacity="0.40" stroke-width="1.00" />
		<line x1="755.50" y1="30.50" x2="755.50" y2="23.10" stroke="#0000ff" stroke-opacity="0.40" stroke-width="1.00" />
		<polygon fill="#0000ff" shape-rendering="crispEdges" points="749.79,22.35 749.50,20.50 749.79,18.65 750.65,16.97 751.97,15.65 753.65,14.79 755.50,14.50 755.50,26.50 753.65,26.21 751.97,25.35 750.65,24.03 " />
		<polygon fill="#0000ff" fill-opacity="0.60" shape-rendering="crispEdges" points="788.41,26.50 788.41,14.50 755.50,14.50 755.50,26.50 " />
		<text x="757.50" y="23.50" font-family="Helvetica" font-size="10" fill="#ffffff" >INTS6</text>
		<polygon fill="#0000ff" fill-opacity="0.20" shape-rendering="crispEdges" points="755.86,359.00 755.86,31.00 755.86,31.00 " />
		<polygon fill="#0000ff" fill-opacity="0.20" shape-rendering="crispEdges" points="755.86,359.00 755.86,359.00 755.86,31.00 " />
		<line x1="755.86" y1="358.00" x2="755.86" y2="31.00" stroke="#0000ff" stroke-opacity="0.40" stroke-width="1.00" />
		<line x1="755.86" y1="358.00" x2="755.86" y2="31.00" stroke="#0000ff" stroke-opacity="0.40" stroke-width="1.00" />
		<polygon fill="#0000ff" fill-opacity="0.20" shape-rendering="crispEdges" points="666.50,31.50 666.50,23.10 666.50,23.10 " />
		<polygon fill="#0000ff" fill-opacity="0.20" shape-rendering="crispEdges" points="666.50,31.50 666.50,31.50 666.50,23.10 " />
		<line x1="666.50" y1="30.50" x2="666.50" y2="23.10" stroke="#0000ff" stroke-opacity="0.40" stroke-width="1.00" />
		<line x1="666.50" y1="30.50" x2="666.50" y2="23.10" stroke="#0000ff" stroke-opacity="0.40" stroke-width="1.00" />
		<polygon fill="#0000ff" shape-rendering="crispEdges" points="660.79,22.35 660.50,20.50 660.79,18.65 661.65,16.97 662.97,15.65 664.65,14.79 666.50,14.50 666.50,26.50 664.65,26.21 662.97,25.35 661.65,24.03 " />
		<polygon fill="#0000ff" fill-opacity="0.60" shape-rendering="crispEdges" points="705.06,26.50 705.06,14.50 666.50,14.50 666.50,26.50 " />
		<text x="668.50" y="23.50" font-family="Helvetica" font-size="10" fill="#ffffff" >HACD3</text>
		<polygon fill="#0000ff" fill-opacity="0.20" shape-rendering="crispEdges" points="666.76,359.00 666.76,31.00 666.76,31.00 " />
		<polygon fill="#0000ff" fill-opacity="0.20" shape-rendering="crispEdges" points="666.76,359.00 666.76,359.00 666.76,31.00 " />
		<line x1="666.76" y1="358.00" x2="666.76" y2="31.00" stroke="#0000ff" stroke-opacity="0.40" stroke-width="1.00" />
		<line x1="666.76" y1="358.00" x2="666.76" y2="31.00" stroke="#0000ff" stroke-opacity="0.40" stroke-width="1.00" />
		<polygon fill="#0000ff" fill-opacity="0.20" shape-rendering="crispEdges" points="541.50,31.50 541.50,23.10 541.50,23.10 " />
		<polygon fill="#0000ff" fill-opacity="0.20" shape-rendering="crispEdges" points="541.50,31.50 541.50,31.50 541.50,23.10 " />
		<line x1="541.50" y1="30.50" x2="541.50" y2="23.10" stroke="#0000ff" stroke-opacity="0.40" stroke-width="1.00" />
		<line x1="541.50" y1="30.50" x2="541.50" y2="23.10" stroke="#0000ff" stroke-opacity="0.40" stroke-width="1.00" />
		<polygon fill="#0000ff" shape-rendering="crispEdges" points="535.79,22.35 535.50,20.50 535.79,18.65 536.65,16.97 537.97,15.65 539.65,14.79 541.50,14.50 541.50,26.50 539.65,26.21 537.97,25.35 536.65,24.03 " />
		<polygon fill="#0000ff" fill-opacity="0.60" shape-rendering="crispEdges" points="572.30,26.50 572.30,14.50 541.50,14.50 541.50,26.50 " />
		<text x="543.50" y="23.50" font-family="Helvetica" font-size="10" fill="#ffffff" >DPP8</text>
		<polygon fill="#0000ff" fill-opacity="0.20" shape-rendering="crispEdges" points="541.62,359.00 541.62,31.00 541.62,31.00 " />
		<polygon fill="#0000ff" fill-opacity="0.20" shape-rendering="crispEdges" points="541.62,359.00 541.62,359.00 541.62,31.00 " />
		<line x1="541.62" y1="358.00" x2="541.62" y2="31.00" stroke="#0000ff" stroke-opacity="0.40" stroke-width="1.00" />
		<line x1="541.62" y1="358.00" x2="541.62" y2="31.00" stroke="#0000ff" stroke-opacity="0.40" stroke-width="1.00" />
		<polygon fill="#0000ff" fill-opacity="0.20" shape-rendering="crispEdges" points="829.50,23.10 829.50,31.50 823.50,31.50 823.50,23.10 " />
		<line x1="823.50" y1="30.50" x2="823.50" y2="23.10" stroke="#0000ff" stroke-opacity="0.40" stroke-width="1.00" />
		<line x1="829.50" y1="30.50" x2="829.50" y2="23.10" stroke="#0000ff" stroke-opacity="0.40" stroke-width="1.00" />
		<polygon fill="#0000ff" shape-rendering="crispEdges" points="817.79,22.35 817.50,20.50 817.79,18.65 818.65,16.97 819.97,15.65 821.65,14.79 823.50,14.50 823.50,26.50 821.65,26.21 819.97,25.35 818.65,24.03 " />
		<polygon fill="#0000ff" fill-opacity="0.60" shape-rendering="crispEdges" points="869.73,26.50 869.73,14.50 823.50,14.50 823.50,26.50 " />
		<text x="825.50" y="23.50" font-family="Helvetica" font-size="10" fill="#ffffff" >SLC24A1</text>
		<polygon fill="#0000ff" fill-opacity="0.20" shape-rendering="crispEdges" points="829.94,31.00 829.94,359.00 823.94,359.00 823.94,31.00 " />
		<line x1="823.94" y1="358.00" x2="823.94" y2="31.00" stroke="#0000ff" stroke-opacity="0.40" stroke-width="1.00" />
		<line x1="829.94" y1="358.00" x2="829.94" y2="31.00" stroke="#0000ff" stroke-opacity="0.40" stroke-width="1.00" />
		<polygon fill="#e5e5e5" shape-rendering="crispEdges" points="879.00,13.00 879.00,-1.00 0.00,-1.00 0.00,13.00 " />
		<text x="0.00" y="10.00" font-family="Helvetica Bold" font-size="12" text-anchor="start" fill="#000000" >QEPC01012846.1:0..278016 Sphenodon punctatus isolate mauimua-1 ScrUdWx_2360.1, whole genome shotgun sequence</text>
	</g>
</svg>
