<?xml version="1.0" standalone="no" ?>
<!DOCTYPE svg PUBLIC "-//W3C//DTD SVG 1.1//EN" "http://www.w3.org/Graphics/SVG/1.1/DTD/svg11.dtd">
<svg width="879px" height="225px" xmlns="http://www.w3.org/2000/svg" version="1.1" viewBox="0 0 879 225" >
	<style type="text/css" > <![CDATA[
		@import url("https://www.ncbi.nlm.nih.gov/projects/sviewer/css/svg_fonts.css");
	]]>
	</style>
	<desc >Generated by NCBI Genome Workbench http://www.ncbi.nlm.nih.gov/tools/gbench/</desc>
	<defs >
		<clipPath id="clipping-rect1" >
			<rect x="0" y="14" width="879" height="18" />
		</clipPath>
		<linearGradient id="gradient1" gradientTransform="rotate(90)" >
			<stop offset="0%" stop-color="#6c6c6c" />
			<stop offset="50%" stop-color="#b5b5b5" />
			<stop offset="100%" stop-color="#6c6c6c" />
		</linearGradient>
		<clipPath id="clipping-rect2" >
			<rect x="0" y="32" width="879" height="193" />
		</clipPath>
		<linearGradient id="gradient2" gradientTransform="rotate(90)" >
			<stop offset="0%" stop-color="#b6dead" />
			<stop offset="100%" stop-color="#ffffff" stop-opacity="0.00" />
		</linearGradient>
		<linearGradient id="gradient3" gradientTransform="rotate(90)" >
			<stop offset="0%" stop-color="#e6e6e6" stop-opacity="0.71" />
			<stop offset="100%" stop-color="#ffffff" stop-opacity="0.00" />
		</linearGradient>
	</defs>
	<g >
		<polygon fill="#ffffff" shape-rendering="crispEdges" points="879.00,31.00 879.00,13.00 0.00,13.00 0.00,31.00 " />
		<line x1="0.00" y1="29.00" x2="879.00" y2="29.00" stroke="#7f7f7f" stroke-width="1.00" clip-path="url('#clipping-rect1')" />
		<line x1="879.00" y1="29.00" x2="879.00" y2="26.00" stroke="#7f7f7f" stroke-width="1.00" clip-path="url('#clipping-rect1')" />
		<line x1="872.63" y1="29.00" x2="872.63" y2="27.00" stroke="#7f7f7f" stroke-width="1.00" clip-path="url('#clipping-rect1')" />
		<line x1="866.26" y1="29.00" x2="866.26" y2="26.00" stroke="#7f7f7f" stroke-width="1.00" clip-path="url('#clipping-rect1')" />
		<line x1="859.89" y1="29.00" x2="859.89" y2="27.00" stroke="#7f7f7f" stroke-width="1.00" clip-path="url('#clipping-rect1')" />
		<line x1="853.52" y1="29.00" x2="853.52" y2="26.00" stroke="#7f7f7f" stroke-width="1.00" clip-path="url('#clipping-rect1')" />
		<line x1="847.15" y1="29.00" x2="847.15" y2="27.00" stroke="#7f7f7f" stroke-width="1.00" clip-path="url('#clipping-rect1')" />
		<line x1="840.78" y1="29.00" x2="840.78" y2="26.00" stroke="#7f7f7f" stroke-width="1.00" clip-path="url('#clipping-rect1')" />
		<line x1="834.41" y1="29.00" x2="834.41" y2="27.00" stroke="#7f7f7f" stroke-width="1.00" clip-path="url('#clipping-rect1')" />
		<line x1="828.03" y1="29.00" x2="828.03" y2="26.00" stroke="#7f7f7f" stroke-width="1.00" clip-path="url('#clipping-rect1')" />
		<line x1="821.66" y1="29.00" x2="821.66" y2="27.00" stroke="#7f7f7f" stroke-width="1.00" clip-path="url('#clipping-rect1')" />
		<line x1="815.29" y1="29.00" x2="815.29" y2="26.00" stroke="#7f7f7f" stroke-width="1.00" clip-path="url('#clipping-rect1')" />
		<line x1="808.92" y1="29.00" x2="808.92" y2="27.00" stroke="#7f7f7f" stroke-width="1.00" clip-path="url('#clipping-rect1')" />
		<line x1="802.55" y1="29.00" x2="802.55" y2="26.00" stroke="#7f7f7f" stroke-width="1.00" clip-path="url('#clipping-rect1')" />
		<line x1="796.18" y1="29.00" x2="796.18" y2="27.00" stroke="#7f7f7f" stroke-width="1.00" clip-path="url('#clipping-rect1')" />
		<line x1="789.81" y1="29.00" x2="789.81" y2="26.00" stroke="#7f7f7f" stroke-width="1.00" clip-path="url('#clipping-rect1')" />
		<line x1="783.44" y1="29.00" x2="783.44" y2="27.00" stroke="#7f7f7f" stroke-width="1.00" clip-path="url('#clipping-rect1')" />
		<line x1="777.07" y1="29.00" x2="777.07" y2="26.00" stroke="#7f7f7f" stroke-width="1.00" clip-path="url('#clipping-rect1')" />
		<line x1="770.70" y1="29.00" x2="770.70" y2="27.00" stroke="#7f7f7f" stroke-width="1.00" clip-path="url('#clipping-rect1')" />
		<line x1="764.33" y1="29.00" x2="764.33" y2="26.00" stroke="#7f7f7f" stroke-width="1.00" clip-path="url('#clipping-rect1')" />
		<line x1="757.96" y1="29.00" x2="757.96" y2="27.00" stroke="#7f7f7f" stroke-width="1.00" clip-path="url('#clipping-rect1')" />
		<line x1="751.59" y1="29.00" x2="751.59" y2="26.00" stroke="#7f7f7f" stroke-width="1.00" clip-path="url('#clipping-rect1')" />
		<line x1="745.22" y1="29.00" x2="745.22" y2="27.00" stroke="#7f7f7f" stroke-width="1.00" clip-path="url('#clipping-rect1')" />
		<line x1="738.84" y1="29.00" x2="738.84" y2="26.00" stroke="#7f7f7f" stroke-width="1.00" clip-path="url('#clipping-rect1')" />
		<line x1="732.47" y1="29.00" x2="732.47" y2="27.00" stroke="#7f7f7f" stroke-width="1.00" clip-path="url('#clipping-rect1')" />
		<line x1="726.10" y1="29.00" x2="726.10" y2="26.00" stroke="#7f7f7f" stroke-width="1.00" clip-path="url('#clipping-rect1')" />
		<line x1="719.73" y1="29.00" x2="719.73" y2="27.00" stroke="#7f7f7f" stroke-width="1.00" clip-path="url('#clipping-rect1')" />
		<line x1="713.36" y1="29.00" x2="713.36" y2="26.00" stroke="#7f7f7f" stroke-width="1.00" clip-path="url('#clipping-rect1')" />
		<line x1="706.99" y1="29.00" x2="706.99" y2="27.00" stroke="#7f7f7f" stroke-width="1.00" clip-path="url('#clipping-rect1')" />
		<line x1="700.62" y1="29.00" x2="700.62" y2="26.00" stroke="#7f7f7f" stroke-width="1.00" clip-path="url('#clipping-rect1')" />
		<line x1="694.25" y1="29.00" x2="694.25" y2="27.00" stroke="#7f7f7f" stroke-width="1.00" clip-path="url('#clipping-rect1')" />
		<line x1="687.88" y1="29.00" x2="687.88" y2="26.00" stroke="#7f7f7f" stroke-width="1.00" clip-path="url('#clipping-rect1')" />
		<line x1="681.51" y1="29.00" x2="681.51" y2="27.00" stroke="#7f7f7f" stroke-width="1.00" clip-path="url('#clipping-rect1')" />
		<line x1="675.14" y1="29.00" x2="675.14" y2="26.00" stroke="#7f7f7f" stroke-width="1.00" clip-path="url('#clipping-rect1')" />
		<line x1="668.77" y1="29.00" x2="668.77" y2="27.00" stroke="#7f7f7f" stroke-width="1.00" clip-path="url('#clipping-rect1')" />
		<line x1="662.40" y1="29.00" x2="662.40" y2="26.00" stroke="#7f7f7f" stroke-width="1.00" clip-path="url('#clipping-rect1')" />
		<line x1="656.03" y1="29.00" x2="656.03" y2="27.00" stroke="#7f7f7f" stroke-width="1.00" clip-path="url('#clipping-rect1')" />
		<line x1="649.65" y1="29.00" x2="649.65" y2="26.00" stroke="#7f7f7f" stroke-width="1.00" clip-path="url('#clipping-rect1')" />
		<line x1="643.28" y1="29.00" x2="643.28" y2="27.00" stroke="#7f7f7f" stroke-width="1.00" clip-path="url('#clipping-rect1')" />
		<line x1="636.91" y1="29.00" x2="636.91" y2="26.00" stroke="#7f7f7f" stroke-width="1.00" clip-path="url('#clipping-rect1')" />
		<line x1="630.54" y1="29.00" x2="630.54" y2="27.00" stroke="#7f7f7f" stroke-width="1.00" clip-path="url('#clipping-rect1')" />
		<line x1="624.17" y1="29.00" x2="624.17" y2="26.00" stroke="#7f7f7f" stroke-width="1.00" clip-path="url('#clipping-rect1')" />
		<line x1="617.80" y1="29.00" x2="617.80" y2="27.00" stroke="#7f7f7f" stroke-width="1.00" clip-path="url('#clipping-rect1')" />
		<line x1="611.43" y1="29.00" x2="611.43" y2="26.00" stroke="#7f7f7f" stroke-width="1.00" clip-path="url('#clipping-rect1')" />
		<line x1="605.06" y1="29.00" x2="605.06" y2="27.00" stroke="#7f7f7f" stroke-width="1.00" clip-path="url('#clipping-rect1')" />
		<line x1="598.69" y1="29.00" x2="598.69" y2="26.00" stroke="#7f7f7f" stroke-width="1.00" clip-path="url('#clipping-rect1')" />
		<line x1="592.32" y1="29.00" x2="592.32" y2="27.00" stroke="#7f7f7f" stroke-width="1.00" clip-path="url('#clipping-rect1')" />
		<line x1="585.95" y1="29.00" x2="585.95" y2="26.00" stroke="#7f7f7f" stroke-width="1.00" clip-path="url('#clipping-rect1')" />
		<line x1="579.58" y1="29.00" x2="579.58" y2="27.00" stroke="#7f7f7f" stroke-width="1.00" clip-path="url('#clipping-rect1')" />
		<line x1="573.21" y1="29.00" x2="573.21" y2="26.00" stroke="#7f7f7f" stroke-width="1.00" clip-path="url('#clipping-rect1')" />
		<line x1="566.83" y1="29.00" x2="566.83" y2="27.00" stroke="#7f7f7f" stroke-width="1.00" clip-path="url('#clipping-rect1')" />
		<line x1="560.46" y1="29.00" x2="560.46" y2="26.00" stroke="#7f7f7f" stroke-width="1.00" clip-path="url('#clipping-rect1')" />
		<line x1="554.09" y1="29.00" x2="554.09" y2="27.00" stroke="#7f7f7f" stroke-width="1.00" clip-path="url('#clipping-rect1')" />
		<line x1="547.72" y1="29.00" x2="547.72" y2="26.00" stroke="#7f7f7f" stroke-width="1.00" clip-path="url('#clipping-rect1')" />
		<line x1="541.35" y1="29.00" x2="541.35" y2="27.00" stroke="#7f7f7f" stroke-width="1.00" clip-path="url('#clipping-rect1')" />
		<line x1="534.98" y1="29.00" x2="534.98" y2="26.00" stroke="#7f7f7f" stroke-width="1.00" clip-path="url('#clipping-rect1')" />
		<line x1="528.61" y1="29.00" x2="528.61" y2="27.00" stroke="#7f7f7f" stroke-width="1.00" clip-path="url('#clipping-rect1')" />
		<line x1="522.24" y1="29.00" x2="522.24" y2="26.00" stroke="#7f7f7f" stroke-width="1.00" clip-path="url('#clipping-rect1')" />
		<line x1="515.87" y1="29.00" x2="515.87" y2="27.00" stroke="#7f7f7f" stroke-width="1.00" clip-path="url('#clipping-rect1')" />
		<line x1="509.50" y1="29.00" x2="509.50" y2="26.00" stroke="#7f7f7f" stroke-width="1.00" clip-path="url('#clipping-rect1')" />
		<line x1="503.13" y1="29.00" x2="503.13" y2="27.00" stroke="#7f7f7f" stroke-width="1.00" clip-path="url('#clipping-rect1')" />
		<line x1="496.76" y1="29.00" x2="496.76" y2="26.00" stroke="#7f7f7f" stroke-width="1.00" clip-path="url('#clipping-rect1')" />
		<line x1="490.39" y1="29.00" x2="490.39" y2="27.00" stroke="#7f7f7f" stroke-width="1.00" clip-path="url('#clipping-rect1')" />
		<line x1="484.02" y1="29.00" x2="484.02" y2="26.00" stroke="#7f7f7f" stroke-width="1.00" clip-path="url('#clipping-rect1')" />
		<line x1="477.64" y1="29.00" x2="477.64" y2="27.00" stroke="#7f7f7f" stroke-width="1.00" clip-path="url('#clipping-rect1')" />
		<line x1="471.27" y1="29.00" x2="471.27" y2="26.00" stroke="#7f7f7f" stroke-width="1.00" clip-path="url('#clipping-rect1')" />
		<line x1="464.90" y1="29.00" x2="464.90" y2="27.00" stroke="#7f7f7f" stroke-width="1.00" clip-path="url('#clipping-rect1')" />
		<line x1="458.53" y1="29.00" x2="458.53" y2="26.00" stroke="#7f7f7f" stroke-width="1.00" clip-path="url('#clipping-rect1')" />
		<line x1="452.16" y1="29.00" x2="452.16" y2="27.00" stroke="#7f7f7f" stroke-width="1.00" clip-path="url('#clipping-rect1')" />
		<line x1="445.79" y1="29.00" x2="445.79" y2="26.00" stroke="#7f7f7f" stroke-width="1.00" clip-path="url('#clipping-rect1')" />
		<line x1="439.42" y1="29.00" x2="439.42" y2="27.00" stroke="#7f7f7f" stroke-width="1.00" clip-path="url('#clipping-rect1')" />
		<line x1="433.05" y1="29.00" x2="433.05" y2="26.00" stroke="#7f7f7f" stroke-width="1.00" clip-path="url('#clipping-rect1')" />
		<line x1="426.68" y1="29.00" x2="426.68" y2="27.00" stroke="#7f7f7f" stroke-width="1.00" clip-path="url('#clipping-rect1')" />
		<line x1="420.31" y1="29.00" x2="420.31" y2="26.00" stroke="#7f7f7f" stroke-width="1.00" clip-path="url('#clipping-rect1')" />
		<line x1="413.94" y1="29.00" x2="413.94" y2="27.00" stroke="#7f7f7f" stroke-width="1.00" clip-path="url('#clipping-rect1')" />
		<line x1="407.57" y1="29.00" x2="407.57" y2="26.00" stroke="#7f7f7f" stroke-width="1.00" clip-path="url('#clipping-rect1')" />
		<line x1="401.20" y1="29.00" x2="401.20" y2="27.00" stroke="#7f7f7f" stroke-width="1.00" clip-path="url('#clipping-rect1')" />
		<line x1="394.83" y1="29.00" x2="394.83" y2="26.00" stroke="#7f7f7f" stroke-width="1.00" clip-path="url('#clipping-rect1')" />
		<line x1="388.45" y1="29.00" x2="388.45" y2="27.00" stroke="#7f7f7f" stroke-width="1.00" clip-path="url('#clipping-rect1')" />
		<line x1="382.08" y1="29.00" x2="382.08" y2="26.00" stroke="#7f7f7f" stroke-width="1.00" clip-path="url('#clipping-rect1')" />
		<line x1="375.71" y1="29.00" x2="375.71" y2="27.00" stroke="#7f7f7f" stroke-width="1.00" clip-path="url('#clipping-rect1')" />
		<line x1="369.34" y1="29.00" x2="369.34" y2="26.00" stroke="#7f7f7f" stroke-width="1.00" clip-path="url('#clipping-rect1')" />
		<line x1="362.97" y1="29.00" x2="362.97" y2="27.00" stroke="#7f7f7f" stroke-width="1.00" clip-path="url('#clipping-rect1')" />
		<line x1="356.60" y1="29.00" x2="356.60" y2="26.00" stroke="#7f7f7f" stroke-width="1.00" clip-path="url('#clipping-rect1')" />
		<line x1="350.23" y1="29.00" x2="350.23" y2="27.00" stroke="#7f7f7f" stroke-width="1.00" clip-path="url('#clipping-rect1')" />
		<line x1="343.86" y1="29.00" x2="343.86" y2="26.00" stroke="#7f7f7f" stroke-width="1.00" clip-path="url('#clipping-rect1')" />
		<line x1="337.49" y1="29.00" x2="337.49" y2="27.00" stroke="#7f7f7f" stroke-width="1.00" clip-path="url('#clipping-rect1')" />
		<line x1="331.12" y1="29.00" x2="331.12" y2="26.00" stroke="#7f7f7f" stroke-width="1.00" clip-path="url('#clipping-rect1')" />
		<line x1="324.75" y1="29.00" x2="324.75" y2="27.00" stroke="#7f7f7f" stroke-width="1.00" clip-path="url('#clipping-rect1')" />
		<line x1="318.38" y1="29.00" x2="318.38" y2="26.00" stroke="#7f7f7f" stroke-width="1.00" clip-path="url('#clipping-rect1')" />
		<line x1="312.01" y1="29.00" x2="312.01" y2="27.00" stroke="#7f7f7f" stroke-width="1.00" clip-path="url('#clipping-rect1')" />
		<line x1="305.64" y1="29.00" x2="305.64" y2="26.00" stroke="#7f7f7f" stroke-width="1.00" clip-path="url('#clipping-rect1')" />
		<line x1="299.26" y1="29.00" x2="299.26" y2="27.00" stroke="#7f7f7f" stroke-width="1.00" clip-path="url('#clipping-rect1')" />
		<line x1="292.89" y1="29.00" x2="292.89" y2="26.00" stroke="#7f7f7f" stroke-width="1.00" clip-path="url('#clipping-rect1')" />
		<line x1="286.52" y1="29.00" x2="286.52" y2="27.00" stroke="#7f7f7f" stroke-width="1.00" clip-path="url('#clipping-rect1')" />
		<line x1="280.15" y1="29.00" x2="280.15" y2="26.00" stroke="#7f7f7f" stroke-width="1.00" clip-path="url('#clipping-rect1')" />
		<line x1="273.78" y1="29.00" x2="273.78" y2="27.00" stroke="#7f7f7f" stroke-width="1.00" clip-path="url('#clipping-rect1')" />
		<line x1="267.41" y1="29.00" x2="267.41" y2="26.00" stroke="#7f7f7f" stroke-width="1.00" clip-path="url('#clipping-rect1')" />
		<line x1="261.04" y1="29.00" x2="261.04" y2="27.00" stroke="#7f7f7f" stroke-width="1.00" clip-path="url('#clipping-rect1')" />
		<line x1="254.67" y1="29.00" x2="254.67" y2="26.00" stroke="#7f7f7f" stroke-width="1.00" clip-path="url('#clipping-rect1')" />
		<line x1="248.30" y1="29.00" x2="248.30" y2="27.00" stroke="#7f7f7f" stroke-width="1.00" clip-path="url('#clipping-rect1')" />
		<line x1="241.93" y1="29.00" x2="241.93" y2="26.00" stroke="#7f7f7f" stroke-width="1.00" clip-path="url('#clipping-rect1')" />
		<line x1="235.56" y1="29.00" x2="235.56" y2="27.00" stroke="#7f7f7f" stroke-width="1.00" clip-path="url('#clipping-rect1')" />
		<line x1="229.19" y1="29.00" x2="229.19" y2="26.00" stroke="#7f7f7f" stroke-width="1.00" clip-path="url('#clipping-rect1')" />
		<line x1="222.82" y1="29.00" x2="222.82" y2="27.00" stroke="#7f7f7f" stroke-width="1.00" clip-path="url('#clipping-rect1')" />
		<line x1="216.44" y1="29.00" x2="216.44" y2="26.00" stroke="#7f7f7f" stroke-width="1.00" clip-path="url('#clipping-rect1')" />
		<line x1="210.07" y1="29.00" x2="210.07" y2="27.00" stroke="#7f7f7f" stroke-width="1.00" clip-path="url('#clipping-rect1')" />
		<line x1="203.70" y1="29.00" x2="203.70" y2="26.00" stroke="#7f7f7f" stroke-width="1.00" clip-path="url('#clipping-rect1')" />
		<line x1="197.33" y1="29.00" x2="197.33" y2="27.00" stroke="#7f7f7f" stroke-width="1.00" clip-path="url('#clipping-rect1')" />
		<line x1="190.96" y1="29.00" x2="190.96" y2="26.00" stroke="#7f7f7f" stroke-width="1.00" clip-path="url('#clipping-rect1')" />
		<line x1="184.59" y1="29.00" x2="184.59" y2="27.00" stroke="#7f7f7f" stroke-width="1.00" clip-path="url('#clipping-rect1')" />
		<line x1="178.22" y1="29.00" x2="178.22" y2="26.00" stroke="#7f7f7f" stroke-width="1.00" clip-path="url('#clipping-rect1')" />
		<line x1="171.85" y1="29.00" x2="171.85" y2="27.00" stroke="#7f7f7f" stroke-width="1.00" clip-path="url('#clipping-rect1')" />
		<line x1="165.48" y1="29.00" x2="165.48" y2="26.00" stroke="#7f7f7f" stroke-width="1.00" clip-path="url('#clipping-rect1')" />
		<line x1="159.11" y1="29.00" x2="159.11" y2="27.00" stroke="#7f7f7f" stroke-width="1.00" clip-path="url('#clipping-rect1')" />
		<line x1="152.74" y1="29.00" x2="152.74" y2="26.00" stroke="#7f7f7f" stroke-width="1.00" clip-path="url('#clipping-rect1')" />
		<line x1="146.37" y1="29.00" x2="146.37" y2="27.00" stroke="#7f7f7f" stroke-width="1.00" clip-path="url('#clipping-rect1')" />
		<line x1="140.00" y1="29.00" x2="140.00" y2="26.00" stroke="#7f7f7f" stroke-width="1.00" clip-path="url('#clipping-rect1')" />
		<line x1="133.63" y1="29.00" x2="133.63" y2="27.00" stroke="#7f7f7f" stroke-width="1.00" clip-path="url('#clipping-rect1')" />
		<line x1="127.25" y1="29.00" x2="127.25" y2="26.00" stroke="#7f7f7f" stroke-width="1.00" clip-path="url('#clipping-rect1')" />
		<line x1="120.88" y1="29.00" x2="120.88" y2="27.00" stroke="#7f7f7f" stroke-width="1.00" clip-path="url('#clipping-rect1')" />
		<line x1="114.51" y1="29.00" x2="114.51" y2="26.00" stroke="#7f7f7f" stroke-width="1.00" clip-path="url('#clipping-rect1')" />
		<line x1="108.14" y1="29.00" x2="108.14" y2="27.00" stroke="#7f7f7f" stroke-width="1.00" clip-path="url('#clipping-rect1')" />
		<line x1="101.77" y1="29.00" x2="101.77" y2="26.00" stroke="#7f7f7f" stroke-width="1.00" clip-path="url('#clipping-rect1')" />
		<line x1="95.40" y1="29.00" x2="95.40" y2="27.00" stroke="#7f7f7f" stroke-width="1.00" clip-path="url('#clipping-rect1')" />
		<line x1="89.03" y1="29.00" x2="89.03" y2="26.00" stroke="#7f7f7f" stroke-width="1.00" clip-path="url('#clipping-rect1')" />
		<line x1="82.66" y1="29.00" x2="82.66" y2="27.00" stroke="#7f7f7f" stroke-width="1.00" clip-path="url('#clipping-rect1')" />
		<line x1="76.29" y1="29.00" x2="76.29" y2="26.00" stroke="#7f7f7f" stroke-width="1.00" clip-path="url('#clipping-rect1')" />
		<line x1="69.92" y1="29.00" x2="69.92" y2="27.00" stroke="#7f7f7f" stroke-width="1.00" clip-path="url('#clipping-rect1')" />
		<line x1="63.55" y1="29.00" x2="63.55" y2="26.00" stroke="#7f7f7f" stroke-width="1.00" clip-path="url('#clipping-rect1')" />
		<line x1="57.18" y1="29.00" x2="57.18" y2="27.00" stroke="#7f7f7f" stroke-width="1.00" clip-path="url('#clipping-rect1')" />
		<line x1="50.81" y1="29.00" x2="50.81" y2="26.00" stroke="#7f7f7f" stroke-width="1.00" clip-path="url('#clipping-rect1')" />
		<line x1="44.44" y1="29.00" x2="44.44" y2="27.00" stroke="#7f7f7f" stroke-width="1.00" clip-path="url('#clipping-rect1')" />
		<line x1="38.06" y1="29.00" x2="38.06" y2="26.00" stroke="#7f7f7f" stroke-width="1.00" clip-path="url('#clipping-rect1')" />
		<line x1="31.69" y1="29.00" x2="31.69" y2="27.00" stroke="#7f7f7f" stroke-width="1.00" clip-path="url('#clipping-rect1')" />
		<line x1="25.32" y1="29.00" x2="25.32" y2="26.00" stroke="#7f7f7f" stroke-width="1.00" clip-path="url('#clipping-rect1')" />
		<line x1="18.95" y1="29.00" x2="18.95" y2="27.00" stroke="#7f7f7f" stroke-width="1.00" clip-path="url('#clipping-rect1')" />
		<line x1="12.58" y1="29.00" x2="12.58" y2="26.00" stroke="#7f7f7f" stroke-width="1.00" clip-path="url('#clipping-rect1')" />
		<line x1="6.21" y1="29.00" x2="6.21" y2="27.00" stroke="#7f7f7f" stroke-width="1.00" clip-path="url('#clipping-rect1')" />
		<text x="0.00" y="24.00" font-family="Helvetica" font-size="10" fill="#333333" clip-path="url('#clipping-rect1')" >689,874</text>
		<line x1="0.00" y1="31.00" x2="0.00" y2="16.00" stroke="#7f7f7f" stroke-width="1.00" clip-path="url('#clipping-rect1')" />
		<text x="876.55" y="24.00" font-family="Helvetica" font-size="10" fill="#333333" clip-path="url('#clipping-rect1')" >1</text>
		<line x1="879.00" y1="31.00" x2="879.00" y2="16.00" stroke="#7f7f7f" stroke-width="1.00" clip-path="url('#clipping-rect1')" />
		<text x="817.29" y="24.00" font-family="Helvetica" font-size="10" fill="#333333" clip-path="url('#clipping-rect1')" >50 K</text>
		<line x1="815.29" y1="31.00" x2="815.29" y2="16.00" stroke="#7f7f7f" stroke-width="1.00" clip-path="url('#clipping-rect1')" />
		<text x="753.59" y="24.00" font-family="Helvetica" font-size="10" fill="#333333" clip-path="url('#clipping-rect1')" >100 K</text>
		<line x1="751.59" y1="31.00" x2="751.59" y2="16.00" stroke="#7f7f7f" stroke-width="1.00" clip-path="url('#clipping-rect1')" />
		<text x="689.88" y="24.00" font-family="Helvetica" font-size="10" fill="#333333" clip-path="url('#clipping-rect1')" >150 K</text>
		<line x1="687.88" y1="31.00" x2="687.88" y2="16.00" stroke="#7f7f7f" stroke-width="1.00" clip-path="url('#clipping-rect1')" />
		<text x="626.17" y="24.00" font-family="Helvetica" font-size="10" fill="#333333" clip-path="url('#clipping-rect1')" >200 K</text>
		<line x1="624.17" y1="31.00" x2="624.17" y2="16.00" stroke="#7f7f7f" stroke-width="1.00" clip-path="url('#clipping-rect1')" />
		<text x="562.46" y="24.00" font-family="Helvetica" font-size="10" fill="#333333" clip-path="url('#clipping-rect1')" >250 K</text>
		<line x1="560.46" y1="31.00" x2="560.46" y2="16.00" stroke="#7f7f7f" stroke-width="1.00" clip-path="url('#clipping-rect1')" />
		<text x="498.76" y="24.00" font-family="Helvetica" font-size="10" fill="#333333" clip-path="url('#clipping-rect1')" >300 K</text>
		<line x1="496.76" y1="31.00" x2="496.76" y2="16.00" stroke="#7f7f7f" stroke-width="1.00" clip-path="url('#clipping-rect1')" />
		<text x="435.05" y="24.00" font-family="Helvetica" font-size="10" fill="#333333" clip-path="url('#clipping-rect1')" >350 K</text>
		<line x1="433.05" y1="31.00" x2="433.05" y2="16.00" stroke="#7f7f7f" stroke-width="1.00" clip-path="url('#clipping-rect1')" />
		<text x="371.34" y="24.00" font-family="Helvetica" font-size="10" fill="#333333" clip-path="url('#clipping-rect1')" >400 K</text>
		<line x1="369.34" y1="31.00" x2="369.34" y2="16.00" stroke="#7f7f7f" stroke-width="1.00" clip-path="url('#clipping-rect1')" />
		<text x="307.64" y="24.00" font-family="Helvetica" font-size="10" fill="#333333" clip-path="url('#clipping-rect1')" >450 K</text>
		<line x1="305.64" y1="31.00" x2="305.64" y2="16.00" stroke="#7f7f7f" stroke-width="1.00" clip-path="url('#clipping-rect1')" />
		<text x="243.93" y="24.00" font-family="Helvetica" font-size="10" fill="#333333" clip-path="url('#clipping-rect1')" >500 K</text>
		<line x1="241.93" y1="31.00" x2="241.93" y2="16.00" stroke="#7f7f7f" stroke-width="1.00" clip-path="url('#clipping-rect1')" />
		<text x="180.22" y="24.00" font-family="Helvetica" font-size="10" fill="#333333" clip-path="url('#clipping-rect1')" >550 K</text>
		<line x1="178.22" y1="31.00" x2="178.22" y2="16.00" stroke="#7f7f7f" stroke-width="1.00" clip-path="url('#clipping-rect1')" />
		<text x="116.51" y="24.00" font-family="Helvetica" font-size="10" fill="#333333" clip-path="url('#clipping-rect1')" >600 K</text>
		<line x1="114.51" y1="31.00" x2="114.51" y2="16.00" stroke="#7f7f7f" stroke-width="1.00" clip-path="url('#clipping-rect1')" />
		<line x1="879.00" y1="224.00" x2="879.00" y2="31.00" stroke="#ebebeb" stroke-width="1.00" />
		<line x1="815.93" y1="224.00" x2="815.93" y2="31.00" stroke="#ebebeb" stroke-width="1.00" />
		<line x1="751.86" y1="224.00" x2="751.86" y2="31.00" stroke="#ebebeb" stroke-width="1.00" />
		<line x1="687.78" y1="224.00" x2="687.78" y2="31.00" stroke="#ebebeb" stroke-width="1.00" />
		<line x1="624.71" y1="224.00" x2="624.71" y2="31.00" stroke="#ebebeb" stroke-width="1.00" />
		<line x1="560.64" y1="224.00" x2="560.64" y2="31.00" stroke="#ebebeb" stroke-width="1.00" />
		<line x1="496.56" y1="224.00" x2="496.56" y2="31.00" stroke="#ebebeb" stroke-width="1.00" />
		<line x1="433.49" y1="224.00" x2="433.49" y2="31.00" stroke="#ebebeb" stroke-width="1.00" />
		<line x1="369.42" y1="224.00" x2="369.42" y2="31.00" stroke="#ebebeb" stroke-width="1.00" />
		<line x1="305.35" y1="224.00" x2="305.35" y2="31.00" stroke="#ebebeb" stroke-width="1.00" />
		<line x1="241.27" y1="224.00" x2="241.27" y2="31.00" stroke="#ebebeb" stroke-width="1.00" />
		<line x1="178.20" y1="224.00" x2="178.20" y2="31.00" stroke="#ebebeb" stroke-width="1.00" />
		<line x1="114.13" y1="224.00" x2="114.13" y2="31.00" stroke="#ebebeb" stroke-width="1.00" />
		<line x1="50.06" y1="224.00" x2="50.06" y2="31.00" stroke="#ebebeb" stroke-width="1.00" />
		<polygon fill="url('#gradient1')" shape-rendering="crispEdges" points="0.00,37.50 0.00,33.00 879.00,33.00 879.00,37.50 879.00,42.00 0.00,42.00 " />
		<line x1="879.00" y1="42.00" x2="879.00" y2="33.00" stroke="#6c6c6c" stroke-width="1.00" stroke-linejoin="round" />
		<line x1="879.00" y1="33.00" x2="0.00" y2="33.00" stroke="#6c6c6c" stroke-width="1.00" stroke-linejoin="round" />
		<line x1="0.00" y1="33.00" x2="0.00" y2="42.00" stroke="#6c6c6c" stroke-width="1.00" stroke-linejoin="round" />
		<line x1="879.00" y1="42.00" x2="0.00" y2="42.00" stroke="#6c6c6c" stroke-width="1.00" stroke-linejoin="round" />
		<polygon fill="url('#gradient2')" shape-rendering="crispEdges" points="0.00,58.00 879.00,58.00 879.00,44.00 0.00,44.00 " clip-path="url('#clipping-rect2')" />
		<text x="0.00" y="54.00" font-family="Helvetica" font-size="12" fill="#333333" >(U) Alignment for group templates, BLAST Results for: NM_001052:Homo sapiens somatostatin receptor...</text>
		<polygon fill="url('#gradient2')" shape-rendering="crispEdges" points="0.00,74.00 879.00,74.00 879.00,60.00 0.00,60.00 " clip-path="url('#clipping-rect2')" />
		<text x="0.00" y="70.00" font-family="Helvetica" font-size="12" fill="#333333" >(U) BLAST Results for: NM_001052:Homo sapiens somatostatin receptor...</text>
		<polygon fill="url('#gradient2')" shape-rendering="crispEdges" points="0.00,90.00 879.00,90.00 879.00,76.00 0.00,76.00 " clip-path="url('#clipping-rect2')" />
		<text x="0.00" y="86.00" font-family="Helvetica" font-size="12" fill="#333333" >(U) Alignment for group templates, BLAST Results for: ref|NM_014743.3|  </text>
		<polygon fill="url('#gradient2')" shape-rendering="crispEdges" points="0.00,106.00 879.00,106.00 879.00,92.00 0.00,92.00 " clip-path="url('#clipping-rect2')" />
		<text x="0.00" y="102.00" font-family="Helvetica" font-size="12" fill="#333333" >(U) BLAST Results for: ref|NM_014743.3|  </text>
		<polygon fill="url('#gradient2')" shape-rendering="crispEdges" points="0.00,122.00 879.00,122.00 879.00,108.00 0.00,108.00 " clip-path="url('#clipping-rect2')" />
		<text x="0.00" y="118.00" font-family="Helvetica" font-size="12" fill="#333333" >(U) Alignment for group templates, BLAST Results for: NM_001362481:Homo sapiens centromere protein...</text>
		<polygon fill="url('#gradient2')" shape-rendering="crispEdges" points="0.00,138.00 879.00,138.00 879.00,124.00 0.00,124.00 " clip-path="url('#clipping-rect2')" />
		<text x="0.00" y="134.00" font-family="Helvetica" font-size="12" fill="#333333" >(U) BLAST Results for: NM_001362481:Homo sapiens centromere protein...</text>
		<line x1="797.11" y1="192.00" x2="797.11" y2="220.00" stroke="#009900" stroke-opacity="0.10" stroke-width="1.00" stroke-linejoin="round" />
		<line x1="797.11" y1="220.00" x2="426.05" y2="220.00" stroke="#009900" stroke-opacity="0.10" stroke-width="1.00" stroke-linejoin="round" />
		<line x1="426.05" y1="220.00" x2="426.05" y2="192.00" stroke="#009900" stroke-opacity="0.10" stroke-width="1.00" stroke-linejoin="round" />
		<line x1="797.11" y1="192.00" x2="426.05" y2="192.00" stroke="#009900" stroke-opacity="0.10" stroke-width="1.00" stroke-linejoin="round" />
		<text x="558.03" y="201.00" font-family="Helvetica" font-size="10" fill="#124d94" >ENSSPUG00000009141</text>
		<polygon fill="#1e8c1e" shape-rendering="crispEdges" points="675.78,207.00 675.78,218.00 676.78,218.00 676.78,207.00 " />
		<line x1="676.21" y1="212.50" x2="672.29" y2="212.50" stroke="#4ba34b" stroke-width="2.00" />
		<polygon fill="#1e8c1e" shape-rendering="crispEdges" points="671.60,207.00 671.60,218.00 672.60,218.00 672.60,207.00 " />
		<line x1="671.90" y1="212.50" x2="670.84" y2="212.50" stroke="#4ba34b" stroke-width="2.00" />
		<polygon fill="#1e8c1e" shape-rendering="crispEdges" points="670.22,207.00 670.22,218.00 671.22,218.00 671.22,207.00 " />
		<line x1="670.60" y1="212.50" x2="652.71" y2="212.50" stroke="#4ba34b" stroke-width="2.00" />
		<polygon fill="#b2b2b2" shape-rendering="crispEdges" points="657.25,212.50 666.05,208.10 663.85,212.50 666.05,216.90 " />
		<polygon fill="#1e8c1e" shape-rendering="crispEdges" points="652.12,207.00 652.12,218.00 653.12,218.00 653.12,207.00 " />
		<line x1="652.53" y1="212.50" x2="589.78" y2="212.50" stroke="#4ba34b" stroke-width="2.00" />
		<polygon fill="#b2b2b2" shape-rendering="crispEdges" points="616.75,212.50 625.55,208.10 623.35,212.50 625.55,216.90 " />
		<polygon fill="#1e8c1e" shape-rendering="crispEdges" points="589.26,207.00 589.26,218.00 590.26,218.00 590.26,207.00 " />
		<line x1="589.75" y1="212.50" x2="547.77" y2="212.50" stroke="#4ba34b" stroke-width="2.00" />
		<polygon fill="#b2b2b2" shape-rendering="crispEdges" points="564.36,212.50 573.16,208.10 570.96,212.50 573.16,216.90 " />
		<polygon fill="#1e8c1e" shape-rendering="crispEdges" points="547.08,207.00 547.08,218.00 548.08,218.00 548.08,207.00 " />
		<polygon fill="#ffffff" shape-rendering="crispEdges" points="676.34,218.00 676.34,207.00 794.11,207.00 794.11,218.00 " />
		<text x="680.34" y="216.00" font-family="Helvetica" font-size="10" fill="#124d94" >ENSSPUT00000012702.1</text>
		<polygon fill="#ffffff" shape-rendering="crispEdges" points="428.05,218.00 428.05,207.00 543.38,207.00 543.38,218.00 " />
		<text x="429.05" y="216.00" font-family="Helvetica" font-size="10" fill="#124d94" >ENSSPUP00000011911.1</text>
		<line x1="478.06" y1="159.00" x2="478.06" y2="187.00" stroke="#009900" stroke-opacity="0.10" stroke-width="1.00" stroke-linejoin="round" />
		<line x1="478.06" y1="187.00" x2="53.37" y2="187.00" stroke="#009900" stroke-opacity="0.10" stroke-width="1.00" stroke-linejoin="round" />
		<line x1="53.37" y1="187.00" x2="53.37" y2="159.00" stroke="#009900" stroke-opacity="0.10" stroke-width="1.00" stroke-linejoin="round" />
		<line x1="478.06" y1="159.00" x2="53.37" y2="159.00" stroke="#009900" stroke-opacity="0.10" stroke-width="1.00" stroke-linejoin="round" />
		<text x="211.34" y="168.00" font-family="Helvetica" font-size="10" fill="#124d94" >ENSSPUG00000009156</text>
		<polygon fill="#1e8c1e" shape-rendering="crispEdges" points="356.13,174.00 356.13,185.00 357.13,185.00 357.13,174.00 " />
		<line x1="356.53" y1="179.50" x2="355.53" y2="179.50" stroke="#4ba34b" stroke-width="2.00" />
		<polygon fill="#1e8c1e" shape-rendering="crispEdges" points="354.98,174.00 354.98,185.00 355.98,185.00 355.98,174.00 " />
		<line x1="355.43" y1="179.50" x2="353.45" y2="179.50" stroke="#4ba34b" stroke-width="2.00" />
		<polygon fill="#1e8c1e" shape-rendering="crispEdges" points="352.84,174.00 352.84,185.00 353.84,185.00 353.84,174.00 " />
		<line x1="353.23" y1="179.50" x2="325.23" y2="179.50" stroke="#4ba34b" stroke-width="2.00" />
		<polygon fill="#b2b2b2" shape-rendering="crispEdges" points="343.63,179.50 334.83,175.10 337.03,179.50 334.83,183.90 " />
		<polygon fill="#1e8c1e" shape-rendering="crispEdges" points="324.68,174.00 324.68,185.00 325.68,185.00 325.68,174.00 " />
		<line x1="325.13" y1="179.50" x2="321.62" y2="179.50" stroke="#4ba34b" stroke-width="2.00" />
		<polygon fill="#1e8c1e" shape-rendering="crispEdges" points="321.07,174.00 321.07,185.00 322.07,185.00 322.07,174.00 " />
		<line x1="321.52" y1="179.50" x2="263.22" y2="179.50" stroke="#4ba34b" stroke-width="2.00" />
		<polygon fill="#b2b2b2" shape-rendering="crispEdges" points="296.77,179.50 287.97,175.10 290.17,179.50 287.97,183.90 " />
		<polygon fill="#1e8c1e" shape-rendering="crispEdges" points="262.67,174.00 262.67,185.00 263.67,185.00 263.67,174.00 " />
		<line x1="263.11" y1="179.50" x2="263.06" y2="179.50" stroke="#4ba34b" stroke-width="2.00" />
		<polygon fill="#1e8c1e" shape-rendering="crispEdges" points="262.53,174.00 262.53,185.00 263.53,185.00 263.53,174.00 " />
		<line x1="262.99" y1="179.50" x2="198.76" y2="179.50" stroke="#4ba34b" stroke-width="2.00" />
		<polygon fill="#b2b2b2" shape-rendering="crispEdges" points="235.28,179.50 226.48,175.10 228.68,179.50 226.48,183.90 " />
		<polygon fill="#1e8c1e" shape-rendering="crispEdges" points="198.15,174.00 198.15,185.00 199.15,185.00 199.15,174.00 " />
		<line x1="198.54" y1="179.50" x2="174.30" y2="179.50" stroke="#4ba34b" stroke-width="2.00" />
		<polygon fill="#b2b2b2" shape-rendering="crispEdges" points="190.82,179.50 182.02,175.10 184.22,179.50 182.02,183.90 " />
		<polygon fill="#1e8c1e" shape-rendering="crispEdges" points="173.72,174.00 173.72,185.00 174.72,185.00 174.72,174.00 " />
		<polygon fill="#ffffff" shape-rendering="crispEdges" points="356.73,185.00 356.73,174.00 475.06,174.00 475.06,185.00 " />
		<text x="360.73" y="183.00" font-family="Helvetica" font-size="10" fill="#124d94" >ENSSPUP00000011974.1</text>
		<polygon fill="#ffffff" shape-rendering="crispEdges" points="55.37,185.00 55.37,174.00 170.14,174.00 170.14,185.00 " />
		<text x="56.37" y="183.00" font-family="Helvetica" font-size="10" fill="#124d94" >ENSSPUT00000012769.1</text>
		<polygon fill="url('#gradient3')" shape-rendering="crispEdges" points="0.00,154.00 879.00,154.00 879.00,140.00 0.00,140.00 " clip-path="url('#clipping-rect2')" />
		<text x="0.00" y="150.00" font-family="Helvetica" font-size="12" fill="#333333" >Genes, Ensembl release 114</text>
		<polygon fill="#0000ff" fill-opacity="0.20" shape-rendering="crispEdges" points="611.50,31.50 611.50,23.10 611.50,23.10 " />
		<polygon fill="#0000ff" fill-opacity="0.20" shape-rendering="crispEdges" points="611.50,31.50 611.50,31.50 611.50,23.10 " />
		<line x1="611.50" y1="30.50" x2="611.50" y2="23.10" stroke="#0000ff" stroke-opacity="0.40" stroke-width="1.00" />
		<line x1="611.50" y1="30.50" x2="611.50" y2="23.10" stroke="#0000ff" stroke-opacity="0.40" stroke-width="1.00" />
		<polygon fill="#0000ff" shape-rendering="crispEdges" points="605.79,22.35 605.50,20.50 605.79,18.65 606.65,16.97 607.97,15.65 609.65,14.79 611.50,14.50 611.50,26.50 609.65,26.21 607.97,25.35 606.65,24.03 " />
		<polygon fill="#0000ff" fill-opacity="0.60" shape-rendering="crispEdges" points="660.69,26.50 660.69,14.50 611.50,14.50 611.50,26.50 " />
		<text x="613.50" y="23.50" font-family="Helvetica" font-size="10" fill="#ffffff" >HSD11B2</text>
		<polygon fill="#0000ff" fill-opacity="0.20" shape-rendering="crispEdges" points="611.70,225.01 611.70,31.00 611.70,31.00 " />
		<polygon fill="#0000ff" fill-opacity="0.20" shape-rendering="crispEdges" points="611.70,225.01 611.70,225.01 611.70,31.00 " />
		<line x1="611.70" y1="224.00" x2="611.70" y2="31.00" stroke="#0000ff" stroke-opacity="0.40" stroke-width="1.00" />
		<line x1="611.70" y1="224.00" x2="611.70" y2="31.00" stroke="#0000ff" stroke-opacity="0.40" stroke-width="1.00" />
		<polygon fill="#0000ff" fill-opacity="0.20" shape-rendering="crispEdges" points="275.50,23.10 275.50,31.50 274.50,31.50 274.50,23.10 " />
		<line x1="274.50" y1="30.50" x2="274.50" y2="23.10" stroke="#0000ff" stroke-opacity="0.40" stroke-width="1.00" />
		<line x1="275.50" y1="30.50" x2="275.50" y2="23.10" stroke="#0000ff" stroke-opacity="0.40" stroke-width="1.00" />
		<polygon fill="#0000ff" shape-rendering="crispEdges" points="268.79,22.35 268.50,20.50 268.79,18.65 269.65,16.97 270.97,15.65 272.65,14.79 274.50,14.50 274.50,26.50 272.65,26.21 270.97,25.35 269.65,24.03 " />
		<polygon fill="#0000ff" fill-opacity="0.60" shape-rendering="crispEdges" points="328.27,26.50 328.27,14.50 274.50,14.50 274.50,26.50 " />
		<text x="276.50" y="23.50" font-family="Helvetica" font-size="10" fill="#ffffff" >ATP6V0D1</text>
		<polygon fill="#0000ff" fill-opacity="0.20" shape-rendering="crispEdges" points="275.31,31.00 275.31,225.01 274.31,225.01 274.31,31.00 " />
		<line x1="274.31" y1="224.00" x2="274.31" y2="31.00" stroke="#0000ff" stroke-opacity="0.40" stroke-width="1.00" />
		<line x1="275.31" y1="224.00" x2="275.31" y2="31.00" stroke="#0000ff" stroke-opacity="0.40" stroke-width="1.00" />
		<polygon fill="#e5e5e5" shape-rendering="crispEdges" points="879.00,13.00 879.00,-1.00 0.00,-1.00 0.00,13.00 " />
		<text x="0.00" y="10.00" font-family="Helvetica Bold" font-size="12" text-anchor="start" fill="#000000" >QEPC01001659.1:0..689874 Sphenodon punctatus isolate mauimua-1 ScrUdWx_6104, whole genome shotgun sequence</text>
	</g>
</svg>
