<?xml version="1.0" standalone="no" ?>
<!DOCTYPE svg PUBLIC "-//W3C//DTD SVG 1.1//EN" "http://www.w3.org/Graphics/SVG/1.1/DTD/svg11.dtd">
<svg width="879px" height="234px" xmlns="http://www.w3.org/2000/svg" version="1.1" viewBox="0 0 879 234" >
	<style type="text/css" > <![CDATA[
		@import url("https://www.ncbi.nlm.nih.gov/projects/sviewer/css/svg_fonts.css");
	]]>
	</style>
	<desc >Generated by NCBI Genome Workbench http://www.ncbi.nlm.nih.gov/tools/gbench/</desc>
	<defs >
		<clipPath id="clipping-rect1" >
			<rect x="0" y="14" width="879" height="18" />
		</clipPath>
		<linearGradient id="gradient1" gradientTransform="rotate(90)" >
			<stop offset="0%" stop-color="#6c6c6c" />
			<stop offset="50%" stop-color="#b5b5b5" />
			<stop offset="100%" stop-color="#6c6c6c" />
		</linearGradient>
		<clipPath id="clipping-rect2" >
			<rect x="0" y="32" width="879" height="202" />
		</clipPath>
		<linearGradient id="gradient2" gradientTransform="rotate(90)" >
			<stop offset="0%" stop-color="#b6dead" />
			<stop offset="100%" stop-color="#ffffff" stop-opacity="0.00" />
		</linearGradient>
		<linearGradient id="gradient3" gradientTransform="rotate(90)" >
			<stop offset="0%" stop-color="#e6e6e6" stop-opacity="0.71" />
			<stop offset="100%" stop-color="#ffffff" stop-opacity="0.00" />
		</linearGradient>
	</defs>
	<g >
		<polygon fill="#ffffff" shape-rendering="crispEdges" points="879.00,31.00 879.00,13.00 0.00,13.00 0.00,31.00 " />
		<line x1="0.00" y1="28.88" x2="879.00" y2="28.88" stroke="#7f7f7f" stroke-width="1.00" clip-path="url('#clipping-rect1')" />
		<line x1="4.93" y1="28.88" x2="4.93" y2="26.76" stroke="#7f7f7f" stroke-width="1.00" clip-path="url('#clipping-rect1')" />
		<line x1="11.15" y1="28.88" x2="11.15" y2="26.76" stroke="#7f7f7f" stroke-width="1.00" clip-path="url('#clipping-rect1')" />
		<line x1="17.37" y1="28.88" x2="17.37" y2="26.76" stroke="#7f7f7f" stroke-width="1.00" clip-path="url('#clipping-rect1')" />
		<line x1="23.59" y1="28.88" x2="23.59" y2="25.71" stroke="#7f7f7f" stroke-width="1.00" clip-path="url('#clipping-rect1')" />
		<line x1="29.80" y1="28.88" x2="29.80" y2="26.76" stroke="#7f7f7f" stroke-width="1.00" clip-path="url('#clipping-rect1')" />
		<line x1="36.02" y1="28.88" x2="36.02" y2="26.76" stroke="#7f7f7f" stroke-width="1.00" clip-path="url('#clipping-rect1')" />
		<line x1="42.24" y1="28.88" x2="42.24" y2="26.76" stroke="#7f7f7f" stroke-width="1.00" clip-path="url('#clipping-rect1')" />
		<line x1="48.45" y1="28.88" x2="48.45" y2="26.76" stroke="#7f7f7f" stroke-width="1.00" clip-path="url('#clipping-rect1')" />
		<line x1="54.67" y1="28.88" x2="54.67" y2="25.71" stroke="#7f7f7f" stroke-width="1.00" clip-path="url('#clipping-rect1')" />
		<line x1="60.89" y1="28.88" x2="60.89" y2="26.76" stroke="#7f7f7f" stroke-width="1.00" clip-path="url('#clipping-rect1')" />
		<line x1="67.10" y1="28.88" x2="67.10" y2="26.76" stroke="#7f7f7f" stroke-width="1.00" clip-path="url('#clipping-rect1')" />
		<line x1="73.32" y1="28.88" x2="73.32" y2="26.76" stroke="#7f7f7f" stroke-width="1.00" clip-path="url('#clipping-rect1')" />
		<line x1="79.54" y1="28.88" x2="79.54" y2="26.76" stroke="#7f7f7f" stroke-width="1.00" clip-path="url('#clipping-rect1')" />
		<line x1="85.75" y1="28.88" x2="85.75" y2="25.71" stroke="#7f7f7f" stroke-width="1.00" clip-path="url('#clipping-rect1')" />
		<line x1="91.97" y1="28.88" x2="91.97" y2="26.76" stroke="#7f7f7f" stroke-width="1.00" clip-path="url('#clipping-rect1')" />
		<line x1="98.19" y1="28.88" x2="98.19" y2="26.76" stroke="#7f7f7f" stroke-width="1.00" clip-path="url('#clipping-rect1')" />
		<line x1="104.40" y1="28.88" x2="104.40" y2="26.76" stroke="#7f7f7f" stroke-width="1.00" clip-path="url('#clipping-rect1')" />
		<line x1="110.62" y1="28.88" x2="110.62" y2="26.76" stroke="#7f7f7f" stroke-width="1.00" clip-path="url('#clipping-rect1')" />
		<line x1="116.84" y1="28.88" x2="116.84" y2="25.71" stroke="#7f7f7f" stroke-width="1.00" clip-path="url('#clipping-rect1')" />
		<line x1="123.05" y1="28.88" x2="123.05" y2="26.76" stroke="#7f7f7f" stroke-width="1.00" clip-path="url('#clipping-rect1')" />
		<line x1="129.27" y1="28.88" x2="129.27" y2="26.76" stroke="#7f7f7f" stroke-width="1.00" clip-path="url('#clipping-rect1')" />
		<line x1="135.49" y1="28.88" x2="135.49" y2="26.76" stroke="#7f7f7f" stroke-width="1.00" clip-path="url('#clipping-rect1')" />
		<line x1="141.70" y1="28.88" x2="141.70" y2="26.76" stroke="#7f7f7f" stroke-width="1.00" clip-path="url('#clipping-rect1')" />
		<line x1="147.92" y1="28.88" x2="147.92" y2="25.71" stroke="#7f7f7f" stroke-width="1.00" clip-path="url('#clipping-rect1')" />
		<line x1="154.14" y1="28.88" x2="154.14" y2="26.76" stroke="#7f7f7f" stroke-width="1.00" clip-path="url('#clipping-rect1')" />
		<line x1="160.36" y1="28.88" x2="160.36" y2="26.76" stroke="#7f7f7f" stroke-width="1.00" clip-path="url('#clipping-rect1')" />
		<line x1="166.57" y1="28.88" x2="166.57" y2="26.76" stroke="#7f7f7f" stroke-width="1.00" clip-path="url('#clipping-rect1')" />
		<line x1="172.79" y1="28.88" x2="172.79" y2="26.76" stroke="#7f7f7f" stroke-width="1.00" clip-path="url('#clipping-rect1')" />
		<line x1="179.01" y1="28.88" x2="179.01" y2="25.71" stroke="#7f7f7f" stroke-width="1.00" clip-path="url('#clipping-rect1')" />
		<line x1="185.22" y1="28.88" x2="185.22" y2="26.76" stroke="#7f7f7f" stroke-width="1.00" clip-path="url('#clipping-rect1')" />
		<line x1="191.44" y1="28.88" x2="191.44" y2="26.76" stroke="#7f7f7f" stroke-width="1.00" clip-path="url('#clipping-rect1')" />
		<line x1="197.66" y1="28.88" x2="197.66" y2="26.76" stroke="#7f7f7f" stroke-width="1.00" clip-path="url('#clipping-rect1')" />
		<line x1="203.87" y1="28.88" x2="203.87" y2="26.76" stroke="#7f7f7f" stroke-width="1.00" clip-path="url('#clipping-rect1')" />
		<line x1="210.09" y1="28.88" x2="210.09" y2="25.71" stroke="#7f7f7f" stroke-width="1.00" clip-path="url('#clipping-rect1')" />
		<line x1="216.31" y1="28.88" x2="216.31" y2="26.76" stroke="#7f7f7f" stroke-width="1.00" clip-path="url('#clipping-rect1')" />
		<line x1="222.52" y1="28.88" x2="222.52" y2="26.76" stroke="#7f7f7f" stroke-width="1.00" clip-path="url('#clipping-rect1')" />
		<line x1="228.74" y1="28.88" x2="228.74" y2="26.76" stroke="#7f7f7f" stroke-width="1.00" clip-path="url('#clipping-rect1')" />
		<line x1="234.96" y1="28.88" x2="234.96" y2="26.76" stroke="#7f7f7f" stroke-width="1.00" clip-path="url('#clipping-rect1')" />
		<line x1="241.17" y1="28.88" x2="241.17" y2="25.71" stroke="#7f7f7f" stroke-width="1.00" clip-path="url('#clipping-rect1')" />
		<line x1="247.39" y1="28.88" x2="247.39" y2="26.76" stroke="#7f7f7f" stroke-width="1.00" clip-path="url('#clipping-rect1')" />
		<line x1="253.61" y1="28.88" x2="253.61" y2="26.76" stroke="#7f7f7f" stroke-width="1.00" clip-path="url('#clipping-rect1')" />
		<line x1="259.82" y1="28.88" x2="259.82" y2="26.76" stroke="#7f7f7f" stroke-width="1.00" clip-path="url('#clipping-rect1')" />
		<line x1="266.04" y1="28.88" x2="266.04" y2="26.76" stroke="#7f7f7f" stroke-width="1.00" clip-path="url('#clipping-rect1')" />
		<line x1="272.26" y1="28.88" x2="272.26" y2="25.71" stroke="#7f7f7f" stroke-width="1.00" clip-path="url('#clipping-rect1')" />
		<line x1="278.47" y1="28.88" x2="278.47" y2="26.76" stroke="#7f7f7f" stroke-width="1.00" clip-path="url('#clipping-rect1')" />
		<line x1="284.69" y1="28.88" x2="284.69" y2="26.76" stroke="#7f7f7f" stroke-width="1.00" clip-path="url('#clipping-rect1')" />
		<line x1="290.91" y1="28.88" x2="290.91" y2="26.76" stroke="#7f7f7f" stroke-width="1.00" clip-path="url('#clipping-rect1')" />
		<line x1="297.13" y1="28.88" x2="297.13" y2="26.76" stroke="#7f7f7f" stroke-width="1.00" clip-path="url('#clipping-rect1')" />
		<line x1="303.34" y1="28.88" x2="303.34" y2="25.71" stroke="#7f7f7f" stroke-width="1.00" clip-path="url('#clipping-rect1')" />
		<line x1="309.56" y1="28.88" x2="309.56" y2="26.76" stroke="#7f7f7f" stroke-width="1.00" clip-path="url('#clipping-rect1')" />
		<line x1="315.78" y1="28.88" x2="315.78" y2="26.76" stroke="#7f7f7f" stroke-width="1.00" clip-path="url('#clipping-rect1')" />
		<line x1="321.99" y1="28.88" x2="321.99" y2="26.76" stroke="#7f7f7f" stroke-width="1.00" clip-path="url('#clipping-rect1')" />
		<line x1="328.21" y1="28.88" x2="328.21" y2="26.76" stroke="#7f7f7f" stroke-width="1.00" clip-path="url('#clipping-rect1')" />
		<line x1="334.43" y1="28.88" x2="334.43" y2="25.71" stroke="#7f7f7f" stroke-width="1.00" clip-path="url('#clipping-rect1')" />
		<line x1="340.64" y1="28.88" x2="340.64" y2="26.76" stroke="#7f7f7f" stroke-width="1.00" clip-path="url('#clipping-rect1')" />
		<line x1="346.86" y1="28.88" x2="346.86" y2="26.76" stroke="#7f7f7f" stroke-width="1.00" clip-path="url('#clipping-rect1')" />
		<line x1="353.08" y1="28.88" x2="353.08" y2="26.76" stroke="#7f7f7f" stroke-width="1.00" clip-path="url('#clipping-rect1')" />
		<line x1="359.29" y1="28.88" x2="359.29" y2="26.76" stroke="#7f7f7f" stroke-width="1.00" clip-path="url('#clipping-rect1')" />
		<line x1="365.51" y1="28.88" x2="365.51" y2="25.71" stroke="#7f7f7f" stroke-width="1.00" clip-path="url('#clipping-rect1')" />
		<line x1="371.73" y1="28.88" x2="371.73" y2="26.76" stroke="#7f7f7f" stroke-width="1.00" clip-path="url('#clipping-rect1')" />
		<line x1="377.94" y1="28.88" x2="377.94" y2="26.76" stroke="#7f7f7f" stroke-width="1.00" clip-path="url('#clipping-rect1')" />
		<line x1="384.16" y1="28.88" x2="384.16" y2="26.76" stroke="#7f7f7f" stroke-width="1.00" clip-path="url('#clipping-rect1')" />
		<line x1="390.38" y1="28.88" x2="390.38" y2="26.76" stroke="#7f7f7f" stroke-width="1.00" clip-path="url('#clipping-rect1')" />
		<line x1="396.59" y1="28.88" x2="396.59" y2="25.71" stroke="#7f7f7f" stroke-width="1.00" clip-path="url('#clipping-rect1')" />
		<line x1="402.81" y1="28.88" x2="402.81" y2="26.76" stroke="#7f7f7f" stroke-width="1.00" clip-path="url('#clipping-rect1')" />
		<line x1="409.03" y1="28.88" x2="409.03" y2="26.76" stroke="#7f7f7f" stroke-width="1.00" clip-path="url('#clipping-rect1')" />
		<line x1="415.25" y1="28.88" x2="415.25" y2="26.76" stroke="#7f7f7f" stroke-width="1.00" clip-path="url('#clipping-rect1')" />
		<line x1="421.46" y1="28.88" x2="421.46" y2="26.76" stroke="#7f7f7f" stroke-width="1.00" clip-path="url('#clipping-rect1')" />
		<line x1="427.68" y1="28.88" x2="427.68" y2="25.71" stroke="#7f7f7f" stroke-width="1.00" clip-path="url('#clipping-rect1')" />
		<line x1="433.90" y1="28.88" x2="433.90" y2="26.76" stroke="#7f7f7f" stroke-width="1.00" clip-path="url('#clipping-rect1')" />
		<line x1="440.11" y1="28.88" x2="440.11" y2="26.76" stroke="#7f7f7f" stroke-width="1.00" clip-path="url('#clipping-rect1')" />
		<line x1="446.33" y1="28.88" x2="446.33" y2="26.76" stroke="#7f7f7f" stroke-width="1.00" clip-path="url('#clipping-rect1')" />
		<line x1="452.55" y1="28.88" x2="452.55" y2="26.76" stroke="#7f7f7f" stroke-width="1.00" clip-path="url('#clipping-rect1')" />
		<line x1="458.76" y1="28.88" x2="458.76" y2="25.71" stroke="#7f7f7f" stroke-width="1.00" clip-path="url('#clipping-rect1')" />
		<line x1="464.98" y1="28.88" x2="464.98" y2="26.76" stroke="#7f7f7f" stroke-width="1.00" clip-path="url('#clipping-rect1')" />
		<line x1="471.20" y1="28.88" x2="471.20" y2="26.76" stroke="#7f7f7f" stroke-width="1.00" clip-path="url('#clipping-rect1')" />
		<line x1="477.41" y1="28.88" x2="477.41" y2="26.76" stroke="#7f7f7f" stroke-width="1.00" clip-path="url('#clipping-rect1')" />
		<line x1="483.63" y1="28.88" x2="483.63" y2="26.76" stroke="#7f7f7f" stroke-width="1.00" clip-path="url('#clipping-rect1')" />
		<line x1="489.85" y1="28.88" x2="489.85" y2="25.71" stroke="#7f7f7f" stroke-width="1.00" clip-path="url('#clipping-rect1')" />
		<line x1="496.06" y1="28.88" x2="496.06" y2="26.76" stroke="#7f7f7f" stroke-width="1.00" clip-path="url('#clipping-rect1')" />
		<line x1="502.28" y1="28.88" x2="502.28" y2="26.76" stroke="#7f7f7f" stroke-width="1.00" clip-path="url('#clipping-rect1')" />
		<line x1="508.50" y1="28.88" x2="508.50" y2="26.76" stroke="#7f7f7f" stroke-width="1.00" clip-path="url('#clipping-rect1')" />
		<line x1="514.71" y1="28.88" x2="514.71" y2="26.76" stroke="#7f7f7f" stroke-width="1.00" clip-path="url('#clipping-rect1')" />
		<line x1="520.93" y1="28.88" x2="520.93" y2="25.71" stroke="#7f7f7f" stroke-width="1.00" clip-path="url('#clipping-rect1')" />
		<line x1="527.15" y1="28.88" x2="527.15" y2="26.76" stroke="#7f7f7f" stroke-width="1.00" clip-path="url('#clipping-rect1')" />
		<line x1="533.36" y1="28.88" x2="533.36" y2="26.76" stroke="#7f7f7f" stroke-width="1.00" clip-path="url('#clipping-rect1')" />
		<line x1="539.58" y1="28.88" x2="539.58" y2="26.76" stroke="#7f7f7f" stroke-width="1.00" clip-path="url('#clipping-rect1')" />
		<line x1="545.80" y1="28.88" x2="545.80" y2="26.76" stroke="#7f7f7f" stroke-width="1.00" clip-path="url('#clipping-rect1')" />
		<line x1="552.02" y1="28.88" x2="552.02" y2="25.71" stroke="#7f7f7f" stroke-width="1.00" clip-path="url('#clipping-rect1')" />
		<line x1="558.23" y1="28.88" x2="558.23" y2="26.76" stroke="#7f7f7f" stroke-width="1.00" clip-path="url('#clipping-rect1')" />
		<line x1="564.45" y1="28.88" x2="564.45" y2="26.76" stroke="#7f7f7f" stroke-width="1.00" clip-path="url('#clipping-rect1')" />
		<line x1="570.67" y1="28.88" x2="570.67" y2="26.76" stroke="#7f7f7f" stroke-width="1.00" clip-path="url('#clipping-rect1')" />
		<line x1="576.88" y1="28.88" x2="576.88" y2="26.76" stroke="#7f7f7f" stroke-width="1.00" clip-path="url('#clipping-rect1')" />
		<line x1="583.10" y1="28.88" x2="583.10" y2="25.71" stroke="#7f7f7f" stroke-width="1.00" clip-path="url('#clipping-rect1')" />
		<line x1="589.32" y1="28.88" x2="589.32" y2="26.76" stroke="#7f7f7f" stroke-width="1.00" clip-path="url('#clipping-rect1')" />
		<line x1="595.53" y1="28.88" x2="595.53" y2="26.76" stroke="#7f7f7f" stroke-width="1.00" clip-path="url('#clipping-rect1')" />
		<line x1="601.75" y1="28.88" x2="601.75" y2="26.76" stroke="#7f7f7f" stroke-width="1.00" clip-path="url('#clipping-rect1')" />
		<line x1="607.97" y1="28.88" x2="607.97" y2="26.76" stroke="#7f7f7f" stroke-width="1.00" clip-path="url('#clipping-rect1')" />
		<line x1="614.18" y1="28.88" x2="614.18" y2="25.71" stroke="#7f7f7f" stroke-width="1.00" clip-path="url('#clipping-rect1')" />
		<line x1="620.40" y1="28.88" x2="620.40" y2="26.76" stroke="#7f7f7f" stroke-width="1.00" clip-path="url('#clipping-rect1')" />
		<line x1="626.62" y1="28.88" x2="626.62" y2="26.76" stroke="#7f7f7f" stroke-width="1.00" clip-path="url('#clipping-rect1')" />
		<line x1="632.83" y1="28.88" x2="632.83" y2="26.76" stroke="#7f7f7f" stroke-width="1.00" clip-path="url('#clipping-rect1')" />
		<line x1="639.05" y1="28.88" x2="639.05" y2="26.76" stroke="#7f7f7f" stroke-width="1.00" clip-path="url('#clipping-rect1')" />
		<line x1="645.27" y1="28.88" x2="645.27" y2="25.71" stroke="#7f7f7f" stroke-width="1.00" clip-path="url('#clipping-rect1')" />
		<line x1="651.48" y1="28.88" x2="651.48" y2="26.76" stroke="#7f7f7f" stroke-width="1.00" clip-path="url('#clipping-rect1')" />
		<line x1="657.70" y1="28.88" x2="657.70" y2="26.76" stroke="#7f7f7f" stroke-width="1.00" clip-path="url('#clipping-rect1')" />
		<line x1="663.92" y1="28.88" x2="663.92" y2="26.76" stroke="#7f7f7f" stroke-width="1.00" clip-path="url('#clipping-rect1')" />
		<line x1="670.13" y1="28.88" x2="670.13" y2="26.76" stroke="#7f7f7f" stroke-width="1.00" clip-path="url('#clipping-rect1')" />
		<line x1="676.35" y1="28.88" x2="676.35" y2="25.71" stroke="#7f7f7f" stroke-width="1.00" clip-path="url('#clipping-rect1')" />
		<line x1="682.57" y1="28.88" x2="682.57" y2="26.76" stroke="#7f7f7f" stroke-width="1.00" clip-path="url('#clipping-rect1')" />
		<line x1="688.79" y1="28.88" x2="688.79" y2="26.76" stroke="#7f7f7f" stroke-width="1.00" clip-path="url('#clipping-rect1')" />
		<line x1="695.00" y1="28.88" x2="695.00" y2="26.76" stroke="#7f7f7f" stroke-width="1.00" clip-path="url('#clipping-rect1')" />
		<line x1="701.22" y1="28.88" x2="701.22" y2="26.76" stroke="#7f7f7f" stroke-width="1.00" clip-path="url('#clipping-rect1')" />
		<line x1="707.44" y1="28.88" x2="707.44" y2="25.71" stroke="#7f7f7f" stroke-width="1.00" clip-path="url('#clipping-rect1')" />
		<line x1="713.65" y1="28.88" x2="713.65" y2="26.76" stroke="#7f7f7f" stroke-width="1.00" clip-path="url('#clipping-rect1')" />
		<line x1="719.87" y1="28.88" x2="719.87" y2="26.76" stroke="#7f7f7f" stroke-width="1.00" clip-path="url('#clipping-rect1')" />
		<line x1="726.09" y1="28.88" x2="726.09" y2="26.76" stroke="#7f7f7f" stroke-width="1.00" clip-path="url('#clipping-rect1')" />
		<line x1="732.30" y1="28.88" x2="732.30" y2="26.76" stroke="#7f7f7f" stroke-width="1.00" clip-path="url('#clipping-rect1')" />
		<line x1="738.52" y1="28.88" x2="738.52" y2="25.71" stroke="#7f7f7f" stroke-width="1.00" clip-path="url('#clipping-rect1')" />
		<line x1="744.74" y1="28.88" x2="744.74" y2="26.76" stroke="#7f7f7f" stroke-width="1.00" clip-path="url('#clipping-rect1')" />
		<line x1="750.95" y1="28.88" x2="750.95" y2="26.76" stroke="#7f7f7f" stroke-width="1.00" clip-path="url('#clipping-rect1')" />
		<line x1="757.17" y1="28.88" x2="757.17" y2="26.76" stroke="#7f7f7f" stroke-width="1.00" clip-path="url('#clipping-rect1')" />
		<line x1="763.39" y1="28.88" x2="763.39" y2="26.76" stroke="#7f7f7f" stroke-width="1.00" clip-path="url('#clipping-rect1')" />
		<line x1="769.60" y1="28.88" x2="769.60" y2="25.71" stroke="#7f7f7f" stroke-width="1.00" clip-path="url('#clipping-rect1')" />
		<line x1="775.82" y1="28.88" x2="775.82" y2="26.76" stroke="#7f7f7f" stroke-width="1.00" clip-path="url('#clipping-rect1')" />
		<line x1="782.04" y1="28.88" x2="782.04" y2="26.76" stroke="#7f7f7f" stroke-width="1.00" clip-path="url('#clipping-rect1')" />
		<line x1="788.25" y1="28.88" x2="788.25" y2="26.76" stroke="#7f7f7f" stroke-width="1.00" clip-path="url('#clipping-rect1')" />
		<line x1="794.47" y1="28.88" x2="794.47" y2="26.76" stroke="#7f7f7f" stroke-width="1.00" clip-path="url('#clipping-rect1')" />
		<line x1="800.69" y1="28.88" x2="800.69" y2="25.71" stroke="#7f7f7f" stroke-width="1.00" clip-path="url('#clipping-rect1')" />
		<line x1="806.91" y1="28.88" x2="806.91" y2="26.76" stroke="#7f7f7f" stroke-width="1.00" clip-path="url('#clipping-rect1')" />
		<line x1="813.12" y1="28.88" x2="813.12" y2="26.76" stroke="#7f7f7f" stroke-width="1.00" clip-path="url('#clipping-rect1')" />
		<line x1="819.34" y1="28.88" x2="819.34" y2="26.76" stroke="#7f7f7f" stroke-width="1.00" clip-path="url('#clipping-rect1')" />
		<line x1="825.56" y1="28.88" x2="825.56" y2="26.76" stroke="#7f7f7f" stroke-width="1.00" clip-path="url('#clipping-rect1')" />
		<line x1="831.77" y1="28.88" x2="831.77" y2="25.71" stroke="#7f7f7f" stroke-width="1.00" clip-path="url('#clipping-rect1')" />
		<line x1="837.99" y1="28.88" x2="837.99" y2="26.76" stroke="#7f7f7f" stroke-width="1.00" clip-path="url('#clipping-rect1')" />
		<line x1="844.21" y1="28.88" x2="844.21" y2="26.76" stroke="#7f7f7f" stroke-width="1.00" clip-path="url('#clipping-rect1')" />
		<line x1="850.42" y1="28.88" x2="850.42" y2="26.76" stroke="#7f7f7f" stroke-width="1.00" clip-path="url('#clipping-rect1')" />
		<line x1="856.64" y1="28.88" x2="856.64" y2="26.76" stroke="#7f7f7f" stroke-width="1.00" clip-path="url('#clipping-rect1')" />
		<line x1="862.86" y1="28.88" x2="862.86" y2="25.71" stroke="#7f7f7f" stroke-width="1.00" clip-path="url('#clipping-rect1')" />
		<line x1="869.07" y1="28.88" x2="869.07" y2="26.76" stroke="#7f7f7f" stroke-width="1.00" clip-path="url('#clipping-rect1')" />
		<line x1="875.29" y1="28.88" x2="875.29" y2="26.76" stroke="#7f7f7f" stroke-width="1.00" clip-path="url('#clipping-rect1')" />
		<line x1="879.00" y1="31.00" x2="879.00" y2="15.12" stroke="#7f7f7f" stroke-width="1.00" clip-path="url('#clipping-rect1')" />
		<line x1="862.86" y1="31.00" x2="862.86" y2="15.12" stroke="#7f7f7f" stroke-width="1.00" clip-path="url('#clipping-rect1')" />
		<text x="802.69" y="23.59" font-family="Helvetica" font-size="10" fill="#333333" clip-path="url('#clipping-rect1')" >280 K</text>
		<line x1="800.69" y1="31.00" x2="800.69" y2="15.12" stroke="#7f7f7f" stroke-width="1.00" clip-path="url('#clipping-rect1')" />
		<text x="740.52" y="23.59" font-family="Helvetica" font-size="10" fill="#333333" clip-path="url('#clipping-rect1')" >260 K</text>
		<line x1="738.52" y1="31.00" x2="738.52" y2="15.12" stroke="#7f7f7f" stroke-width="1.00" clip-path="url('#clipping-rect1')" />
		<text x="678.35" y="23.59" font-family="Helvetica" font-size="10" fill="#333333" clip-path="url('#clipping-rect1')" >240 K</text>
		<line x1="676.35" y1="31.00" x2="676.35" y2="15.12" stroke="#7f7f7f" stroke-width="1.00" clip-path="url('#clipping-rect1')" />
		<text x="616.18" y="23.59" font-family="Helvetica" font-size="10" fill="#333333" clip-path="url('#clipping-rect1')" >220 K</text>
		<line x1="614.18" y1="31.00" x2="614.18" y2="15.12" stroke="#7f7f7f" stroke-width="1.00" clip-path="url('#clipping-rect1')" />
		<text x="554.02" y="23.59" font-family="Helvetica" font-size="10" fill="#333333" clip-path="url('#clipping-rect1')" >200 K</text>
		<line x1="552.02" y1="31.00" x2="552.02" y2="15.12" stroke="#7f7f7f" stroke-width="1.00" clip-path="url('#clipping-rect1')" />
		<text x="491.85" y="23.59" font-family="Helvetica" font-size="10" fill="#333333" clip-path="url('#clipping-rect1')" >180 K</text>
		<line x1="489.85" y1="31.00" x2="489.85" y2="15.12" stroke="#7f7f7f" stroke-width="1.00" clip-path="url('#clipping-rect1')" />
		<text x="429.68" y="23.59" font-family="Helvetica" font-size="10" fill="#333333" clip-path="url('#clipping-rect1')" >160 K</text>
		<line x1="427.68" y1="31.00" x2="427.68" y2="15.12" stroke="#7f7f7f" stroke-width="1.00" clip-path="url('#clipping-rect1')" />
		<text x="367.51" y="23.59" font-family="Helvetica" font-size="10" fill="#333333" clip-path="url('#clipping-rect1')" >140 K</text>
		<line x1="365.51" y1="31.00" x2="365.51" y2="15.12" stroke="#7f7f7f" stroke-width="1.00" clip-path="url('#clipping-rect1')" />
		<text x="305.34" y="23.59" font-family="Helvetica" font-size="10" fill="#333333" clip-path="url('#clipping-rect1')" >120 K</text>
		<line x1="303.34" y1="31.00" x2="303.34" y2="15.12" stroke="#7f7f7f" stroke-width="1.00" clip-path="url('#clipping-rect1')" />
		<text x="243.17" y="23.59" font-family="Helvetica" font-size="10" fill="#333333" clip-path="url('#clipping-rect1')" >100 K</text>
		<line x1="241.17" y1="31.00" x2="241.17" y2="15.12" stroke="#7f7f7f" stroke-width="1.00" clip-path="url('#clipping-rect1')" />
		<text x="181.01" y="23.59" font-family="Helvetica" font-size="10" fill="#333333" clip-path="url('#clipping-rect1')" >80 K</text>
		<line x1="179.01" y1="31.00" x2="179.01" y2="15.12" stroke="#7f7f7f" stroke-width="1.00" clip-path="url('#clipping-rect1')" />
		<text x="118.84" y="23.59" font-family="Helvetica" font-size="10" fill="#333333" clip-path="url('#clipping-rect1')" >60 K</text>
		<line x1="116.84" y1="31.00" x2="116.84" y2="15.12" stroke="#7f7f7f" stroke-width="1.00" clip-path="url('#clipping-rect1')" />
		<text x="56.67" y="23.59" font-family="Helvetica" font-size="10" fill="#333333" clip-path="url('#clipping-rect1')" >40 K</text>
		<line x1="54.67" y1="31.00" x2="54.67" y2="15.12" stroke="#7f7f7f" stroke-width="1.00" clip-path="url('#clipping-rect1')" />
		<line x1="54.06" y1="233.00" x2="54.06" y2="31.00" stroke="#ebebeb" stroke-width="1.00" />
		<line x1="116.13" y1="233.00" x2="116.13" y2="31.00" stroke="#ebebeb" stroke-width="1.00" />
		<line x1="179.20" y1="233.00" x2="179.20" y2="31.00" stroke="#ebebeb" stroke-width="1.00" />
		<line x1="241.27" y1="233.00" x2="241.27" y2="31.00" stroke="#ebebeb" stroke-width="1.00" />
		<line x1="303.35" y1="233.00" x2="303.35" y2="31.00" stroke="#ebebeb" stroke-width="1.00" />
		<line x1="365.42" y1="233.00" x2="365.42" y2="31.00" stroke="#ebebeb" stroke-width="1.00" />
		<line x1="427.49" y1="233.00" x2="427.49" y2="31.00" stroke="#ebebeb" stroke-width="1.00" />
		<line x1="489.56" y1="233.00" x2="489.56" y2="31.00" stroke="#ebebeb" stroke-width="1.00" />
		<line x1="552.63" y1="233.00" x2="552.63" y2="31.00" stroke="#ebebeb" stroke-width="1.00" />
		<line x1="614.70" y1="233.00" x2="614.70" y2="31.00" stroke="#ebebeb" stroke-width="1.00" />
		<line x1="676.77" y1="233.00" x2="676.77" y2="31.00" stroke="#ebebeb" stroke-width="1.00" />
		<line x1="738.84" y1="233.00" x2="738.84" y2="31.00" stroke="#ebebeb" stroke-width="1.00" />
		<line x1="800.91" y1="233.00" x2="800.91" y2="31.00" stroke="#ebebeb" stroke-width="1.00" />
		<line x1="862.98" y1="233.00" x2="862.98" y2="31.00" stroke="#ebebeb" stroke-width="1.00" />
		<polygon fill="url('#gradient1')" shape-rendering="crispEdges" points="879.00,37.50 879.00,33.00 0.00,33.00 0.00,37.50 0.00,42.00 879.00,42.00 " />
		<line x1="0.00" y1="42.00" x2="0.00" y2="33.00" stroke="#6c6c6c" stroke-width="1.00" stroke-linejoin="round" />
		<line x1="0.00" y1="33.00" x2="879.00" y2="33.00" stroke="#6c6c6c" stroke-width="1.00" stroke-linejoin="round" />
		<line x1="879.00" y1="33.00" x2="879.00" y2="42.00" stroke="#6c6c6c" stroke-width="1.00" stroke-linejoin="round" />
		<line x1="0.00" y1="42.00" x2="879.00" y2="42.00" stroke="#6c6c6c" stroke-width="1.00" stroke-linejoin="round" />
		<polygon fill="url('#gradient2')" shape-rendering="crispEdges" points="0.00,58.00 879.00,58.00 879.00,44.00 0.00,44.00 " clip-path="url('#clipping-rect2')" />
		<text x="0.00" y="54.00" font-family="Helvetica" font-size="12" fill="#333333" >(U) BLAST Results for: ref|NM_032753.4|</text>
		<polygon fill="url('#gradient2')" shape-rendering="crispEdges" points="0.00,74.00 879.00,74.00 879.00,60.00 0.00,60.00 " clip-path="url('#clipping-rect2')" />
		<text x="0.00" y="70.00" font-family="Helvetica" font-size="12" fill="#333333" >(U) Alignment for group templates, BLAST Results for: ref|NM_032753.4|</text>
		<polygon fill="url('#gradient2')" shape-rendering="crispEdges" points="0.00,90.00 879.00,90.00 879.00,76.00 0.00,76.00 " clip-path="url('#clipping-rect2')" />
		<text x="0.00" y="86.00" font-family="Helvetica" font-size="12" fill="#333333" >(U) BLAST Results for: ref|NM_032753.4|</text>
		<polygon fill="url('#gradient2')" shape-rendering="crispEdges" points="0.00,106.00 879.00,106.00 879.00,92.00 0.00,92.00 " clip-path="url('#clipping-rect2')" />
		<text x="0.00" y="102.00" font-family="Helvetica" font-size="12" fill="#333333" >(U) BLAST Results for: ref|NM_032753.4|</text>
		<polygon fill="#c6c6c6" shape-rendering="crispEdges" points="817.38,125.00 817.38,135.00 814.01,135.00 814.01,125.00 " />
		<polygon fill="url('#gradient2')" shape-rendering="crispEdges" points="0.00,122.00 879.00,122.00 879.00,108.00 0.00,108.00 " clip-path="url('#clipping-rect2')" />
		<text x="0.00" y="118.00" font-family="Helvetica" font-size="12" fill="#333333" >(U) Alignment for group templates, BLAST Results for: ref|NM_032753.4|</text>
		<polygon fill="#e16868" shape-rendering="crispEdges" points="814.74,155.00 814.74,165.00 813.74,165.00 813.74,155.00 " />
		<polygon fill="#e94d4d" shape-rendering="crispEdges" points="817.38,169.00 817.38,179.00 816.09,179.00 816.09,169.00 " />
		<polygon fill="url('#gradient2')" shape-rendering="crispEdges" points="0.00,152.00 879.00,152.00 879.00,138.00 0.00,138.00 " clip-path="url('#clipping-rect2')" />
		<text x="0.00" y="148.00" font-family="Helvetica" font-size="12" fill="#333333" >(U) BLAST Results for: ref|NM_032753.4|</text>
		<line x1="6.71" y1="201.00" x2="6.71" y2="229.00" stroke="#009900" stroke-opacity="0.10" stroke-width="1.00" stroke-linejoin="round" />
		<line x1="6.71" y1="229.00" x2="570.95" y2="229.00" stroke="#009900" stroke-opacity="0.10" stroke-width="1.00" stroke-linejoin="round" />
		<line x1="570.95" y1="229.00" x2="570.95" y2="201.00" stroke="#009900" stroke-opacity="0.10" stroke-width="1.00" stroke-linejoin="round" />
		<line x1="6.71" y1="201.00" x2="570.95" y2="201.00" stroke="#009900" stroke-opacity="0.10" stroke-width="1.00" stroke-linejoin="round" />
		<text x="234.42" y="210.00" font-family="Helvetica" font-size="10" fill="#124d94" >ENSSPUG00000004147</text>
		<polygon fill="#1e8c1e" shape-rendering="crispEdges" points="129.14,216.00 129.14,227.00 128.04,227.00 128.04,216.00 " />
		<line x1="129.14" y1="221.50" x2="140.69" y2="221.50" stroke="#4ba34b" stroke-width="2.00" />
		<polygon fill="#1e8c1e" shape-rendering="crispEdges" points="141.43,216.00 141.43,227.00 140.43,227.00 140.43,216.00 " />
		<line x1="141.18" y1="221.50" x2="179.56" y2="221.50" stroke="#4ba34b" stroke-width="2.00" />
		<polygon fill="#b2b2b2" shape-rendering="crispEdges" points="155.97,221.50 164.77,217.10 162.57,221.50 164.77,225.90 " />
		<polygon fill="#1e8c1e" shape-rendering="crispEdges" points="180.31,216.00 180.31,227.00 179.31,227.00 179.31,216.00 " />
		<line x1="180.06" y1="221.50" x2="180.19" y2="221.50" stroke="#4ba34b" stroke-width="2.00" />
		<polygon fill="#1e8c1e" shape-rendering="crispEdges" points="180.76,216.00 180.76,227.00 179.76,227.00 179.76,216.00 " />
		<line x1="180.34" y1="221.50" x2="430.57" y2="221.50" stroke="#4ba34b" stroke-width="2.00" />
		<polygon fill="#b2b2b2" shape-rendering="crispEdges" points="201.06,221.50 209.86,217.10 207.66,221.50 209.86,225.90 " />
		<polygon fill="#9d9d9d" shape-rendering="crispEdges" points="301.06,221.50 309.86,217.10 307.66,221.50 309.86,225.90 " />
		<polygon fill="#878787" shape-rendering="crispEdges" points="401.06,221.50 409.86,217.10 407.66,221.50 409.86,225.90 " />
		<polygon fill="#1e8c1e" shape-rendering="crispEdges" points="431.13,216.00 431.13,227.00 430.13,227.00 430.13,216.00 " />
		<line x1="430.70" y1="221.50" x2="446.01" y2="221.50" stroke="#4ba34b" stroke-width="2.00" />
		<polygon fill="#b2b2b2" shape-rendering="crispEdges" points="433.95,221.50 442.75,217.10 440.55,221.50 442.75,225.90 " />
		<polygon fill="#1e8c1e" shape-rendering="crispEdges" points="450.18,216.00 450.18,227.00 446.01,227.00 446.01,216.00 " />
		<polygon fill="#ffffff" shape-rendering="crispEdges" points="128.04,227.00 128.04,216.00 9.71,216.00 9.71,227.00 " />
		<text x="9.71" y="225.00" font-family="Helvetica" font-size="10" fill="#124d94" >ENSSPUP00000005409.1</text>
		<polygon fill="#ffffff" shape-rendering="crispEdges" points="568.95,227.00 568.95,216.00 454.18,216.00 454.18,227.00 " />
		<text x="454.18" y="225.00" font-family="Helvetica" font-size="10" fill="#124d94" >ENSSPUT00000005745.1</text>
		<polygon fill="url('#gradient3')" shape-rendering="crispEdges" points="0.00,196.00 879.00,196.00 879.00,182.00 0.00,182.00 " clip-path="url('#clipping-rect2')" />
		<text x="0.00" y="192.00" font-family="Helvetica" font-size="12" fill="#333333" >Genes, Ensembl release 114</text>
		<polygon fill="#0000ff" fill-opacity="0.20" shape-rendering="crispEdges" points="223.50,31.50 223.50,23.10 223.50,23.10 " />
		<polygon fill="#0000ff" fill-opacity="0.20" shape-rendering="crispEdges" points="223.50,31.50 223.50,31.50 223.50,23.10 " />
		<line x1="223.50" y1="30.50" x2="223.50" y2="23.10" stroke="#0000ff" stroke-opacity="0.40" stroke-width="1.00" />
		<line x1="223.50" y1="30.50" x2="223.50" y2="23.10" stroke="#0000ff" stroke-opacity="0.40" stroke-width="1.00" />
		<polygon fill="#0000ff" shape-rendering="crispEdges" points="217.79,22.35 217.50,20.50 217.79,18.65 218.65,16.97 219.97,15.65 221.65,14.79 223.50,14.50 223.50,26.50 221.65,26.21 219.97,25.35 218.65,24.03 " />
		<polygon fill="#0000ff" fill-opacity="0.60" shape-rendering="crispEdges" points="252.53,26.50 252.53,14.50 223.50,14.50 223.50,26.50 " />
		<text x="225.50" y="23.50" font-family="Helvetica" font-size="10" fill="#ffffff" >GZF1</text>
		<polygon fill="#0000ff" fill-opacity="0.20" shape-rendering="crispEdges" points="223.25,234.00 223.25,31.00 223.25,31.00 " />
		<polygon fill="#0000ff" fill-opacity="0.20" shape-rendering="crispEdges" points="223.25,234.00 223.25,234.00 223.25,31.00 " />
		<line x1="223.25" y1="233.00" x2="223.25" y2="31.00" stroke="#0000ff" stroke-opacity="0.40" stroke-width="1.00" />
		<line x1="223.25" y1="233.00" x2="223.25" y2="31.00" stroke="#0000ff" stroke-opacity="0.40" stroke-width="1.00" />
		<polygon fill="#ff0000" fill-opacity="0.20" shape-rendering="crispEdges" points="817.50,23.10 817.50,31.50 811.50,31.50 811.50,23.10 " />
		<line x1="811.50" y1="30.50" x2="811.50" y2="23.10" stroke="#ff0000" stroke-opacity="0.40" stroke-width="1.00" />
		<line x1="817.50" y1="30.50" x2="817.50" y2="23.10" stroke="#ff0000" stroke-opacity="0.40" stroke-width="1.00" />
		<polygon fill="#ff0000" shape-rendering="crispEdges" points="805.79,22.35 805.50,20.50 805.79,18.65 806.65,16.97 807.97,15.65 809.65,14.79 811.50,14.50 811.50,26.50 809.65,26.21 807.97,25.35 806.65,24.03 " />
		<polygon fill="#ff0000" fill-opacity="0.60" shape-rendering="crispEdges" points="838.38,26.50 838.38,14.50 811.50,14.50 811.50,26.50 " />
		<text x="813.50" y="23.50" font-family="Helvetica" font-size="10" fill="#ffffff" >cd93</text>
		<polygon fill="#ff0000" fill-opacity="0.20" shape-rendering="crispEdges" points="817.93,31.00 817.93,234.00 811.92,234.00 811.92,31.00 " />
		<line x1="811.92" y1="233.00" x2="811.92" y2="31.00" stroke="#ff0000" stroke-opacity="0.40" stroke-width="1.00" />
		<line x1="817.93" y1="233.00" x2="817.93" y2="31.00" stroke="#ff0000" stroke-opacity="0.40" stroke-width="1.00" />
		<polygon fill="#e5e5e5" shape-rendering="crispEdges" points="879.00,13.00 879.00,-1.00 0.00,-1.00 0.00,13.00 " />
		<text x="0.00" y="10.00" font-family="Helvetica Bold" font-size="12" text-anchor="start" fill="#000000" >QEPC01008643.1:22412..305193 Sphenodon punctatus isolate mauimua-1 ScrUdWx_4042, whole genome shotgun sequence</text>
	</g>
</svg>
