<?xml version="1.0" standalone="no" ?>
<!DOCTYPE svg PUBLIC "-//W3C//DTD SVG 1.1//EN" "http://www.w3.org/Graphics/SVG/1.1/DTD/svg11.dtd">
<svg width="879px" height="347px" xmlns="http://www.w3.org/2000/svg" version="1.1" viewBox="0 0 879 347" >
	<style type="text/css" > <![CDATA[
		@import url("https://www.ncbi.nlm.nih.gov/projects/sviewer/css/svg_fonts.css");
	]]>
	</style>
	<desc >Generated by NCBI Genome Workbench http://www.ncbi.nlm.nih.gov/tools/gbench/</desc>
	<defs >
		<clipPath id="clipping-rect1" >
			<rect x="0" y="14" width="879" height="18" />
		</clipPath>
		<linearGradient id="gradient1" gradientTransform="rotate(90)" >
			<stop offset="0%" stop-color="#6c6c6c" />
			<stop offset="50%" stop-color="#b5b5b5" />
			<stop offset="100%" stop-color="#6c6c6c" />
		</linearGradient>
		<clipPath id="clipping-rect2" >
			<rect x="0" y="32" width="879" height="315" />
		</clipPath>
		<linearGradient id="gradient2" gradientTransform="rotate(90)" >
			<stop offset="0%" stop-color="#b6dead" />
			<stop offset="100%" stop-color="#ffffff" stop-opacity="0.00" />
		</linearGradient>
		<linearGradient id="gradient3" gradientTransform="rotate(90)" >
			<stop offset="0%" stop-color="#e6e6e6" stop-opacity="0.71" />
			<stop offset="100%" stop-color="#ffffff" stop-opacity="0.00" />
		</linearGradient>
	</defs>
	<g >
		<polygon fill="#ffffff" shape-rendering="crispEdges" points="879.00,31.00 879.00,13.00 0.00,13.00 0.00,31.00 " />
		<line x1="0.00" y1="29.00" x2="879.00" y2="29.00" stroke="#7f7f7f" stroke-width="1.00" clip-path="url('#clipping-rect1')" />
		<line x1="879.00" y1="29.00" x2="879.00" y2="26.00" stroke="#7f7f7f" stroke-width="1.00" clip-path="url('#clipping-rect1')" />
		<line x1="871.06" y1="29.00" x2="871.06" y2="27.00" stroke="#7f7f7f" stroke-width="1.00" clip-path="url('#clipping-rect1')" />
		<line x1="863.12" y1="29.00" x2="863.12" y2="27.00" stroke="#7f7f7f" stroke-width="1.00" clip-path="url('#clipping-rect1')" />
		<line x1="855.17" y1="29.00" x2="855.17" y2="27.00" stroke="#7f7f7f" stroke-width="1.00" clip-path="url('#clipping-rect1')" />
		<line x1="847.23" y1="29.00" x2="847.23" y2="27.00" stroke="#7f7f7f" stroke-width="1.00" clip-path="url('#clipping-rect1')" />
		<line x1="839.29" y1="29.00" x2="839.29" y2="27.00" stroke="#7f7f7f" stroke-width="1.00" clip-path="url('#clipping-rect1')" />
		<line x1="831.35" y1="29.00" x2="831.35" y2="27.00" stroke="#7f7f7f" stroke-width="1.00" clip-path="url('#clipping-rect1')" />
		<line x1="823.41" y1="29.00" x2="823.41" y2="27.00" stroke="#7f7f7f" stroke-width="1.00" clip-path="url('#clipping-rect1')" />
		<line x1="815.47" y1="29.00" x2="815.47" y2="27.00" stroke="#7f7f7f" stroke-width="1.00" clip-path="url('#clipping-rect1')" />
		<line x1="807.52" y1="29.00" x2="807.52" y2="27.00" stroke="#7f7f7f" stroke-width="1.00" clip-path="url('#clipping-rect1')" />
		<line x1="799.58" y1="29.00" x2="799.58" y2="26.00" stroke="#7f7f7f" stroke-width="1.00" clip-path="url('#clipping-rect1')" />
		<line x1="791.64" y1="29.00" x2="791.64" y2="27.00" stroke="#7f7f7f" stroke-width="1.00" clip-path="url('#clipping-rect1')" />
		<line x1="783.70" y1="29.00" x2="783.70" y2="27.00" stroke="#7f7f7f" stroke-width="1.00" clip-path="url('#clipping-rect1')" />
		<line x1="775.76" y1="29.00" x2="775.76" y2="27.00" stroke="#7f7f7f" stroke-width="1.00" clip-path="url('#clipping-rect1')" />
		<line x1="767.81" y1="29.00" x2="767.81" y2="27.00" stroke="#7f7f7f" stroke-width="1.00" clip-path="url('#clipping-rect1')" />
		<line x1="759.87" y1="29.00" x2="759.87" y2="27.00" stroke="#7f7f7f" stroke-width="1.00" clip-path="url('#clipping-rect1')" />
		<line x1="751.93" y1="29.00" x2="751.93" y2="27.00" stroke="#7f7f7f" stroke-width="1.00" clip-path="url('#clipping-rect1')" />
		<line x1="743.99" y1="29.00" x2="743.99" y2="27.00" stroke="#7f7f7f" stroke-width="1.00" clip-path="url('#clipping-rect1')" />
		<line x1="736.05" y1="29.00" x2="736.05" y2="27.00" stroke="#7f7f7f" stroke-width="1.00" clip-path="url('#clipping-rect1')" />
		<line x1="728.11" y1="29.00" x2="728.11" y2="27.00" stroke="#7f7f7f" stroke-width="1.00" clip-path="url('#clipping-rect1')" />
		<line x1="720.16" y1="29.00" x2="720.16" y2="26.00" stroke="#7f7f7f" stroke-width="1.00" clip-path="url('#clipping-rect1')" />
		<line x1="712.22" y1="29.00" x2="712.22" y2="27.00" stroke="#7f7f7f" stroke-width="1.00" clip-path="url('#clipping-rect1')" />
		<line x1="704.28" y1="29.00" x2="704.28" y2="27.00" stroke="#7f7f7f" stroke-width="1.00" clip-path="url('#clipping-rect1')" />
		<line x1="696.34" y1="29.00" x2="696.34" y2="27.00" stroke="#7f7f7f" stroke-width="1.00" clip-path="url('#clipping-rect1')" />
		<line x1="688.40" y1="29.00" x2="688.40" y2="27.00" stroke="#7f7f7f" stroke-width="1.00" clip-path="url('#clipping-rect1')" />
		<line x1="680.45" y1="29.00" x2="680.45" y2="27.00" stroke="#7f7f7f" stroke-width="1.00" clip-path="url('#clipping-rect1')" />
		<line x1="672.51" y1="29.00" x2="672.51" y2="27.00" stroke="#7f7f7f" stroke-width="1.00" clip-path="url('#clipping-rect1')" />
		<line x1="664.57" y1="29.00" x2="664.57" y2="27.00" stroke="#7f7f7f" stroke-width="1.00" clip-path="url('#clipping-rect1')" />
		<line x1="656.63" y1="29.00" x2="656.63" y2="27.00" stroke="#7f7f7f" stroke-width="1.00" clip-path="url('#clipping-rect1')" />
		<line x1="648.69" y1="29.00" x2="648.69" y2="27.00" stroke="#7f7f7f" stroke-width="1.00" clip-path="url('#clipping-rect1')" />
		<line x1="640.74" y1="29.00" x2="640.74" y2="26.00" stroke="#7f7f7f" stroke-width="1.00" clip-path="url('#clipping-rect1')" />
		<line x1="632.80" y1="29.00" x2="632.80" y2="27.00" stroke="#7f7f7f" stroke-width="1.00" clip-path="url('#clipping-rect1')" />
		<line x1="624.86" y1="29.00" x2="624.86" y2="27.00" stroke="#7f7f7f" stroke-width="1.00" clip-path="url('#clipping-rect1')" />
		<line x1="616.92" y1="29.00" x2="616.92" y2="27.00" stroke="#7f7f7f" stroke-width="1.00" clip-path="url('#clipping-rect1')" />
		<line x1="608.98" y1="29.00" x2="608.98" y2="27.00" stroke="#7f7f7f" stroke-width="1.00" clip-path="url('#clipping-rect1')" />
		<line x1="601.04" y1="29.00" x2="601.04" y2="27.00" stroke="#7f7f7f" stroke-width="1.00" clip-path="url('#clipping-rect1')" />
		<line x1="593.09" y1="29.00" x2="593.09" y2="27.00" stroke="#7f7f7f" stroke-width="1.00" clip-path="url('#clipping-rect1')" />
		<line x1="585.15" y1="29.00" x2="585.15" y2="27.00" stroke="#7f7f7f" stroke-width="1.00" clip-path="url('#clipping-rect1')" />
		<line x1="577.21" y1="29.00" x2="577.21" y2="27.00" stroke="#7f7f7f" stroke-width="1.00" clip-path="url('#clipping-rect1')" />
		<line x1="569.27" y1="29.00" x2="569.27" y2="27.00" stroke="#7f7f7f" stroke-width="1.00" clip-path="url('#clipping-rect1')" />
		<line x1="561.33" y1="29.00" x2="561.33" y2="26.00" stroke="#7f7f7f" stroke-width="1.00" clip-path="url('#clipping-rect1')" />
		<line x1="553.38" y1="29.00" x2="553.38" y2="27.00" stroke="#7f7f7f" stroke-width="1.00" clip-path="url('#clipping-rect1')" />
		<line x1="545.44" y1="29.00" x2="545.44" y2="27.00" stroke="#7f7f7f" stroke-width="1.00" clip-path="url('#clipping-rect1')" />
		<line x1="537.50" y1="29.00" x2="537.50" y2="27.00" stroke="#7f7f7f" stroke-width="1.00" clip-path="url('#clipping-rect1')" />
		<line x1="529.56" y1="29.00" x2="529.56" y2="27.00" stroke="#7f7f7f" stroke-width="1.00" clip-path="url('#clipping-rect1')" />
		<line x1="521.62" y1="29.00" x2="521.62" y2="27.00" stroke="#7f7f7f" stroke-width="1.00" clip-path="url('#clipping-rect1')" />
		<line x1="513.67" y1="29.00" x2="513.67" y2="27.00" stroke="#7f7f7f" stroke-width="1.00" clip-path="url('#clipping-rect1')" />
		<line x1="505.73" y1="29.00" x2="505.73" y2="27.00" stroke="#7f7f7f" stroke-width="1.00" clip-path="url('#clipping-rect1')" />
		<line x1="497.79" y1="29.00" x2="497.79" y2="27.00" stroke="#7f7f7f" stroke-width="1.00" clip-path="url('#clipping-rect1')" />
		<line x1="489.85" y1="29.00" x2="489.85" y2="27.00" stroke="#7f7f7f" stroke-width="1.00" clip-path="url('#clipping-rect1')" />
		<line x1="481.91" y1="29.00" x2="481.91" y2="26.00" stroke="#7f7f7f" stroke-width="1.00" clip-path="url('#clipping-rect1')" />
		<line x1="473.97" y1="29.00" x2="473.97" y2="27.00" stroke="#7f7f7f" stroke-width="1.00" clip-path="url('#clipping-rect1')" />
		<line x1="466.02" y1="29.00" x2="466.02" y2="27.00" stroke="#7f7f7f" stroke-width="1.00" clip-path="url('#clipping-rect1')" />
		<line x1="458.08" y1="29.00" x2="458.08" y2="27.00" stroke="#7f7f7f" stroke-width="1.00" clip-path="url('#clipping-rect1')" />
		<line x1="450.14" y1="29.00" x2="450.14" y2="27.00" stroke="#7f7f7f" stroke-width="1.00" clip-path="url('#clipping-rect1')" />
		<line x1="442.20" y1="29.00" x2="442.20" y2="27.00" stroke="#7f7f7f" stroke-width="1.00" clip-path="url('#clipping-rect1')" />
		<line x1="434.26" y1="29.00" x2="434.26" y2="27.00" stroke="#7f7f7f" stroke-width="1.00" clip-path="url('#clipping-rect1')" />
		<line x1="426.31" y1="29.00" x2="426.31" y2="27.00" stroke="#7f7f7f" stroke-width="1.00" clip-path="url('#clipping-rect1')" />
		<line x1="418.37" y1="29.00" x2="418.37" y2="27.00" stroke="#7f7f7f" stroke-width="1.00" clip-path="url('#clipping-rect1')" />
		<line x1="410.43" y1="29.00" x2="410.43" y2="27.00" stroke="#7f7f7f" stroke-width="1.00" clip-path="url('#clipping-rect1')" />
		<line x1="402.49" y1="29.00" x2="402.49" y2="26.00" stroke="#7f7f7f" stroke-width="1.00" clip-path="url('#clipping-rect1')" />
		<line x1="394.55" y1="29.00" x2="394.55" y2="27.00" stroke="#7f7f7f" stroke-width="1.00" clip-path="url('#clipping-rect1')" />
		<line x1="386.61" y1="29.00" x2="386.61" y2="27.00" stroke="#7f7f7f" stroke-width="1.00" clip-path="url('#clipping-rect1')" />
		<line x1="378.66" y1="29.00" x2="378.66" y2="27.00" stroke="#7f7f7f" stroke-width="1.00" clip-path="url('#clipping-rect1')" />
		<line x1="370.72" y1="29.00" x2="370.72" y2="27.00" stroke="#7f7f7f" stroke-width="1.00" clip-path="url('#clipping-rect1')" />
		<line x1="362.78" y1="29.00" x2="362.78" y2="27.00" stroke="#7f7f7f" stroke-width="1.00" clip-path="url('#clipping-rect1')" />
		<line x1="354.84" y1="29.00" x2="354.84" y2="27.00" stroke="#7f7f7f" stroke-width="1.00" clip-path="url('#clipping-rect1')" />
		<line x1="346.90" y1="29.00" x2="346.90" y2="27.00" stroke="#7f7f7f" stroke-width="1.00" clip-path="url('#clipping-rect1')" />
		<line x1="338.95" y1="29.00" x2="338.95" y2="27.00" stroke="#7f7f7f" stroke-width="1.00" clip-path="url('#clipping-rect1')" />
		<line x1="331.01" y1="29.00" x2="331.01" y2="27.00" stroke="#7f7f7f" stroke-width="1.00" clip-path="url('#clipping-rect1')" />
		<line x1="323.07" y1="29.00" x2="323.07" y2="26.00" stroke="#7f7f7f" stroke-width="1.00" clip-path="url('#clipping-rect1')" />
		<line x1="315.13" y1="29.00" x2="315.13" y2="27.00" stroke="#7f7f7f" stroke-width="1.00" clip-path="url('#clipping-rect1')" />
		<line x1="307.19" y1="29.00" x2="307.19" y2="27.00" stroke="#7f7f7f" stroke-width="1.00" clip-path="url('#clipping-rect1')" />
		<line x1="299.24" y1="29.00" x2="299.24" y2="27.00" stroke="#7f7f7f" stroke-width="1.00" clip-path="url('#clipping-rect1')" />
		<line x1="291.30" y1="29.00" x2="291.30" y2="27.00" stroke="#7f7f7f" stroke-width="1.00" clip-path="url('#clipping-rect1')" />
		<line x1="283.36" y1="29.00" x2="283.36" y2="27.00" stroke="#7f7f7f" stroke-width="1.00" clip-path="url('#clipping-rect1')" />
		<line x1="275.42" y1="29.00" x2="275.42" y2="27.00" stroke="#7f7f7f" stroke-width="1.00" clip-path="url('#clipping-rect1')" />
		<line x1="267.48" y1="29.00" x2="267.48" y2="27.00" stroke="#7f7f7f" stroke-width="1.00" clip-path="url('#clipping-rect1')" />
		<line x1="259.54" y1="29.00" x2="259.54" y2="27.00" stroke="#7f7f7f" stroke-width="1.00" clip-path="url('#clipping-rect1')" />
		<line x1="251.59" y1="29.00" x2="251.59" y2="27.00" stroke="#7f7f7f" stroke-width="1.00" clip-path="url('#clipping-rect1')" />
		<line x1="243.65" y1="29.00" x2="243.65" y2="26.00" stroke="#7f7f7f" stroke-width="1.00" clip-path="url('#clipping-rect1')" />
		<line x1="235.71" y1="29.00" x2="235.71" y2="27.00" stroke="#7f7f7f" stroke-width="1.00" clip-path="url('#clipping-rect1')" />
		<line x1="227.77" y1="29.00" x2="227.77" y2="27.00" stroke="#7f7f7f" stroke-width="1.00" clip-path="url('#clipping-rect1')" />
		<line x1="219.83" y1="29.00" x2="219.83" y2="27.00" stroke="#7f7f7f" stroke-width="1.00" clip-path="url('#clipping-rect1')" />
		<line x1="211.88" y1="29.00" x2="211.88" y2="27.00" stroke="#7f7f7f" stroke-width="1.00" clip-path="url('#clipping-rect1')" />
		<line x1="203.94" y1="29.00" x2="203.94" y2="27.00" stroke="#7f7f7f" stroke-width="1.00" clip-path="url('#clipping-rect1')" />
		<line x1="196.00" y1="29.00" x2="196.00" y2="27.00" stroke="#7f7f7f" stroke-width="1.00" clip-path="url('#clipping-rect1')" />
		<line x1="188.06" y1="29.00" x2="188.06" y2="27.00" stroke="#7f7f7f" stroke-width="1.00" clip-path="url('#clipping-rect1')" />
		<line x1="180.12" y1="29.00" x2="180.12" y2="27.00" stroke="#7f7f7f" stroke-width="1.00" clip-path="url('#clipping-rect1')" />
		<line x1="172.18" y1="29.00" x2="172.18" y2="27.00" stroke="#7f7f7f" stroke-width="1.00" clip-path="url('#clipping-rect1')" />
		<line x1="164.23" y1="29.00" x2="164.23" y2="26.00" stroke="#7f7f7f" stroke-width="1.00" clip-path="url('#clipping-rect1')" />
		<line x1="156.29" y1="29.00" x2="156.29" y2="27.00" stroke="#7f7f7f" stroke-width="1.00" clip-path="url('#clipping-rect1')" />
		<line x1="148.35" y1="29.00" x2="148.35" y2="27.00" stroke="#7f7f7f" stroke-width="1.00" clip-path="url('#clipping-rect1')" />
		<line x1="140.41" y1="29.00" x2="140.41" y2="27.00" stroke="#7f7f7f" stroke-width="1.00" clip-path="url('#clipping-rect1')" />
		<line x1="132.47" y1="29.00" x2="132.47" y2="27.00" stroke="#7f7f7f" stroke-width="1.00" clip-path="url('#clipping-rect1')" />
		<line x1="124.52" y1="29.00" x2="124.52" y2="27.00" stroke="#7f7f7f" stroke-width="1.00" clip-path="url('#clipping-rect1')" />
		<line x1="116.58" y1="29.00" x2="116.58" y2="27.00" stroke="#7f7f7f" stroke-width="1.00" clip-path="url('#clipping-rect1')" />
		<line x1="108.64" y1="29.00" x2="108.64" y2="27.00" stroke="#7f7f7f" stroke-width="1.00" clip-path="url('#clipping-rect1')" />
		<line x1="100.70" y1="29.00" x2="100.70" y2="27.00" stroke="#7f7f7f" stroke-width="1.00" clip-path="url('#clipping-rect1')" />
		<line x1="92.76" y1="29.00" x2="92.76" y2="27.00" stroke="#7f7f7f" stroke-width="1.00" clip-path="url('#clipping-rect1')" />
		<line x1="84.81" y1="29.00" x2="84.81" y2="26.00" stroke="#7f7f7f" stroke-width="1.00" clip-path="url('#clipping-rect1')" />
		<line x1="76.87" y1="29.00" x2="76.87" y2="27.00" stroke="#7f7f7f" stroke-width="1.00" clip-path="url('#clipping-rect1')" />
		<line x1="68.93" y1="29.00" x2="68.93" y2="27.00" stroke="#7f7f7f" stroke-width="1.00" clip-path="url('#clipping-rect1')" />
		<line x1="60.99" y1="29.00" x2="60.99" y2="27.00" stroke="#7f7f7f" stroke-width="1.00" clip-path="url('#clipping-rect1')" />
		<line x1="53.05" y1="29.00" x2="53.05" y2="27.00" stroke="#7f7f7f" stroke-width="1.00" clip-path="url('#clipping-rect1')" />
		<line x1="45.11" y1="29.00" x2="45.11" y2="27.00" stroke="#7f7f7f" stroke-width="1.00" clip-path="url('#clipping-rect1')" />
		<line x1="37.16" y1="29.00" x2="37.16" y2="27.00" stroke="#7f7f7f" stroke-width="1.00" clip-path="url('#clipping-rect1')" />
		<line x1="29.22" y1="29.00" x2="29.22" y2="27.00" stroke="#7f7f7f" stroke-width="1.00" clip-path="url('#clipping-rect1')" />
		<line x1="21.28" y1="29.00" x2="21.28" y2="27.00" stroke="#7f7f7f" stroke-width="1.00" clip-path="url('#clipping-rect1')" />
		<line x1="13.34" y1="29.00" x2="13.34" y2="27.00" stroke="#7f7f7f" stroke-width="1.00" clip-path="url('#clipping-rect1')" />
		<line x1="5.40" y1="29.00" x2="5.40" y2="26.00" stroke="#7f7f7f" stroke-width="1.00" clip-path="url('#clipping-rect1')" />
		<text x="0.00" y="24.00" font-family="Helvetica" font-size="10" fill="#333333" clip-path="url('#clipping-rect1')" >1,106,794</text>
		<line x1="0.00" y1="31.00" x2="0.00" y2="16.00" stroke="#7f7f7f" stroke-width="1.00" clip-path="url('#clipping-rect1')" />
		<text x="876.55" y="24.00" font-family="Helvetica" font-size="10" fill="#333333" clip-path="url('#clipping-rect1')" >1</text>
		<line x1="879.00" y1="31.00" x2="879.00" y2="16.00" stroke="#7f7f7f" stroke-width="1.00" clip-path="url('#clipping-rect1')" />
		<text x="801.58" y="24.00" font-family="Helvetica" font-size="10" fill="#333333" clip-path="url('#clipping-rect1')" >100 K</text>
		<line x1="799.58" y1="31.00" x2="799.58" y2="16.00" stroke="#7f7f7f" stroke-width="1.00" clip-path="url('#clipping-rect1')" />
		<text x="722.16" y="24.00" font-family="Helvetica" font-size="10" fill="#333333" clip-path="url('#clipping-rect1')" >200 K</text>
		<line x1="720.16" y1="31.00" x2="720.16" y2="16.00" stroke="#7f7f7f" stroke-width="1.00" clip-path="url('#clipping-rect1')" />
		<text x="642.74" y="24.00" font-family="Helvetica" font-size="10" fill="#333333" clip-path="url('#clipping-rect1')" >300 K</text>
		<line x1="640.74" y1="31.00" x2="640.74" y2="16.00" stroke="#7f7f7f" stroke-width="1.00" clip-path="url('#clipping-rect1')" />
		<text x="563.33" y="24.00" font-family="Helvetica" font-size="10" fill="#333333" clip-path="url('#clipping-rect1')" >400 K</text>
		<line x1="561.33" y1="31.00" x2="561.33" y2="16.00" stroke="#7f7f7f" stroke-width="1.00" clip-path="url('#clipping-rect1')" />
		<text x="483.91" y="24.00" font-family="Helvetica" font-size="10" fill="#333333" clip-path="url('#clipping-rect1')" >500 K</text>
		<line x1="481.91" y1="31.00" x2="481.91" y2="16.00" stroke="#7f7f7f" stroke-width="1.00" clip-path="url('#clipping-rect1')" />
		<text x="404.49" y="24.00" font-family="Helvetica" font-size="10" fill="#333333" clip-path="url('#clipping-rect1')" >600 K</text>
		<line x1="402.49" y1="31.00" x2="402.49" y2="16.00" stroke="#7f7f7f" stroke-width="1.00" clip-path="url('#clipping-rect1')" />
		<text x="325.07" y="24.00" font-family="Helvetica" font-size="10" fill="#333333" clip-path="url('#clipping-rect1')" >700 K</text>
		<line x1="323.07" y1="31.00" x2="323.07" y2="16.00" stroke="#7f7f7f" stroke-width="1.00" clip-path="url('#clipping-rect1')" />
		<text x="245.65" y="24.00" font-family="Helvetica" font-size="10" fill="#333333" clip-path="url('#clipping-rect1')" >800 K</text>
		<line x1="243.65" y1="31.00" x2="243.65" y2="16.00" stroke="#7f7f7f" stroke-width="1.00" clip-path="url('#clipping-rect1')" />
		<text x="166.23" y="24.00" font-family="Helvetica" font-size="10" fill="#333333" clip-path="url('#clipping-rect1')" >900 K</text>
		<line x1="164.23" y1="31.00" x2="164.23" y2="16.00" stroke="#7f7f7f" stroke-width="1.00" clip-path="url('#clipping-rect1')" />
		<text x="86.81" y="24.00" font-family="Helvetica" font-size="10" fill="#333333" clip-path="url('#clipping-rect1')" >1 M</text>
		<line x1="84.81" y1="31.00" x2="84.81" y2="16.00" stroke="#7f7f7f" stroke-width="1.00" clip-path="url('#clipping-rect1')" />
		<line x1="879.00" y1="346.00" x2="879.00" y2="31.00" stroke="#ebebeb" stroke-width="1.00" />
		<line x1="799.91" y1="346.00" x2="799.91" y2="31.00" stroke="#ebebeb" stroke-width="1.00" />
		<line x1="720.82" y1="346.00" x2="720.82" y2="31.00" stroke="#ebebeb" stroke-width="1.00" />
		<line x1="640.73" y1="346.00" x2="640.73" y2="31.00" stroke="#ebebeb" stroke-width="1.00" />
		<line x1="561.64" y1="346.00" x2="561.64" y2="31.00" stroke="#ebebeb" stroke-width="1.00" />
		<line x1="481.55" y1="346.00" x2="481.55" y2="31.00" stroke="#ebebeb" stroke-width="1.00" />
		<line x1="402.46" y1="346.00" x2="402.46" y2="31.00" stroke="#ebebeb" stroke-width="1.00" />
		<line x1="323.37" y1="346.00" x2="323.37" y2="31.00" stroke="#ebebeb" stroke-width="1.00" />
		<line x1="243.28" y1="346.00" x2="243.28" y2="31.00" stroke="#ebebeb" stroke-width="1.00" />
		<line x1="164.19" y1="346.00" x2="164.19" y2="31.00" stroke="#ebebeb" stroke-width="1.00" />
		<line x1="84.10" y1="346.00" x2="84.10" y2="31.00" stroke="#ebebeb" stroke-width="1.00" />
		<line x1="5.01" y1="346.00" x2="5.01" y2="31.00" stroke="#ebebeb" stroke-width="1.00" />
		<polygon fill="url('#gradient1')" shape-rendering="crispEdges" points="0.00,37.50 0.00,33.00 879.00,33.00 879.00,37.50 879.00,42.00 0.00,42.00 " />
		<line x1="879.00" y1="42.00" x2="879.00" y2="33.00" stroke="#6c6c6c" stroke-width="1.00" stroke-linejoin="round" />
		<line x1="879.00" y1="33.00" x2="0.00" y2="33.00" stroke="#6c6c6c" stroke-width="1.00" stroke-linejoin="round" />
		<line x1="0.00" y1="33.00" x2="0.00" y2="42.00" stroke="#6c6c6c" stroke-width="1.00" stroke-linejoin="round" />
		<line x1="879.00" y1="42.00" x2="0.00" y2="42.00" stroke="#6c6c6c" stroke-width="1.00" stroke-linejoin="round" />
		<polygon fill="url('#gradient2')" shape-rendering="crispEdges" points="0.00,58.00 879.00,58.00 879.00,44.00 0.00,44.00 " clip-path="url('#clipping-rect2')" />
		<text x="0.00" y="54.00" font-family="Helvetica" font-size="12" fill="#333333" >(U) BLAST Results for: NM_198152:Homo sapiens urotensin 2B (UTS2B),...</text>
		<polygon fill="url('#gradient2')" shape-rendering="crispEdges" points="0.00,74.00 879.00,74.00 879.00,60.00 0.00,60.00 " clip-path="url('#clipping-rect2')" />
		<text x="0.00" y="70.00" font-family="Helvetica" font-size="12" fill="#333333" >(U) Alignment for group templates, BLAST Results for: CAPZA2</text>
		<polygon fill="url('#gradient2')" shape-rendering="crispEdges" points="0.00,90.00 879.00,90.00 879.00,76.00 0.00,76.00 " clip-path="url('#clipping-rect2')" />
		<text x="0.00" y="86.00" font-family="Helvetica" font-size="12" fill="#333333" >(U) BLAST Results for: CAPZA2</text>
		<polygon fill="url('#gradient2')" shape-rendering="crispEdges" points="0.00,106.00 879.00,106.00 879.00,92.00 0.00,92.00 " clip-path="url('#clipping-rect2')" />
		<text x="0.00" y="102.00" font-family="Helvetica" font-size="12" fill="#333333" >(U) Alignment for group templates, BLAST Results for: NM_020165:Homo sapiens RAD18 E3 ubiquitin...</text>
		<polygon fill="url('#gradient2')" shape-rendering="crispEdges" points="0.00,122.00 879.00,122.00 879.00,108.00 0.00,108.00 " clip-path="url('#clipping-rect2')" />
		<text x="0.00" y="118.00" font-family="Helvetica" font-size="12" fill="#333333" >(U) BLAST Results for: NM_020165:Homo sapiens RAD18 E3 ubiquitin...</text>
		<polygon fill="url('#gradient2')" shape-rendering="crispEdges" points="0.00,138.00 879.00,138.00 879.00,124.00 0.00,124.00 " clip-path="url('#clipping-rect2')" />
		<text x="0.00" y="134.00" font-family="Helvetica" font-size="12" fill="#333333" >(U) Alignment for group templates, BLAST Results for: NM_015151:Homo sapiens disco interacting protein...</text>
		<polygon fill="url('#gradient2')" shape-rendering="crispEdges" points="0.00,154.00 879.00,154.00 879.00,140.00 0.00,140.00 " clip-path="url('#clipping-rect2')" />
		<text x="0.00" y="150.00" font-family="Helvetica" font-size="12" fill="#333333" >(U) BLAST Results for: NM_015151:Homo sapiens disco interacting protein...</text>
		<polygon fill="url('#gradient2')" shape-rendering="crispEdges" points="0.00,170.00 879.00,170.00 879.00,156.00 0.00,156.00 " clip-path="url('#clipping-rect2')" />
		<text x="0.00" y="166.00" font-family="Helvetica" font-size="12" fill="#333333" >(U) Alignment for group templates, BLAST Results for: NM_006031:Homo sapiens pericentrin (PCNT),...</text>
		<polygon fill="url('#gradient2')" shape-rendering="crispEdges" points="0.00,186.00 879.00,186.00 879.00,172.00 0.00,172.00 " clip-path="url('#clipping-rect2')" />
		<text x="0.00" y="182.00" font-family="Helvetica" font-size="12" fill="#333333" >(U) BLAST Results for: NM_006031:Homo sapiens pericentrin (PCNT),...</text>
		<polygon fill="url('#gradient2')" shape-rendering="crispEdges" points="0.00,202.00 879.00,202.00 879.00,188.00 0.00,188.00 " clip-path="url('#clipping-rect2')" />
		<text x="0.00" y="198.00" font-family="Helvetica" font-size="12" fill="#333333" >(U) Alignment for group templates, BLAST Results for: XM_011525269:PREDICTED: Homo sapiens ATPase...</text>
		<polygon fill="url('#gradient2')" shape-rendering="crispEdges" points="0.00,218.00 879.00,218.00 879.00,204.00 0.00,204.00 " clip-path="url('#clipping-rect2')" />
		<text x="0.00" y="214.00" font-family="Helvetica" font-size="12" fill="#333333" >(U) BLAST Results for: XM_011525269:PREDICTED: Homo sapiens ATPase...</text>
		<line x1="879.00" y1="239.00" x2="879.00" y2="276.00" stroke="#009900" stroke-opacity="0.10" stroke-width="1.00" stroke-linejoin="round" />
		<line x1="879.00" y1="276.00" x2="570.81" y2="276.00" stroke="#009900" stroke-opacity="0.10" stroke-width="1.00" stroke-linejoin="round" />
		<line x1="570.81" y1="276.00" x2="570.81" y2="239.00" stroke="#009900" stroke-opacity="0.10" stroke-width="1.00" stroke-linejoin="round" />
		<line x1="879.00" y1="239.00" x2="570.81" y2="239.00" stroke="#009900" stroke-opacity="0.10" stroke-width="1.00" stroke-linejoin="round" />
		<text x="699.71" y="248.00" font-family="Helvetica" font-size="10" fill="#124d94" >ENSSPUG00000014079</text>
		<polygon fill="#ffffff" shape-rendering="crispEdges" points="760.23,259.50 760.23,248.50 878.00,248.50 878.00,259.50 " />
		<text x="764.23" y="261.00" font-family="Helvetica" font-size="10" fill="#124d94" >ENSSPUT00000019424.1</text>
		<polygon fill="#1e8c1e" shape-rendering="crispEdges" points="815.96,263.00 815.96,274.00 816.96,274.00 816.96,263.00 " />
		<line x1="816.35" y1="268.50" x2="798.23" y2="268.50" stroke="#4ba34b" stroke-width="2.00" />
		<polygon fill="#b2b2b2" shape-rendering="crispEdges" points="802.89,268.50 811.69,264.10 809.49,268.50 811.69,272.90 " />
		<polygon fill="#1e8c1e" shape-rendering="crispEdges" points="797.71,263.00 797.71,274.00 798.71,274.00 798.71,263.00 " />
		<line x1="798.19" y1="268.50" x2="773.53" y2="268.50" stroke="#4ba34b" stroke-width="2.00" />
		<polygon fill="#b2b2b2" shape-rendering="crispEdges" points="781.46,268.50 790.26,264.10 788.06,268.50 790.26,272.90 " />
		<polygon fill="#1e8c1e" shape-rendering="crispEdges" points="772.99,263.00 772.99,274.00 773.99,274.00 773.99,263.00 " />
		<line x1="773.45" y1="268.50" x2="746.29" y2="268.50" stroke="#4ba34b" stroke-width="2.00" />
		<polygon fill="#b2b2b2" shape-rendering="crispEdges" points="755.47,268.50 764.27,264.10 762.07,268.50 764.27,272.90 " />
		<polygon fill="#1e8c1e" shape-rendering="crispEdges" points="745.74,263.00 745.74,274.00 746.74,274.00 746.74,263.00 " />
		<line x1="746.19" y1="268.50" x2="735.48" y2="268.50" stroke="#4ba34b" stroke-width="2.00" />
		<polygon fill="#1e8c1e" shape-rendering="crispEdges" points="734.94,263.00 734.94,274.00 735.94,274.00 735.94,263.00 " />
		<line x1="735.40" y1="268.50" x2="732.52" y2="268.50" stroke="#4ba34b" stroke-width="2.00" />
		<polygon fill="#1e8c1e" shape-rendering="crispEdges" points="731.99,263.00 731.99,274.00 732.99,274.00 732.99,263.00 " />
		<line x1="732.46" y1="268.50" x2="701.02" y2="268.50" stroke="#4ba34b" stroke-width="2.00" />
		<polygon fill="#b2b2b2" shape-rendering="crispEdges" points="712.34,268.50 721.14,264.10 718.94,268.50 721.14,272.90 " />
		<polygon fill="#1e8c1e" shape-rendering="crispEdges" points="700.50,263.00 700.50,274.00 701.50,274.00 701.50,263.00 " />
		<line x1="700.98" y1="268.50" x2="694.37" y2="268.50" stroke="#4ba34b" stroke-width="2.00" />
		<polygon fill="#1e8c1e" shape-rendering="crispEdges" points="693.84,263.00 693.84,274.00 694.84,274.00 694.84,263.00 " />
		<line x1="694.30" y1="268.50" x2="692.20" y2="268.50" stroke="#4ba34b" stroke-width="2.00" />
		<polygon fill="#1e8c1e" shape-rendering="crispEdges" points="691.67,263.00 691.67,274.00 692.67,274.00 692.67,263.00 " />
		<polygon fill="#ffffff" shape-rendering="crispEdges" points="572.81,274.00 572.81,263.00 688.14,263.00 688.14,274.00 " />
		<text x="573.81" y="272.00" font-family="Helvetica" font-size="10" fill="#124d94" >ENSSPUP00000018239.1</text>
		<line x1="643.25" y1="281.00" x2="643.25" y2="309.00" stroke="#009900" stroke-opacity="0.10" stroke-width="1.00" stroke-linejoin="round" />
		<line x1="643.25" y1="309.00" x2="398.86" y2="309.00" stroke="#009900" stroke-opacity="0.10" stroke-width="1.00" stroke-linejoin="round" />
		<line x1="398.86" y1="309.00" x2="398.86" y2="281.00" stroke="#009900" stroke-opacity="0.10" stroke-width="1.00" stroke-linejoin="round" />
		<line x1="643.25" y1="281.00" x2="398.86" y2="281.00" stroke="#009900" stroke-opacity="0.10" stroke-width="1.00" stroke-linejoin="round" />
		<text x="466.68" y="290.00" font-family="Helvetica" font-size="10" fill="#124d94" >ENSSPUG00000014095</text>
		<polygon fill="#a5d1a5" shape-rendering="crispEdges" points="521.95,296.00 521.95,307.00 522.95,307.00 522.95,296.00 " />
		<polygon fill="#1e8c1e" shape-rendering="crispEdges" points="521.89,296.00 521.89,307.00 522.89,307.00 522.89,296.00 " />
		<line x1="522.35" y1="301.50" x2="520.31" y2="301.50" stroke="#4ba34b" stroke-width="2.00" />
		<polygon fill="#1e8c1e" shape-rendering="crispEdges" points="519.75,296.00 519.75,307.00 520.75,307.00 520.75,296.00 " />
		<polygon fill="#a5d1a5" shape-rendering="crispEdges" points="519.69,296.00 519.69,307.00 520.69,307.00 520.69,296.00 " />
		<polygon fill="#ffffff" shape-rendering="crispEdges" points="522.48,307.00 522.48,296.00 640.25,296.00 640.25,307.00 " />
		<text x="526.48" y="305.00" font-family="Helvetica" font-size="10" fill="#124d94" >ENSSPUT00000019427.1</text>
		<polygon fill="#ffffff" shape-rendering="crispEdges" points="400.86,307.00 400.86,296.00 516.19,296.00 516.19,307.00 " />
		<text x="401.86" y="305.00" font-family="Helvetica" font-size="10" fill="#124d94" >ENSSPUP00000018242.1</text>
		<line x1="634.21" y1="314.00" x2="634.21" y2="342.00" stroke="#009900" stroke-opacity="0.10" stroke-width="1.00" stroke-linejoin="round" />
		<line x1="634.21" y1="342.00" x2="322.69" y2="342.00" stroke="#009900" stroke-opacity="0.10" stroke-width="1.00" stroke-linejoin="round" />
		<line x1="322.69" y1="342.00" x2="322.69" y2="314.00" stroke="#009900" stroke-opacity="0.10" stroke-width="1.00" stroke-linejoin="round" />
		<line x1="634.21" y1="314.00" x2="322.69" y2="314.00" stroke="#009900" stroke-opacity="0.10" stroke-width="1.00" stroke-linejoin="round" />
		<text x="424.10" y="323.00" font-family="Helvetica" font-size="10" fill="#124d94" >ENSSPUG00000014100</text>
		<polygon fill="#a5d1a5" shape-rendering="crispEdges" points="512.92,329.00 512.92,340.00 513.92,340.00 513.92,329.00 " />
		<polygon fill="#1e8c1e" shape-rendering="crispEdges" points="512.83,329.00 512.83,340.00 513.83,340.00 513.83,329.00 " />
		<line x1="513.27" y1="334.50" x2="509.06" y2="334.50" stroke="#4ba34b" stroke-width="2.00" />
		<polygon fill="#1e8c1e" shape-rendering="crispEdges" points="508.51,329.00 508.51,340.00 509.51,340.00 509.51,329.00 " />
		<line x1="508.96" y1="334.50" x2="500.30" y2="334.50" stroke="#4ba34b" stroke-width="2.00" />
		<polygon fill="#1e8c1e" shape-rendering="crispEdges" points="499.74,329.00 499.74,340.00 500.74,340.00 500.74,329.00 " />
		<line x1="500.18" y1="334.50" x2="498.07" y2="334.50" stroke="#4ba34b" stroke-width="2.00" />
		<polygon fill="#1e8c1e" shape-rendering="crispEdges" points="497.54,329.00 497.54,340.00 498.54,340.00 498.54,329.00 " />
		<line x1="498.00" y1="334.50" x2="497.29" y2="334.50" stroke="#4ba34b" stroke-width="2.00" />
		<polygon fill="#1e8c1e" shape-rendering="crispEdges" points="496.74,329.00 496.74,340.00 497.74,340.00 497.74,329.00 " />
		<line x1="497.20" y1="334.50" x2="497.09" y2="334.50" stroke="#4ba34b" stroke-width="2.00" />
		<polygon fill="#1e8c1e" shape-rendering="crispEdges" points="496.49,329.00 496.49,340.00 497.49,340.00 497.49,329.00 " />
		<line x1="496.90" y1="334.50" x2="488.76" y2="334.50" stroke="#4ba34b" stroke-width="2.00" />
		<polygon fill="#1e8c1e" shape-rendering="crispEdges" points="488.20,329.00 488.20,340.00 489.20,340.00 489.20,329.00 " />
		<line x1="488.65" y1="334.50" x2="488.56" y2="334.50" stroke="#4ba34b" stroke-width="2.00" />
		<polygon fill="#1e8c1e" shape-rendering="crispEdges" points="487.99,329.00 487.99,340.00 488.99,340.00 488.99,329.00 " />
		<line x1="488.42" y1="334.50" x2="478.76" y2="334.50" stroke="#4ba34b" stroke-width="2.00" />
		<polygon fill="#1e8c1e" shape-rendering="crispEdges" points="478.16,329.00 478.16,340.00 479.16,340.00 479.16,329.00 " />
		<line x1="478.56" y1="334.50" x2="465.78" y2="334.50" stroke="#4ba34b" stroke-width="2.00" />
		<polygon fill="#1e8c1e" shape-rendering="crispEdges" points="465.20,329.00 465.20,340.00 466.20,340.00 466.20,329.00 " />
		<line x1="465.62" y1="334.50" x2="458.91" y2="334.50" stroke="#4ba34b" stroke-width="2.00" />
		<polygon fill="#1e8c1e" shape-rendering="crispEdges" points="458.31,329.00 458.31,340.00 459.31,340.00 459.31,329.00 " />
		<line x1="458.70" y1="334.50" x2="458.00" y2="334.50" stroke="#4ba34b" stroke-width="2.00" />
		<polygon fill="#1e8c1e" shape-rendering="crispEdges" points="457.38,329.00 457.38,340.00 458.38,340.00 458.38,329.00 " />
		<line x1="457.77" y1="334.50" x2="455.85" y2="334.50" stroke="#4ba34b" stroke-width="2.00" />
		<polygon fill="#1e8c1e" shape-rendering="crispEdges" points="455.27,329.00 455.27,340.00 456.27,340.00 456.27,329.00 " />
		<line x1="455.70" y1="334.50" x2="450.18" y2="334.50" stroke="#4ba34b" stroke-width="2.00" />
		<polygon fill="#1e8c1e" shape-rendering="crispEdges" points="449.59,329.00 449.59,340.00 450.59,340.00 450.59,329.00 " />
		<line x1="450.00" y1="334.50" x2="445.37" y2="334.50" stroke="#4ba34b" stroke-width="2.00" />
		<polygon fill="#1e8c1e" shape-rendering="crispEdges" points="444.53,329.00 444.53,340.00 445.53,340.00 445.53,329.00 " />
		<line x1="444.70" y1="334.50" x2="444.15" y2="334.50" stroke="#4ba34b" stroke-width="2.00" />
		<polygon fill="#1e8c1e" shape-rendering="crispEdges" points="443.62,329.00 443.62,340.00 444.62,340.00 444.62,329.00 " />
		<polygon fill="#a5d1a5" shape-rendering="crispEdges" points="443.55,329.00 443.55,340.00 444.55,340.00 444.55,329.00 " />
		<polygon fill="#ffffff" shape-rendering="crispEdges" points="513.44,340.00 513.44,329.00 631.21,329.00 631.21,340.00 " />
		<text x="517.44" y="338.00" font-family="Helvetica" font-size="10" fill="#124d94" >ENSSPUT00000019436.1</text>
		<polygon fill="#ffffff" shape-rendering="crispEdges" points="324.69,340.00 324.69,329.00 440.01,329.00 440.01,340.00 " />
		<text x="325.69" y="338.00" font-family="Helvetica" font-size="10" fill="#124d94" >ENSSPUP00000018251.1</text>
		<line x1="391.02" y1="272.00" x2="391.02" y2="300.00" stroke="#009900" stroke-opacity="0.10" stroke-width="1.00" stroke-linejoin="round" />
		<line x1="391.02" y1="300.00" x2="128.05" y2="300.00" stroke="#009900" stroke-opacity="0.10" stroke-width="1.00" stroke-linejoin="round" />
		<line x1="128.05" y1="300.00" x2="128.05" y2="272.00" stroke="#009900" stroke-opacity="0.10" stroke-width="1.00" stroke-linejoin="round" />
		<line x1="391.02" y1="272.00" x2="128.05" y2="272.00" stroke="#009900" stroke-opacity="0.10" stroke-width="1.00" stroke-linejoin="round" />
		<text x="205.19" y="281.00" font-family="Helvetica" font-size="10" fill="#124d94" >ENSSPUG00000014113</text>
		<polygon fill="#a5d1a5" shape-rendering="crispEdges" points="268.87,287.00 268.87,298.00 269.87,298.00 269.87,287.00 " />
		<polygon fill="#1e8c1e" shape-rendering="crispEdges" points="268.44,287.00 268.44,298.00 269.44,298.00 269.44,287.00 " />
		<line x1="268.83" y1="292.50" x2="267.88" y2="292.50" stroke="#4ba34b" stroke-width="2.00" />
		<polygon fill="#1e8c1e" shape-rendering="crispEdges" points="267.33,287.00 267.33,298.00 268.33,298.00 268.33,287.00 " />
		<line x1="267.78" y1="292.50" x2="267.46" y2="292.50" stroke="#4ba34b" stroke-width="2.00" />
		<polygon fill="#1e8c1e" shape-rendering="crispEdges" points="266.84,287.00 266.84,298.00 267.84,298.00 267.84,287.00 " />
		<line x1="267.23" y1="292.50" x2="264.73" y2="292.50" stroke="#4ba34b" stroke-width="2.00" />
		<polygon fill="#1e8c1e" shape-rendering="crispEdges" points="264.19,287.00 264.19,298.00 265.19,298.00 265.19,287.00 " />
		<line x1="264.66" y1="292.50" x2="261.14" y2="292.50" stroke="#4ba34b" stroke-width="2.00" />
		<polygon fill="#1e8c1e" shape-rendering="crispEdges" points="260.53,287.00 260.53,298.00 261.53,298.00 261.53,287.00 " />
		<line x1="260.92" y1="292.50" x2="249.26" y2="292.50" stroke="#4ba34b" stroke-width="2.00" />
		<polygon fill="#1e8c1e" shape-rendering="crispEdges" points="248.57,287.00 248.57,298.00 249.57,298.00 249.57,287.00 " />
		<polygon fill="#a5d1a5" shape-rendering="crispEdges" points="248.34,287.00 248.34,298.00 249.34,298.00 249.34,287.00 " />
		<polygon fill="#ffffff" shape-rendering="crispEdges" points="269.69,298.00 269.69,287.00 388.02,287.00 388.02,298.00 " />
		<text x="273.69" y="296.00" font-family="Helvetica" font-size="10" fill="#124d94" >ENSSPUP00000018267.1</text>
		<polygon fill="#ffffff" shape-rendering="crispEdges" points="130.05,298.00 130.05,287.00 244.81,287.00 244.81,298.00 " />
		<text x="131.05" y="296.00" font-family="Helvetica" font-size="10" fill="#124d94" >ENSSPUT00000019456.1</text>
		<line x1="173.55" y1="239.00" x2="173.55" y2="267.00" stroke="#009900" stroke-opacity="0.10" stroke-width="1.00" stroke-linejoin="round" />
		<line x1="173.55" y1="267.00" x2="0.00" y2="267.00" stroke="#009900" stroke-opacity="0.10" stroke-width="1.00" stroke-linejoin="round" />
		<line x1="0.00" y1="267.00" x2="0.00" y2="239.00" stroke="#009900" stroke-opacity="0.10" stroke-width="1.00" stroke-linejoin="round" />
		<line x1="173.55" y1="239.00" x2="0.00" y2="239.00" stroke="#009900" stroke-opacity="0.10" stroke-width="1.00" stroke-linejoin="round" />
		<text x="-12.81" y="248.00" font-family="Helvetica" font-size="10" fill="#124d94" >ENSSPUG00000014118</text>
		<polygon fill="#1e8c1e" shape-rendering="crispEdges" points="52.23,254.00 52.23,265.00 53.23,265.00 53.23,254.00 " />
		<line x1="52.68" y1="259.50" x2="50.20" y2="259.50" stroke="#4ba34b" stroke-width="2.00" />
		<polygon fill="#1e8c1e" shape-rendering="crispEdges" points="49.66,254.00 49.66,265.00 50.66,265.00 50.66,254.00 " />
		<line x1="50.12" y1="259.50" x2="47.57" y2="259.50" stroke="#4ba34b" stroke-width="2.00" />
		<polygon fill="#1e8c1e" shape-rendering="crispEdges" points="47.03,254.00 47.03,265.00 48.03,265.00 48.03,254.00 " />
		<line x1="47.48" y1="259.50" x2="46.86" y2="259.50" stroke="#4ba34b" stroke-width="2.00" />
		<polygon fill="#1e8c1e" shape-rendering="crispEdges" points="46.32,254.00 46.32,265.00 47.32,265.00 47.32,254.00 " />
		<line x1="46.78" y1="259.50" x2="42.30" y2="259.50" stroke="#4ba34b" stroke-width="2.00" />
		<polygon fill="#1e8c1e" shape-rendering="crispEdges" points="41.75,254.00 41.75,265.00 42.75,265.00 42.75,254.00 " />
		<line x1="42.20" y1="259.50" x2="40.46" y2="259.50" stroke="#4ba34b" stroke-width="2.00" />
		<polygon fill="#1e8c1e" shape-rendering="crispEdges" points="39.73,254.00 39.73,265.00 40.73,265.00 40.73,254.00 " />
		<line x1="40.00" y1="259.50" x2="33.70" y2="259.50" stroke="#4ba34b" stroke-width="2.00" />
		<polygon fill="#1e8c1e" shape-rendering="crispEdges" points="33.15,254.00 33.15,265.00 34.15,265.00 34.15,254.00 " />
		<line x1="33.61" y1="259.50" x2="33.42" y2="259.50" stroke="#4ba34b" stroke-width="2.00" />
		<polygon fill="#1e8c1e" shape-rendering="crispEdges" points="32.89,254.00 32.89,265.00 33.89,265.00 33.89,254.00 " />
		<line x1="33.37" y1="259.50" x2="32.44" y2="259.50" stroke="#4ba34b" stroke-width="2.00" />
		<polygon fill="#1e8c1e" shape-rendering="crispEdges" points="31.91,254.00 31.91,265.00 32.91,265.00 32.91,254.00 " />
		<line x1="32.38" y1="259.50" x2="31.64" y2="259.50" stroke="#4ba34b" stroke-width="2.00" />
		<polygon fill="#1e8c1e" shape-rendering="crispEdges" points="31.11,254.00 31.11,265.00 32.11,265.00 32.11,254.00 " />
		<line x1="31.59" y1="259.50" x2="31.02" y2="259.50" stroke="#4ba34b" stroke-width="2.00" />
		<polygon fill="#1e8c1e" shape-rendering="crispEdges" points="30.47,254.00 30.47,265.00 31.47,265.00 31.47,254.00 " />
		<polygon fill="#ffffff" shape-rendering="crispEdges" points="52.78,265.00 52.78,254.00 170.55,254.00 170.55,265.00 " />
		<text x="56.78" y="263.00" font-family="Helvetica" font-size="10" fill="#124d94" >ENSSPUT00000019478.1</text>
		<polygon fill="url('#gradient3')" shape-rendering="crispEdges" points="0.00,234.00 879.00,234.00 879.00,220.00 0.00,220.00 " clip-path="url('#clipping-rect2')" />
		<text x="0.00" y="230.00" font-family="Helvetica" font-size="12" fill="#333333" >Genes, Ensembl release 114</text>
		<polygon fill="#0000ff" fill-opacity="0.20" shape-rendering="crispEdges" points="259.50,31.50 259.50,23.10 259.50,23.10 " />
		<polygon fill="#0000ff" fill-opacity="0.20" shape-rendering="crispEdges" points="259.50,31.50 259.50,31.50 259.50,23.10 " />
		<line x1="259.50" y1="30.50" x2="259.50" y2="23.10" stroke="#0000ff" stroke-opacity="0.40" stroke-width="1.00" />
		<line x1="259.50" y1="30.50" x2="259.50" y2="23.10" stroke="#0000ff" stroke-opacity="0.40" stroke-width="1.00" />
		<polygon fill="#0000ff" shape-rendering="crispEdges" points="253.79,22.35 253.50,20.50 253.79,18.65 254.65,16.97 255.97,15.65 257.65,14.79 259.50,14.50 259.50,26.50 257.65,26.21 255.97,25.35 254.65,24.03 " />
		<polygon fill="#0000ff" fill-opacity="0.60" shape-rendering="crispEdges" points="293.19,26.50 293.19,14.50 259.50,14.50 259.50,26.50 " />
		<text x="261.50" y="23.50" font-family="Helvetica" font-size="10" fill="#ffffff" >TNIP2</text>
		<polygon fill="#0000ff" fill-opacity="0.20" shape-rendering="crispEdges" points="259.29,347.00 259.29,31.00 259.29,31.00 " />
		<polygon fill="#0000ff" fill-opacity="0.20" shape-rendering="crispEdges" points="259.29,347.00 259.29,347.00 259.29,31.00 " />
		<line x1="259.29" y1="346.00" x2="259.29" y2="31.00" stroke="#0000ff" stroke-opacity="0.40" stroke-width="1.00" />
		<line x1="259.29" y1="346.00" x2="259.29" y2="31.00" stroke="#0000ff" stroke-opacity="0.40" stroke-width="1.00" />
		<polygon fill="#0000ff" fill-opacity="0.20" shape-rendering="crispEdges" points="471.50,31.50 471.50,23.10 471.50,23.10 " />
		<polygon fill="#0000ff" fill-opacity="0.20" shape-rendering="crispEdges" points="471.50,31.50 471.50,31.50 471.50,23.10 " />
		<line x1="471.50" y1="30.50" x2="471.50" y2="23.10" stroke="#0000ff" stroke-opacity="0.40" stroke-width="1.00" />
		<line x1="471.50" y1="30.50" x2="471.50" y2="23.10" stroke="#0000ff" stroke-opacity="0.40" stroke-width="1.00" />
		<polygon fill="#0000ff" shape-rendering="crispEdges" points="465.79,22.35 465.50,20.50 465.79,18.65 466.65,16.97 467.97,15.65 469.65,14.79 471.50,14.50 471.50,26.50 469.65,26.21 467.97,25.35 466.65,24.03 " />
		<polygon fill="#0000ff" fill-opacity="0.60" shape-rendering="crispEdges" points="520.92,26.50 520.92,14.50 471.50,14.50 471.50,26.50 " />
		<text x="473.50" y="23.50" font-family="Helvetica" font-size="10" fill="#ffffff" >FAM193A</text>
		<polygon fill="#0000ff" fill-opacity="0.20" shape-rendering="crispEdges" points="471.54,347.00 471.54,31.00 471.54,31.00 " />
		<polygon fill="#0000ff" fill-opacity="0.20" shape-rendering="crispEdges" points="471.54,347.00 471.54,347.00 471.54,31.00 " />
		<line x1="471.54" y1="346.00" x2="471.54" y2="31.00" stroke="#0000ff" stroke-opacity="0.40" stroke-width="1.00" />
		<line x1="471.54" y1="346.00" x2="471.54" y2="31.00" stroke="#0000ff" stroke-opacity="0.40" stroke-width="1.00" />
		<polygon fill="#0000ff" fill-opacity="0.20" shape-rendering="crispEdges" points="39.50,31.50 39.50,23.10 39.50,23.10 " />
		<polygon fill="#0000ff" fill-opacity="0.20" shape-rendering="crispEdges" points="39.50,31.50 39.50,31.50 39.50,23.10 " />
		<line x1="39.50" y1="30.50" x2="39.50" y2="23.10" stroke="#0000ff" stroke-opacity="0.40" stroke-width="1.00" />
		<line x1="39.50" y1="30.50" x2="39.50" y2="23.10" stroke="#0000ff" stroke-opacity="0.40" stroke-width="1.00" />
		<polygon fill="#0000ff" shape-rendering="crispEdges" points="33.79,22.35 33.50,20.50 33.79,18.65 34.65,16.97 35.97,15.65 37.65,14.79 39.50,14.50 39.50,26.50 37.65,26.21 35.97,25.35 34.65,24.03 " />
		<polygon fill="#0000ff" fill-opacity="0.60" shape-rendering="crispEdges" points="82.92,26.50 82.92,14.50 39.50,14.50 39.50,26.50 " />
		<text x="41.50" y="23.50" font-family="Helvetica" font-size="10" fill="#ffffff" >SH3BP2</text>
		<polygon fill="#0000ff" fill-opacity="0.20" shape-rendering="crispEdges" points="39.04,347.00 39.04,31.00 39.04,31.00 " />
		<polygon fill="#0000ff" fill-opacity="0.20" shape-rendering="crispEdges" points="39.04,347.00 39.04,347.00 39.04,31.00 " />
		<line x1="39.04" y1="346.00" x2="39.04" y2="31.00" stroke="#0000ff" stroke-opacity="0.40" stroke-width="1.00" />
		<line x1="39.04" y1="346.00" x2="39.04" y2="31.00" stroke="#0000ff" stroke-opacity="0.40" stroke-width="1.00" />
		<polygon fill="#0000ff" fill-opacity="0.20" shape-rendering="crispEdges" points="727.50,23.10 727.50,31.50 726.50,31.50 726.50,23.10 " />
		<line x1="726.50" y1="30.50" x2="726.50" y2="23.10" stroke="#0000ff" stroke-opacity="0.40" stroke-width="1.00" />
		<line x1="727.50" y1="30.50" x2="727.50" y2="23.10" stroke="#0000ff" stroke-opacity="0.40" stroke-width="1.00" />
		<polygon fill="#0000ff" shape-rendering="crispEdges" points="720.79,22.35 720.50,20.50 720.79,18.65 721.65,16.97 722.97,15.65 724.65,14.79 726.50,14.50 726.50,26.50 724.65,26.21 722.97,25.35 721.65,24.03 " />
		<polygon fill="#0000ff" fill-opacity="0.60" shape-rendering="crispEdges" points="764.84,26.50 764.84,14.50 726.50,14.50 726.50,26.50 " />
		<text x="728.50" y="23.50" font-family="Helvetica" font-size="10" fill="#ffffff" >TECRL</text>
		<polygon fill="#0000ff" fill-opacity="0.20" shape-rendering="crispEdges" points="727.83,31.00 727.83,347.00 726.83,347.00 726.83,31.00 " />
		<line x1="726.83" y1="346.00" x2="726.83" y2="31.00" stroke="#0000ff" stroke-opacity="0.40" stroke-width="1.00" />
		<line x1="727.83" y1="346.00" x2="727.83" y2="31.00" stroke="#0000ff" stroke-opacity="0.40" stroke-width="1.00" />
		<polygon fill="#e5e5e5" shape-rendering="crispEdges" points="879.00,13.00 879.00,-1.00 0.00,-1.00 0.00,13.00 " />
		<text x="0.00" y="10.00" font-family="Helvetica Bold" font-size="12" text-anchor="start" fill="#000000" >QEPC01006964.1:0..1106794 Sphenodon punctatus isolate mauimua-1 ScrUdWx_1201, whole genome shotgun sequence</text>
	</g>
</svg>
