<?xml version="1.0" standalone="no" ?>
<!DOCTYPE svg PUBLIC "-//W3C//DTD SVG 1.1//EN" "http://www.w3.org/Graphics/SVG/1.1/DTD/svg11.dtd">
<svg width="879px" height="262px" xmlns="http://www.w3.org/2000/svg" version="1.1" viewBox="0 0 879 262" >
	<style type="text/css" > <![CDATA[
		@import url("https://www.ncbi.nlm.nih.gov/projects/sviewer/css/svg_fonts.css");
	]]>
	</style>
	<desc >Generated by NCBI Genome Workbench http://www.ncbi.nlm.nih.gov/tools/gbench/</desc>
	<defs >
		<clipPath id="clipping-rect1" >
			<rect x="0" y="14" width="879" height="18" />
		</clipPath>
		<linearGradient id="gradient1" gradientTransform="rotate(90)" >
			<stop offset="0%" stop-color="#6c6c6c" />
			<stop offset="50%" stop-color="#b5b5b5" />
			<stop offset="100%" stop-color="#6c6c6c" />
		</linearGradient>
		<clipPath id="clipping-rect2" >
			<rect x="0" y="32" width="879" height="230" />
		</clipPath>
		<linearGradient id="gradient2" gradientTransform="rotate(90)" >
			<stop offset="0%" stop-color="#b6dead" />
			<stop offset="100%" stop-color="#ffffff" stop-opacity="0.00" />
		</linearGradient>
		<linearGradient id="gradient3" gradientTransform="rotate(90)" >
			<stop offset="0%" stop-color="#e6e6e6" stop-opacity="0.71" />
			<stop offset="100%" stop-color="#ffffff" stop-opacity="0.00" />
		</linearGradient>
	</defs>
	<g >
		<polygon fill="#ffffff" shape-rendering="crispEdges" points="879.00,31.00 879.00,13.00 0.00,13.00 0.00,31.00 " />
		<line x1="0.00" y1="29.00" x2="879.00" y2="29.00" stroke="#7f7f7f" stroke-width="1.00" clip-path="url('#clipping-rect1')" />
		<line x1="875.76" y1="29.00" x2="875.76" y2="27.00" stroke="#7f7f7f" stroke-width="1.00" clip-path="url('#clipping-rect1')" />
		<line x1="870.01" y1="29.00" x2="870.01" y2="26.00" stroke="#7f7f7f" stroke-width="1.00" clip-path="url('#clipping-rect1')" />
		<line x1="864.26" y1="29.00" x2="864.26" y2="27.00" stroke="#7f7f7f" stroke-width="1.00" clip-path="url('#clipping-rect1')" />
		<line x1="858.51" y1="29.00" x2="858.51" y2="26.00" stroke="#7f7f7f" stroke-width="1.00" clip-path="url('#clipping-rect1')" />
		<line x1="852.76" y1="29.00" x2="852.76" y2="27.00" stroke="#7f7f7f" stroke-width="1.00" clip-path="url('#clipping-rect1')" />
		<line x1="847.01" y1="29.00" x2="847.01" y2="26.00" stroke="#7f7f7f" stroke-width="1.00" clip-path="url('#clipping-rect1')" />
		<line x1="841.26" y1="29.00" x2="841.26" y2="27.00" stroke="#7f7f7f" stroke-width="1.00" clip-path="url('#clipping-rect1')" />
		<line x1="835.51" y1="29.00" x2="835.51" y2="26.00" stroke="#7f7f7f" stroke-width="1.00" clip-path="url('#clipping-rect1')" />
		<line x1="829.76" y1="29.00" x2="829.76" y2="27.00" stroke="#7f7f7f" stroke-width="1.00" clip-path="url('#clipping-rect1')" />
		<line x1="824.01" y1="29.00" x2="824.01" y2="26.00" stroke="#7f7f7f" stroke-width="1.00" clip-path="url('#clipping-rect1')" />
		<line x1="818.26" y1="29.00" x2="818.26" y2="27.00" stroke="#7f7f7f" stroke-width="1.00" clip-path="url('#clipping-rect1')" />
		<line x1="812.51" y1="29.00" x2="812.51" y2="26.00" stroke="#7f7f7f" stroke-width="1.00" clip-path="url('#clipping-rect1')" />
		<line x1="806.76" y1="29.00" x2="806.76" y2="27.00" stroke="#7f7f7f" stroke-width="1.00" clip-path="url('#clipping-rect1')" />
		<line x1="801.01" y1="29.00" x2="801.01" y2="26.00" stroke="#7f7f7f" stroke-width="1.00" clip-path="url('#clipping-rect1')" />
		<line x1="795.26" y1="29.00" x2="795.26" y2="27.00" stroke="#7f7f7f" stroke-width="1.00" clip-path="url('#clipping-rect1')" />
		<line x1="789.51" y1="29.00" x2="789.51" y2="26.00" stroke="#7f7f7f" stroke-width="1.00" clip-path="url('#clipping-rect1')" />
		<line x1="783.76" y1="29.00" x2="783.76" y2="27.00" stroke="#7f7f7f" stroke-width="1.00" clip-path="url('#clipping-rect1')" />
		<line x1="778.01" y1="29.00" x2="778.01" y2="26.00" stroke="#7f7f7f" stroke-width="1.00" clip-path="url('#clipping-rect1')" />
		<line x1="772.26" y1="29.00" x2="772.26" y2="27.00" stroke="#7f7f7f" stroke-width="1.00" clip-path="url('#clipping-rect1')" />
		<line x1="766.51" y1="29.00" x2="766.51" y2="26.00" stroke="#7f7f7f" stroke-width="1.00" clip-path="url('#clipping-rect1')" />
		<line x1="760.76" y1="29.00" x2="760.76" y2="27.00" stroke="#7f7f7f" stroke-width="1.00" clip-path="url('#clipping-rect1')" />
		<line x1="755.01" y1="29.00" x2="755.01" y2="26.00" stroke="#7f7f7f" stroke-width="1.00" clip-path="url('#clipping-rect1')" />
		<line x1="749.26" y1="29.00" x2="749.26" y2="27.00" stroke="#7f7f7f" stroke-width="1.00" clip-path="url('#clipping-rect1')" />
		<line x1="743.51" y1="29.00" x2="743.51" y2="26.00" stroke="#7f7f7f" stroke-width="1.00" clip-path="url('#clipping-rect1')" />
		<line x1="737.76" y1="29.00" x2="737.76" y2="27.00" stroke="#7f7f7f" stroke-width="1.00" clip-path="url('#clipping-rect1')" />
		<line x1="732.01" y1="29.00" x2="732.01" y2="26.00" stroke="#7f7f7f" stroke-width="1.00" clip-path="url('#clipping-rect1')" />
		<line x1="726.26" y1="29.00" x2="726.26" y2="27.00" stroke="#7f7f7f" stroke-width="1.00" clip-path="url('#clipping-rect1')" />
		<line x1="720.51" y1="29.00" x2="720.51" y2="26.00" stroke="#7f7f7f" stroke-width="1.00" clip-path="url('#clipping-rect1')" />
		<line x1="714.76" y1="29.00" x2="714.76" y2="27.00" stroke="#7f7f7f" stroke-width="1.00" clip-path="url('#clipping-rect1')" />
		<line x1="709.01" y1="29.00" x2="709.01" y2="26.00" stroke="#7f7f7f" stroke-width="1.00" clip-path="url('#clipping-rect1')" />
		<line x1="703.26" y1="29.00" x2="703.26" y2="27.00" stroke="#7f7f7f" stroke-width="1.00" clip-path="url('#clipping-rect1')" />
		<line x1="697.51" y1="29.00" x2="697.51" y2="26.00" stroke="#7f7f7f" stroke-width="1.00" clip-path="url('#clipping-rect1')" />
		<line x1="691.76" y1="29.00" x2="691.76" y2="27.00" stroke="#7f7f7f" stroke-width="1.00" clip-path="url('#clipping-rect1')" />
		<line x1="686.01" y1="29.00" x2="686.01" y2="26.00" stroke="#7f7f7f" stroke-width="1.00" clip-path="url('#clipping-rect1')" />
		<line x1="680.26" y1="29.00" x2="680.26" y2="27.00" stroke="#7f7f7f" stroke-width="1.00" clip-path="url('#clipping-rect1')" />
		<line x1="674.51" y1="29.00" x2="674.51" y2="26.00" stroke="#7f7f7f" stroke-width="1.00" clip-path="url('#clipping-rect1')" />
		<line x1="668.76" y1="29.00" x2="668.76" y2="27.00" stroke="#7f7f7f" stroke-width="1.00" clip-path="url('#clipping-rect1')" />
		<line x1="663.01" y1="29.00" x2="663.01" y2="26.00" stroke="#7f7f7f" stroke-width="1.00" clip-path="url('#clipping-rect1')" />
		<line x1="657.26" y1="29.00" x2="657.26" y2="27.00" stroke="#7f7f7f" stroke-width="1.00" clip-path="url('#clipping-rect1')" />
		<line x1="651.51" y1="29.00" x2="651.51" y2="26.00" stroke="#7f7f7f" stroke-width="1.00" clip-path="url('#clipping-rect1')" />
		<line x1="645.76" y1="29.00" x2="645.76" y2="27.00" stroke="#7f7f7f" stroke-width="1.00" clip-path="url('#clipping-rect1')" />
		<line x1="640.01" y1="29.00" x2="640.01" y2="26.00" stroke="#7f7f7f" stroke-width="1.00" clip-path="url('#clipping-rect1')" />
		<line x1="634.26" y1="29.00" x2="634.26" y2="27.00" stroke="#7f7f7f" stroke-width="1.00" clip-path="url('#clipping-rect1')" />
		<line x1="628.51" y1="29.00" x2="628.51" y2="26.00" stroke="#7f7f7f" stroke-width="1.00" clip-path="url('#clipping-rect1')" />
		<line x1="622.76" y1="29.00" x2="622.76" y2="27.00" stroke="#7f7f7f" stroke-width="1.00" clip-path="url('#clipping-rect1')" />
		<line x1="617.01" y1="29.00" x2="617.01" y2="26.00" stroke="#7f7f7f" stroke-width="1.00" clip-path="url('#clipping-rect1')" />
		<line x1="611.26" y1="29.00" x2="611.26" y2="27.00" stroke="#7f7f7f" stroke-width="1.00" clip-path="url('#clipping-rect1')" />
		<line x1="605.51" y1="29.00" x2="605.51" y2="26.00" stroke="#7f7f7f" stroke-width="1.00" clip-path="url('#clipping-rect1')" />
		<line x1="599.76" y1="29.00" x2="599.76" y2="27.00" stroke="#7f7f7f" stroke-width="1.00" clip-path="url('#clipping-rect1')" />
		<line x1="594.01" y1="29.00" x2="594.01" y2="26.00" stroke="#7f7f7f" stroke-width="1.00" clip-path="url('#clipping-rect1')" />
		<line x1="588.26" y1="29.00" x2="588.26" y2="27.00" stroke="#7f7f7f" stroke-width="1.00" clip-path="url('#clipping-rect1')" />
		<line x1="582.51" y1="29.00" x2="582.51" y2="26.00" stroke="#7f7f7f" stroke-width="1.00" clip-path="url('#clipping-rect1')" />
		<line x1="576.76" y1="29.00" x2="576.76" y2="27.00" stroke="#7f7f7f" stroke-width="1.00" clip-path="url('#clipping-rect1')" />
		<line x1="571.01" y1="29.00" x2="571.01" y2="26.00" stroke="#7f7f7f" stroke-width="1.00" clip-path="url('#clipping-rect1')" />
		<line x1="565.26" y1="29.00" x2="565.26" y2="27.00" stroke="#7f7f7f" stroke-width="1.00" clip-path="url('#clipping-rect1')" />
		<line x1="559.51" y1="29.00" x2="559.51" y2="26.00" stroke="#7f7f7f" stroke-width="1.00" clip-path="url('#clipping-rect1')" />
		<line x1="553.76" y1="29.00" x2="553.76" y2="27.00" stroke="#7f7f7f" stroke-width="1.00" clip-path="url('#clipping-rect1')" />
		<line x1="548.01" y1="29.00" x2="548.01" y2="26.00" stroke="#7f7f7f" stroke-width="1.00" clip-path="url('#clipping-rect1')" />
		<line x1="542.26" y1="29.00" x2="542.26" y2="27.00" stroke="#7f7f7f" stroke-width="1.00" clip-path="url('#clipping-rect1')" />
		<line x1="536.51" y1="29.00" x2="536.51" y2="26.00" stroke="#7f7f7f" stroke-width="1.00" clip-path="url('#clipping-rect1')" />
		<line x1="530.76" y1="29.00" x2="530.76" y2="27.00" stroke="#7f7f7f" stroke-width="1.00" clip-path="url('#clipping-rect1')" />
		<line x1="525.01" y1="29.00" x2="525.01" y2="26.00" stroke="#7f7f7f" stroke-width="1.00" clip-path="url('#clipping-rect1')" />
		<line x1="519.26" y1="29.00" x2="519.26" y2="27.00" stroke="#7f7f7f" stroke-width="1.00" clip-path="url('#clipping-rect1')" />
		<line x1="513.51" y1="29.00" x2="513.51" y2="26.00" stroke="#7f7f7f" stroke-width="1.00" clip-path="url('#clipping-rect1')" />
		<line x1="507.76" y1="29.00" x2="507.76" y2="27.00" stroke="#7f7f7f" stroke-width="1.00" clip-path="url('#clipping-rect1')" />
		<line x1="502.01" y1="29.00" x2="502.01" y2="26.00" stroke="#7f7f7f" stroke-width="1.00" clip-path="url('#clipping-rect1')" />
		<line x1="496.26" y1="29.00" x2="496.26" y2="27.00" stroke="#7f7f7f" stroke-width="1.00" clip-path="url('#clipping-rect1')" />
		<line x1="490.51" y1="29.00" x2="490.51" y2="26.00" stroke="#7f7f7f" stroke-width="1.00" clip-path="url('#clipping-rect1')" />
		<line x1="484.76" y1="29.00" x2="484.76" y2="27.00" stroke="#7f7f7f" stroke-width="1.00" clip-path="url('#clipping-rect1')" />
		<line x1="479.01" y1="29.00" x2="479.01" y2="26.00" stroke="#7f7f7f" stroke-width="1.00" clip-path="url('#clipping-rect1')" />
		<line x1="473.26" y1="29.00" x2="473.26" y2="27.00" stroke="#7f7f7f" stroke-width="1.00" clip-path="url('#clipping-rect1')" />
		<line x1="467.51" y1="29.00" x2="467.51" y2="26.00" stroke="#7f7f7f" stroke-width="1.00" clip-path="url('#clipping-rect1')" />
		<line x1="461.76" y1="29.00" x2="461.76" y2="27.00" stroke="#7f7f7f" stroke-width="1.00" clip-path="url('#clipping-rect1')" />
		<line x1="456.01" y1="29.00" x2="456.01" y2="26.00" stroke="#7f7f7f" stroke-width="1.00" clip-path="url('#clipping-rect1')" />
		<line x1="450.26" y1="29.00" x2="450.26" y2="27.00" stroke="#7f7f7f" stroke-width="1.00" clip-path="url('#clipping-rect1')" />
		<line x1="444.51" y1="29.00" x2="444.51" y2="26.00" stroke="#7f7f7f" stroke-width="1.00" clip-path="url('#clipping-rect1')" />
		<line x1="438.76" y1="29.00" x2="438.76" y2="27.00" stroke="#7f7f7f" stroke-width="1.00" clip-path="url('#clipping-rect1')" />
		<line x1="433.01" y1="29.00" x2="433.01" y2="26.00" stroke="#7f7f7f" stroke-width="1.00" clip-path="url('#clipping-rect1')" />
		<line x1="427.26" y1="29.00" x2="427.26" y2="27.00" stroke="#7f7f7f" stroke-width="1.00" clip-path="url('#clipping-rect1')" />
		<line x1="421.51" y1="29.00" x2="421.51" y2="26.00" stroke="#7f7f7f" stroke-width="1.00" clip-path="url('#clipping-rect1')" />
		<line x1="415.76" y1="29.00" x2="415.76" y2="27.00" stroke="#7f7f7f" stroke-width="1.00" clip-path="url('#clipping-rect1')" />
		<line x1="410.01" y1="29.00" x2="410.01" y2="26.00" stroke="#7f7f7f" stroke-width="1.00" clip-path="url('#clipping-rect1')" />
		<line x1="404.26" y1="29.00" x2="404.26" y2="27.00" stroke="#7f7f7f" stroke-width="1.00" clip-path="url('#clipping-rect1')" />
		<line x1="398.51" y1="29.00" x2="398.51" y2="26.00" stroke="#7f7f7f" stroke-width="1.00" clip-path="url('#clipping-rect1')" />
		<line x1="392.76" y1="29.00" x2="392.76" y2="27.00" stroke="#7f7f7f" stroke-width="1.00" clip-path="url('#clipping-rect1')" />
		<line x1="387.01" y1="29.00" x2="387.01" y2="26.00" stroke="#7f7f7f" stroke-width="1.00" clip-path="url('#clipping-rect1')" />
		<line x1="381.26" y1="29.00" x2="381.26" y2="27.00" stroke="#7f7f7f" stroke-width="1.00" clip-path="url('#clipping-rect1')" />
		<line x1="375.51" y1="29.00" x2="375.51" y2="26.00" stroke="#7f7f7f" stroke-width="1.00" clip-path="url('#clipping-rect1')" />
		<line x1="369.76" y1="29.00" x2="369.76" y2="27.00" stroke="#7f7f7f" stroke-width="1.00" clip-path="url('#clipping-rect1')" />
		<line x1="364.01" y1="29.00" x2="364.01" y2="26.00" stroke="#7f7f7f" stroke-width="1.00" clip-path="url('#clipping-rect1')" />
		<line x1="358.26" y1="29.00" x2="358.26" y2="27.00" stroke="#7f7f7f" stroke-width="1.00" clip-path="url('#clipping-rect1')" />
		<line x1="352.51" y1="29.00" x2="352.51" y2="26.00" stroke="#7f7f7f" stroke-width="1.00" clip-path="url('#clipping-rect1')" />
		<line x1="346.76" y1="29.00" x2="346.76" y2="27.00" stroke="#7f7f7f" stroke-width="1.00" clip-path="url('#clipping-rect1')" />
		<line x1="341.01" y1="29.00" x2="341.01" y2="26.00" stroke="#7f7f7f" stroke-width="1.00" clip-path="url('#clipping-rect1')" />
		<line x1="335.26" y1="29.00" x2="335.26" y2="27.00" stroke="#7f7f7f" stroke-width="1.00" clip-path="url('#clipping-rect1')" />
		<line x1="329.51" y1="29.00" x2="329.51" y2="26.00" stroke="#7f7f7f" stroke-width="1.00" clip-path="url('#clipping-rect1')" />
		<line x1="323.76" y1="29.00" x2="323.76" y2="27.00" stroke="#7f7f7f" stroke-width="1.00" clip-path="url('#clipping-rect1')" />
		<line x1="318.01" y1="29.00" x2="318.01" y2="26.00" stroke="#7f7f7f" stroke-width="1.00" clip-path="url('#clipping-rect1')" />
		<line x1="312.26" y1="29.00" x2="312.26" y2="27.00" stroke="#7f7f7f" stroke-width="1.00" clip-path="url('#clipping-rect1')" />
		<line x1="306.51" y1="29.00" x2="306.51" y2="26.00" stroke="#7f7f7f" stroke-width="1.00" clip-path="url('#clipping-rect1')" />
		<line x1="300.76" y1="29.00" x2="300.76" y2="27.00" stroke="#7f7f7f" stroke-width="1.00" clip-path="url('#clipping-rect1')" />
		<line x1="295.01" y1="29.00" x2="295.01" y2="26.00" stroke="#7f7f7f" stroke-width="1.00" clip-path="url('#clipping-rect1')" />
		<line x1="289.27" y1="29.00" x2="289.27" y2="27.00" stroke="#7f7f7f" stroke-width="1.00" clip-path="url('#clipping-rect1')" />
		<line x1="283.52" y1="29.00" x2="283.52" y2="26.00" stroke="#7f7f7f" stroke-width="1.00" clip-path="url('#clipping-rect1')" />
		<line x1="277.77" y1="29.00" x2="277.77" y2="27.00" stroke="#7f7f7f" stroke-width="1.00" clip-path="url('#clipping-rect1')" />
		<line x1="272.02" y1="29.00" x2="272.02" y2="26.00" stroke="#7f7f7f" stroke-width="1.00" clip-path="url('#clipping-rect1')" />
		<line x1="266.27" y1="29.00" x2="266.27" y2="27.00" stroke="#7f7f7f" stroke-width="1.00" clip-path="url('#clipping-rect1')" />
		<line x1="260.52" y1="29.00" x2="260.52" y2="26.00" stroke="#7f7f7f" stroke-width="1.00" clip-path="url('#clipping-rect1')" />
		<line x1="254.77" y1="29.00" x2="254.77" y2="27.00" stroke="#7f7f7f" stroke-width="1.00" clip-path="url('#clipping-rect1')" />
		<line x1="249.02" y1="29.00" x2="249.02" y2="26.00" stroke="#7f7f7f" stroke-width="1.00" clip-path="url('#clipping-rect1')" />
		<line x1="243.27" y1="29.00" x2="243.27" y2="27.00" stroke="#7f7f7f" stroke-width="1.00" clip-path="url('#clipping-rect1')" />
		<line x1="237.52" y1="29.00" x2="237.52" y2="26.00" stroke="#7f7f7f" stroke-width="1.00" clip-path="url('#clipping-rect1')" />
		<line x1="231.77" y1="29.00" x2="231.77" y2="27.00" stroke="#7f7f7f" stroke-width="1.00" clip-path="url('#clipping-rect1')" />
		<line x1="226.02" y1="29.00" x2="226.02" y2="26.00" stroke="#7f7f7f" stroke-width="1.00" clip-path="url('#clipping-rect1')" />
		<line x1="220.27" y1="29.00" x2="220.27" y2="27.00" stroke="#7f7f7f" stroke-width="1.00" clip-path="url('#clipping-rect1')" />
		<line x1="214.52" y1="29.00" x2="214.52" y2="26.00" stroke="#7f7f7f" stroke-width="1.00" clip-path="url('#clipping-rect1')" />
		<line x1="208.77" y1="29.00" x2="208.77" y2="27.00" stroke="#7f7f7f" stroke-width="1.00" clip-path="url('#clipping-rect1')" />
		<line x1="203.02" y1="29.00" x2="203.02" y2="26.00" stroke="#7f7f7f" stroke-width="1.00" clip-path="url('#clipping-rect1')" />
		<line x1="197.27" y1="29.00" x2="197.27" y2="27.00" stroke="#7f7f7f" stroke-width="1.00" clip-path="url('#clipping-rect1')" />
		<line x1="191.52" y1="29.00" x2="191.52" y2="26.00" stroke="#7f7f7f" stroke-width="1.00" clip-path="url('#clipping-rect1')" />
		<line x1="185.77" y1="29.00" x2="185.77" y2="27.00" stroke="#7f7f7f" stroke-width="1.00" clip-path="url('#clipping-rect1')" />
		<line x1="180.02" y1="29.00" x2="180.02" y2="26.00" stroke="#7f7f7f" stroke-width="1.00" clip-path="url('#clipping-rect1')" />
		<line x1="174.27" y1="29.00" x2="174.27" y2="27.00" stroke="#7f7f7f" stroke-width="1.00" clip-path="url('#clipping-rect1')" />
		<line x1="168.52" y1="29.00" x2="168.52" y2="26.00" stroke="#7f7f7f" stroke-width="1.00" clip-path="url('#clipping-rect1')" />
		<line x1="162.77" y1="29.00" x2="162.77" y2="27.00" stroke="#7f7f7f" stroke-width="1.00" clip-path="url('#clipping-rect1')" />
		<line x1="157.02" y1="29.00" x2="157.02" y2="26.00" stroke="#7f7f7f" stroke-width="1.00" clip-path="url('#clipping-rect1')" />
		<line x1="151.27" y1="29.00" x2="151.27" y2="27.00" stroke="#7f7f7f" stroke-width="1.00" clip-path="url('#clipping-rect1')" />
		<line x1="145.52" y1="29.00" x2="145.52" y2="26.00" stroke="#7f7f7f" stroke-width="1.00" clip-path="url('#clipping-rect1')" />
		<line x1="139.77" y1="29.00" x2="139.77" y2="27.00" stroke="#7f7f7f" stroke-width="1.00" clip-path="url('#clipping-rect1')" />
		<line x1="134.02" y1="29.00" x2="134.02" y2="26.00" stroke="#7f7f7f" stroke-width="1.00" clip-path="url('#clipping-rect1')" />
		<line x1="128.27" y1="29.00" x2="128.27" y2="27.00" stroke="#7f7f7f" stroke-width="1.00" clip-path="url('#clipping-rect1')" />
		<line x1="122.52" y1="29.00" x2="122.52" y2="26.00" stroke="#7f7f7f" stroke-width="1.00" clip-path="url('#clipping-rect1')" />
		<line x1="116.77" y1="29.00" x2="116.77" y2="27.00" stroke="#7f7f7f" stroke-width="1.00" clip-path="url('#clipping-rect1')" />
		<line x1="111.02" y1="29.00" x2="111.02" y2="26.00" stroke="#7f7f7f" stroke-width="1.00" clip-path="url('#clipping-rect1')" />
		<line x1="105.27" y1="29.00" x2="105.27" y2="27.00" stroke="#7f7f7f" stroke-width="1.00" clip-path="url('#clipping-rect1')" />
		<line x1="99.52" y1="29.00" x2="99.52" y2="26.00" stroke="#7f7f7f" stroke-width="1.00" clip-path="url('#clipping-rect1')" />
		<line x1="93.77" y1="29.00" x2="93.77" y2="27.00" stroke="#7f7f7f" stroke-width="1.00" clip-path="url('#clipping-rect1')" />
		<line x1="88.02" y1="29.00" x2="88.02" y2="26.00" stroke="#7f7f7f" stroke-width="1.00" clip-path="url('#clipping-rect1')" />
		<line x1="82.27" y1="29.00" x2="82.27" y2="27.00" stroke="#7f7f7f" stroke-width="1.00" clip-path="url('#clipping-rect1')" />
		<line x1="76.52" y1="29.00" x2="76.52" y2="26.00" stroke="#7f7f7f" stroke-width="1.00" clip-path="url('#clipping-rect1')" />
		<line x1="70.77" y1="29.00" x2="70.77" y2="27.00" stroke="#7f7f7f" stroke-width="1.00" clip-path="url('#clipping-rect1')" />
		<line x1="65.02" y1="29.00" x2="65.02" y2="26.00" stroke="#7f7f7f" stroke-width="1.00" clip-path="url('#clipping-rect1')" />
		<line x1="59.27" y1="29.00" x2="59.27" y2="27.00" stroke="#7f7f7f" stroke-width="1.00" clip-path="url('#clipping-rect1')" />
		<line x1="53.52" y1="29.00" x2="53.52" y2="26.00" stroke="#7f7f7f" stroke-width="1.00" clip-path="url('#clipping-rect1')" />
		<line x1="47.77" y1="29.00" x2="47.77" y2="27.00" stroke="#7f7f7f" stroke-width="1.00" clip-path="url('#clipping-rect1')" />
		<line x1="42.02" y1="29.00" x2="42.02" y2="26.00" stroke="#7f7f7f" stroke-width="1.00" clip-path="url('#clipping-rect1')" />
		<line x1="36.27" y1="29.00" x2="36.27" y2="27.00" stroke="#7f7f7f" stroke-width="1.00" clip-path="url('#clipping-rect1')" />
		<line x1="30.52" y1="29.00" x2="30.52" y2="26.00" stroke="#7f7f7f" stroke-width="1.00" clip-path="url('#clipping-rect1')" />
		<line x1="24.77" y1="29.00" x2="24.77" y2="27.00" stroke="#7f7f7f" stroke-width="1.00" clip-path="url('#clipping-rect1')" />
		<line x1="19.02" y1="29.00" x2="19.02" y2="26.00" stroke="#7f7f7f" stroke-width="1.00" clip-path="url('#clipping-rect1')" />
		<line x1="13.27" y1="29.00" x2="13.27" y2="27.00" stroke="#7f7f7f" stroke-width="1.00" clip-path="url('#clipping-rect1')" />
		<line x1="7.52" y1="29.00" x2="7.52" y2="26.00" stroke="#7f7f7f" stroke-width="1.00" clip-path="url('#clipping-rect1')" />
		<line x1="1.77" y1="29.00" x2="1.77" y2="27.00" stroke="#7f7f7f" stroke-width="1.00" clip-path="url('#clipping-rect1')" />
		<line x1="858.51" y1="31.00" x2="858.51" y2="16.00" stroke="#7f7f7f" stroke-width="1.00" clip-path="url('#clipping-rect1')" />
		<text x="803.01" y="24.00" font-family="Helvetica" font-size="10" fill="#333333" clip-path="url('#clipping-rect1')" >450 K</text>
		<line x1="801.01" y1="31.00" x2="801.01" y2="16.00" stroke="#7f7f7f" stroke-width="1.00" clip-path="url('#clipping-rect1')" />
		<text x="745.51" y="24.00" font-family="Helvetica" font-size="10" fill="#333333" clip-path="url('#clipping-rect1')" >500 K</text>
		<line x1="743.51" y1="31.00" x2="743.51" y2="16.00" stroke="#7f7f7f" stroke-width="1.00" clip-path="url('#clipping-rect1')" />
		<text x="688.01" y="24.00" font-family="Helvetica" font-size="10" fill="#333333" clip-path="url('#clipping-rect1')" >550 K</text>
		<line x1="686.01" y1="31.00" x2="686.01" y2="16.00" stroke="#7f7f7f" stroke-width="1.00" clip-path="url('#clipping-rect1')" />
		<text x="630.51" y="24.00" font-family="Helvetica" font-size="10" fill="#333333" clip-path="url('#clipping-rect1')" >600 K</text>
		<line x1="628.51" y1="31.00" x2="628.51" y2="16.00" stroke="#7f7f7f" stroke-width="1.00" clip-path="url('#clipping-rect1')" />
		<text x="573.01" y="24.00" font-family="Helvetica" font-size="10" fill="#333333" clip-path="url('#clipping-rect1')" >650 K</text>
		<line x1="571.01" y1="31.00" x2="571.01" y2="16.00" stroke="#7f7f7f" stroke-width="1.00" clip-path="url('#clipping-rect1')" />
		<text x="515.51" y="24.00" font-family="Helvetica" font-size="10" fill="#333333" clip-path="url('#clipping-rect1')" >700 K</text>
		<line x1="513.51" y1="31.00" x2="513.51" y2="16.00" stroke="#7f7f7f" stroke-width="1.00" clip-path="url('#clipping-rect1')" />
		<text x="458.01" y="24.00" font-family="Helvetica" font-size="10" fill="#333333" clip-path="url('#clipping-rect1')" >750 K</text>
		<line x1="456.01" y1="31.00" x2="456.01" y2="16.00" stroke="#7f7f7f" stroke-width="1.00" clip-path="url('#clipping-rect1')" />
		<text x="400.51" y="24.00" font-family="Helvetica" font-size="10" fill="#333333" clip-path="url('#clipping-rect1')" >800 K</text>
		<line x1="398.51" y1="31.00" x2="398.51" y2="16.00" stroke="#7f7f7f" stroke-width="1.00" clip-path="url('#clipping-rect1')" />
		<text x="343.01" y="24.00" font-family="Helvetica" font-size="10" fill="#333333" clip-path="url('#clipping-rect1')" >850 K</text>
		<line x1="341.01" y1="31.00" x2="341.01" y2="16.00" stroke="#7f7f7f" stroke-width="1.00" clip-path="url('#clipping-rect1')" />
		<text x="285.52" y="24.00" font-family="Helvetica" font-size="10" fill="#333333" clip-path="url('#clipping-rect1')" >900 K</text>
		<line x1="283.52" y1="31.00" x2="283.52" y2="16.00" stroke="#7f7f7f" stroke-width="1.00" clip-path="url('#clipping-rect1')" />
		<text x="228.02" y="24.00" font-family="Helvetica" font-size="10" fill="#333333" clip-path="url('#clipping-rect1')" >950 K</text>
		<line x1="226.02" y1="31.00" x2="226.02" y2="16.00" stroke="#7f7f7f" stroke-width="1.00" clip-path="url('#clipping-rect1')" />
		<text x="170.52" y="24.00" font-family="Helvetica" font-size="10" fill="#333333" clip-path="url('#clipping-rect1')" >1 M</text>
		<line x1="168.52" y1="31.00" x2="168.52" y2="16.00" stroke="#7f7f7f" stroke-width="1.00" clip-path="url('#clipping-rect1')" />
		<text x="113.02" y="24.00" font-family="Helvetica" font-size="10" fill="#333333" clip-path="url('#clipping-rect1')" >1,050 K</text>
		<line x1="111.02" y1="31.00" x2="111.02" y2="16.00" stroke="#7f7f7f" stroke-width="1.00" clip-path="url('#clipping-rect1')" />
		<text x="55.52" y="24.00" font-family="Helvetica" font-size="10" fill="#333333" clip-path="url('#clipping-rect1')" >1,100 K</text>
		<line x1="53.52" y1="31.00" x2="53.52" y2="16.00" stroke="#7f7f7f" stroke-width="1.00" clip-path="url('#clipping-rect1')" />
		<line x1="858.98" y1="261.00" x2="858.98" y2="31.00" stroke="#ebebeb" stroke-width="1.00" />
		<line x1="801.91" y1="261.00" x2="801.91" y2="31.00" stroke="#ebebeb" stroke-width="1.00" />
		<line x1="743.85" y1="261.00" x2="743.85" y2="31.00" stroke="#ebebeb" stroke-width="1.00" />
		<line x1="686.78" y1="261.00" x2="686.78" y2="31.00" stroke="#ebebeb" stroke-width="1.00" />
		<line x1="628.72" y1="261.00" x2="628.72" y2="31.00" stroke="#ebebeb" stroke-width="1.00" />
		<line x1="571.65" y1="261.00" x2="571.65" y2="31.00" stroke="#ebebeb" stroke-width="1.00" />
		<line x1="513.58" y1="261.00" x2="513.58" y2="31.00" stroke="#ebebeb" stroke-width="1.00" />
		<line x1="456.52" y1="261.00" x2="456.52" y2="31.00" stroke="#ebebeb" stroke-width="1.00" />
		<line x1="398.45" y1="261.00" x2="398.45" y2="31.00" stroke="#ebebeb" stroke-width="1.00" />
		<line x1="341.39" y1="261.00" x2="341.39" y2="31.00" stroke="#ebebeb" stroke-width="1.00" />
		<line x1="283.32" y1="261.00" x2="283.32" y2="31.00" stroke="#ebebeb" stroke-width="1.00" />
		<line x1="226.26" y1="261.00" x2="226.26" y2="31.00" stroke="#ebebeb" stroke-width="1.00" />
		<line x1="168.19" y1="261.00" x2="168.19" y2="31.00" stroke="#ebebeb" stroke-width="1.00" />
		<line x1="111.13" y1="261.00" x2="111.13" y2="31.00" stroke="#ebebeb" stroke-width="1.00" />
		<line x1="53.06" y1="261.00" x2="53.06" y2="31.00" stroke="#ebebeb" stroke-width="1.00" />
		<polygon fill="url('#gradient1')" shape-rendering="crispEdges" points="0.00,37.50 0.00,33.00 879.00,33.00 879.00,37.50 879.00,42.00 0.00,42.00 " />
		<line x1="879.00" y1="42.00" x2="879.00" y2="33.00" stroke="#6c6c6c" stroke-width="1.00" stroke-linejoin="round" />
		<line x1="879.00" y1="33.00" x2="0.00" y2="33.00" stroke="#6c6c6c" stroke-width="1.00" stroke-linejoin="round" />
		<line x1="0.00" y1="33.00" x2="0.00" y2="42.00" stroke="#6c6c6c" stroke-width="1.00" stroke-linejoin="round" />
		<line x1="879.00" y1="42.00" x2="0.00" y2="42.00" stroke="#6c6c6c" stroke-width="1.00" stroke-linejoin="round" />
		<polygon fill="url('#gradient2')" shape-rendering="crispEdges" points="0.00,58.00 879.00,58.00 879.00,44.00 0.00,44.00 " clip-path="url('#clipping-rect2')" />
		<text x="0.00" y="54.00" font-family="Helvetica" font-size="12" fill="#333333" >(U) BLAST Results for: ref|NM_032753.4|</text>
		<line x1="497.70" y1="92.00" x2="454.29" y2="92.00" stroke="#124d94" stroke-width="1.00" />
		<polygon fill="#cccccc" shape-rendering="crispEdges" points="496.00,87.00 496.00,97.00 497.00,97.00 497.00,87.00 " />
		<polygon fill="#df7f7f" shape-rendering="crispEdges" points="495.00,87.00 495.00,97.00 496.00,97.00 496.00,87.00 " />
		<polygon fill="#de8282" shape-rendering="crispEdges" points="473.00,87.00 473.00,97.00 474.00,97.00 474.00,87.00 " />
		<polygon fill="#dd8484" shape-rendering="crispEdges" points="467.00,87.00 467.00,97.00 468.00,97.00 468.00,87.00 " />
		<polygon fill="#dc8a8a" shape-rendering="crispEdges" points="456.00,87.00 456.00,97.00 457.00,97.00 457.00,87.00 " />
		<polygon fill="#dd8686" shape-rendering="crispEdges" points="454.00,87.00 454.00,97.00 455.00,97.00 455.00,87.00 " />
		<line x1="514.70" y1="87.00" x2="514.70" y2="97.00" stroke="#ff7f7f" stroke-width="1.00" />
		<line x1="514.70" y1="97.00" x2="502.70" y2="97.00" stroke="#ff7f7f" stroke-width="1.00" />
		<line x1="502.70" y1="97.00" x2="502.70" y2="87.00" stroke="#ff7f7f" stroke-width="1.00" />
		<line x1="514.70" y1="87.00" x2="502.70" y2="87.00" stroke="#ff7f7f" stroke-width="1.00" />
		<line x1="514.70" y1="97.00" x2="510.70" y2="87.00" stroke="#ff0000" stroke-width="1.00" />
		<line x1="510.70" y1="87.00" x2="509.70" y2="97.00" stroke="#ff0000" stroke-width="1.00" />
		<line x1="509.70" y1="97.00" x2="507.70" y2="87.00" stroke="#ff0000" stroke-width="1.00" />
		<line x1="507.70" y1="87.00" x2="506.70" y2="97.00" stroke="#ff0000" stroke-width="1.00" />
		<line x1="506.70" y1="97.00" x2="502.70" y2="87.00" stroke="#ff0000" stroke-width="1.00" />
		<text x="519.70" y="95.00" font-family="Helvetica" font-size="10" fill="#124d94" >477</text>
		<line x1="449.29" y1="87.00" x2="449.29" y2="97.00" stroke="#ff7f7f" stroke-width="1.00" />
		<line x1="449.29" y1="97.00" x2="437.29" y2="97.00" stroke="#ff7f7f" stroke-width="1.00" />
		<line x1="437.29" y1="97.00" x2="437.29" y2="87.00" stroke="#ff7f7f" stroke-width="1.00" />
		<line x1="449.29" y1="87.00" x2="437.29" y2="87.00" stroke="#ff7f7f" stroke-width="1.00" />
		<line x1="449.29" y1="97.00" x2="445.29" y2="87.00" stroke="#ff0000" stroke-width="1.00" />
		<line x1="445.29" y1="87.00" x2="444.29" y2="97.00" stroke="#ff0000" stroke-width="1.00" />
		<line x1="444.29" y1="97.00" x2="442.29" y2="87.00" stroke="#ff0000" stroke-width="1.00" />
		<line x1="442.29" y1="87.00" x2="441.29" y2="97.00" stroke="#ff0000" stroke-width="1.00" />
		<line x1="441.29" y1="97.00" x2="437.29" y2="87.00" stroke="#ff0000" stroke-width="1.00" />
		<text x="416.39" y="95.00" font-family="Helvetica" font-size="10" fill="#124d94" >473</text>
		<line x1="474.00" y1="96.00" x2="478.00" y2="92.00" stroke="#000000" stroke-width="1.00" />
		<line x1="478.00" y1="92.00" x2="474.00" y2="88.00" stroke="#000000" stroke-width="1.00" />
		<text x="436.94" y="84.00" font-family="Helvetica" font-size="10" fill="#124d94" >XM_017020123.3</text>
		<polygon fill="url('#gradient2')" shape-rendering="crispEdges" points="0.00,74.00 879.00,74.00 879.00,60.00 0.00,60.00 " clip-path="url('#clipping-rect2')" />
		<text x="0.00" y="70.00" font-family="Helvetica" font-size="12" fill="#333333" >(U) Alignment for group templates, BLAST Results for: ref|NM_032753.4|</text>
		<polygon fill="#c6c6c6" shape-rendering="crispEdges" points="497.19,117.00 497.19,127.00 498.19,127.00 498.19,117.00 " />
		<polygon fill="#d78b8b" shape-rendering="crispEdges" points="496.02,131.00 496.02,141.00 497.02,141.00 497.02,131.00 " />
		<polygon fill="#d59292" shape-rendering="crispEdges" points="473.65,117.00 473.65,127.00 474.65,127.00 474.65,117.00 " />
		<polygon fill="#d39999" shape-rendering="crispEdges" points="467.66,117.00 467.66,127.00 468.66,127.00 468.66,117.00 " />
		<polygon fill="#cfa7a7" shape-rendering="crispEdges" points="456.77,117.00 456.77,127.00 457.77,127.00 457.77,117.00 " />
		<polygon fill="#d39999" shape-rendering="crispEdges" points="453.83,131.00 453.83,141.00 454.83,141.00 454.83,131.00 " />
		<polygon fill="url('#gradient2')" shape-rendering="crispEdges" points="0.00,114.00 879.00,114.00 879.00,100.00 0.00,100.00 " clip-path="url('#clipping-rect2')" />
		<text x="0.00" y="110.00" font-family="Helvetica" font-size="12" fill="#333333" >(U) BLAST Results for: ref|NM_032753.4|</text>
		<line x1="774.94" y1="196.00" x2="774.94" y2="224.00" stroke="#009900" stroke-opacity="0.10" stroke-width="1.00" stroke-linejoin="round" />
		<line x1="774.94" y1="224.00" x2="505.26" y2="224.00" stroke="#009900" stroke-opacity="0.10" stroke-width="1.00" stroke-linejoin="round" />
		<line x1="505.26" y1="224.00" x2="505.26" y2="196.00" stroke="#009900" stroke-opacity="0.10" stroke-width="1.00" stroke-linejoin="round" />
		<line x1="774.94" y1="196.00" x2="505.26" y2="196.00" stroke="#009900" stroke-opacity="0.10" stroke-width="1.00" stroke-linejoin="round" />
		<text x="585.73" y="205.00" font-family="Helvetica" font-size="10" fill="#124d94" >ENSSPUG00000009872</text>
		<polygon fill="#1e8c1e" shape-rendering="crispEdges" points="653.00,211.00 653.00,222.00 654.00,222.00 654.00,211.00 " />
		<line x1="653.38" y1="216.50" x2="651.42" y2="216.50" stroke="#4ba34b" stroke-width="2.00" />
		<polygon fill="#1e8c1e" shape-rendering="crispEdges" points="650.86,211.00 650.86,222.00 651.86,222.00 651.86,211.00 " />
		<line x1="651.31" y1="216.50" x2="648.64" y2="216.50" stroke="#4ba34b" stroke-width="2.00" />
		<polygon fill="#1e8c1e" shape-rendering="crispEdges" points="648.01,211.00 648.01,222.00 649.01,222.00 649.01,211.00 " />
		<line x1="648.38" y1="216.50" x2="643.16" y2="216.50" stroke="#4ba34b" stroke-width="2.00" />
		<polygon fill="#1e8c1e" shape-rendering="crispEdges" points="642.62,211.00 642.62,222.00 643.62,222.00 643.62,211.00 " />
		<line x1="643.07" y1="216.50" x2="638.93" y2="216.50" stroke="#4ba34b" stroke-width="2.00" />
		<polygon fill="#1e8c1e" shape-rendering="crispEdges" points="638.32,211.00 638.32,222.00 639.32,222.00 639.32,211.00 " />
		<line x1="638.72" y1="216.50" x2="634.69" y2="216.50" stroke="#4ba34b" stroke-width="2.00" />
		<polygon fill="#1e8c1e" shape-rendering="crispEdges" points="634.06,211.00 634.06,222.00 635.06,222.00 635.06,211.00 " />
		<line x1="634.43" y1="216.50" x2="632.96" y2="216.50" stroke="#4ba34b" stroke-width="2.00" />
		<polygon fill="#1e8c1e" shape-rendering="crispEdges" points="632.44,211.00 632.44,222.00 633.44,222.00 633.44,211.00 " />
		<line x1="632.92" y1="216.50" x2="629.70" y2="216.50" stroke="#4ba34b" stroke-width="2.00" />
		<polygon fill="#1e8c1e" shape-rendering="crispEdges" points="629.13,211.00 629.13,222.00 630.13,222.00 630.13,211.00 " />
		<line x1="629.56" y1="216.50" x2="626.10" y2="216.50" stroke="#4ba34b" stroke-width="2.00" />
		<polygon fill="#1e8c1e" shape-rendering="crispEdges" points="625.56,211.00 625.56,222.00 626.56,222.00 626.56,211.00 " />
		<polygon fill="#ffffff" shape-rendering="crispEdges" points="653.61,222.00 653.61,211.00 771.94,211.00 771.94,222.00 " />
		<text x="657.61" y="220.00" font-family="Helvetica" font-size="10" fill="#124d94" >ENSSPUP00000012829.1</text>
		<polygon fill="#ffffff" shape-rendering="crispEdges" points="507.26,222.00 507.26,211.00 622.02,211.00 622.02,222.00 " />
		<text x="508.26" y="220.00" font-family="Helvetica" font-size="10" fill="#124d94" >ENSSPUT00000013687.1</text>
		<line x1="662.12" y1="229.00" x2="662.12" y2="257.00" stroke="#009900" stroke-opacity="0.10" stroke-width="1.00" stroke-linejoin="round" />
		<line x1="662.12" y1="257.00" x2="414.61" y2="257.00" stroke="#009900" stroke-opacity="0.10" stroke-width="1.00" stroke-linejoin="round" />
		<line x1="414.61" y1="257.00" x2="414.61" y2="229.00" stroke="#009900" stroke-opacity="0.10" stroke-width="1.00" stroke-linejoin="round" />
		<line x1="662.12" y1="229.00" x2="414.61" y2="229.00" stroke="#009900" stroke-opacity="0.10" stroke-width="1.00" stroke-linejoin="round" />
		<text x="484.00" y="238.00" font-family="Helvetica" font-size="10" fill="#124d94" >ENSSPUG00000009902</text>
		<polygon fill="#1e8c1e" shape-rendering="crispEdges" points="540.84,244.00 540.84,255.00 541.84,255.00 541.84,244.00 " />
		<line x1="541.32" y1="249.50" x2="539.11" y2="249.50" stroke="#4ba34b" stroke-width="2.00" />
		<polygon fill="#1e8c1e" shape-rendering="crispEdges" points="538.57,244.00 538.57,255.00 539.57,255.00 539.57,244.00 " />
		<line x1="539.02" y1="249.50" x2="536.14" y2="249.50" stroke="#4ba34b" stroke-width="2.00" />
		<polygon fill="#1e8c1e" shape-rendering="crispEdges" points="535.54,244.00 535.54,255.00 536.54,255.00 536.54,244.00 " />
		<polygon fill="#ffffff" shape-rendering="crispEdges" points="541.35,255.00 541.35,244.00 659.12,244.00 659.12,255.00 " />
		<text x="545.35" y="253.00" font-family="Helvetica" font-size="10" fill="#124d94" >ENSSPUT00000013697.1</text>
		<polygon fill="#ffffff" shape-rendering="crispEdges" points="416.61,255.00 416.61,244.00 531.94,244.00 531.94,255.00 " />
		<text x="417.61" y="253.00" font-family="Helvetica" font-size="10" fill="#124d94" >ENSSPUP00000012838.1</text>
		<line x1="610.55" y1="163.00" x2="610.55" y2="191.00" stroke="#009900" stroke-opacity="0.10" stroke-width="1.00" stroke-linejoin="round" />
		<line x1="610.55" y1="191.00" x2="321.70" y2="191.00" stroke="#009900" stroke-opacity="0.10" stroke-width="1.00" stroke-linejoin="round" />
		<line x1="321.70" y1="191.00" x2="321.70" y2="163.00" stroke="#009900" stroke-opacity="0.10" stroke-width="1.00" stroke-linejoin="round" />
		<line x1="610.55" y1="163.00" x2="321.70" y2="163.00" stroke="#009900" stroke-opacity="0.10" stroke-width="1.00" stroke-linejoin="round" />
		<text x="412.58" y="172.00" font-family="Helvetica" font-size="10" fill="#124d94" >ENSSPUG00000009911</text>
		<polygon fill="#a5d1a5" shape-rendering="crispEdges" points="488.70,178.00 488.70,189.00 489.70,189.00 489.70,178.00 " />
		<polygon fill="#1e8c1e" shape-rendering="crispEdges" points="488.61,178.00 488.61,189.00 489.61,189.00 489.61,178.00 " />
		<line x1="489.04" y1="183.50" x2="474.23" y2="183.50" stroke="#4ba34b" stroke-width="2.00" />
		<polygon fill="#1e8c1e" shape-rendering="crispEdges" points="473.66,178.00 473.66,189.00 474.66,189.00 474.66,178.00 " />
		<line x1="474.09" y1="183.50" x2="468.22" y2="183.50" stroke="#4ba34b" stroke-width="2.00" />
		<polygon fill="#1e8c1e" shape-rendering="crispEdges" points="467.66,178.00 467.66,189.00 468.66,189.00 468.66,178.00 " />
		<line x1="468.11" y1="183.50" x2="457.29" y2="183.50" stroke="#4ba34b" stroke-width="2.00" />
		<polygon fill="#1e8c1e" shape-rendering="crispEdges" points="456.77,178.00 456.77,189.00 457.77,189.00 457.77,178.00 " />
		<line x1="457.25" y1="183.50" x2="454.37" y2="183.50" stroke="#4ba34b" stroke-width="2.00" />
		<polygon fill="#1e8c1e" shape-rendering="crispEdges" points="453.83,178.00 453.83,189.00 454.83,189.00 454.83,178.00 " />
		<line x1="454.29" y1="183.50" x2="442.91" y2="183.50" stroke="#4ba34b" stroke-width="2.00" />
		<polygon fill="#1e8c1e" shape-rendering="crispEdges" points="442.29,178.00 442.29,189.00 443.29,189.00 443.29,178.00 " />
		<polygon fill="#a5d1a5" shape-rendering="crispEdges" points="442.07,178.00 442.07,189.00 443.07,189.00 443.07,178.00 " />
		<polygon fill="#ffffff" shape-rendering="crispEdges" points="489.22,189.00 489.22,178.00 607.55,178.00 607.55,189.00 " />
		<text x="493.22" y="187.00" font-family="Helvetica" font-size="10" fill="#124d94" >ENSSPUP00000012852.1</text>
		<polygon fill="#ffffff" shape-rendering="crispEdges" points="323.70,189.00 323.70,178.00 438.46,178.00 438.46,189.00 " />
		<text x="324.70" y="187.00" font-family="Helvetica" font-size="10" fill="#124d94" >ENSSPUT00000013712.1</text>
		<polygon fill="url('#gradient3')" shape-rendering="crispEdges" points="0.00,158.00 879.00,158.00 879.00,144.00 0.00,144.00 " clip-path="url('#clipping-rect2')" />
		<text x="0.00" y="154.00" font-family="Helvetica" font-size="12" fill="#333333" >Genes, Ensembl release 114</text>
		<polygon fill="#0000ff" fill-opacity="0.20" shape-rendering="crispEdges" points="639.50,31.50 639.50,23.10 639.50,23.10 " />
		<polygon fill="#0000ff" fill-opacity="0.20" shape-rendering="crispEdges" points="639.50,31.50 639.50,31.50 639.50,23.10 " />
		<line x1="639.50" y1="30.50" x2="639.50" y2="23.10" stroke="#0000ff" stroke-opacity="0.40" stroke-width="1.00" />
		<line x1="639.50" y1="30.50" x2="639.50" y2="23.10" stroke="#0000ff" stroke-opacity="0.40" stroke-width="1.00" />
		<polygon fill="#0000ff" shape-rendering="crispEdges" points="633.79,22.35 633.50,20.50 633.79,18.65 634.65,16.97 635.97,15.65 637.65,14.79 639.50,14.50 639.50,26.50 637.65,26.21 635.97,25.35 634.65,24.03 " />
		<polygon fill="#0000ff" fill-opacity="0.60" shape-rendering="crispEdges" points="666.41,26.50 666.41,14.50 639.50,14.50 639.50,26.50 " />
		<text x="641.50" y="23.50" font-family="Helvetica" font-size="10" fill="#ffffff" >styk1</text>
		<polygon fill="#0000ff" fill-opacity="0.20" shape-rendering="crispEdges" points="639.73,262.00 639.73,31.00 639.73,31.00 " />
		<polygon fill="#0000ff" fill-opacity="0.20" shape-rendering="crispEdges" points="639.73,262.00 639.73,262.00 639.73,31.00 " />
		<line x1="639.73" y1="261.00" x2="639.73" y2="31.00" stroke="#0000ff" stroke-opacity="0.40" stroke-width="1.00" />
		<line x1="639.73" y1="261.00" x2="639.73" y2="31.00" stroke="#0000ff" stroke-opacity="0.40" stroke-width="1.00" />
		<polygon fill="#0000ff" fill-opacity="0.20" shape-rendering="crispEdges" points="537.50,31.50 537.50,23.10 537.50,23.10 " />
		<polygon fill="#0000ff" fill-opacity="0.20" shape-rendering="crispEdges" points="537.50,31.50 537.50,31.50 537.50,23.10 " />
		<line x1="537.50" y1="30.50" x2="537.50" y2="23.10" stroke="#0000ff" stroke-opacity="0.40" stroke-width="1.00" />
		<line x1="537.50" y1="30.50" x2="537.50" y2="23.10" stroke="#0000ff" stroke-opacity="0.40" stroke-width="1.00" />
		<polygon fill="#0000ff" shape-rendering="crispEdges" points="531.79,22.35 531.50,20.50 531.79,18.65 532.65,16.97 533.97,15.65 535.65,14.79 537.50,14.50 537.50,26.50 535.65,26.21 533.97,25.35 532.65,24.03 " />
		<polygon fill="#0000ff" fill-opacity="0.60" shape-rendering="crispEdges" points="575.31,26.50 575.31,14.50 537.50,14.50 537.50,26.50 " />
		<text x="539.50" y="23.50" font-family="Helvetica" font-size="10" fill="#ffffff" >SYCE3</text>
		<polygon fill="#0000ff" fill-opacity="0.20" shape-rendering="crispEdges" points="537.61,262.00 537.61,31.00 537.61,31.00 " />
		<polygon fill="#0000ff" fill-opacity="0.20" shape-rendering="crispEdges" points="537.61,262.00 537.61,262.00 537.61,31.00 " />
		<line x1="537.61" y1="261.00" x2="537.61" y2="31.00" stroke="#0000ff" stroke-opacity="0.40" stroke-width="1.00" />
		<line x1="537.61" y1="261.00" x2="537.61" y2="31.00" stroke="#0000ff" stroke-opacity="0.40" stroke-width="1.00" />
		<polygon fill="#0000ff" fill-opacity="0.20" shape-rendering="crispEdges" points="475.50,31.50 475.50,23.10 475.50,23.10 " />
		<polygon fill="#0000ff" fill-opacity="0.20" shape-rendering="crispEdges" points="475.50,31.50 475.50,31.50 475.50,23.10 " />
		<line x1="475.50" y1="30.50" x2="475.50" y2="23.10" stroke="#0000ff" stroke-opacity="0.40" stroke-width="1.00" />
		<line x1="475.50" y1="30.50" x2="475.50" y2="23.10" stroke="#0000ff" stroke-opacity="0.40" stroke-width="1.00" />
		<polygon fill="#0000ff" shape-rendering="crispEdges" points="469.79,22.35 469.50,20.50 469.79,18.65 470.65,16.97 471.97,15.65 473.65,14.79 475.50,14.50 475.50,26.50 473.65,26.21 471.97,25.35 470.65,24.03 " />
		<polygon fill="#0000ff" fill-opacity="0.60" shape-rendering="crispEdges" points="501.92,26.50 501.92,14.50 475.50,14.50 475.50,26.50 " />
		<text x="477.50" y="23.50" font-family="Helvetica" font-size="10" fill="#ffffff" >ybx3</text>
		<polygon fill="#0000ff" fill-opacity="0.20" shape-rendering="crispEdges" points="475.54,262.00 475.54,31.00 475.54,31.00 " />
		<polygon fill="#0000ff" fill-opacity="0.20" shape-rendering="crispEdges" points="475.54,262.00 475.54,262.00 475.54,31.00 " />
		<line x1="475.54" y1="261.00" x2="475.54" y2="31.00" stroke="#0000ff" stroke-opacity="0.40" stroke-width="1.00" />
		<line x1="475.54" y1="261.00" x2="475.54" y2="31.00" stroke="#0000ff" stroke-opacity="0.40" stroke-width="1.00" />
		<polygon fill="#e5e5e5" shape-rendering="crispEdges" points="879.00,13.00 879.00,-1.00 0.00,-1.00 0.00,13.00 " />
		<text x="0.00" y="10.00" font-family="Helvetica Bold" font-size="12" text-anchor="start" fill="#000000" >QEPC01007369.1:382179..1146538 Sphenodon punctatus isolate mauimua-1 ScrUdWx_610, whole genome shotgun sequence</text>
	</g>
</svg>
