<?xml version="1.0" standalone="no" ?>
<!DOCTYPE svg PUBLIC "-//W3C//DTD SVG 1.1//EN" "http://www.w3.org/Graphics/SVG/1.1/DTD/svg11.dtd">
<svg width="879px" height="277px" xmlns="http://www.w3.org/2000/svg" version="1.1" viewBox="0 0 879 277" >
	<style type="text/css" > <![CDATA[
		@import url("https://www.ncbi.nlm.nih.gov/projects/sviewer/css/svg_fonts.css");
	]]>
	</style>
	<desc >Generated by NCBI Genome Workbench http://www.ncbi.nlm.nih.gov/tools/gbench/</desc>
	<defs >
		<clipPath id="clipping-rect1" >
			<rect x="0" y="14" width="879" height="18" />
		</clipPath>
		<linearGradient id="gradient1" gradientTransform="rotate(90)" >
			<stop offset="0%" stop-color="#6c6c6c" />
			<stop offset="50%" stop-color="#b5b5b5" />
			<stop offset="100%" stop-color="#6c6c6c" />
		</linearGradient>
		<clipPath id="clipping-rect2" >
			<rect x="0" y="32" width="879" height="245" />
		</clipPath>
		<linearGradient id="gradient2" gradientTransform="rotate(90)" >
			<stop offset="0%" stop-color="#b6dead" />
			<stop offset="100%" stop-color="#ffffff" stop-opacity="0.00" />
		</linearGradient>
		<linearGradient id="gradient3" gradientTransform="rotate(90)" >
			<stop offset="0%" stop-color="#e6e6e6" stop-opacity="0.71" />
			<stop offset="100%" stop-color="#ffffff" stop-opacity="0.00" />
		</linearGradient>
	</defs>
	<g >
		<polygon fill="#ffffff" shape-rendering="crispEdges" points="879.00,31.00 879.00,13.00 0.00,13.00 0.00,31.00 " />
		<line x1="0.00" y1="29.00" x2="879.00" y2="29.00" stroke="#7f7f7f" stroke-width="1.00" clip-path="url('#clipping-rect1')" />
		<line x1="879.00" y1="29.00" x2="879.00" y2="26.00" stroke="#7f7f7f" stroke-width="1.00" clip-path="url('#clipping-rect1')" />
		<line x1="873.31" y1="29.00" x2="873.31" y2="27.00" stroke="#7f7f7f" stroke-width="1.00" clip-path="url('#clipping-rect1')" />
		<line x1="867.61" y1="29.00" x2="867.61" y2="26.00" stroke="#7f7f7f" stroke-width="1.00" clip-path="url('#clipping-rect1')" />
		<line x1="861.92" y1="29.00" x2="861.92" y2="27.00" stroke="#7f7f7f" stroke-width="1.00" clip-path="url('#clipping-rect1')" />
		<line x1="856.23" y1="29.00" x2="856.23" y2="26.00" stroke="#7f7f7f" stroke-width="1.00" clip-path="url('#clipping-rect1')" />
		<line x1="850.53" y1="29.00" x2="850.53" y2="27.00" stroke="#7f7f7f" stroke-width="1.00" clip-path="url('#clipping-rect1')" />
		<line x1="844.84" y1="29.00" x2="844.84" y2="26.00" stroke="#7f7f7f" stroke-width="1.00" clip-path="url('#clipping-rect1')" />
		<line x1="839.14" y1="29.00" x2="839.14" y2="27.00" stroke="#7f7f7f" stroke-width="1.00" clip-path="url('#clipping-rect1')" />
		<line x1="833.45" y1="29.00" x2="833.45" y2="26.00" stroke="#7f7f7f" stroke-width="1.00" clip-path="url('#clipping-rect1')" />
		<line x1="827.76" y1="29.00" x2="827.76" y2="27.00" stroke="#7f7f7f" stroke-width="1.00" clip-path="url('#clipping-rect1')" />
		<line x1="822.06" y1="29.00" x2="822.06" y2="26.00" stroke="#7f7f7f" stroke-width="1.00" clip-path="url('#clipping-rect1')" />
		<line x1="816.37" y1="29.00" x2="816.37" y2="27.00" stroke="#7f7f7f" stroke-width="1.00" clip-path="url('#clipping-rect1')" />
		<line x1="810.68" y1="29.00" x2="810.68" y2="26.00" stroke="#7f7f7f" stroke-width="1.00" clip-path="url('#clipping-rect1')" />
		<line x1="804.98" y1="29.00" x2="804.98" y2="27.00" stroke="#7f7f7f" stroke-width="1.00" clip-path="url('#clipping-rect1')" />
		<line x1="799.29" y1="29.00" x2="799.29" y2="26.00" stroke="#7f7f7f" stroke-width="1.00" clip-path="url('#clipping-rect1')" />
		<line x1="793.59" y1="29.00" x2="793.59" y2="27.00" stroke="#7f7f7f" stroke-width="1.00" clip-path="url('#clipping-rect1')" />
		<line x1="787.90" y1="29.00" x2="787.90" y2="26.00" stroke="#7f7f7f" stroke-width="1.00" clip-path="url('#clipping-rect1')" />
		<line x1="782.21" y1="29.00" x2="782.21" y2="27.00" stroke="#7f7f7f" stroke-width="1.00" clip-path="url('#clipping-rect1')" />
		<line x1="776.51" y1="29.00" x2="776.51" y2="26.00" stroke="#7f7f7f" stroke-width="1.00" clip-path="url('#clipping-rect1')" />
		<line x1="770.82" y1="29.00" x2="770.82" y2="27.00" stroke="#7f7f7f" stroke-width="1.00" clip-path="url('#clipping-rect1')" />
		<line x1="765.13" y1="29.00" x2="765.13" y2="26.00" stroke="#7f7f7f" stroke-width="1.00" clip-path="url('#clipping-rect1')" />
		<line x1="759.43" y1="29.00" x2="759.43" y2="27.00" stroke="#7f7f7f" stroke-width="1.00" clip-path="url('#clipping-rect1')" />
		<line x1="753.74" y1="29.00" x2="753.74" y2="26.00" stroke="#7f7f7f" stroke-width="1.00" clip-path="url('#clipping-rect1')" />
		<line x1="748.05" y1="29.00" x2="748.05" y2="27.00" stroke="#7f7f7f" stroke-width="1.00" clip-path="url('#clipping-rect1')" />
		<line x1="742.35" y1="29.00" x2="742.35" y2="26.00" stroke="#7f7f7f" stroke-width="1.00" clip-path="url('#clipping-rect1')" />
		<line x1="736.66" y1="29.00" x2="736.66" y2="27.00" stroke="#7f7f7f" stroke-width="1.00" clip-path="url('#clipping-rect1')" />
		<line x1="730.96" y1="29.00" x2="730.96" y2="26.00" stroke="#7f7f7f" stroke-width="1.00" clip-path="url('#clipping-rect1')" />
		<line x1="725.27" y1="29.00" x2="725.27" y2="27.00" stroke="#7f7f7f" stroke-width="1.00" clip-path="url('#clipping-rect1')" />
		<line x1="719.58" y1="29.00" x2="719.58" y2="26.00" stroke="#7f7f7f" stroke-width="1.00" clip-path="url('#clipping-rect1')" />
		<line x1="713.88" y1="29.00" x2="713.88" y2="27.00" stroke="#7f7f7f" stroke-width="1.00" clip-path="url('#clipping-rect1')" />
		<line x1="708.19" y1="29.00" x2="708.19" y2="26.00" stroke="#7f7f7f" stroke-width="1.00" clip-path="url('#clipping-rect1')" />
		<line x1="702.50" y1="29.00" x2="702.50" y2="27.00" stroke="#7f7f7f" stroke-width="1.00" clip-path="url('#clipping-rect1')" />
		<line x1="696.80" y1="29.00" x2="696.80" y2="26.00" stroke="#7f7f7f" stroke-width="1.00" clip-path="url('#clipping-rect1')" />
		<line x1="691.11" y1="29.00" x2="691.11" y2="27.00" stroke="#7f7f7f" stroke-width="1.00" clip-path="url('#clipping-rect1')" />
		<line x1="685.41" y1="29.00" x2="685.41" y2="26.00" stroke="#7f7f7f" stroke-width="1.00" clip-path="url('#clipping-rect1')" />
		<line x1="679.72" y1="29.00" x2="679.72" y2="27.00" stroke="#7f7f7f" stroke-width="1.00" clip-path="url('#clipping-rect1')" />
		<line x1="674.03" y1="29.00" x2="674.03" y2="26.00" stroke="#7f7f7f" stroke-width="1.00" clip-path="url('#clipping-rect1')" />
		<line x1="668.33" y1="29.00" x2="668.33" y2="27.00" stroke="#7f7f7f" stroke-width="1.00" clip-path="url('#clipping-rect1')" />
		<line x1="662.64" y1="29.00" x2="662.64" y2="26.00" stroke="#7f7f7f" stroke-width="1.00" clip-path="url('#clipping-rect1')" />
		<line x1="656.95" y1="29.00" x2="656.95" y2="27.00" stroke="#7f7f7f" stroke-width="1.00" clip-path="url('#clipping-rect1')" />
		<line x1="651.25" y1="29.00" x2="651.25" y2="26.00" stroke="#7f7f7f" stroke-width="1.00" clip-path="url('#clipping-rect1')" />
		<line x1="645.56" y1="29.00" x2="645.56" y2="27.00" stroke="#7f7f7f" stroke-width="1.00" clip-path="url('#clipping-rect1')" />
		<line x1="639.86" y1="29.00" x2="639.86" y2="26.00" stroke="#7f7f7f" stroke-width="1.00" clip-path="url('#clipping-rect1')" />
		<line x1="634.17" y1="29.00" x2="634.17" y2="27.00" stroke="#7f7f7f" stroke-width="1.00" clip-path="url('#clipping-rect1')" />
		<line x1="628.48" y1="29.00" x2="628.48" y2="26.00" stroke="#7f7f7f" stroke-width="1.00" clip-path="url('#clipping-rect1')" />
		<line x1="622.78" y1="29.00" x2="622.78" y2="27.00" stroke="#7f7f7f" stroke-width="1.00" clip-path="url('#clipping-rect1')" />
		<line x1="617.09" y1="29.00" x2="617.09" y2="26.00" stroke="#7f7f7f" stroke-width="1.00" clip-path="url('#clipping-rect1')" />
		<line x1="611.40" y1="29.00" x2="611.40" y2="27.00" stroke="#7f7f7f" stroke-width="1.00" clip-path="url('#clipping-rect1')" />
		<line x1="605.70" y1="29.00" x2="605.70" y2="26.00" stroke="#7f7f7f" stroke-width="1.00" clip-path="url('#clipping-rect1')" />
		<line x1="600.01" y1="29.00" x2="600.01" y2="27.00" stroke="#7f7f7f" stroke-width="1.00" clip-path="url('#clipping-rect1')" />
		<line x1="594.31" y1="29.00" x2="594.31" y2="26.00" stroke="#7f7f7f" stroke-width="1.00" clip-path="url('#clipping-rect1')" />
		<line x1="588.62" y1="29.00" x2="588.62" y2="27.00" stroke="#7f7f7f" stroke-width="1.00" clip-path="url('#clipping-rect1')" />
		<line x1="582.93" y1="29.00" x2="582.93" y2="26.00" stroke="#7f7f7f" stroke-width="1.00" clip-path="url('#clipping-rect1')" />
		<line x1="577.23" y1="29.00" x2="577.23" y2="27.00" stroke="#7f7f7f" stroke-width="1.00" clip-path="url('#clipping-rect1')" />
		<line x1="571.54" y1="29.00" x2="571.54" y2="26.00" stroke="#7f7f7f" stroke-width="1.00" clip-path="url('#clipping-rect1')" />
		<line x1="565.85" y1="29.00" x2="565.85" y2="27.00" stroke="#7f7f7f" stroke-width="1.00" clip-path="url('#clipping-rect1')" />
		<line x1="560.15" y1="29.00" x2="560.15" y2="26.00" stroke="#7f7f7f" stroke-width="1.00" clip-path="url('#clipping-rect1')" />
		<line x1="554.46" y1="29.00" x2="554.46" y2="27.00" stroke="#7f7f7f" stroke-width="1.00" clip-path="url('#clipping-rect1')" />
		<line x1="548.77" y1="29.00" x2="548.77" y2="26.00" stroke="#7f7f7f" stroke-width="1.00" clip-path="url('#clipping-rect1')" />
		<line x1="543.07" y1="29.00" x2="543.07" y2="27.00" stroke="#7f7f7f" stroke-width="1.00" clip-path="url('#clipping-rect1')" />
		<line x1="537.38" y1="29.00" x2="537.38" y2="26.00" stroke="#7f7f7f" stroke-width="1.00" clip-path="url('#clipping-rect1')" />
		<line x1="531.68" y1="29.00" x2="531.68" y2="27.00" stroke="#7f7f7f" stroke-width="1.00" clip-path="url('#clipping-rect1')" />
		<line x1="525.99" y1="29.00" x2="525.99" y2="26.00" stroke="#7f7f7f" stroke-width="1.00" clip-path="url('#clipping-rect1')" />
		<line x1="520.30" y1="29.00" x2="520.30" y2="27.00" stroke="#7f7f7f" stroke-width="1.00" clip-path="url('#clipping-rect1')" />
		<line x1="514.60" y1="29.00" x2="514.60" y2="26.00" stroke="#7f7f7f" stroke-width="1.00" clip-path="url('#clipping-rect1')" />
		<line x1="508.91" y1="29.00" x2="508.91" y2="27.00" stroke="#7f7f7f" stroke-width="1.00" clip-path="url('#clipping-rect1')" />
		<line x1="503.22" y1="29.00" x2="503.22" y2="26.00" stroke="#7f7f7f" stroke-width="1.00" clip-path="url('#clipping-rect1')" />
		<line x1="497.52" y1="29.00" x2="497.52" y2="27.00" stroke="#7f7f7f" stroke-width="1.00" clip-path="url('#clipping-rect1')" />
		<line x1="491.83" y1="29.00" x2="491.83" y2="26.00" stroke="#7f7f7f" stroke-width="1.00" clip-path="url('#clipping-rect1')" />
		<line x1="486.13" y1="29.00" x2="486.13" y2="27.00" stroke="#7f7f7f" stroke-width="1.00" clip-path="url('#clipping-rect1')" />
		<line x1="480.44" y1="29.00" x2="480.44" y2="26.00" stroke="#7f7f7f" stroke-width="1.00" clip-path="url('#clipping-rect1')" />
		<line x1="474.75" y1="29.00" x2="474.75" y2="27.00" stroke="#7f7f7f" stroke-width="1.00" clip-path="url('#clipping-rect1')" />
		<line x1="469.05" y1="29.00" x2="469.05" y2="26.00" stroke="#7f7f7f" stroke-width="1.00" clip-path="url('#clipping-rect1')" />
		<line x1="463.36" y1="29.00" x2="463.36" y2="27.00" stroke="#7f7f7f" stroke-width="1.00" clip-path="url('#clipping-rect1')" />
		<line x1="457.67" y1="29.00" x2="457.67" y2="26.00" stroke="#7f7f7f" stroke-width="1.00" clip-path="url('#clipping-rect1')" />
		<line x1="451.97" y1="29.00" x2="451.97" y2="27.00" stroke="#7f7f7f" stroke-width="1.00" clip-path="url('#clipping-rect1')" />
		<line x1="446.28" y1="29.00" x2="446.28" y2="26.00" stroke="#7f7f7f" stroke-width="1.00" clip-path="url('#clipping-rect1')" />
		<line x1="440.58" y1="29.00" x2="440.58" y2="27.00" stroke="#7f7f7f" stroke-width="1.00" clip-path="url('#clipping-rect1')" />
		<line x1="434.89" y1="29.00" x2="434.89" y2="26.00" stroke="#7f7f7f" stroke-width="1.00" clip-path="url('#clipping-rect1')" />
		<line x1="429.20" y1="29.00" x2="429.20" y2="27.00" stroke="#7f7f7f" stroke-width="1.00" clip-path="url('#clipping-rect1')" />
		<line x1="423.50" y1="29.00" x2="423.50" y2="26.00" stroke="#7f7f7f" stroke-width="1.00" clip-path="url('#clipping-rect1')" />
		<line x1="417.81" y1="29.00" x2="417.81" y2="27.00" stroke="#7f7f7f" stroke-width="1.00" clip-path="url('#clipping-rect1')" />
		<line x1="412.12" y1="29.00" x2="412.12" y2="26.00" stroke="#7f7f7f" stroke-width="1.00" clip-path="url('#clipping-rect1')" />
		<line x1="406.42" y1="29.00" x2="406.42" y2="27.00" stroke="#7f7f7f" stroke-width="1.00" clip-path="url('#clipping-rect1')" />
		<line x1="400.73" y1="29.00" x2="400.73" y2="26.00" stroke="#7f7f7f" stroke-width="1.00" clip-path="url('#clipping-rect1')" />
		<line x1="395.03" y1="29.00" x2="395.03" y2="27.00" stroke="#7f7f7f" stroke-width="1.00" clip-path="url('#clipping-rect1')" />
		<line x1="389.34" y1="29.00" x2="389.34" y2="26.00" stroke="#7f7f7f" stroke-width="1.00" clip-path="url('#clipping-rect1')" />
		<line x1="383.65" y1="29.00" x2="383.65" y2="27.00" stroke="#7f7f7f" stroke-width="1.00" clip-path="url('#clipping-rect1')" />
		<line x1="377.95" y1="29.00" x2="377.95" y2="26.00" stroke="#7f7f7f" stroke-width="1.00" clip-path="url('#clipping-rect1')" />
		<line x1="372.26" y1="29.00" x2="372.26" y2="27.00" stroke="#7f7f7f" stroke-width="1.00" clip-path="url('#clipping-rect1')" />
		<line x1="366.57" y1="29.00" x2="366.57" y2="26.00" stroke="#7f7f7f" stroke-width="1.00" clip-path="url('#clipping-rect1')" />
		<line x1="360.87" y1="29.00" x2="360.87" y2="27.00" stroke="#7f7f7f" stroke-width="1.00" clip-path="url('#clipping-rect1')" />
		<line x1="355.18" y1="29.00" x2="355.18" y2="26.00" stroke="#7f7f7f" stroke-width="1.00" clip-path="url('#clipping-rect1')" />
		<line x1="349.49" y1="29.00" x2="349.49" y2="27.00" stroke="#7f7f7f" stroke-width="1.00" clip-path="url('#clipping-rect1')" />
		<line x1="343.79" y1="29.00" x2="343.79" y2="26.00" stroke="#7f7f7f" stroke-width="1.00" clip-path="url('#clipping-rect1')" />
		<line x1="338.10" y1="29.00" x2="338.10" y2="27.00" stroke="#7f7f7f" stroke-width="1.00" clip-path="url('#clipping-rect1')" />
		<line x1="332.40" y1="29.00" x2="332.40" y2="26.00" stroke="#7f7f7f" stroke-width="1.00" clip-path="url('#clipping-rect1')" />
		<line x1="326.71" y1="29.00" x2="326.71" y2="27.00" stroke="#7f7f7f" stroke-width="1.00" clip-path="url('#clipping-rect1')" />
		<line x1="321.02" y1="29.00" x2="321.02" y2="26.00" stroke="#7f7f7f" stroke-width="1.00" clip-path="url('#clipping-rect1')" />
		<line x1="315.32" y1="29.00" x2="315.32" y2="27.00" stroke="#7f7f7f" stroke-width="1.00" clip-path="url('#clipping-rect1')" />
		<line x1="309.63" y1="29.00" x2="309.63" y2="26.00" stroke="#7f7f7f" stroke-width="1.00" clip-path="url('#clipping-rect1')" />
		<line x1="303.94" y1="29.00" x2="303.94" y2="27.00" stroke="#7f7f7f" stroke-width="1.00" clip-path="url('#clipping-rect1')" />
		<line x1="298.24" y1="29.00" x2="298.24" y2="26.00" stroke="#7f7f7f" stroke-width="1.00" clip-path="url('#clipping-rect1')" />
		<line x1="292.55" y1="29.00" x2="292.55" y2="27.00" stroke="#7f7f7f" stroke-width="1.00" clip-path="url('#clipping-rect1')" />
		<line x1="286.85" y1="29.00" x2="286.85" y2="26.00" stroke="#7f7f7f" stroke-width="1.00" clip-path="url('#clipping-rect1')" />
		<line x1="281.16" y1="29.00" x2="281.16" y2="27.00" stroke="#7f7f7f" stroke-width="1.00" clip-path="url('#clipping-rect1')" />
		<line x1="275.47" y1="29.00" x2="275.47" y2="26.00" stroke="#7f7f7f" stroke-width="1.00" clip-path="url('#clipping-rect1')" />
		<line x1="269.77" y1="29.00" x2="269.77" y2="27.00" stroke="#7f7f7f" stroke-width="1.00" clip-path="url('#clipping-rect1')" />
		<line x1="264.08" y1="29.00" x2="264.08" y2="26.00" stroke="#7f7f7f" stroke-width="1.00" clip-path="url('#clipping-rect1')" />
		<line x1="258.39" y1="29.00" x2="258.39" y2="27.00" stroke="#7f7f7f" stroke-width="1.00" clip-path="url('#clipping-rect1')" />
		<line x1="252.69" y1="29.00" x2="252.69" y2="26.00" stroke="#7f7f7f" stroke-width="1.00" clip-path="url('#clipping-rect1')" />
		<line x1="247.00" y1="29.00" x2="247.00" y2="27.00" stroke="#7f7f7f" stroke-width="1.00" clip-path="url('#clipping-rect1')" />
		<line x1="241.30" y1="29.00" x2="241.30" y2="26.00" stroke="#7f7f7f" stroke-width="1.00" clip-path="url('#clipping-rect1')" />
		<line x1="235.61" y1="29.00" x2="235.61" y2="27.00" stroke="#7f7f7f" stroke-width="1.00" clip-path="url('#clipping-rect1')" />
		<line x1="229.92" y1="29.00" x2="229.92" y2="26.00" stroke="#7f7f7f" stroke-width="1.00" clip-path="url('#clipping-rect1')" />
		<line x1="224.22" y1="29.00" x2="224.22" y2="27.00" stroke="#7f7f7f" stroke-width="1.00" clip-path="url('#clipping-rect1')" />
		<line x1="218.53" y1="29.00" x2="218.53" y2="26.00" stroke="#7f7f7f" stroke-width="1.00" clip-path="url('#clipping-rect1')" />
		<line x1="212.84" y1="29.00" x2="212.84" y2="27.00" stroke="#7f7f7f" stroke-width="1.00" clip-path="url('#clipping-rect1')" />
		<line x1="207.14" y1="29.00" x2="207.14" y2="26.00" stroke="#7f7f7f" stroke-width="1.00" clip-path="url('#clipping-rect1')" />
		<line x1="201.45" y1="29.00" x2="201.45" y2="27.00" stroke="#7f7f7f" stroke-width="1.00" clip-path="url('#clipping-rect1')" />
		<line x1="195.75" y1="29.00" x2="195.75" y2="26.00" stroke="#7f7f7f" stroke-width="1.00" clip-path="url('#clipping-rect1')" />
		<line x1="190.06" y1="29.00" x2="190.06" y2="27.00" stroke="#7f7f7f" stroke-width="1.00" clip-path="url('#clipping-rect1')" />
		<line x1="184.37" y1="29.00" x2="184.37" y2="26.00" stroke="#7f7f7f" stroke-width="1.00" clip-path="url('#clipping-rect1')" />
		<line x1="178.67" y1="29.00" x2="178.67" y2="27.00" stroke="#7f7f7f" stroke-width="1.00" clip-path="url('#clipping-rect1')" />
		<line x1="172.98" y1="29.00" x2="172.98" y2="26.00" stroke="#7f7f7f" stroke-width="1.00" clip-path="url('#clipping-rect1')" />
		<line x1="167.29" y1="29.00" x2="167.29" y2="27.00" stroke="#7f7f7f" stroke-width="1.00" clip-path="url('#clipping-rect1')" />
		<line x1="161.59" y1="29.00" x2="161.59" y2="26.00" stroke="#7f7f7f" stroke-width="1.00" clip-path="url('#clipping-rect1')" />
		<line x1="155.90" y1="29.00" x2="155.90" y2="27.00" stroke="#7f7f7f" stroke-width="1.00" clip-path="url('#clipping-rect1')" />
		<line x1="150.21" y1="29.00" x2="150.21" y2="26.00" stroke="#7f7f7f" stroke-width="1.00" clip-path="url('#clipping-rect1')" />
		<line x1="144.51" y1="29.00" x2="144.51" y2="27.00" stroke="#7f7f7f" stroke-width="1.00" clip-path="url('#clipping-rect1')" />
		<line x1="138.82" y1="29.00" x2="138.82" y2="26.00" stroke="#7f7f7f" stroke-width="1.00" clip-path="url('#clipping-rect1')" />
		<line x1="133.12" y1="29.00" x2="133.12" y2="27.00" stroke="#7f7f7f" stroke-width="1.00" clip-path="url('#clipping-rect1')" />
		<line x1="127.43" y1="29.00" x2="127.43" y2="26.00" stroke="#7f7f7f" stroke-width="1.00" clip-path="url('#clipping-rect1')" />
		<line x1="121.74" y1="29.00" x2="121.74" y2="27.00" stroke="#7f7f7f" stroke-width="1.00" clip-path="url('#clipping-rect1')" />
		<line x1="116.04" y1="29.00" x2="116.04" y2="26.00" stroke="#7f7f7f" stroke-width="1.00" clip-path="url('#clipping-rect1')" />
		<line x1="110.35" y1="29.00" x2="110.35" y2="27.00" stroke="#7f7f7f" stroke-width="1.00" clip-path="url('#clipping-rect1')" />
		<line x1="104.66" y1="29.00" x2="104.66" y2="26.00" stroke="#7f7f7f" stroke-width="1.00" clip-path="url('#clipping-rect1')" />
		<line x1="98.96" y1="29.00" x2="98.96" y2="27.00" stroke="#7f7f7f" stroke-width="1.00" clip-path="url('#clipping-rect1')" />
		<line x1="93.27" y1="29.00" x2="93.27" y2="26.00" stroke="#7f7f7f" stroke-width="1.00" clip-path="url('#clipping-rect1')" />
		<line x1="87.57" y1="29.00" x2="87.57" y2="27.00" stroke="#7f7f7f" stroke-width="1.00" clip-path="url('#clipping-rect1')" />
		<line x1="81.88" y1="29.00" x2="81.88" y2="26.00" stroke="#7f7f7f" stroke-width="1.00" clip-path="url('#clipping-rect1')" />
		<line x1="76.19" y1="29.00" x2="76.19" y2="27.00" stroke="#7f7f7f" stroke-width="1.00" clip-path="url('#clipping-rect1')" />
		<line x1="70.49" y1="29.00" x2="70.49" y2="26.00" stroke="#7f7f7f" stroke-width="1.00" clip-path="url('#clipping-rect1')" />
		<line x1="64.80" y1="29.00" x2="64.80" y2="27.00" stroke="#7f7f7f" stroke-width="1.00" clip-path="url('#clipping-rect1')" />
		<line x1="59.11" y1="29.00" x2="59.11" y2="26.00" stroke="#7f7f7f" stroke-width="1.00" clip-path="url('#clipping-rect1')" />
		<line x1="53.41" y1="29.00" x2="53.41" y2="27.00" stroke="#7f7f7f" stroke-width="1.00" clip-path="url('#clipping-rect1')" />
		<line x1="47.72" y1="29.00" x2="47.72" y2="26.00" stroke="#7f7f7f" stroke-width="1.00" clip-path="url('#clipping-rect1')" />
		<line x1="42.02" y1="29.00" x2="42.02" y2="27.00" stroke="#7f7f7f" stroke-width="1.00" clip-path="url('#clipping-rect1')" />
		<line x1="36.33" y1="29.00" x2="36.33" y2="26.00" stroke="#7f7f7f" stroke-width="1.00" clip-path="url('#clipping-rect1')" />
		<line x1="30.64" y1="29.00" x2="30.64" y2="27.00" stroke="#7f7f7f" stroke-width="1.00" clip-path="url('#clipping-rect1')" />
		<line x1="24.94" y1="29.00" x2="24.94" y2="26.00" stroke="#7f7f7f" stroke-width="1.00" clip-path="url('#clipping-rect1')" />
		<line x1="19.25" y1="29.00" x2="19.25" y2="27.00" stroke="#7f7f7f" stroke-width="1.00" clip-path="url('#clipping-rect1')" />
		<line x1="13.56" y1="29.00" x2="13.56" y2="26.00" stroke="#7f7f7f" stroke-width="1.00" clip-path="url('#clipping-rect1')" />
		<line x1="7.86" y1="29.00" x2="7.86" y2="27.00" stroke="#7f7f7f" stroke-width="1.00" clip-path="url('#clipping-rect1')" />
		<line x1="2.17" y1="29.00" x2="2.17" y2="26.00" stroke="#7f7f7f" stroke-width="1.00" clip-path="url('#clipping-rect1')" />
		<text x="876.55" y="24.00" font-family="Helvetica" font-size="10" fill="#333333" clip-path="url('#clipping-rect1')" >1</text>
		<line x1="879.00" y1="31.00" x2="879.00" y2="16.00" stroke="#7f7f7f" stroke-width="1.00" clip-path="url('#clipping-rect1')" />
		<text x="824.06" y="24.00" font-family="Helvetica" font-size="10" fill="#333333" clip-path="url('#clipping-rect1')" >50 K</text>
		<line x1="822.06" y1="31.00" x2="822.06" y2="16.00" stroke="#7f7f7f" stroke-width="1.00" clip-path="url('#clipping-rect1')" />
		<text x="767.13" y="24.00" font-family="Helvetica" font-size="10" fill="#333333" clip-path="url('#clipping-rect1')" >100 K</text>
		<line x1="765.13" y1="31.00" x2="765.13" y2="16.00" stroke="#7f7f7f" stroke-width="1.00" clip-path="url('#clipping-rect1')" />
		<text x="710.19" y="24.00" font-family="Helvetica" font-size="10" fill="#333333" clip-path="url('#clipping-rect1')" >150 K</text>
		<line x1="708.19" y1="31.00" x2="708.19" y2="16.00" stroke="#7f7f7f" stroke-width="1.00" clip-path="url('#clipping-rect1')" />
		<text x="653.25" y="24.00" font-family="Helvetica" font-size="10" fill="#333333" clip-path="url('#clipping-rect1')" >200 K</text>
		<line x1="651.25" y1="31.00" x2="651.25" y2="16.00" stroke="#7f7f7f" stroke-width="1.00" clip-path="url('#clipping-rect1')" />
		<text x="596.31" y="24.00" font-family="Helvetica" font-size="10" fill="#333333" clip-path="url('#clipping-rect1')" >250 K</text>
		<line x1="594.31" y1="31.00" x2="594.31" y2="16.00" stroke="#7f7f7f" stroke-width="1.00" clip-path="url('#clipping-rect1')" />
		<text x="539.38" y="24.00" font-family="Helvetica" font-size="10" fill="#333333" clip-path="url('#clipping-rect1')" >300 K</text>
		<line x1="537.38" y1="31.00" x2="537.38" y2="16.00" stroke="#7f7f7f" stroke-width="1.00" clip-path="url('#clipping-rect1')" />
		<text x="482.44" y="24.00" font-family="Helvetica" font-size="10" fill="#333333" clip-path="url('#clipping-rect1')" >350 K</text>
		<line x1="480.44" y1="31.00" x2="480.44" y2="16.00" stroke="#7f7f7f" stroke-width="1.00" clip-path="url('#clipping-rect1')" />
		<text x="425.50" y="24.00" font-family="Helvetica" font-size="10" fill="#333333" clip-path="url('#clipping-rect1')" >400 K</text>
		<line x1="423.50" y1="31.00" x2="423.50" y2="16.00" stroke="#7f7f7f" stroke-width="1.00" clip-path="url('#clipping-rect1')" />
		<text x="368.57" y="24.00" font-family="Helvetica" font-size="10" fill="#333333" clip-path="url('#clipping-rect1')" >450 K</text>
		<line x1="366.57" y1="31.00" x2="366.57" y2="16.00" stroke="#7f7f7f" stroke-width="1.00" clip-path="url('#clipping-rect1')" />
		<text x="311.63" y="24.00" font-family="Helvetica" font-size="10" fill="#333333" clip-path="url('#clipping-rect1')" >500 K</text>
		<line x1="309.63" y1="31.00" x2="309.63" y2="16.00" stroke="#7f7f7f" stroke-width="1.00" clip-path="url('#clipping-rect1')" />
		<text x="254.69" y="24.00" font-family="Helvetica" font-size="10" fill="#333333" clip-path="url('#clipping-rect1')" >550 K</text>
		<line x1="252.69" y1="31.00" x2="252.69" y2="16.00" stroke="#7f7f7f" stroke-width="1.00" clip-path="url('#clipping-rect1')" />
		<text x="197.75" y="24.00" font-family="Helvetica" font-size="10" fill="#333333" clip-path="url('#clipping-rect1')" >600 K</text>
		<line x1="195.75" y1="31.00" x2="195.75" y2="16.00" stroke="#7f7f7f" stroke-width="1.00" clip-path="url('#clipping-rect1')" />
		<text x="140.82" y="24.00" font-family="Helvetica" font-size="10" fill="#333333" clip-path="url('#clipping-rect1')" >650 K</text>
		<line x1="138.82" y1="31.00" x2="138.82" y2="16.00" stroke="#7f7f7f" stroke-width="1.00" clip-path="url('#clipping-rect1')" />
		<text x="83.88" y="24.00" font-family="Helvetica" font-size="10" fill="#333333" clip-path="url('#clipping-rect1')" >700 K</text>
		<line x1="81.88" y1="31.00" x2="81.88" y2="16.00" stroke="#7f7f7f" stroke-width="1.00" clip-path="url('#clipping-rect1')" />
		<text x="26.94" y="24.00" font-family="Helvetica" font-size="10" fill="#333333" clip-path="url('#clipping-rect1')" >750 K</text>
		<line x1="24.94" y1="31.00" x2="24.94" y2="16.00" stroke="#7f7f7f" stroke-width="1.00" clip-path="url('#clipping-rect1')" />
		<line x1="879.00" y1="276.00" x2="879.00" y2="31.00" stroke="#ebebeb" stroke-width="1.00" />
		<line x1="822.94" y1="276.00" x2="822.94" y2="31.00" stroke="#ebebeb" stroke-width="1.00" />
		<line x1="765.87" y1="276.00" x2="765.87" y2="31.00" stroke="#ebebeb" stroke-width="1.00" />
		<line x1="708.81" y1="276.00" x2="708.81" y2="31.00" stroke="#ebebeb" stroke-width="1.00" />
		<line x1="651.74" y1="276.00" x2="651.74" y2="31.00" stroke="#ebebeb" stroke-width="1.00" />
		<line x1="594.68" y1="276.00" x2="594.68" y2="31.00" stroke="#ebebeb" stroke-width="1.00" />
		<line x1="537.61" y1="276.00" x2="537.61" y2="31.00" stroke="#ebebeb" stroke-width="1.00" />
		<line x1="480.55" y1="276.00" x2="480.55" y2="31.00" stroke="#ebebeb" stroke-width="1.00" />
		<line x1="423.48" y1="276.00" x2="423.48" y2="31.00" stroke="#ebebeb" stroke-width="1.00" />
		<line x1="366.42" y1="276.00" x2="366.42" y2="31.00" stroke="#ebebeb" stroke-width="1.00" />
		<line x1="309.35" y1="276.00" x2="309.35" y2="31.00" stroke="#ebebeb" stroke-width="1.00" />
		<line x1="252.29" y1="276.00" x2="252.29" y2="31.00" stroke="#ebebeb" stroke-width="1.00" />
		<line x1="195.22" y1="276.00" x2="195.22" y2="31.00" stroke="#ebebeb" stroke-width="1.00" />
		<line x1="138.16" y1="276.00" x2="138.16" y2="31.00" stroke="#ebebeb" stroke-width="1.00" />
		<line x1="81.09" y1="276.00" x2="81.09" y2="31.00" stroke="#ebebeb" stroke-width="1.00" />
		<line x1="24.03" y1="276.00" x2="24.03" y2="31.00" stroke="#ebebeb" stroke-width="1.00" />
		<polygon fill="url('#gradient1')" shape-rendering="crispEdges" points="0.00,37.50 0.00,33.00 879.00,33.00 879.00,37.50 879.00,42.00 0.00,42.00 " />
		<line x1="879.00" y1="42.00" x2="879.00" y2="33.00" stroke="#6c6c6c" stroke-width="1.00" stroke-linejoin="round" />
		<line x1="879.00" y1="33.00" x2="0.00" y2="33.00" stroke="#6c6c6c" stroke-width="1.00" stroke-linejoin="round" />
		<line x1="0.00" y1="33.00" x2="0.00" y2="42.00" stroke="#6c6c6c" stroke-width="1.00" stroke-linejoin="round" />
		<line x1="879.00" y1="42.00" x2="0.00" y2="42.00" stroke="#6c6c6c" stroke-width="1.00" stroke-linejoin="round" />
		<polygon fill="url('#gradient2')" shape-rendering="crispEdges" points="0.00,58.00 879.00,58.00 879.00,44.00 0.00,44.00 " clip-path="url('#clipping-rect2')" />
		<text x="0.00" y="54.00" font-family="Helvetica" font-size="12" fill="#333333" >(U) Alignment for group templates, BLAST Results for: NM_020165:Homo sapiens RAD18 E3 ubiquitin...</text>
		<polygon fill="url('#gradient2')" shape-rendering="crispEdges" points="0.00,74.00 879.00,74.00 879.00,60.00 0.00,60.00 " clip-path="url('#clipping-rect2')" />
		<text x="0.00" y="70.00" font-family="Helvetica" font-size="12" fill="#333333" >(U) BLAST Results for: NM_020165:Homo sapiens RAD18 E3 ubiquitin...</text>
		<polygon fill="url('#gradient2')" shape-rendering="crispEdges" points="0.00,90.00 879.00,90.00 879.00,76.00 0.00,76.00 " clip-path="url('#clipping-rect2')" />
		<text x="0.00" y="86.00" font-family="Helvetica" font-size="12" fill="#333333" >(U) Alignment for group templates, BLAST Results for: NM_015151:Homo sapiens disco interacting protein...</text>
		<polygon fill="url('#gradient2')" shape-rendering="crispEdges" points="0.00,106.00 879.00,106.00 879.00,92.00 0.00,92.00 " clip-path="url('#clipping-rect2')" />
		<text x="0.00" y="102.00" font-family="Helvetica" font-size="12" fill="#333333" >(U) BLAST Results for: NM_015151:Homo sapiens disco interacting protein...</text>
		<polygon fill="url('#gradient2')" shape-rendering="crispEdges" points="0.00,122.00 879.00,122.00 879.00,108.00 0.00,108.00 " clip-path="url('#clipping-rect2')" />
		<text x="0.00" y="118.00" font-family="Helvetica" font-size="12" fill="#333333" >(U) Alignment for group templates, BLAST Results for: NM_006031:Homo sapiens pericentrin (PCNT),...</text>
		<polygon fill="url('#gradient2')" shape-rendering="crispEdges" points="0.00,138.00 879.00,138.00 879.00,124.00 0.00,124.00 " clip-path="url('#clipping-rect2')" />
		<text x="0.00" y="134.00" font-family="Helvetica" font-size="12" fill="#333333" >(U) BLAST Results for: NM_006031:Homo sapiens pericentrin (PCNT),...</text>
		<polygon fill="url('#gradient2')" shape-rendering="crispEdges" points="0.00,154.00 879.00,154.00 879.00,140.00 0.00,140.00 " clip-path="url('#clipping-rect2')" />
		<text x="0.00" y="150.00" font-family="Helvetica" font-size="12" fill="#333333" >(U) Alignment for group templates, BLAST Results for: XM_011525269:PREDICTED: Homo sapiens ATPase...</text>
		<polygon fill="url('#gradient2')" shape-rendering="crispEdges" points="0.00,170.00 879.00,170.00 879.00,156.00 0.00,156.00 " clip-path="url('#clipping-rect2')" />
		<text x="0.00" y="166.00" font-family="Helvetica" font-size="12" fill="#333333" >(U) BLAST Results for: XM_011525269:PREDICTED: Homo sapiens ATPase...</text>
		<line x1="869.00" y1="224.00" x2="869.00" y2="239.00" stroke="#009900" stroke-opacity="0.10" stroke-width="1.00" stroke-linejoin="round" />
		<line x1="869.00" y1="239.00" x2="693.02" y2="239.00" stroke="#009900" stroke-opacity="0.10" stroke-width="1.00" stroke-linejoin="round" />
		<line x1="693.02" y1="239.00" x2="693.02" y2="224.00" stroke="#009900" stroke-opacity="0.10" stroke-width="1.00" stroke-linejoin="round" />
		<line x1="869.00" y1="224.00" x2="693.02" y2="224.00" stroke="#009900" stroke-opacity="0.10" stroke-width="1.00" stroke-linejoin="round" />
		<polygon fill="#77b977" shape-rendering="crispEdges" points="733.20,226.00 733.20,237.00 734.20,237.00 734.20,226.00 " />
		<line x1="733.65" y1="231.50" x2="707.72" y2="231.50" stroke="#4ba34b" stroke-width="2.00" />
		<polygon fill="#b2b2b2" shape-rendering="crispEdges" points="716.28,231.50 725.08,227.10 722.88,231.50 725.08,235.90 " />
		<polygon fill="#77b977" shape-rendering="crispEdges" points="707.19,226.00 707.19,237.00 708.19,237.00 708.19,226.00 " />
		<polygon fill="#1e8c1e" shape-rendering="crispEdges" points="707.14,226.00 707.14,237.00 708.14,237.00 708.14,226.00 " />
		<line x1="707.61" y1="231.50" x2="704.58" y2="231.50" stroke="#4ba34b" stroke-width="2.00" />
		<polygon fill="#1e8c1e" shape-rendering="crispEdges" points="703.21,226.00 703.21,237.00 704.58,237.00 704.58,226.00 " />
		<line x1="703.21" y1="231.50" x2="698.49" y2="231.50" stroke="#4ba34b" stroke-width="2.00" />
		<polygon fill="#1e8c1e" shape-rendering="crispEdges" points="697.90,226.00 697.90,237.00 698.90,237.00 698.90,226.00 " />
		<line x1="698.31" y1="231.50" x2="697.33" y2="231.50" stroke="#4ba34b" stroke-width="2.00" />
		<polygon fill="#77b977" shape-rendering="crispEdges" points="696.77,226.00 696.77,237.00 697.77,237.00 697.77,226.00 " />
		<polygon fill="#a5d1a5" shape-rendering="crispEdges" points="696.70,226.00 696.70,237.00 697.70,237.00 697.70,226.00 " />
		<line x1="697.18" y1="231.50" x2="695.57" y2="231.50" stroke="#4ba34b" stroke-width="2.00" />
		<polygon fill="#4aa34a" shape-rendering="crispEdges" points="695.01,226.00 695.01,237.00 696.01,237.00 696.01,226.00 " />
		<polygon fill="#77b977" shape-rendering="crispEdges" points="694.73,226.00 694.73,237.00 695.73,237.00 695.73,226.00 " />
		<polygon fill="#ffffff" shape-rendering="crispEdges" points="733.75,237.00 733.75,226.00 866.00,226.00 866.00,237.00 " />
		<text x="737.75" y="235.00" font-family="Helvetica" font-size="10" fill="#124d94" >ENSSPUG00000017535 [+4]</text>
		<line x1="844.73" y1="244.00" x2="844.73" y2="272.00" stroke="#009900" stroke-opacity="0.10" stroke-width="1.00" stroke-linejoin="round" />
		<line x1="844.73" y1="272.00" x2="599.85" y2="272.00" stroke="#009900" stroke-opacity="0.10" stroke-width="1.00" stroke-linejoin="round" />
		<line x1="599.85" y1="272.00" x2="599.85" y2="244.00" stroke="#009900" stroke-opacity="0.10" stroke-width="1.00" stroke-linejoin="round" />
		<line x1="844.73" y1="244.00" x2="599.85" y2="244.00" stroke="#009900" stroke-opacity="0.10" stroke-width="1.00" stroke-linejoin="round" />
		<text x="667.95" y="253.00" font-family="Helvetica" font-size="10" fill="#124d94" >ENSSPUG00000017543</text>
		<polygon fill="#1e8c1e" shape-rendering="crispEdges" points="723.44,259.00 723.44,270.00 724.44,270.00 724.44,259.00 " />
		<line x1="723.91" y1="264.50" x2="723.72" y2="264.50" stroke="#4ba34b" stroke-width="2.00" />
		<polygon fill="#1e8c1e" shape-rendering="crispEdges" points="721.67,259.00 721.67,270.00 723.72,270.00 723.72,259.00 " />
		<line x1="721.67" y1="264.50" x2="721.64" y2="264.50" stroke="#4ba34b" stroke-width="2.00" />
		<polygon fill="#1e8c1e" shape-rendering="crispEdges" points="721.13,259.00 721.13,270.00 722.13,270.00 722.13,259.00 " />
		<line x1="721.62" y1="264.50" x2="721.44" y2="264.50" stroke="#4ba34b" stroke-width="2.00" />
		<polygon fill="#1e8c1e" shape-rendering="crispEdges" points="720.81,259.00 720.81,270.00 721.81,270.00 721.81,259.00 " />
		<polygon fill="#ffffff" shape-rendering="crispEdges" points="723.97,270.00 723.97,259.00 841.73,259.00 841.73,270.00 " />
		<text x="727.97" y="268.00" font-family="Helvetica" font-size="10" fill="#124d94" >ENSSPUT00000024371.1</text>
		<polygon fill="#ffffff" shape-rendering="crispEdges" points="601.85,270.00 601.85,259.00 717.18,259.00 717.18,270.00 " />
		<text x="602.85" y="268.00" font-family="Helvetica" font-size="10" fill="#124d94" >ENSSPUP00000022859.1</text>
		<line x1="783.80" y1="191.00" x2="783.80" y2="219.00" stroke="#009900" stroke-opacity="0.10" stroke-width="1.00" stroke-linejoin="round" />
		<line x1="783.80" y1="219.00" x2="495.94" y2="219.00" stroke="#009900" stroke-opacity="0.10" stroke-width="1.00" stroke-linejoin="round" />
		<line x1="495.94" y1="219.00" x2="495.94" y2="191.00" stroke="#009900" stroke-opacity="0.10" stroke-width="1.00" stroke-linejoin="round" />
		<line x1="783.80" y1="191.00" x2="495.94" y2="191.00" stroke="#009900" stroke-opacity="0.10" stroke-width="1.00" stroke-linejoin="round" />
		<text x="585.53" y="200.00" font-family="Helvetica" font-size="10" fill="#124d94" >ENSSPUG00000017553</text>
		<polygon fill="#1e8c1e" shape-rendering="crispEdges" points="661.94,206.00 661.94,217.00 662.94,217.00 662.94,206.00 " />
		<line x1="662.41" y1="211.50" x2="660.52" y2="211.50" stroke="#4ba34b" stroke-width="2.00" />
		<polygon fill="#1e8c1e" shape-rendering="crispEdges" points="656.28,206.00 656.28,217.00 660.52,217.00 660.52,206.00 " />
		<line x1="656.28" y1="211.50" x2="617.05" y2="211.50" stroke="#4ba34b" stroke-width="2.00" />
		<polygon fill="#b2b2b2" shape-rendering="crispEdges" points="641.07,211.50 632.27,207.10 634.47,211.50 632.27,215.90 " />
		<polygon fill="#1e8c1e" shape-rendering="crispEdges" points="616.38,206.00 616.38,217.00 617.38,217.00 617.38,206.00 " />
		<polygon fill="#ffffff" shape-rendering="crispEdges" points="662.47,217.00 662.47,206.00 780.80,206.00 780.80,217.00 " />
		<text x="666.47" y="215.00" font-family="Helvetica" font-size="10" fill="#124d94" >ENSSPUP00000022864.1</text>
		<polygon fill="#ffffff" shape-rendering="crispEdges" points="497.94,217.00 497.94,206.00 612.71,206.00 612.71,217.00 " />
		<text x="498.94" y="215.00" font-family="Helvetica" font-size="10" fill="#124d94" >ENSSPUT00000024376.1</text>
		<line x1="440.52" y1="191.00" x2="440.52" y2="219.00" stroke="#009900" stroke-opacity="0.10" stroke-width="1.00" stroke-linejoin="round" />
		<line x1="440.52" y1="219.00" x2="156.45" y2="219.00" stroke="#009900" stroke-opacity="0.10" stroke-width="1.00" stroke-linejoin="round" />
		<line x1="156.45" y1="219.00" x2="156.45" y2="191.00" stroke="#009900" stroke-opacity="0.10" stroke-width="1.00" stroke-linejoin="round" />
		<line x1="440.52" y1="191.00" x2="156.45" y2="191.00" stroke="#009900" stroke-opacity="0.10" stroke-width="1.00" stroke-linejoin="round" />
		<text x="244.11" y="200.00" font-family="Helvetica" font-size="10" fill="#124d94" >ENSSPUG00000017558</text>
		<polygon fill="#a5d1a5" shape-rendering="crispEdges" points="318.41,206.00 318.41,217.00 319.41,217.00 319.41,206.00 " />
		<polygon fill="#1e8c1e" shape-rendering="crispEdges" points="317.93,206.00 317.93,217.00 318.93,217.00 318.93,206.00 " />
		<line x1="318.24" y1="211.50" x2="315.45" y2="211.50" stroke="#4ba34b" stroke-width="2.00" />
		<polygon fill="#1e8c1e" shape-rendering="crispEdges" points="314.90,206.00 314.90,217.00 315.90,217.00 315.90,206.00 " />
		<line x1="315.36" y1="211.50" x2="315.27" y2="211.50" stroke="#4ba34b" stroke-width="2.00" />
		<polygon fill="#1e8c1e" shape-rendering="crispEdges" points="314.72,206.00 314.72,217.00 315.72,217.00 315.72,206.00 " />
		<line x1="315.16" y1="211.50" x2="314.19" y2="211.50" stroke="#4ba34b" stroke-width="2.00" />
		<polygon fill="#1e8c1e" shape-rendering="crispEdges" points="313.56,206.00 313.56,217.00 314.56,217.00 314.56,206.00 " />
		<line x1="313.93" y1="211.50" x2="290.51" y2="211.50" stroke="#4ba34b" stroke-width="2.00" />
		<polygon fill="#b2b2b2" shape-rendering="crispEdges" points="306.62,211.50 297.82,207.10 300.02,211.50 297.82,215.90 " />
		<polygon fill="#1e8c1e" shape-rendering="crispEdges" points="289.89,206.00 289.89,217.00 290.89,217.00 290.89,206.00 " />
		<line x1="290.27" y1="211.50" x2="283.34" y2="211.50" stroke="#4ba34b" stroke-width="2.00" />
		<polygon fill="#1e8c1e" shape-rendering="crispEdges" points="282.71,206.00 282.71,217.00 283.71,217.00 283.71,206.00 " />
		<line x1="283.08" y1="211.50" x2="280.85" y2="211.50" stroke="#4ba34b" stroke-width="2.00" />
		<polygon fill="#1e8c1e" shape-rendering="crispEdges" points="280.21,206.00 280.21,217.00 281.21,217.00 281.21,206.00 " />
		<line x1="280.58" y1="211.50" x2="279.73" y2="211.50" stroke="#4ba34b" stroke-width="2.00" />
		<polygon fill="#1e8c1e" shape-rendering="crispEdges" points="279.12,206.00 279.12,217.00 280.12,217.00 280.12,206.00 " />
		<line x1="279.51" y1="211.50" x2="277.43" y2="211.50" stroke="#4ba34b" stroke-width="2.00" />
		<polygon fill="#1e8c1e" shape-rendering="crispEdges" points="276.83,206.00 276.83,217.00 277.83,217.00 277.83,206.00 " />
		<polygon fill="#a5d1a5" shape-rendering="crispEdges" points="276.73,206.00 276.73,217.00 277.73,217.00 277.73,206.00 " />
		<polygon fill="#ffffff" shape-rendering="crispEdges" points="319.19,217.00 319.19,206.00 437.52,206.00 437.52,217.00 " />
		<text x="323.19" y="215.00" font-family="Helvetica" font-size="10" fill="#124d94" >ENSSPUP00000022872.1</text>
		<polygon fill="#ffffff" shape-rendering="crispEdges" points="158.45,217.00 158.45,206.00 273.22,206.00 273.22,217.00 " />
		<text x="159.45" y="215.00" font-family="Helvetica" font-size="10" fill="#124d94" >ENSSPUT00000024384.1</text>
		<line x1="369.78" y1="224.00" x2="369.78" y2="252.00" stroke="#009900" stroke-opacity="0.10" stroke-width="1.00" stroke-linejoin="round" />
		<line x1="369.78" y1="252.00" x2="99.09" y2="252.00" stroke="#009900" stroke-opacity="0.10" stroke-width="1.00" stroke-linejoin="round" />
		<line x1="99.09" y1="252.00" x2="99.09" y2="224.00" stroke="#009900" stroke-opacity="0.10" stroke-width="1.00" stroke-linejoin="round" />
		<line x1="369.78" y1="224.00" x2="99.09" y2="224.00" stroke="#009900" stroke-opacity="0.10" stroke-width="1.00" stroke-linejoin="round" />
		<text x="180.09" y="233.00" font-family="Helvetica" font-size="10" fill="#124d94" >ENSSPUG00000017563</text>
		<polygon fill="#a5d1a5" shape-rendering="crispEdges" points="248.46,239.00 248.46,250.00 249.46,250.00 249.46,239.00 " />
		<line x1="248.90" y1="244.50" x2="240.06" y2="244.50" stroke="#4ba34b" stroke-width="2.00" />
		<polygon fill="#a5d1a5" shape-rendering="crispEdges" points="239.54,239.00 239.54,250.00 240.54,250.00 240.54,239.00 " />
		<polygon fill="#1e8c1e" shape-rendering="crispEdges" points="239.34,239.00 239.34,250.00 240.34,250.00 240.34,239.00 " />
		<line x1="239.65" y1="244.50" x2="237.98" y2="244.50" stroke="#4ba34b" stroke-width="2.00" />
		<polygon fill="#1e8c1e" shape-rendering="crispEdges" points="237.39,239.00 237.39,250.00 238.39,250.00 238.39,239.00 " />
		<line x1="237.79" y1="244.50" x2="233.91" y2="244.50" stroke="#4ba34b" stroke-width="2.00" />
		<polygon fill="#1e8c1e" shape-rendering="crispEdges" points="233.26,239.00 233.26,250.00 234.26,250.00 234.26,239.00 " />
		<line x1="233.61" y1="244.50" x2="229.53" y2="244.50" stroke="#4ba34b" stroke-width="2.00" />
		<polygon fill="#1e8c1e" shape-rendering="crispEdges" points="228.97,239.00 228.97,250.00 229.97,250.00 229.97,239.00 " />
		<line x1="229.41" y1="244.50" x2="226.59" y2="244.50" stroke="#4ba34b" stroke-width="2.00" />
		<polygon fill="#1e8c1e" shape-rendering="crispEdges" points="226.00,239.00 226.00,250.00 227.00,250.00 227.00,239.00 " />
		<line x1="226.41" y1="244.50" x2="224.69" y2="244.50" stroke="#4ba34b" stroke-width="2.00" />
		<polygon fill="#1e8c1e" shape-rendering="crispEdges" points="224.05,239.00 224.05,250.00 225.05,250.00 225.05,239.00 " />
		<line x1="224.41" y1="244.50" x2="222.01" y2="244.50" stroke="#4ba34b" stroke-width="2.00" />
		<polygon fill="#1e8c1e" shape-rendering="crispEdges" points="221.43,239.00 221.43,250.00 222.43,250.00 222.43,239.00 " />
		<polygon fill="#a5d1a5" shape-rendering="crispEdges" points="220.42,239.00 220.42,250.00 221.85,250.00 221.85,239.00 " />
		<polygon fill="#ffffff" shape-rendering="crispEdges" points="249.01,250.00 249.01,239.00 366.78,239.00 366.78,250.00 " />
		<text x="253.01" y="248.00" font-family="Helvetica" font-size="10" fill="#124d94" >ENSSPUT00000024401.1</text>
		<polygon fill="#ffffff" shape-rendering="crispEdges" points="101.09,250.00 101.09,239.00 216.42,239.00 216.42,250.00 " />
		<text x="102.09" y="248.00" font-family="Helvetica" font-size="10" fill="#124d94" >ENSSPUP00000022888.1</text>
		<polygon fill="url('#gradient3')" shape-rendering="crispEdges" points="0.00,186.00 879.00,186.00 879.00,172.00 0.00,172.00 " clip-path="url('#clipping-rect2')" />
		<text x="0.00" y="182.00" font-family="Helvetica" font-size="12" fill="#333333" >Genes, Ensembl release 114</text>
		<polygon fill="#0000ff" fill-opacity="0.20" shape-rendering="crispEdges" points="639.50,31.50 639.50,23.10 639.50,23.10 " />
		<polygon fill="#0000ff" fill-opacity="0.20" shape-rendering="crispEdges" points="639.50,31.50 639.50,31.50 639.50,23.10 " />
		<line x1="639.50" y1="30.50" x2="639.50" y2="23.10" stroke="#0000ff" stroke-opacity="0.40" stroke-width="1.00" />
		<line x1="639.50" y1="30.50" x2="639.50" y2="23.10" stroke="#0000ff" stroke-opacity="0.40" stroke-width="1.00" />
		<polygon fill="#0000ff" shape-rendering="crispEdges" points="633.79,22.35 633.50,20.50 633.79,18.65 634.65,16.97 635.97,15.65 637.65,14.79 639.50,14.50 639.50,26.50 637.65,26.21 635.97,25.35 634.65,24.03 " />
		<polygon fill="#0000ff" fill-opacity="0.60" shape-rendering="crispEdges" points="670.89,26.50 670.89,14.50 639.50,14.50 639.50,26.50 " />
		<text x="641.50" y="23.50" font-family="Helvetica" font-size="10" fill="#ffffff" >JCAD</text>
		<polygon fill="#0000ff" fill-opacity="0.20" shape-rendering="crispEdges" points="639.73,277.00 639.73,31.00 639.73,31.00 " />
		<polygon fill="#0000ff" fill-opacity="0.20" shape-rendering="crispEdges" points="639.73,277.00 639.73,277.00 639.73,31.00 " />
		<line x1="639.73" y1="276.00" x2="639.73" y2="31.00" stroke="#0000ff" stroke-opacity="0.40" stroke-width="1.00" />
		<line x1="639.73" y1="276.00" x2="639.73" y2="31.00" stroke="#0000ff" stroke-opacity="0.40" stroke-width="1.00" />
		<polygon fill="#0000ff" fill-opacity="0.20" shape-rendering="crispEdges" points="289.50,31.50 289.50,23.10 289.50,23.10 " />
		<polygon fill="#0000ff" fill-opacity="0.20" shape-rendering="crispEdges" points="289.50,31.50 289.50,31.50 289.50,23.10 " />
		<line x1="289.50" y1="30.50" x2="289.50" y2="23.10" stroke="#0000ff" stroke-opacity="0.40" stroke-width="1.00" />
		<line x1="289.50" y1="30.50" x2="289.50" y2="23.10" stroke="#0000ff" stroke-opacity="0.40" stroke-width="1.00" />
		<polygon fill="#0000ff" shape-rendering="crispEdges" points="283.79,22.35 283.50,20.50 283.79,18.65 284.65,16.97 285.97,15.65 287.65,14.79 289.50,14.50 289.50,26.50 287.65,26.21 285.97,25.35 284.65,24.03 " />
		<polygon fill="#0000ff" fill-opacity="0.60" shape-rendering="crispEdges" points="328.70,26.50 328.70,14.50 289.50,14.50 289.50,26.50 " />
		<text x="291.50" y="23.50" font-family="Helvetica" font-size="10" fill="#ffffff" >MTPAP</text>
		<polygon fill="#0000ff" fill-opacity="0.20" shape-rendering="crispEdges" points="289.33,277.00 289.33,31.00 289.33,31.00 " />
		<polygon fill="#0000ff" fill-opacity="0.20" shape-rendering="crispEdges" points="289.33,277.00 289.33,277.00 289.33,31.00 " />
		<line x1="289.33" y1="276.00" x2="289.33" y2="31.00" stroke="#0000ff" stroke-opacity="0.40" stroke-width="1.00" />
		<line x1="289.33" y1="276.00" x2="289.33" y2="31.00" stroke="#0000ff" stroke-opacity="0.40" stroke-width="1.00" />
		<polygon fill="#0000ff" fill-opacity="0.20" shape-rendering="crispEdges" points="696.50,31.50 696.50,23.10 696.50,23.10 " />
		<polygon fill="#0000ff" fill-opacity="0.20" shape-rendering="crispEdges" points="696.50,31.50 696.50,31.50 696.50,23.10 " />
		<line x1="696.50" y1="30.50" x2="696.50" y2="23.10" stroke="#0000ff" stroke-opacity="0.40" stroke-width="1.00" />
		<line x1="696.50" y1="30.50" x2="696.50" y2="23.10" stroke="#0000ff" stroke-opacity="0.40" stroke-width="1.00" />
		<polygon fill="#0000ff" shape-rendering="crispEdges" points="690.79,22.35 690.50,20.50 690.79,18.65 691.65,16.97 692.97,15.65 694.65,14.79 696.50,14.50 696.50,26.50 694.65,26.21 692.97,25.35 691.65,24.03 " />
		<polygon fill="#0000ff" fill-opacity="0.60" shape-rendering="crispEdges" points="735.12,26.50 735.12,14.50 696.50,14.50 696.50,26.50 " />
		<text x="698.50" y="23.50" font-family="Helvetica" font-size="10" fill="#ffffff" >UBOX5</text>
		<polygon fill="#0000ff" fill-opacity="0.20" shape-rendering="crispEdges" points="696.79,277.00 696.79,31.00 696.79,31.00 " />
		<polygon fill="#0000ff" fill-opacity="0.20" shape-rendering="crispEdges" points="696.79,277.00 696.79,277.00 696.79,31.00 " />
		<line x1="696.79" y1="276.00" x2="696.79" y2="31.00" stroke="#0000ff" stroke-opacity="0.40" stroke-width="1.00" />
		<line x1="696.79" y1="276.00" x2="696.79" y2="31.00" stroke="#0000ff" stroke-opacity="0.40" stroke-width="1.00" />
		<polygon fill="#0000ff" fill-opacity="0.20" shape-rendering="crispEdges" points="722.50,31.50 722.50,23.10 722.50,23.10 " />
		<polygon fill="#0000ff" fill-opacity="0.20" shape-rendering="crispEdges" points="722.50,31.50 722.50,31.50 722.50,23.10 " />
		<line x1="722.50" y1="30.50" x2="722.50" y2="23.10" stroke="#0000ff" stroke-opacity="0.40" stroke-width="1.00" />
		<line x1="722.50" y1="30.50" x2="722.50" y2="23.10" stroke="#0000ff" stroke-opacity="0.40" stroke-width="1.00" />
		<polygon fill="#0000ff" shape-rendering="crispEdges" points="716.79,22.35 716.50,20.50 716.79,18.65 717.65,16.97 718.97,15.65 720.65,14.79 722.50,14.50 722.50,26.50 720.65,26.21 718.97,25.35 717.65,24.03 " />
		<polygon fill="#0000ff" fill-opacity="0.60" shape-rendering="crispEdges" points="772.17,26.50 772.17,14.50 722.50,14.50 722.50,26.50 " />
		<text x="724.50" y="23.50" font-family="Helvetica" font-size="10" fill="#ffffff" >FASTKD5</text>
		<polygon fill="#0000ff" fill-opacity="0.20" shape-rendering="crispEdges" points="722.82,277.00 722.82,31.00 722.82,31.00 " />
		<polygon fill="#0000ff" fill-opacity="0.20" shape-rendering="crispEdges" points="722.82,277.00 722.82,277.00 722.82,31.00 " />
		<line x1="722.82" y1="276.00" x2="722.82" y2="31.00" stroke="#0000ff" stroke-opacity="0.40" stroke-width="1.00" />
		<line x1="722.82" y1="276.00" x2="722.82" y2="31.00" stroke="#0000ff" stroke-opacity="0.40" stroke-width="1.00" />
		<polygon fill="#e5e5e5" shape-rendering="crispEdges" points="879.00,13.00 879.00,-1.00 0.00,-1.00 0.00,13.00 " />
		<text x="0.00" y="10.00" font-family="Helvetica Bold" font-size="12" text-anchor="start" fill="#000000" >QEPC01010294.1:0..771904 Sphenodon punctatus isolate mauimua-1 ScrUdWx_1227, whole genome shotgun sequence</text>
	</g>
</svg>
