<?xml version="1.0" standalone="no" ?>
<!DOCTYPE svg PUBLIC "-//W3C//DTD SVG 1.1//EN" "http://www.w3.org/Graphics/SVG/1.1/DTD/svg11.dtd">
<svg width="994px" height="138px" xmlns="http://www.w3.org/2000/svg" version="1.1" viewBox="0 0 994 138" >
	<style type="text/css" > <![CDATA[
		@import url("https://www.ncbi.nlm.nih.gov/projects/sviewer/css/svg_fonts.css");
	]]>
	</style>
	<desc >Generated by NCBI Genome Workbench http://www.ncbi.nlm.nih.gov/tools/gbench/</desc>
	<defs >
		<clipPath id="clipping-rect1" >
			<rect x="0" y="14" width="994" height="18" />
		</clipPath>
		<clipPath id="clipping-rect2" >
			<rect x="0" y="32" width="994" height="106" />
		</clipPath>
	</defs>
	<g >
		<polygon fill="#ffffff" shape-rendering="crispEdges" points="994.00,31.00 994.00,13.00 0.00,13.00 0.00,31.00 " />
		<line x1="0.00" y1="29.00" x2="994.00" y2="29.00" stroke="#7f7f7f" stroke-width="1.00" clip-path="url('#clipping-rect1')" />
		<line x1="993.57" y1="29.00" x2="993.57" y2="27.00" stroke="#7f7f7f" stroke-width="1.00" clip-path="url('#clipping-rect1')" />
		<line x1="988.56" y1="29.00" x2="988.56" y2="27.00" stroke="#7f7f7f" stroke-width="1.00" clip-path="url('#clipping-rect1')" />
		<line x1="983.54" y1="29.00" x2="983.54" y2="26.00" stroke="#7f7f7f" stroke-width="1.00" clip-path="url('#clipping-rect1')" />
		<line x1="978.53" y1="29.00" x2="978.53" y2="27.00" stroke="#7f7f7f" stroke-width="1.00" clip-path="url('#clipping-rect1')" />
		<line x1="973.52" y1="29.00" x2="973.52" y2="27.00" stroke="#7f7f7f" stroke-width="1.00" clip-path="url('#clipping-rect1')" />
		<line x1="968.51" y1="29.00" x2="968.51" y2="27.00" stroke="#7f7f7f" stroke-width="1.00" clip-path="url('#clipping-rect1')" />
		<line x1="963.50" y1="29.00" x2="963.50" y2="27.00" stroke="#7f7f7f" stroke-width="1.00" clip-path="url('#clipping-rect1')" />
		<line x1="958.48" y1="29.00" x2="958.48" y2="26.00" stroke="#7f7f7f" stroke-width="1.00" clip-path="url('#clipping-rect1')" />
		<line x1="953.47" y1="29.00" x2="953.47" y2="27.00" stroke="#7f7f7f" stroke-width="1.00" clip-path="url('#clipping-rect1')" />
		<line x1="948.46" y1="29.00" x2="948.46" y2="27.00" stroke="#7f7f7f" stroke-width="1.00" clip-path="url('#clipping-rect1')" />
		<line x1="943.45" y1="29.00" x2="943.45" y2="27.00" stroke="#7f7f7f" stroke-width="1.00" clip-path="url('#clipping-rect1')" />
		<line x1="938.44" y1="29.00" x2="938.44" y2="27.00" stroke="#7f7f7f" stroke-width="1.00" clip-path="url('#clipping-rect1')" />
		<line x1="933.43" y1="29.00" x2="933.43" y2="26.00" stroke="#7f7f7f" stroke-width="1.00" clip-path="url('#clipping-rect1')" />
		<line x1="928.41" y1="29.00" x2="928.41" y2="27.00" stroke="#7f7f7f" stroke-width="1.00" clip-path="url('#clipping-rect1')" />
		<line x1="923.40" y1="29.00" x2="923.40" y2="27.00" stroke="#7f7f7f" stroke-width="1.00" clip-path="url('#clipping-rect1')" />
		<line x1="918.39" y1="29.00" x2="918.39" y2="27.00" stroke="#7f7f7f" stroke-width="1.00" clip-path="url('#clipping-rect1')" />
		<line x1="913.38" y1="29.00" x2="913.38" y2="27.00" stroke="#7f7f7f" stroke-width="1.00" clip-path="url('#clipping-rect1')" />
		<line x1="908.37" y1="29.00" x2="908.37" y2="26.00" stroke="#7f7f7f" stroke-width="1.00" clip-path="url('#clipping-rect1')" />
		<line x1="903.35" y1="29.00" x2="903.35" y2="27.00" stroke="#7f7f7f" stroke-width="1.00" clip-path="url('#clipping-rect1')" />
		<line x1="898.34" y1="29.00" x2="898.34" y2="27.00" stroke="#7f7f7f" stroke-width="1.00" clip-path="url('#clipping-rect1')" />
		<line x1="893.33" y1="29.00" x2="893.33" y2="27.00" stroke="#7f7f7f" stroke-width="1.00" clip-path="url('#clipping-rect1')" />
		<line x1="888.32" y1="29.00" x2="888.32" y2="27.00" stroke="#7f7f7f" stroke-width="1.00" clip-path="url('#clipping-rect1')" />
		<line x1="883.31" y1="29.00" x2="883.31" y2="26.00" stroke="#7f7f7f" stroke-width="1.00" clip-path="url('#clipping-rect1')" />
		<line x1="878.30" y1="29.00" x2="878.30" y2="27.00" stroke="#7f7f7f" stroke-width="1.00" clip-path="url('#clipping-rect1')" />
		<line x1="873.28" y1="29.00" x2="873.28" y2="27.00" stroke="#7f7f7f" stroke-width="1.00" clip-path="url('#clipping-rect1')" />
		<line x1="868.27" y1="29.00" x2="868.27" y2="27.00" stroke="#7f7f7f" stroke-width="1.00" clip-path="url('#clipping-rect1')" />
		<line x1="863.26" y1="29.00" x2="863.26" y2="27.00" stroke="#7f7f7f" stroke-width="1.00" clip-path="url('#clipping-rect1')" />
		<line x1="858.25" y1="29.00" x2="858.25" y2="26.00" stroke="#7f7f7f" stroke-width="1.00" clip-path="url('#clipping-rect1')" />
		<line x1="853.24" y1="29.00" x2="853.24" y2="27.00" stroke="#7f7f7f" stroke-width="1.00" clip-path="url('#clipping-rect1')" />
		<line x1="848.22" y1="29.00" x2="848.22" y2="27.00" stroke="#7f7f7f" stroke-width="1.00" clip-path="url('#clipping-rect1')" />
		<line x1="843.21" y1="29.00" x2="843.21" y2="27.00" stroke="#7f7f7f" stroke-width="1.00" clip-path="url('#clipping-rect1')" />
		<line x1="838.20" y1="29.00" x2="838.20" y2="27.00" stroke="#7f7f7f" stroke-width="1.00" clip-path="url('#clipping-rect1')" />
		<line x1="833.19" y1="29.00" x2="833.19" y2="26.00" stroke="#7f7f7f" stroke-width="1.00" clip-path="url('#clipping-rect1')" />
		<line x1="828.18" y1="29.00" x2="828.18" y2="27.00" stroke="#7f7f7f" stroke-width="1.00" clip-path="url('#clipping-rect1')" />
		<line x1="823.17" y1="29.00" x2="823.17" y2="27.00" stroke="#7f7f7f" stroke-width="1.00" clip-path="url('#clipping-rect1')" />
		<line x1="818.15" y1="29.00" x2="818.15" y2="27.00" stroke="#7f7f7f" stroke-width="1.00" clip-path="url('#clipping-rect1')" />
		<line x1="813.14" y1="29.00" x2="813.14" y2="27.00" stroke="#7f7f7f" stroke-width="1.00" clip-path="url('#clipping-rect1')" />
		<line x1="808.13" y1="29.00" x2="808.13" y2="26.00" stroke="#7f7f7f" stroke-width="1.00" clip-path="url('#clipping-rect1')" />
		<line x1="803.12" y1="29.00" x2="803.12" y2="27.00" stroke="#7f7f7f" stroke-width="1.00" clip-path="url('#clipping-rect1')" />
		<line x1="798.11" y1="29.00" x2="798.11" y2="27.00" stroke="#7f7f7f" stroke-width="1.00" clip-path="url('#clipping-rect1')" />
		<line x1="793.09" y1="29.00" x2="793.09" y2="27.00" stroke="#7f7f7f" stroke-width="1.00" clip-path="url('#clipping-rect1')" />
		<line x1="788.08" y1="29.00" x2="788.08" y2="27.00" stroke="#7f7f7f" stroke-width="1.00" clip-path="url('#clipping-rect1')" />
		<line x1="783.07" y1="29.00" x2="783.07" y2="26.00" stroke="#7f7f7f" stroke-width="1.00" clip-path="url('#clipping-rect1')" />
		<line x1="778.06" y1="29.00" x2="778.06" y2="27.00" stroke="#7f7f7f" stroke-width="1.00" clip-path="url('#clipping-rect1')" />
		<line x1="773.05" y1="29.00" x2="773.05" y2="27.00" stroke="#7f7f7f" stroke-width="1.00" clip-path="url('#clipping-rect1')" />
		<line x1="768.04" y1="29.00" x2="768.04" y2="27.00" stroke="#7f7f7f" stroke-width="1.00" clip-path="url('#clipping-rect1')" />
		<line x1="763.02" y1="29.00" x2="763.02" y2="27.00" stroke="#7f7f7f" stroke-width="1.00" clip-path="url('#clipping-rect1')" />
		<line x1="758.01" y1="29.00" x2="758.01" y2="26.00" stroke="#7f7f7f" stroke-width="1.00" clip-path="url('#clipping-rect1')" />
		<line x1="753.00" y1="29.00" x2="753.00" y2="27.00" stroke="#7f7f7f" stroke-width="1.00" clip-path="url('#clipping-rect1')" />
		<line x1="747.99" y1="29.00" x2="747.99" y2="27.00" stroke="#7f7f7f" stroke-width="1.00" clip-path="url('#clipping-rect1')" />
		<line x1="742.98" y1="29.00" x2="742.98" y2="27.00" stroke="#7f7f7f" stroke-width="1.00" clip-path="url('#clipping-rect1')" />
		<line x1="737.96" y1="29.00" x2="737.96" y2="27.00" stroke="#7f7f7f" stroke-width="1.00" clip-path="url('#clipping-rect1')" />
		<line x1="732.95" y1="29.00" x2="732.95" y2="26.00" stroke="#7f7f7f" stroke-width="1.00" clip-path="url('#clipping-rect1')" />
		<line x1="727.94" y1="29.00" x2="727.94" y2="27.00" stroke="#7f7f7f" stroke-width="1.00" clip-path="url('#clipping-rect1')" />
		<line x1="722.93" y1="29.00" x2="722.93" y2="27.00" stroke="#7f7f7f" stroke-width="1.00" clip-path="url('#clipping-rect1')" />
		<line x1="717.92" y1="29.00" x2="717.92" y2="27.00" stroke="#7f7f7f" stroke-width="1.00" clip-path="url('#clipping-rect1')" />
		<line x1="712.91" y1="29.00" x2="712.91" y2="27.00" stroke="#7f7f7f" stroke-width="1.00" clip-path="url('#clipping-rect1')" />
		<line x1="707.89" y1="29.00" x2="707.89" y2="26.00" stroke="#7f7f7f" stroke-width="1.00" clip-path="url('#clipping-rect1')" />
		<line x1="702.88" y1="29.00" x2="702.88" y2="27.00" stroke="#7f7f7f" stroke-width="1.00" clip-path="url('#clipping-rect1')" />
		<line x1="697.87" y1="29.00" x2="697.87" y2="27.00" stroke="#7f7f7f" stroke-width="1.00" clip-path="url('#clipping-rect1')" />
		<line x1="692.86" y1="29.00" x2="692.86" y2="27.00" stroke="#7f7f7f" stroke-width="1.00" clip-path="url('#clipping-rect1')" />
		<line x1="687.85" y1="29.00" x2="687.85" y2="27.00" stroke="#7f7f7f" stroke-width="1.00" clip-path="url('#clipping-rect1')" />
		<line x1="682.83" y1="29.00" x2="682.83" y2="26.00" stroke="#7f7f7f" stroke-width="1.00" clip-path="url('#clipping-rect1')" />
		<line x1="677.82" y1="29.00" x2="677.82" y2="27.00" stroke="#7f7f7f" stroke-width="1.00" clip-path="url('#clipping-rect1')" />
		<line x1="672.81" y1="29.00" x2="672.81" y2="27.00" stroke="#7f7f7f" stroke-width="1.00" clip-path="url('#clipping-rect1')" />
		<line x1="667.80" y1="29.00" x2="667.80" y2="27.00" stroke="#7f7f7f" stroke-width="1.00" clip-path="url('#clipping-rect1')" />
		<line x1="662.79" y1="29.00" x2="662.79" y2="27.00" stroke="#7f7f7f" stroke-width="1.00" clip-path="url('#clipping-rect1')" />
		<line x1="657.78" y1="29.00" x2="657.78" y2="26.00" stroke="#7f7f7f" stroke-width="1.00" clip-path="url('#clipping-rect1')" />
		<line x1="652.76" y1="29.00" x2="652.76" y2="27.00" stroke="#7f7f7f" stroke-width="1.00" clip-path="url('#clipping-rect1')" />
		<line x1="647.75" y1="29.00" x2="647.75" y2="27.00" stroke="#7f7f7f" stroke-width="1.00" clip-path="url('#clipping-rect1')" />
		<line x1="642.74" y1="29.00" x2="642.74" y2="27.00" stroke="#7f7f7f" stroke-width="1.00" clip-path="url('#clipping-rect1')" />
		<line x1="637.73" y1="29.00" x2="637.73" y2="27.00" stroke="#7f7f7f" stroke-width="1.00" clip-path="url('#clipping-rect1')" />
		<line x1="632.72" y1="29.00" x2="632.72" y2="26.00" stroke="#7f7f7f" stroke-width="1.00" clip-path="url('#clipping-rect1')" />
		<line x1="627.70" y1="29.00" x2="627.70" y2="27.00" stroke="#7f7f7f" stroke-width="1.00" clip-path="url('#clipping-rect1')" />
		<line x1="622.69" y1="29.00" x2="622.69" y2="27.00" stroke="#7f7f7f" stroke-width="1.00" clip-path="url('#clipping-rect1')" />
		<line x1="617.68" y1="29.00" x2="617.68" y2="27.00" stroke="#7f7f7f" stroke-width="1.00" clip-path="url('#clipping-rect1')" />
		<line x1="612.67" y1="29.00" x2="612.67" y2="27.00" stroke="#7f7f7f" stroke-width="1.00" clip-path="url('#clipping-rect1')" />
		<line x1="607.66" y1="29.00" x2="607.66" y2="26.00" stroke="#7f7f7f" stroke-width="1.00" clip-path="url('#clipping-rect1')" />
		<line x1="602.65" y1="29.00" x2="602.65" y2="27.00" stroke="#7f7f7f" stroke-width="1.00" clip-path="url('#clipping-rect1')" />
		<line x1="597.63" y1="29.00" x2="597.63" y2="27.00" stroke="#7f7f7f" stroke-width="1.00" clip-path="url('#clipping-rect1')" />
		<line x1="592.62" y1="29.00" x2="592.62" y2="27.00" stroke="#7f7f7f" stroke-width="1.00" clip-path="url('#clipping-rect1')" />
		<line x1="587.61" y1="29.00" x2="587.61" y2="27.00" stroke="#7f7f7f" stroke-width="1.00" clip-path="url('#clipping-rect1')" />
		<line x1="582.60" y1="29.00" x2="582.60" y2="26.00" stroke="#7f7f7f" stroke-width="1.00" clip-path="url('#clipping-rect1')" />
		<line x1="577.59" y1="29.00" x2="577.59" y2="27.00" stroke="#7f7f7f" stroke-width="1.00" clip-path="url('#clipping-rect1')" />
		<line x1="572.57" y1="29.00" x2="572.57" y2="27.00" stroke="#7f7f7f" stroke-width="1.00" clip-path="url('#clipping-rect1')" />
		<line x1="567.56" y1="29.00" x2="567.56" y2="27.00" stroke="#7f7f7f" stroke-width="1.00" clip-path="url('#clipping-rect1')" />
		<line x1="562.55" y1="29.00" x2="562.55" y2="27.00" stroke="#7f7f7f" stroke-width="1.00" clip-path="url('#clipping-rect1')" />
		<line x1="557.54" y1="29.00" x2="557.54" y2="26.00" stroke="#7f7f7f" stroke-width="1.00" clip-path="url('#clipping-rect1')" />
		<line x1="552.53" y1="29.00" x2="552.53" y2="27.00" stroke="#7f7f7f" stroke-width="1.00" clip-path="url('#clipping-rect1')" />
		<line x1="547.52" y1="29.00" x2="547.52" y2="27.00" stroke="#7f7f7f" stroke-width="1.00" clip-path="url('#clipping-rect1')" />
		<line x1="542.50" y1="29.00" x2="542.50" y2="27.00" stroke="#7f7f7f" stroke-width="1.00" clip-path="url('#clipping-rect1')" />
		<line x1="537.49" y1="29.00" x2="537.49" y2="27.00" stroke="#7f7f7f" stroke-width="1.00" clip-path="url('#clipping-rect1')" />
		<line x1="532.48" y1="29.00" x2="532.48" y2="26.00" stroke="#7f7f7f" stroke-width="1.00" clip-path="url('#clipping-rect1')" />
		<line x1="527.47" y1="29.00" x2="527.47" y2="27.00" stroke="#7f7f7f" stroke-width="1.00" clip-path="url('#clipping-rect1')" />
		<line x1="522.46" y1="29.00" x2="522.46" y2="27.00" stroke="#7f7f7f" stroke-width="1.00" clip-path="url('#clipping-rect1')" />
		<line x1="517.44" y1="29.00" x2="517.44" y2="27.00" stroke="#7f7f7f" stroke-width="1.00" clip-path="url('#clipping-rect1')" />
		<line x1="512.43" y1="29.00" x2="512.43" y2="27.00" stroke="#7f7f7f" stroke-width="1.00" clip-path="url('#clipping-rect1')" />
		<line x1="507.42" y1="29.00" x2="507.42" y2="26.00" stroke="#7f7f7f" stroke-width="1.00" clip-path="url('#clipping-rect1')" />
		<line x1="502.41" y1="29.00" x2="502.41" y2="27.00" stroke="#7f7f7f" stroke-width="1.00" clip-path="url('#clipping-rect1')" />
		<line x1="497.40" y1="29.00" x2="497.40" y2="27.00" stroke="#7f7f7f" stroke-width="1.00" clip-path="url('#clipping-rect1')" />
		<line x1="492.39" y1="29.00" x2="492.39" y2="27.00" stroke="#7f7f7f" stroke-width="1.00" clip-path="url('#clipping-rect1')" />
		<line x1="487.37" y1="29.00" x2="487.37" y2="27.00" stroke="#7f7f7f" stroke-width="1.00" clip-path="url('#clipping-rect1')" />
		<line x1="482.36" y1="29.00" x2="482.36" y2="26.00" stroke="#7f7f7f" stroke-width="1.00" clip-path="url('#clipping-rect1')" />
		<line x1="477.35" y1="29.00" x2="477.35" y2="27.00" stroke="#7f7f7f" stroke-width="1.00" clip-path="url('#clipping-rect1')" />
		<line x1="472.34" y1="29.00" x2="472.34" y2="27.00" stroke="#7f7f7f" stroke-width="1.00" clip-path="url('#clipping-rect1')" />
		<line x1="467.33" y1="29.00" x2="467.33" y2="27.00" stroke="#7f7f7f" stroke-width="1.00" clip-path="url('#clipping-rect1')" />
		<line x1="462.31" y1="29.00" x2="462.31" y2="27.00" stroke="#7f7f7f" stroke-width="1.00" clip-path="url('#clipping-rect1')" />
		<line x1="457.30" y1="29.00" x2="457.30" y2="26.00" stroke="#7f7f7f" stroke-width="1.00" clip-path="url('#clipping-rect1')" />
		<line x1="452.29" y1="29.00" x2="452.29" y2="27.00" stroke="#7f7f7f" stroke-width="1.00" clip-path="url('#clipping-rect1')" />
		<line x1="447.28" y1="29.00" x2="447.28" y2="27.00" stroke="#7f7f7f" stroke-width="1.00" clip-path="url('#clipping-rect1')" />
		<line x1="442.27" y1="29.00" x2="442.27" y2="27.00" stroke="#7f7f7f" stroke-width="1.00" clip-path="url('#clipping-rect1')" />
		<line x1="437.26" y1="29.00" x2="437.26" y2="27.00" stroke="#7f7f7f" stroke-width="1.00" clip-path="url('#clipping-rect1')" />
		<line x1="432.24" y1="29.00" x2="432.24" y2="26.00" stroke="#7f7f7f" stroke-width="1.00" clip-path="url('#clipping-rect1')" />
		<line x1="427.23" y1="29.00" x2="427.23" y2="27.00" stroke="#7f7f7f" stroke-width="1.00" clip-path="url('#clipping-rect1')" />
		<line x1="422.22" y1="29.00" x2="422.22" y2="27.00" stroke="#7f7f7f" stroke-width="1.00" clip-path="url('#clipping-rect1')" />
		<line x1="417.21" y1="29.00" x2="417.21" y2="27.00" stroke="#7f7f7f" stroke-width="1.00" clip-path="url('#clipping-rect1')" />
		<line x1="412.20" y1="29.00" x2="412.20" y2="27.00" stroke="#7f7f7f" stroke-width="1.00" clip-path="url('#clipping-rect1')" />
		<line x1="407.18" y1="29.00" x2="407.18" y2="26.00" stroke="#7f7f7f" stroke-width="1.00" clip-path="url('#clipping-rect1')" />
		<line x1="402.17" y1="29.00" x2="402.17" y2="27.00" stroke="#7f7f7f" stroke-width="1.00" clip-path="url('#clipping-rect1')" />
		<line x1="397.16" y1="29.00" x2="397.16" y2="27.00" stroke="#7f7f7f" stroke-width="1.00" clip-path="url('#clipping-rect1')" />
		<line x1="392.15" y1="29.00" x2="392.15" y2="27.00" stroke="#7f7f7f" stroke-width="1.00" clip-path="url('#clipping-rect1')" />
		<line x1="387.14" y1="29.00" x2="387.14" y2="27.00" stroke="#7f7f7f" stroke-width="1.00" clip-path="url('#clipping-rect1')" />
		<line x1="382.13" y1="29.00" x2="382.13" y2="26.00" stroke="#7f7f7f" stroke-width="1.00" clip-path="url('#clipping-rect1')" />
		<line x1="377.11" y1="29.00" x2="377.11" y2="27.00" stroke="#7f7f7f" stroke-width="1.00" clip-path="url('#clipping-rect1')" />
		<line x1="372.10" y1="29.00" x2="372.10" y2="27.00" stroke="#7f7f7f" stroke-width="1.00" clip-path="url('#clipping-rect1')" />
		<line x1="367.09" y1="29.00" x2="367.09" y2="27.00" stroke="#7f7f7f" stroke-width="1.00" clip-path="url('#clipping-rect1')" />
		<line x1="362.08" y1="29.00" x2="362.08" y2="27.00" stroke="#7f7f7f" stroke-width="1.00" clip-path="url('#clipping-rect1')" />
		<line x1="357.07" y1="29.00" x2="357.07" y2="26.00" stroke="#7f7f7f" stroke-width="1.00" clip-path="url('#clipping-rect1')" />
		<line x1="352.05" y1="29.00" x2="352.05" y2="27.00" stroke="#7f7f7f" stroke-width="1.00" clip-path="url('#clipping-rect1')" />
		<line x1="347.04" y1="29.00" x2="347.04" y2="27.00" stroke="#7f7f7f" stroke-width="1.00" clip-path="url('#clipping-rect1')" />
		<line x1="342.03" y1="29.00" x2="342.03" y2="27.00" stroke="#7f7f7f" stroke-width="1.00" clip-path="url('#clipping-rect1')" />
		<line x1="337.02" y1="29.00" x2="337.02" y2="27.00" stroke="#7f7f7f" stroke-width="1.00" clip-path="url('#clipping-rect1')" />
		<line x1="332.01" y1="29.00" x2="332.01" y2="26.00" stroke="#7f7f7f" stroke-width="1.00" clip-path="url('#clipping-rect1')" />
		<line x1="327.00" y1="29.00" x2="327.00" y2="27.00" stroke="#7f7f7f" stroke-width="1.00" clip-path="url('#clipping-rect1')" />
		<line x1="321.98" y1="29.00" x2="321.98" y2="27.00" stroke="#7f7f7f" stroke-width="1.00" clip-path="url('#clipping-rect1')" />
		<line x1="316.97" y1="29.00" x2="316.97" y2="27.00" stroke="#7f7f7f" stroke-width="1.00" clip-path="url('#clipping-rect1')" />
		<line x1="311.96" y1="29.00" x2="311.96" y2="27.00" stroke="#7f7f7f" stroke-width="1.00" clip-path="url('#clipping-rect1')" />
		<line x1="306.95" y1="29.00" x2="306.95" y2="26.00" stroke="#7f7f7f" stroke-width="1.00" clip-path="url('#clipping-rect1')" />
		<line x1="301.94" y1="29.00" x2="301.94" y2="27.00" stroke="#7f7f7f" stroke-width="1.00" clip-path="url('#clipping-rect1')" />
		<line x1="296.92" y1="29.00" x2="296.92" y2="27.00" stroke="#7f7f7f" stroke-width="1.00" clip-path="url('#clipping-rect1')" />
		<line x1="291.91" y1="29.00" x2="291.91" y2="27.00" stroke="#7f7f7f" stroke-width="1.00" clip-path="url('#clipping-rect1')" />
		<line x1="286.90" y1="29.00" x2="286.90" y2="27.00" stroke="#7f7f7f" stroke-width="1.00" clip-path="url('#clipping-rect1')" />
		<line x1="281.89" y1="29.00" x2="281.89" y2="26.00" stroke="#7f7f7f" stroke-width="1.00" clip-path="url('#clipping-rect1')" />
		<line x1="276.88" y1="29.00" x2="276.88" y2="27.00" stroke="#7f7f7f" stroke-width="1.00" clip-path="url('#clipping-rect1')" />
		<line x1="271.87" y1="29.00" x2="271.87" y2="27.00" stroke="#7f7f7f" stroke-width="1.00" clip-path="url('#clipping-rect1')" />
		<line x1="266.85" y1="29.00" x2="266.85" y2="27.00" stroke="#7f7f7f" stroke-width="1.00" clip-path="url('#clipping-rect1')" />
		<line x1="261.84" y1="29.00" x2="261.84" y2="27.00" stroke="#7f7f7f" stroke-width="1.00" clip-path="url('#clipping-rect1')" />
		<line x1="256.83" y1="29.00" x2="256.83" y2="26.00" stroke="#7f7f7f" stroke-width="1.00" clip-path="url('#clipping-rect1')" />
		<line x1="251.82" y1="29.00" x2="251.82" y2="27.00" stroke="#7f7f7f" stroke-width="1.00" clip-path="url('#clipping-rect1')" />
		<line x1="246.81" y1="29.00" x2="246.81" y2="27.00" stroke="#7f7f7f" stroke-width="1.00" clip-path="url('#clipping-rect1')" />
		<line x1="241.79" y1="29.00" x2="241.79" y2="27.00" stroke="#7f7f7f" stroke-width="1.00" clip-path="url('#clipping-rect1')" />
		<line x1="236.78" y1="29.00" x2="236.78" y2="27.00" stroke="#7f7f7f" stroke-width="1.00" clip-path="url('#clipping-rect1')" />
		<line x1="231.77" y1="29.00" x2="231.77" y2="26.00" stroke="#7f7f7f" stroke-width="1.00" clip-path="url('#clipping-rect1')" />
		<line x1="226.76" y1="29.00" x2="226.76" y2="27.00" stroke="#7f7f7f" stroke-width="1.00" clip-path="url('#clipping-rect1')" />
		<line x1="221.75" y1="29.00" x2="221.75" y2="27.00" stroke="#7f7f7f" stroke-width="1.00" clip-path="url('#clipping-rect1')" />
		<line x1="216.74" y1="29.00" x2="216.74" y2="27.00" stroke="#7f7f7f" stroke-width="1.00" clip-path="url('#clipping-rect1')" />
		<line x1="211.72" y1="29.00" x2="211.72" y2="27.00" stroke="#7f7f7f" stroke-width="1.00" clip-path="url('#clipping-rect1')" />
		<line x1="206.71" y1="29.00" x2="206.71" y2="26.00" stroke="#7f7f7f" stroke-width="1.00" clip-path="url('#clipping-rect1')" />
		<line x1="201.70" y1="29.00" x2="201.70" y2="27.00" stroke="#7f7f7f" stroke-width="1.00" clip-path="url('#clipping-rect1')" />
		<line x1="196.69" y1="29.00" x2="196.69" y2="27.00" stroke="#7f7f7f" stroke-width="1.00" clip-path="url('#clipping-rect1')" />
		<line x1="191.68" y1="29.00" x2="191.68" y2="27.00" stroke="#7f7f7f" stroke-width="1.00" clip-path="url('#clipping-rect1')" />
		<line x1="186.66" y1="29.00" x2="186.66" y2="27.00" stroke="#7f7f7f" stroke-width="1.00" clip-path="url('#clipping-rect1')" />
		<line x1="181.65" y1="29.00" x2="181.65" y2="26.00" stroke="#7f7f7f" stroke-width="1.00" clip-path="url('#clipping-rect1')" />
		<line x1="176.64" y1="29.00" x2="176.64" y2="27.00" stroke="#7f7f7f" stroke-width="1.00" clip-path="url('#clipping-rect1')" />
		<line x1="171.63" y1="29.00" x2="171.63" y2="27.00" stroke="#7f7f7f" stroke-width="1.00" clip-path="url('#clipping-rect1')" />
		<line x1="166.62" y1="29.00" x2="166.62" y2="27.00" stroke="#7f7f7f" stroke-width="1.00" clip-path="url('#clipping-rect1')" />
		<line x1="161.60" y1="29.00" x2="161.60" y2="27.00" stroke="#7f7f7f" stroke-width="1.00" clip-path="url('#clipping-rect1')" />
		<line x1="156.59" y1="29.00" x2="156.59" y2="26.00" stroke="#7f7f7f" stroke-width="1.00" clip-path="url('#clipping-rect1')" />
		<line x1="151.58" y1="29.00" x2="151.58" y2="27.00" stroke="#7f7f7f" stroke-width="1.00" clip-path="url('#clipping-rect1')" />
		<line x1="146.57" y1="29.00" x2="146.57" y2="27.00" stroke="#7f7f7f" stroke-width="1.00" clip-path="url('#clipping-rect1')" />
		<line x1="141.56" y1="29.00" x2="141.56" y2="27.00" stroke="#7f7f7f" stroke-width="1.00" clip-path="url('#clipping-rect1')" />
		<line x1="136.55" y1="29.00" x2="136.55" y2="27.00" stroke="#7f7f7f" stroke-width="1.00" clip-path="url('#clipping-rect1')" />
		<line x1="131.53" y1="29.00" x2="131.53" y2="26.00" stroke="#7f7f7f" stroke-width="1.00" clip-path="url('#clipping-rect1')" />
		<line x1="126.52" y1="29.00" x2="126.52" y2="27.00" stroke="#7f7f7f" stroke-width="1.00" clip-path="url('#clipping-rect1')" />
		<line x1="121.51" y1="29.00" x2="121.51" y2="27.00" stroke="#7f7f7f" stroke-width="1.00" clip-path="url('#clipping-rect1')" />
		<line x1="116.50" y1="29.00" x2="116.50" y2="27.00" stroke="#7f7f7f" stroke-width="1.00" clip-path="url('#clipping-rect1')" />
		<line x1="111.49" y1="29.00" x2="111.49" y2="27.00" stroke="#7f7f7f" stroke-width="1.00" clip-path="url('#clipping-rect1')" />
		<line x1="106.47" y1="29.00" x2="106.47" y2="26.00" stroke="#7f7f7f" stroke-width="1.00" clip-path="url('#clipping-rect1')" />
		<line x1="101.46" y1="29.00" x2="101.46" y2="27.00" stroke="#7f7f7f" stroke-width="1.00" clip-path="url('#clipping-rect1')" />
		<line x1="96.45" y1="29.00" x2="96.45" y2="27.00" stroke="#7f7f7f" stroke-width="1.00" clip-path="url('#clipping-rect1')" />
		<line x1="91.44" y1="29.00" x2="91.44" y2="27.00" stroke="#7f7f7f" stroke-width="1.00" clip-path="url('#clipping-rect1')" />
		<line x1="86.43" y1="29.00" x2="86.43" y2="27.00" stroke="#7f7f7f" stroke-width="1.00" clip-path="url('#clipping-rect1')" />
		<line x1="81.42" y1="29.00" x2="81.42" y2="26.00" stroke="#7f7f7f" stroke-width="1.00" clip-path="url('#clipping-rect1')" />
		<line x1="76.40" y1="29.00" x2="76.40" y2="27.00" stroke="#7f7f7f" stroke-width="1.00" clip-path="url('#clipping-rect1')" />
		<line x1="71.39" y1="29.00" x2="71.39" y2="27.00" stroke="#7f7f7f" stroke-width="1.00" clip-path="url('#clipping-rect1')" />
		<line x1="66.38" y1="29.00" x2="66.38" y2="27.00" stroke="#7f7f7f" stroke-width="1.00" clip-path="url('#clipping-rect1')" />
		<line x1="61.37" y1="29.00" x2="61.37" y2="27.00" stroke="#7f7f7f" stroke-width="1.00" clip-path="url('#clipping-rect1')" />
		<line x1="56.36" y1="29.00" x2="56.36" y2="26.00" stroke="#7f7f7f" stroke-width="1.00" clip-path="url('#clipping-rect1')" />
		<line x1="51.34" y1="29.00" x2="51.34" y2="27.00" stroke="#7f7f7f" stroke-width="1.00" clip-path="url('#clipping-rect1')" />
		<line x1="46.33" y1="29.00" x2="46.33" y2="27.00" stroke="#7f7f7f" stroke-width="1.00" clip-path="url('#clipping-rect1')" />
		<line x1="41.32" y1="29.00" x2="41.32" y2="27.00" stroke="#7f7f7f" stroke-width="1.00" clip-path="url('#clipping-rect1')" />
		<line x1="36.31" y1="29.00" x2="36.31" y2="27.00" stroke="#7f7f7f" stroke-width="1.00" clip-path="url('#clipping-rect1')" />
		<line x1="31.30" y1="29.00" x2="31.30" y2="26.00" stroke="#7f7f7f" stroke-width="1.00" clip-path="url('#clipping-rect1')" />
		<line x1="26.29" y1="29.00" x2="26.29" y2="27.00" stroke="#7f7f7f" stroke-width="1.00" clip-path="url('#clipping-rect1')" />
		<line x1="21.27" y1="29.00" x2="21.27" y2="27.00" stroke="#7f7f7f" stroke-width="1.00" clip-path="url('#clipping-rect1')" />
		<line x1="16.26" y1="29.00" x2="16.26" y2="27.00" stroke="#7f7f7f" stroke-width="1.00" clip-path="url('#clipping-rect1')" />
		<line x1="11.25" y1="29.00" x2="11.25" y2="27.00" stroke="#7f7f7f" stroke-width="1.00" clip-path="url('#clipping-rect1')" />
		<line x1="6.24" y1="29.00" x2="6.24" y2="26.00" stroke="#7f7f7f" stroke-width="1.00" clip-path="url('#clipping-rect1')" />
		<line x1="1.23" y1="29.00" x2="1.23" y2="27.00" stroke="#7f7f7f" stroke-width="1.00" clip-path="url('#clipping-rect1')" />
		<text x="910.37" y="24.00" font-family="Helvetica" font-size="10" fill="#333333" clip-path="url('#clipping-rect1')" >20,650 K</text>
		<line x1="908.37" y1="31.00" x2="908.37" y2="16.00" stroke="#7f7f7f" stroke-width="1.00" clip-path="url('#clipping-rect1')" />
		<text x="785.07" y="24.00" font-family="Helvetica" font-size="10" fill="#333333" clip-path="url('#clipping-rect1')" >20,700 K</text>
		<line x1="783.07" y1="31.00" x2="783.07" y2="16.00" stroke="#7f7f7f" stroke-width="1.00" clip-path="url('#clipping-rect1')" />
		<text x="659.78" y="24.00" font-family="Helvetica" font-size="10" fill="#333333" clip-path="url('#clipping-rect1')" >20,750 K</text>
		<line x1="657.78" y1="31.00" x2="657.78" y2="16.00" stroke="#7f7f7f" stroke-width="1.00" clip-path="url('#clipping-rect1')" />
		<text x="534.48" y="24.00" font-family="Helvetica" font-size="10" fill="#333333" clip-path="url('#clipping-rect1')" >20,800 K</text>
		<line x1="532.48" y1="31.00" x2="532.48" y2="16.00" stroke="#7f7f7f" stroke-width="1.00" clip-path="url('#clipping-rect1')" />
		<text x="409.18" y="24.00" font-family="Helvetica" font-size="10" fill="#333333" clip-path="url('#clipping-rect1')" >20,850 K</text>
		<line x1="407.18" y1="31.00" x2="407.18" y2="16.00" stroke="#7f7f7f" stroke-width="1.00" clip-path="url('#clipping-rect1')" />
		<text x="283.89" y="24.00" font-family="Helvetica" font-size="10" fill="#333333" clip-path="url('#clipping-rect1')" >20,900 K</text>
		<line x1="281.89" y1="31.00" x2="281.89" y2="16.00" stroke="#7f7f7f" stroke-width="1.00" clip-path="url('#clipping-rect1')" />
		<text x="158.59" y="24.00" font-family="Helvetica" font-size="10" fill="#333333" clip-path="url('#clipping-rect1')" >20,950 K</text>
		<line x1="156.59" y1="31.00" x2="156.59" y2="16.00" stroke="#7f7f7f" stroke-width="1.00" clip-path="url('#clipping-rect1')" />
		<text x="33.30" y="24.00" font-family="Helvetica" font-size="10" fill="#333333" clip-path="url('#clipping-rect1')" >21 M</text>
		<line x1="31.30" y1="31.00" x2="31.30" y2="16.00" stroke="#7f7f7f" stroke-width="1.00" clip-path="url('#clipping-rect1')" />
		<line x1="908.91" y1="137.00" x2="908.91" y2="31.00" stroke="#ebebeb" stroke-width="1.00" />
		<line x1="783.79" y1="137.00" x2="783.79" y2="31.00" stroke="#ebebeb" stroke-width="1.00" />
		<line x1="657.66" y1="137.00" x2="657.66" y2="31.00" stroke="#ebebeb" stroke-width="1.00" />
		<line x1="532.54" y1="137.00" x2="532.54" y2="31.00" stroke="#ebebeb" stroke-width="1.00" />
		<line x1="407.41" y1="137.00" x2="407.41" y2="31.00" stroke="#ebebeb" stroke-width="1.00" />
		<line x1="281.28" y1="137.00" x2="281.28" y2="31.00" stroke="#ebebeb" stroke-width="1.00" />
		<line x1="156.16" y1="137.00" x2="156.16" y2="31.00" stroke="#ebebeb" stroke-width="1.00" />
		<line x1="31.03" y1="137.00" x2="31.03" y2="31.00" stroke="#ebebeb" stroke-width="1.00" />
		<polygon fill="#6c6c6c" shape-rendering="crispEdges" points="0.00,42.00 0.00,33.00 994.00,33.00 994.00,42.00 " />
		<line x1="994.00" y1="42.00" x2="994.00" y2="33.00" stroke="#6c6c6c" stroke-width="1.00" stroke-linejoin="round" />
		<line x1="994.00" y1="33.00" x2="0.00" y2="33.00" stroke="#6c6c6c" stroke-width="1.00" stroke-linejoin="round" />
		<line x1="0.00" y1="33.00" x2="0.00" y2="42.00" stroke="#6c6c6c" stroke-width="1.00" stroke-linejoin="round" />
		<line x1="994.00" y1="42.00" x2="0.00" y2="42.00" stroke="#6c6c6c" stroke-width="1.00" stroke-linejoin="round" />
		<polygon fill="#166e32" shape-rendering="crispEdges" points="926.06,93.00 926.06,103.00 985.40,103.00 985.40,93.00 " />
		<polygon fill="#ffffff" shape-rendering="crispEdges" points="959.73,98.00 951.73,94.00 953.73,98.00 951.73,102.00 " />
		<polygon fill="#ffffff" shape-rendering="crispEdges" points="852.12,104.00 852.12,92.00 921.06,92.00 921.06,104.00 " />
		<text x="852.12" y="101.50" font-family="Helvetica" font-size="10" fill="#124d94" >NXF25_016937</text>
		<polygon fill="#166e32" shape-rendering="crispEdges" points="848.08,78.00 848.08,88.00 915.22,88.00 915.22,78.00 " />
		<polygon fill="#ffffff" shape-rendering="crispEdges" points="885.65,83.00 877.65,79.00 879.65,83.00 877.65,87.00 " />
		<polygon fill="#ffffff" shape-rendering="crispEdges" points="774.22,89.00 774.22,77.00 843.08,77.00 843.08,89.00 " />
		<text x="774.22" y="86.50" font-family="Helvetica" font-size="10" fill="#124d94" >NXF25_016938</text>
		<polygon fill="#166e32" shape-rendering="crispEdges" points="540.88,63.00 540.88,73.00 847.72,73.00 847.72,63.00 " />
		<polygon fill="#ffffff" shape-rendering="crispEdges" points="798.30,68.00 790.30,64.00 792.30,68.00 790.30,72.00 " />
		<polygon fill="#e0e0e0" shape-rendering="crispEdges" points="698.30,68.00 690.30,64.00 692.30,68.00 690.30,72.00 " />
		<polygon fill="#c1c1c1" shape-rendering="crispEdges" points="598.30,68.00 590.30,64.00 592.30,68.00 590.30,72.00 " />
		<polygon fill="#ffffff" shape-rendering="crispEdges" points="467.05,74.00 467.05,62.00 535.88,62.00 535.88,74.00 " />
		<text x="467.05" y="71.50" font-family="Helvetica" font-size="10" fill="#124d94" >NXF25_016939</text>
		<polygon fill="#166e32" shape-rendering="crispEdges" points="524.04,108.00 524.04,118.00 535.13,118.00 535.13,108.00 " />
		<text x="540.13" y="116.50" font-family="Helvetica" font-size="10" fill="#124d94" >NXF25_016940</text>
		<polygon fill="#166e32" shape-rendering="crispEdges" points="470.26,78.00 470.26,88.00 519.04,88.00 519.04,78.00 " />
		<polygon fill="#ffffff" shape-rendering="crispEdges" points="490.65,83.00 498.65,79.00 496.65,83.00 498.65,87.00 " />
		<text x="524.04" y="86.50" font-family="Helvetica" font-size="10" fill="#124d94" >NXF25_016941</text>
		<polygon fill="#166e32" shape-rendering="crispEdges" points="446.76,93.00 446.76,103.00 465.14,103.00 465.14,93.00 " />
		<polygon fill="#ffffff" shape-rendering="crispEdges" points="451.95,98.00 459.95,94.00 457.95,98.00 459.95,102.00 " />
		<text x="470.14" y="101.50" font-family="Helvetica" font-size="10" fill="#124d94" >NXF25_016942</text>
		<polygon fill="#166e32" shape-rendering="crispEdges" points="284.47,63.00 284.47,73.00 440.96,73.00 440.96,63.00 " />
		<polygon fill="#ffffff" shape-rendering="crispEdges" points="416.71,68.00 408.71,64.00 410.71,68.00 408.71,72.00 " />
		<polygon fill="#e0e0e0" shape-rendering="crispEdges" points="316.71,68.00 308.71,64.00 310.71,68.00 308.71,72.00 " />
		<polygon fill="#ffffff" shape-rendering="crispEdges" points="210.67,74.00 210.67,62.00 279.47,62.00 279.47,74.00 " />
		<text x="210.67" y="71.50" font-family="Helvetica" font-size="10" fill="#124d94" >NXF25_016943</text>
		<polygon fill="#166e32" shape-rendering="crispEdges" points="174.00,78.00 174.00,88.00 253.12,88.00 253.12,78.00 " />
		<polygon fill="#ffffff" shape-rendering="crispEdges" points="217.56,83.00 209.56,79.00 211.56,83.00 209.56,87.00 " />
		<polygon fill="#ffffff" shape-rendering="crispEdges" points="100.07,89.00 100.07,77.00 169.00,77.00 169.00,89.00 " />
		<text x="100.07" y="86.50" font-family="Helvetica" font-size="10" fill="#124d94" >NXF25_016944</text>
		<polygon fill="#166e32" shape-rendering="crispEdges" points="140.30,93.00 140.30,103.00 173.57,103.00 173.57,93.00 " />
		<polygon fill="#ffffff" shape-rendering="crispEdges" points="152.93,98.00 160.93,94.00 158.93,98.00 160.93,102.00 " />
		<text x="178.57" y="101.50" font-family="Helvetica" font-size="10" fill="#124d94" >NXF25_016945</text>
		<polygon fill="#166e32" shape-rendering="crispEdges" points="98.73,63.00 98.73,73.00 139.84,73.00 139.84,63.00 " />
		<polygon fill="#ffffff" shape-rendering="crispEdges" points="123.29,68.00 115.29,64.00 117.29,68.00 115.29,72.00 " />
		<polygon fill="#ffffff" shape-rendering="crispEdges" points="24.87,74.00 24.87,62.00 93.73,62.00 93.73,74.00 " />
		<text x="24.87" y="71.50" font-family="Helvetica" font-size="10" fill="#124d94" >NXF25_016946</text>
		<polygon fill="#166e32" shape-rendering="crispEdges" points="67.70,123.00 67.70,133.00 83.89,133.00 83.89,123.00 " />
		<polygon fill="#ffffff" shape-rendering="crispEdges" points="71.79,128.00 79.79,124.00 77.79,128.00 79.79,132.00 " />
		<text x="88.89" y="131.50" font-family="Helvetica" font-size="10" fill="#124d94" >NXF25_016947</text>
		<polygon fill="#166e32" shape-rendering="crispEdges" points="12.70,108.00 12.70,118.00 62.09,118.00 62.09,108.00 " />
		<polygon fill="#ffffff" shape-rendering="crispEdges" points="33.40,113.00 41.40,109.00 39.40,113.00 41.40,117.00 " />
		<text x="67.09" y="116.50" font-family="Helvetica" font-size="10" fill="#124d94" >NXF25_016948</text>
		<polygon fill="#166e32" shape-rendering="crispEdges" points="0.00,63.00 0.00,73.00 10.49,73.00 10.49,63.00 " />
		<polygon fill="#e6e6e6" fill-opacity="0.71" shape-rendering="crispEdges" points="994.00,44.00 994.00,58.00 0.00,58.00 0.00,44.00 " clip-path="url('#clipping-rect2')" />
		<text x="0.00" y="54.00" font-family="Helvetica" font-size="12" fill="#333333" >Genes, INSDC annotation provided by submitter</text>
		<polygon fill="#0000ff" fill-opacity="0.20" shape-rendering="crispEdges" points="254.50,23.10 254.50,31.50 173.50,31.50 173.50,23.10 " />
		<line x1="173.50" y1="30.50" x2="173.50" y2="23.10" stroke="#0000ff" stroke-opacity="0.40" stroke-width="1.00" />
		<line x1="254.50" y1="30.50" x2="254.50" y2="23.10" stroke="#0000ff" stroke-opacity="0.40" stroke-width="1.00" />
		<polygon fill="#0000ff" shape-rendering="crispEdges" points="167.79,22.35 167.50,20.50 167.79,18.65 168.65,16.97 169.97,15.65 171.65,14.79 173.50,14.50 173.50,26.50 171.65,26.21 169.97,25.35 168.65,24.03 " />
		<polygon fill="#0000ff" fill-opacity="0.60" shape-rendering="crispEdges" points="209.09,26.50 209.09,14.50 173.50,14.50 173.50,26.50 " />
		<text x="175.50" y="23.50" font-family="Helvetica" font-size="10" fill="#ffffff" >SF3B3</text>
		<polygon fill="#0000ff" fill-opacity="0.20" shape-rendering="crispEdges" points="254.26,31.00 254.26,138.01 173.17,138.01 173.17,31.00 " />
		<line x1="173.17" y1="137.00" x2="173.17" y2="31.00" stroke="#0000ff" stroke-opacity="0.40" stroke-width="1.00" />
		<line x1="254.26" y1="137.00" x2="254.26" y2="31.00" stroke="#0000ff" stroke-opacity="0.40" stroke-width="1.00" />
		<polygon fill="#0000ff" fill-opacity="0.20" shape-rendering="crispEdges" points="62.50,23.10 62.50,31.50 12.50,31.50 12.50,23.10 " />
		<line x1="12.50" y1="30.50" x2="12.50" y2="23.10" stroke="#0000ff" stroke-opacity="0.40" stroke-width="1.00" />
		<line x1="62.50" y1="30.50" x2="62.50" y2="23.10" stroke="#0000ff" stroke-opacity="0.40" stroke-width="1.00" />
		<polygon fill="#0000ff" shape-rendering="crispEdges" points="6.79,22.35 6.50,20.50 6.79,18.65 7.65,16.97 8.97,15.65 10.65,14.79 12.50,14.50 12.50,26.50 10.65,26.21 8.97,25.35 7.65,24.03 " />
		<polygon fill="#0000ff" fill-opacity="0.60" shape-rendering="crispEdges" points="55.58,26.50 55.58,14.50 12.50,14.50 12.50,26.50 " />
		<text x="14.50" y="23.50" font-family="Helvetica" font-size="10" fill="#ffffff" >KCTD19</text>
		<polygon fill="#0000ff" fill-opacity="0.20" shape-rendering="crispEdges" points="62.06,31.00 62.06,138.01 12.01,138.01 12.01,31.00 " />
		<line x1="12.01" y1="137.00" x2="12.01" y2="31.00" stroke="#0000ff" stroke-opacity="0.40" stroke-width="1.00" />
		<line x1="62.06" y1="137.00" x2="62.06" y2="31.00" stroke="#0000ff" stroke-opacity="0.40" stroke-width="1.00" />
		<polygon fill="#0000ff" fill-opacity="0.20" shape-rendering="crispEdges" points="441.50,23.10 441.50,31.50 283.50,31.50 283.50,23.10 " />
		<line x1="283.50" y1="30.50" x2="283.50" y2="23.10" stroke="#0000ff" stroke-opacity="0.40" stroke-width="1.00" />
		<line x1="441.50" y1="30.50" x2="441.50" y2="23.10" stroke="#0000ff" stroke-opacity="0.40" stroke-width="1.00" />
		<polygon fill="#0000ff" shape-rendering="crispEdges" points="277.79,22.35 277.50,20.50 277.79,18.65 278.65,16.97 279.97,15.65 281.65,14.79 283.50,14.50 283.50,26.50 281.65,26.21 279.97,25.35 278.65,24.03 " />
		<polygon fill="#0000ff" fill-opacity="0.60" shape-rendering="crispEdges" points="320.81,26.50 320.81,14.50 283.50,14.50 283.50,26.50 " />
		<text x="285.50" y="23.50" font-family="Helvetica" font-size="10" fill="#ffffff" >CNOT1</text>
		<polygon fill="#0000ff" fill-opacity="0.20" shape-rendering="crispEdges" points="441.44,31.00 441.44,138.01 283.29,138.01 283.29,31.00 " />
		<line x1="283.29" y1="137.00" x2="283.29" y2="31.00" stroke="#0000ff" stroke-opacity="0.40" stroke-width="1.00" />
		<line x1="441.44" y1="137.00" x2="441.44" y2="31.00" stroke="#0000ff" stroke-opacity="0.40" stroke-width="1.00" />
		<polygon fill="#0000ff" fill-opacity="0.20" shape-rendering="crispEdges" points="985.50,23.10 985.50,31.50 926.50,31.50 926.50,23.10 " />
		<line x1="926.50" y1="30.50" x2="926.50" y2="23.10" stroke="#0000ff" stroke-opacity="0.40" stroke-width="1.00" />
		<line x1="985.50" y1="30.50" x2="985.50" y2="23.10" stroke="#0000ff" stroke-opacity="0.40" stroke-width="1.00" />
		<polygon fill="#0000ff" shape-rendering="crispEdges" points="920.79,22.35 920.50,20.50 920.79,18.65 921.65,16.97 922.97,15.65 924.65,14.79 926.50,14.50 926.50,26.50 924.65,26.21 922.97,25.35 921.65,24.03 " />
		<polygon fill="#0000ff" fill-opacity="0.60" shape-rendering="crispEdges" points="970.42,26.50 970.42,14.50 926.50,14.50 926.50,26.50 " />
		<text x="928.50" y="23.50" font-family="Helvetica" font-size="10" fill="#ffffff" >MTSS1L</text>
		<polygon fill="#0000ff" fill-opacity="0.20" shape-rendering="crispEdges" points="985.99,31.00 985.99,138.01 926.93,138.01 926.93,31.00 " />
		<line x1="926.93" y1="137.00" x2="926.93" y2="31.00" stroke="#0000ff" stroke-opacity="0.40" stroke-width="1.00" />
		<line x1="985.99" y1="137.00" x2="985.99" y2="31.00" stroke="#0000ff" stroke-opacity="0.40" stroke-width="1.00" />
		<polygon fill="#e5e5e5" shape-rendering="crispEdges" points="994.00,13.00 994.00,-1.00 0.00,-1.00 0.00,13.00 " />
		<text x="0.00" y="10.00" font-family="Helvetica Bold" font-size="12" text-anchor="start" fill="#000000" >CM077930.1:20615827..21012489 Crotalus adamanteus isolate DRR0105 chromosome 14, whole genome shotgun sequence</text>
	</g>
</svg>
