<?xml version="1.0" standalone="no" ?>
<!DOCTYPE svg PUBLIC "-//W3C//DTD SVG 1.1//EN" "http://www.w3.org/Graphics/SVG/1.1/DTD/svg11.dtd">
<svg width="994px" height="138px" xmlns="http://www.w3.org/2000/svg" version="1.1" viewBox="0 0 994 138" >
	<style type="text/css" > <![CDATA[
		@import url("https://www.ncbi.nlm.nih.gov/projects/sviewer/css/svg_fonts.css");
	]]>
	</style>
	<desc >Generated by NCBI Genome Workbench http://www.ncbi.nlm.nih.gov/tools/gbench/</desc>
	<defs >
		<clipPath id="clipping-rect1" >
			<rect x="0" y="14" width="994" height="18" />
		</clipPath>
		<clipPath id="clipping-rect2" >
			<rect x="0" y="32" width="994" height="106" />
		</clipPath>
	</defs>
	<g >
		<polygon fill="#ffffff" shape-rendering="crispEdges" points="994.00,31.00 994.00,13.00 0.00,13.00 0.00,31.00 " />
		<line x1="0.00" y1="29.00" x2="994.00" y2="29.00" stroke="#7f7f7f" stroke-width="1.00" clip-path="url('#clipping-rect1')" />
		<line x1="992.36" y1="29.00" x2="992.36" y2="27.00" stroke="#7f7f7f" stroke-width="1.00" clip-path="url('#clipping-rect1')" />
		<line x1="987.10" y1="29.00" x2="987.10" y2="27.00" stroke="#7f7f7f" stroke-width="1.00" clip-path="url('#clipping-rect1')" />
		<line x1="981.83" y1="29.00" x2="981.83" y2="27.00" stroke="#7f7f7f" stroke-width="1.00" clip-path="url('#clipping-rect1')" />
		<line x1="976.57" y1="29.00" x2="976.57" y2="27.00" stroke="#7f7f7f" stroke-width="1.00" clip-path="url('#clipping-rect1')" />
		<line x1="971.30" y1="29.00" x2="971.30" y2="26.00" stroke="#7f7f7f" stroke-width="1.00" clip-path="url('#clipping-rect1')" />
		<line x1="966.04" y1="29.00" x2="966.04" y2="27.00" stroke="#7f7f7f" stroke-width="1.00" clip-path="url('#clipping-rect1')" />
		<line x1="960.78" y1="29.00" x2="960.78" y2="27.00" stroke="#7f7f7f" stroke-width="1.00" clip-path="url('#clipping-rect1')" />
		<line x1="955.51" y1="29.00" x2="955.51" y2="27.00" stroke="#7f7f7f" stroke-width="1.00" clip-path="url('#clipping-rect1')" />
		<line x1="950.25" y1="29.00" x2="950.25" y2="27.00" stroke="#7f7f7f" stroke-width="1.00" clip-path="url('#clipping-rect1')" />
		<line x1="944.98" y1="29.00" x2="944.98" y2="26.00" stroke="#7f7f7f" stroke-width="1.00" clip-path="url('#clipping-rect1')" />
		<line x1="939.72" y1="29.00" x2="939.72" y2="27.00" stroke="#7f7f7f" stroke-width="1.00" clip-path="url('#clipping-rect1')" />
		<line x1="934.46" y1="29.00" x2="934.46" y2="27.00" stroke="#7f7f7f" stroke-width="1.00" clip-path="url('#clipping-rect1')" />
		<line x1="929.19" y1="29.00" x2="929.19" y2="27.00" stroke="#7f7f7f" stroke-width="1.00" clip-path="url('#clipping-rect1')" />
		<line x1="923.93" y1="29.00" x2="923.93" y2="27.00" stroke="#7f7f7f" stroke-width="1.00" clip-path="url('#clipping-rect1')" />
		<line x1="918.67" y1="29.00" x2="918.67" y2="26.00" stroke="#7f7f7f" stroke-width="1.00" clip-path="url('#clipping-rect1')" />
		<line x1="913.40" y1="29.00" x2="913.40" y2="27.00" stroke="#7f7f7f" stroke-width="1.00" clip-path="url('#clipping-rect1')" />
		<line x1="908.14" y1="29.00" x2="908.14" y2="27.00" stroke="#7f7f7f" stroke-width="1.00" clip-path="url('#clipping-rect1')" />
		<line x1="902.87" y1="29.00" x2="902.87" y2="27.00" stroke="#7f7f7f" stroke-width="1.00" clip-path="url('#clipping-rect1')" />
		<line x1="897.61" y1="29.00" x2="897.61" y2="27.00" stroke="#7f7f7f" stroke-width="1.00" clip-path="url('#clipping-rect1')" />
		<line x1="892.35" y1="29.00" x2="892.35" y2="26.00" stroke="#7f7f7f" stroke-width="1.00" clip-path="url('#clipping-rect1')" />
		<line x1="887.08" y1="29.00" x2="887.08" y2="27.00" stroke="#7f7f7f" stroke-width="1.00" clip-path="url('#clipping-rect1')" />
		<line x1="881.82" y1="29.00" x2="881.82" y2="27.00" stroke="#7f7f7f" stroke-width="1.00" clip-path="url('#clipping-rect1')" />
		<line x1="876.55" y1="29.00" x2="876.55" y2="27.00" stroke="#7f7f7f" stroke-width="1.00" clip-path="url('#clipping-rect1')" />
		<line x1="871.29" y1="29.00" x2="871.29" y2="27.00" stroke="#7f7f7f" stroke-width="1.00" clip-path="url('#clipping-rect1')" />
		<line x1="866.03" y1="29.00" x2="866.03" y2="26.00" stroke="#7f7f7f" stroke-width="1.00" clip-path="url('#clipping-rect1')" />
		<line x1="860.76" y1="29.00" x2="860.76" y2="27.00" stroke="#7f7f7f" stroke-width="1.00" clip-path="url('#clipping-rect1')" />
		<line x1="855.50" y1="29.00" x2="855.50" y2="27.00" stroke="#7f7f7f" stroke-width="1.00" clip-path="url('#clipping-rect1')" />
		<line x1="850.23" y1="29.00" x2="850.23" y2="27.00" stroke="#7f7f7f" stroke-width="1.00" clip-path="url('#clipping-rect1')" />
		<line x1="844.97" y1="29.00" x2="844.97" y2="27.00" stroke="#7f7f7f" stroke-width="1.00" clip-path="url('#clipping-rect1')" />
		<line x1="839.71" y1="29.00" x2="839.71" y2="26.00" stroke="#7f7f7f" stroke-width="1.00" clip-path="url('#clipping-rect1')" />
		<line x1="834.44" y1="29.00" x2="834.44" y2="27.00" stroke="#7f7f7f" stroke-width="1.00" clip-path="url('#clipping-rect1')" />
		<line x1="829.18" y1="29.00" x2="829.18" y2="27.00" stroke="#7f7f7f" stroke-width="1.00" clip-path="url('#clipping-rect1')" />
		<line x1="823.92" y1="29.00" x2="823.92" y2="27.00" stroke="#7f7f7f" stroke-width="1.00" clip-path="url('#clipping-rect1')" />
		<line x1="818.65" y1="29.00" x2="818.65" y2="27.00" stroke="#7f7f7f" stroke-width="1.00" clip-path="url('#clipping-rect1')" />
		<line x1="813.39" y1="29.00" x2="813.39" y2="26.00" stroke="#7f7f7f" stroke-width="1.00" clip-path="url('#clipping-rect1')" />
		<line x1="808.12" y1="29.00" x2="808.12" y2="27.00" stroke="#7f7f7f" stroke-width="1.00" clip-path="url('#clipping-rect1')" />
		<line x1="802.86" y1="29.00" x2="802.86" y2="27.00" stroke="#7f7f7f" stroke-width="1.00" clip-path="url('#clipping-rect1')" />
		<line x1="797.60" y1="29.00" x2="797.60" y2="27.00" stroke="#7f7f7f" stroke-width="1.00" clip-path="url('#clipping-rect1')" />
		<line x1="792.33" y1="29.00" x2="792.33" y2="27.00" stroke="#7f7f7f" stroke-width="1.00" clip-path="url('#clipping-rect1')" />
		<line x1="787.07" y1="29.00" x2="787.07" y2="26.00" stroke="#7f7f7f" stroke-width="1.00" clip-path="url('#clipping-rect1')" />
		<line x1="781.80" y1="29.00" x2="781.80" y2="27.00" stroke="#7f7f7f" stroke-width="1.00" clip-path="url('#clipping-rect1')" />
		<line x1="776.54" y1="29.00" x2="776.54" y2="27.00" stroke="#7f7f7f" stroke-width="1.00" clip-path="url('#clipping-rect1')" />
		<line x1="771.28" y1="29.00" x2="771.28" y2="27.00" stroke="#7f7f7f" stroke-width="1.00" clip-path="url('#clipping-rect1')" />
		<line x1="766.01" y1="29.00" x2="766.01" y2="27.00" stroke="#7f7f7f" stroke-width="1.00" clip-path="url('#clipping-rect1')" />
		<line x1="760.75" y1="29.00" x2="760.75" y2="26.00" stroke="#7f7f7f" stroke-width="1.00" clip-path="url('#clipping-rect1')" />
		<line x1="755.49" y1="29.00" x2="755.49" y2="27.00" stroke="#7f7f7f" stroke-width="1.00" clip-path="url('#clipping-rect1')" />
		<line x1="750.22" y1="29.00" x2="750.22" y2="27.00" stroke="#7f7f7f" stroke-width="1.00" clip-path="url('#clipping-rect1')" />
		<line x1="744.96" y1="29.00" x2="744.96" y2="27.00" stroke="#7f7f7f" stroke-width="1.00" clip-path="url('#clipping-rect1')" />
		<line x1="739.69" y1="29.00" x2="739.69" y2="27.00" stroke="#7f7f7f" stroke-width="1.00" clip-path="url('#clipping-rect1')" />
		<line x1="734.43" y1="29.00" x2="734.43" y2="26.00" stroke="#7f7f7f" stroke-width="1.00" clip-path="url('#clipping-rect1')" />
		<line x1="729.17" y1="29.00" x2="729.17" y2="27.00" stroke="#7f7f7f" stroke-width="1.00" clip-path="url('#clipping-rect1')" />
		<line x1="723.90" y1="29.00" x2="723.90" y2="27.00" stroke="#7f7f7f" stroke-width="1.00" clip-path="url('#clipping-rect1')" />
		<line x1="718.64" y1="29.00" x2="718.64" y2="27.00" stroke="#7f7f7f" stroke-width="1.00" clip-path="url('#clipping-rect1')" />
		<line x1="713.37" y1="29.00" x2="713.37" y2="27.00" stroke="#7f7f7f" stroke-width="1.00" clip-path="url('#clipping-rect1')" />
		<line x1="708.11" y1="29.00" x2="708.11" y2="26.00" stroke="#7f7f7f" stroke-width="1.00" clip-path="url('#clipping-rect1')" />
		<line x1="702.85" y1="29.00" x2="702.85" y2="27.00" stroke="#7f7f7f" stroke-width="1.00" clip-path="url('#clipping-rect1')" />
		<line x1="697.58" y1="29.00" x2="697.58" y2="27.00" stroke="#7f7f7f" stroke-width="1.00" clip-path="url('#clipping-rect1')" />
		<line x1="692.32" y1="29.00" x2="692.32" y2="27.00" stroke="#7f7f7f" stroke-width="1.00" clip-path="url('#clipping-rect1')" />
		<line x1="687.06" y1="29.00" x2="687.06" y2="27.00" stroke="#7f7f7f" stroke-width="1.00" clip-path="url('#clipping-rect1')" />
		<line x1="681.79" y1="29.00" x2="681.79" y2="26.00" stroke="#7f7f7f" stroke-width="1.00" clip-path="url('#clipping-rect1')" />
		<line x1="676.53" y1="29.00" x2="676.53" y2="27.00" stroke="#7f7f7f" stroke-width="1.00" clip-path="url('#clipping-rect1')" />
		<line x1="671.26" y1="29.00" x2="671.26" y2="27.00" stroke="#7f7f7f" stroke-width="1.00" clip-path="url('#clipping-rect1')" />
		<line x1="666.00" y1="29.00" x2="666.00" y2="27.00" stroke="#7f7f7f" stroke-width="1.00" clip-path="url('#clipping-rect1')" />
		<line x1="660.74" y1="29.00" x2="660.74" y2="27.00" stroke="#7f7f7f" stroke-width="1.00" clip-path="url('#clipping-rect1')" />
		<line x1="655.47" y1="29.00" x2="655.47" y2="26.00" stroke="#7f7f7f" stroke-width="1.00" clip-path="url('#clipping-rect1')" />
		<line x1="650.21" y1="29.00" x2="650.21" y2="27.00" stroke="#7f7f7f" stroke-width="1.00" clip-path="url('#clipping-rect1')" />
		<line x1="644.94" y1="29.00" x2="644.94" y2="27.00" stroke="#7f7f7f" stroke-width="1.00" clip-path="url('#clipping-rect1')" />
		<line x1="639.68" y1="29.00" x2="639.68" y2="27.00" stroke="#7f7f7f" stroke-width="1.00" clip-path="url('#clipping-rect1')" />
		<line x1="634.42" y1="29.00" x2="634.42" y2="27.00" stroke="#7f7f7f" stroke-width="1.00" clip-path="url('#clipping-rect1')" />
		<line x1="629.15" y1="29.00" x2="629.15" y2="26.00" stroke="#7f7f7f" stroke-width="1.00" clip-path="url('#clipping-rect1')" />
		<line x1="623.89" y1="29.00" x2="623.89" y2="27.00" stroke="#7f7f7f" stroke-width="1.00" clip-path="url('#clipping-rect1')" />
		<line x1="618.63" y1="29.00" x2="618.63" y2="27.00" stroke="#7f7f7f" stroke-width="1.00" clip-path="url('#clipping-rect1')" />
		<line x1="613.36" y1="29.00" x2="613.36" y2="27.00" stroke="#7f7f7f" stroke-width="1.00" clip-path="url('#clipping-rect1')" />
		<line x1="608.10" y1="29.00" x2="608.10" y2="27.00" stroke="#7f7f7f" stroke-width="1.00" clip-path="url('#clipping-rect1')" />
		<line x1="602.83" y1="29.00" x2="602.83" y2="26.00" stroke="#7f7f7f" stroke-width="1.00" clip-path="url('#clipping-rect1')" />
		<line x1="597.57" y1="29.00" x2="597.57" y2="27.00" stroke="#7f7f7f" stroke-width="1.00" clip-path="url('#clipping-rect1')" />
		<line x1="592.31" y1="29.00" x2="592.31" y2="27.00" stroke="#7f7f7f" stroke-width="1.00" clip-path="url('#clipping-rect1')" />
		<line x1="587.04" y1="29.00" x2="587.04" y2="27.00" stroke="#7f7f7f" stroke-width="1.00" clip-path="url('#clipping-rect1')" />
		<line x1="581.78" y1="29.00" x2="581.78" y2="27.00" stroke="#7f7f7f" stroke-width="1.00" clip-path="url('#clipping-rect1')" />
		<line x1="576.51" y1="29.00" x2="576.51" y2="26.00" stroke="#7f7f7f" stroke-width="1.00" clip-path="url('#clipping-rect1')" />
		<line x1="571.25" y1="29.00" x2="571.25" y2="27.00" stroke="#7f7f7f" stroke-width="1.00" clip-path="url('#clipping-rect1')" />
		<line x1="565.99" y1="29.00" x2="565.99" y2="27.00" stroke="#7f7f7f" stroke-width="1.00" clip-path="url('#clipping-rect1')" />
		<line x1="560.72" y1="29.00" x2="560.72" y2="27.00" stroke="#7f7f7f" stroke-width="1.00" clip-path="url('#clipping-rect1')" />
		<line x1="555.46" y1="29.00" x2="555.46" y2="27.00" stroke="#7f7f7f" stroke-width="1.00" clip-path="url('#clipping-rect1')" />
		<line x1="550.20" y1="29.00" x2="550.20" y2="26.00" stroke="#7f7f7f" stroke-width="1.00" clip-path="url('#clipping-rect1')" />
		<line x1="544.93" y1="29.00" x2="544.93" y2="27.00" stroke="#7f7f7f" stroke-width="1.00" clip-path="url('#clipping-rect1')" />
		<line x1="539.67" y1="29.00" x2="539.67" y2="27.00" stroke="#7f7f7f" stroke-width="1.00" clip-path="url('#clipping-rect1')" />
		<line x1="534.40" y1="29.00" x2="534.40" y2="27.00" stroke="#7f7f7f" stroke-width="1.00" clip-path="url('#clipping-rect1')" />
		<line x1="529.14" y1="29.00" x2="529.14" y2="27.00" stroke="#7f7f7f" stroke-width="1.00" clip-path="url('#clipping-rect1')" />
		<line x1="523.88" y1="29.00" x2="523.88" y2="26.00" stroke="#7f7f7f" stroke-width="1.00" clip-path="url('#clipping-rect1')" />
		<line x1="518.61" y1="29.00" x2="518.61" y2="27.00" stroke="#7f7f7f" stroke-width="1.00" clip-path="url('#clipping-rect1')" />
		<line x1="513.35" y1="29.00" x2="513.35" y2="27.00" stroke="#7f7f7f" stroke-width="1.00" clip-path="url('#clipping-rect1')" />
		<line x1="508.08" y1="29.00" x2="508.08" y2="27.00" stroke="#7f7f7f" stroke-width="1.00" clip-path="url('#clipping-rect1')" />
		<line x1="502.82" y1="29.00" x2="502.82" y2="27.00" stroke="#7f7f7f" stroke-width="1.00" clip-path="url('#clipping-rect1')" />
		<line x1="497.56" y1="29.00" x2="497.56" y2="26.00" stroke="#7f7f7f" stroke-width="1.00" clip-path="url('#clipping-rect1')" />
		<line x1="492.29" y1="29.00" x2="492.29" y2="27.00" stroke="#7f7f7f" stroke-width="1.00" clip-path="url('#clipping-rect1')" />
		<line x1="487.03" y1="29.00" x2="487.03" y2="27.00" stroke="#7f7f7f" stroke-width="1.00" clip-path="url('#clipping-rect1')" />
		<line x1="481.77" y1="29.00" x2="481.77" y2="27.00" stroke="#7f7f7f" stroke-width="1.00" clip-path="url('#clipping-rect1')" />
		<line x1="476.50" y1="29.00" x2="476.50" y2="27.00" stroke="#7f7f7f" stroke-width="1.00" clip-path="url('#clipping-rect1')" />
		<line x1="471.24" y1="29.00" x2="471.24" y2="26.00" stroke="#7f7f7f" stroke-width="1.00" clip-path="url('#clipping-rect1')" />
		<line x1="465.97" y1="29.00" x2="465.97" y2="27.00" stroke="#7f7f7f" stroke-width="1.00" clip-path="url('#clipping-rect1')" />
		<line x1="460.71" y1="29.00" x2="460.71" y2="27.00" stroke="#7f7f7f" stroke-width="1.00" clip-path="url('#clipping-rect1')" />
		<line x1="455.45" y1="29.00" x2="455.45" y2="27.00" stroke="#7f7f7f" stroke-width="1.00" clip-path="url('#clipping-rect1')" />
		<line x1="450.18" y1="29.00" x2="450.18" y2="27.00" stroke="#7f7f7f" stroke-width="1.00" clip-path="url('#clipping-rect1')" />
		<line x1="444.92" y1="29.00" x2="444.92" y2="26.00" stroke="#7f7f7f" stroke-width="1.00" clip-path="url('#clipping-rect1')" />
		<line x1="439.65" y1="29.00" x2="439.65" y2="27.00" stroke="#7f7f7f" stroke-width="1.00" clip-path="url('#clipping-rect1')" />
		<line x1="434.39" y1="29.00" x2="434.39" y2="27.00" stroke="#7f7f7f" stroke-width="1.00" clip-path="url('#clipping-rect1')" />
		<line x1="429.13" y1="29.00" x2="429.13" y2="27.00" stroke="#7f7f7f" stroke-width="1.00" clip-path="url('#clipping-rect1')" />
		<line x1="423.86" y1="29.00" x2="423.86" y2="27.00" stroke="#7f7f7f" stroke-width="1.00" clip-path="url('#clipping-rect1')" />
		<line x1="418.60" y1="29.00" x2="418.60" y2="26.00" stroke="#7f7f7f" stroke-width="1.00" clip-path="url('#clipping-rect1')" />
		<line x1="413.33" y1="29.00" x2="413.33" y2="27.00" stroke="#7f7f7f" stroke-width="1.00" clip-path="url('#clipping-rect1')" />
		<line x1="408.07" y1="29.00" x2="408.07" y2="27.00" stroke="#7f7f7f" stroke-width="1.00" clip-path="url('#clipping-rect1')" />
		<line x1="402.81" y1="29.00" x2="402.81" y2="27.00" stroke="#7f7f7f" stroke-width="1.00" clip-path="url('#clipping-rect1')" />
		<line x1="397.54" y1="29.00" x2="397.54" y2="27.00" stroke="#7f7f7f" stroke-width="1.00" clip-path="url('#clipping-rect1')" />
		<line x1="392.28" y1="29.00" x2="392.28" y2="26.00" stroke="#7f7f7f" stroke-width="1.00" clip-path="url('#clipping-rect1')" />
		<line x1="387.02" y1="29.00" x2="387.02" y2="27.00" stroke="#7f7f7f" stroke-width="1.00" clip-path="url('#clipping-rect1')" />
		<line x1="381.75" y1="29.00" x2="381.75" y2="27.00" stroke="#7f7f7f" stroke-width="1.00" clip-path="url('#clipping-rect1')" />
		<line x1="376.49" y1="29.00" x2="376.49" y2="27.00" stroke="#7f7f7f" stroke-width="1.00" clip-path="url('#clipping-rect1')" />
		<line x1="371.22" y1="29.00" x2="371.22" y2="27.00" stroke="#7f7f7f" stroke-width="1.00" clip-path="url('#clipping-rect1')" />
		<line x1="365.96" y1="29.00" x2="365.96" y2="26.00" stroke="#7f7f7f" stroke-width="1.00" clip-path="url('#clipping-rect1')" />
		<line x1="360.70" y1="29.00" x2="360.70" y2="27.00" stroke="#7f7f7f" stroke-width="1.00" clip-path="url('#clipping-rect1')" />
		<line x1="355.43" y1="29.00" x2="355.43" y2="27.00" stroke="#7f7f7f" stroke-width="1.00" clip-path="url('#clipping-rect1')" />
		<line x1="350.17" y1="29.00" x2="350.17" y2="27.00" stroke="#7f7f7f" stroke-width="1.00" clip-path="url('#clipping-rect1')" />
		<line x1="344.90" y1="29.00" x2="344.90" y2="27.00" stroke="#7f7f7f" stroke-width="1.00" clip-path="url('#clipping-rect1')" />
		<line x1="339.64" y1="29.00" x2="339.64" y2="26.00" stroke="#7f7f7f" stroke-width="1.00" clip-path="url('#clipping-rect1')" />
		<line x1="334.38" y1="29.00" x2="334.38" y2="27.00" stroke="#7f7f7f" stroke-width="1.00" clip-path="url('#clipping-rect1')" />
		<line x1="329.11" y1="29.00" x2="329.11" y2="27.00" stroke="#7f7f7f" stroke-width="1.00" clip-path="url('#clipping-rect1')" />
		<line x1="323.85" y1="29.00" x2="323.85" y2="27.00" stroke="#7f7f7f" stroke-width="1.00" clip-path="url('#clipping-rect1')" />
		<line x1="318.59" y1="29.00" x2="318.59" y2="27.00" stroke="#7f7f7f" stroke-width="1.00" clip-path="url('#clipping-rect1')" />
		<line x1="313.32" y1="29.00" x2="313.32" y2="26.00" stroke="#7f7f7f" stroke-width="1.00" clip-path="url('#clipping-rect1')" />
		<line x1="308.06" y1="29.00" x2="308.06" y2="27.00" stroke="#7f7f7f" stroke-width="1.00" clip-path="url('#clipping-rect1')" />
		<line x1="302.79" y1="29.00" x2="302.79" y2="27.00" stroke="#7f7f7f" stroke-width="1.00" clip-path="url('#clipping-rect1')" />
		<line x1="297.53" y1="29.00" x2="297.53" y2="27.00" stroke="#7f7f7f" stroke-width="1.00" clip-path="url('#clipping-rect1')" />
		<line x1="292.27" y1="29.00" x2="292.27" y2="27.00" stroke="#7f7f7f" stroke-width="1.00" clip-path="url('#clipping-rect1')" />
		<line x1="287.00" y1="29.00" x2="287.00" y2="26.00" stroke="#7f7f7f" stroke-width="1.00" clip-path="url('#clipping-rect1')" />
		<line x1="281.74" y1="29.00" x2="281.74" y2="27.00" stroke="#7f7f7f" stroke-width="1.00" clip-path="url('#clipping-rect1')" />
		<line x1="276.47" y1="29.00" x2="276.47" y2="27.00" stroke="#7f7f7f" stroke-width="1.00" clip-path="url('#clipping-rect1')" />
		<line x1="271.21" y1="29.00" x2="271.21" y2="27.00" stroke="#7f7f7f" stroke-width="1.00" clip-path="url('#clipping-rect1')" />
		<line x1="265.95" y1="29.00" x2="265.95" y2="27.00" stroke="#7f7f7f" stroke-width="1.00" clip-path="url('#clipping-rect1')" />
		<line x1="260.68" y1="29.00" x2="260.68" y2="26.00" stroke="#7f7f7f" stroke-width="1.00" clip-path="url('#clipping-rect1')" />
		<line x1="255.42" y1="29.00" x2="255.42" y2="27.00" stroke="#7f7f7f" stroke-width="1.00" clip-path="url('#clipping-rect1')" />
		<line x1="250.16" y1="29.00" x2="250.16" y2="27.00" stroke="#7f7f7f" stroke-width="1.00" clip-path="url('#clipping-rect1')" />
		<line x1="244.89" y1="29.00" x2="244.89" y2="27.00" stroke="#7f7f7f" stroke-width="1.00" clip-path="url('#clipping-rect1')" />
		<line x1="239.63" y1="29.00" x2="239.63" y2="27.00" stroke="#7f7f7f" stroke-width="1.00" clip-path="url('#clipping-rect1')" />
		<line x1="234.36" y1="29.00" x2="234.36" y2="26.00" stroke="#7f7f7f" stroke-width="1.00" clip-path="url('#clipping-rect1')" />
		<line x1="229.10" y1="29.00" x2="229.10" y2="27.00" stroke="#7f7f7f" stroke-width="1.00" clip-path="url('#clipping-rect1')" />
		<line x1="223.84" y1="29.00" x2="223.84" y2="27.00" stroke="#7f7f7f" stroke-width="1.00" clip-path="url('#clipping-rect1')" />
		<line x1="218.57" y1="29.00" x2="218.57" y2="27.00" stroke="#7f7f7f" stroke-width="1.00" clip-path="url('#clipping-rect1')" />
		<line x1="213.31" y1="29.00" x2="213.31" y2="27.00" stroke="#7f7f7f" stroke-width="1.00" clip-path="url('#clipping-rect1')" />
		<line x1="208.04" y1="29.00" x2="208.04" y2="26.00" stroke="#7f7f7f" stroke-width="1.00" clip-path="url('#clipping-rect1')" />
		<line x1="202.78" y1="29.00" x2="202.78" y2="27.00" stroke="#7f7f7f" stroke-width="1.00" clip-path="url('#clipping-rect1')" />
		<line x1="197.52" y1="29.00" x2="197.52" y2="27.00" stroke="#7f7f7f" stroke-width="1.00" clip-path="url('#clipping-rect1')" />
		<line x1="192.25" y1="29.00" x2="192.25" y2="27.00" stroke="#7f7f7f" stroke-width="1.00" clip-path="url('#clipping-rect1')" />
		<line x1="186.99" y1="29.00" x2="186.99" y2="27.00" stroke="#7f7f7f" stroke-width="1.00" clip-path="url('#clipping-rect1')" />
		<line x1="181.73" y1="29.00" x2="181.73" y2="26.00" stroke="#7f7f7f" stroke-width="1.00" clip-path="url('#clipping-rect1')" />
		<line x1="176.46" y1="29.00" x2="176.46" y2="27.00" stroke="#7f7f7f" stroke-width="1.00" clip-path="url('#clipping-rect1')" />
		<line x1="171.20" y1="29.00" x2="171.20" y2="27.00" stroke="#7f7f7f" stroke-width="1.00" clip-path="url('#clipping-rect1')" />
		<line x1="165.93" y1="29.00" x2="165.93" y2="27.00" stroke="#7f7f7f" stroke-width="1.00" clip-path="url('#clipping-rect1')" />
		<line x1="160.67" y1="29.00" x2="160.67" y2="27.00" stroke="#7f7f7f" stroke-width="1.00" clip-path="url('#clipping-rect1')" />
		<line x1="155.41" y1="29.00" x2="155.41" y2="26.00" stroke="#7f7f7f" stroke-width="1.00" clip-path="url('#clipping-rect1')" />
		<line x1="150.14" y1="29.00" x2="150.14" y2="27.00" stroke="#7f7f7f" stroke-width="1.00" clip-path="url('#clipping-rect1')" />
		<line x1="144.88" y1="29.00" x2="144.88" y2="27.00" stroke="#7f7f7f" stroke-width="1.00" clip-path="url('#clipping-rect1')" />
		<line x1="139.61" y1="29.00" x2="139.61" y2="27.00" stroke="#7f7f7f" stroke-width="1.00" clip-path="url('#clipping-rect1')" />
		<line x1="134.35" y1="29.00" x2="134.35" y2="27.00" stroke="#7f7f7f" stroke-width="1.00" clip-path="url('#clipping-rect1')" />
		<line x1="129.09" y1="29.00" x2="129.09" y2="26.00" stroke="#7f7f7f" stroke-width="1.00" clip-path="url('#clipping-rect1')" />
		<line x1="123.82" y1="29.00" x2="123.82" y2="27.00" stroke="#7f7f7f" stroke-width="1.00" clip-path="url('#clipping-rect1')" />
		<line x1="118.56" y1="29.00" x2="118.56" y2="27.00" stroke="#7f7f7f" stroke-width="1.00" clip-path="url('#clipping-rect1')" />
		<line x1="113.30" y1="29.00" x2="113.30" y2="27.00" stroke="#7f7f7f" stroke-width="1.00" clip-path="url('#clipping-rect1')" />
		<line x1="108.03" y1="29.00" x2="108.03" y2="27.00" stroke="#7f7f7f" stroke-width="1.00" clip-path="url('#clipping-rect1')" />
		<line x1="102.77" y1="29.00" x2="102.77" y2="26.00" stroke="#7f7f7f" stroke-width="1.00" clip-path="url('#clipping-rect1')" />
		<line x1="97.50" y1="29.00" x2="97.50" y2="27.00" stroke="#7f7f7f" stroke-width="1.00" clip-path="url('#clipping-rect1')" />
		<line x1="92.24" y1="29.00" x2="92.24" y2="27.00" stroke="#7f7f7f" stroke-width="1.00" clip-path="url('#clipping-rect1')" />
		<line x1="86.98" y1="29.00" x2="86.98" y2="27.00" stroke="#7f7f7f" stroke-width="1.00" clip-path="url('#clipping-rect1')" />
		<line x1="81.71" y1="29.00" x2="81.71" y2="27.00" stroke="#7f7f7f" stroke-width="1.00" clip-path="url('#clipping-rect1')" />
		<line x1="76.45" y1="29.00" x2="76.45" y2="26.00" stroke="#7f7f7f" stroke-width="1.00" clip-path="url('#clipping-rect1')" />
		<line x1="71.18" y1="29.00" x2="71.18" y2="27.00" stroke="#7f7f7f" stroke-width="1.00" clip-path="url('#clipping-rect1')" />
		<line x1="65.92" y1="29.00" x2="65.92" y2="27.00" stroke="#7f7f7f" stroke-width="1.00" clip-path="url('#clipping-rect1')" />
		<line x1="60.66" y1="29.00" x2="60.66" y2="27.00" stroke="#7f7f7f" stroke-width="1.00" clip-path="url('#clipping-rect1')" />
		<line x1="55.39" y1="29.00" x2="55.39" y2="27.00" stroke="#7f7f7f" stroke-width="1.00" clip-path="url('#clipping-rect1')" />
		<line x1="50.13" y1="29.00" x2="50.13" y2="26.00" stroke="#7f7f7f" stroke-width="1.00" clip-path="url('#clipping-rect1')" />
		<line x1="44.87" y1="29.00" x2="44.87" y2="27.00" stroke="#7f7f7f" stroke-width="1.00" clip-path="url('#clipping-rect1')" />
		<line x1="39.60" y1="29.00" x2="39.60" y2="27.00" stroke="#7f7f7f" stroke-width="1.00" clip-path="url('#clipping-rect1')" />
		<line x1="34.34" y1="29.00" x2="34.34" y2="27.00" stroke="#7f7f7f" stroke-width="1.00" clip-path="url('#clipping-rect1')" />
		<line x1="29.07" y1="29.00" x2="29.07" y2="27.00" stroke="#7f7f7f" stroke-width="1.00" clip-path="url('#clipping-rect1')" />
		<line x1="23.81" y1="29.00" x2="23.81" y2="26.00" stroke="#7f7f7f" stroke-width="1.00" clip-path="url('#clipping-rect1')" />
		<line x1="18.55" y1="29.00" x2="18.55" y2="27.00" stroke="#7f7f7f" stroke-width="1.00" clip-path="url('#clipping-rect1')" />
		<line x1="13.28" y1="29.00" x2="13.28" y2="27.00" stroke="#7f7f7f" stroke-width="1.00" clip-path="url('#clipping-rect1')" />
		<line x1="8.02" y1="29.00" x2="8.02" y2="27.00" stroke="#7f7f7f" stroke-width="1.00" clip-path="url('#clipping-rect1')" />
		<line x1="2.75" y1="29.00" x2="2.75" y2="27.00" stroke="#7f7f7f" stroke-width="1.00" clip-path="url('#clipping-rect1')" />
		<text x="868.03" y="24.00" font-family="Helvetica" font-size="10" fill="#333333" clip-path="url('#clipping-rect1')" >1,600 K</text>
		<line x1="866.03" y1="31.00" x2="866.03" y2="16.00" stroke="#7f7f7f" stroke-width="1.00" clip-path="url('#clipping-rect1')" />
		<text x="736.43" y="24.00" font-family="Helvetica" font-size="10" fill="#333333" clip-path="url('#clipping-rect1')" >1,650 K</text>
		<line x1="734.43" y1="31.00" x2="734.43" y2="16.00" stroke="#7f7f7f" stroke-width="1.00" clip-path="url('#clipping-rect1')" />
		<text x="604.83" y="24.00" font-family="Helvetica" font-size="10" fill="#333333" clip-path="url('#clipping-rect1')" >1,700 K</text>
		<line x1="602.83" y1="31.00" x2="602.83" y2="16.00" stroke="#7f7f7f" stroke-width="1.00" clip-path="url('#clipping-rect1')" />
		<text x="473.24" y="24.00" font-family="Helvetica" font-size="10" fill="#333333" clip-path="url('#clipping-rect1')" >1,750 K</text>
		<line x1="471.24" y1="31.00" x2="471.24" y2="16.00" stroke="#7f7f7f" stroke-width="1.00" clip-path="url('#clipping-rect1')" />
		<text x="341.64" y="24.00" font-family="Helvetica" font-size="10" fill="#333333" clip-path="url('#clipping-rect1')" >1,800 K</text>
		<line x1="339.64" y1="31.00" x2="339.64" y2="16.00" stroke="#7f7f7f" stroke-width="1.00" clip-path="url('#clipping-rect1')" />
		<text x="210.04" y="24.00" font-family="Helvetica" font-size="10" fill="#333333" clip-path="url('#clipping-rect1')" >1,850 K</text>
		<line x1="208.04" y1="31.00" x2="208.04" y2="16.00" stroke="#7f7f7f" stroke-width="1.00" clip-path="url('#clipping-rect1')" />
		<text x="78.45" y="24.00" font-family="Helvetica" font-size="10" fill="#333333" clip-path="url('#clipping-rect1')" >1,900 K</text>
		<line x1="76.45" y1="31.00" x2="76.45" y2="16.00" stroke="#7f7f7f" stroke-width="1.00" clip-path="url('#clipping-rect1')" />
		<line x1="866.87" y1="137.00" x2="866.87" y2="31.00" stroke="#ebebeb" stroke-width="1.00" />
		<line x1="734.74" y1="137.00" x2="734.74" y2="31.00" stroke="#ebebeb" stroke-width="1.00" />
		<line x1="602.61" y1="137.00" x2="602.61" y2="31.00" stroke="#ebebeb" stroke-width="1.00" />
		<line x1="471.47" y1="137.00" x2="471.47" y2="31.00" stroke="#ebebeb" stroke-width="1.00" />
		<line x1="339.34" y1="137.00" x2="339.34" y2="31.00" stroke="#ebebeb" stroke-width="1.00" />
		<line x1="208.21" y1="137.00" x2="208.21" y2="31.00" stroke="#ebebeb" stroke-width="1.00" />
		<line x1="76.08" y1="137.00" x2="76.08" y2="31.00" stroke="#ebebeb" stroke-width="1.00" />
		<polygon fill="#6c6c6c" shape-rendering="crispEdges" points="0.00,42.00 0.00,33.00 994.00,33.00 994.00,42.00 " />
		<line x1="994.00" y1="42.00" x2="994.00" y2="33.00" stroke="#6c6c6c" stroke-width="1.00" stroke-linejoin="round" />
		<line x1="994.00" y1="33.00" x2="0.00" y2="33.00" stroke="#6c6c6c" stroke-width="1.00" stroke-linejoin="round" />
		<line x1="0.00" y1="33.00" x2="0.00" y2="42.00" stroke="#6c6c6c" stroke-width="1.00" stroke-linejoin="round" />
		<line x1="994.00" y1="42.00" x2="0.00" y2="42.00" stroke="#6c6c6c" stroke-width="1.00" stroke-linejoin="round" />
		<polygon fill="#10c010" shape-rendering="crispEdges" points="0.00,31.00 0.00,43.00 994.00,43.00 994.00,31.00 " />
		<polygon fill="#166e32" shape-rendering="crispEdges" points="909.79,63.00 909.79,73.00 989.94,73.00 989.94,63.00 " />
		<polygon fill="#ffffff" shape-rendering="crispEdges" points="953.86,68.00 945.86,64.00 947.86,68.00 945.86,72.00 " />
		<polygon fill="#ffffff" shape-rendering="crispEdges" points="872.65,74.00 872.65,62.00 904.79,62.00 904.79,74.00 " />
		<text x="872.65" y="71.50" font-family="Helvetica" font-size="10" fill="#124d94" >MTSS2</text>
		<polygon fill="#166e32" shape-rendering="crispEdges" points="837.87,78.00 837.87,88.00 909.44,88.00 909.44,78.00 " />
		<polygon fill="#ffffff" shape-rendering="crispEdges" points="877.66,83.00 869.66,79.00 871.66,83.00 869.66,87.00 " />
		<polygon fill="#ffffff" shape-rendering="crispEdges" points="801.84,89.00 801.84,77.00 832.87,77.00 832.87,89.00 " />
		<text x="801.84" y="86.50" font-family="Helvetica" font-size="10" fill="#124d94" >VAC14</text>
		<polygon fill="#166e32" shape-rendering="crispEdges" points="543.65,63.00 543.65,73.00 837.42,73.00 837.42,63.00 " />
		<polygon fill="#ffffff" shape-rendering="crispEdges" points="794.54,68.00 786.54,64.00 788.54,68.00 786.54,72.00 " />
		<polygon fill="#e0e0e0" shape-rendering="crispEdges" points="694.54,68.00 686.54,64.00 688.54,68.00 686.54,72.00 " />
		<polygon fill="#c1c1c1" shape-rendering="crispEdges" points="594.54,68.00 586.54,64.00 588.54,68.00 586.54,72.00 " />
		<polygon fill="#ffffff" shape-rendering="crispEdges" points="509.14,74.00 509.14,62.00 538.65,62.00 538.65,74.00 " />
		<text x="509.14" y="71.50" font-family="Helvetica" font-size="10" fill="#124d94" >HYDIN</text>
		<polygon fill="#166e32" shape-rendering="crispEdges" points="467.11,78.00 467.11,88.00 539.17,88.00 539.17,78.00 " />
		<polygon fill="#ffffff" shape-rendering="crispEdges" points="499.14,83.00 507.14,79.00 505.14,83.00 507.14,87.00 " />
		<text x="544.17" y="86.50" font-family="Helvetica" font-size="10" fill="#124d94" >NDRG4</text>
		<polygon fill="#166e32" shape-rendering="crispEdges" points="444.50,93.00 444.50,103.00 465.07,103.00 465.07,93.00 " />
		<polygon fill="#ffffff" shape-rendering="crispEdges" points="450.79,98.00 458.79,94.00 456.79,98.00 458.79,102.00 " />
		<text x="470.07" y="101.50" font-family="Helvetica" font-size="10" fill="#124d94" >SETD6</text>
		<polygon fill="#166e32" shape-rendering="crispEdges" points="263.82,63.00 263.82,73.00 441.96,73.00 441.96,63.00 " />
		<polygon fill="#ffffff" shape-rendering="crispEdges" points="406.89,68.00 398.89,64.00 400.89,68.00 398.89,72.00 " />
		<polygon fill="#e0e0e0" shape-rendering="crispEdges" points="306.89,68.00 298.89,64.00 300.89,68.00 298.89,72.00 " />
		<polygon fill="#ffffff" shape-rendering="crispEdges" points="227.51,74.00 227.51,62.00 258.82,62.00 258.82,74.00 " />
		<text x="227.51" y="71.50" font-family="Helvetica" font-size="10" fill="#124d94" >CNOT1</text>
		<polygon fill="#166e32" shape-rendering="crispEdges" points="343.53,78.00 343.53,88.00 344.53,88.00 344.53,78.00 " />
		<line x1="344.53" y1="78.00" x2="344.53" y2="88.00" stroke="#166e32" stroke-width="1.00" stroke-linejoin="round" />
		<line x1="344.53" y1="88.00" x2="343.53" y2="88.00" stroke="#166e32" stroke-width="1.00" stroke-linejoin="round" />
		<line x1="343.53" y1="88.00" x2="343.53" y2="78.00" stroke="#166e32" stroke-width="1.00" stroke-linejoin="round" />
		<line x1="344.53" y1="78.00" x2="343.53" y2="78.00" stroke="#166e32" stroke-width="1.00" stroke-linejoin="round" />
		<polygon fill="#ffffff" shape-rendering="crispEdges" points="269.47,89.00 269.47,77.00 338.86,77.00 338.86,89.00 " />
		<text x="269.47" y="86.50" font-family="Helvetica" font-size="10" fill="#124d94" >LOC120312736</text>
		<polygon fill="#166e32" shape-rendering="crispEdges" points="169.28,78.00 169.28,88.00 254.00,88.00 254.00,78.00 " />
		<polygon fill="#ffffff" shape-rendering="crispEdges" points="215.64,83.00 207.64,79.00 209.64,83.00 207.64,87.00 " />
		<polygon fill="#ffffff" shape-rendering="crispEdges" points="134.69,89.00 134.69,77.00 164.28,77.00 164.28,89.00 " />
		<text x="134.69" y="86.50" font-family="Helvetica" font-size="10" fill="#124d94" >SF3B3</text>
		<polygon fill="#166e32" shape-rendering="crispEdges" points="174.46,123.00 174.46,133.00 175.46,133.00 175.46,123.00 " />
		<line x1="175.46" y1="123.00" x2="175.46" y2="133.00" stroke="#166e32" stroke-width="1.00" stroke-linejoin="round" />
		<line x1="175.46" y1="133.00" x2="174.46" y2="133.00" stroke="#166e32" stroke-width="1.00" stroke-linejoin="round" />
		<line x1="174.46" y1="133.00" x2="174.46" y2="123.00" stroke="#166e32" stroke-width="1.00" stroke-linejoin="round" />
		<line x1="175.46" y1="123.00" x2="174.46" y2="123.00" stroke="#166e32" stroke-width="1.00" stroke-linejoin="round" />
		<polygon fill="#ffffff" shape-rendering="crispEdges" points="100.38,134.00 100.38,122.00 169.85,122.00 169.85,134.00 " />
		<text x="100.38" y="131.50" font-family="Helvetica" font-size="10" fill="#124d94" >LOC120312737</text>
		<polygon fill="#166e32" shape-rendering="crispEdges" points="133.97,108.00 133.97,118.00 169.78,118.00 169.78,108.00 " />
		<polygon fill="#ffffff" shape-rendering="crispEdges" points="147.88,113.00 155.88,109.00 153.88,113.00 155.88,117.00 " />
		<text x="174.78" y="116.50" font-family="Helvetica" font-size="10" fill="#124d94" >COG4</text>
		<polygon fill="#166e32" shape-rendering="crispEdges" points="91.21,63.00 91.21,73.00 134.06,73.00 134.06,63.00 " />
		<polygon fill="#ffffff" shape-rendering="crispEdges" points="116.63,68.00 108.63,64.00 110.63,68.00 108.63,72.00 " />
		<polygon fill="#ffffff" shape-rendering="crispEdges" points="60.54,74.00 60.54,62.00 86.21,62.00 86.21,74.00 " />
		<text x="60.54" y="71.50" font-family="Helvetica" font-size="10" fill="#124d94" >FCSK</text>
		<polygon fill="#166e32" shape-rendering="crispEdges" points="51.66,93.00 51.66,103.00 88.37,103.00 88.37,93.00 " />
		<polygon fill="#ffffff" shape-rendering="crispEdges" points="66.02,98.00 74.02,94.00 72.02,98.00 74.02,102.00 " />
		<text x="93.37" y="101.50" font-family="Helvetica" font-size="10" fill="#124d94" >ST3GAL2</text>
		<polygon fill="#166e32" shape-rendering="crispEdges" points="1.53,78.00 1.53,88.00 51.31,88.00 51.31,78.00 " />
		<polygon fill="#ffffff" shape-rendering="crispEdges" points="22.42,83.00 30.42,79.00 28.42,83.00 30.42,87.00 " />
		<text x="56.31" y="86.50" font-family="Helvetica" font-size="10" fill="#124d94" >KCTD19</text>
		<polygon fill="#166e32" shape-rendering="crispEdges" points="0.00,63.00 0.00,73.00 1.54,73.00 1.54,63.00 " />
		<polygon fill="#e6e6e6" fill-opacity="0.71" shape-rendering="crispEdges" points="994.00,44.00 994.00,58.00 0.00,58.00 0.00,44.00 " clip-path="url('#clipping-rect2')" />
		<text x="0.00" y="54.00" font-family="Helvetica" font-size="12" fill="#333333" >Genes, NCBI Crotalus tigris Annotation Release 100, 2021-02-05</text>
		<polygon fill="#e5e5e5" shape-rendering="crispEdges" points="994.00,13.00 994.00,-1.00 0.00,-1.00 0.00,13.00 " />
		<text x="0.00" y="10.00" font-family="Helvetica Bold" font-size="12" text-anchor="start" fill="#000000" >NW_024097057.1:1551376..1929046 Crotalus tigris isolate CLP2741 ecotype Arizona unplaced genomic scaffold, ASM1654583v1 scf7180000018525.42219311030:4301911, w...</text>
	</g>
</svg>
