<?xml version="1.0" standalone="no" ?>
<!DOCTYPE svg PUBLIC "-//W3C//DTD SVG 1.1//EN" "http://www.w3.org/Graphics/SVG/1.1/DTD/svg11.dtd">
<svg width="994px" height="138px" xmlns="http://www.w3.org/2000/svg" version="1.1" viewBox="0 0 994 138" >
	<style type="text/css" > <![CDATA[
		@import url("https://www.ncbi.nlm.nih.gov/projects/sviewer/css/svg_fonts.css");
	]]>
	</style>
	<desc >Generated by NCBI Genome Workbench http://www.ncbi.nlm.nih.gov/tools/gbench/</desc>
	<defs >
		<clipPath id="clipping-rect1" >
			<rect x="0" y="14" width="994" height="18" />
		</clipPath>
		<clipPath id="clipping-rect2" >
			<rect x="0" y="32" width="994" height="106" />
		</clipPath>
	</defs>
	<g >
		<polygon fill="#ffffff" shape-rendering="crispEdges" points="994.00,31.00 994.00,13.00 0.00,13.00 0.00,31.00 " />
		<line x1="0.00" y1="28.88" x2="994.00" y2="28.88" stroke="#7f7f7f" stroke-width="1.00" clip-path="url('#clipping-rect1')" />
		<line x1="4.47" y1="28.88" x2="4.47" y2="25.71" stroke="#7f7f7f" stroke-width="1.00" clip-path="url('#clipping-rect1')" />
		<line x1="16.27" y1="28.88" x2="16.27" y2="26.76" stroke="#7f7f7f" stroke-width="1.00" clip-path="url('#clipping-rect1')" />
		<line x1="28.07" y1="28.88" x2="28.07" y2="25.71" stroke="#7f7f7f" stroke-width="1.00" clip-path="url('#clipping-rect1')" />
		<line x1="39.87" y1="28.88" x2="39.87" y2="26.76" stroke="#7f7f7f" stroke-width="1.00" clip-path="url('#clipping-rect1')" />
		<line x1="51.66" y1="28.88" x2="51.66" y2="25.71" stroke="#7f7f7f" stroke-width="1.00" clip-path="url('#clipping-rect1')" />
		<line x1="63.46" y1="28.88" x2="63.46" y2="26.76" stroke="#7f7f7f" stroke-width="1.00" clip-path="url('#clipping-rect1')" />
		<line x1="75.26" y1="28.88" x2="75.26" y2="25.71" stroke="#7f7f7f" stroke-width="1.00" clip-path="url('#clipping-rect1')" />
		<line x1="87.05" y1="28.88" x2="87.05" y2="26.76" stroke="#7f7f7f" stroke-width="1.00" clip-path="url('#clipping-rect1')" />
		<line x1="98.85" y1="28.88" x2="98.85" y2="25.71" stroke="#7f7f7f" stroke-width="1.00" clip-path="url('#clipping-rect1')" />
		<line x1="110.65" y1="28.88" x2="110.65" y2="26.76" stroke="#7f7f7f" stroke-width="1.00" clip-path="url('#clipping-rect1')" />
		<line x1="122.45" y1="28.88" x2="122.45" y2="25.71" stroke="#7f7f7f" stroke-width="1.00" clip-path="url('#clipping-rect1')" />
		<line x1="134.24" y1="28.88" x2="134.24" y2="26.76" stroke="#7f7f7f" stroke-width="1.00" clip-path="url('#clipping-rect1')" />
		<line x1="146.04" y1="28.88" x2="146.04" y2="25.71" stroke="#7f7f7f" stroke-width="1.00" clip-path="url('#clipping-rect1')" />
		<line x1="157.84" y1="28.88" x2="157.84" y2="26.76" stroke="#7f7f7f" stroke-width="1.00" clip-path="url('#clipping-rect1')" />
		<line x1="169.63" y1="28.88" x2="169.63" y2="25.71" stroke="#7f7f7f" stroke-width="1.00" clip-path="url('#clipping-rect1')" />
		<line x1="181.43" y1="28.88" x2="181.43" y2="26.76" stroke="#7f7f7f" stroke-width="1.00" clip-path="url('#clipping-rect1')" />
		<line x1="193.23" y1="28.88" x2="193.23" y2="25.71" stroke="#7f7f7f" stroke-width="1.00" clip-path="url('#clipping-rect1')" />
		<line x1="205.02" y1="28.88" x2="205.02" y2="26.76" stroke="#7f7f7f" stroke-width="1.00" clip-path="url('#clipping-rect1')" />
		<line x1="216.82" y1="28.88" x2="216.82" y2="25.71" stroke="#7f7f7f" stroke-width="1.00" clip-path="url('#clipping-rect1')" />
		<line x1="228.62" y1="28.88" x2="228.62" y2="26.76" stroke="#7f7f7f" stroke-width="1.00" clip-path="url('#clipping-rect1')" />
		<line x1="240.42" y1="28.88" x2="240.42" y2="25.71" stroke="#7f7f7f" stroke-width="1.00" clip-path="url('#clipping-rect1')" />
		<line x1="252.21" y1="28.88" x2="252.21" y2="26.76" stroke="#7f7f7f" stroke-width="1.00" clip-path="url('#clipping-rect1')" />
		<line x1="264.01" y1="28.88" x2="264.01" y2="25.71" stroke="#7f7f7f" stroke-width="1.00" clip-path="url('#clipping-rect1')" />
		<line x1="275.81" y1="28.88" x2="275.81" y2="26.76" stroke="#7f7f7f" stroke-width="1.00" clip-path="url('#clipping-rect1')" />
		<line x1="287.60" y1="28.88" x2="287.60" y2="25.71" stroke="#7f7f7f" stroke-width="1.00" clip-path="url('#clipping-rect1')" />
		<line x1="299.40" y1="28.88" x2="299.40" y2="26.76" stroke="#7f7f7f" stroke-width="1.00" clip-path="url('#clipping-rect1')" />
		<line x1="311.20" y1="28.88" x2="311.20" y2="25.71" stroke="#7f7f7f" stroke-width="1.00" clip-path="url('#clipping-rect1')" />
		<line x1="323.00" y1="28.88" x2="323.00" y2="26.76" stroke="#7f7f7f" stroke-width="1.00" clip-path="url('#clipping-rect1')" />
		<line x1="334.79" y1="28.88" x2="334.79" y2="25.71" stroke="#7f7f7f" stroke-width="1.00" clip-path="url('#clipping-rect1')" />
		<line x1="346.59" y1="28.88" x2="346.59" y2="26.76" stroke="#7f7f7f" stroke-width="1.00" clip-path="url('#clipping-rect1')" />
		<line x1="358.39" y1="28.88" x2="358.39" y2="25.71" stroke="#7f7f7f" stroke-width="1.00" clip-path="url('#clipping-rect1')" />
		<line x1="370.18" y1="28.88" x2="370.18" y2="26.76" stroke="#7f7f7f" stroke-width="1.00" clip-path="url('#clipping-rect1')" />
		<line x1="381.98" y1="28.88" x2="381.98" y2="25.71" stroke="#7f7f7f" stroke-width="1.00" clip-path="url('#clipping-rect1')" />
		<line x1="393.78" y1="28.88" x2="393.78" y2="26.76" stroke="#7f7f7f" stroke-width="1.00" clip-path="url('#clipping-rect1')" />
		<line x1="405.58" y1="28.88" x2="405.58" y2="25.71" stroke="#7f7f7f" stroke-width="1.00" clip-path="url('#clipping-rect1')" />
		<line x1="417.37" y1="28.88" x2="417.37" y2="26.76" stroke="#7f7f7f" stroke-width="1.00" clip-path="url('#clipping-rect1')" />
		<line x1="429.17" y1="28.88" x2="429.17" y2="25.71" stroke="#7f7f7f" stroke-width="1.00" clip-path="url('#clipping-rect1')" />
		<line x1="440.97" y1="28.88" x2="440.97" y2="26.76" stroke="#7f7f7f" stroke-width="1.00" clip-path="url('#clipping-rect1')" />
		<line x1="452.76" y1="28.88" x2="452.76" y2="25.71" stroke="#7f7f7f" stroke-width="1.00" clip-path="url('#clipping-rect1')" />
		<line x1="464.56" y1="28.88" x2="464.56" y2="26.76" stroke="#7f7f7f" stroke-width="1.00" clip-path="url('#clipping-rect1')" />
		<line x1="476.36" y1="28.88" x2="476.36" y2="25.71" stroke="#7f7f7f" stroke-width="1.00" clip-path="url('#clipping-rect1')" />
		<line x1="488.15" y1="28.88" x2="488.15" y2="26.76" stroke="#7f7f7f" stroke-width="1.00" clip-path="url('#clipping-rect1')" />
		<line x1="499.95" y1="28.88" x2="499.95" y2="25.71" stroke="#7f7f7f" stroke-width="1.00" clip-path="url('#clipping-rect1')" />
		<line x1="511.75" y1="28.88" x2="511.75" y2="26.76" stroke="#7f7f7f" stroke-width="1.00" clip-path="url('#clipping-rect1')" />
		<line x1="523.55" y1="28.88" x2="523.55" y2="25.71" stroke="#7f7f7f" stroke-width="1.00" clip-path="url('#clipping-rect1')" />
		<line x1="535.34" y1="28.88" x2="535.34" y2="26.76" stroke="#7f7f7f" stroke-width="1.00" clip-path="url('#clipping-rect1')" />
		<line x1="547.14" y1="28.88" x2="547.14" y2="25.71" stroke="#7f7f7f" stroke-width="1.00" clip-path="url('#clipping-rect1')" />
		<line x1="558.94" y1="28.88" x2="558.94" y2="26.76" stroke="#7f7f7f" stroke-width="1.00" clip-path="url('#clipping-rect1')" />
		<line x1="570.73" y1="28.88" x2="570.73" y2="25.71" stroke="#7f7f7f" stroke-width="1.00" clip-path="url('#clipping-rect1')" />
		<line x1="582.53" y1="28.88" x2="582.53" y2="26.76" stroke="#7f7f7f" stroke-width="1.00" clip-path="url('#clipping-rect1')" />
		<line x1="594.33" y1="28.88" x2="594.33" y2="25.71" stroke="#7f7f7f" stroke-width="1.00" clip-path="url('#clipping-rect1')" />
		<line x1="606.13" y1="28.88" x2="606.13" y2="26.76" stroke="#7f7f7f" stroke-width="1.00" clip-path="url('#clipping-rect1')" />
		<line x1="617.92" y1="28.88" x2="617.92" y2="25.71" stroke="#7f7f7f" stroke-width="1.00" clip-path="url('#clipping-rect1')" />
		<line x1="629.72" y1="28.88" x2="629.72" y2="26.76" stroke="#7f7f7f" stroke-width="1.00" clip-path="url('#clipping-rect1')" />
		<line x1="641.52" y1="28.88" x2="641.52" y2="25.71" stroke="#7f7f7f" stroke-width="1.00" clip-path="url('#clipping-rect1')" />
		<line x1="653.31" y1="28.88" x2="653.31" y2="26.76" stroke="#7f7f7f" stroke-width="1.00" clip-path="url('#clipping-rect1')" />
		<line x1="665.11" y1="28.88" x2="665.11" y2="25.71" stroke="#7f7f7f" stroke-width="1.00" clip-path="url('#clipping-rect1')" />
		<line x1="676.91" y1="28.88" x2="676.91" y2="26.76" stroke="#7f7f7f" stroke-width="1.00" clip-path="url('#clipping-rect1')" />
		<line x1="688.70" y1="28.88" x2="688.70" y2="25.71" stroke="#7f7f7f" stroke-width="1.00" clip-path="url('#clipping-rect1')" />
		<line x1="700.50" y1="28.88" x2="700.50" y2="26.76" stroke="#7f7f7f" stroke-width="1.00" clip-path="url('#clipping-rect1')" />
		<line x1="712.30" y1="28.88" x2="712.30" y2="25.71" stroke="#7f7f7f" stroke-width="1.00" clip-path="url('#clipping-rect1')" />
		<line x1="724.10" y1="28.88" x2="724.10" y2="26.76" stroke="#7f7f7f" stroke-width="1.00" clip-path="url('#clipping-rect1')" />
		<line x1="735.89" y1="28.88" x2="735.89" y2="25.71" stroke="#7f7f7f" stroke-width="1.00" clip-path="url('#clipping-rect1')" />
		<line x1="747.69" y1="28.88" x2="747.69" y2="26.76" stroke="#7f7f7f" stroke-width="1.00" clip-path="url('#clipping-rect1')" />
		<line x1="759.49" y1="28.88" x2="759.49" y2="25.71" stroke="#7f7f7f" stroke-width="1.00" clip-path="url('#clipping-rect1')" />
		<line x1="771.28" y1="28.88" x2="771.28" y2="26.76" stroke="#7f7f7f" stroke-width="1.00" clip-path="url('#clipping-rect1')" />
		<line x1="783.08" y1="28.88" x2="783.08" y2="25.71" stroke="#7f7f7f" stroke-width="1.00" clip-path="url('#clipping-rect1')" />
		<line x1="794.88" y1="28.88" x2="794.88" y2="26.76" stroke="#7f7f7f" stroke-width="1.00" clip-path="url('#clipping-rect1')" />
		<line x1="806.68" y1="28.88" x2="806.68" y2="25.71" stroke="#7f7f7f" stroke-width="1.00" clip-path="url('#clipping-rect1')" />
		<line x1="818.47" y1="28.88" x2="818.47" y2="26.76" stroke="#7f7f7f" stroke-width="1.00" clip-path="url('#clipping-rect1')" />
		<line x1="830.27" y1="28.88" x2="830.27" y2="25.71" stroke="#7f7f7f" stroke-width="1.00" clip-path="url('#clipping-rect1')" />
		<line x1="842.07" y1="28.88" x2="842.07" y2="26.76" stroke="#7f7f7f" stroke-width="1.00" clip-path="url('#clipping-rect1')" />
		<line x1="853.86" y1="28.88" x2="853.86" y2="25.71" stroke="#7f7f7f" stroke-width="1.00" clip-path="url('#clipping-rect1')" />
		<line x1="865.66" y1="28.88" x2="865.66" y2="26.76" stroke="#7f7f7f" stroke-width="1.00" clip-path="url('#clipping-rect1')" />
		<line x1="877.46" y1="28.88" x2="877.46" y2="25.71" stroke="#7f7f7f" stroke-width="1.00" clip-path="url('#clipping-rect1')" />
		<line x1="889.26" y1="28.88" x2="889.26" y2="26.76" stroke="#7f7f7f" stroke-width="1.00" clip-path="url('#clipping-rect1')" />
		<line x1="901.05" y1="28.88" x2="901.05" y2="25.71" stroke="#7f7f7f" stroke-width="1.00" clip-path="url('#clipping-rect1')" />
		<line x1="912.85" y1="28.88" x2="912.85" y2="26.76" stroke="#7f7f7f" stroke-width="1.00" clip-path="url('#clipping-rect1')" />
		<line x1="924.65" y1="28.88" x2="924.65" y2="25.71" stroke="#7f7f7f" stroke-width="1.00" clip-path="url('#clipping-rect1')" />
		<line x1="936.44" y1="28.88" x2="936.44" y2="26.76" stroke="#7f7f7f" stroke-width="1.00" clip-path="url('#clipping-rect1')" />
		<line x1="948.24" y1="28.88" x2="948.24" y2="25.71" stroke="#7f7f7f" stroke-width="1.00" clip-path="url('#clipping-rect1')" />
		<line x1="960.04" y1="28.88" x2="960.04" y2="26.76" stroke="#7f7f7f" stroke-width="1.00" clip-path="url('#clipping-rect1')" />
		<line x1="971.83" y1="28.88" x2="971.83" y2="25.71" stroke="#7f7f7f" stroke-width="1.00" clip-path="url('#clipping-rect1')" />
		<line x1="983.63" y1="28.88" x2="983.63" y2="26.76" stroke="#7f7f7f" stroke-width="1.00" clip-path="url('#clipping-rect1')" />
		<line x1="1005.00" y1="31.00" x2="1005.00" y2="15.12" stroke="#7f7f7f" stroke-width="1.00" clip-path="url('#clipping-rect1')" />
		<line x1="971.83" y1="31.00" x2="971.83" y2="15.12" stroke="#7f7f7f" stroke-width="1.00" clip-path="url('#clipping-rect1')" />
		<text x="926.65" y="23.59" font-family="Helvetica" font-size="10" fill="#333333" clip-path="url('#clipping-rect1')" >600 K</text>
		<line x1="924.65" y1="31.00" x2="924.65" y2="15.12" stroke="#7f7f7f" stroke-width="1.00" clip-path="url('#clipping-rect1')" />
		<text x="879.46" y="23.59" font-family="Helvetica" font-size="10" fill="#333333" clip-path="url('#clipping-rect1')" >580 K</text>
		<line x1="877.46" y1="31.00" x2="877.46" y2="15.12" stroke="#7f7f7f" stroke-width="1.00" clip-path="url('#clipping-rect1')" />
		<text x="832.27" y="23.59" font-family="Helvetica" font-size="10" fill="#333333" clip-path="url('#clipping-rect1')" >560 K</text>
		<line x1="830.27" y1="31.00" x2="830.27" y2="15.12" stroke="#7f7f7f" stroke-width="1.00" clip-path="url('#clipping-rect1')" />
		<text x="785.08" y="23.59" font-family="Helvetica" font-size="10" fill="#333333" clip-path="url('#clipping-rect1')" >540 K</text>
		<line x1="783.08" y1="31.00" x2="783.08" y2="15.12" stroke="#7f7f7f" stroke-width="1.00" clip-path="url('#clipping-rect1')" />
		<text x="737.89" y="23.59" font-family="Helvetica" font-size="10" fill="#333333" clip-path="url('#clipping-rect1')" >520 K</text>
		<line x1="735.89" y1="31.00" x2="735.89" y2="15.12" stroke="#7f7f7f" stroke-width="1.00" clip-path="url('#clipping-rect1')" />
		<text x="690.70" y="23.59" font-family="Helvetica" font-size="10" fill="#333333" clip-path="url('#clipping-rect1')" >500 K</text>
		<line x1="688.70" y1="31.00" x2="688.70" y2="15.12" stroke="#7f7f7f" stroke-width="1.00" clip-path="url('#clipping-rect1')" />
		<text x="643.52" y="23.59" font-family="Helvetica" font-size="10" fill="#333333" clip-path="url('#clipping-rect1')" >480 K</text>
		<line x1="641.52" y1="31.00" x2="641.52" y2="15.12" stroke="#7f7f7f" stroke-width="1.00" clip-path="url('#clipping-rect1')" />
		<text x="596.33" y="23.59" font-family="Helvetica" font-size="10" fill="#333333" clip-path="url('#clipping-rect1')" >460 K</text>
		<line x1="594.33" y1="31.00" x2="594.33" y2="15.12" stroke="#7f7f7f" stroke-width="1.00" clip-path="url('#clipping-rect1')" />
		<text x="549.14" y="23.59" font-family="Helvetica" font-size="10" fill="#333333" clip-path="url('#clipping-rect1')" >440 K</text>
		<line x1="547.14" y1="31.00" x2="547.14" y2="15.12" stroke="#7f7f7f" stroke-width="1.00" clip-path="url('#clipping-rect1')" />
		<text x="501.95" y="23.59" font-family="Helvetica" font-size="10" fill="#333333" clip-path="url('#clipping-rect1')" >420 K</text>
		<line x1="499.95" y1="31.00" x2="499.95" y2="15.12" stroke="#7f7f7f" stroke-width="1.00" clip-path="url('#clipping-rect1')" />
		<text x="454.76" y="23.59" font-family="Helvetica" font-size="10" fill="#333333" clip-path="url('#clipping-rect1')" >400 K</text>
		<line x1="452.76" y1="31.00" x2="452.76" y2="15.12" stroke="#7f7f7f" stroke-width="1.00" clip-path="url('#clipping-rect1')" />
		<text x="407.58" y="23.59" font-family="Helvetica" font-size="10" fill="#333333" clip-path="url('#clipping-rect1')" >380 K</text>
		<line x1="405.58" y1="31.00" x2="405.58" y2="15.12" stroke="#7f7f7f" stroke-width="1.00" clip-path="url('#clipping-rect1')" />
		<text x="360.39" y="23.59" font-family="Helvetica" font-size="10" fill="#333333" clip-path="url('#clipping-rect1')" >360 K</text>
		<line x1="358.39" y1="31.00" x2="358.39" y2="15.12" stroke="#7f7f7f" stroke-width="1.00" clip-path="url('#clipping-rect1')" />
		<text x="313.20" y="23.59" font-family="Helvetica" font-size="10" fill="#333333" clip-path="url('#clipping-rect1')" >340 K</text>
		<line x1="311.20" y1="31.00" x2="311.20" y2="15.12" stroke="#7f7f7f" stroke-width="1.00" clip-path="url('#clipping-rect1')" />
		<text x="266.01" y="23.59" font-family="Helvetica" font-size="10" fill="#333333" clip-path="url('#clipping-rect1')" >320 K</text>
		<line x1="264.01" y1="31.00" x2="264.01" y2="15.12" stroke="#7f7f7f" stroke-width="1.00" clip-path="url('#clipping-rect1')" />
		<text x="218.82" y="23.59" font-family="Helvetica" font-size="10" fill="#333333" clip-path="url('#clipping-rect1')" >300 K</text>
		<line x1="216.82" y1="31.00" x2="216.82" y2="15.12" stroke="#7f7f7f" stroke-width="1.00" clip-path="url('#clipping-rect1')" />
		<text x="171.63" y="23.59" font-family="Helvetica" font-size="10" fill="#333333" clip-path="url('#clipping-rect1')" >280 K</text>
		<line x1="169.63" y1="31.00" x2="169.63" y2="15.12" stroke="#7f7f7f" stroke-width="1.00" clip-path="url('#clipping-rect1')" />
		<text x="124.45" y="23.59" font-family="Helvetica" font-size="10" fill="#333333" clip-path="url('#clipping-rect1')" >260 K</text>
		<line x1="122.45" y1="31.00" x2="122.45" y2="15.12" stroke="#7f7f7f" stroke-width="1.00" clip-path="url('#clipping-rect1')" />
		<text x="77.26" y="23.59" font-family="Helvetica" font-size="10" fill="#333333" clip-path="url('#clipping-rect1')" >240 K</text>
		<line x1="75.26" y1="31.00" x2="75.26" y2="15.12" stroke="#7f7f7f" stroke-width="1.00" clip-path="url('#clipping-rect1')" />
		<text x="30.07" y="23.59" font-family="Helvetica" font-size="10" fill="#333333" clip-path="url('#clipping-rect1')" >220 K</text>
		<line x1="28.07" y1="31.00" x2="28.07" y2="15.12" stroke="#7f7f7f" stroke-width="1.00" clip-path="url('#clipping-rect1')" />
		<line x1="28.03" y1="137.00" x2="28.03" y2="31.00" stroke="#ebebeb" stroke-width="1.00" />
		<line x1="75.08" y1="137.00" x2="75.08" y2="31.00" stroke="#ebebeb" stroke-width="1.00" />
		<line x1="122.12" y1="137.00" x2="122.12" y2="31.00" stroke="#ebebeb" stroke-width="1.00" />
		<line x1="169.17" y1="137.00" x2="169.17" y2="31.00" stroke="#ebebeb" stroke-width="1.00" />
		<line x1="216.22" y1="137.00" x2="216.22" y2="31.00" stroke="#ebebeb" stroke-width="1.00" />
		<line x1="264.27" y1="137.00" x2="264.27" y2="31.00" stroke="#ebebeb" stroke-width="1.00" />
		<line x1="311.31" y1="137.00" x2="311.31" y2="31.00" stroke="#ebebeb" stroke-width="1.00" />
		<line x1="358.36" y1="137.00" x2="358.36" y2="31.00" stroke="#ebebeb" stroke-width="1.00" />
		<line x1="405.41" y1="137.00" x2="405.41" y2="31.00" stroke="#ebebeb" stroke-width="1.00" />
		<line x1="452.46" y1="137.00" x2="452.46" y2="31.00" stroke="#ebebeb" stroke-width="1.00" />
		<line x1="499.50" y1="137.00" x2="499.50" y2="31.00" stroke="#ebebeb" stroke-width="1.00" />
		<line x1="547.55" y1="137.00" x2="547.55" y2="31.00" stroke="#ebebeb" stroke-width="1.00" />
		<line x1="594.60" y1="137.00" x2="594.60" y2="31.00" stroke="#ebebeb" stroke-width="1.00" />
		<line x1="641.65" y1="137.00" x2="641.65" y2="31.00" stroke="#ebebeb" stroke-width="1.00" />
		<line x1="688.69" y1="137.00" x2="688.69" y2="31.00" stroke="#ebebeb" stroke-width="1.00" />
		<line x1="735.74" y1="137.00" x2="735.74" y2="31.00" stroke="#ebebeb" stroke-width="1.00" />
		<line x1="783.79" y1="137.00" x2="783.79" y2="31.00" stroke="#ebebeb" stroke-width="1.00" />
		<line x1="830.84" y1="137.00" x2="830.84" y2="31.00" stroke="#ebebeb" stroke-width="1.00" />
		<line x1="877.88" y1="137.00" x2="877.88" y2="31.00" stroke="#ebebeb" stroke-width="1.00" />
		<line x1="924.93" y1="137.00" x2="924.93" y2="31.00" stroke="#ebebeb" stroke-width="1.00" />
		<line x1="971.98" y1="137.00" x2="971.98" y2="31.00" stroke="#ebebeb" stroke-width="1.00" />
		<polygon fill="#6c6c6c" shape-rendering="crispEdges" points="994.00,42.00 994.00,33.00 0.00,33.00 0.00,42.00 " />
		<line x1="0.00" y1="42.00" x2="0.00" y2="33.00" stroke="#6c6c6c" stroke-width="1.00" stroke-linejoin="round" />
		<line x1="0.00" y1="33.00" x2="994.00" y2="33.00" stroke="#6c6c6c" stroke-width="1.00" stroke-linejoin="round" />
		<line x1="994.00" y1="33.00" x2="994.00" y2="42.00" stroke="#6c6c6c" stroke-width="1.00" stroke-linejoin="round" />
		<line x1="0.00" y1="42.00" x2="994.00" y2="42.00" stroke="#6c6c6c" stroke-width="1.00" stroke-linejoin="round" />
		<polygon fill="#10c010" shape-rendering="crispEdges" points="950.00,31.00 950.00,43.00 0.00,43.00 0.00,31.00 " />
		<polygon fill="#101010" shape-rendering="crispEdges" points="953.00,31.00 953.00,43.00 950.00,43.00 950.00,31.00 " />
		<polygon fill="#10c010" shape-rendering="crispEdges" points="994.00,31.00 994.00,43.00 953.00,43.00 953.00,31.00 " />
		<line x1="40.00" y1="31.00" x2="40.00" y2="43.00" stroke="#101010" stroke-opacity="0.28" stroke-width="1.00" />
		<line x1="181.00" y1="31.00" x2="181.00" y2="43.00" stroke="#101010" stroke-opacity="0.25" stroke-width="1.00" />
		<line x1="251.00" y1="31.00" x2="251.00" y2="43.00" stroke="#101010" stroke-opacity="0.25" stroke-width="1.00" />
		<line x1="608.00" y1="31.00" x2="608.00" y2="43.00" stroke="#101010" stroke-width="1.00" />
		<line x1="855.00" y1="31.00" x2="855.00" y2="43.00" stroke="#101010" stroke-opacity="0.25" stroke-width="1.00" />
		<line x1="898.00" y1="31.00" x2="898.00" y2="43.00" stroke="#101010" stroke-opacity="0.27" stroke-width="1.00" />
		<line x1="948.00" y1="31.00" x2="948.00" y2="43.00" stroke="#101010" stroke-width="1.00" />
		<polygon fill="#101010" shape-rendering="crispEdges" points="951.00,31.00 951.00,43.00 949.00,43.00 949.00,31.00 " />
		<line x1="952.00" y1="31.00" x2="952.00" y2="43.00" stroke="#101010" stroke-width="1.00" />
		<line x1="974.00" y1="31.00" x2="974.00" y2="43.00" stroke="#101010" stroke-opacity="0.29" stroke-width="1.00" />
		<line x1="975.00" y1="31.00" x2="975.00" y2="43.00" stroke="#101010" stroke-width="1.00" />
		<polygon fill="#166e32" shape-rendering="crispEdges" points="47.45,63.00 47.45,73.00 0.30,73.00 0.30,63.00 " />
		<polygon fill="#ffffff" shape-rendering="crispEdges" points="19.88,68.00 27.88,64.00 25.88,68.00 27.88,72.00 " />
		<polygon fill="#ffffff" shape-rendering="crispEdges" points="89.53,74.00 89.53,62.00 52.45,62.00 52.45,74.00 " />
		<text x="52.45" y="71.50" font-family="Helvetica" font-size="10" fill="#124d94" >KCTD19</text>
		<polygon fill="#166e32" shape-rendering="crispEdges" points="68.90,108.00 68.90,118.00 52.69,118.00 52.69,108.00 " />
		<polygon fill="#ffffff" shape-rendering="crispEdges" points="56.80,113.00 64.80,109.00 62.80,113.00 64.80,117.00 " />
		<polygon fill="#ffffff" shape-rendering="crispEdges" points="116.88,119.00 116.88,107.00 73.90,107.00 73.90,119.00 " />
		<text x="73.90" y="116.50" font-family="Helvetica" font-size="10" fill="#124d94" >ST3GAL2</text>
		<polygon fill="#166e32" shape-rendering="crispEdges" points="120.16,93.00 120.16,103.00 82.70,103.00 82.70,93.00 " />
		<polygon fill="#ffffff" shape-rendering="crispEdges" points="105.43,98.00 97.43,94.00 99.43,98.00 97.43,102.00 " />
		<text x="52.03" y="101.50" font-family="Helvetica" font-size="10" fill="#124d94" >FCSK</text>
		<polygon fill="#166e32" shape-rendering="crispEdges" points="154.28,78.00 154.28,88.00 121.88,88.00 121.88,78.00 " />
		<polygon fill="#ffffff" shape-rendering="crispEdges" points="134.08,83.00 142.08,79.00 140.08,83.00 142.08,87.00 " />
		<polygon fill="#ffffff" shape-rendering="crispEdges" points="186.78,89.00 186.78,77.00 159.28,77.00 159.28,89.00 " />
		<text x="159.28" y="86.50" font-family="Helvetica" font-size="10" fill="#124d94" >COG4</text>
		<polygon fill="#166e32" shape-rendering="crispEdges" points="229.96,63.00 229.96,73.00 155.79,73.00 155.79,63.00 " />
		<polygon fill="#ffffff" shape-rendering="crispEdges" points="196.87,68.00 188.87,64.00 190.87,68.00 188.87,72.00 " />
		<text x="121.19" y="71.50" font-family="Helvetica" font-size="10" fill="#124d94" >SF3B3</text>
		<polygon fill="#166e32" shape-rendering="crispEdges" points="160.11,123.00 160.11,133.00 159.11,133.00 159.11,123.00 " />
		<line x1="159.11" y1="123.00" x2="159.11" y2="133.00" stroke="#166e32" stroke-width="1.00" stroke-linejoin="round" />
		<line x1="159.11" y1="133.00" x2="160.11" y2="133.00" stroke="#166e32" stroke-width="1.00" stroke-linejoin="round" />
		<line x1="160.11" y1="133.00" x2="160.11" y2="123.00" stroke="#166e32" stroke-width="1.00" stroke-linejoin="round" />
		<line x1="159.11" y1="123.00" x2="160.11" y2="123.00" stroke="#166e32" stroke-width="1.00" stroke-linejoin="round" />
		<text x="85.04" y="131.50" font-family="Helvetica" font-size="10" fill="#124d94" >LOC114922327</text>
		<polygon fill="#166e32" shape-rendering="crispEdges" points="281.44,78.00 281.44,88.00 265.60,88.00 265.60,78.00 " />
		<polygon fill="#ffffff" shape-rendering="crispEdges" points="277.52,83.00 269.52,79.00 271.52,83.00 269.52,87.00 " />
		<text x="192.86" y="86.50" font-family="Helvetica" font-size="10" fill="#124d94" >LOC107284161</text>
		<polygon fill="#166e32" shape-rendering="crispEdges" points="451.31,63.00 451.31,73.00 283.00,73.00 283.00,63.00 " />
		<polygon fill="#ffffff" shape-rendering="crispEdges" points="321.15,68.00 313.15,64.00 315.15,68.00 313.15,72.00 " />
		<polygon fill="#e0e0e0" shape-rendering="crispEdges" points="421.15,68.00 413.15,64.00 415.15,68.00 413.15,72.00 " />
		<text x="246.68" y="71.50" font-family="Helvetica" font-size="10" fill="#124d94" >CNOT1</text>
		<polygon fill="#166e32" shape-rendering="crispEdges" points="474.82,78.00 474.82,88.00 453.75,88.00 453.75,78.00 " />
		<polygon fill="#ffffff" shape-rendering="crispEdges" points="460.28,83.00 468.28,79.00 466.28,83.00 468.28,87.00 " />
		<polygon fill="#ffffff" shape-rendering="crispEdges" points="511.13,89.00 511.13,77.00 479.82,77.00 479.82,89.00 " />
		<text x="479.82" y="86.50" font-family="Helvetica" font-size="10" fill="#124d94" >SETD6</text>
		<polygon fill="#166e32" shape-rendering="crispEdges" points="536.74,93.00 536.74,103.00 479.27,103.00 479.27,93.00 " />
		<polygon fill="#ffffff" shape-rendering="crispEdges" points="504.00,98.00 512.00,94.00 510.00,98.00 512.00,102.00 " />
		<polygon fill="#ffffff" shape-rendering="crispEdges" points="575.61,104.00 575.61,92.00 541.74,92.00 541.74,104.00 " />
		<text x="541.74" y="101.50" font-family="Helvetica" font-size="10" fill="#124d94" >NDRG4</text>
		<polygon fill="#166e32" shape-rendering="crispEdges" points="555.05,78.00 555.05,88.00 544.01,88.00 544.01,78.00 " />
		<polygon fill="#ffffff" shape-rendering="crispEdges" points="589.13,89.00 589.13,77.00 560.05,77.00 560.05,89.00 " />
		<text x="560.05" y="86.50" font-family="Helvetica" font-size="10" fill="#124d94" >GINS3</text>
		<polygon fill="#166e32" shape-rendering="crispEdges" points="841.78,63.00 841.78,73.00 559.60,73.00 559.60,63.00 " />
		<polygon fill="#ffffff" shape-rendering="crispEdges" points="604.69,68.00 596.69,64.00 598.69,68.00 596.69,72.00 " />
		<polygon fill="#e0e0e0" shape-rendering="crispEdges" points="704.69,68.00 696.69,64.00 698.69,68.00 696.69,72.00 " />
		<polygon fill="#c1c1c1" shape-rendering="crispEdges" points="804.69,68.00 796.69,64.00 798.69,68.00 796.69,72.00 " />
		<text x="525.09" y="71.50" font-family="Helvetica" font-size="10" fill="#124d94" >HYDIN</text>
		<polygon fill="#166e32" shape-rendering="crispEdges" points="915.75,78.00 915.75,88.00 842.42,88.00 842.42,78.00 " />
		<polygon fill="#ffffff" shape-rendering="crispEdges" points="883.08,83.00 875.08,79.00 877.08,83.00 875.08,87.00 " />
		<text x="806.39" y="86.50" font-family="Helvetica" font-size="10" fill="#124d94" >VAC14</text>
		<polygon fill="#166e32" shape-rendering="crispEdges" points="990.23,63.00 990.23,73.00 918.22,73.00 918.22,63.00 " />
		<polygon fill="#ffffff" shape-rendering="crispEdges" points="958.23,68.00 950.23,64.00 952.23,68.00 950.23,72.00 " />
		<text x="881.08" y="71.50" font-family="Helvetica" font-size="10" fill="#124d94" >MTSS2</text>
		<polygon fill="#e6e6e6" fill-opacity="0.71" shape-rendering="crispEdges" points="994.00,44.00 994.00,58.00 0.00,58.00 0.00,44.00 " clip-path="url('#clipping-rect2')" />
		<text x="0.00" y="54.00" font-family="Helvetica" font-size="12" fill="#333333" >Genes, NCBI Protobothrops mucrosquamatus Annotation Release 101, 2019-05-29</text>
		<polygon fill="#e5e5e5" shape-rendering="crispEdges" points="994.00,13.00 994.00,-1.00 0.00,-1.00 0.00,13.00 " />
		<text x="0.00" y="10.00" font-family="Helvetica Bold" font-size="12" text-anchor="start" fill="#000000" >NW_015386451.1:208103..629394 Protobothrops mucrosquamatus isolate PMUCROS unplaced genomic scaffold, P.Mucros_1.0 scaffold74, whole genome shotgun sequence</text>
	</g>
</svg>
