<?xml version="1.0" standalone="no" ?>
<!DOCTYPE svg PUBLIC "-//W3C//DTD SVG 1.1//EN" "http://www.w3.org/Graphics/SVG/1.1/DTD/svg11.dtd">
<svg width="994px" height="138px" xmlns="http://www.w3.org/2000/svg" version="1.1" viewBox="0 0 994 138" >
	<style type="text/css" > <![CDATA[
		@import url("https://www.ncbi.nlm.nih.gov/projects/sviewer/css/svg_fonts.css");
	]]>
	</style>
	<desc >Generated by NCBI Genome Workbench http://www.ncbi.nlm.nih.gov/tools/gbench/</desc>
	<defs >
		<clipPath id="clipping-rect1" >
			<rect x="0" y="14" width="994" height="18" />
		</clipPath>
		<clipPath id="clipping-rect2" >
			<rect x="0" y="32" width="994" height="106" />
		</clipPath>
	</defs>
	<g >
		<polygon fill="#ffffff" shape-rendering="crispEdges" points="994.00,31.00 994.00,13.00 0.00,13.00 0.00,31.00 " />
		<line x1="0.00" y1="28.88" x2="994.00" y2="28.88" stroke="#7f7f7f" stroke-width="1.00" clip-path="url('#clipping-rect1')" />
		<line x1="4.46" y1="28.88" x2="4.46" y2="25.71" stroke="#7f7f7f" stroke-width="1.00" clip-path="url('#clipping-rect1')" />
		<line x1="10.31" y1="28.88" x2="10.31" y2="26.76" stroke="#7f7f7f" stroke-width="1.00" clip-path="url('#clipping-rect1')" />
		<line x1="16.17" y1="28.88" x2="16.17" y2="25.71" stroke="#7f7f7f" stroke-width="1.00" clip-path="url('#clipping-rect1')" />
		<line x1="22.02" y1="28.88" x2="22.02" y2="26.76" stroke="#7f7f7f" stroke-width="1.00" clip-path="url('#clipping-rect1')" />
		<line x1="27.87" y1="28.88" x2="27.87" y2="25.71" stroke="#7f7f7f" stroke-width="1.00" clip-path="url('#clipping-rect1')" />
		<line x1="33.72" y1="28.88" x2="33.72" y2="26.76" stroke="#7f7f7f" stroke-width="1.00" clip-path="url('#clipping-rect1')" />
		<line x1="39.58" y1="28.88" x2="39.58" y2="25.71" stroke="#7f7f7f" stroke-width="1.00" clip-path="url('#clipping-rect1')" />
		<line x1="45.43" y1="28.88" x2="45.43" y2="26.76" stroke="#7f7f7f" stroke-width="1.00" clip-path="url('#clipping-rect1')" />
		<line x1="51.28" y1="28.88" x2="51.28" y2="25.71" stroke="#7f7f7f" stroke-width="1.00" clip-path="url('#clipping-rect1')" />
		<line x1="57.14" y1="28.88" x2="57.14" y2="26.76" stroke="#7f7f7f" stroke-width="1.00" clip-path="url('#clipping-rect1')" />
		<line x1="62.99" y1="28.88" x2="62.99" y2="25.71" stroke="#7f7f7f" stroke-width="1.00" clip-path="url('#clipping-rect1')" />
		<line x1="68.84" y1="28.88" x2="68.84" y2="26.76" stroke="#7f7f7f" stroke-width="1.00" clip-path="url('#clipping-rect1')" />
		<line x1="74.69" y1="28.88" x2="74.69" y2="25.71" stroke="#7f7f7f" stroke-width="1.00" clip-path="url('#clipping-rect1')" />
		<line x1="80.55" y1="28.88" x2="80.55" y2="26.76" stroke="#7f7f7f" stroke-width="1.00" clip-path="url('#clipping-rect1')" />
		<line x1="86.40" y1="28.88" x2="86.40" y2="25.71" stroke="#7f7f7f" stroke-width="1.00" clip-path="url('#clipping-rect1')" />
		<line x1="92.25" y1="28.88" x2="92.25" y2="26.76" stroke="#7f7f7f" stroke-width="1.00" clip-path="url('#clipping-rect1')" />
		<line x1="98.11" y1="28.88" x2="98.11" y2="25.71" stroke="#7f7f7f" stroke-width="1.00" clip-path="url('#clipping-rect1')" />
		<line x1="103.96" y1="28.88" x2="103.96" y2="26.76" stroke="#7f7f7f" stroke-width="1.00" clip-path="url('#clipping-rect1')" />
		<line x1="109.81" y1="28.88" x2="109.81" y2="25.71" stroke="#7f7f7f" stroke-width="1.00" clip-path="url('#clipping-rect1')" />
		<line x1="115.66" y1="28.88" x2="115.66" y2="26.76" stroke="#7f7f7f" stroke-width="1.00" clip-path="url('#clipping-rect1')" />
		<line x1="121.52" y1="28.88" x2="121.52" y2="25.71" stroke="#7f7f7f" stroke-width="1.00" clip-path="url('#clipping-rect1')" />
		<line x1="127.37" y1="28.88" x2="127.37" y2="26.76" stroke="#7f7f7f" stroke-width="1.00" clip-path="url('#clipping-rect1')" />
		<line x1="133.22" y1="28.88" x2="133.22" y2="25.71" stroke="#7f7f7f" stroke-width="1.00" clip-path="url('#clipping-rect1')" />
		<line x1="139.08" y1="28.88" x2="139.08" y2="26.76" stroke="#7f7f7f" stroke-width="1.00" clip-path="url('#clipping-rect1')" />
		<line x1="144.93" y1="28.88" x2="144.93" y2="25.71" stroke="#7f7f7f" stroke-width="1.00" clip-path="url('#clipping-rect1')" />
		<line x1="150.78" y1="28.88" x2="150.78" y2="26.76" stroke="#7f7f7f" stroke-width="1.00" clip-path="url('#clipping-rect1')" />
		<line x1="156.63" y1="28.88" x2="156.63" y2="25.71" stroke="#7f7f7f" stroke-width="1.00" clip-path="url('#clipping-rect1')" />
		<line x1="162.49" y1="28.88" x2="162.49" y2="26.76" stroke="#7f7f7f" stroke-width="1.00" clip-path="url('#clipping-rect1')" />
		<line x1="168.34" y1="28.88" x2="168.34" y2="25.71" stroke="#7f7f7f" stroke-width="1.00" clip-path="url('#clipping-rect1')" />
		<line x1="174.19" y1="28.88" x2="174.19" y2="26.76" stroke="#7f7f7f" stroke-width="1.00" clip-path="url('#clipping-rect1')" />
		<line x1="180.05" y1="28.88" x2="180.05" y2="25.71" stroke="#7f7f7f" stroke-width="1.00" clip-path="url('#clipping-rect1')" />
		<line x1="185.90" y1="28.88" x2="185.90" y2="26.76" stroke="#7f7f7f" stroke-width="1.00" clip-path="url('#clipping-rect1')" />
		<line x1="191.75" y1="28.88" x2="191.75" y2="25.71" stroke="#7f7f7f" stroke-width="1.00" clip-path="url('#clipping-rect1')" />
		<line x1="197.60" y1="28.88" x2="197.60" y2="26.76" stroke="#7f7f7f" stroke-width="1.00" clip-path="url('#clipping-rect1')" />
		<line x1="203.46" y1="28.88" x2="203.46" y2="25.71" stroke="#7f7f7f" stroke-width="1.00" clip-path="url('#clipping-rect1')" />
		<line x1="209.31" y1="28.88" x2="209.31" y2="26.76" stroke="#7f7f7f" stroke-width="1.00" clip-path="url('#clipping-rect1')" />
		<line x1="215.16" y1="28.88" x2="215.16" y2="25.71" stroke="#7f7f7f" stroke-width="1.00" clip-path="url('#clipping-rect1')" />
		<line x1="221.01" y1="28.88" x2="221.01" y2="26.76" stroke="#7f7f7f" stroke-width="1.00" clip-path="url('#clipping-rect1')" />
		<line x1="226.87" y1="28.88" x2="226.87" y2="25.71" stroke="#7f7f7f" stroke-width="1.00" clip-path="url('#clipping-rect1')" />
		<line x1="232.72" y1="28.88" x2="232.72" y2="26.76" stroke="#7f7f7f" stroke-width="1.00" clip-path="url('#clipping-rect1')" />
		<line x1="238.57" y1="28.88" x2="238.57" y2="25.71" stroke="#7f7f7f" stroke-width="1.00" clip-path="url('#clipping-rect1')" />
		<line x1="244.43" y1="28.88" x2="244.43" y2="26.76" stroke="#7f7f7f" stroke-width="1.00" clip-path="url('#clipping-rect1')" />
		<line x1="250.28" y1="28.88" x2="250.28" y2="25.71" stroke="#7f7f7f" stroke-width="1.00" clip-path="url('#clipping-rect1')" />
		<line x1="256.13" y1="28.88" x2="256.13" y2="26.76" stroke="#7f7f7f" stroke-width="1.00" clip-path="url('#clipping-rect1')" />
		<line x1="261.98" y1="28.88" x2="261.98" y2="25.71" stroke="#7f7f7f" stroke-width="1.00" clip-path="url('#clipping-rect1')" />
		<line x1="267.84" y1="28.88" x2="267.84" y2="26.76" stroke="#7f7f7f" stroke-width="1.00" clip-path="url('#clipping-rect1')" />
		<line x1="273.69" y1="28.88" x2="273.69" y2="25.71" stroke="#7f7f7f" stroke-width="1.00" clip-path="url('#clipping-rect1')" />
		<line x1="279.54" y1="28.88" x2="279.54" y2="26.76" stroke="#7f7f7f" stroke-width="1.00" clip-path="url('#clipping-rect1')" />
		<line x1="285.40" y1="28.88" x2="285.40" y2="25.71" stroke="#7f7f7f" stroke-width="1.00" clip-path="url('#clipping-rect1')" />
		<line x1="291.25" y1="28.88" x2="291.25" y2="26.76" stroke="#7f7f7f" stroke-width="1.00" clip-path="url('#clipping-rect1')" />
		<line x1="297.10" y1="28.88" x2="297.10" y2="25.71" stroke="#7f7f7f" stroke-width="1.00" clip-path="url('#clipping-rect1')" />
		<line x1="302.95" y1="28.88" x2="302.95" y2="26.76" stroke="#7f7f7f" stroke-width="1.00" clip-path="url('#clipping-rect1')" />
		<line x1="308.81" y1="28.88" x2="308.81" y2="25.71" stroke="#7f7f7f" stroke-width="1.00" clip-path="url('#clipping-rect1')" />
		<line x1="314.66" y1="28.88" x2="314.66" y2="26.76" stroke="#7f7f7f" stroke-width="1.00" clip-path="url('#clipping-rect1')" />
		<line x1="320.51" y1="28.88" x2="320.51" y2="25.71" stroke="#7f7f7f" stroke-width="1.00" clip-path="url('#clipping-rect1')" />
		<line x1="326.37" y1="28.88" x2="326.37" y2="26.76" stroke="#7f7f7f" stroke-width="1.00" clip-path="url('#clipping-rect1')" />
		<line x1="332.22" y1="28.88" x2="332.22" y2="25.71" stroke="#7f7f7f" stroke-width="1.00" clip-path="url('#clipping-rect1')" />
		<line x1="338.07" y1="28.88" x2="338.07" y2="26.76" stroke="#7f7f7f" stroke-width="1.00" clip-path="url('#clipping-rect1')" />
		<line x1="343.92" y1="28.88" x2="343.92" y2="25.71" stroke="#7f7f7f" stroke-width="1.00" clip-path="url('#clipping-rect1')" />
		<line x1="349.78" y1="28.88" x2="349.78" y2="26.76" stroke="#7f7f7f" stroke-width="1.00" clip-path="url('#clipping-rect1')" />
		<line x1="355.63" y1="28.88" x2="355.63" y2="25.71" stroke="#7f7f7f" stroke-width="1.00" clip-path="url('#clipping-rect1')" />
		<line x1="361.48" y1="28.88" x2="361.48" y2="26.76" stroke="#7f7f7f" stroke-width="1.00" clip-path="url('#clipping-rect1')" />
		<line x1="367.34" y1="28.88" x2="367.34" y2="25.71" stroke="#7f7f7f" stroke-width="1.00" clip-path="url('#clipping-rect1')" />
		<line x1="373.19" y1="28.88" x2="373.19" y2="26.76" stroke="#7f7f7f" stroke-width="1.00" clip-path="url('#clipping-rect1')" />
		<line x1="379.04" y1="28.88" x2="379.04" y2="25.71" stroke="#7f7f7f" stroke-width="1.00" clip-path="url('#clipping-rect1')" />
		<line x1="384.89" y1="28.88" x2="384.89" y2="26.76" stroke="#7f7f7f" stroke-width="1.00" clip-path="url('#clipping-rect1')" />
		<line x1="390.75" y1="28.88" x2="390.75" y2="25.71" stroke="#7f7f7f" stroke-width="1.00" clip-path="url('#clipping-rect1')" />
		<line x1="396.60" y1="28.88" x2="396.60" y2="26.76" stroke="#7f7f7f" stroke-width="1.00" clip-path="url('#clipping-rect1')" />
		<line x1="402.45" y1="28.88" x2="402.45" y2="25.71" stroke="#7f7f7f" stroke-width="1.00" clip-path="url('#clipping-rect1')" />
		<line x1="408.31" y1="28.88" x2="408.31" y2="26.76" stroke="#7f7f7f" stroke-width="1.00" clip-path="url('#clipping-rect1')" />
		<line x1="414.16" y1="28.88" x2="414.16" y2="25.71" stroke="#7f7f7f" stroke-width="1.00" clip-path="url('#clipping-rect1')" />
		<line x1="420.01" y1="28.88" x2="420.01" y2="26.76" stroke="#7f7f7f" stroke-width="1.00" clip-path="url('#clipping-rect1')" />
		<line x1="425.86" y1="28.88" x2="425.86" y2="25.71" stroke="#7f7f7f" stroke-width="1.00" clip-path="url('#clipping-rect1')" />
		<line x1="431.72" y1="28.88" x2="431.72" y2="26.76" stroke="#7f7f7f" stroke-width="1.00" clip-path="url('#clipping-rect1')" />
		<line x1="437.57" y1="28.88" x2="437.57" y2="25.71" stroke="#7f7f7f" stroke-width="1.00" clip-path="url('#clipping-rect1')" />
		<line x1="443.42" y1="28.88" x2="443.42" y2="26.76" stroke="#7f7f7f" stroke-width="1.00" clip-path="url('#clipping-rect1')" />
		<line x1="449.27" y1="28.88" x2="449.27" y2="25.71" stroke="#7f7f7f" stroke-width="1.00" clip-path="url('#clipping-rect1')" />
		<line x1="455.13" y1="28.88" x2="455.13" y2="26.76" stroke="#7f7f7f" stroke-width="1.00" clip-path="url('#clipping-rect1')" />
		<line x1="460.98" y1="28.88" x2="460.98" y2="25.71" stroke="#7f7f7f" stroke-width="1.00" clip-path="url('#clipping-rect1')" />
		<line x1="466.83" y1="28.88" x2="466.83" y2="26.76" stroke="#7f7f7f" stroke-width="1.00" clip-path="url('#clipping-rect1')" />
		<line x1="472.69" y1="28.88" x2="472.69" y2="25.71" stroke="#7f7f7f" stroke-width="1.00" clip-path="url('#clipping-rect1')" />
		<line x1="478.54" y1="28.88" x2="478.54" y2="26.76" stroke="#7f7f7f" stroke-width="1.00" clip-path="url('#clipping-rect1')" />
		<line x1="484.39" y1="28.88" x2="484.39" y2="25.71" stroke="#7f7f7f" stroke-width="1.00" clip-path="url('#clipping-rect1')" />
		<line x1="490.24" y1="28.88" x2="490.24" y2="26.76" stroke="#7f7f7f" stroke-width="1.00" clip-path="url('#clipping-rect1')" />
		<line x1="496.10" y1="28.88" x2="496.10" y2="25.71" stroke="#7f7f7f" stroke-width="1.00" clip-path="url('#clipping-rect1')" />
		<line x1="501.95" y1="28.88" x2="501.95" y2="26.76" stroke="#7f7f7f" stroke-width="1.00" clip-path="url('#clipping-rect1')" />
		<line x1="507.80" y1="28.88" x2="507.80" y2="25.71" stroke="#7f7f7f" stroke-width="1.00" clip-path="url('#clipping-rect1')" />
		<line x1="513.66" y1="28.88" x2="513.66" y2="26.76" stroke="#7f7f7f" stroke-width="1.00" clip-path="url('#clipping-rect1')" />
		<line x1="519.51" y1="28.88" x2="519.51" y2="25.71" stroke="#7f7f7f" stroke-width="1.00" clip-path="url('#clipping-rect1')" />
		<line x1="525.36" y1="28.88" x2="525.36" y2="26.76" stroke="#7f7f7f" stroke-width="1.00" clip-path="url('#clipping-rect1')" />
		<line x1="531.21" y1="28.88" x2="531.21" y2="25.71" stroke="#7f7f7f" stroke-width="1.00" clip-path="url('#clipping-rect1')" />
		<line x1="537.07" y1="28.88" x2="537.07" y2="26.76" stroke="#7f7f7f" stroke-width="1.00" clip-path="url('#clipping-rect1')" />
		<line x1="542.92" y1="28.88" x2="542.92" y2="25.71" stroke="#7f7f7f" stroke-width="1.00" clip-path="url('#clipping-rect1')" />
		<line x1="548.77" y1="28.88" x2="548.77" y2="26.76" stroke="#7f7f7f" stroke-width="1.00" clip-path="url('#clipping-rect1')" />
		<line x1="554.63" y1="28.88" x2="554.63" y2="25.71" stroke="#7f7f7f" stroke-width="1.00" clip-path="url('#clipping-rect1')" />
		<line x1="560.48" y1="28.88" x2="560.48" y2="26.76" stroke="#7f7f7f" stroke-width="1.00" clip-path="url('#clipping-rect1')" />
		<line x1="566.33" y1="28.88" x2="566.33" y2="25.71" stroke="#7f7f7f" stroke-width="1.00" clip-path="url('#clipping-rect1')" />
		<line x1="572.18" y1="28.88" x2="572.18" y2="26.76" stroke="#7f7f7f" stroke-width="1.00" clip-path="url('#clipping-rect1')" />
		<line x1="578.04" y1="28.88" x2="578.04" y2="25.71" stroke="#7f7f7f" stroke-width="1.00" clip-path="url('#clipping-rect1')" />
		<line x1="583.89" y1="28.88" x2="583.89" y2="26.76" stroke="#7f7f7f" stroke-width="1.00" clip-path="url('#clipping-rect1')" />
		<line x1="589.74" y1="28.88" x2="589.74" y2="25.71" stroke="#7f7f7f" stroke-width="1.00" clip-path="url('#clipping-rect1')" />
		<line x1="595.60" y1="28.88" x2="595.60" y2="26.76" stroke="#7f7f7f" stroke-width="1.00" clip-path="url('#clipping-rect1')" />
		<line x1="601.45" y1="28.88" x2="601.45" y2="25.71" stroke="#7f7f7f" stroke-width="1.00" clip-path="url('#clipping-rect1')" />
		<line x1="607.30" y1="28.88" x2="607.30" y2="26.76" stroke="#7f7f7f" stroke-width="1.00" clip-path="url('#clipping-rect1')" />
		<line x1="613.15" y1="28.88" x2="613.15" y2="25.71" stroke="#7f7f7f" stroke-width="1.00" clip-path="url('#clipping-rect1')" />
		<line x1="619.01" y1="28.88" x2="619.01" y2="26.76" stroke="#7f7f7f" stroke-width="1.00" clip-path="url('#clipping-rect1')" />
		<line x1="624.86" y1="28.88" x2="624.86" y2="25.71" stroke="#7f7f7f" stroke-width="1.00" clip-path="url('#clipping-rect1')" />
		<line x1="630.71" y1="28.88" x2="630.71" y2="26.76" stroke="#7f7f7f" stroke-width="1.00" clip-path="url('#clipping-rect1')" />
		<line x1="636.57" y1="28.88" x2="636.57" y2="25.71" stroke="#7f7f7f" stroke-width="1.00" clip-path="url('#clipping-rect1')" />
		<line x1="642.42" y1="28.88" x2="642.42" y2="26.76" stroke="#7f7f7f" stroke-width="1.00" clip-path="url('#clipping-rect1')" />
		<line x1="648.27" y1="28.88" x2="648.27" y2="25.71" stroke="#7f7f7f" stroke-width="1.00" clip-path="url('#clipping-rect1')" />
		<line x1="654.12" y1="28.88" x2="654.12" y2="26.76" stroke="#7f7f7f" stroke-width="1.00" clip-path="url('#clipping-rect1')" />
		<line x1="659.98" y1="28.88" x2="659.98" y2="25.71" stroke="#7f7f7f" stroke-width="1.00" clip-path="url('#clipping-rect1')" />
		<line x1="665.83" y1="28.88" x2="665.83" y2="26.76" stroke="#7f7f7f" stroke-width="1.00" clip-path="url('#clipping-rect1')" />
		<line x1="671.68" y1="28.88" x2="671.68" y2="25.71" stroke="#7f7f7f" stroke-width="1.00" clip-path="url('#clipping-rect1')" />
		<line x1="677.53" y1="28.88" x2="677.53" y2="26.76" stroke="#7f7f7f" stroke-width="1.00" clip-path="url('#clipping-rect1')" />
		<line x1="683.39" y1="28.88" x2="683.39" y2="25.71" stroke="#7f7f7f" stroke-width="1.00" clip-path="url('#clipping-rect1')" />
		<line x1="689.24" y1="28.88" x2="689.24" y2="26.76" stroke="#7f7f7f" stroke-width="1.00" clip-path="url('#clipping-rect1')" />
		<line x1="695.09" y1="28.88" x2="695.09" y2="25.71" stroke="#7f7f7f" stroke-width="1.00" clip-path="url('#clipping-rect1')" />
		<line x1="700.95" y1="28.88" x2="700.95" y2="26.76" stroke="#7f7f7f" stroke-width="1.00" clip-path="url('#clipping-rect1')" />
		<line x1="706.80" y1="28.88" x2="706.80" y2="25.71" stroke="#7f7f7f" stroke-width="1.00" clip-path="url('#clipping-rect1')" />
		<line x1="712.65" y1="28.88" x2="712.65" y2="26.76" stroke="#7f7f7f" stroke-width="1.00" clip-path="url('#clipping-rect1')" />
		<line x1="718.50" y1="28.88" x2="718.50" y2="25.71" stroke="#7f7f7f" stroke-width="1.00" clip-path="url('#clipping-rect1')" />
		<line x1="724.36" y1="28.88" x2="724.36" y2="26.76" stroke="#7f7f7f" stroke-width="1.00" clip-path="url('#clipping-rect1')" />
		<line x1="730.21" y1="28.88" x2="730.21" y2="25.71" stroke="#7f7f7f" stroke-width="1.00" clip-path="url('#clipping-rect1')" />
		<line x1="736.06" y1="28.88" x2="736.06" y2="26.76" stroke="#7f7f7f" stroke-width="1.00" clip-path="url('#clipping-rect1')" />
		<line x1="741.92" y1="28.88" x2="741.92" y2="25.71" stroke="#7f7f7f" stroke-width="1.00" clip-path="url('#clipping-rect1')" />
		<line x1="747.77" y1="28.88" x2="747.77" y2="26.76" stroke="#7f7f7f" stroke-width="1.00" clip-path="url('#clipping-rect1')" />
		<line x1="753.62" y1="28.88" x2="753.62" y2="25.71" stroke="#7f7f7f" stroke-width="1.00" clip-path="url('#clipping-rect1')" />
		<line x1="759.47" y1="28.88" x2="759.47" y2="26.76" stroke="#7f7f7f" stroke-width="1.00" clip-path="url('#clipping-rect1')" />
		<line x1="765.33" y1="28.88" x2="765.33" y2="25.71" stroke="#7f7f7f" stroke-width="1.00" clip-path="url('#clipping-rect1')" />
		<line x1="771.18" y1="28.88" x2="771.18" y2="26.76" stroke="#7f7f7f" stroke-width="1.00" clip-path="url('#clipping-rect1')" />
		<line x1="777.03" y1="28.88" x2="777.03" y2="25.71" stroke="#7f7f7f" stroke-width="1.00" clip-path="url('#clipping-rect1')" />
		<line x1="782.89" y1="28.88" x2="782.89" y2="26.76" stroke="#7f7f7f" stroke-width="1.00" clip-path="url('#clipping-rect1')" />
		<line x1="788.74" y1="28.88" x2="788.74" y2="25.71" stroke="#7f7f7f" stroke-width="1.00" clip-path="url('#clipping-rect1')" />
		<line x1="794.59" y1="28.88" x2="794.59" y2="26.76" stroke="#7f7f7f" stroke-width="1.00" clip-path="url('#clipping-rect1')" />
		<line x1="800.44" y1="28.88" x2="800.44" y2="25.71" stroke="#7f7f7f" stroke-width="1.00" clip-path="url('#clipping-rect1')" />
		<line x1="806.30" y1="28.88" x2="806.30" y2="26.76" stroke="#7f7f7f" stroke-width="1.00" clip-path="url('#clipping-rect1')" />
		<line x1="812.15" y1="28.88" x2="812.15" y2="25.71" stroke="#7f7f7f" stroke-width="1.00" clip-path="url('#clipping-rect1')" />
		<line x1="818.00" y1="28.88" x2="818.00" y2="26.76" stroke="#7f7f7f" stroke-width="1.00" clip-path="url('#clipping-rect1')" />
		<line x1="823.86" y1="28.88" x2="823.86" y2="25.71" stroke="#7f7f7f" stroke-width="1.00" clip-path="url('#clipping-rect1')" />
		<line x1="829.71" y1="28.88" x2="829.71" y2="26.76" stroke="#7f7f7f" stroke-width="1.00" clip-path="url('#clipping-rect1')" />
		<line x1="835.56" y1="28.88" x2="835.56" y2="25.71" stroke="#7f7f7f" stroke-width="1.00" clip-path="url('#clipping-rect1')" />
		<line x1="841.41" y1="28.88" x2="841.41" y2="26.76" stroke="#7f7f7f" stroke-width="1.00" clip-path="url('#clipping-rect1')" />
		<line x1="847.27" y1="28.88" x2="847.27" y2="25.71" stroke="#7f7f7f" stroke-width="1.00" clip-path="url('#clipping-rect1')" />
		<line x1="853.12" y1="28.88" x2="853.12" y2="26.76" stroke="#7f7f7f" stroke-width="1.00" clip-path="url('#clipping-rect1')" />
		<line x1="858.97" y1="28.88" x2="858.97" y2="25.71" stroke="#7f7f7f" stroke-width="1.00" clip-path="url('#clipping-rect1')" />
		<line x1="864.83" y1="28.88" x2="864.83" y2="26.76" stroke="#7f7f7f" stroke-width="1.00" clip-path="url('#clipping-rect1')" />
		<line x1="870.68" y1="28.88" x2="870.68" y2="25.71" stroke="#7f7f7f" stroke-width="1.00" clip-path="url('#clipping-rect1')" />
		<line x1="876.53" y1="28.88" x2="876.53" y2="26.76" stroke="#7f7f7f" stroke-width="1.00" clip-path="url('#clipping-rect1')" />
		<line x1="882.38" y1="28.88" x2="882.38" y2="25.71" stroke="#7f7f7f" stroke-width="1.00" clip-path="url('#clipping-rect1')" />
		<line x1="888.24" y1="28.88" x2="888.24" y2="26.76" stroke="#7f7f7f" stroke-width="1.00" clip-path="url('#clipping-rect1')" />
		<line x1="894.09" y1="28.88" x2="894.09" y2="25.71" stroke="#7f7f7f" stroke-width="1.00" clip-path="url('#clipping-rect1')" />
		<line x1="899.94" y1="28.88" x2="899.94" y2="26.76" stroke="#7f7f7f" stroke-width="1.00" clip-path="url('#clipping-rect1')" />
		<line x1="905.80" y1="28.88" x2="905.80" y2="25.71" stroke="#7f7f7f" stroke-width="1.00" clip-path="url('#clipping-rect1')" />
		<line x1="911.65" y1="28.88" x2="911.65" y2="26.76" stroke="#7f7f7f" stroke-width="1.00" clip-path="url('#clipping-rect1')" />
		<line x1="917.50" y1="28.88" x2="917.50" y2="25.71" stroke="#7f7f7f" stroke-width="1.00" clip-path="url('#clipping-rect1')" />
		<line x1="923.35" y1="28.88" x2="923.35" y2="26.76" stroke="#7f7f7f" stroke-width="1.00" clip-path="url('#clipping-rect1')" />
		<line x1="929.21" y1="28.88" x2="929.21" y2="25.71" stroke="#7f7f7f" stroke-width="1.00" clip-path="url('#clipping-rect1')" />
		<line x1="935.06" y1="28.88" x2="935.06" y2="26.76" stroke="#7f7f7f" stroke-width="1.00" clip-path="url('#clipping-rect1')" />
		<line x1="940.91" y1="28.88" x2="940.91" y2="25.71" stroke="#7f7f7f" stroke-width="1.00" clip-path="url('#clipping-rect1')" />
		<line x1="946.76" y1="28.88" x2="946.76" y2="26.76" stroke="#7f7f7f" stroke-width="1.00" clip-path="url('#clipping-rect1')" />
		<line x1="952.62" y1="28.88" x2="952.62" y2="25.71" stroke="#7f7f7f" stroke-width="1.00" clip-path="url('#clipping-rect1')" />
		<line x1="958.47" y1="28.88" x2="958.47" y2="26.76" stroke="#7f7f7f" stroke-width="1.00" clip-path="url('#clipping-rect1')" />
		<line x1="964.32" y1="28.88" x2="964.32" y2="25.71" stroke="#7f7f7f" stroke-width="1.00" clip-path="url('#clipping-rect1')" />
		<line x1="970.18" y1="28.88" x2="970.18" y2="26.76" stroke="#7f7f7f" stroke-width="1.00" clip-path="url('#clipping-rect1')" />
		<line x1="976.03" y1="28.88" x2="976.03" y2="25.71" stroke="#7f7f7f" stroke-width="1.00" clip-path="url('#clipping-rect1')" />
		<line x1="981.88" y1="28.88" x2="981.88" y2="26.76" stroke="#7f7f7f" stroke-width="1.00" clip-path="url('#clipping-rect1')" />
		<line x1="987.73" y1="28.88" x2="987.73" y2="25.71" stroke="#7f7f7f" stroke-width="1.00" clip-path="url('#clipping-rect1')" />
		<line x1="993.59" y1="28.88" x2="993.59" y2="26.76" stroke="#7f7f7f" stroke-width="1.00" clip-path="url('#clipping-rect1')" />
		<text x="950.31" y="23.59" font-family="Helvetica" font-size="10" fill="#333333" clip-path="url('#clipping-rect1')" >5,705,352</text>
		<line x1="994.00" y1="31.00" x2="994.00" y2="15.12" stroke="#7f7f7f" stroke-width="1.00" clip-path="url('#clipping-rect1')" />
		<line x1="929.21" y1="31.00" x2="929.21" y2="15.12" stroke="#7f7f7f" stroke-width="1.00" clip-path="url('#clipping-rect1')" />
		<text x="872.68" y="23.59" font-family="Helvetica" font-size="10" fill="#333333" clip-path="url('#clipping-rect1')" >5,600 K</text>
		<line x1="870.68" y1="31.00" x2="870.68" y2="15.12" stroke="#7f7f7f" stroke-width="1.00" clip-path="url('#clipping-rect1')" />
		<text x="814.15" y="23.59" font-family="Helvetica" font-size="10" fill="#333333" clip-path="url('#clipping-rect1')" >5,550 K</text>
		<line x1="812.15" y1="31.00" x2="812.15" y2="15.12" stroke="#7f7f7f" stroke-width="1.00" clip-path="url('#clipping-rect1')" />
		<text x="755.62" y="23.59" font-family="Helvetica" font-size="10" fill="#333333" clip-path="url('#clipping-rect1')" >5,500 K</text>
		<line x1="753.62" y1="31.00" x2="753.62" y2="15.12" stroke="#7f7f7f" stroke-width="1.00" clip-path="url('#clipping-rect1')" />
		<text x="697.09" y="23.59" font-family="Helvetica" font-size="10" fill="#333333" clip-path="url('#clipping-rect1')" >5,450 K</text>
		<line x1="695.09" y1="31.00" x2="695.09" y2="15.12" stroke="#7f7f7f" stroke-width="1.00" clip-path="url('#clipping-rect1')" />
		<text x="638.57" y="23.59" font-family="Helvetica" font-size="10" fill="#333333" clip-path="url('#clipping-rect1')" >5,400 K</text>
		<line x1="636.57" y1="31.00" x2="636.57" y2="15.12" stroke="#7f7f7f" stroke-width="1.00" clip-path="url('#clipping-rect1')" />
		<text x="580.04" y="23.59" font-family="Helvetica" font-size="10" fill="#333333" clip-path="url('#clipping-rect1')" >5,350 K</text>
		<line x1="578.04" y1="31.00" x2="578.04" y2="15.12" stroke="#7f7f7f" stroke-width="1.00" clip-path="url('#clipping-rect1')" />
		<text x="521.51" y="23.59" font-family="Helvetica" font-size="10" fill="#333333" clip-path="url('#clipping-rect1')" >5,300 K</text>
		<line x1="519.51" y1="31.00" x2="519.51" y2="15.12" stroke="#7f7f7f" stroke-width="1.00" clip-path="url('#clipping-rect1')" />
		<text x="462.98" y="23.59" font-family="Helvetica" font-size="10" fill="#333333" clip-path="url('#clipping-rect1')" >5,250 K</text>
		<line x1="460.98" y1="31.00" x2="460.98" y2="15.12" stroke="#7f7f7f" stroke-width="1.00" clip-path="url('#clipping-rect1')" />
		<text x="404.45" y="23.59" font-family="Helvetica" font-size="10" fill="#333333" clip-path="url('#clipping-rect1')" >5,200 K</text>
		<line x1="402.45" y1="31.00" x2="402.45" y2="15.12" stroke="#7f7f7f" stroke-width="1.00" clip-path="url('#clipping-rect1')" />
		<text x="345.92" y="23.59" font-family="Helvetica" font-size="10" fill="#333333" clip-path="url('#clipping-rect1')" >5,150 K</text>
		<line x1="343.92" y1="31.00" x2="343.92" y2="15.12" stroke="#7f7f7f" stroke-width="1.00" clip-path="url('#clipping-rect1')" />
		<text x="287.40" y="23.59" font-family="Helvetica" font-size="10" fill="#333333" clip-path="url('#clipping-rect1')" >5,100 K</text>
		<line x1="285.40" y1="31.00" x2="285.40" y2="15.12" stroke="#7f7f7f" stroke-width="1.00" clip-path="url('#clipping-rect1')" />
		<text x="228.87" y="23.59" font-family="Helvetica" font-size="10" fill="#333333" clip-path="url('#clipping-rect1')" >5,050 K</text>
		<line x1="226.87" y1="31.00" x2="226.87" y2="15.12" stroke="#7f7f7f" stroke-width="1.00" clip-path="url('#clipping-rect1')" />
		<text x="170.34" y="23.59" font-family="Helvetica" font-size="10" fill="#333333" clip-path="url('#clipping-rect1')" >5 M</text>
		<line x1="168.34" y1="31.00" x2="168.34" y2="15.12" stroke="#7f7f7f" stroke-width="1.00" clip-path="url('#clipping-rect1')" />
		<text x="111.81" y="23.59" font-family="Helvetica" font-size="10" fill="#333333" clip-path="url('#clipping-rect1')" >4,950 K</text>
		<line x1="109.81" y1="31.00" x2="109.81" y2="15.12" stroke="#7f7f7f" stroke-width="1.00" clip-path="url('#clipping-rect1')" />
		<text x="53.28" y="23.59" font-family="Helvetica" font-size="10" fill="#333333" clip-path="url('#clipping-rect1')" >4,900 K</text>
		<line x1="51.28" y1="31.00" x2="51.28" y2="15.12" stroke="#7f7f7f" stroke-width="1.00" clip-path="url('#clipping-rect1')" />
		<line x1="51.05" y1="137.00" x2="51.05" y2="31.00" stroke="#ebebeb" stroke-width="1.00" />
		<line x1="109.11" y1="137.00" x2="109.11" y2="31.00" stroke="#ebebeb" stroke-width="1.00" />
		<line x1="168.17" y1="137.00" x2="168.17" y2="31.00" stroke="#ebebeb" stroke-width="1.00" />
		<line x1="226.23" y1="137.00" x2="226.23" y2="31.00" stroke="#ebebeb" stroke-width="1.00" />
		<line x1="285.29" y1="137.00" x2="285.29" y2="31.00" stroke="#ebebeb" stroke-width="1.00" />
		<line x1="343.35" y1="137.00" x2="343.35" y2="31.00" stroke="#ebebeb" stroke-width="1.00" />
		<line x1="402.40" y1="137.00" x2="402.40" y2="31.00" stroke="#ebebeb" stroke-width="1.00" />
		<line x1="460.46" y1="137.00" x2="460.46" y2="31.00" stroke="#ebebeb" stroke-width="1.00" />
		<line x1="519.52" y1="137.00" x2="519.52" y2="31.00" stroke="#ebebeb" stroke-width="1.00" />
		<line x1="578.58" y1="137.00" x2="578.58" y2="31.00" stroke="#ebebeb" stroke-width="1.00" />
		<line x1="636.64" y1="137.00" x2="636.64" y2="31.00" stroke="#ebebeb" stroke-width="1.00" />
		<line x1="695.70" y1="137.00" x2="695.70" y2="31.00" stroke="#ebebeb" stroke-width="1.00" />
		<line x1="753.76" y1="137.00" x2="753.76" y2="31.00" stroke="#ebebeb" stroke-width="1.00" />
		<line x1="812.82" y1="137.00" x2="812.82" y2="31.00" stroke="#ebebeb" stroke-width="1.00" />
		<line x1="870.88" y1="137.00" x2="870.88" y2="31.00" stroke="#ebebeb" stroke-width="1.00" />
		<line x1="929.94" y1="137.00" x2="929.94" y2="31.00" stroke="#ebebeb" stroke-width="1.00" />
		<line x1="987.99" y1="137.00" x2="987.99" y2="31.00" stroke="#ebebeb" stroke-width="1.00" />
		<polygon fill="#6c6c6c" shape-rendering="crispEdges" points="994.00,42.00 994.00,33.00 0.00,33.00 0.00,42.00 " />
		<line x1="0.00" y1="42.00" x2="0.00" y2="33.00" stroke="#6c6c6c" stroke-width="1.00" stroke-linejoin="round" />
		<line x1="0.00" y1="33.00" x2="994.00" y2="33.00" stroke="#6c6c6c" stroke-width="1.00" stroke-linejoin="round" />
		<line x1="994.00" y1="33.00" x2="994.00" y2="42.00" stroke="#6c6c6c" stroke-width="1.00" stroke-linejoin="round" />
		<line x1="0.00" y1="42.00" x2="994.00" y2="42.00" stroke="#6c6c6c" stroke-width="1.00" stroke-linejoin="round" />
		<polygon fill="#10c010" shape-rendering="crispEdges" points="994.00,31.00 994.00,43.00 0.00,43.00 0.00,31.00 " />
		<polygon fill="#166e32" shape-rendering="crispEdges" points="21.30,93.00 21.30,103.00 3.62,103.00 3.62,93.00 " />
		<polygon fill="#ffffff" shape-rendering="crispEdges" points="8.46,98.00 16.46,94.00 14.46,98.00 16.46,102.00 " />
		<polygon fill="#ffffff" shape-rendering="crispEdges" points="63.38,104.00 63.38,92.00 26.30,92.00 26.30,104.00 " />
		<text x="26.30" y="101.50" font-family="Helvetica" font-size="10" fill="#124d94" >KCTD19</text>
		<polygon fill="#166e32" shape-rendering="crispEdges" points="61.18,63.00 61.18,73.00 28.36,73.00 28.36,63.00 " />
		<polygon fill="#ffffff" shape-rendering="crispEdges" points="40.77,68.00 48.77,64.00 46.77,68.00 48.77,72.00 " />
		<polygon fill="#ffffff" shape-rendering="crispEdges" points="109.16,74.00 109.16,62.00 66.18,62.00 66.18,74.00 " />
		<text x="66.18" y="71.50" font-family="Helvetica" font-size="10" fill="#124d94" >ST3GAL2</text>
		<polygon fill="#166e32" shape-rendering="crispEdges" points="91.16,78.00 91.16,88.00 65.44,88.00 65.44,78.00 " />
		<polygon fill="#ffffff" shape-rendering="crispEdges" points="82.30,83.00 74.30,79.00 76.30,83.00 74.30,87.00 " />
		<text x="41.44" y="86.50" font-family="Helvetica" font-size="10" fill="#124d94" >FUK</text>
		<polygon fill="#166e32" shape-rendering="crispEdges" points="117.47,108.00 117.47,118.00 92.76,118.00 92.76,108.00 " />
		<polygon fill="#ffffff" shape-rendering="crispEdges" points="101.11,113.00 109.11,109.00 107.11,113.00 109.11,117.00 " />
		<polygon fill="#ffffff" shape-rendering="crispEdges" points="149.97,119.00 149.97,107.00 122.47,107.00 122.47,119.00 " />
		<text x="122.47" y="116.50" font-family="Helvetica" font-size="10" fill="#124d94" >COG4</text>
		<polygon fill="#166e32" shape-rendering="crispEdges" points="162.96,93.00 162.96,103.00 117.51,103.00 117.51,93.00 " />
		<polygon fill="#ffffff" shape-rendering="crispEdges" points="144.23,98.00 136.23,94.00 138.23,98.00 136.23,102.00 " />
		<text x="82.91" y="101.50" font-family="Helvetica" font-size="10" fill="#124d94" >SF3B3</text>
		<polygon fill="#166e32" shape-rendering="crispEdges" points="121.63,123.00 121.63,133.00 120.63,133.00 120.63,123.00 " />
		<line x1="120.63" y1="123.00" x2="120.63" y2="133.00" stroke="#166e32" stroke-width="1.00" stroke-linejoin="round" />
		<line x1="120.63" y1="133.00" x2="121.63" y2="133.00" stroke="#166e32" stroke-width="1.00" stroke-linejoin="round" />
		<line x1="121.63" y1="133.00" x2="121.63" y2="123.00" stroke="#166e32" stroke-width="1.00" stroke-linejoin="round" />
		<line x1="120.63" y1="123.00" x2="121.63" y2="123.00" stroke="#166e32" stroke-width="1.00" stroke-linejoin="round" />
		<text x="48.34" y="131.50" font-family="Helvetica" font-size="10" fill="#124d94" >LOC113445361</text>
		<polygon fill="#166e32" shape-rendering="crispEdges" points="243.06,63.00 243.06,73.00 165.76,73.00 165.76,63.00 " />
		<polygon fill="#ffffff" shape-rendering="crispEdges" points="200.41,68.00 208.41,64.00 206.41,68.00 208.41,72.00 " />
		<polygon fill="#ffffff" shape-rendering="crispEdges" points="285.98,74.00 285.98,62.00 248.06,62.00 248.06,74.00 " />
		<text x="248.06" y="71.50" font-family="Helvetica" font-size="10" fill="#124d94" >MTSS1L</text>
		<polygon fill="#166e32" shape-rendering="crispEdges" points="292.41,78.00 292.41,88.00 249.85,88.00 249.85,78.00 " />
		<polygon fill="#ffffff" shape-rendering="crispEdges" points="267.13,83.00 275.13,79.00 273.13,83.00 275.13,87.00 " />
		<polygon fill="#ffffff" shape-rendering="crispEdges" points="328.44,89.00 328.44,77.00 297.41,77.00 297.41,89.00 " />
		<text x="297.41" y="86.50" font-family="Helvetica" font-size="10" fill="#124d94" >VAC14</text>
		<polygon fill="#166e32" shape-rendering="crispEdges" points="631.10,63.00 631.10,73.00 292.62,73.00 292.62,63.00 " />
		<polygon fill="#ffffff" shape-rendering="crispEdges" points="307.86,68.00 315.86,64.00 313.86,68.00 315.86,72.00 " />
		<polygon fill="#e0e0e0" shape-rendering="crispEdges" points="407.86,68.00 415.86,64.00 413.86,68.00 415.86,72.00 " />
		<polygon fill="#c1c1c1" shape-rendering="crispEdges" points="507.86,68.00 515.86,64.00 513.86,68.00 515.86,72.00 " />
		<polygon fill="#ffffff" shape-rendering="crispEdges" points="607.86,68.00 615.86,64.00 613.86,68.00 615.86,72.00 " />
		<polygon fill="#ffffff" shape-rendering="crispEdges" points="665.62,74.00 665.62,62.00 636.10,62.00 636.10,74.00 " />
		<text x="636.10" y="71.50" font-family="Helvetica" font-size="10" fill="#124d94" >HYDIN</text>
		<polygon fill="#166e32" shape-rendering="crispEdges" points="636.90,78.00 636.90,88.00 633.45,88.00 633.45,78.00 " />
		<text x="599.37" y="86.50" font-family="Helvetica" font-size="10" fill="#124d94" >GINS3</text>
		<polygon fill="#166e32" shape-rendering="crispEdges" points="733.08,78.00 733.08,88.00 692.74,88.00 692.74,78.00 " />
		<polygon fill="#ffffff" shape-rendering="crispEdges" points="716.91,83.00 708.91,79.00 710.91,83.00 708.91,87.00 " />
		<text x="653.87" y="86.50" font-family="Helvetica" font-size="10" fill="#124d94" >NDRG4</text>
		<polygon fill="#166e32" shape-rendering="crispEdges" points="748.00,63.00 748.00,73.00 733.87,73.00 733.87,63.00 " />
		<text x="697.56" y="71.50" font-family="Helvetica" font-size="10" fill="#124d94" >SETD6</text>
		<polygon fill="#166e32" shape-rendering="crispEdges" points="943.95,63.00 943.95,73.00 757.38,73.00 757.38,63.00 " />
		<polygon fill="#ffffff" shape-rendering="crispEdges" points="796.67,68.00 804.67,64.00 802.67,68.00 804.67,72.00 " />
		<polygon fill="#e0e0e0" shape-rendering="crispEdges" points="896.67,68.00 904.67,64.00 902.67,68.00 904.67,72.00 " />
		<polygon fill="#ffffff" shape-rendering="crispEdges" points="980.27,74.00 980.27,62.00 948.95,62.00 948.95,74.00 " />
		<text x="948.95" y="71.50" font-family="Helvetica" font-size="10" fill="#124d94" >CNOT1</text>
		<polygon fill="#166e32" shape-rendering="crispEdges" points="827.61,93.00 827.61,103.00 807.01,103.00 807.01,93.00 " />
		<polygon fill="#ffffff" shape-rendering="crispEdges" points="821.31,98.00 813.31,94.00 815.31,98.00 813.31,102.00 " />
		<text x="732.62" y="101.50" font-family="Helvetica" font-size="10" fill="#124d94" >LOC113445265</text>
		<polygon fill="#166e32" shape-rendering="crispEdges" points="880.00,78.00 880.00,88.00 874.79,88.00 874.79,78.00 " />
		<text x="800.32" y="86.50" font-family="Helvetica" font-size="10" fill="#124d94" >LOC113445264</text>
		<polygon fill="#e6e6e6" fill-opacity="0.71" shape-rendering="crispEdges" points="994.00,44.00 994.00,58.00 0.00,58.00 0.00,44.00 " clip-path="url('#clipping-rect2')" />
		<text x="0.00" y="54.00" font-family="Helvetica" font-size="12" fill="#333333" >Genes, NCBI Pseudonaja textilis Annotation Release 100, 2018-10-11</text>
		<polygon fill="#e5e5e5" shape-rendering="crispEdges" points="994.00,13.00 994.00,-1.00 0.00,-1.00 0.00,13.00 " />
		<text x="0.00" y="10.00" font-family="Helvetica Bold" font-size="12" text-anchor="start" fill="#000000" >NW_020769377.1:4856189..5705352 Pseudonaja textilis unplaced genomic scaffold, EBS10Xv2-PRI ULFR01000070.1, whole genome shotgun sequence</text>
	</g>
</svg>
