<?xml version="1.0" standalone="no" ?>
<!DOCTYPE svg PUBLIC "-//W3C//DTD SVG 1.1//EN" "http://www.w3.org/Graphics/SVG/1.1/DTD/svg11.dtd">
<svg width="994px" height="153px" xmlns="http://www.w3.org/2000/svg" version="1.1" viewBox="0 0 994 153" >
	<style type="text/css" > <![CDATA[
		@import url("https://www.ncbi.nlm.nih.gov/projects/sviewer/css/svg_fonts.css");
	]]>
	</style>
	<desc >Generated by NCBI Genome Workbench http://www.ncbi.nlm.nih.gov/tools/gbench/</desc>
	<defs >
		<clipPath id="clipping-rect1" >
			<rect x="0" y="14" width="994" height="18" />
		</clipPath>
		<clipPath id="clipping-rect2" >
			<rect x="0" y="32" width="994" height="121" />
		</clipPath>
	</defs>
	<g >
		<polygon fill="#ffffff" shape-rendering="crispEdges" points="994.00,31.00 994.00,13.00 0.00,13.00 0.00,31.00 " />
		<line x1="0.00" y1="29.00" x2="994.00" y2="29.00" stroke="#7f7f7f" stroke-width="1.00" clip-path="url('#clipping-rect1')" />
		<line x1="989.39" y1="29.00" x2="989.39" y2="27.00" stroke="#7f7f7f" stroke-width="1.00" clip-path="url('#clipping-rect1')" />
		<line x1="978.82" y1="29.00" x2="978.82" y2="27.00" stroke="#7f7f7f" stroke-width="1.00" clip-path="url('#clipping-rect1')" />
		<line x1="968.24" y1="29.00" x2="968.24" y2="27.00" stroke="#7f7f7f" stroke-width="1.00" clip-path="url('#clipping-rect1')" />
		<line x1="957.67" y1="29.00" x2="957.67" y2="27.00" stroke="#7f7f7f" stroke-width="1.00" clip-path="url('#clipping-rect1')" />
		<line x1="947.09" y1="29.00" x2="947.09" y2="27.00" stroke="#7f7f7f" stroke-width="1.00" clip-path="url('#clipping-rect1')" />
		<line x1="936.52" y1="29.00" x2="936.52" y2="27.00" stroke="#7f7f7f" stroke-width="1.00" clip-path="url('#clipping-rect1')" />
		<line x1="925.94" y1="29.00" x2="925.94" y2="27.00" stroke="#7f7f7f" stroke-width="1.00" clip-path="url('#clipping-rect1')" />
		<line x1="915.37" y1="29.00" x2="915.37" y2="27.00" stroke="#7f7f7f" stroke-width="1.00" clip-path="url('#clipping-rect1')" />
		<line x1="904.79" y1="29.00" x2="904.79" y2="27.00" stroke="#7f7f7f" stroke-width="1.00" clip-path="url('#clipping-rect1')" />
		<line x1="894.22" y1="29.00" x2="894.22" y2="26.00" stroke="#7f7f7f" stroke-width="1.00" clip-path="url('#clipping-rect1')" />
		<line x1="883.64" y1="29.00" x2="883.64" y2="27.00" stroke="#7f7f7f" stroke-width="1.00" clip-path="url('#clipping-rect1')" />
		<line x1="873.07" y1="29.00" x2="873.07" y2="27.00" stroke="#7f7f7f" stroke-width="1.00" clip-path="url('#clipping-rect1')" />
		<line x1="862.49" y1="29.00" x2="862.49" y2="27.00" stroke="#7f7f7f" stroke-width="1.00" clip-path="url('#clipping-rect1')" />
		<line x1="851.92" y1="29.00" x2="851.92" y2="27.00" stroke="#7f7f7f" stroke-width="1.00" clip-path="url('#clipping-rect1')" />
		<line x1="841.34" y1="29.00" x2="841.34" y2="27.00" stroke="#7f7f7f" stroke-width="1.00" clip-path="url('#clipping-rect1')" />
		<line x1="830.77" y1="29.00" x2="830.77" y2="27.00" stroke="#7f7f7f" stroke-width="1.00" clip-path="url('#clipping-rect1')" />
		<line x1="820.19" y1="29.00" x2="820.19" y2="27.00" stroke="#7f7f7f" stroke-width="1.00" clip-path="url('#clipping-rect1')" />
		<line x1="809.62" y1="29.00" x2="809.62" y2="27.00" stroke="#7f7f7f" stroke-width="1.00" clip-path="url('#clipping-rect1')" />
		<line x1="799.04" y1="29.00" x2="799.04" y2="27.00" stroke="#7f7f7f" stroke-width="1.00" clip-path="url('#clipping-rect1')" />
		<line x1="788.47" y1="29.00" x2="788.47" y2="26.00" stroke="#7f7f7f" stroke-width="1.00" clip-path="url('#clipping-rect1')" />
		<line x1="777.89" y1="29.00" x2="777.89" y2="27.00" stroke="#7f7f7f" stroke-width="1.00" clip-path="url('#clipping-rect1')" />
		<line x1="767.32" y1="29.00" x2="767.32" y2="27.00" stroke="#7f7f7f" stroke-width="1.00" clip-path="url('#clipping-rect1')" />
		<line x1="756.74" y1="29.00" x2="756.74" y2="27.00" stroke="#7f7f7f" stroke-width="1.00" clip-path="url('#clipping-rect1')" />
		<line x1="746.17" y1="29.00" x2="746.17" y2="27.00" stroke="#7f7f7f" stroke-width="1.00" clip-path="url('#clipping-rect1')" />
		<line x1="735.59" y1="29.00" x2="735.59" y2="27.00" stroke="#7f7f7f" stroke-width="1.00" clip-path="url('#clipping-rect1')" />
		<line x1="725.02" y1="29.00" x2="725.02" y2="27.00" stroke="#7f7f7f" stroke-width="1.00" clip-path="url('#clipping-rect1')" />
		<line x1="714.44" y1="29.00" x2="714.44" y2="27.00" stroke="#7f7f7f" stroke-width="1.00" clip-path="url('#clipping-rect1')" />
		<line x1="703.87" y1="29.00" x2="703.87" y2="27.00" stroke="#7f7f7f" stroke-width="1.00" clip-path="url('#clipping-rect1')" />
		<line x1="693.29" y1="29.00" x2="693.29" y2="27.00" stroke="#7f7f7f" stroke-width="1.00" clip-path="url('#clipping-rect1')" />
		<line x1="682.72" y1="29.00" x2="682.72" y2="26.00" stroke="#7f7f7f" stroke-width="1.00" clip-path="url('#clipping-rect1')" />
		<line x1="672.14" y1="29.00" x2="672.14" y2="27.00" stroke="#7f7f7f" stroke-width="1.00" clip-path="url('#clipping-rect1')" />
		<line x1="661.57" y1="29.00" x2="661.57" y2="27.00" stroke="#7f7f7f" stroke-width="1.00" clip-path="url('#clipping-rect1')" />
		<line x1="650.99" y1="29.00" x2="650.99" y2="27.00" stroke="#7f7f7f" stroke-width="1.00" clip-path="url('#clipping-rect1')" />
		<line x1="640.42" y1="29.00" x2="640.42" y2="27.00" stroke="#7f7f7f" stroke-width="1.00" clip-path="url('#clipping-rect1')" />
		<line x1="629.84" y1="29.00" x2="629.84" y2="27.00" stroke="#7f7f7f" stroke-width="1.00" clip-path="url('#clipping-rect1')" />
		<line x1="619.27" y1="29.00" x2="619.27" y2="27.00" stroke="#7f7f7f" stroke-width="1.00" clip-path="url('#clipping-rect1')" />
		<line x1="608.69" y1="29.00" x2="608.69" y2="27.00" stroke="#7f7f7f" stroke-width="1.00" clip-path="url('#clipping-rect1')" />
		<line x1="598.12" y1="29.00" x2="598.12" y2="27.00" stroke="#7f7f7f" stroke-width="1.00" clip-path="url('#clipping-rect1')" />
		<line x1="587.54" y1="29.00" x2="587.54" y2="27.00" stroke="#7f7f7f" stroke-width="1.00" clip-path="url('#clipping-rect1')" />
		<line x1="576.97" y1="29.00" x2="576.97" y2="26.00" stroke="#7f7f7f" stroke-width="1.00" clip-path="url('#clipping-rect1')" />
		<line x1="566.39" y1="29.00" x2="566.39" y2="27.00" stroke="#7f7f7f" stroke-width="1.00" clip-path="url('#clipping-rect1')" />
		<line x1="555.82" y1="29.00" x2="555.82" y2="27.00" stroke="#7f7f7f" stroke-width="1.00" clip-path="url('#clipping-rect1')" />
		<line x1="545.24" y1="29.00" x2="545.24" y2="27.00" stroke="#7f7f7f" stroke-width="1.00" clip-path="url('#clipping-rect1')" />
		<line x1="534.67" y1="29.00" x2="534.67" y2="27.00" stroke="#7f7f7f" stroke-width="1.00" clip-path="url('#clipping-rect1')" />
		<line x1="524.09" y1="29.00" x2="524.09" y2="27.00" stroke="#7f7f7f" stroke-width="1.00" clip-path="url('#clipping-rect1')" />
		<line x1="513.52" y1="29.00" x2="513.52" y2="27.00" stroke="#7f7f7f" stroke-width="1.00" clip-path="url('#clipping-rect1')" />
		<line x1="502.94" y1="29.00" x2="502.94" y2="27.00" stroke="#7f7f7f" stroke-width="1.00" clip-path="url('#clipping-rect1')" />
		<line x1="492.37" y1="29.00" x2="492.37" y2="27.00" stroke="#7f7f7f" stroke-width="1.00" clip-path="url('#clipping-rect1')" />
		<line x1="481.79" y1="29.00" x2="481.79" y2="27.00" stroke="#7f7f7f" stroke-width="1.00" clip-path="url('#clipping-rect1')" />
		<line x1="471.22" y1="29.00" x2="471.22" y2="26.00" stroke="#7f7f7f" stroke-width="1.00" clip-path="url('#clipping-rect1')" />
		<line x1="460.64" y1="29.00" x2="460.64" y2="27.00" stroke="#7f7f7f" stroke-width="1.00" clip-path="url('#clipping-rect1')" />
		<line x1="450.07" y1="29.00" x2="450.07" y2="27.00" stroke="#7f7f7f" stroke-width="1.00" clip-path="url('#clipping-rect1')" />
		<line x1="439.49" y1="29.00" x2="439.49" y2="27.00" stroke="#7f7f7f" stroke-width="1.00" clip-path="url('#clipping-rect1')" />
		<line x1="428.92" y1="29.00" x2="428.92" y2="27.00" stroke="#7f7f7f" stroke-width="1.00" clip-path="url('#clipping-rect1')" />
		<line x1="418.34" y1="29.00" x2="418.34" y2="27.00" stroke="#7f7f7f" stroke-width="1.00" clip-path="url('#clipping-rect1')" />
		<line x1="407.77" y1="29.00" x2="407.77" y2="27.00" stroke="#7f7f7f" stroke-width="1.00" clip-path="url('#clipping-rect1')" />
		<line x1="397.19" y1="29.00" x2="397.19" y2="27.00" stroke="#7f7f7f" stroke-width="1.00" clip-path="url('#clipping-rect1')" />
		<line x1="386.62" y1="29.00" x2="386.62" y2="27.00" stroke="#7f7f7f" stroke-width="1.00" clip-path="url('#clipping-rect1')" />
		<line x1="376.04" y1="29.00" x2="376.04" y2="27.00" stroke="#7f7f7f" stroke-width="1.00" clip-path="url('#clipping-rect1')" />
		<line x1="365.47" y1="29.00" x2="365.47" y2="26.00" stroke="#7f7f7f" stroke-width="1.00" clip-path="url('#clipping-rect1')" />
		<line x1="354.89" y1="29.00" x2="354.89" y2="27.00" stroke="#7f7f7f" stroke-width="1.00" clip-path="url('#clipping-rect1')" />
		<line x1="344.32" y1="29.00" x2="344.32" y2="27.00" stroke="#7f7f7f" stroke-width="1.00" clip-path="url('#clipping-rect1')" />
		<line x1="333.74" y1="29.00" x2="333.74" y2="27.00" stroke="#7f7f7f" stroke-width="1.00" clip-path="url('#clipping-rect1')" />
		<line x1="323.17" y1="29.00" x2="323.17" y2="27.00" stroke="#7f7f7f" stroke-width="1.00" clip-path="url('#clipping-rect1')" />
		<line x1="312.59" y1="29.00" x2="312.59" y2="27.00" stroke="#7f7f7f" stroke-width="1.00" clip-path="url('#clipping-rect1')" />
		<line x1="302.02" y1="29.00" x2="302.02" y2="27.00" stroke="#7f7f7f" stroke-width="1.00" clip-path="url('#clipping-rect1')" />
		<line x1="291.44" y1="29.00" x2="291.44" y2="27.00" stroke="#7f7f7f" stroke-width="1.00" clip-path="url('#clipping-rect1')" />
		<line x1="280.87" y1="29.00" x2="280.87" y2="27.00" stroke="#7f7f7f" stroke-width="1.00" clip-path="url('#clipping-rect1')" />
		<line x1="270.29" y1="29.00" x2="270.29" y2="27.00" stroke="#7f7f7f" stroke-width="1.00" clip-path="url('#clipping-rect1')" />
		<line x1="259.72" y1="29.00" x2="259.72" y2="26.00" stroke="#7f7f7f" stroke-width="1.00" clip-path="url('#clipping-rect1')" />
		<line x1="249.14" y1="29.00" x2="249.14" y2="27.00" stroke="#7f7f7f" stroke-width="1.00" clip-path="url('#clipping-rect1')" />
		<line x1="238.57" y1="29.00" x2="238.57" y2="27.00" stroke="#7f7f7f" stroke-width="1.00" clip-path="url('#clipping-rect1')" />
		<line x1="227.99" y1="29.00" x2="227.99" y2="27.00" stroke="#7f7f7f" stroke-width="1.00" clip-path="url('#clipping-rect1')" />
		<line x1="217.42" y1="29.00" x2="217.42" y2="27.00" stroke="#7f7f7f" stroke-width="1.00" clip-path="url('#clipping-rect1')" />
		<line x1="206.84" y1="29.00" x2="206.84" y2="27.00" stroke="#7f7f7f" stroke-width="1.00" clip-path="url('#clipping-rect1')" />
		<line x1="196.27" y1="29.00" x2="196.27" y2="27.00" stroke="#7f7f7f" stroke-width="1.00" clip-path="url('#clipping-rect1')" />
		<line x1="185.69" y1="29.00" x2="185.69" y2="27.00" stroke="#7f7f7f" stroke-width="1.00" clip-path="url('#clipping-rect1')" />
		<line x1="175.12" y1="29.00" x2="175.12" y2="27.00" stroke="#7f7f7f" stroke-width="1.00" clip-path="url('#clipping-rect1')" />
		<line x1="164.54" y1="29.00" x2="164.54" y2="27.00" stroke="#7f7f7f" stroke-width="1.00" clip-path="url('#clipping-rect1')" />
		<line x1="153.97" y1="29.00" x2="153.97" y2="26.00" stroke="#7f7f7f" stroke-width="1.00" clip-path="url('#clipping-rect1')" />
		<line x1="143.39" y1="29.00" x2="143.39" y2="27.00" stroke="#7f7f7f" stroke-width="1.00" clip-path="url('#clipping-rect1')" />
		<line x1="132.82" y1="29.00" x2="132.82" y2="27.00" stroke="#7f7f7f" stroke-width="1.00" clip-path="url('#clipping-rect1')" />
		<line x1="122.24" y1="29.00" x2="122.24" y2="27.00" stroke="#7f7f7f" stroke-width="1.00" clip-path="url('#clipping-rect1')" />
		<line x1="111.67" y1="29.00" x2="111.67" y2="27.00" stroke="#7f7f7f" stroke-width="1.00" clip-path="url('#clipping-rect1')" />
		<line x1="101.09" y1="29.00" x2="101.09" y2="27.00" stroke="#7f7f7f" stroke-width="1.00" clip-path="url('#clipping-rect1')" />
		<line x1="90.52" y1="29.00" x2="90.52" y2="27.00" stroke="#7f7f7f" stroke-width="1.00" clip-path="url('#clipping-rect1')" />
		<line x1="79.94" y1="29.00" x2="79.94" y2="27.00" stroke="#7f7f7f" stroke-width="1.00" clip-path="url('#clipping-rect1')" />
		<line x1="69.37" y1="29.00" x2="69.37" y2="27.00" stroke="#7f7f7f" stroke-width="1.00" clip-path="url('#clipping-rect1')" />
		<line x1="58.79" y1="29.00" x2="58.79" y2="27.00" stroke="#7f7f7f" stroke-width="1.00" clip-path="url('#clipping-rect1')" />
		<line x1="48.22" y1="29.00" x2="48.22" y2="26.00" stroke="#7f7f7f" stroke-width="1.00" clip-path="url('#clipping-rect1')" />
		<line x1="37.64" y1="29.00" x2="37.64" y2="27.00" stroke="#7f7f7f" stroke-width="1.00" clip-path="url('#clipping-rect1')" />
		<line x1="27.07" y1="29.00" x2="27.07" y2="27.00" stroke="#7f7f7f" stroke-width="1.00" clip-path="url('#clipping-rect1')" />
		<line x1="16.49" y1="29.00" x2="16.49" y2="27.00" stroke="#7f7f7f" stroke-width="1.00" clip-path="url('#clipping-rect1')" />
		<line x1="5.92" y1="29.00" x2="5.92" y2="27.00" stroke="#7f7f7f" stroke-width="1.00" clip-path="url('#clipping-rect1')" />
		<text x="896.22" y="24.00" font-family="Helvetica" font-size="10" fill="#333333" clip-path="url('#clipping-rect1')" >1,100 K</text>
		<line x1="894.22" y1="31.00" x2="894.22" y2="16.00" stroke="#7f7f7f" stroke-width="1.00" clip-path="url('#clipping-rect1')" />
		<text x="790.47" y="24.00" font-family="Helvetica" font-size="10" fill="#333333" clip-path="url('#clipping-rect1')" >1,200 K</text>
		<line x1="788.47" y1="31.00" x2="788.47" y2="16.00" stroke="#7f7f7f" stroke-width="1.00" clip-path="url('#clipping-rect1')" />
		<text x="684.72" y="24.00" font-family="Helvetica" font-size="10" fill="#333333" clip-path="url('#clipping-rect1')" >1,300 K</text>
		<line x1="682.72" y1="31.00" x2="682.72" y2="16.00" stroke="#7f7f7f" stroke-width="1.00" clip-path="url('#clipping-rect1')" />
		<text x="578.97" y="24.00" font-family="Helvetica" font-size="10" fill="#333333" clip-path="url('#clipping-rect1')" >1,400 K</text>
		<line x1="576.97" y1="31.00" x2="576.97" y2="16.00" stroke="#7f7f7f" stroke-width="1.00" clip-path="url('#clipping-rect1')" />
		<text x="473.22" y="24.00" font-family="Helvetica" font-size="10" fill="#333333" clip-path="url('#clipping-rect1')" >1,500 K</text>
		<line x1="471.22" y1="31.00" x2="471.22" y2="16.00" stroke="#7f7f7f" stroke-width="1.00" clip-path="url('#clipping-rect1')" />
		<text x="367.47" y="24.00" font-family="Helvetica" font-size="10" fill="#333333" clip-path="url('#clipping-rect1')" >1,600 K</text>
		<line x1="365.47" y1="31.00" x2="365.47" y2="16.00" stroke="#7f7f7f" stroke-width="1.00" clip-path="url('#clipping-rect1')" />
		<text x="261.72" y="24.00" font-family="Helvetica" font-size="10" fill="#333333" clip-path="url('#clipping-rect1')" >1,700 K</text>
		<line x1="259.72" y1="31.00" x2="259.72" y2="16.00" stroke="#7f7f7f" stroke-width="1.00" clip-path="url('#clipping-rect1')" />
		<text x="155.97" y="24.00" font-family="Helvetica" font-size="10" fill="#333333" clip-path="url('#clipping-rect1')" >1,800 K</text>
		<line x1="153.97" y1="31.00" x2="153.97" y2="16.00" stroke="#7f7f7f" stroke-width="1.00" clip-path="url('#clipping-rect1')" />
		<text x="50.22" y="24.00" font-family="Helvetica" font-size="10" fill="#333333" clip-path="url('#clipping-rect1')" >1,900 K</text>
		<line x1="48.22" y1="31.00" x2="48.22" y2="16.00" stroke="#7f7f7f" stroke-width="1.00" clip-path="url('#clipping-rect1')" />
		<line x1="894.90" y1="152.00" x2="894.90" y2="31.00" stroke="#ebebeb" stroke-width="1.00" />
		<line x1="788.79" y1="152.00" x2="788.79" y2="31.00" stroke="#ebebeb" stroke-width="1.00" />
		<line x1="682.69" y1="152.00" x2="682.69" y2="31.00" stroke="#ebebeb" stroke-width="1.00" />
		<line x1="576.58" y1="152.00" x2="576.58" y2="31.00" stroke="#ebebeb" stroke-width="1.00" />
		<line x1="471.47" y1="152.00" x2="471.47" y2="31.00" stroke="#ebebeb" stroke-width="1.00" />
		<line x1="365.37" y1="152.00" x2="365.37" y2="31.00" stroke="#ebebeb" stroke-width="1.00" />
		<line x1="259.26" y1="152.00" x2="259.26" y2="31.00" stroke="#ebebeb" stroke-width="1.00" />
		<line x1="153.15" y1="152.00" x2="153.15" y2="31.00" stroke="#ebebeb" stroke-width="1.00" />
		<line x1="48.05" y1="152.00" x2="48.05" y2="31.00" stroke="#ebebeb" stroke-width="1.00" />
		<polygon fill="#6c6c6c" shape-rendering="crispEdges" points="0.00,42.00 0.00,33.00 994.00,33.00 994.00,42.00 " />
		<line x1="994.00" y1="42.00" x2="994.00" y2="33.00" stroke="#6c6c6c" stroke-width="1.00" stroke-linejoin="round" />
		<line x1="994.00" y1="33.00" x2="0.00" y2="33.00" stroke="#6c6c6c" stroke-width="1.00" stroke-linejoin="round" />
		<line x1="0.00" y1="33.00" x2="0.00" y2="42.00" stroke="#6c6c6c" stroke-width="1.00" stroke-linejoin="round" />
		<line x1="994.00" y1="42.00" x2="0.00" y2="42.00" stroke="#6c6c6c" stroke-width="1.00" stroke-linejoin="round" />
		<polygon fill="#166e32" shape-rendering="crispEdges" points="829.34,63.00 829.34,73.00 978.46,73.00 978.46,63.00 " />
		<polygon fill="#ffffff" shape-rendering="crispEdges" points="949.90,68.00 957.90,64.00 955.90,68.00 957.90,72.00 " />
		<polygon fill="#e0e0e0" shape-rendering="crispEdges" points="849.90,68.00 857.90,64.00 855.90,68.00 857.90,72.00 " />
		<polygon fill="#166e32" shape-rendering="crispEdges" points="787.72,78.00 787.72,88.00 814.44,88.00 814.44,78.00 " />
		<polygon fill="#ffffff" shape-rendering="crispEdges" points="805.08,83.00 797.08,79.00 799.08,83.00 797.08,87.00 " />
		<polygon fill="#ffffff" shape-rendering="crispEdges" points="683.96,89.00 683.96,77.00 782.72,77.00 782.72,89.00 " />
		<text x="683.96" y="86.50" font-family="Helvetica" font-size="10" fill="#124d94" >ENSIIAG00005011911</text>
		<polygon fill="#166e32" shape-rendering="crispEdges" points="774.39,93.00 774.39,103.00 786.15,103.00 786.15,93.00 " />
		<polygon fill="#ffffff" shape-rendering="crispEdges" points="669.00,104.00 669.00,92.00 769.39,92.00 769.39,104.00 " />
		<text x="669.00" y="101.50" font-family="Helvetica" font-size="10" fill="#124d94" >ENSIIAG00005013299</text>
		<polygon fill="#166e32" shape-rendering="crispEdges" points="726.56,108.00 726.56,118.00 731.98,118.00 731.98,108.00 " />
		<polygon fill="#ffffff" shape-rendering="crispEdges" points="622.79,119.00 622.79,107.00 721.56,107.00 721.56,119.00 " />
		<text x="622.79" y="116.50" font-family="Helvetica" font-size="10" fill="#124d94" >ENSIIAG00005004661</text>
		<polygon fill="#166e32" shape-rendering="crispEdges" points="346.03,63.00 346.03,73.00 716.44,73.00 716.44,63.00 " />
		<polygon fill="#ffffff" shape-rendering="crispEdges" points="677.24,68.00 685.24,64.00 683.24,68.00 685.24,72.00 " />
		<polygon fill="#e0e0e0" shape-rendering="crispEdges" points="577.24,68.00 585.24,64.00 583.24,68.00 585.24,72.00 " />
		<polygon fill="#c1c1c1" shape-rendering="crispEdges" points="477.24,68.00 485.24,64.00 483.24,68.00 485.24,72.00 " />
		<polygon fill="#ffffff" shape-rendering="crispEdges" points="377.24,68.00 385.24,64.00 383.24,68.00 385.24,72.00 " />
		<text x="721.44" y="71.50" font-family="Helvetica" font-size="10" fill="#124d94" >ENSIIAG00005005008</text>
		<polygon fill="#166e32" shape-rendering="crispEdges" points="273.57,78.00 273.57,88.00 345.76,88.00 345.76,78.00 " />
		<polygon fill="#ffffff" shape-rendering="crispEdges" points="305.66,83.00 313.66,79.00 311.66,83.00 313.66,87.00 " />
		<text x="350.76" y="86.50" font-family="Helvetica" font-size="10" fill="#124d94" >ENSIIAG00005004760</text>
		<polygon fill="#166e32" shape-rendering="crispEdges" points="223.13,108.00 223.13,118.00 243.72,118.00 243.72,108.00 " />
		<polygon fill="#ffffff" shape-rendering="crispEdges" points="229.43,113.00 237.43,109.00 235.43,113.00 237.43,117.00 " />
		<text x="248.72" y="116.50" font-family="Helvetica" font-size="10" fill="#124d94" >ENSIIAG00005004975</text>
		<polygon fill="#166e32" shape-rendering="crispEdges" points="176.87,93.00 176.87,103.00 218.36,103.00 218.36,93.00 " />
		<polygon fill="#ffffff" shape-rendering="crispEdges" points="201.62,98.00 193.62,94.00 195.62,98.00 193.62,102.00 " />
		<polygon fill="#ffffff" shape-rendering="crispEdges" points="71.45,104.00 71.45,92.00 171.87,92.00 171.87,104.00 " />
		<text x="71.45" y="101.50" font-family="Helvetica" font-size="10" fill="#124d94" >ENSIIAG00005005146</text>
		<polygon fill="#166e32" shape-rendering="crispEdges" points="180.81,138.00 180.81,148.00 181.81,148.00 181.81,138.00 " />
		<line x1="181.81" y1="138.00" x2="181.81" y2="148.00" stroke="#166e32" stroke-width="1.00" stroke-linejoin="round" />
		<line x1="181.81" y1="148.00" x2="180.81" y2="148.00" stroke="#166e32" stroke-width="1.00" stroke-linejoin="round" />
		<line x1="180.81" y1="148.00" x2="180.81" y2="138.00" stroke="#166e32" stroke-width="1.00" stroke-linejoin="round" />
		<line x1="181.81" y1="138.00" x2="180.81" y2="138.00" stroke="#166e32" stroke-width="1.00" stroke-linejoin="round" />
		<polygon fill="#ffffff" shape-rendering="crispEdges" points="75.85,149.00 75.85,137.00 176.27,137.00 176.27,149.00 " />
		<text x="75.85" y="146.50" font-family="Helvetica" font-size="10" fill="#124d94" >ENSIIAG00005014556</text>
		<polygon fill="#166e32" shape-rendering="crispEdges" points="144.58,123.00 144.58,133.00 177.02,133.00 177.02,123.00 " />
		<polygon fill="#ffffff" shape-rendering="crispEdges" points="156.80,128.00 164.80,124.00 162.80,128.00 164.80,132.00 " />
		<text x="182.02" y="131.50" font-family="Helvetica" font-size="10" fill="#124d94" >ENSIIAG00005005311</text>
		<polygon fill="#166e32" shape-rendering="crispEdges" points="117.31,78.00 117.31,88.00 143.14,88.00 143.14,78.00 " />
		<polygon fill="#ffffff" shape-rendering="crispEdges" points="134.22,83.00 126.22,79.00 128.22,83.00 126.22,87.00 " />
		<polygon fill="#ffffff" shape-rendering="crispEdges" points="11.90,89.00 11.90,77.00 112.31,77.00 112.31,89.00 " />
		<text x="11.90" y="86.50" font-family="Helvetica" font-size="10" fill="#124d94" >ENSIIAG00005006372</text>
		<polygon fill="#166e32" shape-rendering="crispEdges" points="83.48,108.00 83.48,118.00 99.14,118.00 99.14,108.00 " />
		<polygon fill="#ffffff" shape-rendering="crispEdges" points="87.31,113.00 95.31,109.00 93.31,113.00 95.31,117.00 " />
		<text x="104.14" y="116.50" font-family="Helvetica" font-size="10" fill="#124d94" >ENSIIAG00005006278</text>
		<polygon fill="#166e32" shape-rendering="crispEdges" points="6.13,63.00 6.13,73.00 67.63,73.00 67.63,63.00 " />
		<polygon fill="#ffffff" shape-rendering="crispEdges" points="32.88,68.00 40.88,64.00 38.88,68.00 40.88,72.00 " />
		<text x="72.63" y="71.50" font-family="Helvetica" font-size="10" fill="#124d94" >ENSIIAG00005006587</text>
		<polygon fill="#e6e6e6" fill-opacity="0.71" shape-rendering="crispEdges" points="994.00,44.00 994.00,58.00 0.00,58.00 0.00,44.00 " clip-path="url('#clipping-rect2')" />
		<text x="0.00" y="54.00" font-family="Helvetica" font-size="12" fill="#333333" >Genes, Ensembl Rapid release 2024-12</text>
		<polygon fill="#0000ff" fill-opacity="0.20" shape-rendering="crispEdges" points="218.50,23.10 218.50,31.50 176.50,31.50 176.50,23.10 " />
		<line x1="176.50" y1="30.50" x2="176.50" y2="23.10" stroke="#0000ff" stroke-opacity="0.40" stroke-width="1.00" />
		<line x1="218.50" y1="30.50" x2="218.50" y2="23.10" stroke="#0000ff" stroke-opacity="0.40" stroke-width="1.00" />
		<polygon fill="#0000ff" shape-rendering="crispEdges" points="170.79,22.35 170.50,20.50 170.79,18.65 171.65,16.97 172.97,15.65 174.65,14.79 176.50,14.50 176.50,26.50 174.65,26.21 172.97,25.35 171.65,24.03 " />
		<polygon fill="#0000ff" fill-opacity="0.60" shape-rendering="crispEdges" points="212.09,26.50 212.09,14.50 176.50,14.50 176.50,26.50 " />
		<text x="178.50" y="23.50" font-family="Helvetica" font-size="10" fill="#ffffff" >SF3B3</text>
		<polygon fill="#0000ff" fill-opacity="0.20" shape-rendering="crispEdges" points="218.22,31.00 218.22,153.01 176.18,153.01 176.18,31.00 " />
		<line x1="176.18" y1="152.00" x2="176.18" y2="31.00" stroke="#0000ff" stroke-opacity="0.40" stroke-width="1.00" />
		<line x1="218.22" y1="152.00" x2="218.22" y2="31.00" stroke="#0000ff" stroke-opacity="0.40" stroke-width="1.00" />
		<polygon fill="#0000ff" fill-opacity="0.20" shape-rendering="crispEdges" points="976.50,23.10 976.50,31.50 830.50,31.50 830.50,23.10 " />
		<line x1="830.50" y1="30.50" x2="830.50" y2="23.10" stroke="#0000ff" stroke-opacity="0.40" stroke-width="1.00" />
		<line x1="976.50" y1="30.50" x2="976.50" y2="23.10" stroke="#0000ff" stroke-opacity="0.40" stroke-width="1.00" />
		<polygon fill="#0000ff" shape-rendering="crispEdges" points="824.79,22.35 824.50,20.50 824.79,18.65 825.65,16.97 826.97,15.65 828.65,14.79 830.50,14.50 830.50,26.50 828.65,26.21 826.97,25.35 825.65,24.03 " />
		<polygon fill="#0000ff" fill-opacity="0.60" shape-rendering="crispEdges" points="867.81,26.50 867.81,14.50 830.50,14.50 830.50,26.50 " />
		<text x="832.50" y="23.50" font-family="Helvetica" font-size="10" fill="#ffffff" >CNOT1</text>
		<polygon fill="#0000ff" fill-opacity="0.20" shape-rendering="crispEdges" points="976.98,31.00 976.98,153.01 830.84,153.01 830.84,31.00 " />
		<line x1="830.84" y1="152.00" x2="830.84" y2="31.00" stroke="#0000ff" stroke-opacity="0.40" stroke-width="1.00" />
		<line x1="976.98" y1="152.00" x2="976.98" y2="31.00" stroke="#0000ff" stroke-opacity="0.40" stroke-width="1.00" />
		<polygon fill="#0000ff" fill-opacity="0.20" shape-rendering="crispEdges" points="68.50,23.10 68.50,31.50 7.50,31.50 7.50,23.10 " />
		<line x1="7.50" y1="30.50" x2="7.50" y2="23.10" stroke="#0000ff" stroke-opacity="0.40" stroke-width="1.00" />
		<line x1="68.50" y1="30.50" x2="68.50" y2="23.10" stroke="#0000ff" stroke-opacity="0.40" stroke-width="1.00" />
		<polygon fill="#0000ff" shape-rendering="crispEdges" points="1.79,22.35 1.50,20.50 1.79,18.65 2.65,16.97 3.97,15.65 5.65,14.79 7.50,14.50 7.50,26.50 5.65,26.21 3.97,25.35 2.65,24.03 " />
		<polygon fill="#0000ff" fill-opacity="0.60" shape-rendering="crispEdges" points="50.58,26.50 50.58,14.50 7.50,14.50 7.50,26.50 " />
		<text x="9.50" y="23.50" font-family="Helvetica" font-size="10" fill="#ffffff" >KCTD19</text>
		<polygon fill="#0000ff" fill-opacity="0.20" shape-rendering="crispEdges" points="68.07,31.00 68.07,153.01 7.01,153.01 7.01,31.00 " />
		<line x1="7.01" y1="152.00" x2="7.01" y2="31.00" stroke="#0000ff" stroke-opacity="0.40" stroke-width="1.00" />
		<line x1="68.07" y1="152.00" x2="68.07" y2="31.00" stroke="#0000ff" stroke-opacity="0.40" stroke-width="1.00" />
		<polygon fill="#e5e5e5" shape-rendering="crispEdges" points="994.00,13.00 994.00,-1.00 0.00,-1.00 0.00,13.00 " />
		<text x="0.00" y="10.00" font-family="Helvetica Bold" font-size="12" text-anchor="start" fill="#000000" >OX365975.1:1005642..1945593 Vipera ursinii genome assembly, chromosome: 10</text>
	</g>
</svg>
