<?xml version="1.0" standalone="no" ?>
<!DOCTYPE svg PUBLIC "-//W3C//DTD SVG 1.1//EN" "http://www.w3.org/Graphics/SVG/1.1/DTD/svg11.dtd">
<svg width="994px" height="233px" xmlns="http://www.w3.org/2000/svg" version="1.1" viewBox="0 0 994 233" >
	<style type="text/css" > <![CDATA[
		@import url("https://www.ncbi.nlm.nih.gov/projects/sviewer/css/svg_fonts.css");
	]]>
	</style>
	<desc >Generated by NCBI Genome Workbench http://www.ncbi.nlm.nih.gov/tools/gbench/</desc>
	<defs >
		<clipPath id="clipping-rect1" >
			<rect x="0" y="14" width="994" height="18" />
		</clipPath>
		<clipPath id="clipping-rect2" >
			<rect x="0" y="32" width="994" height="201" />
		</clipPath>
	</defs>
	<g >
		<polygon fill="#ffffff" shape-rendering="crispEdges" points="994.00,31.00 994.00,13.00 0.00,13.00 0.00,31.00 " />
		<line x1="0.00" y1="29.00" x2="994.00" y2="29.00" stroke="#7f7f7f" stroke-width="1.00" clip-path="url('#clipping-rect1')" />
		<line x1="989.39" y1="29.00" x2="989.39" y2="27.00" stroke="#7f7f7f" stroke-width="1.00" clip-path="url('#clipping-rect1')" />
		<line x1="978.82" y1="29.00" x2="978.82" y2="27.00" stroke="#7f7f7f" stroke-width="1.00" clip-path="url('#clipping-rect1')" />
		<line x1="968.24" y1="29.00" x2="968.24" y2="27.00" stroke="#7f7f7f" stroke-width="1.00" clip-path="url('#clipping-rect1')" />
		<line x1="957.67" y1="29.00" x2="957.67" y2="27.00" stroke="#7f7f7f" stroke-width="1.00" clip-path="url('#clipping-rect1')" />
		<line x1="947.09" y1="29.00" x2="947.09" y2="27.00" stroke="#7f7f7f" stroke-width="1.00" clip-path="url('#clipping-rect1')" />
		<line x1="936.52" y1="29.00" x2="936.52" y2="27.00" stroke="#7f7f7f" stroke-width="1.00" clip-path="url('#clipping-rect1')" />
		<line x1="925.94" y1="29.00" x2="925.94" y2="27.00" stroke="#7f7f7f" stroke-width="1.00" clip-path="url('#clipping-rect1')" />
		<line x1="915.37" y1="29.00" x2="915.37" y2="27.00" stroke="#7f7f7f" stroke-width="1.00" clip-path="url('#clipping-rect1')" />
		<line x1="904.79" y1="29.00" x2="904.79" y2="27.00" stroke="#7f7f7f" stroke-width="1.00" clip-path="url('#clipping-rect1')" />
		<line x1="894.22" y1="29.00" x2="894.22" y2="26.00" stroke="#7f7f7f" stroke-width="1.00" clip-path="url('#clipping-rect1')" />
		<line x1="883.64" y1="29.00" x2="883.64" y2="27.00" stroke="#7f7f7f" stroke-width="1.00" clip-path="url('#clipping-rect1')" />
		<line x1="873.07" y1="29.00" x2="873.07" y2="27.00" stroke="#7f7f7f" stroke-width="1.00" clip-path="url('#clipping-rect1')" />
		<line x1="862.49" y1="29.00" x2="862.49" y2="27.00" stroke="#7f7f7f" stroke-width="1.00" clip-path="url('#clipping-rect1')" />
		<line x1="851.92" y1="29.00" x2="851.92" y2="27.00" stroke="#7f7f7f" stroke-width="1.00" clip-path="url('#clipping-rect1')" />
		<line x1="841.34" y1="29.00" x2="841.34" y2="27.00" stroke="#7f7f7f" stroke-width="1.00" clip-path="url('#clipping-rect1')" />
		<line x1="830.77" y1="29.00" x2="830.77" y2="27.00" stroke="#7f7f7f" stroke-width="1.00" clip-path="url('#clipping-rect1')" />
		<line x1="820.19" y1="29.00" x2="820.19" y2="27.00" stroke="#7f7f7f" stroke-width="1.00" clip-path="url('#clipping-rect1')" />
		<line x1="809.62" y1="29.00" x2="809.62" y2="27.00" stroke="#7f7f7f" stroke-width="1.00" clip-path="url('#clipping-rect1')" />
		<line x1="799.04" y1="29.00" x2="799.04" y2="27.00" stroke="#7f7f7f" stroke-width="1.00" clip-path="url('#clipping-rect1')" />
		<line x1="788.47" y1="29.00" x2="788.47" y2="26.00" stroke="#7f7f7f" stroke-width="1.00" clip-path="url('#clipping-rect1')" />
		<line x1="777.89" y1="29.00" x2="777.89" y2="27.00" stroke="#7f7f7f" stroke-width="1.00" clip-path="url('#clipping-rect1')" />
		<line x1="767.32" y1="29.00" x2="767.32" y2="27.00" stroke="#7f7f7f" stroke-width="1.00" clip-path="url('#clipping-rect1')" />
		<line x1="756.74" y1="29.00" x2="756.74" y2="27.00" stroke="#7f7f7f" stroke-width="1.00" clip-path="url('#clipping-rect1')" />
		<line x1="746.17" y1="29.00" x2="746.17" y2="27.00" stroke="#7f7f7f" stroke-width="1.00" clip-path="url('#clipping-rect1')" />
		<line x1="735.59" y1="29.00" x2="735.59" y2="27.00" stroke="#7f7f7f" stroke-width="1.00" clip-path="url('#clipping-rect1')" />
		<line x1="725.02" y1="29.00" x2="725.02" y2="27.00" stroke="#7f7f7f" stroke-width="1.00" clip-path="url('#clipping-rect1')" />
		<line x1="714.44" y1="29.00" x2="714.44" y2="27.00" stroke="#7f7f7f" stroke-width="1.00" clip-path="url('#clipping-rect1')" />
		<line x1="703.87" y1="29.00" x2="703.87" y2="27.00" stroke="#7f7f7f" stroke-width="1.00" clip-path="url('#clipping-rect1')" />
		<line x1="693.29" y1="29.00" x2="693.29" y2="27.00" stroke="#7f7f7f" stroke-width="1.00" clip-path="url('#clipping-rect1')" />
		<line x1="682.72" y1="29.00" x2="682.72" y2="26.00" stroke="#7f7f7f" stroke-width="1.00" clip-path="url('#clipping-rect1')" />
		<line x1="672.14" y1="29.00" x2="672.14" y2="27.00" stroke="#7f7f7f" stroke-width="1.00" clip-path="url('#clipping-rect1')" />
		<line x1="661.57" y1="29.00" x2="661.57" y2="27.00" stroke="#7f7f7f" stroke-width="1.00" clip-path="url('#clipping-rect1')" />
		<line x1="650.99" y1="29.00" x2="650.99" y2="27.00" stroke="#7f7f7f" stroke-width="1.00" clip-path="url('#clipping-rect1')" />
		<line x1="640.42" y1="29.00" x2="640.42" y2="27.00" stroke="#7f7f7f" stroke-width="1.00" clip-path="url('#clipping-rect1')" />
		<line x1="629.84" y1="29.00" x2="629.84" y2="27.00" stroke="#7f7f7f" stroke-width="1.00" clip-path="url('#clipping-rect1')" />
		<line x1="619.27" y1="29.00" x2="619.27" y2="27.00" stroke="#7f7f7f" stroke-width="1.00" clip-path="url('#clipping-rect1')" />
		<line x1="608.69" y1="29.00" x2="608.69" y2="27.00" stroke="#7f7f7f" stroke-width="1.00" clip-path="url('#clipping-rect1')" />
		<line x1="598.12" y1="29.00" x2="598.12" y2="27.00" stroke="#7f7f7f" stroke-width="1.00" clip-path="url('#clipping-rect1')" />
		<line x1="587.54" y1="29.00" x2="587.54" y2="27.00" stroke="#7f7f7f" stroke-width="1.00" clip-path="url('#clipping-rect1')" />
		<line x1="576.97" y1="29.00" x2="576.97" y2="26.00" stroke="#7f7f7f" stroke-width="1.00" clip-path="url('#clipping-rect1')" />
		<line x1="566.39" y1="29.00" x2="566.39" y2="27.00" stroke="#7f7f7f" stroke-width="1.00" clip-path="url('#clipping-rect1')" />
		<line x1="555.82" y1="29.00" x2="555.82" y2="27.00" stroke="#7f7f7f" stroke-width="1.00" clip-path="url('#clipping-rect1')" />
		<line x1="545.24" y1="29.00" x2="545.24" y2="27.00" stroke="#7f7f7f" stroke-width="1.00" clip-path="url('#clipping-rect1')" />
		<line x1="534.67" y1="29.00" x2="534.67" y2="27.00" stroke="#7f7f7f" stroke-width="1.00" clip-path="url('#clipping-rect1')" />
		<line x1="524.09" y1="29.00" x2="524.09" y2="27.00" stroke="#7f7f7f" stroke-width="1.00" clip-path="url('#clipping-rect1')" />
		<line x1="513.52" y1="29.00" x2="513.52" y2="27.00" stroke="#7f7f7f" stroke-width="1.00" clip-path="url('#clipping-rect1')" />
		<line x1="502.94" y1="29.00" x2="502.94" y2="27.00" stroke="#7f7f7f" stroke-width="1.00" clip-path="url('#clipping-rect1')" />
		<line x1="492.37" y1="29.00" x2="492.37" y2="27.00" stroke="#7f7f7f" stroke-width="1.00" clip-path="url('#clipping-rect1')" />
		<line x1="481.79" y1="29.00" x2="481.79" y2="27.00" stroke="#7f7f7f" stroke-width="1.00" clip-path="url('#clipping-rect1')" />
		<line x1="471.22" y1="29.00" x2="471.22" y2="26.00" stroke="#7f7f7f" stroke-width="1.00" clip-path="url('#clipping-rect1')" />
		<line x1="460.64" y1="29.00" x2="460.64" y2="27.00" stroke="#7f7f7f" stroke-width="1.00" clip-path="url('#clipping-rect1')" />
		<line x1="450.07" y1="29.00" x2="450.07" y2="27.00" stroke="#7f7f7f" stroke-width="1.00" clip-path="url('#clipping-rect1')" />
		<line x1="439.49" y1="29.00" x2="439.49" y2="27.00" stroke="#7f7f7f" stroke-width="1.00" clip-path="url('#clipping-rect1')" />
		<line x1="428.92" y1="29.00" x2="428.92" y2="27.00" stroke="#7f7f7f" stroke-width="1.00" clip-path="url('#clipping-rect1')" />
		<line x1="418.34" y1="29.00" x2="418.34" y2="27.00" stroke="#7f7f7f" stroke-width="1.00" clip-path="url('#clipping-rect1')" />
		<line x1="407.77" y1="29.00" x2="407.77" y2="27.00" stroke="#7f7f7f" stroke-width="1.00" clip-path="url('#clipping-rect1')" />
		<line x1="397.19" y1="29.00" x2="397.19" y2="27.00" stroke="#7f7f7f" stroke-width="1.00" clip-path="url('#clipping-rect1')" />
		<line x1="386.62" y1="29.00" x2="386.62" y2="27.00" stroke="#7f7f7f" stroke-width="1.00" clip-path="url('#clipping-rect1')" />
		<line x1="376.04" y1="29.00" x2="376.04" y2="27.00" stroke="#7f7f7f" stroke-width="1.00" clip-path="url('#clipping-rect1')" />
		<line x1="365.47" y1="29.00" x2="365.47" y2="26.00" stroke="#7f7f7f" stroke-width="1.00" clip-path="url('#clipping-rect1')" />
		<line x1="354.89" y1="29.00" x2="354.89" y2="27.00" stroke="#7f7f7f" stroke-width="1.00" clip-path="url('#clipping-rect1')" />
		<line x1="344.32" y1="29.00" x2="344.32" y2="27.00" stroke="#7f7f7f" stroke-width="1.00" clip-path="url('#clipping-rect1')" />
		<line x1="333.74" y1="29.00" x2="333.74" y2="27.00" stroke="#7f7f7f" stroke-width="1.00" clip-path="url('#clipping-rect1')" />
		<line x1="323.17" y1="29.00" x2="323.17" y2="27.00" stroke="#7f7f7f" stroke-width="1.00" clip-path="url('#clipping-rect1')" />
		<line x1="312.59" y1="29.00" x2="312.59" y2="27.00" stroke="#7f7f7f" stroke-width="1.00" clip-path="url('#clipping-rect1')" />
		<line x1="302.02" y1="29.00" x2="302.02" y2="27.00" stroke="#7f7f7f" stroke-width="1.00" clip-path="url('#clipping-rect1')" />
		<line x1="291.44" y1="29.00" x2="291.44" y2="27.00" stroke="#7f7f7f" stroke-width="1.00" clip-path="url('#clipping-rect1')" />
		<line x1="280.87" y1="29.00" x2="280.87" y2="27.00" stroke="#7f7f7f" stroke-width="1.00" clip-path="url('#clipping-rect1')" />
		<line x1="270.29" y1="29.00" x2="270.29" y2="27.00" stroke="#7f7f7f" stroke-width="1.00" clip-path="url('#clipping-rect1')" />
		<line x1="259.72" y1="29.00" x2="259.72" y2="26.00" stroke="#7f7f7f" stroke-width="1.00" clip-path="url('#clipping-rect1')" />
		<line x1="249.14" y1="29.00" x2="249.14" y2="27.00" stroke="#7f7f7f" stroke-width="1.00" clip-path="url('#clipping-rect1')" />
		<line x1="238.57" y1="29.00" x2="238.57" y2="27.00" stroke="#7f7f7f" stroke-width="1.00" clip-path="url('#clipping-rect1')" />
		<line x1="227.99" y1="29.00" x2="227.99" y2="27.00" stroke="#7f7f7f" stroke-width="1.00" clip-path="url('#clipping-rect1')" />
		<line x1="217.42" y1="29.00" x2="217.42" y2="27.00" stroke="#7f7f7f" stroke-width="1.00" clip-path="url('#clipping-rect1')" />
		<line x1="206.84" y1="29.00" x2="206.84" y2="27.00" stroke="#7f7f7f" stroke-width="1.00" clip-path="url('#clipping-rect1')" />
		<line x1="196.27" y1="29.00" x2="196.27" y2="27.00" stroke="#7f7f7f" stroke-width="1.00" clip-path="url('#clipping-rect1')" />
		<line x1="185.69" y1="29.00" x2="185.69" y2="27.00" stroke="#7f7f7f" stroke-width="1.00" clip-path="url('#clipping-rect1')" />
		<line x1="175.12" y1="29.00" x2="175.12" y2="27.00" stroke="#7f7f7f" stroke-width="1.00" clip-path="url('#clipping-rect1')" />
		<line x1="164.54" y1="29.00" x2="164.54" y2="27.00" stroke="#7f7f7f" stroke-width="1.00" clip-path="url('#clipping-rect1')" />
		<line x1="153.97" y1="29.00" x2="153.97" y2="26.00" stroke="#7f7f7f" stroke-width="1.00" clip-path="url('#clipping-rect1')" />
		<line x1="143.39" y1="29.00" x2="143.39" y2="27.00" stroke="#7f7f7f" stroke-width="1.00" clip-path="url('#clipping-rect1')" />
		<line x1="132.82" y1="29.00" x2="132.82" y2="27.00" stroke="#7f7f7f" stroke-width="1.00" clip-path="url('#clipping-rect1')" />
		<line x1="122.24" y1="29.00" x2="122.24" y2="27.00" stroke="#7f7f7f" stroke-width="1.00" clip-path="url('#clipping-rect1')" />
		<line x1="111.67" y1="29.00" x2="111.67" y2="27.00" stroke="#7f7f7f" stroke-width="1.00" clip-path="url('#clipping-rect1')" />
		<line x1="101.09" y1="29.00" x2="101.09" y2="27.00" stroke="#7f7f7f" stroke-width="1.00" clip-path="url('#clipping-rect1')" />
		<line x1="90.52" y1="29.00" x2="90.52" y2="27.00" stroke="#7f7f7f" stroke-width="1.00" clip-path="url('#clipping-rect1')" />
		<line x1="79.94" y1="29.00" x2="79.94" y2="27.00" stroke="#7f7f7f" stroke-width="1.00" clip-path="url('#clipping-rect1')" />
		<line x1="69.37" y1="29.00" x2="69.37" y2="27.00" stroke="#7f7f7f" stroke-width="1.00" clip-path="url('#clipping-rect1')" />
		<line x1="58.79" y1="29.00" x2="58.79" y2="27.00" stroke="#7f7f7f" stroke-width="1.00" clip-path="url('#clipping-rect1')" />
		<line x1="48.22" y1="29.00" x2="48.22" y2="26.00" stroke="#7f7f7f" stroke-width="1.00" clip-path="url('#clipping-rect1')" />
		<line x1="37.64" y1="29.00" x2="37.64" y2="27.00" stroke="#7f7f7f" stroke-width="1.00" clip-path="url('#clipping-rect1')" />
		<line x1="27.07" y1="29.00" x2="27.07" y2="27.00" stroke="#7f7f7f" stroke-width="1.00" clip-path="url('#clipping-rect1')" />
		<line x1="16.49" y1="29.00" x2="16.49" y2="27.00" stroke="#7f7f7f" stroke-width="1.00" clip-path="url('#clipping-rect1')" />
		<line x1="5.92" y1="29.00" x2="5.92" y2="27.00" stroke="#7f7f7f" stroke-width="1.00" clip-path="url('#clipping-rect1')" />
		<text x="896.22" y="24.00" font-family="Helvetica" font-size="10" fill="#333333" clip-path="url('#clipping-rect1')" >1,100 K</text>
		<line x1="894.22" y1="31.00" x2="894.22" y2="16.00" stroke="#7f7f7f" stroke-width="1.00" clip-path="url('#clipping-rect1')" />
		<text x="790.47" y="24.00" font-family="Helvetica" font-size="10" fill="#333333" clip-path="url('#clipping-rect1')" >1,200 K</text>
		<line x1="788.47" y1="31.00" x2="788.47" y2="16.00" stroke="#7f7f7f" stroke-width="1.00" clip-path="url('#clipping-rect1')" />
		<text x="684.72" y="24.00" font-family="Helvetica" font-size="10" fill="#333333" clip-path="url('#clipping-rect1')" >1,300 K</text>
		<line x1="682.72" y1="31.00" x2="682.72" y2="16.00" stroke="#7f7f7f" stroke-width="1.00" clip-path="url('#clipping-rect1')" />
		<text x="578.97" y="24.00" font-family="Helvetica" font-size="10" fill="#333333" clip-path="url('#clipping-rect1')" >1,400 K</text>
		<line x1="576.97" y1="31.00" x2="576.97" y2="16.00" stroke="#7f7f7f" stroke-width="1.00" clip-path="url('#clipping-rect1')" />
		<text x="473.22" y="24.00" font-family="Helvetica" font-size="10" fill="#333333" clip-path="url('#clipping-rect1')" >1,500 K</text>
		<line x1="471.22" y1="31.00" x2="471.22" y2="16.00" stroke="#7f7f7f" stroke-width="1.00" clip-path="url('#clipping-rect1')" />
		<text x="367.47" y="24.00" font-family="Helvetica" font-size="10" fill="#333333" clip-path="url('#clipping-rect1')" >1,600 K</text>
		<line x1="365.47" y1="31.00" x2="365.47" y2="16.00" stroke="#7f7f7f" stroke-width="1.00" clip-path="url('#clipping-rect1')" />
		<text x="261.72" y="24.00" font-family="Helvetica" font-size="10" fill="#333333" clip-path="url('#clipping-rect1')" >1,700 K</text>
		<line x1="259.72" y1="31.00" x2="259.72" y2="16.00" stroke="#7f7f7f" stroke-width="1.00" clip-path="url('#clipping-rect1')" />
		<text x="155.97" y="24.00" font-family="Helvetica" font-size="10" fill="#333333" clip-path="url('#clipping-rect1')" >1,800 K</text>
		<line x1="153.97" y1="31.00" x2="153.97" y2="16.00" stroke="#7f7f7f" stroke-width="1.00" clip-path="url('#clipping-rect1')" />
		<text x="50.22" y="24.00" font-family="Helvetica" font-size="10" fill="#333333" clip-path="url('#clipping-rect1')" >1,900 K</text>
		<line x1="48.22" y1="31.00" x2="48.22" y2="16.00" stroke="#7f7f7f" stroke-width="1.00" clip-path="url('#clipping-rect1')" />
		<line x1="894.90" y1="232.00" x2="894.90" y2="31.00" stroke="#ebebeb" stroke-width="1.00" />
		<line x1="788.79" y1="232.00" x2="788.79" y2="31.00" stroke="#ebebeb" stroke-width="1.00" />
		<line x1="682.69" y1="232.00" x2="682.69" y2="31.00" stroke="#ebebeb" stroke-width="1.00" />
		<line x1="576.58" y1="232.00" x2="576.58" y2="31.00" stroke="#ebebeb" stroke-width="1.00" />
		<line x1="471.47" y1="232.00" x2="471.47" y2="31.00" stroke="#ebebeb" stroke-width="1.00" />
		<line x1="365.37" y1="232.00" x2="365.37" y2="31.00" stroke="#ebebeb" stroke-width="1.00" />
		<line x1="259.26" y1="232.00" x2="259.26" y2="31.00" stroke="#ebebeb" stroke-width="1.00" />
		<line x1="153.15" y1="232.00" x2="153.15" y2="31.00" stroke="#ebebeb" stroke-width="1.00" />
		<line x1="48.05" y1="232.00" x2="48.05" y2="31.00" stroke="#ebebeb" stroke-width="1.00" />
		<polygon fill="#6c6c6c" shape-rendering="crispEdges" points="0.00,42.00 0.00,33.00 994.00,33.00 994.00,42.00 " />
		<line x1="994.00" y1="42.00" x2="994.00" y2="33.00" stroke="#6c6c6c" stroke-width="1.00" stroke-linejoin="round" />
		<line x1="994.00" y1="33.00" x2="0.00" y2="33.00" stroke="#6c6c6c" stroke-width="1.00" stroke-linejoin="round" />
		<line x1="0.00" y1="33.00" x2="0.00" y2="42.00" stroke="#6c6c6c" stroke-width="1.00" stroke-linejoin="round" />
		<line x1="994.00" y1="42.00" x2="0.00" y2="42.00" stroke="#6c6c6c" stroke-width="1.00" stroke-linejoin="round" />
		<line x1="218.35" y1="76.00" x2="176.28" y2="76.00" stroke="#124d94" stroke-width="1.00" />
		<polygon fill="#dc8888" shape-rendering="crispEdges" points="217.00,71.00 217.00,81.00 218.00,81.00 218.00,71.00 " />
		<polygon fill="#dc8a8a" shape-rendering="crispEdges" points="216.00,71.00 216.00,81.00 217.00,81.00 217.00,71.00 " />
		<polygon fill="#dc8b8b" shape-rendering="crispEdges" points="215.00,71.00 215.00,81.00 216.00,81.00 216.00,71.00 " />
		<polygon fill="#dd8787" shape-rendering="crispEdges" points="212.00,71.00 212.00,81.00 213.00,81.00 213.00,71.00 " />
		<polygon fill="#da9191" shape-rendering="crispEdges" points="211.00,71.00 211.00,81.00 212.00,81.00 212.00,71.00 " />
		<polygon fill="#da9090" shape-rendering="crispEdges" points="210.00,71.00 210.00,81.00 211.00,81.00 211.00,71.00 " />
		<polygon fill="#db8f8f" shape-rendering="crispEdges" points="209.00,71.00 209.00,81.00 210.00,81.00 210.00,71.00 " />
		<polygon fill="#da9191" shape-rendering="crispEdges" points="208.00,71.00 208.00,81.00 209.00,81.00 209.00,71.00 " />
		<polygon fill="#da9393" shape-rendering="crispEdges" points="206.00,71.00 206.00,81.00 207.00,81.00 207.00,71.00 " />
		<polygon fill="#d99494" shape-rendering="crispEdges" points="205.00,71.00 205.00,81.00 206.00,81.00 206.00,71.00 " />
		<polygon fill="#db8e8e" shape-rendering="crispEdges" points="204.00,71.00 204.00,81.00 205.00,81.00 205.00,71.00 " />
		<polygon fill="#da9292" shape-rendering="crispEdges" points="203.00,71.00 203.00,81.00 204.00,81.00 204.00,71.00 " />
		<polygon fill="#db8f8f" shape-rendering="crispEdges" points="202.00,71.00 202.00,81.00 203.00,81.00 203.00,71.00 " />
		<polygon fill="#da9090" shape-rendering="crispEdges" points="193.00,71.00 193.00,81.00 194.00,81.00 194.00,71.00 " />
		<polygon fill="#db8d8d" shape-rendering="crispEdges" points="189.00,71.00 189.00,81.00 190.00,81.00 190.00,71.00 " />
		<polygon fill="#db8e8e" shape-rendering="crispEdges" points="188.00,71.00 188.00,81.00 189.00,81.00 189.00,71.00 " />
		<polygon fill="#da9393" shape-rendering="crispEdges" points="187.00,71.00 187.00,81.00 188.00,81.00 188.00,71.00 " />
		<polygon fill="#da9090" shape-rendering="crispEdges" points="186.00,71.00 186.00,81.00 187.00,81.00 187.00,71.00 " />
		<polygon fill="#da9191" shape-rendering="crispEdges" points="183.00,71.00 183.00,81.00 184.00,81.00 184.00,71.00 " />
		<polygon fill="#db8e8e" shape-rendering="crispEdges" points="180.00,71.00 180.00,81.00 181.00,81.00 181.00,71.00 " />
		<polygon fill="#dc8b8b" shape-rendering="crispEdges" points="176.00,71.00 176.00,81.00 177.00,81.00 177.00,71.00 " />
		<line x1="235.35" y1="71.00" x2="235.35" y2="81.00" stroke="#ff7f7f" stroke-width="1.00" />
		<line x1="235.35" y1="81.00" x2="223.35" y2="81.00" stroke="#ff7f7f" stroke-width="1.00" />
		<line x1="223.35" y1="81.00" x2="223.35" y2="71.00" stroke="#ff7f7f" stroke-width="1.00" />
		<line x1="235.35" y1="71.00" x2="223.35" y2="71.00" stroke="#ff7f7f" stroke-width="1.00" />
		<line x1="235.35" y1="81.00" x2="231.35" y2="71.00" stroke="#ff0000" stroke-width="1.00" />
		<line x1="231.35" y1="71.00" x2="230.35" y2="81.00" stroke="#ff0000" stroke-width="1.00" />
		<line x1="230.35" y1="81.00" x2="228.35" y2="71.00" stroke="#ff0000" stroke-width="1.00" />
		<line x1="228.35" y1="71.00" x2="227.35" y2="81.00" stroke="#ff0000" stroke-width="1.00" />
		<line x1="227.35" y1="81.00" x2="223.35" y2="71.00" stroke="#ff0000" stroke-width="1.00" />
		<text x="240.35" y="79.00" font-family="Helvetica" font-size="10" fill="#124d94" >10</text>
		<line x1="195.32" y1="80.00" x2="199.32" y2="76.00" stroke="#000000" stroke-width="1.00" />
		<line x1="199.32" y1="76.00" x2="195.32" y2="72.00" stroke="#000000" stroke-width="1.00" />
		<text x="176.96" y="68.00" font-family="Helvetica" font-size="10" fill="#124d94" >XM_02671433...</text>
		<polygon fill="#b6dead" shape-rendering="crispEdges" points="994.00,44.00 994.00,58.00 0.00,58.00 0.00,44.00 " clip-path="url('#clipping-rect2')" />
		<text x="0.00" y="54.00" font-family="Helvetica" font-size="12" fill="#333333" >(U) Alignment for group templates, BLAST Results for: ref|XM_026714332.1|  </text>
		<line x1="68.33" y1="116.00" x2="6.14" y2="116.00" stroke="#124d94" stroke-width="1.00" />
		<polygon fill="#db8f8f" shape-rendering="crispEdges" points="67.00,111.00 67.00,121.00 68.00,121.00 68.00,111.00 " />
		<polygon fill="#dc8a8a" shape-rendering="crispEdges" points="66.00,111.00 66.00,121.00 67.00,121.00 67.00,111.00 " />
		<polygon fill="#dc8888" shape-rendering="crispEdges" points="64.00,111.00 64.00,121.00 65.00,121.00 65.00,111.00 " />
		<polygon fill="#de8282" shape-rendering="crispEdges" points="11.00,111.00 11.00,121.00 12.00,121.00 12.00,111.00 " />
		<polygon fill="#da9191" shape-rendering="crispEdges" points="7.00,111.00 7.00,121.00 8.00,121.00 8.00,111.00 " />
		<polygon fill="#db8d8d" shape-rendering="crispEdges" points="6.00,111.00 6.00,121.00 7.00,121.00 7.00,111.00 " />
		<line x1="85.33" y1="111.00" x2="85.33" y2="121.00" stroke="#ff7f7f" stroke-width="1.00" />
		<line x1="85.33" y1="121.00" x2="73.33" y2="121.00" stroke="#ff7f7f" stroke-width="1.00" />
		<line x1="73.33" y1="121.00" x2="73.33" y2="111.00" stroke="#ff7f7f" stroke-width="1.00" />
		<line x1="85.33" y1="111.00" x2="73.33" y2="111.00" stroke="#ff7f7f" stroke-width="1.00" />
		<line x1="85.33" y1="121.00" x2="81.33" y2="111.00" stroke="#ff0000" stroke-width="1.00" />
		<line x1="81.33" y1="111.00" x2="80.33" y2="121.00" stroke="#ff0000" stroke-width="1.00" />
		<line x1="80.33" y1="121.00" x2="78.33" y2="111.00" stroke="#ff0000" stroke-width="1.00" />
		<line x1="78.33" y1="111.00" x2="77.33" y2="121.00" stroke="#ff0000" stroke-width="1.00" />
		<line x1="77.33" y1="121.00" x2="73.33" y2="111.00" stroke="#ff0000" stroke-width="1.00" />
		<text x="90.33" y="119.00" font-family="Helvetica" font-size="10" fill="#124d94" >58</text>
		<line x1="39.24" y1="120.00" x2="35.24" y2="116.00" stroke="#000000" stroke-width="1.00" />
		<line x1="35.24" y1="116.00" x2="39.24" y2="112.00" stroke="#000000" stroke-width="1.00" />
		<text x="15.07" y="108.00" font-family="Helvetica" font-size="10" fill="#124d94" >XM_026714407.1</text>
		<polygon fill="#b6dead" shape-rendering="crispEdges" points="994.00,84.00 994.00,98.00 0.00,98.00 0.00,84.00 " clip-path="url('#clipping-rect2')" />
		<text x="0.00" y="94.00" font-family="Helvetica" font-size="12" fill="#333333" >(U) Alignment for group templates, BLAST Results for: XM_026714407:PREDICTED: Pseudonaja textilis...</text>
		<polygon fill="#166e32" shape-rendering="crispEdges" points="829.34,143.00 829.34,153.00 978.46,153.00 978.46,143.00 " />
		<polygon fill="#ffffff" shape-rendering="crispEdges" points="949.90,148.00 957.90,144.00 955.90,148.00 957.90,152.00 " />
		<polygon fill="#e0e0e0" shape-rendering="crispEdges" points="849.90,148.00 857.90,144.00 855.90,148.00 857.90,152.00 " />
		<polygon fill="#166e32" shape-rendering="crispEdges" points="787.72,158.00 787.72,168.00 814.44,168.00 814.44,158.00 " />
		<polygon fill="#ffffff" shape-rendering="crispEdges" points="805.08,163.00 797.08,159.00 799.08,163.00 797.08,167.00 " />
		<polygon fill="#ffffff" shape-rendering="crispEdges" points="683.96,169.00 683.96,157.00 782.72,157.00 782.72,169.00 " />
		<text x="683.96" y="166.50" font-family="Helvetica" font-size="10" fill="#124d94" >ENSIIAG00005011911</text>
		<polygon fill="#166e32" shape-rendering="crispEdges" points="774.39,173.00 774.39,183.00 786.15,183.00 786.15,173.00 " />
		<polygon fill="#ffffff" shape-rendering="crispEdges" points="669.00,184.00 669.00,172.00 769.39,172.00 769.39,184.00 " />
		<text x="669.00" y="181.50" font-family="Helvetica" font-size="10" fill="#124d94" >ENSIIAG00005013299</text>
		<polygon fill="#166e32" shape-rendering="crispEdges" points="726.56,188.00 726.56,198.00 731.98,198.00 731.98,188.00 " />
		<polygon fill="#ffffff" shape-rendering="crispEdges" points="622.79,199.00 622.79,187.00 721.56,187.00 721.56,199.00 " />
		<text x="622.79" y="196.50" font-family="Helvetica" font-size="10" fill="#124d94" >ENSIIAG00005004661</text>
		<polygon fill="#166e32" shape-rendering="crispEdges" points="346.03,143.00 346.03,153.00 716.44,153.00 716.44,143.00 " />
		<polygon fill="#ffffff" shape-rendering="crispEdges" points="677.24,148.00 685.24,144.00 683.24,148.00 685.24,152.00 " />
		<polygon fill="#e0e0e0" shape-rendering="crispEdges" points="577.24,148.00 585.24,144.00 583.24,148.00 585.24,152.00 " />
		<polygon fill="#c1c1c1" shape-rendering="crispEdges" points="477.24,148.00 485.24,144.00 483.24,148.00 485.24,152.00 " />
		<polygon fill="#ffffff" shape-rendering="crispEdges" points="377.24,148.00 385.24,144.00 383.24,148.00 385.24,152.00 " />
		<text x="721.44" y="151.50" font-family="Helvetica" font-size="10" fill="#124d94" >ENSIIAG00005005008</text>
		<polygon fill="#166e32" shape-rendering="crispEdges" points="273.57,158.00 273.57,168.00 345.76,168.00 345.76,158.00 " />
		<polygon fill="#ffffff" shape-rendering="crispEdges" points="305.66,163.00 313.66,159.00 311.66,163.00 313.66,167.00 " />
		<text x="350.76" y="166.50" font-family="Helvetica" font-size="10" fill="#124d94" >ENSIIAG00005004760</text>
		<polygon fill="#166e32" shape-rendering="crispEdges" points="223.13,188.00 223.13,198.00 243.72,198.00 243.72,188.00 " />
		<polygon fill="#ffffff" shape-rendering="crispEdges" points="229.43,193.00 237.43,189.00 235.43,193.00 237.43,197.00 " />
		<text x="248.72" y="196.50" font-family="Helvetica" font-size="10" fill="#124d94" >ENSIIAG00005004975</text>
		<polygon fill="#166e32" shape-rendering="crispEdges" points="176.87,173.00 176.87,183.00 218.36,183.00 218.36,173.00 " />
		<polygon fill="#ffffff" shape-rendering="crispEdges" points="201.62,178.00 193.62,174.00 195.62,178.00 193.62,182.00 " />
		<polygon fill="#ffffff" shape-rendering="crispEdges" points="71.45,184.00 71.45,172.00 171.87,172.00 171.87,184.00 " />
		<text x="71.45" y="181.50" font-family="Helvetica" font-size="10" fill="#124d94" >ENSIIAG00005005146</text>
		<polygon fill="#166e32" shape-rendering="crispEdges" points="180.81,218.00 180.81,228.00 181.81,228.00 181.81,218.00 " />
		<line x1="181.81" y1="218.00" x2="181.81" y2="228.00" stroke="#166e32" stroke-width="1.00" stroke-linejoin="round" />
		<line x1="181.81" y1="228.00" x2="180.81" y2="228.00" stroke="#166e32" stroke-width="1.00" stroke-linejoin="round" />
		<line x1="180.81" y1="228.00" x2="180.81" y2="218.00" stroke="#166e32" stroke-width="1.00" stroke-linejoin="round" />
		<line x1="181.81" y1="218.00" x2="180.81" y2="218.00" stroke="#166e32" stroke-width="1.00" stroke-linejoin="round" />
		<polygon fill="#ffffff" shape-rendering="crispEdges" points="75.85,229.00 75.85,217.00 176.27,217.00 176.27,229.00 " />
		<text x="75.85" y="226.50" font-family="Helvetica" font-size="10" fill="#124d94" >ENSIIAG00005014556</text>
		<polygon fill="#166e32" shape-rendering="crispEdges" points="144.58,203.00 144.58,213.00 177.02,213.00 177.02,203.00 " />
		<polygon fill="#ffffff" shape-rendering="crispEdges" points="156.80,208.00 164.80,204.00 162.80,208.00 164.80,212.00 " />
		<text x="182.02" y="211.50" font-family="Helvetica" font-size="10" fill="#124d94" >ENSIIAG00005005311</text>
		<polygon fill="#166e32" shape-rendering="crispEdges" points="117.31,158.00 117.31,168.00 143.14,168.00 143.14,158.00 " />
		<polygon fill="#ffffff" shape-rendering="crispEdges" points="134.22,163.00 126.22,159.00 128.22,163.00 126.22,167.00 " />
		<polygon fill="#ffffff" shape-rendering="crispEdges" points="11.90,169.00 11.90,157.00 112.31,157.00 112.31,169.00 " />
		<text x="11.90" y="166.50" font-family="Helvetica" font-size="10" fill="#124d94" >ENSIIAG00005006372</text>
		<polygon fill="#166e32" shape-rendering="crispEdges" points="83.48,188.00 83.48,198.00 99.14,198.00 99.14,188.00 " />
		<polygon fill="#ffffff" shape-rendering="crispEdges" points="87.31,193.00 95.31,189.00 93.31,193.00 95.31,197.00 " />
		<text x="104.14" y="196.50" font-family="Helvetica" font-size="10" fill="#124d94" >ENSIIAG00005006278</text>
		<polygon fill="#166e32" shape-rendering="crispEdges" points="6.13,143.00 6.13,153.00 67.63,153.00 67.63,143.00 " />
		<polygon fill="#ffffff" shape-rendering="crispEdges" points="32.88,148.00 40.88,144.00 38.88,148.00 40.88,152.00 " />
		<text x="72.63" y="151.50" font-family="Helvetica" font-size="10" fill="#124d94" >ENSIIAG00005006587</text>
		<polygon fill="#e6e6e6" fill-opacity="0.71" shape-rendering="crispEdges" points="994.00,124.00 994.00,138.00 0.00,138.00 0.00,124.00 " clip-path="url('#clipping-rect2')" />
		<text x="0.00" y="134.00" font-family="Helvetica" font-size="12" fill="#333333" >Genes, Ensembl Rapid release 2024-12</text>
		<polygon fill="#0000ff" fill-opacity="0.20" shape-rendering="crispEdges" points="218.50,23.10 218.50,31.50 176.50,31.50 176.50,23.10 " />
		<line x1="176.50" y1="30.50" x2="176.50" y2="23.10" stroke="#0000ff" stroke-opacity="0.40" stroke-width="1.00" />
		<line x1="218.50" y1="30.50" x2="218.50" y2="23.10" stroke="#0000ff" stroke-opacity="0.40" stroke-width="1.00" />
		<polygon fill="#0000ff" shape-rendering="crispEdges" points="170.79,22.35 170.50,20.50 170.79,18.65 171.65,16.97 172.97,15.65 174.65,14.79 176.50,14.50 176.50,26.50 174.65,26.21 172.97,25.35 171.65,24.03 " />
		<polygon fill="#0000ff" fill-opacity="0.60" shape-rendering="crispEdges" points="212.09,26.50 212.09,14.50 176.50,14.50 176.50,26.50 " />
		<text x="178.50" y="23.50" font-family="Helvetica" font-size="10" fill="#ffffff" >SF3B3</text>
		<polygon fill="#0000ff" fill-opacity="0.20" shape-rendering="crispEdges" points="218.22,31.00 218.22,233.01 176.18,233.01 176.18,31.00 " />
		<line x1="176.18" y1="232.00" x2="176.18" y2="31.00" stroke="#0000ff" stroke-opacity="0.40" stroke-width="1.00" />
		<line x1="218.22" y1="232.00" x2="218.22" y2="31.00" stroke="#0000ff" stroke-opacity="0.40" stroke-width="1.00" />
		<polygon fill="#0000ff" fill-opacity="0.20" shape-rendering="crispEdges" points="976.50,23.10 976.50,31.50 830.50,31.50 830.50,23.10 " />
		<line x1="830.50" y1="30.50" x2="830.50" y2="23.10" stroke="#0000ff" stroke-opacity="0.40" stroke-width="1.00" />
		<line x1="976.50" y1="30.50" x2="976.50" y2="23.10" stroke="#0000ff" stroke-opacity="0.40" stroke-width="1.00" />
		<polygon fill="#0000ff" shape-rendering="crispEdges" points="824.79,22.35 824.50,20.50 824.79,18.65 825.65,16.97 826.97,15.65 828.65,14.79 830.50,14.50 830.50,26.50 828.65,26.21 826.97,25.35 825.65,24.03 " />
		<polygon fill="#0000ff" fill-opacity="0.60" shape-rendering="crispEdges" points="867.81,26.50 867.81,14.50 830.50,14.50 830.50,26.50 " />
		<text x="832.50" y="23.50" font-family="Helvetica" font-size="10" fill="#ffffff" >CNOT1</text>
		<polygon fill="#0000ff" fill-opacity="0.20" shape-rendering="crispEdges" points="976.98,31.00 976.98,233.01 830.84,233.01 830.84,31.00 " />
		<line x1="830.84" y1="232.00" x2="830.84" y2="31.00" stroke="#0000ff" stroke-opacity="0.40" stroke-width="1.00" />
		<line x1="976.98" y1="232.00" x2="976.98" y2="31.00" stroke="#0000ff" stroke-opacity="0.40" stroke-width="1.00" />
		<polygon fill="#0000ff" fill-opacity="0.20" shape-rendering="crispEdges" points="68.50,23.10 68.50,31.50 7.50,31.50 7.50,23.10 " />
		<line x1="7.50" y1="30.50" x2="7.50" y2="23.10" stroke="#0000ff" stroke-opacity="0.40" stroke-width="1.00" />
		<line x1="68.50" y1="30.50" x2="68.50" y2="23.10" stroke="#0000ff" stroke-opacity="0.40" stroke-width="1.00" />
		<polygon fill="#0000ff" shape-rendering="crispEdges" points="1.79,22.35 1.50,20.50 1.79,18.65 2.65,16.97 3.97,15.65 5.65,14.79 7.50,14.50 7.50,26.50 5.65,26.21 3.97,25.35 2.65,24.03 " />
		<polygon fill="#0000ff" fill-opacity="0.60" shape-rendering="crispEdges" points="50.58,26.50 50.58,14.50 7.50,14.50 7.50,26.50 " />
		<text x="9.50" y="23.50" font-family="Helvetica" font-size="10" fill="#ffffff" >KCTD19</text>
		<polygon fill="#0000ff" fill-opacity="0.20" shape-rendering="crispEdges" points="68.07,31.00 68.07,233.01 7.01,233.01 7.01,31.00 " />
		<line x1="7.01" y1="232.00" x2="7.01" y2="31.00" stroke="#0000ff" stroke-opacity="0.40" stroke-width="1.00" />
		<line x1="68.07" y1="232.00" x2="68.07" y2="31.00" stroke="#0000ff" stroke-opacity="0.40" stroke-width="1.00" />
		<polygon fill="#e5e5e5" shape-rendering="crispEdges" points="994.00,13.00 994.00,-1.00 0.00,-1.00 0.00,13.00 " />
		<text x="0.00" y="10.00" font-family="Helvetica Bold" font-size="12" text-anchor="start" fill="#000000" >OX365975.1:1005642..1945593 Vipera ursinii genome assembly, chromosome: 10</text>
	</g>
</svg>
