<?xml version="1.0" standalone="no" ?>
<!DOCTYPE svg PUBLIC "-//W3C//DTD SVG 1.1//EN" "http://www.w3.org/Graphics/SVG/1.1/DTD/svg11.dtd">
<svg width="862px" height="265px" xmlns="http://www.w3.org/2000/svg" version="1.1" viewBox="0 0 862 265" >
	<style type="text/css" > <![CDATA[
		@import url("https://www.ncbi.nlm.nih.gov/projects/sviewer/css/svg_fonts.css");
	]]>
	</style>
	<desc >Generated by NCBI Genome Workbench http://www.ncbi.nlm.nih.gov/tools/gbench/</desc>
	<defs >
		<clipPath id="clipping-rect1" >
			<rect x="0" y="14" width="862" height="18" />
		</clipPath>
		<linearGradient id="gradient1" gradientTransform="rotate(90)" >
			<stop offset="0%" stop-color="#6c6c6c" />
			<stop offset="50%" stop-color="#b5b5b5" />
			<stop offset="100%" stop-color="#6c6c6c" />
		</linearGradient>
		<clipPath id="clipping-rect2" >
			<rect x="0" y="32" width="862" height="233" />
		</clipPath>
		<linearGradient id="gradient2" gradientTransform="rotate(90)" >
			<stop offset="0%" stop-color="#b6dead" />
			<stop offset="100%" stop-color="#ffffff" stop-opacity="0.00" />
		</linearGradient>
		<linearGradient id="gradient3" gradientTransform="rotate(90)" >
			<stop offset="0%" stop-color="#e6e6e6" stop-opacity="0.71" />
			<stop offset="100%" stop-color="#ffffff" stop-opacity="0.00" />
		</linearGradient>
	</defs>
	<g >
		<polygon fill="#ffffff" shape-rendering="crispEdges" points="862.00,31.00 862.00,13.00 0.00,13.00 0.00,31.00 " />
		<line x1="0.00" y1="28.88" x2="862.00" y2="28.88" stroke="#7f7f7f" stroke-width="1.00" clip-path="url('#clipping-rect1')" />
		<line x1="4.38" y1="28.88" x2="4.38" y2="26.76" stroke="#7f7f7f" stroke-width="1.00" clip-path="url('#clipping-rect1')" />
		<line x1="9.49" y1="28.88" x2="9.49" y2="26.76" stroke="#7f7f7f" stroke-width="1.00" clip-path="url('#clipping-rect1')" />
		<line x1="14.59" y1="28.88" x2="14.59" y2="26.76" stroke="#7f7f7f" stroke-width="1.00" clip-path="url('#clipping-rect1')" />
		<line x1="19.69" y1="28.88" x2="19.69" y2="26.76" stroke="#7f7f7f" stroke-width="1.00" clip-path="url('#clipping-rect1')" />
		<line x1="24.80" y1="28.88" x2="24.80" y2="26.76" stroke="#7f7f7f" stroke-width="1.00" clip-path="url('#clipping-rect1')" />
		<line x1="29.90" y1="28.88" x2="29.90" y2="26.76" stroke="#7f7f7f" stroke-width="1.00" clip-path="url('#clipping-rect1')" />
		<line x1="35.00" y1="28.88" x2="35.00" y2="26.76" stroke="#7f7f7f" stroke-width="1.00" clip-path="url('#clipping-rect1')" />
		<line x1="40.11" y1="28.88" x2="40.11" y2="26.76" stroke="#7f7f7f" stroke-width="1.00" clip-path="url('#clipping-rect1')" />
		<line x1="45.21" y1="28.88" x2="45.21" y2="26.76" stroke="#7f7f7f" stroke-width="1.00" clip-path="url('#clipping-rect1')" />
		<line x1="50.32" y1="28.88" x2="50.32" y2="25.71" stroke="#7f7f7f" stroke-width="1.00" clip-path="url('#clipping-rect1')" />
		<line x1="55.42" y1="28.88" x2="55.42" y2="26.76" stroke="#7f7f7f" stroke-width="1.00" clip-path="url('#clipping-rect1')" />
		<line x1="60.52" y1="28.88" x2="60.52" y2="26.76" stroke="#7f7f7f" stroke-width="1.00" clip-path="url('#clipping-rect1')" />
		<line x1="65.63" y1="28.88" x2="65.63" y2="26.76" stroke="#7f7f7f" stroke-width="1.00" clip-path="url('#clipping-rect1')" />
		<line x1="70.73" y1="28.88" x2="70.73" y2="26.76" stroke="#7f7f7f" stroke-width="1.00" clip-path="url('#clipping-rect1')" />
		<line x1="75.84" y1="28.88" x2="75.84" y2="26.76" stroke="#7f7f7f" stroke-width="1.00" clip-path="url('#clipping-rect1')" />
		<line x1="80.94" y1="28.88" x2="80.94" y2="26.76" stroke="#7f7f7f" stroke-width="1.00" clip-path="url('#clipping-rect1')" />
		<line x1="86.04" y1="28.88" x2="86.04" y2="26.76" stroke="#7f7f7f" stroke-width="1.00" clip-path="url('#clipping-rect1')" />
		<line x1="91.15" y1="28.88" x2="91.15" y2="26.76" stroke="#7f7f7f" stroke-width="1.00" clip-path="url('#clipping-rect1')" />
		<line x1="96.25" y1="28.88" x2="96.25" y2="26.76" stroke="#7f7f7f" stroke-width="1.00" clip-path="url('#clipping-rect1')" />
		<line x1="101.35" y1="28.88" x2="101.35" y2="25.71" stroke="#7f7f7f" stroke-width="1.00" clip-path="url('#clipping-rect1')" />
		<line x1="106.46" y1="28.88" x2="106.46" y2="26.76" stroke="#7f7f7f" stroke-width="1.00" clip-path="url('#clipping-rect1')" />
		<line x1="111.56" y1="28.88" x2="111.56" y2="26.76" stroke="#7f7f7f" stroke-width="1.00" clip-path="url('#clipping-rect1')" />
		<line x1="116.67" y1="28.88" x2="116.67" y2="26.76" stroke="#7f7f7f" stroke-width="1.00" clip-path="url('#clipping-rect1')" />
		<line x1="121.77" y1="28.88" x2="121.77" y2="26.76" stroke="#7f7f7f" stroke-width="1.00" clip-path="url('#clipping-rect1')" />
		<line x1="126.87" y1="28.88" x2="126.87" y2="26.76" stroke="#7f7f7f" stroke-width="1.00" clip-path="url('#clipping-rect1')" />
		<line x1="131.98" y1="28.88" x2="131.98" y2="26.76" stroke="#7f7f7f" stroke-width="1.00" clip-path="url('#clipping-rect1')" />
		<line x1="137.08" y1="28.88" x2="137.08" y2="26.76" stroke="#7f7f7f" stroke-width="1.00" clip-path="url('#clipping-rect1')" />
		<line x1="142.18" y1="28.88" x2="142.18" y2="26.76" stroke="#7f7f7f" stroke-width="1.00" clip-path="url('#clipping-rect1')" />
		<line x1="147.29" y1="28.88" x2="147.29" y2="26.76" stroke="#7f7f7f" stroke-width="1.00" clip-path="url('#clipping-rect1')" />
		<line x1="152.39" y1="28.88" x2="152.39" y2="25.71" stroke="#7f7f7f" stroke-width="1.00" clip-path="url('#clipping-rect1')" />
		<line x1="157.50" y1="28.88" x2="157.50" y2="26.76" stroke="#7f7f7f" stroke-width="1.00" clip-path="url('#clipping-rect1')" />
		<line x1="162.60" y1="28.88" x2="162.60" y2="26.76" stroke="#7f7f7f" stroke-width="1.00" clip-path="url('#clipping-rect1')" />
		<line x1="167.70" y1="28.88" x2="167.70" y2="26.76" stroke="#7f7f7f" stroke-width="1.00" clip-path="url('#clipping-rect1')" />
		<line x1="172.81" y1="28.88" x2="172.81" y2="26.76" stroke="#7f7f7f" stroke-width="1.00" clip-path="url('#clipping-rect1')" />
		<line x1="177.91" y1="28.88" x2="177.91" y2="26.76" stroke="#7f7f7f" stroke-width="1.00" clip-path="url('#clipping-rect1')" />
		<line x1="183.02" y1="28.88" x2="183.02" y2="26.76" stroke="#7f7f7f" stroke-width="1.00" clip-path="url('#clipping-rect1')" />
		<line x1="188.12" y1="28.88" x2="188.12" y2="26.76" stroke="#7f7f7f" stroke-width="1.00" clip-path="url('#clipping-rect1')" />
		<line x1="193.22" y1="28.88" x2="193.22" y2="26.76" stroke="#7f7f7f" stroke-width="1.00" clip-path="url('#clipping-rect1')" />
		<line x1="198.33" y1="28.88" x2="198.33" y2="26.76" stroke="#7f7f7f" stroke-width="1.00" clip-path="url('#clipping-rect1')" />
		<line x1="203.43" y1="28.88" x2="203.43" y2="25.71" stroke="#7f7f7f" stroke-width="1.00" clip-path="url('#clipping-rect1')" />
		<line x1="208.53" y1="28.88" x2="208.53" y2="26.76" stroke="#7f7f7f" stroke-width="1.00" clip-path="url('#clipping-rect1')" />
		<line x1="213.64" y1="28.88" x2="213.64" y2="26.76" stroke="#7f7f7f" stroke-width="1.00" clip-path="url('#clipping-rect1')" />
		<line x1="218.74" y1="28.88" x2="218.74" y2="26.76" stroke="#7f7f7f" stroke-width="1.00" clip-path="url('#clipping-rect1')" />
		<line x1="223.85" y1="28.88" x2="223.85" y2="26.76" stroke="#7f7f7f" stroke-width="1.00" clip-path="url('#clipping-rect1')" />
		<line x1="228.95" y1="28.88" x2="228.95" y2="26.76" stroke="#7f7f7f" stroke-width="1.00" clip-path="url('#clipping-rect1')" />
		<line x1="234.05" y1="28.88" x2="234.05" y2="26.76" stroke="#7f7f7f" stroke-width="1.00" clip-path="url('#clipping-rect1')" />
		<line x1="239.16" y1="28.88" x2="239.16" y2="26.76" stroke="#7f7f7f" stroke-width="1.00" clip-path="url('#clipping-rect1')" />
		<line x1="244.26" y1="28.88" x2="244.26" y2="26.76" stroke="#7f7f7f" stroke-width="1.00" clip-path="url('#clipping-rect1')" />
		<line x1="249.37" y1="28.88" x2="249.37" y2="26.76" stroke="#7f7f7f" stroke-width="1.00" clip-path="url('#clipping-rect1')" />
		<line x1="254.47" y1="28.88" x2="254.47" y2="25.71" stroke="#7f7f7f" stroke-width="1.00" clip-path="url('#clipping-rect1')" />
		<line x1="259.57" y1="28.88" x2="259.57" y2="26.76" stroke="#7f7f7f" stroke-width="1.00" clip-path="url('#clipping-rect1')" />
		<line x1="264.68" y1="28.88" x2="264.68" y2="26.76" stroke="#7f7f7f" stroke-width="1.00" clip-path="url('#clipping-rect1')" />
		<line x1="269.78" y1="28.88" x2="269.78" y2="26.76" stroke="#7f7f7f" stroke-width="1.00" clip-path="url('#clipping-rect1')" />
		<line x1="274.88" y1="28.88" x2="274.88" y2="26.76" stroke="#7f7f7f" stroke-width="1.00" clip-path="url('#clipping-rect1')" />
		<line x1="279.99" y1="28.88" x2="279.99" y2="26.76" stroke="#7f7f7f" stroke-width="1.00" clip-path="url('#clipping-rect1')" />
		<line x1="285.09" y1="28.88" x2="285.09" y2="26.76" stroke="#7f7f7f" stroke-width="1.00" clip-path="url('#clipping-rect1')" />
		<line x1="290.20" y1="28.88" x2="290.20" y2="26.76" stroke="#7f7f7f" stroke-width="1.00" clip-path="url('#clipping-rect1')" />
		<line x1="295.30" y1="28.88" x2="295.30" y2="26.76" stroke="#7f7f7f" stroke-width="1.00" clip-path="url('#clipping-rect1')" />
		<line x1="300.40" y1="28.88" x2="300.40" y2="26.76" stroke="#7f7f7f" stroke-width="1.00" clip-path="url('#clipping-rect1')" />
		<line x1="305.51" y1="28.88" x2="305.51" y2="25.71" stroke="#7f7f7f" stroke-width="1.00" clip-path="url('#clipping-rect1')" />
		<line x1="310.61" y1="28.88" x2="310.61" y2="26.76" stroke="#7f7f7f" stroke-width="1.00" clip-path="url('#clipping-rect1')" />
		<line x1="315.71" y1="28.88" x2="315.71" y2="26.76" stroke="#7f7f7f" stroke-width="1.00" clip-path="url('#clipping-rect1')" />
		<line x1="320.82" y1="28.88" x2="320.82" y2="26.76" stroke="#7f7f7f" stroke-width="1.00" clip-path="url('#clipping-rect1')" />
		<line x1="325.92" y1="28.88" x2="325.92" y2="26.76" stroke="#7f7f7f" stroke-width="1.00" clip-path="url('#clipping-rect1')" />
		<line x1="331.03" y1="28.88" x2="331.03" y2="26.76" stroke="#7f7f7f" stroke-width="1.00" clip-path="url('#clipping-rect1')" />
		<line x1="336.13" y1="28.88" x2="336.13" y2="26.76" stroke="#7f7f7f" stroke-width="1.00" clip-path="url('#clipping-rect1')" />
		<line x1="341.23" y1="28.88" x2="341.23" y2="26.76" stroke="#7f7f7f" stroke-width="1.00" clip-path="url('#clipping-rect1')" />
		<line x1="346.34" y1="28.88" x2="346.34" y2="26.76" stroke="#7f7f7f" stroke-width="1.00" clip-path="url('#clipping-rect1')" />
		<line x1="351.44" y1="28.88" x2="351.44" y2="26.76" stroke="#7f7f7f" stroke-width="1.00" clip-path="url('#clipping-rect1')" />
		<line x1="356.55" y1="28.88" x2="356.55" y2="25.71" stroke="#7f7f7f" stroke-width="1.00" clip-path="url('#clipping-rect1')" />
		<line x1="361.65" y1="28.88" x2="361.65" y2="26.76" stroke="#7f7f7f" stroke-width="1.00" clip-path="url('#clipping-rect1')" />
		<line x1="366.75" y1="28.88" x2="366.75" y2="26.76" stroke="#7f7f7f" stroke-width="1.00" clip-path="url('#clipping-rect1')" />
		<line x1="371.86" y1="28.88" x2="371.86" y2="26.76" stroke="#7f7f7f" stroke-width="1.00" clip-path="url('#clipping-rect1')" />
		<line x1="376.96" y1="28.88" x2="376.96" y2="26.76" stroke="#7f7f7f" stroke-width="1.00" clip-path="url('#clipping-rect1')" />
		<line x1="382.06" y1="28.88" x2="382.06" y2="26.76" stroke="#7f7f7f" stroke-width="1.00" clip-path="url('#clipping-rect1')" />
		<line x1="387.17" y1="28.88" x2="387.17" y2="26.76" stroke="#7f7f7f" stroke-width="1.00" clip-path="url('#clipping-rect1')" />
		<line x1="392.27" y1="28.88" x2="392.27" y2="26.76" stroke="#7f7f7f" stroke-width="1.00" clip-path="url('#clipping-rect1')" />
		<line x1="397.38" y1="28.88" x2="397.38" y2="26.76" stroke="#7f7f7f" stroke-width="1.00" clip-path="url('#clipping-rect1')" />
		<line x1="402.48" y1="28.88" x2="402.48" y2="26.76" stroke="#7f7f7f" stroke-width="1.00" clip-path="url('#clipping-rect1')" />
		<line x1="407.58" y1="28.88" x2="407.58" y2="25.71" stroke="#7f7f7f" stroke-width="1.00" clip-path="url('#clipping-rect1')" />
		<line x1="412.69" y1="28.88" x2="412.69" y2="26.76" stroke="#7f7f7f" stroke-width="1.00" clip-path="url('#clipping-rect1')" />
		<line x1="417.79" y1="28.88" x2="417.79" y2="26.76" stroke="#7f7f7f" stroke-width="1.00" clip-path="url('#clipping-rect1')" />
		<line x1="422.90" y1="28.88" x2="422.90" y2="26.76" stroke="#7f7f7f" stroke-width="1.00" clip-path="url('#clipping-rect1')" />
		<line x1="428.00" y1="28.88" x2="428.00" y2="26.76" stroke="#7f7f7f" stroke-width="1.00" clip-path="url('#clipping-rect1')" />
		<line x1="433.10" y1="28.88" x2="433.10" y2="26.76" stroke="#7f7f7f" stroke-width="1.00" clip-path="url('#clipping-rect1')" />
		<line x1="438.21" y1="28.88" x2="438.21" y2="26.76" stroke="#7f7f7f" stroke-width="1.00" clip-path="url('#clipping-rect1')" />
		<line x1="443.31" y1="28.88" x2="443.31" y2="26.76" stroke="#7f7f7f" stroke-width="1.00" clip-path="url('#clipping-rect1')" />
		<line x1="448.41" y1="28.88" x2="448.41" y2="26.76" stroke="#7f7f7f" stroke-width="1.00" clip-path="url('#clipping-rect1')" />
		<line x1="453.52" y1="28.88" x2="453.52" y2="26.76" stroke="#7f7f7f" stroke-width="1.00" clip-path="url('#clipping-rect1')" />
		<line x1="458.62" y1="28.88" x2="458.62" y2="25.71" stroke="#7f7f7f" stroke-width="1.00" clip-path="url('#clipping-rect1')" />
		<line x1="463.73" y1="28.88" x2="463.73" y2="26.76" stroke="#7f7f7f" stroke-width="1.00" clip-path="url('#clipping-rect1')" />
		<line x1="468.83" y1="28.88" x2="468.83" y2="26.76" stroke="#7f7f7f" stroke-width="1.00" clip-path="url('#clipping-rect1')" />
		<line x1="473.93" y1="28.88" x2="473.93" y2="26.76" stroke="#7f7f7f" stroke-width="1.00" clip-path="url('#clipping-rect1')" />
		<line x1="479.04" y1="28.88" x2="479.04" y2="26.76" stroke="#7f7f7f" stroke-width="1.00" clip-path="url('#clipping-rect1')" />
		<line x1="484.14" y1="28.88" x2="484.14" y2="26.76" stroke="#7f7f7f" stroke-width="1.00" clip-path="url('#clipping-rect1')" />
		<line x1="489.24" y1="28.88" x2="489.24" y2="26.76" stroke="#7f7f7f" stroke-width="1.00" clip-path="url('#clipping-rect1')" />
		<line x1="494.35" y1="28.88" x2="494.35" y2="26.76" stroke="#7f7f7f" stroke-width="1.00" clip-path="url('#clipping-rect1')" />
		<line x1="499.45" y1="28.88" x2="499.45" y2="26.76" stroke="#7f7f7f" stroke-width="1.00" clip-path="url('#clipping-rect1')" />
		<line x1="504.56" y1="28.88" x2="504.56" y2="26.76" stroke="#7f7f7f" stroke-width="1.00" clip-path="url('#clipping-rect1')" />
		<line x1="509.66" y1="28.88" x2="509.66" y2="25.71" stroke="#7f7f7f" stroke-width="1.00" clip-path="url('#clipping-rect1')" />
		<line x1="514.76" y1="28.88" x2="514.76" y2="26.76" stroke="#7f7f7f" stroke-width="1.00" clip-path="url('#clipping-rect1')" />
		<line x1="519.87" y1="28.88" x2="519.87" y2="26.76" stroke="#7f7f7f" stroke-width="1.00" clip-path="url('#clipping-rect1')" />
		<line x1="524.97" y1="28.88" x2="524.97" y2="26.76" stroke="#7f7f7f" stroke-width="1.00" clip-path="url('#clipping-rect1')" />
		<line x1="530.08" y1="28.88" x2="530.08" y2="26.76" stroke="#7f7f7f" stroke-width="1.00" clip-path="url('#clipping-rect1')" />
		<line x1="535.18" y1="28.88" x2="535.18" y2="26.76" stroke="#7f7f7f" stroke-width="1.00" clip-path="url('#clipping-rect1')" />
		<line x1="540.28" y1="28.88" x2="540.28" y2="26.76" stroke="#7f7f7f" stroke-width="1.00" clip-path="url('#clipping-rect1')" />
		<line x1="545.39" y1="28.88" x2="545.39" y2="26.76" stroke="#7f7f7f" stroke-width="1.00" clip-path="url('#clipping-rect1')" />
		<line x1="550.49" y1="28.88" x2="550.49" y2="26.76" stroke="#7f7f7f" stroke-width="1.00" clip-path="url('#clipping-rect1')" />
		<line x1="555.59" y1="28.88" x2="555.59" y2="26.76" stroke="#7f7f7f" stroke-width="1.00" clip-path="url('#clipping-rect1')" />
		<line x1="560.70" y1="28.88" x2="560.70" y2="25.71" stroke="#7f7f7f" stroke-width="1.00" clip-path="url('#clipping-rect1')" />
		<line x1="565.80" y1="28.88" x2="565.80" y2="26.76" stroke="#7f7f7f" stroke-width="1.00" clip-path="url('#clipping-rect1')" />
		<line x1="570.91" y1="28.88" x2="570.91" y2="26.76" stroke="#7f7f7f" stroke-width="1.00" clip-path="url('#clipping-rect1')" />
		<line x1="576.01" y1="28.88" x2="576.01" y2="26.76" stroke="#7f7f7f" stroke-width="1.00" clip-path="url('#clipping-rect1')" />
		<line x1="581.11" y1="28.88" x2="581.11" y2="26.76" stroke="#7f7f7f" stroke-width="1.00" clip-path="url('#clipping-rect1')" />
		<line x1="586.22" y1="28.88" x2="586.22" y2="26.76" stroke="#7f7f7f" stroke-width="1.00" clip-path="url('#clipping-rect1')" />
		<line x1="591.32" y1="28.88" x2="591.32" y2="26.76" stroke="#7f7f7f" stroke-width="1.00" clip-path="url('#clipping-rect1')" />
		<line x1="596.43" y1="28.88" x2="596.43" y2="26.76" stroke="#7f7f7f" stroke-width="1.00" clip-path="url('#clipping-rect1')" />
		<line x1="601.53" y1="28.88" x2="601.53" y2="26.76" stroke="#7f7f7f" stroke-width="1.00" clip-path="url('#clipping-rect1')" />
		<line x1="606.63" y1="28.88" x2="606.63" y2="26.76" stroke="#7f7f7f" stroke-width="1.00" clip-path="url('#clipping-rect1')" />
		<line x1="611.74" y1="28.88" x2="611.74" y2="25.71" stroke="#7f7f7f" stroke-width="1.00" clip-path="url('#clipping-rect1')" />
		<line x1="616.84" y1="28.88" x2="616.84" y2="26.76" stroke="#7f7f7f" stroke-width="1.00" clip-path="url('#clipping-rect1')" />
		<line x1="621.94" y1="28.88" x2="621.94" y2="26.76" stroke="#7f7f7f" stroke-width="1.00" clip-path="url('#clipping-rect1')" />
		<line x1="627.05" y1="28.88" x2="627.05" y2="26.76" stroke="#7f7f7f" stroke-width="1.00" clip-path="url('#clipping-rect1')" />
		<line x1="632.15" y1="28.88" x2="632.15" y2="26.76" stroke="#7f7f7f" stroke-width="1.00" clip-path="url('#clipping-rect1')" />
		<line x1="637.26" y1="28.88" x2="637.26" y2="26.76" stroke="#7f7f7f" stroke-width="1.00" clip-path="url('#clipping-rect1')" />
		<line x1="642.36" y1="28.88" x2="642.36" y2="26.76" stroke="#7f7f7f" stroke-width="1.00" clip-path="url('#clipping-rect1')" />
		<line x1="647.46" y1="28.88" x2="647.46" y2="26.76" stroke="#7f7f7f" stroke-width="1.00" clip-path="url('#clipping-rect1')" />
		<line x1="652.57" y1="28.88" x2="652.57" y2="26.76" stroke="#7f7f7f" stroke-width="1.00" clip-path="url('#clipping-rect1')" />
		<line x1="657.67" y1="28.88" x2="657.67" y2="26.76" stroke="#7f7f7f" stroke-width="1.00" clip-path="url('#clipping-rect1')" />
		<line x1="662.77" y1="28.88" x2="662.77" y2="25.71" stroke="#7f7f7f" stroke-width="1.00" clip-path="url('#clipping-rect1')" />
		<line x1="667.88" y1="28.88" x2="667.88" y2="26.76" stroke="#7f7f7f" stroke-width="1.00" clip-path="url('#clipping-rect1')" />
		<line x1="672.98" y1="28.88" x2="672.98" y2="26.76" stroke="#7f7f7f" stroke-width="1.00" clip-path="url('#clipping-rect1')" />
		<line x1="678.09" y1="28.88" x2="678.09" y2="26.76" stroke="#7f7f7f" stroke-width="1.00" clip-path="url('#clipping-rect1')" />
		<line x1="683.19" y1="28.88" x2="683.19" y2="26.76" stroke="#7f7f7f" stroke-width="1.00" clip-path="url('#clipping-rect1')" />
		<line x1="688.29" y1="28.88" x2="688.29" y2="26.76" stroke="#7f7f7f" stroke-width="1.00" clip-path="url('#clipping-rect1')" />
		<line x1="693.40" y1="28.88" x2="693.40" y2="26.76" stroke="#7f7f7f" stroke-width="1.00" clip-path="url('#clipping-rect1')" />
		<line x1="698.50" y1="28.88" x2="698.50" y2="26.76" stroke="#7f7f7f" stroke-width="1.00" clip-path="url('#clipping-rect1')" />
		<line x1="703.61" y1="28.88" x2="703.61" y2="26.76" stroke="#7f7f7f" stroke-width="1.00" clip-path="url('#clipping-rect1')" />
		<line x1="708.71" y1="28.88" x2="708.71" y2="26.76" stroke="#7f7f7f" stroke-width="1.00" clip-path="url('#clipping-rect1')" />
		<line x1="713.81" y1="28.88" x2="713.81" y2="25.71" stroke="#7f7f7f" stroke-width="1.00" clip-path="url('#clipping-rect1')" />
		<line x1="718.92" y1="28.88" x2="718.92" y2="26.76" stroke="#7f7f7f" stroke-width="1.00" clip-path="url('#clipping-rect1')" />
		<line x1="724.02" y1="28.88" x2="724.02" y2="26.76" stroke="#7f7f7f" stroke-width="1.00" clip-path="url('#clipping-rect1')" />
		<line x1="729.12" y1="28.88" x2="729.12" y2="26.76" stroke="#7f7f7f" stroke-width="1.00" clip-path="url('#clipping-rect1')" />
		<line x1="734.23" y1="28.88" x2="734.23" y2="26.76" stroke="#7f7f7f" stroke-width="1.00" clip-path="url('#clipping-rect1')" />
		<line x1="739.33" y1="28.88" x2="739.33" y2="26.76" stroke="#7f7f7f" stroke-width="1.00" clip-path="url('#clipping-rect1')" />
		<line x1="744.44" y1="28.88" x2="744.44" y2="26.76" stroke="#7f7f7f" stroke-width="1.00" clip-path="url('#clipping-rect1')" />
		<line x1="749.54" y1="28.88" x2="749.54" y2="26.76" stroke="#7f7f7f" stroke-width="1.00" clip-path="url('#clipping-rect1')" />
		<line x1="754.64" y1="28.88" x2="754.64" y2="26.76" stroke="#7f7f7f" stroke-width="1.00" clip-path="url('#clipping-rect1')" />
		<line x1="759.75" y1="28.88" x2="759.75" y2="26.76" stroke="#7f7f7f" stroke-width="1.00" clip-path="url('#clipping-rect1')" />
		<line x1="764.85" y1="28.88" x2="764.85" y2="25.71" stroke="#7f7f7f" stroke-width="1.00" clip-path="url('#clipping-rect1')" />
		<line x1="769.96" y1="28.88" x2="769.96" y2="26.76" stroke="#7f7f7f" stroke-width="1.00" clip-path="url('#clipping-rect1')" />
		<line x1="775.06" y1="28.88" x2="775.06" y2="26.76" stroke="#7f7f7f" stroke-width="1.00" clip-path="url('#clipping-rect1')" />
		<line x1="780.16" y1="28.88" x2="780.16" y2="26.76" stroke="#7f7f7f" stroke-width="1.00" clip-path="url('#clipping-rect1')" />
		<line x1="785.27" y1="28.88" x2="785.27" y2="26.76" stroke="#7f7f7f" stroke-width="1.00" clip-path="url('#clipping-rect1')" />
		<line x1="790.37" y1="28.88" x2="790.37" y2="26.76" stroke="#7f7f7f" stroke-width="1.00" clip-path="url('#clipping-rect1')" />
		<line x1="795.47" y1="28.88" x2="795.47" y2="26.76" stroke="#7f7f7f" stroke-width="1.00" clip-path="url('#clipping-rect1')" />
		<line x1="800.58" y1="28.88" x2="800.58" y2="26.76" stroke="#7f7f7f" stroke-width="1.00" clip-path="url('#clipping-rect1')" />
		<line x1="805.68" y1="28.88" x2="805.68" y2="26.76" stroke="#7f7f7f" stroke-width="1.00" clip-path="url('#clipping-rect1')" />
		<line x1="810.79" y1="28.88" x2="810.79" y2="26.76" stroke="#7f7f7f" stroke-width="1.00" clip-path="url('#clipping-rect1')" />
		<line x1="815.89" y1="28.88" x2="815.89" y2="25.71" stroke="#7f7f7f" stroke-width="1.00" clip-path="url('#clipping-rect1')" />
		<line x1="820.99" y1="28.88" x2="820.99" y2="26.76" stroke="#7f7f7f" stroke-width="1.00" clip-path="url('#clipping-rect1')" />
		<line x1="826.10" y1="28.88" x2="826.10" y2="26.76" stroke="#7f7f7f" stroke-width="1.00" clip-path="url('#clipping-rect1')" />
		<line x1="831.20" y1="28.88" x2="831.20" y2="26.76" stroke="#7f7f7f" stroke-width="1.00" clip-path="url('#clipping-rect1')" />
		<line x1="836.30" y1="28.88" x2="836.30" y2="26.76" stroke="#7f7f7f" stroke-width="1.00" clip-path="url('#clipping-rect1')" />
		<line x1="841.41" y1="28.88" x2="841.41" y2="26.76" stroke="#7f7f7f" stroke-width="1.00" clip-path="url('#clipping-rect1')" />
		<line x1="846.51" y1="28.88" x2="846.51" y2="26.76" stroke="#7f7f7f" stroke-width="1.00" clip-path="url('#clipping-rect1')" />
		<line x1="851.62" y1="28.88" x2="851.62" y2="26.76" stroke="#7f7f7f" stroke-width="1.00" clip-path="url('#clipping-rect1')" />
		<line x1="856.72" y1="28.88" x2="856.72" y2="26.76" stroke="#7f7f7f" stroke-width="1.00" clip-path="url('#clipping-rect1')" />
		<line x1="861.82" y1="28.88" x2="861.82" y2="26.76" stroke="#7f7f7f" stroke-width="1.00" clip-path="url('#clipping-rect1')" />
		<text x="766.85" y="23.59" font-family="Helvetica" font-size="10" fill="#333333" clip-path="url('#clipping-rect1')" >860 K</text>
		<line x1="764.85" y1="31.00" x2="764.85" y2="15.12" stroke="#7f7f7f" stroke-width="1.00" clip-path="url('#clipping-rect1')" />
		<text x="664.77" y="23.59" font-family="Helvetica" font-size="10" fill="#333333" clip-path="url('#clipping-rect1')" >840 K</text>
		<line x1="662.77" y1="31.00" x2="662.77" y2="15.12" stroke="#7f7f7f" stroke-width="1.00" clip-path="url('#clipping-rect1')" />
		<text x="562.70" y="23.59" font-family="Helvetica" font-size="10" fill="#333333" clip-path="url('#clipping-rect1')" >820 K</text>
		<line x1="560.70" y1="31.00" x2="560.70" y2="15.12" stroke="#7f7f7f" stroke-width="1.00" clip-path="url('#clipping-rect1')" />
		<text x="460.62" y="23.59" font-family="Helvetica" font-size="10" fill="#333333" clip-path="url('#clipping-rect1')" >800 K</text>
		<line x1="458.62" y1="31.00" x2="458.62" y2="15.12" stroke="#7f7f7f" stroke-width="1.00" clip-path="url('#clipping-rect1')" />
		<text x="358.55" y="23.59" font-family="Helvetica" font-size="10" fill="#333333" clip-path="url('#clipping-rect1')" >780 K</text>
		<line x1="356.55" y1="31.00" x2="356.55" y2="15.12" stroke="#7f7f7f" stroke-width="1.00" clip-path="url('#clipping-rect1')" />
		<text x="256.47" y="23.59" font-family="Helvetica" font-size="10" fill="#333333" clip-path="url('#clipping-rect1')" >760 K</text>
		<line x1="254.47" y1="31.00" x2="254.47" y2="15.12" stroke="#7f7f7f" stroke-width="1.00" clip-path="url('#clipping-rect1')" />
		<text x="154.39" y="23.59" font-family="Helvetica" font-size="10" fill="#333333" clip-path="url('#clipping-rect1')" >740 K</text>
		<line x1="152.39" y1="31.00" x2="152.39" y2="15.12" stroke="#7f7f7f" stroke-width="1.00" clip-path="url('#clipping-rect1')" />
		<text x="52.32" y="23.59" font-family="Helvetica" font-size="10" fill="#333333" clip-path="url('#clipping-rect1')" >720 K</text>
		<line x1="50.32" y1="31.00" x2="50.32" y2="15.12" stroke="#7f7f7f" stroke-width="1.00" clip-path="url('#clipping-rect1')" />
		<line x1="50.06" y1="264.00" x2="50.06" y2="31.00" stroke="#ebebeb" stroke-width="1.00" />
		<line x1="152.18" y1="264.00" x2="152.18" y2="31.00" stroke="#ebebeb" stroke-width="1.00" />
		<line x1="254.30" y1="264.00" x2="254.30" y2="31.00" stroke="#ebebeb" stroke-width="1.00" />
		<line x1="356.41" y1="264.00" x2="356.41" y2="31.00" stroke="#ebebeb" stroke-width="1.00" />
		<line x1="458.53" y1="264.00" x2="458.53" y2="31.00" stroke="#ebebeb" stroke-width="1.00" />
		<line x1="560.65" y1="264.00" x2="560.65" y2="31.00" stroke="#ebebeb" stroke-width="1.00" />
		<line x1="662.77" y1="264.00" x2="662.77" y2="31.00" stroke="#ebebeb" stroke-width="1.00" />
		<line x1="764.89" y1="264.00" x2="764.89" y2="31.00" stroke="#ebebeb" stroke-width="1.00" />
		<polygon fill="url('#gradient1')" shape-rendering="crispEdges" points="862.00,37.50 862.00,33.00 0.00,33.00 0.00,37.50 0.00,42.00 862.00,42.00 " />
		<line x1="0.00" y1="42.00" x2="0.00" y2="33.00" stroke="#6c6c6c" stroke-width="1.00" stroke-linejoin="round" />
		<line x1="0.00" y1="33.00" x2="862.00" y2="33.00" stroke="#6c6c6c" stroke-width="1.00" stroke-linejoin="round" />
		<line x1="862.00" y1="33.00" x2="862.00" y2="42.00" stroke="#6c6c6c" stroke-width="1.00" stroke-linejoin="round" />
		<line x1="0.00" y1="42.00" x2="862.00" y2="42.00" stroke="#6c6c6c" stroke-width="1.00" stroke-linejoin="round" />
		<line x1="625.15" y1="76.00" x2="653.46" y2="76.00" stroke="#124d94" stroke-width="1.00" />
		<polygon fill="#dd8787" shape-rendering="crispEdges" points="626.00,71.00 626.00,81.00 625.00,81.00 625.00,71.00 " />
		<polygon fill="#de8282" shape-rendering="crispEdges" points="632.00,71.00 632.00,81.00 631.00,81.00 631.00,71.00 " />
		<polygon fill="#e17676" shape-rendering="crispEdges" points="654.00,71.00 654.00,81.00 653.00,81.00 653.00,71.00 " />
		<line x1="608.15" y1="71.00" x2="608.15" y2="81.00" stroke="#ff7f7f" stroke-width="1.00" />
		<line x1="608.15" y1="81.00" x2="620.15" y2="81.00" stroke="#ff7f7f" stroke-width="1.00" />
		<line x1="620.15" y1="81.00" x2="620.15" y2="71.00" stroke="#ff7f7f" stroke-width="1.00" />
		<line x1="608.15" y1="71.00" x2="620.15" y2="71.00" stroke="#ff7f7f" stroke-width="1.00" />
		<line x1="608.15" y1="81.00" x2="612.15" y2="71.00" stroke="#ff0000" stroke-width="1.00" />
		<line x1="612.15" y1="71.00" x2="613.15" y2="81.00" stroke="#ff0000" stroke-width="1.00" />
		<line x1="613.15" y1="81.00" x2="615.15" y2="71.00" stroke="#ff0000" stroke-width="1.00" />
		<line x1="615.15" y1="71.00" x2="616.15" y2="81.00" stroke="#ff0000" stroke-width="1.00" />
		<line x1="616.15" y1="81.00" x2="620.15" y2="71.00" stroke="#ff0000" stroke-width="1.00" />
		<text x="592.76" y="79.00" font-family="Helvetica" font-size="10" fill="#124d94" >97</text>
		<line x1="658.46" y1="71.00" x2="658.46" y2="81.00" stroke="#ff7f7f" stroke-width="1.00" />
		<line x1="658.46" y1="81.00" x2="670.46" y2="81.00" stroke="#ff7f7f" stroke-width="1.00" />
		<line x1="670.46" y1="81.00" x2="670.46" y2="71.00" stroke="#ff7f7f" stroke-width="1.00" />
		<line x1="658.46" y1="71.00" x2="670.46" y2="71.00" stroke="#ff7f7f" stroke-width="1.00" />
		<line x1="658.46" y1="81.00" x2="662.46" y2="71.00" stroke="#ff0000" stroke-width="1.00" />
		<line x1="662.46" y1="71.00" x2="663.46" y2="81.00" stroke="#ff0000" stroke-width="1.00" />
		<line x1="663.46" y1="81.00" x2="665.46" y2="71.00" stroke="#ff0000" stroke-width="1.00" />
		<line x1="665.46" y1="71.00" x2="666.46" y2="81.00" stroke="#ff0000" stroke-width="1.00" />
		<line x1="666.46" y1="81.00" x2="670.46" y2="71.00" stroke="#ff0000" stroke-width="1.00" />
		<text x="675.46" y="79.00" font-family="Helvetica" font-size="10" fill="#124d94" >28</text>
		<line x1="637.30" y1="80.00" x2="641.30" y2="76.00" stroke="#000000" stroke-width="1.00" />
		<line x1="641.30" y1="76.00" x2="637.30" y2="72.00" stroke="#000000" stroke-width="1.00" />
		<text x="603.83" y="68.00" font-family="Helvetica" font-size="10" fill="#124d94" >Query_5427492</text>
		<line x1="631.13" y1="90.00" x2="640.48" y2="90.00" stroke="#124d94" stroke-width="1.00" />
		<polygon fill="#e07b7b" shape-rendering="crispEdges" points="632.00,85.00 632.00,95.00 631.00,95.00 631.00,85.00 " />
		<polygon fill="#e36f6f" shape-rendering="crispEdges" points="641.00,85.00 641.00,95.00 640.00,95.00 640.00,85.00 " />
		<line x1="633.81" y1="94.00" x2="637.81" y2="90.00" stroke="#000000" stroke-width="1.00" />
		<line x1="637.81" y1="90.00" x2="633.81" y2="86.00" stroke="#000000" stroke-width="1.00" />
		<line x1="631.13" y1="114.00" x2="653.45" y2="114.00" stroke="#124d94" stroke-width="1.00" />
		<polygon fill="#e17474" shape-rendering="crispEdges" points="632.00,109.00 632.00,119.00 631.00,119.00 631.00,109.00 " />
		<polygon fill="#df7d7d" shape-rendering="crispEdges" points="654.00,109.00 654.00,119.00 653.00,119.00 653.00,109.00 " />
		<line x1="614.13" y1="109.00" x2="614.13" y2="119.00" stroke="#ff7f7f" stroke-width="1.00" />
		<line x1="614.13" y1="119.00" x2="626.13" y2="119.00" stroke="#ff7f7f" stroke-width="1.00" />
		<line x1="626.13" y1="119.00" x2="626.13" y2="109.00" stroke="#ff7f7f" stroke-width="1.00" />
		<line x1="614.13" y1="109.00" x2="626.13" y2="109.00" stroke="#ff7f7f" stroke-width="1.00" />
		<line x1="614.13" y1="119.00" x2="618.13" y2="109.00" stroke="#ff0000" stroke-width="1.00" />
		<line x1="618.13" y1="109.00" x2="619.13" y2="119.00" stroke="#ff0000" stroke-width="1.00" />
		<line x1="619.13" y1="119.00" x2="621.13" y2="109.00" stroke="#ff0000" stroke-width="1.00" />
		<line x1="621.13" y1="109.00" x2="622.13" y2="119.00" stroke="#ff0000" stroke-width="1.00" />
		<line x1="622.13" y1="119.00" x2="626.13" y2="109.00" stroke="#ff0000" stroke-width="1.00" />
		<text x="595.56" y="117.00" font-family="Helvetica" font-size="10" fill="#124d94" >161</text>
		<line x1="658.45" y1="109.00" x2="658.45" y2="119.00" stroke="#ff7f7f" stroke-width="1.00" />
		<line x1="658.45" y1="119.00" x2="670.45" y2="119.00" stroke="#ff7f7f" stroke-width="1.00" />
		<line x1="670.45" y1="119.00" x2="670.45" y2="109.00" stroke="#ff7f7f" stroke-width="1.00" />
		<line x1="658.45" y1="109.00" x2="670.45" y2="109.00" stroke="#ff7f7f" stroke-width="1.00" />
		<line x1="658.45" y1="119.00" x2="662.45" y2="109.00" stroke="#ff0000" stroke-width="1.00" />
		<line x1="662.45" y1="109.00" x2="663.45" y2="119.00" stroke="#ff0000" stroke-width="1.00" />
		<line x1="663.45" y1="119.00" x2="665.45" y2="109.00" stroke="#ff0000" stroke-width="1.00" />
		<line x1="665.45" y1="109.00" x2="666.45" y2="119.00" stroke="#ff0000" stroke-width="1.00" />
		<line x1="666.45" y1="119.00" x2="670.45" y2="109.00" stroke="#ff0000" stroke-width="1.00" />
		<text x="675.45" y="117.00" font-family="Helvetica" font-size="10" fill="#124d94" >201</text>
		<line x1="640.29" y1="118.00" x2="644.29" y2="114.00" stroke="#000000" stroke-width="1.00" />
		<line x1="644.29" y1="114.00" x2="640.29" y2="110.00" stroke="#000000" stroke-width="1.00" />
		<text x="608.00" y="106.00" font-family="Helvetica" font-size="10" fill="#124d94" >Query_5427491</text>
		<polygon fill="url('#gradient2')" shape-rendering="crispEdges" points="0.00,58.00 862.01,58.00 862.01,44.00 0.00,44.00 " clip-path="url('#clipping-rect2')" />
		<text x="0.00" y="54.00" font-family="Helvetica" font-size="12" fill="#333333" >(U) Alignment for group templates, BLAST Results for: 3 sequences (NM_152456.3_Homo_sapiens)</text>
		<line x1="0.00" y1="141.00" x2="0.00" y2="169.00" stroke="#009900" stroke-opacity="0.10" stroke-width="1.00" stroke-linejoin="round" />
		<line x1="0.00" y1="169.00" x2="198.17" y2="169.00" stroke="#009900" stroke-opacity="0.10" stroke-width="1.00" stroke-linejoin="round" />
		<line x1="198.17" y1="169.00" x2="198.17" y2="141.00" stroke="#009900" stroke-opacity="0.10" stroke-width="1.00" stroke-linejoin="round" />
		<line x1="0.00" y1="141.00" x2="198.17" y2="141.00" stroke="#009900" stroke-opacity="0.10" stroke-width="1.00" stroke-linejoin="round" />
		<text x="-417.85" y="150.00" font-family="Helvetica" font-size="10" fill="#124d94" >ENSSPUG00000006253</text>
		<line x1="0.00" y1="161.50" x2="27.67" y2="161.50" stroke="#4ba34b" stroke-width="2.00" />
		<polygon fill="#b2b2b2" shape-rendering="crispEdges" points="18.23,161.50 9.43,157.10 11.63,161.50 9.43,165.90 " />
		<polygon fill="#1e8c1e" shape-rendering="crispEdges" points="28.42,156.00 28.42,167.00 27.42,167.00 27.42,156.00 " />
		<line x1="28.17" y1="161.50" x2="30.16" y2="161.50" stroke="#4ba34b" stroke-width="2.00" />
		<polygon fill="#1e8c1e" shape-rendering="crispEdges" points="31.03,156.00 31.03,167.00 30.03,167.00 30.03,156.00 " />
		<line x1="30.89" y1="161.50" x2="66.97" y2="161.50" stroke="#4ba34b" stroke-width="2.00" />
		<polygon fill="#b2b2b2" shape-rendering="crispEdges" points="53.33,161.50 44.53,157.10 46.73,161.50 44.53,165.90 " />
		<polygon fill="#1e8c1e" shape-rendering="crispEdges" points="67.74,156.00 67.74,167.00 66.74,167.00 66.74,156.00 " />
		<line x1="67.51" y1="161.50" x2="71.97" y2="161.50" stroke="#4ba34b" stroke-width="2.00" />
		<polygon fill="#1e8c1e" shape-rendering="crispEdges" points="72.83,156.00 72.83,167.00 71.83,167.00 71.83,156.00 " />
		<polygon fill="#a5d1a5" shape-rendering="crispEdges" points="76.84,156.00 76.84,167.00 72.69,167.00 72.69,156.00 " />
		<polygon fill="#ffffff" shape-rendering="crispEdges" points="196.17,167.00 196.17,156.00 80.84,156.00 80.84,167.00 " />
		<text x="80.84" y="165.00" font-family="Helvetica" font-size="10" fill="#124d94" >ENSSPUP00000008069.1</text>
		<line x1="492.50" y1="174.00" x2="492.50" y2="202.00" stroke="#009900" stroke-opacity="0.10" stroke-width="1.00" stroke-linejoin="round" />
		<line x1="492.50" y1="202.00" x2="774.87" y2="202.00" stroke="#009900" stroke-opacity="0.10" stroke-width="1.00" stroke-linejoin="round" />
		<line x1="774.87" y1="202.00" x2="774.87" y2="174.00" stroke="#009900" stroke-opacity="0.10" stroke-width="1.00" stroke-linejoin="round" />
		<line x1="492.50" y1="174.00" x2="774.87" y2="174.00" stroke="#009900" stroke-opacity="0.10" stroke-width="1.00" stroke-linejoin="round" />
		<text x="580.14" y="183.00" font-family="Helvetica" font-size="10" fill="#124d94" >ENSSPUG00000006291</text>
		<polygon fill="#1e8c1e" shape-rendering="crispEdges" points="613.87,189.00 613.87,200.00 612.87,200.00 612.87,189.00 " />
		<line x1="613.48" y1="194.50" x2="630.79" y2="194.50" stroke="#4ba34b" stroke-width="2.00" />
		<polygon fill="#b2b2b2" shape-rendering="crispEdges" points="626.54,194.50 617.74,190.10 619.94,194.50 617.74,198.90 " />
		<polygon fill="#1e8c1e" shape-rendering="crispEdges" points="631.38,189.00 631.38,200.00 630.38,200.00 630.38,189.00 " />
		<line x1="630.96" y1="194.50" x2="631.14" y2="194.50" stroke="#4ba34b" stroke-width="2.00" />
		<polygon fill="#1e8c1e" shape-rendering="crispEdges" points="631.84,189.00 631.84,200.00 630.84,200.00 630.84,189.00 " />
		<line x1="631.54" y1="194.50" x2="639.77" y2="194.50" stroke="#4ba34b" stroke-width="2.00" />
		<polygon fill="#1e8c1e" shape-rendering="crispEdges" points="640.59,189.00 640.59,200.00 639.59,200.00 639.59,189.00 " />
		<line x1="640.41" y1="194.50" x2="652.87" y2="194.50" stroke="#4ba34b" stroke-width="2.00" />
		<polygon fill="#1e8c1e" shape-rendering="crispEdges" points="653.71,189.00 653.71,200.00 652.71,200.00 652.71,189.00 " />
		<polygon fill="#ffffff" shape-rendering="crispEdges" points="613.27,200.00 613.27,189.00 495.50,189.00 495.50,200.00 " />
		<text x="495.50" y="198.00" font-family="Helvetica" font-size="10" fill="#124d94" >ENSSPUT00000008658.1</text>
		<polygon fill="#ffffff" shape-rendering="crispEdges" points="772.87,200.00 772.87,189.00 657.54,189.00 657.54,200.00 " />
		<text x="657.54" y="198.00" font-family="Helvetica" font-size="10" fill="#124d94" >ENSSPUP00000008118.1</text>
		<line x1="677.02" y1="141.00" x2="677.02" y2="169.00" stroke="#009900" stroke-opacity="0.10" stroke-width="1.00" stroke-linejoin="round" />
		<line x1="677.02" y1="169.00" x2="862.00" y2="169.00" stroke="#009900" stroke-opacity="0.10" stroke-width="1.00" stroke-linejoin="round" />
		<line x1="862.00" y1="169.00" x2="862.00" y2="141.00" stroke="#009900" stroke-opacity="0.10" stroke-width="1.00" stroke-linejoin="round" />
		<line x1="677.02" y1="141.00" x2="862.00" y2="141.00" stroke="#009900" stroke-opacity="0.10" stroke-width="1.00" stroke-linejoin="round" />
		<text x="1520.77" y="150.00" font-family="Helvetica" font-size="10" fill="#124d94" >ENSSPUG00000006315</text>
		<polygon fill="#1e8c1e" shape-rendering="crispEdges" points="802.29,156.00 802.29,167.00 798.35,167.00 798.35,156.00 " />
		<line x1="802.29" y1="161.50" x2="862.00" y2="161.50" stroke="#4ba34b" stroke-width="2.00" />
		<polygon fill="#b2b2b2" shape-rendering="crispEdges" points="827.75,161.50 836.55,157.10 834.35,161.50 836.55,165.90 " />
		<polygon fill="#ffffff" shape-rendering="crispEdges" points="798.35,167.00 798.35,156.00 680.02,156.00 680.02,167.00 " />
		<text x="680.02" y="165.00" font-family="Helvetica" font-size="10" fill="#124d94" >ENSSPUP00000008169.1</text>
		<polygon fill="url('#gradient3')" shape-rendering="crispEdges" points="0.00,136.00 862.01,136.00 862.01,122.00 0.00,122.00 " clip-path="url('#clipping-rect2')" />
		<text x="0.00" y="132.00" font-family="Helvetica" font-size="12" fill="#333333" >Genes, Ensembl release 113</text>
		<polygon fill="#d29d9d" shape-rendering="crispEdges" points="625.73,221.00 625.73,231.00 624.73,231.00 624.73,221.00 " />
		<polygon fill="#df6f6f" shape-rendering="crispEdges" points="631.83,221.00 631.83,231.00 630.83,231.00 630.83,221.00 " />
		<polygon fill="#d98484" shape-rendering="crispEdges" points="631.83,235.00 631.83,245.00 630.83,245.00 630.83,235.00 " />
		<polygon fill="#d59292" shape-rendering="crispEdges" points="631.85,249.00 631.85,259.00 630.85,259.00 630.85,249.00 " />
		<polygon fill="#e26565" shape-rendering="crispEdges" points="640.57,221.00 640.57,231.00 639.57,231.00 639.57,221.00 " />
		<polygon fill="#dd7676" shape-rendering="crispEdges" points="653.67,221.00 653.67,231.00 652.67,231.00 652.67,221.00 " />
		<polygon fill="#d98484" shape-rendering="crispEdges" points="653.79,235.00 653.79,245.00 652.79,245.00 652.79,235.00 " />
		<polygon fill="url('#gradient2')" shape-rendering="crispEdges" points="0.00,218.00 862.01,218.00 862.01,204.00 0.00,204.00 " clip-path="url('#clipping-rect2')" />
		<text x="0.00" y="214.00" font-family="Helvetica" font-size="12" fill="#333333" >(U) BLAST Results for: 3 sequences (NM_152456.3_Homo_sapiens)</text>
		<polygon fill="#ff0000" fill-opacity="0.20" shape-rendering="crispEdges" points="1258.50,23.10 1258.50,31.50 795.50,31.50 795.50,23.10 " />
		<line x1="795.50" y1="30.50" x2="795.50" y2="23.10" stroke="#ff0000" stroke-opacity="0.40" stroke-width="1.00" />
		<line x1="1258.50" y1="30.50" x2="1258.50" y2="23.10" stroke="#ff0000" stroke-opacity="0.40" stroke-width="1.00" />
		<polygon fill="#ff0000" shape-rendering="crispEdges" points="789.79,22.35 789.50,20.50 789.79,18.65 790.65,16.97 791.97,15.65 793.65,14.79 795.50,14.50 795.50,26.50 793.65,26.21 791.97,25.35 790.65,24.03 " />
		<polygon fill="#ff0000" fill-opacity="0.60" shape-rendering="crispEdges" points="833.64,26.50 833.64,14.50 795.50,14.50 795.50,26.50 " />
		<text x="797.50" y="23.50" font-family="Helvetica" font-size="10" fill="#ffffff" >MTSS2</text>
		<polygon fill="#ff0000" fill-opacity="0.20" shape-rendering="crispEdges" points="1259.46,31.00 1259.46,265.00 795.92,265.00 795.92,31.00 " />
		<line x1="795.92" y1="264.00" x2="795.92" y2="31.00" stroke="#ff0000" stroke-opacity="0.40" stroke-width="1.00" />
		<line x1="1259.46" y1="264.00" x2="1259.46" y2="31.00" stroke="#ff0000" stroke-opacity="0.40" stroke-width="1.00" />
		<polygon fill="#008000" fill-opacity="0.20" shape-rendering="crispEdges" points="73.50,23.10 73.50,31.50 14.50,31.50 14.50,23.10 " />
		<line x1="14.50" y1="30.50" x2="14.50" y2="23.10" stroke="#008000" stroke-opacity="0.40" stroke-width="1.00" />
		<line x1="73.50" y1="30.50" x2="73.50" y2="23.10" stroke="#008000" stroke-opacity="0.40" stroke-width="1.00" />
		<polygon fill="#008000" shape-rendering="crispEdges" points="8.79,22.35 8.50,20.50 8.79,18.65 9.65,16.97 10.97,15.65 12.65,14.79 14.50,14.50 14.50,26.50 12.65,26.21 10.97,25.35 9.65,24.03 " />
		<polygon fill="#008000" fill-opacity="0.60" shape-rendering="crispEdges" points="50.09,26.50 50.09,14.50 14.50,14.50 14.50,26.50 " />
		<text x="16.50" y="23.50" font-family="Helvetica" font-size="10" fill="#ffffff" >SF3B3</text>
		<polygon fill="#008000" fill-opacity="0.20" shape-rendering="crispEdges" points="73.08,31.00 73.08,265.00 14.02,265.00 14.02,31.00 " />
		<line x1="14.02" y1="264.00" x2="14.02" y2="31.00" stroke="#008000" stroke-opacity="0.40" stroke-width="1.00" />
		<line x1="73.08" y1="264.00" x2="73.08" y2="31.00" stroke="#008000" stroke-opacity="0.40" stroke-width="1.00" />
		<polygon fill="#e5e5e5" shape-rendering="crispEdges" points="862.00,13.00 862.00,-1.00 0.00,-1.00 0.00,13.00 " />
		<text x="0.00" y="10.00" font-family="Helvetica Bold" font-size="12" text-anchor="start" fill="#000000" >QEPC01003301.1:710141..879034 Sphenodon punctatus isolate mauimua-1 ScrUdWx_583, whole genome shotgun sequence</text>
	</g>
</svg>
